<svg width="248" height="248" viewBox="0 0 248 248" fill="none" xmlns="http://www.w3.org/2000/svg">
<g filter="url(#filter0_ii)">
<g clip-path="url(#clip0)">
<path d="M124 248C178.336 248 208.542 248 228.271 228.271C248 208.542 248 178.336 248 124C248 69.6639 248 39.4577 228.271 19.7288C208.542 -3.28488e-06 178.336 0 124 0C69.6639 0 39.4577 -3.28488e-06 19.7288 19.7288C-3.28488e-06 39.4577 0 69.6639 0 124C0 178.336 -3.28488e-06 208.542 19.7288 228.271C39.4577 248 69.6639 248 124 248Z" fill="url(#paint0_radial)"/>
<g filter="url(#filter1_ii)">
<path d="M124 34C74.305 34 34 74.2975 34 124C34 163.765 59.785 197.5 95.5525 209.402C100.045 210.235 101.5 207.445 101.5 205.075V188.32C76.465 193.765 71.2525 177.7 71.2525 177.7C67.1575 167.298 61.255 164.53 61.255 164.53C53.0875 158.942 61.8775 159.062 61.8775 159.062C70.915 159.692 75.67 168.34 75.67 168.34C83.695 182.095 96.7225 178.12 101.86 175.818C102.663 170.005 104.995 166.03 107.575 163.788C87.5875 161.5 66.5725 153.783 66.5725 119.305C66.5725 109.472 70.09 101.448 75.8425 95.1475C74.9125 92.875 71.83 83.7175 76.72 71.3275C76.72 71.3275 84.28 68.9125 101.478 80.5525C108.655 78.5575 116.35 77.56 124 77.5225C131.65 77.56 139.352 78.5575 146.545 80.5525C163.727 68.9125 171.272 71.3275 171.272 71.3275C176.17 83.725 173.087 92.8825 172.158 95.1475C177.932 101.448 181.42 109.48 181.42 119.305C181.42 153.872 160.368 161.485 140.327 163.712C143.552 166.503 146.5 171.978 146.5 180.378V205.075C146.5 207.467 147.94 210.28 152.507 209.395C188.245 197.477 214 163.75 214 124C214 74.2975 173.702 34 124 34Z" fill="#24292E"/>
</g>
<g style="mix-blend-mode:overlay">
<path d="M124 248C178.336 248 208.542 248 228.271 228.271C248 208.542 248 178.336 248 124C248 69.6639 248 39.4577 228.271 19.7288C208.542 -3.28488e-06 178.336 0 124 0C69.6639 0 39.4577 -3.28488e-06 19.7288 19.7288C-3.28488e-06 39.4577 0 69.6639 0 124C0 178.336 -3.28488e-06 208.542 19.7288 228.271C39.4577 248 69.6639 248 124 248Z" fill="url(#paint1_linear)"/>
</g>
<path d="M124 248C178.336 248 208.542 248 228.271 228.271C248 208.542 248 178.336 248 124C248 69.6639 248 39.4577 228.271 19.7288C208.542 -3.8147e-06 178.336 0 124 0C69.6639 0 39.4577 -3.8147e-06 19.7288 19.7288C-3.8147e-06 39.4577 0 69.6639 0 124C0 178.336 -3.8147e-06 208.542 19.7288 228.271C39.4577 248 69.6639 248 124 248Z" fill="url(#paint2_linear)"/>
<g style="mix-blend-mode:soft-light" filter="url(#filter2_f)">
<path d="M227.211 227.211C217.655 236.766 205.521 241.611 188.896 244.05C172.219 246.496 151.211 246.5 124 246.5C96.7892 246.5 75.7809 246.496 59.1044 244.05C42.4786 241.611 30.345 236.766 20.7895 227.211C11.234 217.655 6.38935 205.521 3.95022 188.896C1.50366 172.219 1.5 151.211 1.5 124C1.5 96.7892 1.50366 75.7809 3.95022 59.1044C6.38935 42.4786 11.234 30.345 20.7895 20.7895C30.345 11.234 42.4786 6.38935 59.1044 3.95022C75.7809 1.50366 96.7892 1.5 124 1.5C151.211 1.5 172.219 1.50366 188.896 3.95022C205.521 6.38935 217.655 11.234 227.211 20.7895C236.766 30.345 241.611 42.4786 244.05 59.1044C246.496 75.7809 246.5 96.7892 246.5 124C246.5 151.211 246.496 172.219 244.05 188.896C241.611 205.521 236.766 217.655 227.211 227.211Z" stroke="url(#paint3_linear)" stroke-width="3"/>
</g>
<g style="mix-blend-mode:soft-light" filter="url(#filter3_f)">
<path d="M226.857 226.857C217.404 236.31 205.388 241.125 188.823 243.555C172.191 245.995 151.225 246 124 246C96.775 246 75.809 245.995 59.177 243.555C42.6124 241.125 30.5956 236.31 21.143 226.857C11.6905 217.404 6.87506 205.388 4.44492 188.823C2.00488 172.191 2 151.225 2 124C2 96.775 2.00488 75.809 4.44492 59.177C6.87506 42.6124 11.6905 30.5956 21.143 21.143C30.5956 11.6905 42.6124 6.87506 59.177 4.44492C75.809 2.00488 96.775 2 124 2C151.225 2 172.191 2.00488 188.823 4.44492C205.388 6.87506 217.404 11.6905 226.857 21.143C236.31 30.5956 241.125 42.6124 243.555 59.177C245.995 75.809 246 96.775 246 124C246 151.225 245.995 172.191 243.555 188.823C241.125 205.388 236.31 217.404 226.857 226.857Z" stroke="url(#paint4_linear)" stroke-width="4"/>
</g>
</g>
</g>
<defs>
<filter id="filter0_ii" x="0" y="-2" width="248" height="252" filterUnits="userSpaceOnUse" color-interpolation-filters="sRGB">
<feFlood flood-opacity="0" result="BackgroundImageFix"/>
<feBlend mode="normal" in="SourceGraphic" in2="BackgroundImageFix" result="shape"/>
<feColorMatrix in="SourceAlpha" type="matrix" values="0 0 0 0 0 0 0 0 0 0 0 0 0 0 0 0 0 0 127 0" result="hardAlpha"/>
<feOffset dy="2"/>
<feGaussianBlur stdDeviation="2"/>
<feComposite in2="hardAlpha" operator="arithmetic" k2="-1" k3="1"/>
<feColorMatrix type="matrix" values="0 0 0 0 1 0 0 0 0 1 0 0 0 0 1 0 0 0 0.25 0"/>
<feBlend mode="normal" in2="shape" result="effect1_innerShadow"/>
<feColorMatrix in="SourceAlpha" type="matrix" values="0 0 0 0 0 0 0 0 0 0 0 0 0 0 0 0 0 0 127 0" result="hardAlpha"/>
<feOffset dy="-2"/>
<feGaussianBlur stdDeviation="2"/>
<feComposite in2="hardAlpha" operator="arithmetic" k2="-1" k3="1"/>
<feColorMatrix type="matrix" values="0 0 0 0 0 0 0 0 0 0 0 0 0 0 0 0 0 0 0.12 0"/>
<feBlend mode="normal" in2="effect1_innerShadow" result="effect2_innerShadow"/>
</filter>
<filter id="filter1_ii" x="34" y="32" width="180" height="184" filterUnits="userSpaceOnUse" color-interpolation-filters="sRGB">
<feFlood flood-opacity="0" result="BackgroundImageFix"/>
<feBlend mode="normal" in="SourceGraphic" in2="BackgroundImageFix" result="shape"/>
<feColorMatrix in="SourceAlpha" type="matrix" values="0 0 0 0 0 0 0 0 0 0 0 0 0 0 0 0 0 0 127 0" result="hardAlpha"/>
<feOffset dy="2"/>
<feGaussianBlur stdDeviation="2"/>
<feComposite in2="hardAlpha" operator="arithmetic" k2="-1" k3="1"/>
<feColorMatrix type="matrix" values="0 0 0 0 1 0 0 0 0 1 0 0 0 0 1 0 0 0 0.25 0"/>
<feBlend mode="normal" in2="shape" result="effect1_innerShadow"/>
<feColorMatrix in="SourceAlpha" type="matrix" values="0 0 0 0 0 0 0 0 0 0 0 0 0 0 0 0 0 0 127 0" result="hardAlpha"/>
<feOffset dy="-2"/>
<feGaussianBlur stdDeviation="2"/>
<feComposite in2="hardAlpha" operator="arithmetic" k2="-1" k3="1"/>
<feColorMatrix type="matrix" values="0 0 0 0 0 0 0 0 0 0 0 0 0 0 0 0 0 0 0.12 0"/>
<feBlend mode="normal" in2="effect1_innerShadow" result="effect2_innerShadow"/>
</filter>
<filter id="filter2_f" x="-2" y="-2" width="252" height="252" filterUnits="userSpaceOnUse" color-interpolation-filters="sRGB">
<feFlood flood-opacity="0" result="BackgroundImageFix"/>
<feBlend mode="normal" in="SourceGraphic" in2="BackgroundImageFix" result="shape"/>
<feGaussianBlur stdDeviation="1" result="effect1_foregroundBlur"/>
</filter>
<filter id="filter3_f" x="-6" y="-6" width="260" height="260" filterUnits="userSpaceOnUse" color-interpolation-filters="sRGB">
<feFlood flood-opacity="0" result="BackgroundImageFix"/>
<feBlend mode="normal" in="SourceGraphic" in2="BackgroundImageFix" result="shape"/>
<feGaussianBlur stdDeviation="3" result="effect1_foregroundBlur"/>
</filter>
<radialGradient id="paint0_radial" cx="0" cy="0" r="1" gradientUnits="userSpaceOnUse" gradientTransform="translate(124 124) rotate(90) scale(124)">
<stop stop-color="#FAFBFC"/>
<stop offset="1" stop-color="#F6F8FA"/>
</radialGradient>
<linearGradient id="paint1_linear" x1="-2.90864" y1="4.96427e-07" x2="64.9836" y2="290.737" gradientUnits="userSpaceOnUse">
<stop stop-opacity="0"/>
<stop offset="0.605667" stop-opacity="0.0781197"/>
<stop offset="1" stop-opacity="0.26"/>
</linearGradient>
<linearGradient id="paint2_linear" x1="-2.90864" y1="4.96427e-07" x2="64.9836" y2="290.737" gradientUnits="userSpaceOnUse">
<stop offset="0.140625" stop-color="white" stop-opacity="0.26"/>
<stop offset="0.640625" stop-color="white" stop-opacity="0.0781197"/>
<stop offset="1" stop-color="white" stop-opacity="0"/>
</linearGradient>
<linearGradient id="paint3_linear" x1="124" y1="248" x2="124" y2="209.25" gradientUnits="userSpaceOnUse">
<stop/>
<stop offset="1" stop-opacity="0"/>
</linearGradient>
<linearGradient id="paint4_linear" x1="124" y1="0" x2="124" y2="124" gradientUnits="userSpaceOnUse">
<stop stop-color="white"/>
<stop offset="1" stop-color="white" stop-opacity="0"/>
</linearGradient>
<clipPath id="clip0">
<rect width="248" height="248" fill="white"/>
</clipPath>
</defs>
</svg>
