<svg width="86" height="86" viewBox="0 0 86 86" fill="none" xmlns="http://www.w3.org/2000/svg">
<path d="M0 32C0 20.799 0 15.1984 2.17987 10.9202C4.09734 7.15695 7.15695 4.09734 10.9202 2.17987C15.1984 0 20.799 0 32 0H54C65.201 0 70.8016 0 75.0798 2.17987C78.843 4.09734 81.9027 7.15695 83.8201 10.9202C86 15.1984 86 20.799 86 32V54C86 65.201 86 70.8016 83.8201 75.0798C81.9027 78.843 78.843 81.9027 75.0798 83.8201C70.8016 86 65.201 86 54 86H32C20.799 86 15.1984 86 10.9202 83.8201C7.15695 81.9027 4.09734 78.843 2.17987 75.0798C0 70.8016 0 65.201 0 54V32Z" fill="url(#paint0_linear)"/>
<g filter="url(#filter0_di)">
<circle cx="43" cy="43" r="37" fill="url(#paint1_linear)"/>
</g>
<circle cx="43" cy="43" r="32.9629" transform="rotate(4.84342 43 43)" stroke="white" stroke-width="3" stroke-dasharray="1 5"/>
<circle cx="43" cy="43" r="31.4629" transform="rotate(-10.1566 43 43)" stroke="white" stroke-width="6" stroke-dasharray="1 5"/>
<g filter="url(#filter1_d)">
<mask id="mask0" mask-type="alpha" maskUnits="userSpaceOnUse" x="39" y="21" width="29" height="26">
<path d="M39 39.5L67.5 21L45 46.5L39 39.5Z" fill="#C4C4C4"/>
</mask>
<g mask="url(#mask0)">
<path d="M39 39.5L67.5 21L45 46.5L39 39.5Z" fill="#D27067"/>
<path d="M40.5 44.5L67.5 21L45 46.5L40.5 44.5Z" fill="#B63027"/>
</g>
<mask id="mask1" mask-type="alpha" maskUnits="userSpaceOnUse" x="17" y="39" width="29" height="26">
<path d="M45.5 46L17 64.5L39.5 39L45.5 46Z" fill="#C4C4C4"/>
</mask>
<g mask="url(#mask1)">
<path d="M45.5 46L17 64.5L39.5 39L45.5 46Z" fill="#CEC4CC"/>
<path d="M44 41L17 64.5L39.5 39L44 41Z" fill="#FCFFF6"/>
</g>
</g>
<defs>
<filter id="filter0_di" x="6" y="6" width="74" height="76" filterUnits="userSpaceOnUse" color-interpolation-filters="sRGB">
<feFlood flood-opacity="0" result="BackgroundImageFix"/>
<feColorMatrix in="SourceAlpha" type="matrix" values="0 0 0 0 0 0 0 0 0 0 0 0 0 0 0 0 0 0 127 0"/>
<feOffset dy="1"/>
<feColorMatrix type="matrix" values="0 0 0 0 1 0 0 0 0 1 0 0 0 0 1 0 0 0 0.53 0"/>
<feBlend mode="normal" in2="BackgroundImageFix" result="effect1_dropShadow"/>
<feBlend mode="normal" in="SourceGraphic" in2="effect1_dropShadow" result="shape"/>
<feColorMatrix in="SourceAlpha" type="matrix" values="0 0 0 0 0 0 0 0 0 0 0 0 0 0 0 0 0 0 127 0" result="hardAlpha"/>
<feOffset dy="2"/>
<feGaussianBlur stdDeviation="2.5"/>
<feComposite in2="hardAlpha" operator="arithmetic" k2="-1" k3="1"/>
<feColorMatrix type="matrix" values="0 0 0 0 0 0 0 0 0 0 0 0 0 0 0 0 0 0 0.37 0"/>
<feBlend mode="normal" in2="shape" result="effect2_innerShadow"/>
</filter>
<filter id="filter1_d" x="13" y="19" width="58.5" height="51.5" filterUnits="userSpaceOnUse" color-interpolation-filters="sRGB">
<feFlood flood-opacity="0" result="BackgroundImageFix"/>
<feColorMatrix in="SourceAlpha" type="matrix" values="0 0 0 0 0 0 0 0 0 0 0 0 0 0 0 0 0 0 127 0"/>
<feOffset dy="2"/>
<feGaussianBlur stdDeviation="2"/>
<feColorMatrix type="matrix" values="0 0 0 0 0 0 0 0 0 0 0 0 0 0 0 0 0 0 0.74 0"/>
<feBlend mode="normal" in2="BackgroundImageFix" result="effect1_dropShadow"/>
<feBlend mode="normal" in="SourceGraphic" in2="effect1_dropShadow" result="shape"/>
</filter>
<linearGradient id="paint0_linear" x1="22" y1="76.5" x2="60" y2="-4.5" gradientUnits="userSpaceOnUse">
<stop stop-color="#D5D5D5"/>
<stop offset="1" stop-color="white"/>
</linearGradient>
<linearGradient id="paint1_linear" x1="57.6053" y1="13.3026" x2="43" y2="80" gradientUnits="userSpaceOnUse">
<stop stop-color="#25B5F8"/>
<stop offset="1" stop-color="#3570B6"/>
</linearGradient>
</defs>
</svg>
