<svg width="86" height="86" viewBox="0 0 86 86" fill="none" xmlns="http://www.w3.org/2000/svg">
<path d="M4 32C4 26.3335 4.00311 22.3241 4.2592 19.1898C4.51147 16.1021 4.98916 14.2174 5.7439 12.7362C7.27787 9.72556 9.72556 7.27787 12.7362 5.7439C14.2174 4.98916 16.1021 4.51147 19.1898 4.2592C22.3241 4.00311 26.3335 4 32 4H54C59.6665 4 63.6759 4.00311 66.8102 4.2592C69.8979 4.51147 71.7826 4.98916 73.2638 5.7439C76.2744 7.27787 78.7221 9.72556 80.2561 12.7361C81.0108 14.2174 81.4885 16.1021 81.7408 19.1898C81.9969 22.3241 82 26.3335 82 32V54C82 59.6665 81.9969 63.6759 81.7408 66.8102C81.4885 69.8979 81.0108 71.7826 80.2561 73.2638C78.7221 76.2744 76.2744 78.7221 73.2638 80.2561C71.7826 81.0108 69.8979 81.4885 66.8102 81.7408C63.6759 81.9969 59.6665 82 54 82H32C26.3335 82 22.3241 81.9969 19.1898 81.7408C16.1021 81.4885 14.2174 81.0108 12.7362 80.2561C9.72556 78.7221 7.27787 76.2744 5.74389 73.2638C4.98916 71.7826 4.51147 69.8979 4.2592 66.8102C4.00311 63.6759 4 59.6665 4 54V32Z" fill="#262626" stroke="black" stroke-width="8"/>
<path d="M1 32C1 26.383 1.00078 22.2303 1.26916 18.9455C1.53659 15.6723 2.06474 13.3488 3.07088 11.3742C4.89247 7.7991 7.7991 4.89247 11.3742 3.07088C13.3488 2.06474 15.6723 1.53659 18.9455 1.26916C22.2303 1.00078 26.383 1 32 1H54C59.617 1 63.7697 1.00078 67.0545 1.26916C70.3277 1.53659 72.6512 2.06474 74.6258 3.07088C78.2009 4.89247 81.1075 7.7991 82.9291 11.3742C83.9353 13.3488 84.4634 15.6723 84.7308 18.9455C84.9992 22.2303 85 26.383 85 32V54C85 59.617 84.9992 63.7697 84.7308 67.0545C84.4634 70.3277 83.9353 72.6512 82.9291 74.6258C81.1075 78.2009 78.2009 81.1075 74.6258 82.9291C72.6512 83.9353 70.3277 84.4634 67.0545 84.7308C63.7697 84.9992 59.617 85 54 85H32C26.383 85 22.2303 84.9992 18.9455 84.7308C15.6723 84.4634 13.3488 83.9353 11.3742 82.9291C7.7991 81.1075 4.89247 78.2009 3.07088 74.6258C2.06474 72.6512 1.53659 70.3277 1.26916 67.0545C1.00078 63.7697 1 59.617 1 54V32Z" stroke="url(#paint0_linear)" stroke-width="2"/>
<path fill-rule="evenodd" clip-rule="evenodd" d="M16 15.5V18L24 22L16 26.5V29L26 23.5V20.5L16 15.5ZM41 30H30V33H41V30Z" fill="white"/>
<defs>
<linearGradient id="paint0_linear" x1="43" y1="0" x2="43" y2="86" gradientUnits="userSpaceOnUse">
<stop stop-color="#F1F2F2"/>
<stop offset="1" stop-color="#888886"/>
</linearGradient>
</defs>
</svg>
