<svg width="26" height="26" viewBox="0 0 26 26" fill="none" xmlns="http://www.w3.org/2000/svg">
<path d="M13.0017 0.500022C10.5292 0.499682 8.11241 1.23254 6.05657 2.60581C4.00068 3.97907 2.39821 5.93123 1.452 8.21526C0.505633 10.4993 0.257845 13.0126 0.740012 15.4374C1.22211 17.8623 2.41253 20.0898 4.16062 21.8382C5.90872 23.5865 8.13605 24.7772 10.5607 25.2597C12.9855 25.7422 15.4988 25.4947 17.7831 24.5486C20.0673 23.6026 22.0195 22.0005 23.3932 19.9449C24.7668 17.8893 25.4999 15.4725 25.4999 13C25.4964 9.68632 24.1784 6.50911 21.8355 4.16575C19.4923 1.82239 16.3156 0.504129 13.0019 0.5L13.0017 0.500022ZM1.35355 13C1.35711 9.91192 2.58549 6.95116 4.76916 4.76753C6.95279 2.5839 9.91356 1.35561 13.0017 1.35192V24.6464C9.91377 24.6433 6.95301 23.4153 4.76938 21.2319C2.58575 19.0485 1.35724 16.0879 1.35355 13V13Z" fill="#FFAA8F"/>
</svg>
