<svg width="27" height="26" viewBox="0 0 27 26" fill="none" xmlns="http://www.w3.org/2000/svg">
<path d="M22.9625 4.8449C21.2901 4.07754 19.4968 3.51218 17.6217 3.18837C17.5875 3.18212 17.5534 3.19774 17.5358 3.22897C17.3052 3.6392 17.0497 4.17436 16.8708 4.595C14.854 4.29307 12.8475 4.29307 10.8721 4.595C10.6932 4.16501 10.4284 3.6392 10.1967 3.22897C10.1791 3.19878 10.145 3.18316 10.1109 3.18837C8.2368 3.51114 6.44341 4.0765 4.76998 4.8449C4.7555 4.85115 4.74308 4.86157 4.73484 4.8751C1.33316 9.95714 0.401292 14.9143 0.858433 19.8099C0.860502 19.8339 0.873947 19.8568 0.892564 19.8714C3.1369 21.5195 5.31092 22.5201 7.44457 23.1834C7.47871 23.1938 7.51489 23.1813 7.53662 23.1532C8.04134 22.4639 8.49125 21.7372 8.877 20.9729C8.89977 20.9282 8.87804 20.8751 8.83151 20.8574C8.11788 20.5867 7.43836 20.2566 6.78471 19.8818C6.733 19.8516 6.72887 19.7776 6.77643 19.7422C6.91398 19.6392 7.05157 19.5319 7.18291 19.4236C7.20668 19.4039 7.23979 19.3997 7.26773 19.4122C11.5619 21.3728 16.2109 21.3728 20.4544 19.4122C20.4824 19.3986 20.5155 19.4028 20.5403 19.4226C20.6717 19.5309 20.8092 19.6392 20.9478 19.7422C20.9954 19.7776 20.9923 19.8516 20.9406 19.8818C20.2869 20.2639 19.6074 20.5867 18.8927 20.8563C18.8462 20.874 18.8255 20.9282 18.8483 20.9729C19.2423 21.7361 19.6922 22.4629 20.1876 23.1521C20.2083 23.1813 20.2455 23.1938 20.2797 23.1834C22.4237 22.5201 24.5977 21.5195 26.842 19.8714C26.8617 19.8568 26.8741 19.8349 26.8762 19.811C27.4233 14.151 25.9598 9.23456 22.9967 4.87613C22.9894 4.86157 22.977 4.85115 22.9625 4.8449ZM9.51827 16.829C8.22542 16.829 7.16015 15.6421 7.16015 14.1844C7.16015 12.7267 8.20476 11.5398 9.51827 11.5398C10.8421 11.5398 11.8971 12.7371 11.8764 14.1844C11.8764 15.6421 10.8317 16.829 9.51827 16.829ZM18.237 16.829C16.9442 16.829 15.8789 15.6421 15.8789 14.1844C15.8789 12.7267 16.9235 11.5398 18.237 11.5398C19.5609 11.5398 20.6158 12.7371 20.5951 14.1844C20.5951 15.6421 19.5609 16.829 18.237 16.829Z" fill="#406AFF"/>
</svg>
