<?xml version="1.0" encoding="utf-8"?>
<!-- Generator: Adobe Illustrator 15.1.0, SVG Export Plug-In . SVG Version: 6.00 Build 0)  -->
<!DOCTYPE svg PUBLIC "-//W3C//DTD SVG 1.1//EN" "http://www.w3.org/Graphics/SVG/1.1/DTD/svg11.dtd">
<svg version="1.1" id="Layer_1" xmlns="http://www.w3.org/2000/svg" xmlns:xlink="http://www.w3.org/1999/xlink" x="0px" y="0px"
	 width="79.236px" height="391.826px" viewBox="0 0 79.236 391.826" enable-background="new 0 0 79.236 391.826"
	 xml:space="preserve">
<g>
	<polyline fill="none" stroke="#A2ABB3" stroke-miterlimit="10" points="11.355,189.633 11.355,145.902 7.023,141.902 
		7.023,111.652 14.129,105.902 14.129,86.902 2.273,86.902 2.273,75.402 8.201,65.652 	"/>
	<polyline fill="none" stroke="#A2ABB3" stroke-miterlimit="10" points="12.653,124.779 12.653,112.402 18.773,105.652 
		18.773,62.879 11.355,54.152 11.355,39.902 4.855,27.402 	"/>
	<circle fill="none" stroke="#A2ABB3" stroke-miterlimit="10" cx="12.652" cy="127.903" r="2.773"/>
	<circle fill="none" stroke="#A2ABB3" stroke-miterlimit="10" cx="11.355" cy="192.406" r="2.773"/>
	<circle fill="none" stroke="#A2ABB3" stroke-miterlimit="10" cx="9.88" cy="62.879" r="2.773"/>
	<circle fill="none" stroke="#A2ABB3" stroke-miterlimit="10" cx="3.272" cy="25.629" r="2.773"/>
	<circle fill="none" stroke="#A2ABB3" stroke-miterlimit="10" cx="12.652" cy="136.903" r="2.773"/>
	<polyline fill="none" stroke="#A2ABB3" stroke-miterlimit="10" points="15.097,135.591 18.773,132.735 18.773,112.402 
		24.189,106.402 24.189,62.879 15.427,52.402 15.427,15.406 22.746,7.754 49.18,7.571 54.056,0.545 60.305,0.502 65.273,7.461 
		73.189,7.406 	"/>
	<circle fill="none" stroke="#A2ABB3" stroke-miterlimit="10" cx="75.962" cy="7.406" r="2.773"/>
	<polyline fill="none" stroke="#A2ABB3" stroke-miterlimit="10" points="20.958,146.815 17.118,152.151 17.118,170.651 
		22.614,174.902 22.614,186.957 22.614,215.152 12.484,222.625 12.484,285.125 20.484,297.125 	"/>
	<circle fill="none" stroke="#A2ABB3" stroke-miterlimit="10" cx="22.116" cy="299.337" r="2.773"/>
	<circle fill="none" stroke="#A2ABB3" stroke-miterlimit="10" cx="22.614" cy="144.59" r="2.773"/>
	<polyline fill="none" stroke="#A2ABB3" stroke-miterlimit="10" points="21.961,385.779 21.961,323.402 7.841,286.652 
		7.841,243.879 2.259,230.152 2.259,215.902 12.759,208.402 	"/>
	<circle fill="none" stroke="#A2ABB3" stroke-miterlimit="10" cx="21.962" cy="388.553" r="2.773"/>
	<circle fill="none" stroke="#A2ABB3" stroke-miterlimit="10" cx="14.342" cy="206.629" r="2.773"/>
</g>
</svg>
