<svg width="31" height="29" viewBox="0 0 31 29" fill="none" xmlns="http://www.w3.org/2000/svg">
<path fill-rule="evenodd" clip-rule="evenodd" d="M7.9647 5.64508C8.88982 14.1611 21.3667 14.155 22.2888 5.64508C19.0937 5.3509 16.3919 3.32837 15.1267 0.524414C13.8616 3.32837 11.1597 5.3509 7.9647 5.64508ZM14.3241 13.6126C14.0453 16.6954 11.5916 19.386 8.54972 19.9499C4.43875 20.8049 0.364535 17.7312 0 13.6126C3.19504 13.3184 5.89689 11.2959 7.16204 8.49195C8.418 11.3174 11.2393 13.3521 14.3241 13.6126ZM22.2888 21.5801C21.9212 25.2084 18.8487 28.0522 15.1267 28.0522C11.4048 28.0522 8.3323 25.2084 7.9647 21.5801C11.0495 21.3197 13.8708 19.2849 15.1267 16.4595C16.3827 19.2849 19.204 21.3197 22.2888 21.5801ZM30.2533 13.6126C29.8857 17.4677 26.3598 20.4371 22.4357 20.0541C19.0905 19.7997 16.2233 16.9559 15.9292 13.6126C19.014 13.3521 21.8353 11.3174 23.0912 8.49195C24.3564 11.2959 27.0582 13.3184 30.2533 13.6126Z" fill="#44486D"/>
</svg>
