<svg width="30" height="30" viewBox="0 0 30 30" fill="none" xmlns="http://www.w3.org/2000/svg">
<path d="M28.125 5.625H7.5C7.00279 5.625 6.52586 5.82254 6.17411 6.17411C5.82254 6.52588 5.625 7.0028 5.625 7.5V28.125C5.625 28.6222 5.82254 29.0991 6.17411 29.4509C6.52588 29.8025 7.0028 30 7.5 30H28.125C28.6222 30 29.0991 29.8025 29.4509 29.4509C29.8025 29.0991 30 28.6222 30 28.125V7.5C30 7.00279 29.8025 6.52586 29.4509 6.17411C29.0991 5.82254 28.6222 5.625 28.125 5.625ZM28.125 28.125H7.5V7.5H28.125V28.125Z" fill="#03C4E8"/>
<path d="M1.875 1.875H22.5V3.75H24.375V1.875C24.375 1.37779 24.1775 0.900857 23.8259 0.549107C23.4741 0.197545 22.9972 0 22.5 0H1.875C1.37779 0 0.900857 0.197545 0.549107 0.549107C0.197545 0.900879 0 1.3778 0 1.875V22.5C0 22.9972 0.197545 23.4741 0.549107 23.8259C0.900879 24.1775 1.3778 24.375 1.875 24.375H3.75V22.5H1.875V1.875Z" fill="#03C4E8"/>
<path d="M10.3125 23.4375H25.3125C25.5622 23.4389 25.8022 23.3408 25.9792 23.1646C26.1563 22.9884 26.2557 22.749 26.2555 22.4991C26.2552 22.2495 26.1554 22.0103 25.9782 21.8343L22.2282 18.0843C22.0524 17.9098 21.8149 17.8116 21.5671 17.8116C21.3195 17.8116 21.0818 17.9098 20.9062 18.0843L19.6875 19.303L16.6032 16.2187C16.4274 16.0442 16.1899 15.946 15.9421 15.946C15.6945 15.946 15.4568 16.0442 15.2812 16.2187L9.65625 21.8437C9.48403 22.0195 9.38777 22.2558 9.38818 22.5018C9.3886 22.7479 9.48591 22.984 9.65876 23.1589C9.83162 23.3339 10.0664 23.4339 10.3125 23.4375L10.3125 23.4375Z" fill="#03C4E8"/>
<path d="M24.375 14.0625C24.375 15.0979 23.5354 15.9375 22.5 15.9375C21.4646 15.9375 20.625 15.0979 20.625 14.0625C20.625 13.0271 21.4646 12.1875 22.5 12.1875C23.5354 12.1875 24.375 13.0271 24.375 14.0625Z" fill="#03C4E8"/>
</svg>
