<svg width="32" height="30" viewBox="0 0 32 30" fill="none" xmlns="http://www.w3.org/2000/svg">
<path d="M11.7038 5.3815C11.4592 5.13721 11.1277 5 10.782 5C10.4363 5 10.1047 5.13721 9.86014 5.3815L1.16349 14.0782C0.919198 14.3227 0.781982 14.6543 0.781982 15C0.781982 15.3457 0.919198 15.6773 1.16349 15.9218L9.86014 24.6185C10.1047 24.8628 10.4363 25 10.782 25C11.1277 25 11.4592 24.8628 11.7038 24.6185C11.9481 24.3739 12.0853 24.0423 12.0853 23.6966C12.0853 23.351 11.9481 23.0194 11.7038 22.7748L3.92902 15L11.7038 7.22519C11.9481 6.9806 12.0853 6.64904 12.0853 6.30335C12.0853 5.95766 11.9481 5.6261 11.7038 5.3815Z" fill="#03C4E8"/>
<path d="M30.8366 14.0781L22.14 5.38148C21.8927 5.15106 21.5656 5.02561 21.2277 5.03158C20.8897 5.03754 20.5673 5.17444 20.3283 5.41345C20.0893 5.65246 19.9524 5.9749 19.9464 6.31286C19.9404 6.65081 20.0659 6.97789 20.2963 7.22518L28.0711 15L20.2963 22.7748C20.052 23.0194 19.9148 23.3509 19.9148 23.6966C19.9148 24.0423 20.052 24.3739 20.2963 24.6185C20.5409 24.8628 20.8725 25 21.2181 25C21.5638 25 21.8954 24.8628 22.14 24.6185L30.8366 15.9218C31.0809 15.6772 31.2181 15.3457 31.2181 15C31.2181 14.6543 31.0809 14.3227 30.8366 14.0781Z" fill="#03C4E8"/>
</svg>
