<svg width="28" height="30" viewBox="0 0 28 30" fill="none" xmlns="http://www.w3.org/2000/svg">
<path d="M22.4375 14.0625H1.8125C1.29688 14.0625 0.875 14.4844 0.875 15V24.375C0.875 24.8906 1.29688 25.3125 1.8125 25.3125H22.4375C22.954 25.3125 23.375 24.8906 23.375 24.375V15C23.375 14.4844 22.954 14.0625 22.4375 14.0625ZM9.36607 21.9675C8.84103 22.4559 8.21198 22.5535 7.58857 22.5535C5.77448 22.5535 4.95795 21.3159 4.95795 19.8694C4.95795 18.4228 5.86448 17.1787 7.58857 17.1787C8.24107 17.1787 8.75771 17.3737 9.30516 17.8463C9.50773 18.0329 9.53012 18.3627 9.32776 18.5728C9.1252 18.7519 8.81779 18.7304 8.63867 18.5502C8.33126 18.2277 8.01612 18.1386 7.58857 18.1386C6.43448 18.1386 5.87953 18.9562 5.87953 19.8702C5.87953 20.8002 6.42612 21.6542 7.58857 21.6542C8.01609 21.6542 8.41346 21.4807 8.75771 21.1741C8.99104 20.9935 9.31265 21.0825 9.44867 21.2635C9.56858 21.4276 9.62759 21.705 9.36601 21.9675L9.36607 21.9675ZM10.5971 22.1251C10.3496 21.9236 10.3571 21.5944 10.4921 21.391C10.6871 21.197 10.9037 21.1294 11.1596 21.3385C11.7736 21.7585 13.3563 22.0734 13.4687 21.0076C13.3712 19.8985 10.2521 20.5661 10.4846 18.437C10.657 16.9831 12.8526 16.7215 13.8876 17.5165C14.3976 17.9281 13.8577 18.5806 13.4076 18.2506C12.8526 17.8982 11.5935 17.7331 11.4361 18.5121C11.2335 19.7422 14.4943 19.038 14.4417 21.0312C14.3902 22.9351 11.6311 22.9801 10.5971 22.125L10.5971 22.1251ZM15.4449 22.1251C15.1974 21.9236 15.2049 21.5944 15.3409 21.391C15.5349 21.197 15.7525 21.1294 16.0074 21.3385C16.6224 21.7585 18.2049 22.0734 18.3164 21.0076C18.2189 19.8985 15.1009 20.5661 15.3334 18.437C15.5058 16.9831 17.7006 16.7215 18.7356 17.5165C19.2466 17.9281 18.7065 18.5806 18.2555 18.2506C17.7006 17.8982 16.4425 17.7331 16.2849 18.5121C16.0815 19.7422 19.3431 19.038 19.2895 21.0312C19.2389 22.9351 16.48 22.9801 15.4449 22.125L15.4449 22.1251Z" fill="#03C4E8"/>
<path d="M26.1873 7.11161L20.0132 0.9375C19.4712 0.393857 18.5188 0 17.75 0H7.4375C5.88688 0 4.625 1.26188 4.625 2.8125V12.1875C4.625 12.7058 5.04415 13.125 5.5625 13.125C6.08085 13.125 6.5 12.7058 6.5 12.1875V2.8125C6.5 2.29604 6.91999 1.875 7.4375 1.875H15.875C16.9109 1.875 17.75 2.715 17.75 3.75V7.26562C17.75 8.4262 18.7007 9.375 19.8594 9.375H23.375C24.4109 9.375 25.25 10.215 25.25 11.25V27.1875C25.25 27.704 24.8308 28.125 24.3125 28.125H7.4375C6.91999 28.125 6.5 27.704 6.5 27.1875C6.5 26.6692 6.08085 26.25 5.5625 26.25C5.04415 26.25 4.625 26.6692 4.625 27.1875C4.625 28.7381 5.88688 30 7.4375 30H24.3125C25.8631 30 27.125 28.7381 27.125 27.1875V9.375C27.125 8.60721 26.7312 7.65466 26.1875 7.11182L26.1873 7.11161Z" fill="#03C4E8"/>
</svg>
