<svg width="30" height="30" viewBox="0 0 30 30" fill="none" xmlns="http://www.w3.org/2000/svg">
<path fill-rule="evenodd" clip-rule="evenodd" d="M22.5454 0.436488C22.5454 0.436488 24.5712 0.031435 27.2679 2.7318H27.2674C29.9346 5.39735 29.5735 7.40446 29.5645 7.45429C29.5644 7.45491 29.5644 7.45523 29.5644 7.45523L9.31948 27.696L0.413086 29.5842L2.30109 20.6784L22.5454 0.436488ZM5.7524 27.2778L8.78967 26.6242L9.66667 25.7452C9.66667 25.7452 9.63108 24.096 7.76611 22.2289C5.90418 20.3632 4.24986 20.3309 4.24986 20.3309L3.37119 21.2058L2.71763 24.2438C3.26708 24.5358 3.81648 24.8899 4.46171 25.5352C5.10669 26.1829 5.45966 26.7288 5.7524 27.2778ZM22.4999 2L5.99993 19C5.99993 19 7.99988 20 8.99988 21C9.99988 22 10.4999 24.5 10.4999 24.5L27.9999 7C27.9999 7 27.4999 5.5 25.9999 4C24.4999 2.5 22.4999 2 22.4999 2Z" fill="#03C4E8"/>
<path d="M6.35405 14.0806L7.6301 12.8051L1.83848 7.01297L7.01279 1.83866L8.20837 3.03423L6.59637 4.64623C6.24342 4.99778 6.24412 5.57002 6.59637 5.92156C6.94792 6.27452 7.51874 6.27452 7.87171 5.92156L9.4837 4.30957L11.6886 6.51328L10.0759 8.12664C9.72364 8.4782 9.72364 9.05044 10.0766 9.40198C10.2698 9.59566 10.5284 9.67239 10.7818 9.65309L14.0795 6.35494L8.17371 0.448671C7.5336 -0.191437 6.43963 -0.140742 5.73655 0.563067L0.562948 5.73762C-0.139956 6.44094 -0.191087 7.53354 0.449248 8.17478L6.35405 14.0806Z" fill="#03C4E8"/>
<path d="M29.55 21.8251L23.6478 15.9231L20.2701 19.3005C20.2915 19.4968 20.3652 19.6902 20.5161 19.8411C20.8676 20.1941 21.438 20.1941 21.7907 19.8411L23.4034 18.2289L25.6076 20.4338L23.9949 22.046C23.6426 22.3976 23.6426 22.9698 23.9949 23.3211C24.3478 23.6745 24.9182 23.6745 25.2709 23.3211L26.8829 21.7091L28.1603 22.9868H28.1596L22.9863 28.1616L17.1982 22.3732L15.9221 23.6486L21.8251 29.5511C22.4657 30.1914 23.5587 30.1405 24.2623 29.4381L29.4359 24.2638C30.1406 23.5592 30.1906 22.4662 29.55 21.8252L29.55 21.8251Z" fill="#03C4E8"/>
</svg>
