<svg width="30" height="30" viewBox="0 0 30 30" fill="none" xmlns="http://www.w3.org/2000/svg">
<path d="M11.1291 8.63573e-05H2.41952C1.0856 8.63573e-05 0.000186987 1.0855 0.000186987 2.41942V11.129C0.000186987 12.4629 1.0856 13.5484 2.41952 13.5484H11.1291C12.463 13.5484 13.5485 12.4629 13.5485 11.129V2.41942C13.5485 1.0855 12.4633 8.63573e-05 11.1291 8.63573e-05ZM6.7745 9.67742C6.28239 9.67742 5.81592 9.58562 5.39401 9.42395L3.87112 9.67742L4.06553 8.51165C3.64127 8.02697 3.38745 7.42718 3.38745 6.77448C3.38745 5.17089 4.90394 3.87111 6.77444 3.87111C8.64493 3.87111 10.1614 5.17089 10.1614 6.77448C10.1614 8.37807 8.64499 9.67742 6.7745 9.67742ZM27.5808 16.4517H18.8712C17.5372 16.4517 16.4518 17.5371 16.4518 18.8711V27.5807C16.4518 28.9146 17.5372 30 18.8712 30H27.5808C28.9147 30 30.0001 28.9146 30.0001 27.5807V18.8711C30.0001 17.5369 28.9147 16.4517 27.5808 16.4517ZM25.827 23.4272L22.1501 25.8786C21.9894 25.9852 21.7741 25.8701 21.7741 25.6771V20.7746C21.7741 20.5816 21.9894 20.4658 22.1501 20.5735L25.827 23.0249C25.9708 23.1204 25.9708 23.3313 25.827 23.4272ZM11.1287 16.4517H2.41909C1.08517 16.4517 -0.000244141 17.5371 -0.000244141 18.8711V27.5807C-0.000244141 28.9146 1.08517 30 2.41909 30H11.1287C12.4626 30 13.548 28.9146 13.548 27.5807V18.8711C13.548 17.5369 12.4629 16.4517 11.1287 16.4517ZM9.67701 25.1613C9.67701 25.696 9.24397 26.129 8.70936 26.129H4.83834C4.30371 26.129 3.87069 25.6959 3.87069 25.1613V22.258H9.67701V25.1613ZM9.67701 21.774H3.87069V21.29C3.87069 20.7554 4.30372 20.3224 4.83834 20.3224H8.70936C9.24399 20.3224 9.67701 20.7554 9.67701 21.29V21.774ZM27.5801 0H18.8705C17.5366 0 16.4511 1.08542 16.4511 2.41933V11.1289C16.4511 12.4629 17.5366 13.5483 18.8705 13.5483H27.5801C28.914 13.5483 29.9994 12.4629 29.9994 11.1289V2.41933C29.9994 1.08542 28.914 0 27.5801 0ZM26.6121 8.95154C26.6121 9.08519 26.5037 9.19354 26.3701 9.19354H20.0797C19.9461 9.19354 19.8377 9.08519 19.8377 8.95154V5.79811L23.2247 7.28012L26.6117 5.79811L26.6121 8.95154ZM26.6121 5.27026L23.2251 6.75193L19.8381 5.27026V4.59691C19.8381 4.46325 19.9465 4.3549 20.0801 4.3549H26.3705C26.5041 4.3549 26.6125 4.46325 26.6125 4.59691L26.6121 5.27026Z" fill="#03C4E8"/>
</svg>
