<svg width="34" height="30" viewBox="0 0 34 30" fill="none" xmlns="http://www.w3.org/2000/svg">
<path d="M17.0299 0.000901703C17.0188 5.23287e-08 17.0067 0 16.9936 0C16.823 0 16.6605 0.0383176 16.516 0.105935L16.523 0.103005L1.49333 7.04051C1.10361 7.22331 0.837891 7.61303 0.837891 8.0634C0.837891 8.51374 1.10341 8.90348 1.48611 9.08334L1.4931 9.08627L16.5227 16.0238C16.6611 16.0894 16.8236 16.1268 16.9943 16.1268C17.1649 16.1268 17.3274 16.0885 17.473 16.0208L17.466 16.0238L32.4957 9.08627C32.8854 8.90347 33.1511 8.51376 33.1511 8.06339C33.1511 7.61304 32.8856 7.22331 32.5029 7.04345L32.4959 7.04052L17.4663 0.10301C17.338 0.0423763 17.1895 0.00496237 17.0321 0L17.0299 0.000901703ZM16.9936 2.36893L29.3343 8.06406L16.9936 13.7603L4.65287 8.06406L16.9936 2.3698V2.36893Z" fill="#03C4E8"/>
<path d="M32.0635 13.867C32.0553 13.867 32.0452 13.8661 32.0362 13.8661C31.8595 13.8661 31.6929 13.9064 31.5444 13.9792L31.5514 13.9763L16.9931 20.6957L2.43494 13.9763C2.29655 13.9107 2.13403 13.8733 1.9634 13.8733C1.34039 13.8733 0.836426 14.3782 0.836426 15.0003C0.836426 15.4518 1.10195 15.8404 1.48465 16.0202L1.49164 16.0232L16.5213 22.9607C16.6597 23.0263 16.8222 23.0637 16.9928 23.0637C17.1634 23.0637 17.3259 23.0254 17.4716 22.9577L17.4646 22.9607L32.4942 16.0232C32.892 15.8435 33.1637 15.4506 33.1637 14.9931C33.1637 14.3802 32.6739 13.8814 32.0639 13.8661H32.063L32.0635 13.867Z" fill="#03C4E8"/>
<path d="M32.0635 20.8033C32.0553 20.8033 32.0452 20.8024 32.0362 20.8024C31.8595 20.8024 31.6929 20.8427 31.5444 20.9155L31.5514 20.9126L16.9931 27.632L2.43494 20.9126C2.29655 20.847 2.13403 20.8096 1.9634 20.8096C1.34039 20.8096 0.836426 21.3145 0.836426 21.9366C0.836426 22.388 1.10195 22.7766 1.48465 22.9565L1.49164 22.9594L16.5213 29.8969C16.6597 29.9625 16.8222 30 16.9928 30C17.1634 30 17.3259 29.9616 17.4716 29.894L17.4646 29.8969L32.4942 22.9594C32.892 22.7798 33.1637 22.3869 33.1637 21.9293C33.1637 21.3165 32.6739 20.8177 32.0639 20.8024H32.063L32.0635 20.8033Z" fill="#03C4E8"/>
</svg>
