<svg width="100" height="100" viewBox="0 0 100 100" fill="none" xmlns="http://www.w3.org/2000/svg">
<rect width="100" height="100" rx="8" fill="black"/>
<path d="M35.2602 59H30.1156V57.2891H28.4047V44.4336H25.8383V41.8672H28.4047V36.7227H31.8383V41.8672H35.2602V44.4336H31.8383V55.5781H35.2602V59ZM46.5164 59H41.3719V57.2891H39.6609V44.4336H37.0945V41.8672H39.6609V36.7227H43.0945V41.8672H46.5164V44.4336H43.0945V55.5781H46.5164V59ZM62.9172 59H52.6281V57.2891H50.9172V55.5781H49.2063V35H52.6281V53.8672H54.3391V55.5781H61.2063V53.8672H62.9172V35H66.3391V55.5781H64.6281V57.2891H62.9172V59ZM73.3063 59H69.8844V35H73.3063V59Z" fill="#CCFF50"/>
</svg>
