<svg width="61" height="60" viewBox="0 0 61 60" fill="none" xmlns="http://www.w3.org/2000/svg">
<rect x="0.5" width="60" height="60" rx="30" fill="#424242"/>
<path d="M44.0805 16.6833C44.0805 20.3744 41.0883 23.3667 37.3972 23.3667H30.5403V10H37.3972C41.0883 10 44.0805 12.9922 44.0805 16.6833Z" stroke="white" stroke-width="2.61787"/>
<path d="M17 16.6833C17 20.3744 19.9922 23.3667 23.6833 23.3667H30.5403V10H23.6833C19.9922 10 17 12.9922 17 16.6833Z" stroke="white" stroke-width="2.61787"/>
<path d="M17 30.0501C17 33.7413 19.9922 36.7335 23.6833 36.7335H30.5403V23.3668H23.6833C19.9922 23.3668 17 26.359 17 30.0501Z" stroke="white" stroke-width="2.61787"/>
<path d="M17 43.4166C17 47.1077 20.0353 50.0999 23.7265 50.0999C27.4655 50.0999 30.5403 47.0688 30.5403 43.3298V36.7333H23.6833C19.9922 36.7333 17 39.7255 17 43.4166Z" stroke="white" stroke-width="2.61787"/>
<path d="M30.5403 30.0501C30.5403 33.7413 33.5325 36.7335 37.2236 36.7335H37.3972C41.0883 36.7335 44.0805 33.7413 44.0805 30.0501C44.0805 26.359 41.0883 23.3668 37.3972 23.3668H37.2236C33.5325 23.3668 30.5403 26.359 30.5403 30.0501Z" stroke="white" stroke-width="2.61787"/>
</svg>
