<?xml version="1.0" standalone="no"?>
<!DOCTYPE svg PUBLIC "-//W3C//DTD SVG 1.1//EN" "http://www.w3.org/Graphics/SVG/1.1/DTD/svg11.dtd" >
<svg xmlns="http://www.w3.org/2000/svg">
<metadata></metadata>
<defs>
<font id="exobolditalic" horiz-adv-x="1140" >
<font-face units-per-em="2048" ascent="1638" descent="-410" />
<missing-glyph horiz-adv-x="512" />
<glyph horiz-adv-x="0" />
<glyph unicode="&#xd;" horiz-adv-x="2048" />
<glyph unicode=" "  horiz-adv-x="512" />
<glyph unicode="&#x09;" horiz-adv-x="512" />
<glyph unicode="&#xa0;" horiz-adv-x="512" />
<glyph unicode="!" horiz-adv-x="555" d="M143 47l29 184q6 52 57 52h181q47 0 39 -52l-29 -184q-6 -47 -53 -47h-181q-23 0 -35 13.5t-8 33.5zM219 406l146 1091h288l-200 -1091h-234z" />
<glyph unicode="&#x22;" horiz-adv-x="909" d="M328 1087l20 275l23 137h276l-22 -137l-64 -275h-233zM696 1087l21 275l22 137h277l-23 -137l-63 -275h-234z" />
<glyph unicode="#" horiz-adv-x="1476" d="M98 430l62 197h311l80 247h-313l63 197h320l143 428h197l-144 -428h252l141 428h197l-141 -428h350l-62 -197h-352l-80 -249h353l-60 -197h-364l-146 -428h-196l145 428l-254 2l-143 -430h-197l143 430h-305zM668 627l258 -2l80 249h-258z" />
<glyph unicode="$" horiz-adv-x="1165" d="M139 45l37 219q319 -18 475 -18q184 0 205 131l12 80q4 36 4 65q0 76 -118 76h-189q-166 0 -239 82q-74 82 -84 178q-4 45 -4 85t6 81l18 129q37 240 217 313q98 41 246 45l29 177h174l-27 -179q188 -12 356 -57l-34 -223q-295 20 -403.5 20t-140.5 -5t-61 -21 q-57 -29 -73 -121l-10 -74q-4 -23 -4.5 -55.5t23.5 -60t122 -27.5h190q86 0 148.5 -29t91.5 -74q61 -94 61 -196q0 -33 -8 -127l-16 -101q-41 -264 -240 -340q-96 -35 -225 -34h-19l-26 -168h-174l26 172q-188 10 -346 57z" />
<glyph unicode="%" horiz-adv-x="1974" d="M213 934q0 31 6 65l39 250q20 133 89.5 191.5t227.5 58.5h207q236 0 236 -209q0 -33 -6 -71l-39 -250q-23 -139 -92.5 -196.5t-225.5 -57.5h-206q-131 0 -191 76q-45 57 -45 143zM422 0l1153 1499h205l-1145 -1499h-213zM422 975q0 -21 10 -35q16 -25 76 -25h149 q82 0 105 43q10 20 16 58l27 182q8 66 -4 80q-20 20 -78 20h-152q-76 0 -98 -38q-14 -20 -20 -62l-27 -182q-4 -20 -4 -41zM1196 217q0 31 6 66l39 249q20 131 86 191q69 65 229 65h209q233 0 234 -215q0 -33 -4 -69l-39 -250q-20 -137 -92 -193.5t-228 -56.5h-206 q-133 0 -191 72q-43 55 -43 141zM1405 271.5q0 -13.5 2 -29.5q8 -37 84 -37h147q63 0 88 22.5t33 77.5l29 182q4 23 4 45.5t-14.5 39t-73.5 16.5h-150q-59 0 -84.5 -21.5t-33.5 -79.5l-29 -182q-2 -20 -2 -33.5z" />
<glyph unicode="&#x26;" horiz-adv-x="1376" d="M111 383q0 205 213 365l186 141l-82 143q-45 86 -45 162q0 125 98 219q74 68 164 80q80 14 136.5 14t127.5 -4q133 -6 318 -49l-33 -207h-338q-86 0 -128 -17.5t-42 -63.5t45 -119l277 -478l276 240l86 -119l-145 -248l-95 -90l203 -352h-313l-111 193l-153 -123 q-102 -84 -244 -84q-80 0 -162 32q-113 45 -176 152t-63 213zM381 408q0 -41 27 -82q51 -78 119.5 -78t129.5 47l125 108l-159 269l-134 -99q-109 -84 -108 -165z" />
<glyph unicode="'" horiz-adv-x="458" d="M281 1087l20 275l23 137h288l-22 -137l-64 -275h-245z" />
<glyph unicode="(" horiz-adv-x="772" d="M195 297q0 315 92 612q68 219 190 432q74 129 149.5 219.5t98.5 110.5l25 23h272q-55 -68 -140 -197t-148.5 -251t-129 -299t-94.5 -346t-29 -255q0 -252 35 -399q57 -258 131 -393l27 -52h-266q-98 127 -162 379q-51 195 -51 416z" />
<glyph unicode=")" horiz-adv-x="774" d="M-37 -498q55 63 139 189.5t147.5 247t130 301t94.5 348.5t28 252t-3 179t-34 232q-55 246 -127 387l-27 56h267q96 -137 159 -394q51 -201 51 -421q0 -350 -122 -703q-63 -184 -131 -301q-139 -244 -236 -334l-39 -39h-297z" />
<glyph unicode="*" horiz-adv-x="874" d="M260 1159l19 115l292 49l-18 -174zM328 852l94 281l164 -43l-154 -273zM541 956l118 146l199 -184l-80 -93zM571 1475l117 38l98 -249l-172 -68zM674 1169l270 162l49 -96l-229 -199z" />
<glyph unicode="+" horiz-adv-x="989" d="M164 608l39 242h303l47 305h242l-47 -305h307l-39 -242h-307l-50 -305h-241l49 305h-303z" />
<glyph unicode="," horiz-adv-x="532" d="M115 -180l14 98q29 0 45 10.5t20.5 18.5t6.5 24l6 29h-23q-23 0 -36 13.5t-7 37.5l27 178q10 55 61 56h172q41 0 41 -41q0 -6 -2 -15l-39 -252q-10 -63 -43.5 -103t-72.5 -50q-51 -14 -88 -14t-58 4z" />
<glyph unicode="-" horiz-adv-x="722" d="M125 473l37 242h643l-37 -242h-643z" />
<glyph unicode="." horiz-adv-x="536" d="M139 47l29 184q6 52 57 52h176q45 0 45 -37q0 -6 -2 -15l-28 -184q-8 -47 -58 -47h-176q-23 0 -35 13.5t-8 33.5z" />
<glyph unicode="/" horiz-adv-x="933" d="M8 -147l848 1724h297l-848 -1724h-297z" />
<glyph unicode="0" horiz-adv-x="1288" d="M158 289q0 35 6 76l121 757q31 190 132 283.5t281 93.5h336q100 0 172 -30.5t107 -82.5q55 -84 55 -184q0 -33 -6 -67l-123 -770q-29 -184 -126 -274.5t-271 -90.5h-336q-180 0 -275 94q-74 72 -73 195zM455 368.5q0 -20.5 3 -35t10 -25.5t13 -18t17.5 -12.5t20.5 -8.5 t24 -3q18 -2 47 -2h198q74 0 116 33t54 113l109 680q4 23 4 55.5t-22.5 61t-98.5 28.5h-215q-147 0 -170 -145l-106 -678q-4 -23 -4 -43.5z" />
<glyph unicode="1" horiz-adv-x="757" d="M242 1143l28 186q66 0 169.5 59.5t148.5 110.5h282l-235 -1499h-287l193 1204q-90 -61 -299 -61z" />
<glyph unicode="2" horiz-adv-x="1200" d="M78 0l39 252q231 141 514 360q152 119 258 239t121 204q4 26 4 49q0 68 -45 108.5t-178 40.5h-531l35 213q311 53 620 54q143 0 238 -70q147 -111 147 -330q0 -125 -38.5 -209t-78.5 -142t-103.5 -123.5t-112.5 -111t-121 -100.5q-90 -72 -154.5 -118t-75.5 -52h551 l-43 -264h-1046z" />
<glyph unicode="3" horiz-adv-x="1193" d="M66 43l34 209h521q129 0 180 41q41 33 51 98l10 66q12 74 -8 102q-16 27 -33.5 33t-28 9t-30.5 5q-29 4 -74 6l-405 17l39 231l409 19q111 4 162 35.5t63 111.5l13 72q4 59 -4.5 74.5t-15.5 25.5t-22.5 17.5t-28.5 12.5t-34 7q-33 4 -76 4h-546l32 207q174 59 453 59 q102 0 219 -2q162 -4 252 -110q68 -84 68 -201q0 -35 -4 -72l-19 -108q-39 -236 -203 -267q117 -43 117 -229q0 -45 -8 -98l-14 -88q-54 -344 -443 -344h-119h-39t-68 1t-76.5 2t-68 4t-72 7t-61.5 10q-61 10 -122 33z" />
<glyph unicode="4" horiz-adv-x="1269" d="M102 459l699 1040h319l-590 -901h363l55 342l92 158h222l-80 -500h151l-35 -221l-157 -49l-51 -324h-289l49 324h-698z" />
<glyph unicode="5" horiz-adv-x="1220" d="M125 41l37 225h577q147 0 170 146l21 131q4 23 4 43q0 109 -117 108h-188q-125 0 -146 -121h-272l192 926h912l-43 -264h-633l-70 -338q74 53 222 53q55 0 149 -4q156 -8 229 -117q57 -82 58 -196q0 -37 -6 -76l-33 -229q-33 -203 -164 -275q-115 -61 -302 -61t-298 7 t-299 42z" />
<glyph unicode="6" horiz-adv-x="1245" d="M193 397.5q0 69.5 1 146.5t31 265q104 666 467 696q82 8 170 8q223 0 475 -49l-32 -217h-514q-178 0 -244 -278q-11 -46 -21 -101q176 43 424 43q166 0 234 -82q68 -78 67 -176q0 -45 -8 -114l-35 -236q-29 -174 -132 -239.5t-283 -65.5h-291q-231 0 -289 246 q-20 84 -20 153.5zM473 444q0 -82 36 -133t114 -51h163q131 0 150 129l22 137q6 31 6.5 59.5t-17 50t-91.5 21.5h-364q-19 -131 -19 -213z" />
<glyph unicode="7" horiz-adv-x="1134" d="M242 1235l43 264h964l56 -131l-717 -1368h-314l656 1235h-688z" />
<glyph unicode="8" horiz-adv-x="1275" d="M162 276q0 41 8 91l23 149q14 92 69 146.5t139 66.5q-131 59 -131 227q0 41 6 88l23 134q31 205 154 272q109 59 284 59h310q260 0 301 -215q6 -35 6 -74.5t-8 -89.5l-17 -108q-8 -51 -39 -102q-57 -99 -157 -115q121 -31 120 -242q0 -35 -8 -59l-26 -176 q-27 -170 -115 -252q-35 -33 -90 -51q-80 -25 -209 -25h-307q-336 0 -336 276zM459 328q0 -74 129 -74h192q137 0 156 121l22 143q3 15 3 29q0 98 -111 98h-209q-137 0 -158 -127l-22 -143q-2 -18 -2 -47zM559 981q0 -96 119 -96h207q78 0 109.5 32.5t41.5 94.5l15 96 q6 33 6 66.5t-22.5 58t-94.5 24.5h-192q-84 0 -121 -31.5t-49 -117.5l-17 -96q-2 -17 -2 -31z" />
<glyph unicode="9" horiz-adv-x="1243" d="M147 41l35 217h512q201 0 267 379q-176 -43 -426 -43q-164 0 -232 84q-68 82 -67 182q0 43 8 119l35 211q27 176 131 245.5t282 69.5h291q309 0 309 -469q0 -158 -28.5 -339t-68.5 -301t-84 -191.5t-101 -116.5q-94 -78 -199.5 -87t-198.5 -9q-227 0 -465 49zM522 918.5 q0 -29.5 16.5 -50t92.5 -20.5h362q18 129 18.5 211t-35.5 134t-116 52h-160q-131 0 -151 -129l-21 -137q-6 -31 -6 -60.5z" />
<glyph unicode=":" horiz-adv-x="538" d="M139 47l29 184q6 52 57 52h176q45 0 45 -37q0 -6 -2 -15l-28 -184q-8 -47 -58 -47h-176q-23 0 -35 13.5t-8 33.5zM266 852l31 184q6 51 57 51h176q43 0 43 -34q0 -8 -2 -17l-28 -184q-8 -47 -58 -47h-176q-23 0 -34 13t-9 34z" />
<glyph unicode=";" horiz-adv-x="538" d="M115 -180l14 98q29 0 45 10.5t20.5 18.5t6.5 24l6 29h-23q-23 0 -35 14.5t-8 36.5l27 178q4 25 20.5 40.5t40.5 15.5h172q41 0 41 -41q0 -6 -2 -15l-39 -252q-10 -63 -43.5 -103t-72.5 -50q-51 -14 -88 -14t-58 4zM270 854l29 184q6 52 57 52h176q43 0 43 -37v-15 l-28 -184q-8 -47 -60 -47h-176q-23 0 -34 12t-7 35z" />
<glyph unicode="&#x3c;" horiz-adv-x="921" d="M170 590l43 264l815 297l-43 -266l-502 -170l447 -178l-43 -263z" />
<glyph unicode="=" horiz-adv-x="956" d="M100 377l39 241h875l-39 -241h-875zM168 817l39 242h874l-39 -242h-874z" />
<glyph unicode="&#x3e;" horiz-adv-x="921" d="M121 274l43 269l508 190l-455 160l41 258l721 -297l-41 -264z" />
<glyph unicode="?" horiz-adv-x="1110" d="M227 1251l35 209q285 55 477 56q53 0 109 -3q141 0 235 -61q150 -100 150 -283q0 -33 -6 -69l-25 -172q-31 -213 -158 -289q-98 -59 -270 -59q-45 0 -96 4l-29 -185h-231l61 400q78 -2 136.5 -2t99.5 2q178 8 203 168l18 108q2 25 2 43q0 61 -40 97t-161 36h-510zM338 47 l31 184q6 52 57 52h176q43 0 43 -37v-15l-31 -184q-8 -47 -57 -47h-176q-23 0 -34 13.5t-9 33.5z" />
<glyph unicode="@" horiz-adv-x="1835" d="M96 -39q0 55 8 113l156 993q35 217 163 313.5t359 96.5h746q342 0 342 -357q0 -57 -10 -121l-101 -667q-27 -184 -135 -260q-92 -66 -258 -66h-190l-48 113q-100 -127 -270 -127q-193 0 -276 147q-55 94 -56 254q0 172 49 342q55 197 162 285q70 57 123 74q84 23 158 22 q324 0 463 -135l-107 -743q78 0 112 32.5t52 151.5l90 600q4 51 7 87t-8 60.5t-22.5 39t-33.5 22.5q-37 14 -98 14h-738q-139 0 -190 -78q-41 -61 -56 -145l-153 -969q-4 -33 -4 -76t24 -79q37 -57 158 -58h791l-29 -174q-276 -55 -598 -55h-191q-197 0 -290 94 q-100 100 -101 256zM760 416q0 -39 4 -76q12 -119 133 -119q170 0 258 135l80 512q-92 20 -225 21q-94 0 -153.5 -75.5t-86.5 -270.5q-10 -88 -10 -127z" />
<glyph unicode="A" horiz-adv-x="1409" d="M70 0l743 1499h326l250 -1499h-293l-60 332h-485l-164 -332h-317zM666 586h342l-84 544z" />
<glyph unicode="B" horiz-adv-x="1226" d="M125 0l237 1499h609q111 0 190.5 -36t116.5 -95q59 -96 59 -213q0 -41 -9 -101.5t-44 -123.5q-74 -129 -211 -152q86 -14 141 -116q39 -76 39 -179q0 -37 -4 -77q-33 -231 -149.5 -318.5t-362.5 -87.5h-612zM453 252h313q166 0 197 201q6 30 6 57q0 154 -138 154h-315z M557 905h303q76 0 123 44t59 126q5 33 5 54q-1 19 -5 41q-4 24 -24 42q-37 33 -105 33h-303z" />
<glyph unicode="C" horiz-adv-x="1169" d="M182 514q0 148 21.5 273.5t46 222t61.5 180.5t84 142.5t111 101.5q125 82 328 82q279 0 512 -74l-35 -223q-248 32 -422 32h-10h-13.5h-24t-34.5 -1t-46 -5t-47.5 -13t-43 -25.5t-43 -41t-39 -63.5t-35.5 -88q-39 -117 -61.5 -253t-22.5 -229.5t23 -152.5 q45 -121 206 -127h117t348 18l-35 -225q-109 -37 -219 -47t-195 -10h-118q-139 2 -232.5 65.5t-132.5 173.5q-49 139 -49 287z" />
<glyph unicode="D" horiz-adv-x="1341" d="M125 0l237 1499h607q125 0 214 -48t134 -124q82 -137 82 -366q0 -111 -21 -252q-61 -381 -207.5 -545t-418.5 -164h-627zM451 256h301q262 0 340 489q24 124 24 192v5q0 199 -74 260q-49 43 -145 43h-289z" />
<glyph unicode="E" horiz-adv-x="1146" d="M158 240q0 33 4 67l141 891q28 182 141 248q53 31 105.5 42t87.5 11t290 -7t384 -26l-37 -237h-572q-74 0 -98 -37q-18 -29 -24 -78l-37 -229l579 -21l-39 -235l-583 -21l-39 -237q-3 -19 -3 -35q0 -37 17 -49q8 -6 12.5 -10.5t15.5 -6.5t16 -4t18 -2h34h551l-39 -235 q-117 -14 -374.5 -24.5t-287.5 -10.5t-79 12q-184 45 -184 234z" />
<glyph unicode="F" horiz-adv-x="1148" d="M119 0l186 1176q27 176 128.5 249.5t236.5 73.5q6 0 260 -7t383 -26l-35 -237h-571q-68 0 -92.5 -30t-32.5 -85l-37 -233l579 -21l-34 -237l-588 -19l-96 -604h-287z" />
<glyph unicode="G" horiz-adv-x="1255" d="M184 506q0 254 88 553q70 244 191 344q135 113 368 113h89q186 0 460 -72l-34 -219q-283 37 -488 37q-145 0 -211 -82q-68 -84 -97.5 -200t-51 -241t-21.5 -215t19 -147q37 -121 186 -121q63 0 130 25.5t103 52.5l35 24l45 263h-211l29 182q129 51 367 51q66 0 139 -6 l-135 -848h-207l-64 109q-119 -121 -344 -121q-186 0 -276 118q-109 141 -109 400z" />
<glyph unicode="H" horiz-adv-x="1304" d="M129 0l238 1499h286l-102 -643h514l102 643h287l-237 -1499h-287l94 594h-514l-94 -594h-287z" />
<glyph unicode="I" horiz-adv-x="524" d="M133 0l238 1499h286l-237 -1499h-287z" />
<glyph unicode="J" horiz-adv-x="729" d="M61 47l39 223q63 -4 100.5 -4h57.5q137 6 166 197l164 1036h286l-184 -1161q-35 -229 -155 -301q-82 -47 -222 -47q-172 0 -252 57z" />
<glyph unicode="K" horiz-adv-x="1269" d="M125 0l237 1499h275l-98 -627h112l473 627h349l-572 -772l334 -727h-328l-268 618h-139l-99 -618h-276z" />
<glyph unicode="L" horiz-adv-x="1083" d="M164 225q0 31 4 66l194 1208h285l-178 -1128q-3 -18 -3 -32q0 -50 32 -63q29 -12 82 -12h514l-41 -264h-619q-135 0 -202.5 62.5t-67.5 162.5z" />
<glyph unicode="M" horiz-adv-x="1693" d="M100 0l369 1499h393l90 -1024l408 1024h403l-96 -1499h-285l72 1001l-405 -1001h-326l-92 1001l-242 -1001h-289z" />
<glyph unicode="N" horiz-adv-x="1370" d="M125 0l237 1499h287l426 -975l154 975h287l-238 -1499h-283l-430 963l-151 -963h-289z" />
<glyph unicode="O" horiz-adv-x="1363" d="M186 442v37q0 39 1 81q1 64 21.5 193.5t45.5 224.5t51.5 167t63.5 127t70.5 94t81.5 65.5t89 42t98.5 23.5t104.5 10t121 2t137.5 -8t126 -29.5t105.5 -58.5q98 -84 124 -242q15 -72 15 -128v-23q0 -46 -2 -98q-2 -66 -23.5 -208.5t-53.5 -251t-69 -184t-88 -128 t-101 -84t-120 -48.5q-111 -27 -233 -27q-2 1 -4 1q-124 0 -187 7t-126.5 27.5t-106.5 55.5q-100 82 -127 233q-15 73 -15 127zM475 473q0 -121 51 -166q63 -51 211 -51q137 0 217 53q119 82 174 430q25 152 25 242t-12.5 141.5t-50 79t-79.5 35.5t-106.5 8t-98.5 -3 t-73 -13t-64.5 -31.5t-52.5 -58.5q-45 -59 -93 -262t-48 -404z" />
<glyph unicode="P" horiz-adv-x="1222" d="M119 0l237 1499h627q156 0 262 -100q90 -86 90 -271q0 -168 -59 -323q-53 -139 -158 -207q-49 -31 -96 -37q-94 -10 -129 -10t-77 3t-175 18.5t-141 19.5l-94 -592h-287zM532 807h318q74 0 120 50t66 177q6 41 6 74q0 137 -122 137h-318z" />
<glyph unicode="Q" horiz-adv-x="1368" d="M190 446v29q0 43 2 91q1 63 25.5 220.5t63 284.5t93 206t108 127t134 70.5t145 28.5t158 6t157 -8t126 -30.5t105.5 -59.5q137 -121 137 -414q0 -238 -64 -489q-47 -186 -96 -260t-84 -112t-81 -63.5t-88 -42t-99 -24.5q-105 -16 -208 -16q-81 0 -161 10q-150 16 -231 84 q-100 84 -129 235q-12 72 -13 127zM477 473q0 -121 53 -166q61 -51 209 -51q139 0 219 53q119 82 175 430q25 149 25 238q0 92 -13 145q-12 52 -50 79.5t-81 35.5t-106.5 8t-97.5 -3t-74 -13t-64.5 -31.5t-50.5 -58.5q-45 -59 -94.5 -262t-49.5 -404zM598 -102q0 16 2 34 h164q35 -82 160 -82q68 0 163 25l-36 -231q-76 -12 -139 -12q-1 -1 -3 -1q-61 0 -118 19q-193 66 -193 248z" />
<glyph unicode="R" horiz-adv-x="1234" d="M119 0l237 1499h633q182 0 275 -121q70 -88 69 -248q0 -174 -55 -311q-31 -80 -61.5 -120t-75.5 -66.5t-68.5 -31.5t-56.5 -11l213 -590h-324l-176 573l-229 19l-94 -592h-287zM537 815h311q84 0 129 51q63 68 63 240q0 66 -18 94q-25 43 -100 43h-318z" />
<glyph unicode="S" horiz-adv-x="1185" d="M145 45l35 225q180 -22 506 -22q186 0 207 129l12 80q4 29 4 47t-2 38.5t-30.5 38t-85.5 17.5h-207q-176 0 -252 78t-86 166q-6 45 -6 82t6 75l20 156q39 250 221 320q95 36 238 36h8h2h43q313 0 516 -59l-37 -225q-289 20 -393 20h-114q-92 0 -137.5 -24.5t-61.5 -120.5 l-10 -74q-2 -33 -5.5 -56.5t7 -40t18.5 -25.5t31 -13q33 -8 88 -8h213q137 0 209 -68q72 -66 86 -153q10 -66 10 -106t-6 -71l-12 -135q-27 -311 -318 -356q-74 -12 -172 -12q-356 0 -545 61z" />
<glyph unicode="T" horiz-adv-x="1204" d="M250 1235l43 264h1108l-43 -264h-418l-195 -1235h-286l194 1235h-403z" />
<glyph unicode="U" horiz-adv-x="1337" d="M205 420q0 129 20 252l133 827h287l-135 -860q-16 -94 -16 -174t24 -127q45 -84 205 -84t231.5 89t104.5 296l137 860h289l-131 -895q-57 -360 -230 -493q-88 -68 -191.5 -94.5t-205.5 -26.5t-152.5 6t-101.5 19.5t-91 38t-75 61.5q-66 66 -92 207q-10 55 -10 98z" />
<glyph unicode="V" horiz-adv-x="1402" d="M285 1499h301l151 -1122l525 1122h319l-733 -1499h-332z" />
<glyph unicode="W" horiz-adv-x="2068" d="M285 1499h299l153 -1108l492 1108h307l-193 -414l105 -700l496 1114h303l-686 -1499h-324l-94 616l-287 -616h-340z" />
<glyph unicode="X" horiz-adv-x="1316" d="M66 0l555 766l-324 733h315l205 -508l367 508h323l-569 -786l315 -713h-315l-197 487l-350 -487h-325z" />
<glyph unicode="Y" horiz-adv-x="1343" d="M285 1499h309l172 -717l428 717h328l-658 -1034l-73 -465h-287l74 465z" />
<glyph unicode="Z" d="M55 0l43 264l834 971h-682l43 264h1032l-43 -264l-813 -971h661l-43 -264h-1032z" />
<glyph unicode="[" horiz-adv-x="684" d="M117 -176q0 55 12 119l221 1374q29 180 120 260t294 80h164l-39 -242h-107q-63 0 -100 -34.5t-53 -127.5l-213 -1331q-8 -45 -8 -83t12 -58q23 -37 92 -37h113l-39 -242h-183q-82 0 -141 31q-145 72 -145 291z" />
<glyph unicode="\" horiz-adv-x="919" d="M279 1577h286l303 -1724h-286z" />
<glyph unicode="]" horiz-adv-x="677" d="M-37 -498l39 242h107q63 0 101 35t52 127l211 1331q6 43 6 82t-12 59q-23 37 -94 37h-107l39 242h168q96 0 162.5 -38t93.5 -97q41 -92 41 -167t-8 -120l-209 -1391q-23 -154 -98 -241q-86 -100 -305 -101h-187z" />
<glyph unicode="^" horiz-adv-x="786" d="M250 1087l264 279h213l154 -279h-189l-82 132l-135 -132h-225z" />
<glyph unicode="_" horiz-adv-x="1378" d="M49 -2l39 242h1298l-38 -242h-1299z" />
<glyph unicode="`" horiz-adv-x="505" d="M248 1372h241l160 -285h-186z" />
<glyph unicode="a" horiz-adv-x="1110" d="M135 347q0 128 23.5 259t67.5 225.5t92.5 144.5t115 80.5t116.5 39t96 11.5t79 3t90 -5t129 -20q162 -33 236 -104l-144 -979h-221l-43 113q-57 -72 -199 -109q-68 -18 -140.5 -18t-136 33.5t-108.5 107.5q-53 90 -53 218zM422 412.5q0 -58.5 10 -97.5q25 -84 112 -84 t143 25t110 78l77 524q-72 25 -130 25t-94 -7.5t-62.5 -19.5t-57.5 -43q-63 -59 -94 -258q-14 -84 -14 -142.5z" />
<glyph unicode="b" horiz-adv-x="1138" d="M94 0l254 1608h285l-90 -576q166 72 334 72q252 0 288 -256q8 -59 9 -100q0 -111 -25 -254q-43 -264 -139.5 -385t-282.5 -121q-102 0 -190 37.5t-140 85.5l-67 -111h-236zM428 299q92 -66 244 -66q78 0 122 70t66.5 213t22.5 201.5t-9 87.5q-18 74 -102 74 q-145 0 -258 -41z" />
<glyph unicode="c" horiz-adv-x="1007" d="M142 345q0 3 -1 5q-1 117 21 240q22 125 57 222t74 153.5t93 88t103.5 42t131 10.5t228 -17.5t249.5 -50.5l-29 -178q-195 14 -308.5 14t-139 -4t-55 -20t-48.5 -53q-43 -84 -72 -258q-18 -133 -18 -183.5t20.5 -82t52 -43t101.5 -11.5q154 0 326 14l57 5l-29 -181 q-117 -43 -221 -56t-187 -13t-108 2q-168 0 -247 145q-51 90 -51 210z" />
<glyph unicode="d" horiz-adv-x="1126" d="M141 410q0 84 17.5 178t38 166.5t55.5 141.5t82 112q100 96 272.5 96t317.5 -72l92 576h284l-256 -1608h-235l-33 111q-172 -123 -338 -123q-94 0 -162 49q-135 98 -135 373zM434 393q0 -160 109 -160q150 0 264 66l84 539q-98 41 -248 41q-47 0 -80 -23 q-74 -53 -114 -307q-15 -93 -15 -156z" />
<glyph unicode="e" horiz-adv-x="1079" d="M135 367q0 109 23.5 232.5t47 195t62.5 136t99 99.5q123 78 352 78q422 0 422 -285q0 -115 -42 -198.5t-100 -124.5q-137 -103 -354 -103q-145 0 -213 29q-8 -47 -8 -93t20 -73q35 -43 146 -45h65q166 0 379 35l-35 -205q-209 -63 -450 -63q-57 0 -117 4 q-297 14 -297 381zM455 614q51 -8 91 -8t63.5 1t67.5 9.5t77 24.5q96 43 96 147q0 45 -32 68t-118 23q-106 0 -149 -41q-16 -16 -27.5 -25.5t-23 -34t-15.5 -35t-12 -43.5t-18 -86z" />
<glyph unicode="f" horiz-adv-x="827" d="M168 868l29 183l180 36l22 146q33 209 123 293q49 45 114.5 64.5t186.5 19.5t221 -49l-26 -172l-184 2h-5q-82 0 -107.5 -42t-45.5 -184l-12 -78h262l-35 -219h-264l-142 -868h-286l141 868h-172z" />
<glyph unicode="g" horiz-adv-x="1138" d="M39 -508l31 191h460q125 0 179 108q18 37 26 86l31 199q-127 -78 -263 -78t-212 44t-107 124q-39 96 -39 212t21 228q41 264 163 382t314 118q154 0 319.5 -19.5t247.5 -42.5l-190 -1200q-35 -215 -158 -319q-104 -86 -266 -86q-33 0 -70 4zM430 390.5q0 -17.5 4 -54.5 t13.5 -52.5t23.5 -31.5q27 -29 83 -29t89 4q66 6 154 41l98 619h-219q-91 0 -146 -78q-20 -31 -46.5 -103.5t-40 -185t-13.5 -130z" />
<glyph unicode="h" horiz-adv-x="1126" d="M94 0l254 1604h285l-101 -633q70 47 108 67.5t111.5 44t149.5 23.5q274 0 275 -270q0 -51 -11 -111l-114 -725h-287l115 729q4 23 4 43q0 104 -101 105q-123 0 -223 -62q-25 -14 -55 -33l-123 -782h-287z" />
<glyph unicode="i" horiz-adv-x="462" d="M88 0l172 1087h287l-172 -1087h-287zM274 1247l27 183q8 51 57 51h215q39 0 39 -37v-14l-28 -183q-6 -47 -54 -47h-215q-23 0 -34 14q-8 10 -8 23q0 5 1 10z" />
<glyph unicode="j" horiz-adv-x="497" d="M18 -553l261 1640h286l-174 -1095q-53 -354 -162 -545h-211zM291 1247l31 183q6 51 57 51h215q39 0 39 -41v-10l-31 -183q-6 -47 -53 -47h-215q-23 0 -34 14q-9 11 -9 27v6z" />
<glyph unicode="k" horiz-adv-x="1085" d="M94 0l254 1602h287l-146 -910q127 47 248 159t158 236h305q-51 -180 -165.5 -308t-233.5 -189l334 -590h-320l-276 500l-78 -2l-80 -498h-287z" />
<glyph unicode="l" horiz-adv-x="628" d="M141 274q0 51 11 113l192 1217h287l-187 -1172q-6 -66 -9 -101.5t9.5 -59t24.5 -33t80.5 -35t77.5 -25.5l-27 -178h-184q-274 0 -275 274z" />
<glyph unicode="m" horiz-adv-x="1792" d="M94 0l172 1087h230l39 -116q6 4 33.5 21.5t35.5 22.5t34 20.5t37 19.5t34.5 15t41 14t42.5 10q41 10 104.5 10t114.5 -21q104 -37 137 -129q102 70 200.5 110t217.5 40q272 0 272 -281q0 -49 -8 -102l-115 -721h-286l114 725q4 20 4 36.5t-3 37t-17 39.5q-26 34 -92 34 h-4q-147 0 -263 -86q-2 -2 -4 -18q-6 -43 -6 -49l-115 -719h-286l114 725q5 26 5 55q0 30 -24 60q-24 32 -92.5 32t-124.5 -20.5t-132 -71.5l-123 -780h-287z" />
<glyph unicode="n" horiz-adv-x="1126" d="M94 0l172 1087h230l39 -116q74 49 108.5 68.5t107 43t150.5 23.5q274 0 275 -270q0 -51 -11 -111l-114 -725h-287l115 729q4 23 4 43q0 104 -101 105q-123 0 -223 -62q-25 -14 -55 -33l-123 -782h-287z" />
<glyph unicode="o" d="M143 381q0 80 20.5 212t62.5 236.5t114 166t165 84t236 22.5q270 0 365 -146q61 -94 61 -260q0 -88 -20.5 -219t-59 -227t-106.5 -155.5t-162 -82t-239 -22.5q-274 0 -371 135q-66 92 -66 256zM430 383q0 -53 8 -85t33 -50q41 -27 121 -27t115.5 7.5t68.5 39t51.5 92 t36.5 170.5q21 126 21 186q-1 57 -19 93q-18 37 -54 49t-115 12t-124 -24.5t-73.5 -94t-49 -192.5t-20.5 -176z" />
<glyph unicode="p" horiz-adv-x="1138" d="M6 -553l260 1597q222 54 568 54q109 0 181 -47t107 -127q45 -109 45 -222.5t-14 -199.5q-39 -266 -150.5 -393t-310 -127t-301.5 77l-98 -612h-287zM422 250q78 -45 172 -45q29 0 72 4t79 31q80 55 121 313q14 76 15 135q0 190 -129 191h-226z" />
<glyph unicode="q" horiz-adv-x="1132" d="M145 390q0 74 17 192q45 279 164.5 400.5t325.5 121.5t354.5 -23.5t199.5 -38.5l-252 -1595h-286l96 612q-130 -80 -282 -80q-1 0 -2 1q-152 0 -234 75.5t-96 210.5q-5 51 -5 124zM428 348q0 -16 2 -32.5t10.5 -43t22.5 -39.5q39 -29 112 -29q45 0 103 11q47 8 117 35 l100 635h-225q-87 0 -140 -78q-78 -113 -100 -410q-2 -33 -2 -49z" />
<glyph unicode="r" horiz-adv-x="854" d="M94 0l172 1087h242l22 -137q178 148 336 148q88 0 119 -13l-43 -276q-59 6 -156.5 6t-166 -25.5t-130.5 -95.5l-108 -694h-287z" />
<glyph unicode="s" horiz-adv-x="1042" d="M115 45l28 178h512q72 0 84 70l11 55q1 11 1 20q1 32 -15 40q-20 10 -50 10h-244q-147 0 -219 82q-55 61 -55 162q0 33 6 71l16 98q20 135 98.5 203t231.5 68q483 0 570 -55l-29 -181h-492q-49 0 -69.5 -20.5t-26.5 -54.5l-8 -54q-2 -15 -2 -26q0 -28 14 -35 q6 -4 10.5 -6t12.5 -2h12h13.5h13.5h249q147 0 211 -88q47 -66 48 -154q0 -31 -7 -61l-18 -125q-25 -160 -123 -211q-82 -43 -188 -43q-516 0 -596 59z" />
<glyph unicode="t" horiz-adv-x="770" d="M158 870l24 160l185 60l96 303h239l-49 -303h244l-35 -220h-244l-67 -436q-12 -74 -12 -114q0 -30 6 -42q14 -30 27.5 -40.5t82 -35t78.5 -24.5l-28 -180h-197q-143 0 -213 96q-47 66 -47 180q0 51 8 115l76 481h-174z" />
<glyph unicode="u" horiz-adv-x="1124" d="M125 252q0 51 10 113l115 722h287l-115 -729q-6 -27 -6 -59.5t21.5 -59t92 -26.5t131 21.5t136.5 72.5l123 780h286l-174 -1087h-229l-37 115q-100 -68 -177 -100.5t-190 -32.5q-274 0 -274 270z" />
<glyph unicode="v" horiz-adv-x="1093" d="M172 1087h303l117 -768l260 541q53 111 66 230h264q8 -37 8 -76q0 -115 -66 -244l-397 -770h-348z" />
<glyph unicode="w" horiz-adv-x="1695" d="M172 1087h299l117 -763l260 534q53 111 65 229h258q11 -41 11 -102.5t-37 -148.5l-33 -78l80 -428l268 530q53 111 66 230h260q8 -39 8 -82q0 -115 -65 -238l-414 -770h-318l-77 418l-203 -418h-338z" />
<glyph unicode="x" horiz-adv-x="1171" d="M37 0l463 563l-291 524h340l153 -325l256 325h349l-465 -575l282 -512h-331l-154 313l-248 -313h-354z" />
<glyph unicode="y" horiz-adv-x="1153" d="M172 1087h297l68 -761q8 -74 104 -80l277 616q37 88 51 228h266q8 -41 8 -84q0 -111 -57 -238l-350 -768q-168 -369 -410 -506q-113 -61 -238 -84v201q125 68 206 164t147 225q-119 0 -194 68.5t-89 207.5z" />
<glyph unicode="z" horiz-adv-x="968" d="M78 2l35 240l579 604h-510l37 241h879l-37 -241l-557 -602h459l-37 -242h-848z" />
<glyph unicode="{" horiz-adv-x="655" d="M121 516l35 217q115 6 145 47q16 20 21 51l75 480q29 180 150 263t350 83l-37 -242q-104 0 -145 -69q-33 -53 -51 -160l-58 -371q-29 -174 -227 -197q86 -16 126 -62t40 -101q0 -14 -2 -31l-74 -453q-8 -55 -8 -106q0 -133 125 -133q4 0 8 2l-37 -232q-242 0 -328 125 q-63 88 -63 207q0 45 10 92l76 473q2 10 2 21q0 41 -33 69.5t-86 28.5q-6 0 -14 -2z" />
<glyph unicode="|" horiz-adv-x="505" d="M109 -147l272 1724h242l-273 -1724h-241z" />
<glyph unicode="}" horiz-adv-x="651" d="M-37 -498l37 232l2 -2q111 0 156 90q23 47 35 125l71 440q25 156 225 195q-90 8 -128.5 52t-38.5 103q0 20 4 41l59 383q12 80 12 129q0 92 -59 115q-25 10 -46.5 10h-25.5l39 242q115 0 197 -36t121 -97q59 -96 59 -215q0 -43 -10 -90l-58 -420q-2 -8 -2 -17 q0 -45 37 -72.5t99 -27.5l-35 -215h-13q-137 0 -153 -100l-84 -510q-33 -193 -146.5 -274t-353.5 -81z" />
<glyph unicode="~" horiz-adv-x="856" d="M266 1200q51 47 82 72.5t83 50.5t101.5 25t108.5 -36t100 -36h4q88 0 201 82l29 -123q-143 -147 -254 -148q-47 0 -114.5 36t-95.5 36t-43 -1t-30.5 -6t-26 -8t-28.5 -12.5t-25.5 -12.5t-30 -15t-28.5 -17z" />
<glyph unicode="&#xa1;" horiz-adv-x="565" d="M45 -553l207 1094h235l-143 -1094h-299zM258 707q0 6 2 12l27 178q6 45 57 47h174q18 0 30.5 -15.5t10.5 -37.5l-29 -172q-8 -49 -51 -53h-182q-39 0 -39 41z" />
<glyph unicode="&#xa2;" horiz-adv-x="993" d="M127 345q0 120 20.5 246t56.5 223t74.5 153.5t95 87t103.5 38t82 7.5h45l33 198h178l-35 -204q176 -18 303 -62l-28 -176q-195 12 -306.5 12t-131 -1t-48 -11t-44 -30.5t-33.5 -55.5q-31 -61 -62 -231q-16 -133 -16 -183.5t20.5 -82t51 -43t102.5 -11.5q154 0 325 14 l58 5l-29 -181q-141 -63 -340 -69l-29 -183h-176l29 185q-170 2 -250 145q-49 90 -49 210z" />
<glyph unicode="&#xa3;" horiz-adv-x="1191" d="M78 0l35 221l143 43l59 379h-135l23 148l143 45l31 188q45 285 168 379q45 35 85 53.5t103 28.5q92 14 219 14.5t328 -24.5l68 -9l-35 -229h-381q-74 0 -117 -7t-75.5 -31.5t-50 -68t-27.5 -116.5l-29 -178l448 -33l-24 -160h-455l-59 -379h614l-43 -264h-1036z" />
<glyph unicode="&#xa4;" horiz-adv-x="919" d="M141 369l113 98q-29 66 -29 129q0 115 70 207l-82 94l115 100l78 -92q92 59 196.5 59.5t177.5 -57.5l111 99l92 -105l-117 -100q25 -58 25 -119q0 -137 -90 -244l84 -96l-115 -102l-90 104q-72 -41 -169 -41t-171 55l-109 -98zM389 606q0 -51 37 -94q37 -45 109.5 -45 t123.5 47q70 61 70 152q0 49 -36 93t-107 44q-76 0 -129 -47q-68 -62 -68 -150z" />
<glyph unicode="&#xa5;" horiz-adv-x="1298" d="M244 285l26 166h283l10 73h-280l26 168h207l-250 807h312l167 -672l416 672h342l-553 -807h234l-27 -168h-307l-10 -73h305l-27 -166h-303l-41 -285h-287l41 285h-284z" />
<glyph unicode="&#xa6;" horiz-adv-x="507" d="M109 -147l106 671h242l-107 -671h-241zM270 879l111 698h242l-111 -698h-242z" />
<glyph unicode="&#xa7;" horiz-adv-x="1105" d="M164 23l31 202h487q45 0 68.5 13.5t31.5 50.5l13 82q4 43 -9 51q-20 16 -65 16h-250q-141 0 -217 66q-63 55 -64 153q0 27 5 56l12 69q16 102 51 146q39 47 109 67q-94 55 -95 174q0 29 4 62l15 98q39 276 336 277q129 0 310 -11.5t255 -27.5l-31 -203h-493 q-80 0 -93 -74l-12 -71v-15q0 -55 72 -55h252q154 0 217 -63.5t63 -153.5q0 -25 -4 -53l-10 -70q-27 -176 -156 -211q90 -20 90 -162q0 -31 -4 -61l-16 -117q-29 -172 -119 -227q-78 -47 -217 -47t-319.5 11t-247.5 28zM487 715q0 -47 82 -47h176q61 0 82 18.5t27 65.5 l12 77q4 23 4 39q0 49 -86 50h-176q-57 0 -77.5 -19.5t-28.5 -73.5l-13 -75q-2 -16 -2 -35z" />
<glyph unicode="&#xa8;" horiz-adv-x="915" d="M264 1158.5q0 23.5 3 45t24.5 49t51.5 43t72 15.5t67.5 -31t25.5 -54.5t-2 -41t-15.5 -40t-31.5 -38.5q-41 -35 -91.5 -35t-77 32t-26.5 55.5zM786 1158.5q0 23.5 3.5 45t25 49t51 43t71.5 15.5t67.5 -31t25.5 -55q0 -74 -45 -114t-95 -40t-77 32t-27 55.5z" />
<glyph unicode="&#xa9;" horiz-adv-x="1632" d="M184 582q0 197 64 417q66 231 194 357q150 143 396 143h465q199 0 288 -123q90 -123 99 -297q4 -45 4 -90q0 -125 -25 -268q-55 -352 -205.5 -536.5t-382.5 -184.5h-465q-193 0 -297 125q-135 162 -135 457zM373 577.5q0 -69.5 4 -112.5q12 -127 77.5 -208t178.5 -81h459 q137 0 241 139q125 170 166 568q10 84 10 145.5t-10 107.5t-35 93q-45 94 -178 94h-473q-340 0 -420 -539q-20 -137 -20 -206.5zM559 585q0 97 16.5 202.5t51.5 190.5t83 132t102 65.5t127 18.5t181.5 -13.5t184.5 -35.5l-23 -152q-170 25 -328 25q-84 0 -128 -62.5 t-68 -214.5q-8 -57 -8 -108q0 -156 127 -156q150 0 340 33l-23 -152q-150 -57 -389 -57q-133 0 -203 113q-43 74 -43 171z" />
<glyph unicode="&#xaa;" horiz-adv-x="745" d="M131 537l21 143h657l-21 -143h-657zM186 1016q0 82 15.5 163t46.5 143t63.5 95t79.5 52.5t80 24.5t62.5 6t75.5 1t147.5 -20.5t148.5 -67.5l-94 -645h-145l-33 98q-29 -45 -98.5 -76.5t-135.5 -31.5q-109 0 -172 108q-41 68 -41 150zM391 1065q0 -117 82 -117 q104 0 178 82l41 289q-49 18 -94 18t-66.5 -6t-39 -14t-35.5 -27q-41 -39 -58 -147q-8 -45 -8 -78z" />
<glyph unicode="&#xab;" horiz-adv-x="1183" d="M193 725l487 416l135 -158l-323 -276l237 -277l-172 -131zM633 725l487 416l135 -158l-323 -276l237 -277l-172 -131z" />
<glyph unicode="&#xac;" horiz-adv-x="1009" d="M145 492l37 229h875l-64 -395h-231l26 166h-643z" />
<glyph unicode="&#xad;" horiz-adv-x="722" d="M115 473l39 242h643l-39 -242h-643z" />
<glyph unicode="&#xae;" horiz-adv-x="1632" d="M184 582q0 197 64 417q66 231 194 357q150 143 396 143h465q199 0 288 -123q90 -123 99 -297q4 -45 4 -90q0 -125 -25 -268q-55 -352 -205.5 -536.5t-382.5 -184.5h-465q-193 0 -297 125q-135 162 -135 457zM373 577.5q0 -69.5 4 -112.5q12 -127 77.5 -208t178.5 -81h459 q137 0 241 139q125 170 166 568q10 84 10 145.5t-10 107.5t-35 93q-45 94 -178 94h-473q-340 0 -420 -539q-20 -137 -20 -206.5zM551 313l139 875h375q102 0 172 -53q63 -49 63 -162q0 -88 -22.5 -149.5t-39.5 -87t-46 -46.5q-39 -27 -100 -43l127 -334h-203l-119 326 l-102 25l-56 -351h-188zM817 799h154q78 0 101.5 20.5t30.5 66.5t7 71.5t-20.5 40t-85.5 14.5h-154z" />
<glyph unicode="&#xaf;" horiz-adv-x="751" d="M250 1087l26 162h598l-26 -162h-598z" />
<glyph unicode="&#xb0;" horiz-adv-x="563" d="M279 1282q0 94 65 156.5t137 62.5q135 0 191 -102q23 -43 22.5 -71t-0.5 -34q-4 -86 -66.5 -144t-149.5 -58t-143 56t-56 134zM395.5 1292q-0.5 -24 11 -43.5t32 -32t45 -12.5t46.5 13q47 27 47.5 71.5t-24.5 71t-70 26.5t-73 -47q-14 -23 -14.5 -47z" />
<glyph unicode="&#xb1;" horiz-adv-x="1024" d="M111 143l36 242h852l-36 -242h-852zM213 782l37 242h303l49 303h242l-49 -303h307l-37 -242h-307l-49 -307h-242l49 307h-303z" />
<glyph unicode="&#xb2;" horiz-adv-x="815" d="M137 727l31 197q528 331 551 483q4 18 4 45q0 72 -141 72h-326q-2 0 20 125l7 41q225 39 405 39q98 0 162 -52q102 -78 102 -211q0 -213 -260 -430q-27 -23 -78 -62.5t-53 -41.5h307l-32 -205h-699z" />
<glyph unicode="&#xb3;" horiz-adv-x="833" d="M141 760l27 162l328 2q74 0 109.5 17t43.5 67l4 26q2 10 2 31.5t-26.5 39t-93.5 19.5l-250 11l26 178l258 10q92 4 117 28.5t29 55.5l4 25q2 12 2 30q0 53 -123 54h-346l27 161q121 41 333 41h111q115 -2 170 -68.5t55 -144.5q0 -23 -4 -47l-10 -61q-27 -158 -143 -183 q86 -33 86 -157q0 -27 -5 -53l-8 -50q-39 -236 -307 -235h-2h-61q-193 0 -254.5 12t-98.5 29z" />
<glyph unicode="&#xb4;" horiz-adv-x="497" d="M203 1087l231 285h250l-295 -285h-186z" />
<glyph unicode="&#xb5;" horiz-adv-x="1202" d="M53 -553l260 1640h287l-117 -729q-4 -23 -4 -43q0 -102 101 -102q84 0 143 21.5t135 72.5l125 780h287l-172 -1087h-232l-39 115q-12 -6 -43.5 -23.5t-47 -26t-43 -21.5t-46.5 -21q-123 -45 -219 -15l-88 -561h-287z" />
<glyph unicode="&#xb6;" horiz-adv-x="1179" d="M219 993q0 27 4 54l29 190q23 154 129 211q94 51 237 51h771l-35 -213h-107l-205 -1286h-206l204 1290h-137l-291 -1843h-209l209 1315q-4 0 -16 -7t-25 -12q-37 -16 -99 -16t-122 29q-131 66 -131 237zM432 1012q0 -17 4 -35.5t25 -26.5q27 -14 76 -14h100l59 358h-100 q-74 0 -102.5 -26.5t-38.5 -96.5l-21 -124q-2 -18 -2 -35z" />
<glyph unicode="&#xb7;" horiz-adv-x="536" d="M240 696l30 185q7 51 58 51h176q45 0 45 -37q0 -6 -2 -14l-31 -185q-6 -47 -57 -47h-176q-20 0 -32.5 12.5t-10.5 34.5z" />
<glyph unicode="&#xb8;" horiz-adv-x="497" d="M20 -365l21 123l94 31q55 20 70 70q6 20 12 65h195q-16 -109 -47 -170q-60 -119 -230 -119h-115z" />
<glyph unicode="&#xb9;" horiz-adv-x="571" d="M225 1442l23 151q51 0 133 44t113 79h217l-158 -989h-221l123 762q-60 -47 -230 -47z" />
<glyph unicode="&#xba;" horiz-adv-x="788" d="M158 541l22 141h660l-23 -141h-659zM223 1032q0 51 8 111q35 213 121 287q86 76 274.5 75.5t258.5 -92.5q49 -61 49 -180q0 -57 -14.5 -143t-40 -149.5t-72.5 -104.5t-114.5 -56.5t-170.5 -15.5q-182 0 -252 92q-47 63 -47 176zM432 1040.5q0 -34.5 6 -54t23 -30.5 q29 -14 81 -14t71.5 3t41.5 22q37 29 54.5 135t17.5 140t-13.5 54.5t-35.5 24.5q-23 6 -77 6t-81 -12q-53 -23 -76 -168q-12 -72 -12 -106.5z" />
<glyph unicode="&#xbb;" horiz-adv-x="1179" d="M150 459l325 284l-227 258l166 140l358 -420l-483 -422zM594 459l326 284l-228 258l164 140l361 -420l-484 -422z" />
<glyph unicode="&#xbc;" horiz-adv-x="1980" d="M225 1237l23 152q51 0 133 44t113 78h217l-158 -989h-221l123 762q-60 -47 -230 -47zM393 0l1092 1577h215l-1092 -1577h-215zM1149 295l461 690h241l-374 -575h223l33 211l67 100h164l-49 -311h100l-28 -174l-109 -35l-27 -199h-215l31 197h-473z" />
<glyph unicode="&#xbd;" horiz-adv-x="2076" d="M225 1237l23 152q51 0 133 44t113 78h217l-158 -989h-221l123 762q-60 -47 -230 -47zM381 0l1092 1577h215l-1092 -1577h-215zM1319 -2l31 197q526 331 551 483q2 18 2 45q0 72 -140 72h-325q-2 0 18 125l8 41q225 39 406 38q74 0 129 -28q102 -53 127 -178 q6 -31 6 -57.5t-6 -66.5t-35 -98.5t-58.5 -99.5t-80.5 -91t-78 -72.5t-79 -62.5t-54 -42h309l-33 -205h-698z" />
<glyph unicode="&#xbe;" horiz-adv-x="2209" d="M141 555l27 162l328 2q96 0 121.5 25.5t31.5 58.5l4 26q10 66 -49 82q-25 8 -69 9l-250 10l26 178l258 10q92 4 117 28.5t29 55.5l4 25q2 12 2 30q0 53 -123 54h-346l27 162q121 41 333 40h111q115 -2 170 -68.5t55 -144.5q0 -23 -4 -47l-10 -61q-27 -158 -143 -182 q86 -33 86 -158q0 -27 -5 -53l-8 -49q-39 -236 -307 -236h-2h-61q-193 0 -254.5 12.5t-98.5 28.5zM598 0l1092 1577h215l-1092 -1577h-215zM1331 295l463 690h240l-377 -575h225l33 211l65 100h166l-49 -311h98l-26 -174l-109 -35l-26 -199h-217l32 197h-475z" />
<glyph unicode="&#xbf;" horiz-adv-x="1105" d="M31 -193.5q0 37.5 6 70.5l22 150q35 213 160 292q102 66 275 66q43 0 90 -4l30 184h232l-64 -399h-136h-97q-178 -8 -205 -168l-16 -111q-4 -23 -4 -50t14 -58q31 -66 186 -66h510l-33 -211q-285 -55 -479 -55q-51 0 -108 4q-106 0 -187 37q-147 70 -186 238 q-10 43 -10 80.5zM623 719v14l28 185q9 47 58 47h178q20 0 32.5 -13.5t8.5 -33.5l-29 -185q-6 -51 -57 -51h-178q-41 0 -41 37z" />
<glyph unicode="&#xc0;" horiz-adv-x="1409" d="M70 0l743 1499h326l250 -1499h-293l-60 332h-485l-164 -332h-317zM666 586h342l-84 544zM688 1917h244l158 -285h-187z" />
<glyph unicode="&#xc1;" horiz-adv-x="1409" d="M70 0l743 1499h326l250 -1499h-293l-60 332h-485l-164 -332h-317zM666 586h342l-84 544zM903 1632l232 285h249l-294 -285h-187z" />
<glyph unicode="&#xc2;" horiz-adv-x="1409" d="M70 0l743 1499h326l250 -1499h-293l-60 332h-485l-164 -332h-317zM666 586h342l-84 544zM682 1632l264 277h213l154 -277h-185l-88 133l-147 -133h-211z" />
<glyph unicode="&#xc3;" horiz-adv-x="1409" d="M70 0l743 1499h326l250 -1499h-293l-60 332h-485l-164 -332h-317zM664 1745q154 143 270 143q51 -2 111.5 -36.5t93.5 -34.5h27.5t85 25.5t91.5 51.5l29 -122q-47 -43 -76.5 -67t-81 -48.5t-74 -24.5t-44.5 2q-29 0 -96.5 35t-98.5 35q-74 0 -139 -35q-20 -10 -66 -37z M666 586h342l-84 544z" />
<glyph unicode="&#xc4;" horiz-adv-x="1409" d="M70 0l743 1499h326l250 -1499h-293l-60 332h-485l-164 -332h-317zM634 1743q9 59 51 94t91 35t76 -31t27 -53q0 -76 -46.5 -116t-87 -40t-65.5 17q-55 35 -46 94zM666 586h342l-84 544zM1156 1743q9 59 51 94t91.5 35t76 -31t26.5 -53q0 -76 -46 -116t-87 -40t-66 17 q-55 35 -46 94z" />
<glyph unicode="&#xc5;" horiz-adv-x="1409" d="M70 0l743 1499h326l250 -1499h-293l-60 332h-485l-164 -332h-317zM666 586h342l-84 544zM793 1681q0 -74 54 -130t140 -56t154.5 63.5t68.5 163.5q0 74 -53 130.5t-123.5 56.5t-121 -27t-85 -79t-34.5 -122zM913 1699q0 36 30 63.5t67 27.5t58.5 -23.5t21.5 -60.5 t-31 -66q-27 -25 -65 -24.5t-59.5 24t-21.5 59.5z" />
<glyph unicode="&#xc6;" horiz-adv-x="2080" d="M47 0l766 1178q121 184 258 254q137 68 270 67q68 0 357 -7t418 -26l-37 -237h-574q-74 0 -96 -37q-16 -29 -25 -76l-38 -239l579 -23l-35 -236l-590 -18l-36 -231q-10 -78 28 -95q31 -12 84 -12h549l-37 -235q-106 -14 -491 -29l-129 -6h-41t-78 8q-133 27 -176 121 q-18 37 -18.5 71.5t3.5 59.5l23 147h-350l-264 -399h-320zM791 653h231l80 480z" />
<glyph unicode="&#xc7;" horiz-adv-x="1169" d="M182 514q0 148 21.5 273.5t46 222t61.5 180.5t84 142.5t111 101.5q125 82 328 82q279 0 512 -74l-35 -223q-256 33 -432 32h-13.5h-24t-34.5 -1t-46 -5t-46.5 -13t-43 -25.5t-43 -41t-38 -63.5t-35.5 -88q-39 -117 -61.5 -254t-22.5 -229.5t21 -151.5q45 -121 206 -127 h117t348 18l-35 -225q-109 -37 -219 -47t-195 -10h-118q-139 2 -232.5 65.5t-132.5 173.5q-49 139 -49 287zM360 -365l21 123l94 31q43 14 58.5 43t25.5 94h193q-25 -158 -84 -223q-60 -68 -193 -68h-115z" />
<glyph unicode="&#xc8;" horiz-adv-x="1146" d="M158 240q0 33 4 67l141 893q28 180 141 246q53 31 105.5 42t87.5 11t290 -7t384 -26l-37 -237h-572q-98 0 -116 -80q-4 -14 -6 -35l-37 -229l579 -21l-39 -235l-583 -21l-39 -237q-10 -66 14 -84q8 -6 12.5 -10.5t15.5 -6.5t16 -4t18 -2h34h551l-39 -235 q-113 -14 -571 -33l-53 -2h-38t-79 12q-184 45 -184 234zM563 1905h244l158 -283h-187z" />
<glyph unicode="&#xc9;" horiz-adv-x="1146" d="M158 240q0 33 4 67l141 893q28 180 141 246q53 31 105.5 42t87.5 11t290 -7t384 -26l-37 -237h-572q-98 0 -116 -80q-4 -14 -6 -35l-37 -229l579 -21l-39 -235l-583 -21l-39 -237q-10 -66 14 -84q8 -6 12.5 -10.5t15.5 -6.5t16 -4t18 -2h34h551l-39 -235 q-113 -14 -571 -33l-53 -2h-38t-79 12q-184 45 -184 234zM782 1622l230 283h252l-297 -283h-185z" />
<glyph unicode="&#xca;" horiz-adv-x="1146" d="M158 240q0 33 4 67l141 893q28 180 141 246q53 31 105.5 42t87.5 11t290 -7t384 -26l-37 -237h-572q-98 0 -116 -80q-4 -14 -6 -35l-37 -229l579 -21l-39 -235l-583 -21l-39 -237q-10 -66 14 -84q8 -6 12.5 -10.5t15.5 -6.5t16 -4t18 -2h34h551l-39 -235 q-113 -14 -571 -33l-53 -2h-38t-79 12q-184 45 -184 234zM563 1622l264 279h213l156 -279h-188l-84 131l-133 -131h-228z" />
<glyph unicode="&#xcb;" horiz-adv-x="1146" d="M158 240q0 33 4 67l141 893q28 180 141 246q53 31 105.5 42t87.5 11t290 -7t384 -26l-37 -237h-572q-98 0 -116 -80q-4 -14 -6 -35l-37 -229l579 -21l-39 -235l-583 -21l-39 -237q-10 -66 14 -84q8 -6 12.5 -10.5t15.5 -6.5t16 -4t18 -2h34h551l-39 -235 q-113 -14 -571 -33l-53 -2h-38t-79 12q-184 45 -184 234zM494 1692q0 76 45 114.5t95 38.5t76.5 -30.5t26.5 -55.5q0 -74 -46 -113.5t-95 -39.5t-75.5 31.5t-26.5 54.5zM1016 1692q0 76 45 114.5t95 38.5t77 -30.5t27 -55.5q0 -74 -46.5 -113.5t-95.5 -39.5t-75.5 31.5 t-26.5 54.5z" />
<glyph unicode="&#xcc;" horiz-adv-x="524" d="M133 0l238 1499h286l-237 -1499h-287zM227 1917h244l158 -285h-187z" />
<glyph unicode="&#xcd;" horiz-adv-x="524" d="M133 0l238 1499h286l-237 -1499h-287zM442 1632l232 285h250l-295 -285h-187z" />
<glyph unicode="&#xce;" horiz-adv-x="524" d="M133 0l238 1499h286l-237 -1499h-287zM219 1632l264 277h213l156 -277h-186l-86 133l-150 -133h-211z" />
<glyph unicode="&#xcf;" horiz-adv-x="524" d="M133 0l238 1499h286l-237 -1499h-287zM173 1743q9 59 50 94t91.5 35t76 -31t25.5 -53q0 -76 -45 -116t-86 -40t-68 17q-53 35 -44 94zM695.5 1743q9.5 59 50 94t91 35t76 -31t25.5 -53q0 -76 -45 -116t-86 -40t-68 17q-53 35 -43.5 94z" />
<glyph unicode="&#xd0;" horiz-adv-x="1335" d="M100 696l23 135h133l104 668h617q211 0 309 -129q96 -127 109 -303q4 -55 4 -98q0 -129 -21 -260q-61 -369 -205.5 -539t-410.5 -170h-639l110 696h-133zM451 256h307q254 0 332 489q25 133 24 201q0 195 -65 256q-47 43 -136 43h-305l-65 -414h227l-20 -135h-230z" />
<glyph unicode="&#xd1;" horiz-adv-x="1370" d="M125 0l237 1499h287l426 -975l154 975h287l-238 -1499h-283l-430 963l-151 -963h-289zM618 1741q154 143 271 143q51 -2 111.5 -37t93.5 -35h27.5t85 26t91.5 50l29 -121q-47 -43 -76.5 -66.5t-81 -48t-73.5 -24.5q-76 0 -140.5 36t-102.5 36t-75 -12q-49 -14 -127 -60z " />
<glyph unicode="&#xd2;" horiz-adv-x="1363" d="M186.5 441.5q-0.5 54.5 0.5 119t21.5 193.5t45.5 224t51.5 167t63.5 127t70.5 94t81.5 65.5t89 42t98.5 23.5t104.5 10t121 2t137.5 -8t126 -29.5t105.5 -58.5q98 -84 124 -242q14 -72 14.5 -128t-1.5 -121.5t-23.5 -208t-53.5 -251t-69 -184t-88 -128t-101 -84 t-120 -48.5q-113 -27 -237.5 -26.5t-187 7.5t-126 27.5t-106.5 55.5q-100 82 -127 233q-14 72 -14.5 126.5zM475 473q0 -121 51 -166q63 -51 211 -51q137 0 217 53q119 82 174 430q25 152 25 242t-12.5 141.5t-50 79t-79.5 35.5t-106.5 8t-98.5 -3t-73 -13t-64.5 -31.5 t-52.5 -58.5q-45 -59 -93 -262t-48 -404zM637 1917h244l157 -285h-186z" />
<glyph unicode="&#xd3;" horiz-adv-x="1363" d="M186.5 441.5q-0.5 54.5 0.5 119t21.5 193.5t45.5 224t51.5 167t63.5 127t70.5 94t81.5 65.5t89 42t98.5 23.5t104.5 10t121 2t137.5 -8t126 -29.5t105.5 -58.5q98 -84 124 -242q14 -72 14.5 -128t-1.5 -121.5t-23.5 -208t-53.5 -251t-69 -184t-88 -128t-101 -84 t-120 -48.5q-113 -27 -237.5 -26.5t-187 7.5t-126 27.5t-106.5 55.5q-100 82 -127 233q-14 72 -14.5 126.5zM475 473q0 -121 51 -166q63 -51 211 -51q137 0 217 53q119 82 174 430q25 152 25 242t-12.5 141.5t-50 79t-79.5 35.5t-106.5 8t-98.5 -3t-73 -13t-64.5 -31.5 t-52.5 -58.5q-45 -59 -93 -262t-48 -404zM852 1632l231 285h252l-297 -285h-186z" />
<glyph unicode="&#xd4;" horiz-adv-x="1363" d="M186.5 441.5q-0.5 54.5 0.5 119t21.5 193.5t45.5 224t51.5 167t63.5 127t70.5 94t81.5 65.5t89 42t98.5 23.5t104.5 10t121 2t137.5 -8t126 -29.5t105.5 -58.5q98 -84 124 -242q14 -72 14.5 -128t-1.5 -121.5t-23.5 -208t-53.5 -251t-69 -184t-88 -128t-101 -84 t-120 -48.5q-113 -27 -237.5 -26.5t-187 7.5t-126 27.5t-106.5 55.5q-100 82 -127 233q-14 72 -14.5 126.5zM475 473q0 -121 51 -166q63 -51 211 -51q137 0 217 53q119 82 174 430q25 152 25 242t-12.5 141.5t-50 79t-79.5 35.5t-106.5 8t-98.5 -3t-73 -13t-64.5 -31.5 t-52.5 -58.5q-45 -59 -93 -262t-48 -404zM631 1632l264 277h213l154 -277h-185l-86 133l-149 -133h-211z" />
<glyph unicode="&#xd5;" horiz-adv-x="1363" d="M186.5 441.5q-0.5 54.5 0.5 119t21.5 193.5t45.5 224t51.5 167t63.5 127t70.5 94t81.5 65.5t89 42t98.5 23.5t104.5 10t121 2t137.5 -8t126 -29.5t105.5 -58.5q98 -84 124 -242q14 -72 14.5 -128t-1.5 -121.5t-23.5 -208t-53.5 -251t-69 -184t-88 -128t-101 -84 t-120 -48.5q-113 -27 -237.5 -26.5t-187 7.5t-126 27.5t-106.5 55.5q-100 82 -127 233q-14 72 -14.5 126.5zM475 473q0 -121 51 -166q63 -51 211 -51q137 0 217 53q119 82 174 430q25 152 25 242t-12.5 141.5t-50 79t-79.5 35.5t-106.5 8t-98.5 -3t-73 -13t-64.5 -31.5 t-52.5 -58.5q-45 -59 -93 -262t-48 -404zM612 1745q152 143 269 143q51 -2 111 -36.5t93 -34.5h28t86.5 25.5t90.5 51.5l31 -122q-49 -43 -79 -67t-80 -48.5t-73.5 -24.5t-40 1t-48 12.5t-52.5 23.5q-55 35 -98 35t-80 -12q-47 -14 -127 -60z" />
<glyph unicode="&#xd6;" horiz-adv-x="1363" d="M186.5 441.5q-0.5 54.5 0.5 119t21.5 193.5t45.5 224t51.5 167t63.5 127t70.5 94t81.5 65.5t89 42t98.5 23.5t104.5 10t121 2t137.5 -8t126 -29.5t105.5 -58.5q98 -84 124 -242q14 -72 14.5 -128t-1.5 -121.5t-23.5 -208t-53.5 -251t-69 -184t-88 -128t-101 -84 t-120 -48.5q-113 -27 -237.5 -26.5t-187 7.5t-126 27.5t-106.5 55.5q-100 82 -127 233q-14 72 -14.5 126.5zM475 473q0 -121 51 -166q63 -51 211 -51q137 0 217 53q119 82 174 430q25 152 25 242t-12.5 141.5t-50 79t-79.5 35.5t-106.5 8t-98.5 -3t-73 -13t-64.5 -31.5 t-52.5 -58.5q-45 -59 -93 -262t-48 -404zM584 1720q0 76 46 114t95 38t75.5 -31t26.5 -53q0 -76 -45 -116t-95 -40t-76.5 32t-26.5 56zM1106 1720q0 76 46 114t95 38t76 -31t27 -53q0 -76 -45 -116t-95.5 -40t-77 32t-26.5 56z" />
<glyph unicode="&#xd7;" horiz-adv-x="944" d="M168 514l248 215l-180 215l186 164l180 -215l264 225l144 -172l-265 -229l181 -215l-185 -154l-176 209l-250 -221z" />
<glyph unicode="&#xd8;" horiz-adv-x="1363" d="M88 0l150 176q-55 106 -55.5 268t21 303.5t46 235.5t52.5 166t63.5 127t69.5 93t82 64.5t89 41t99 22.5q90 12 219 12q258 0 366 -79l60 69h153l-131 -156q68 -113 68 -327q0 -135 -24.5 -293t-56.5 -265.5t-69 -183t-88 -128t-100 -82t-121 -46.5q-111 -27 -264.5 -26.5 t-247.5 19t-160 71.5l-69 -82h-152zM475 557q0 -61 6 -94l613 737q-51 45 -203 45q-170 0 -227 -49q-66 -57 -91.5 -130t-44 -148.5t-36 -187.5t-17.5 -173zM514 322q51 -66 219 -66q92 0 150.5 18.5t105.5 71.5q90 96 137 393q20 145 20.5 221t-5.5 115z" />
<glyph unicode="&#xd9;" horiz-adv-x="1337" d="M207 455q0 98 18 217l133 827h287l-135 -860q-16 -94 -16 -174t24 -127q45 -84 205 -84t231.5 89t104.5 296l137 860h289l-131 -895q-39 -246 -129 -379q-90 -135 -224 -186q-131 -49 -315 -49q-227 0 -338 86q-141 111 -141 379zM633 1917h244l157 -285h-186z" />
<glyph unicode="&#xda;" horiz-adv-x="1337" d="M207 455q0 98 18 217l133 827h287l-135 -860q-16 -94 -16 -174t24 -127q45 -84 205 -84t231.5 89t104.5 296l137 860h289l-131 -895q-39 -246 -129 -379q-90 -135 -224 -186q-131 -49 -315 -49q-227 0 -338 86q-141 111 -141 379zM848 1632l231 285h250l-295 -285h-186z " />
<glyph unicode="&#xdb;" horiz-adv-x="1337" d="M207 455q0 98 18 217l133 827h287l-135 -860q-16 -94 -16 -174t24 -127q45 -84 205 -84t231.5 89t104.5 296l137 860h289l-131 -895q-39 -246 -129 -379q-90 -135 -224 -186q-131 -49 -315 -49q-227 0 -338 86q-141 111 -141 379zM627 1632l264 277h213l153 -277h-184 l-88 133l-147 -133h-211z" />
<glyph unicode="&#xdc;" horiz-adv-x="1337" d="M207 455q0 98 18 217l133 827h287l-135 -860q-16 -94 -16 -174t24 -127q45 -84 205 -84t231.5 89t104.5 296l137 860h289l-131 -895q-39 -246 -129 -379q-90 -135 -224 -186q-131 -49 -315 -49q-227 0 -338 86q-141 111 -141 379zM580 1720q0 76 46 114t95 38t75.5 -31 t26.5 -53q0 -76 -46 -116t-95 -40t-75.5 32t-26.5 56zM1102 1720q0 76 46 114t95 38t76 -31t27 -53q0 -76 -46.5 -116t-95.5 -40t-75.5 32t-26.5 56z" />
<glyph unicode="&#xdd;" horiz-adv-x="1343" d="M285 1499h309l172 -717l428 717h328l-658 -1034l-73 -465h-287l74 465zM831 1632l232 285h250l-295 -285h-187z" />
<glyph unicode="&#xde;" horiz-adv-x="1116" d="M94 0l236 1493h286l-45 -289h301q98 0 181 -53q86 -55 114 -209q6 -35 6.5 -82t-10 -115.5t-28 -131t-41 -107.5t-48 -78t-58.5 -53.5t-60.5 -33.5t-65.5 -19q-72 -12 -201 -12.5t-225 40.5l-55 -350h-287zM469 563h213q47 0 74.5 6t52.5 27q43 35 65 170q6 27 6.5 42 t-3 33.5t-5.5 39t-16 34t-23.5 20.5t-27.5 9q-27 6 -64 6h-211z" />
<glyph unicode="&#xdf;" horiz-adv-x="1171" d="M94 0l185 1159q29 188 155 309q138 131 408 131q137 0 236.5 -37.5t144.5 -97.5q68 -88 67 -200q0 -115 -76 -244q-43 -72 -83.5 -110t-91 -68.5t-76 -57t-31.5 -63.5t14.5 -62.5t53 -41t71.5 -39t70 -50.5q59 -47 59 -137q0 -20 -4 -43l-10 -63q-45 -301 -391 -301 q-129 0 -299 39l32 202q180 -10 232.5 -10t92.5 27.5t50 87.5l8 41q8 61 -65 96q-78 35 -123 68q-72 53 -72 141q0 150 105 242q41 37 123 88q117 82 116 215q0 66 -32 86q-51 33 -158 32.5t-169.5 -61.5t-88.5 -221l-166 -1057h-287z" />
<glyph unicode="&#xe0;" horiz-adv-x="1110" d="M135 347q0 128 23.5 259t67.5 225.5t92.5 144.5t115 80.5t116.5 39t97 11.5t117 3t207 -29.5t209 -99.5l-144 -979h-221l-43 113q-57 -72 -199 -109q-68 -18 -140.5 -18t-136 33.5t-108.5 107.5q-53 90 -53 218zM414 1516h243l158 -283h-186zM422 412.5q0 -58.5 10 -97.5 q25 -84 112 -84t143 25t110 78l77 524q-72 25 -130 25t-94 -7.5t-62.5 -19.5t-57.5 -43q-63 -59 -94 -258q-14 -84 -14 -142.5z" />
<glyph unicode="&#xe1;" horiz-adv-x="1110" d="M135 347q0 128 23.5 259t67.5 225.5t92.5 144.5t115 80.5t116.5 39t97 11.5t117 3t207 -29.5t209 -99.5l-144 -979h-221l-43 113q-57 -72 -199 -109q-68 -18 -140.5 -18t-136 33.5t-108.5 107.5q-53 90 -53 218zM422 412.5q0 -58.5 10 -97.5q25 -84 112 -84t143 25 t110 78l77 524q-72 25 -130 25t-94 -7.5t-62.5 -19.5t-57.5 -43q-63 -59 -94 -258q-14 -84 -14 -142.5zM639 1233l229 283h252l-295 -283h-186z" />
<glyph unicode="&#xe2;" horiz-adv-x="1110" d="M135 347q0 128 23.5 259t67.5 225.5t92.5 144.5t115 80.5t116.5 39t97 11.5t117 3t207 -29.5t209 -99.5l-144 -979h-221l-43 113q-57 -72 -199 -109q-68 -18 -140.5 -18t-136 33.5t-108.5 107.5q-53 90 -53 218zM408 1233l264 276h213l153 -276h-184l-88 133l-148 -133 h-210zM422 412.5q0 -58.5 10 -97.5q25 -84 112 -84t143 25t110 78l77 524q-72 25 -130 25t-94 -7.5t-62.5 -19.5t-57.5 -43q-63 -59 -94 -258q-14 -84 -14 -142.5z" />
<glyph unicode="&#xe3;" horiz-adv-x="1110" d="M135 347q0 128 23.5 259t67.5 225.5t92.5 144.5t115 80.5t116.5 39t97 11.5t117 3t207 -29.5t209 -99.5l-144 -979h-221l-43 113q-57 -72 -199 -109q-68 -18 -140.5 -18t-136 33.5t-108.5 107.5q-53 90 -53 218zM395 1346q154 143 271 143q39 -2 75.5 -19.5t68.5 -35 t47 -17.5h40t86 25.5t92 50.5l29 -121q-47 -43 -78 -66.5t-81 -48t-73 -24.5q-76 0 -140 36t-102 36t-77 -13q-47 -14 -127 -59zM422 412.5q0 -58.5 10 -97.5q25 -84 112 -84t143 25t110 78l77 524q-72 25 -130 25t-94 -7.5t-62.5 -19.5t-57.5 -43q-63 -59 -94 -258 q-14 -84 -14 -142.5z" />
<glyph unicode="&#xe4;" horiz-adv-x="1110" d="M135 347q0 128 23.5 259t67.5 225.5t92.5 144.5t115 80.5t116.5 39t97 11.5t117 3t207 -29.5t209 -99.5l-144 -979h-221l-43 113q-57 -72 -199 -109q-68 -18 -140.5 -18t-136 33.5t-108.5 107.5q-53 90 -53 218zM358.5 1343.5q10.5 59.5 51.5 94.5t81.5 35t65.5 -15 q55 -35 46 -94t-50 -95t-82 -36t-68 16q-55 35 -44.5 94.5zM422 412.5q0 -58.5 10 -97.5q25 -84 112 -84t143 25t110 78l77 524q-72 25 -130 25t-94 -7.5t-62.5 -19.5t-57.5 -43q-63 -59 -94 -258q-14 -84 -14 -142.5zM881 1343.5q10 59.5 51 94.5t82 35t65 -15 q55 -35 46 -94t-50 -95t-82 -36t-67 16q-55 35 -45 94.5z" />
<glyph unicode="&#xe5;" horiz-adv-x="1110" d="M135 347q0 128 23.5 259t67.5 225.5t92.5 144.5t115 80.5t116.5 39t97 11.5t117 3t207 -29.5t209 -99.5l-144 -979h-221l-43 113q-57 -72 -199 -109q-68 -18 -140.5 -18t-136 33.5t-108.5 107.5q-53 90 -53 218zM422 412.5q0 -58.5 10 -97.5q25 -84 112 -84t143 25 t110 78l77 524q-72 25 -130 25t-94 -7.5t-62.5 -19.5t-57.5 -43q-63 -59 -94 -258q-14 -84 -14 -142.5zM555 1419q0 100 70.5 164t156.5 64t138.5 -56.5t52.5 -130.5q0 -70 -33 -121q-70 -106 -188 -106q-88 0 -142.5 56.5t-54.5 129.5zM676 1436q0 -37 22.5 -60.5 t59.5 -23.5t63 26q33 29 33 66t-21.5 60.5t-58.5 23.5t-67.5 -27.5t-30.5 -64.5z" />
<glyph unicode="&#xe6;" horiz-adv-x="1738" d="M86 360q0 123 22.5 235t50 188.5t57.5 127t71 87t74.5 56t82.5 31.5q92 25 172 25t136 -4q150 -12 254 -62q115 63 303 64q186 0 309 -61q129 -66 129 -226q0 -113 -43 -196.5t-100 -124.5q-136 -103 -353 -103q-145 0 -213 29q-8 -47 -8 -93t21 -73q35 -43 145 -45h59 q162 0 373 35l-35 -205q-209 -63 -444 -63q-55 0 -111 4q-176 8 -245 141q-61 -68 -177 -104.5t-219 -36.5q-174 0 -260 157q-51 94 -51 217zM375 406.5q0 -56.5 8 -93.5q23 -84 123 -84q72 0 140.5 20.5t96.5 55.5q-2 31 -2 100.5t28 218t69 230.5q-86 29 -144.5 29 t-91.5 -7.5t-59.5 -19.5t-59.5 -43q-61 -63 -92 -260q-16 -90 -16 -146.5zM1061 614q49 -8 90 -8t64.5 1t67.5 9.5t77 24.5q96 43 96 147q0 45 -31.5 68t-119.5 23q-127 0 -175 -64q-16 -25 -25 -39t-20 -51q-12 -43 -24 -111z" />
<glyph unicode="&#xe7;" horiz-adv-x="1009" d="M143.5 345q-0.5 120 21 245t56.5 222t74 152.5t93 86t103.5 40t116.5 9.5q295 0 490 -68l-27 -176q-195 12 -305.5 12t-131 -1t-49 -11t-44 -30.5t-33.5 -55.5q-31 -61 -62 -231q-16 -133 -16 -183.5t20.5 -82t52.5 -43t101 -11.5q154 0 326 14l57 5l-29 -181 q-147 -69 -387 -69l-131 2q-166 0 -245 145q-51 90 -51.5 210zM262 -367l21 123l94 31q45 16 59.5 44t24.5 91h192q-25 -158 -84 -223.5t-190 -65.5h-117z" />
<glyph unicode="&#xe8;" horiz-adv-x="1079" d="M135 367q0 109 23.5 232.5t47 195t62.5 136t99 99.5q123 78 352 78q422 0 422 -285q0 -115 -42 -198.5t-100 -124.5q-137 -103 -354 -103q-145 0 -213 29q-8 -47 -8 -93t20 -73q35 -43 146 -45h65q166 0 379 35l-35 -205q-209 -63 -450 -63q-57 0 -117 4 q-297 14 -297 381zM428 1516h244l157 -285h-186zM455 614q51 -8 91 -8t63.5 1t67.5 9.5t77 24.5q96 43 96 147q0 45 -32 68t-118 23q-129 0 -174 -64q-18 -25 -27.5 -39t-19.5 -51q-10 -43 -24 -111z" />
<glyph unicode="&#xe9;" horiz-adv-x="1079" d="M135 367q0 109 23.5 232.5t47 195t62.5 136t99 99.5q123 78 352 78q422 0 422 -285q0 -115 -42 -198.5t-100 -124.5q-137 -103 -354 -103q-145 0 -213 29q-8 -47 -8 -93t20 -73q35 -43 146 -45h65q166 0 379 35l-35 -205q-209 -63 -450 -63q-57 0 -117 4 q-297 14 -297 381zM455 614q51 -8 91 -8t63.5 1t67.5 9.5t77 24.5q96 43 96 147q0 45 -32 68t-118 23q-129 0 -174 -64q-18 -25 -27.5 -39t-19.5 -51q-10 -43 -24 -111zM643 1231l231 285h250l-295 -285h-186z" />
<glyph unicode="&#xea;" horiz-adv-x="1079" d="M135 367q0 109 23.5 232.5t47 195t62.5 136t99 99.5q123 78 352 78q422 0 422 -285q0 -115 -42 -198.5t-100 -124.5q-137 -103 -354 -103q-145 0 -213 29q-8 -47 -8 -93t20 -73q35 -43 146 -45h65q166 0 379 35l-35 -205q-209 -63 -450 -63q-57 0 -117 4 q-297 14 -297 381zM422 1231l264 276h213l154 -276h-185l-88 133l-147 -133h-211zM455 614q51 -8 91 -8t63.5 1t67.5 9.5t77 24.5q96 43 96 147q0 45 -32 68t-118 23q-129 0 -174 -64q-18 -25 -27.5 -39t-19.5 -51q-10 -43 -24 -111z" />
<glyph unicode="&#xeb;" horiz-adv-x="1079" d="M135 367q0 109 23.5 232.5t47 195t62.5 136t99 99.5q123 78 352 78q422 0 422 -285q0 -115 -42 -198.5t-100 -124.5q-137 -103 -354 -103q-145 0 -213 29q-8 -47 -8 -93t20 -73q35 -43 146 -45h65q166 0 379 35l-35 -205q-209 -63 -450 -63q-57 0 -117 4 q-297 14 -297 381zM373 1319q0 76 46 113.5t96 37.5t75.5 -30.5t25.5 -53.5q0 -76 -45 -115.5t-95 -39.5t-76.5 31.5t-26.5 56.5zM455 614q51 -8 91 -8t63.5 1t67.5 9.5t77 24.5q96 43 96 147q0 45 -32 68t-118 23q-129 0 -174 -64q-18 -25 -27.5 -39t-19.5 -51 q-10 -43 -24 -111zM895 1319q0 76 46 113.5t96 37.5t76 -30.5t26 -53.5q0 -76 -45 -115.5t-95.5 -39.5t-77 31.5t-26.5 56.5z" />
<glyph unicode="&#xec;" horiz-adv-x="462" d="M78 0l172 1087h287l-172 -1087h-287zM104 1507h242l160 -282h-187z" />
<glyph unicode="&#xed;" horiz-adv-x="462" d="M78 0l172 1087h287l-172 -1087h-287zM317 1225l232 282h250l-295 -282h-187z" />
<glyph unicode="&#xee;" horiz-adv-x="462" d="M78 0l172 1087h287l-172 -1087h-287zM94 1225l264 276h213l154 -276h-184l-88 133l-148 -133h-211z" />
<glyph unicode="&#xef;" horiz-adv-x="462" d="M43 1311.5q0 23.5 3 45t23.5 49.5t51.5 43t71.5 15t67.5 -30.5t27 -55.5q0 -74 -46 -113.5t-95.5 -39.5t-76 31.5t-26.5 55zM78 0l172 1087h287l-172 -1087h-287zM565 1311.5q0 23.5 2 41t15.5 39t33 38t43 25.5t60.5 9t63.5 -30.5t26.5 -55.5q0 -74 -46 -113.5 t-95.5 -39.5t-76 31.5t-26.5 55z" />
<glyph unicode="&#xf0;" horiz-adv-x="1103" d="M129 371q0 88 14 190q45 276 154 401t313 125h117q121 0 152 -20q-16 125 -86 199l-250 -109l-39 117l158 67q-74 29 -205 29q-23 0 -47 -2l36 236q338 0 506 -123l201 88l43 -119l-149 -64q117 -160 116 -479q0 -178 -41 -431t-153.5 -364.5t-306.5 -111.5h-224 q-309 0 -309 371zM414 418q0 -106 29.5 -129t78.5 -23h4h131h27t55 17q66 37 101 252q18 111 18 162t-6 71q-18 55 -109 55h-122q-80 0 -121 -57t-70 -231q-16 -80 -16 -117z" />
<glyph unicode="&#xf1;" horiz-adv-x="1126" d="M94 0l172 1087h230l39 -116q74 49 108.5 68.5t107 43t150.5 23.5q274 0 275 -270q0 -51 -11 -111l-114 -725h-287l115 729q4 23 4 43q0 104 -101 105q-123 0 -223 -62q-25 -14 -55 -33l-123 -782h-287zM430 1341q152 143 268 144q51 -2 111.5 -37t93.5 -35h27.5t86 25.5 t91.5 52.5l31 -123q-49 -43 -79 -66.5t-80 -48t-75 -24.5q-74 0 -138.5 35.5t-102 35.5t-76.5 -12q-47 -14 -127 -59z" />
<glyph unicode="&#xf2;" d="M143 381q0 80 20.5 212t62.5 236.5t114 166t165 84t236 22.5q270 0 365 -146q61 -94 61 -260q0 -88 -20.5 -219t-59 -227t-106.5 -155.5t-162 -82t-239 -22.5q-274 0 -371 135q-66 92 -66 256zM430 383q0 -53 8 -85t33 -50q41 -29 121 -28t115.5 8.5t68.5 39t51.5 92 t36.5 170.5q20 123 20.5 182.5t-18 96.5t-54.5 49t-103.5 12t-106.5 -11t-69.5 -49t-49 -102.5t-36 -168t-17.5 -156.5zM440 1507h244l158 -282h-187z" />
<glyph unicode="&#xf3;" d="M143 381q0 80 20.5 212t62.5 236.5t114 166t165 84t236 22.5q270 0 365 -146q61 -94 61 -260q0 -88 -20.5 -219t-59 -227t-106.5 -155.5t-162 -82t-239 -22.5q-274 0 -371 135q-66 92 -66 256zM430 383q0 -53 8 -85t33 -50q41 -29 121 -28t115.5 8.5t68.5 39t51.5 92 t36.5 170.5q20 123 20.5 182.5t-18 96.5t-54.5 49t-103.5 12t-106.5 -11t-69.5 -49t-49 -102.5t-36 -168t-17.5 -156.5zM664 1225l229 282h252l-295 -282h-186z" />
<glyph unicode="&#xf4;" d="M143 381q0 80 20.5 212t62.5 236.5t114 166t165 84t236 22.5q270 0 365 -146q61 -94 61 -260q0 -88 -20.5 -219t-59 -227t-106.5 -155.5t-162 -82t-239 -22.5q-274 0 -371 135q-66 92 -66 256zM430 383q0 -53 8 -85t33 -50q41 -29 121 -28t115.5 8.5t68.5 39t51.5 92 t36.5 170.5q20 123 20.5 182.5t-18 96.5t-54.5 49t-103.5 12t-106.5 -11t-69.5 -49t-49 -102.5t-36 -168t-17.5 -156.5zM430 1225l264 276h213l154 -276h-184l-89 133l-147 -133h-211z" />
<glyph unicode="&#xf5;" d="M143 381q0 80 20.5 212t62.5 236.5t114 166t165 84t236 22.5q270 0 365 -146q61 -94 61 -260q0 -88 -20.5 -219t-59 -227t-106.5 -155.5t-162 -82t-239 -22.5q-274 0 -371 135q-66 92 -66 256zM416 1337q154 141 270 142q41 0 77 -17.5t67.5 -35t48 -17.5h40t85 25.5 t92.5 50.5l28 -121q-47 -43 -76.5 -66.5t-81 -48t-73.5 -24.5q-76 0 -140.5 35.5t-102.5 35.5t-77 -12q-47 -14 -124 -59zM430 383q0 -53 8 -85t33 -50q41 -29 121 -28t115.5 8.5t68.5 39t51.5 92t36.5 170.5q20 123 20.5 182.5t-18 96.5t-54.5 49t-103.5 12t-106.5 -11 t-69.5 -49t-49 -102.5t-36 -168t-17.5 -156.5z" />
<glyph unicode="&#xf6;" d="M143 381q0 80 20.5 212t62.5 236.5t114 166t165 84t236 22.5q270 0 365 -146q61 -94 61 -260q0 -88 -20.5 -219t-59 -227t-106.5 -155.5t-162 -82t-239 -22.5q-274 0 -371 135q-66 92 -66 256zM389 1311q0 76 46 114.5t96.5 38.5t77 -30.5t26.5 -55.5q0 -74 -46 -113.5 t-95.5 -39.5t-77 31.5t-27.5 54.5zM430 383q0 -53 8 -85t33 -50q41 -29 121 -28t115.5 8.5t68.5 39t51.5 92t36.5 170.5q20 123 20.5 182.5t-18 96.5t-54.5 49t-103.5 12t-106.5 -11t-69.5 -49t-49 -102.5t-36 -168t-17.5 -156.5zM911 1311q0 76 46.5 114.5t96.5 38.5 t76.5 -30.5t26.5 -55.5q0 -74 -46 -113.5t-95 -39.5t-77 31.5t-28 54.5z" />
<glyph unicode="&#xf7;" horiz-adv-x="1017" d="M172 602l39 242h864l-39 -242h-864zM430 317l23 138q6 49 57 49h152q41 0 40 -37v-12l-22 -138q-8 -47 -57 -47h-150q-23 0 -35 12.5t-8 34.5zM537 979l20 137q6 51 57 51h152q41 0 41 -37v-14l-23 -137q-6 -47 -57 -47h-149q-23 0 -34.5 13t-6.5 34z" />
<glyph unicode="&#xf8;" horiz-adv-x="1144" d="M55 0l135 141q-45 80 -45 192.5t21.5 251t62.5 243t113 165t165 83t264 22.5t271 -64l52 53h157l-131 -135q53 -88 53.5 -211t-22.5 -259t-60.5 -232t-106.5 -155.5t-163 -82t-239 -22.5q-211 0 -316 69l-57 -59h-154zM440 450.5q0 -30.5 6 -49.5l400 430q-33 37 -129 37 t-140.5 -23.5t-74 -94t-46 -170t-16.5 -130zM465 262q31 -41 121 -41t124.5 7.5t67.5 39t51.5 92t33 146.5t14.5 127t-7 63z" />
<glyph unicode="&#xf9;" horiz-adv-x="1124" d="M125 252q0 51 10 113l115 722h287l-115 -729q-6 -27 -6 -59.5t21.5 -59t79.5 -26.5t104 10q80 16 176 84l123 780h286l-174 -1087h-229l-37 115q-100 -68 -177 -100.5t-190 -32.5q-274 0 -274 270zM440 1507h244l158 -282h-187z" />
<glyph unicode="&#xfa;" horiz-adv-x="1124" d="M125 252q0 51 10 113l115 722h287l-115 -729q-6 -27 -6 -59.5t21.5 -59t79.5 -26.5t104 10q80 16 176 84l123 780h286l-174 -1087h-229l-37 115q-100 -68 -177 -100.5t-190 -32.5q-274 0 -274 270zM655 1225l232 282h250l-295 -282h-187z" />
<glyph unicode="&#xfb;" horiz-adv-x="1124" d="M125 252q0 51 10 113l115 722h287l-115 -729q-6 -27 -6 -59.5t21.5 -59t79.5 -26.5t104 10q80 16 176 84l123 780h286l-174 -1087h-229l-37 115q-100 -68 -177 -100.5t-190 -32.5q-274 0 -274 270zM434 1225l264 276h213l154 -276h-184l-88 133l-148 -133h-211z" />
<glyph unicode="&#xfc;" horiz-adv-x="1124" d="M125 252q0 51 10 113l115 722h287l-115 -729q-6 -27 -6 -59.5t21.5 -59t79.5 -26.5t104 10q80 16 176 84l123 780h286l-174 -1087h-229l-37 115q-100 -68 -177 -100.5t-190 -32.5q-274 0 -274 270zM385 1311q0 76 46 114.5t96.5 38.5t76 -30.5t25.5 -55.5 q0 -74 -45 -113.5t-95.5 -39.5t-77 31.5t-26.5 54.5zM907 1311q0 76 46 114.5t96.5 38.5t76 -30.5t25.5 -55.5q0 -74 -45 -113.5t-95 -39.5t-77 31.5t-27 54.5z" />
<glyph unicode="&#xfd;" horiz-adv-x="1153" d="M172 1087h297l68 -761q8 -74 104 -80l277 616q37 88 51 228h266q8 -41 8 -84q0 -111 -57 -238l-350 -768q-168 -369 -410 -506q-113 -61 -238 -84v201q125 68 206 164t147 225q-119 0 -194 68.5t-89 207.5zM643 1217l231 282h250l-295 -282h-186z" />
<glyph unicode="&#xfe;" horiz-adv-x="1134" d="M20 -553l342 2155h287l-100 -633q67 49 163.5 87t199 38t173.5 -78q92 -102 93 -320q0 -86 -14.5 -183t-32 -165.5t-50 -144.5t-77.5 -123q-104 -106 -285 -107q-76 0 -164 19.5t-152 56.5l-96 -602h-287zM434 238q82 -33 240 -39q115 0 166 161q20 70 33.5 162.5 t13.5 151.5q0 176 -99 176q-137 0 -270 -72z" />
<glyph unicode="&#xff;" horiz-adv-x="1153" d="M172 1087h297l68 -761q8 -74 104 -80l277 616q37 88 51 228h266q8 -41 8 -84q0 -111 -57 -238l-350 -768q-168 -369 -410 -506q-113 -61 -238 -84v201q125 68 206 164t147 225q-119 0 -194 68.5t-89 207.5zM376 1304.5q9 59.5 50 94.5t91 35t77 -31t27 -55 q0 -74 -46.5 -114t-87.5 -40t-65 16q-55 35 -46 94.5zM899 1280q0 76 45 115t95.5 39t77 -31t26.5 -55q0 -74 -46 -114t-95.5 -40t-76 31.5t-26.5 54.5z" />
<glyph unicode="&#x100;" horiz-adv-x="1409" d="M70 0l743 1499h326l250 -1499h-293l-60 332h-485l-164 -332h-317zM666 586h342l-84 544zM698 1632l27 162h598l-27 -162h-598z" />
<glyph unicode="&#x101;" horiz-adv-x="1110" d="M135 347q0 128 23.5 259t67.5 225.5t92.5 144.5t115 80.5t116.5 39t97 11.5t117 3t207 -29.5t209 -99.5l-144 -979h-221l-43 113q-57 -72 -199 -109q-68 -18 -140.5 -18t-136 33.5t-108.5 107.5q-53 90 -53 218zM422 412.5q0 -58.5 10 -97.5q25 -84 112 -84t143 25 t110 78l77 524q-72 25 -130 25t-94 -7.5t-62.5 -19.5t-57.5 -43q-63 -59 -94 -258q-14 -84 -14 -142.5zM424 1233l27 162h598l-27 -162h-598z" />
<glyph unicode="&#x102;" horiz-adv-x="1409" d="M70 0l743 1499h326l250 -1499h-293l-60 332h-485l-164 -332h-317zM666 586h342l-84 544zM799 1837q0 12 2 27h117v-36t23.5 -53.5t74.5 -27.5h4q117 0 131 117h117q-12 -113 -78 -172.5t-169 -59.5t-162.5 59.5t-59.5 145.5z" />
<glyph unicode="&#x103;" horiz-adv-x="1110" d="M135 347q0 128 23.5 259t67.5 225.5t92.5 144.5t115 80.5t116.5 39t97 11.5t117 3t207 -29.5t209 -99.5l-144 -979h-221l-43 113q-57 -72 -199 -109q-68 -18 -140.5 -18t-136 33.5t-108.5 107.5q-53 90 -53 218zM422 412.5q0 -58.5 10 -97.5q25 -84 112 -84t143 25 t110 78l77 524q-72 25 -130 25t-94 -7.5t-62.5 -19.5t-57.5 -43q-63 -59 -94 -258q-14 -84 -14 -142.5zM471 1440v26h119q-2 -10 -2 -35.5t24.5 -53t75.5 -27.5h2q117 0 131 116h119q-12 -113 -78.5 -172t-170 -59t-162 59.5t-58.5 145.5z" />
<glyph unicode="&#x104;" horiz-adv-x="1499" d="M164 0l743 1499h326l250 -1499h-293l-60 332h-485l-164 -332h-317zM760 586h342l-84 544zM1112 -207q0 53 43 109.5t133 99.5h113q-121 -84 -121 -156q0 -80 102 -69l-24 -158q-29 -6 -59.5 -6t-76.5 15.5t-78 63.5t-32 101z" />
<glyph unicode="&#x105;" horiz-adv-x="1050" d="M115 347q0 128 23.5 259t68.5 225.5t92 144.5t113.5 80.5t118 39t98.5 11.5t115.5 3t205.5 -29.5t209 -99.5l-143 -979h-221l-43 113q-41 -51 -137.5 -89t-185.5 -38t-152.5 33.5t-108.5 107.5q-53 90 -53 218zM401 412.5q0 -58.5 11 -97.5q25 -84 114 -84q109 0 183 48 q33 20 67 55l78 524q-70 25 -129 25t-88 -5.5t-46.5 -11.5t-42 -19t-42 -34.5t-33.5 -54.5q-35 -63 -53.5 -175t-18.5 -170.5zM672 -207q0 53 43 109.5t133 99.5h115q-123 -84 -123 -156q0 -80 104 -69l-26 -158q-27 -6 -59 -6t-78 15.5t-77.5 63.5t-31.5 101z" />
<glyph unicode="&#x106;" horiz-adv-x="1169" d="M182 514q0 148 27 305.5t70 286.5t116 223q139 186 428.5 186.5t522.5 -73.5l-35 -223q-256 33 -432 32h-13.5h-24t-34.5 -1t-46 -5t-47.5 -13t-43 -25.5t-43 -41t-39 -63.5t-35.5 -88q-39 -117 -61.5 -253t-22.5 -229.5t23 -152.5q45 -121 206 -127h117t348 18l-35 -225 q-109 -37 -219 -47t-195 -10h-118q-139 2 -232.5 65.5t-132.5 173.5q-49 139 -49 287zM834 1638l229 283h252l-295 -283h-186z" />
<glyph unicode="&#x107;" horiz-adv-x="1007" d="M143.5 345q-0.5 120 21 245t56.5 222t74 153.5t93 88t103.5 42t131.5 10.5t227 -17.5t248 -50.5l-27 -178q-195 14 -308.5 14t-139 -4t-55 -20t-48.5 -53q-43 -84 -74 -258q-16 -133 -16 -183.5t20.5 -82t52.5 -43t101 -11.5q154 0 326 14l57 5l-29 -181 q-117 -43 -221 -56t-187 -13t-108 2q-168 0 -247 145q-51 90 -51.5 210zM633 1227l229 282h252l-295 -282h-186z" />
<glyph unicode="&#x108;" horiz-adv-x="1169" d="M182 514q0 148 27 305.5t70 286.5t116 223q139 186 428.5 186.5t522.5 -73.5l-35 -223q-256 33 -432 32h-13.5h-24t-34.5 -1t-46 -5t-47.5 -13t-43 -25.5t-43 -41t-39 -63.5t-35.5 -88q-39 -117 -61.5 -253t-22.5 -229.5t23 -152.5q45 -121 206 -127h117t348 18l-35 -225 q-109 -37 -219 -47t-195 -10h-118q-139 2 -232.5 65.5t-132.5 173.5q-49 139 -49 287zM590 1638l266 279h213l154 -279h-187l-86 134l-149 -134h-211z" />
<glyph unicode="&#x109;" horiz-adv-x="1007" d="M141.5 345q-0.5 120 21 245t56.5 222t74 153.5t93 88t103.5 42t131 10.5t228 -17.5t249.5 -50.5l-29 -178q-195 14 -308.5 14t-139 -4t-55 -20t-48.5 -53q-43 -84 -72 -258q-18 -133 -18 -183.5t20.5 -82t52 -43t101.5 -11.5q154 0 326 14l57 5l-29 -181 q-117 -43 -221 -56t-187 -13t-108 2q-168 0 -247 145q-51 90 -51.5 210zM408 1225l264 278h213l155 -278h-186l-86 133l-150 -133h-210z" />
<glyph unicode="&#x10a;" horiz-adv-x="1169" d="M182 514q0 148 27 305.5t70 286.5t116 223q139 186 428.5 186.5t522.5 -73.5l-35 -223q-256 33 -432 32h-13.5h-24t-34.5 -1t-46 -5t-47.5 -13t-43 -25.5t-43 -41t-39 -63.5t-35.5 -88q-39 -117 -61.5 -253t-22.5 -229.5t23 -152.5q45 -121 206 -127h117t348 18l-35 -225 q-109 -37 -219 -47t-195 -10h-118q-139 2 -232.5 65.5t-132.5 173.5q-49 139 -49 287zM784 1686l25 155q8 51 57 51h148q47 0 39 -51l-25 -155q-6 -47 -53 -48h-148q-23 0 -34 13.5t-9 34.5z" />
<glyph unicode="&#x10b;" horiz-adv-x="1007" d="M141.5 345q-0.5 120 21 245t56.5 222t74 153.5t93 88t103.5 42t131 10.5t228 -17.5t249.5 -50.5l-29 -178q-195 14 -308.5 14t-139 -4t-55 -20t-48.5 -53q-43 -84 -72 -258q-18 -133 -18 -183.5t20.5 -82t52 -43t101.5 -11.5q154 0 326 14l57 5l-29 -181 q-117 -43 -221 -56t-187 -13t-108 2q-168 0 -247 145q-51 90 -51.5 210zM610 1274l25 156q6 51 57 51h148q45 0 39 -51l-25 -156q-6 -47 -53 -47h-148q-23 0 -35 12t-8 35z" />
<glyph unicode="&#x10c;" horiz-adv-x="1169" d="M182 514q0 148 27 305.5t70 286.5t116 223q139 186 428.5 186.5t522.5 -73.5l-35 -223q-256 33 -432 32h-13.5h-24t-34.5 -1t-46 -5t-47.5 -13t-43 -25.5t-43 -41t-39 -63.5t-35.5 -88q-39 -117 -61.5 -253t-22.5 -229.5t23 -152.5q45 -121 206 -127h117t348 18l-35 -225 q-109 -37 -219 -47t-195 -10h-118q-139 2 -232.5 65.5t-132.5 173.5q-49 139 -49 287zM670 1917h184l92 -135l144 135h210l-264 -279h-207z" />
<glyph unicode="&#x10d;" horiz-adv-x="1007" d="M141.5 345q-0.5 120 21 245t56.5 222t74 153.5t93 88t103.5 42t131 10.5t228 -17.5t249.5 -50.5l-29 -178q-195 14 -308.5 14t-139 -4t-55 -20t-48.5 -53q-43 -84 -72 -258q-18 -133 -18 -183.5t20.5 -82t52 -43t101.5 -11.5q154 0 326 14l57 5l-29 -181 q-117 -43 -221 -56t-187 -13t-108 2q-168 0 -247 145q-51 90 -51.5 210zM471 1503h186l93 -133l143 133h211l-264 -276h-209z" />
<glyph unicode="&#x10e;" horiz-adv-x="1341" d="M139 0l238 1499h608q123 0 212 -48t134 -124q84 -137 84 -366q0 -111 -22 -252q-59 -381 -207 -545t-420 -164h-627zM467 256h299q264 0 340 489q25 129 24 197q0 199 -73 260q-49 43 -144 43h-290zM641 1905h184l93 -133l143 133h213l-266 -277h-207z" />
<glyph unicode="&#x10f;" horiz-adv-x="1474" d="M143 369q0 174 56 387q49 182 135 260q98 88 270 88q74 0 163 -19.5t157 -52.5l92 576h284l-256 -1608h-235l-33 111q-172 -123 -338 -123q-295 0 -295 381zM434 391q0 -158 109 -158q150 0 264 66l84 539q-98 41 -248 41q-47 0 -80 -23q-74 -53 -114 -307 q-15 -95 -15 -158zM1384 1188l21 274l20 137h199l-22 -137l-64 -274h-154z" />
<glyph unicode="&#x110;" horiz-adv-x="1335" d="M135 696l23 135h133l104 668h617q209 0 307 -129q98 -127 111 -303q4 -55 4 -98q0 -129 -21 -260q-61 -369 -205.5 -539t-410.5 -170h-639l110 696h-133zM485 256h306q256 0 333 489q25 133 25 201q0 195 -66 256q-47 43 -135 43h-307l-63 -414h227l-21 -135h-229z" />
<glyph unicode="&#x111;" horiz-adv-x="1132" d="M143 365q0 168 47 362q39 162 101 240q71 94 180 123q59 14 133 14t163 -19.5t157 -52.5l32 207h-219l23 133h217l39 236h284l-36 -236h133l-23 -133h-133l-197 -1239h-235l-33 111q-172 -123 -338 -123q-127 0 -200 73q-94 94 -95 304zM434 391q0 -158 109 -158 q150 0 264 66l84 539q-98 41 -248 41q-47 0 -80 -23q-74 -53 -114 -307q-15 -95 -15 -158z" />
<glyph unicode="&#x112;" horiz-adv-x="1146" d="M158 240q0 33 4 67l141 893q28 180 141 246q53 31 105.5 42t87.5 11t290 -7t384 -26l-37 -237h-572q-98 0 -116 -80q-4 -14 -6 -35l-37 -229l579 -21l-39 -235l-583 -21l-39 -237q-10 -66 14 -84q8 -6 12.5 -10.5t15.5 -6.5t16 -4t18 -2h34h551l-39 -235 q-113 -14 -571 -33l-53 -2h-38t-79 12q-184 45 -184 234zM565 1622l27 164h598l-27 -164h-598z" />
<glyph unicode="&#x113;" horiz-adv-x="1079" d="M135 367q0 109 23.5 232.5t47 195t62.5 136t99 99.5q123 78 352 78q422 0 422 -285q0 -115 -42 -198.5t-100 -124.5q-137 -103 -354 -103q-145 0 -213 29q-8 -47 -8 -93t20 -73q35 -43 146 -45h65q166 0 379 35l-35 -205q-209 -63 -450 -63q-57 0 -117 4 q-297 14 -297 381zM432 1221l27 161h598l-27 -161h-598zM455 614q51 -8 91 -8t63.5 1t67.5 9.5t77 24.5q96 43 96 147q0 45 -32 68t-118 23q-129 0 -174 -64q-18 -25 -27.5 -39t-19.5 -51q-10 -43 -24 -111z" />
<glyph unicode="&#x116;" horiz-adv-x="1146" d="M158 240q0 33 4 67l141 893q28 180 141 246q53 31 105.5 42t87.5 11t290 -7t384 -26l-37 -237h-572q-98 0 -116 -80q-4 -14 -6 -35l-37 -229l579 -21l-39 -235l-583 -21l-39 -237q-10 -66 14 -84q8 -6 12.5 -10.5t15.5 -6.5t16 -4t18 -2h34h551l-39 -235 q-113 -14 -571 -33l-53 -2h-38t-79 12q-184 45 -184 234zM774 1679l25 156q6 51 57 51h148q45 0 38 -51l-24 -156q-8 -47 -53 -47h-148q-23 0 -35 13.5t-8 33.5z" />
<glyph unicode="&#x117;" horiz-adv-x="1079" d="M135 367q0 109 23.5 232.5t47 195t62.5 136t99 99.5q123 78 352 78q422 0 422 -285q0 -115 -42 -198.5t-100 -124.5q-137 -103 -354 -103q-145 0 -213 29q-8 -47 -8 -93t20 -73q35 -43 146 -45h65q166 0 379 35l-35 -205q-209 -63 -450 -63q-57 0 -117 4 q-297 14 -297 381zM455 614q51 -8 91 -8t63.5 1t67.5 9.5t77 24.5q96 43 96 147q0 45 -32 68t-118 23q-129 0 -174 -64q-18 -25 -27.5 -39t-19.5 -51q-10 -43 -24 -111zM623 1278l24 156q7 51 58 51h147q45 0 39 -51l-25 -156q-8 -47 -53 -47h-147q-23 0 -35.5 13t-7.5 34z " />
<glyph unicode="&#x118;" horiz-adv-x="1142" d="M162 240q0 33 6 67l139 893q31 180 142 246q53 31 106 42t87 11t289 -7t384 -26l-37 -237h-571q-98 0 -117 -80q-4 -14 -6 -35l-37 -229l579 -21l-39 -235l-583 -21l-39 -237q-10 -66 14 -84q8 -6 12.5 -10.5t15.5 -6.5t16 -4t18 -2h37h548l-39 -235q-113 -14 -571 -33 l-51 -2h-40t-79 12q-184 45 -184 234zM797 -178q0 53 43 109.5t133 97.5h114q-122 -82 -122 -154q0 -80 104 -72l-25 -155q-29 -8 -60.5 -8t-77.5 16t-77.5 64.5t-31.5 101.5z" />
<glyph unicode="&#x119;" horiz-adv-x="1079" d="M137 367q0 109 23.5 232.5t47 195t62.5 136t97 99.5q125 78 354 78q422 0 422 -285q0 -115 -43 -198.5t-99 -124.5q-137 -103 -354 -103q-145 0 -215 29q-6 -47 -6 -93t20 -73q35 -43 146 -45h65q166 0 379 35l-35 -205q-209 -63 -450 -63q-57 0 -117 4q-297 14 -297 381 zM457 614q51 -8 91 -8t63.5 1t67.5 9.5t77 24.5q96 43 96 147q0 45 -32 68t-120 23q-127 0 -172 -64q-18 -25 -27 -39t-20 -51q-10 -43 -24 -111zM711 -162q0 53 44 109.5t134 97.5h112q-122 -82 -122 -154q0 -80 104 -71l-25 -156q-29 -8 -59.5 -8t-77.5 16.5t-78.5 64.5 t-31.5 101z" />
<glyph unicode="&#x11a;" horiz-adv-x="1146" d="M158 240q0 33 4 67l141 893q28 180 141 246q53 31 105.5 42t87.5 11t290 -7t384 -26l-37 -237h-572q-98 0 -116 -80q-4 -14 -6 -35l-37 -229l579 -21l-39 -235l-583 -21l-39 -237q-10 -66 14 -84q8 -6 12.5 -10.5t15.5 -6.5t16 -4t18 -2h34h551l-39 -235 q-113 -14 -571 -33l-53 -2h-38t-79 12q-184 45 -184 234zM618 1909h185l92 -133l143 133h211l-264 -277h-207z" />
<glyph unicode="&#x11b;" horiz-adv-x="1079" d="M135 367q0 109 23.5 232.5t47 195t62.5 136t99 99.5q123 78 352 78q422 0 422 -285q0 -115 -42 -198.5t-100 -124.5q-137 -103 -354 -103q-145 0 -213 29q-8 -47 -8 -93t20 -73q35 -43 146 -45h65q166 0 379 35l-35 -205q-209 -63 -450 -63q-57 0 -117 4 q-297 14 -297 381zM455 614q51 -8 91 -8t63.5 1t67.5 9.5t77 24.5q96 43 96 147q0 45 -32 68t-118 23q-129 0 -174 -64q-18 -25 -27.5 -39t-19.5 -51q-10 -43 -24 -111zM475 1507h184l93 -133l143 133h211l-264 -276h-207z" />
<glyph unicode="&#x11c;" horiz-adv-x="1255" d="M182 512q0 127 29 283.5t60.5 263t79.5 198t112 146.5q135 113 368 113h61.5t139.5 -9q143 -10 348 -63l-34 -219q-283 37 -488 37q-145 0 -211 -82q-68 -84 -97.5 -200t-51 -241t-21.5 -215t19 -147q37 -121 186 -121q63 0 130 25.5t103 52.5l35 24l45 263h-211l29 182 q129 49 367 49q66 0 139 -4l-135 -848h-207l-64 109q-119 -121 -344 -121q-106 0 -186 45q-201 109 -201 479zM582 1638l264 277h213l153 -277h-184l-88 134l-147 -134h-211z" />
<glyph unicode="&#x11d;" horiz-adv-x="1138" d="M39 -508l31 191h460q80 0 135.5 49t69.5 145l31 199q-127 -78 -263 -78t-212 44t-107 124q-39 96 -39 212t21 228q41 264 163 382t314 118q211 0 363.5 -23.5t203.5 -38.5l-190 -1200q-35 -215 -158 -319q-104 -86 -266 -86q-33 0 -70 4zM430 390.5q0 -17.5 4 -54.5 t13.5 -52.5t23.5 -31.5q37 -39 172 -25q66 6 154 41l98 619h-219q-91 0 -146 -78q-20 -31 -46.5 -103.5t-40 -185t-13.5 -130zM446 1229l265 278h213l155 -278h-186l-86 135l-150 -135h-211z" />
<glyph unicode="&#x11e;" horiz-adv-x="1255" d="M182 512q0 127 29 283.5t60.5 263t79.5 198t112 146.5q135 113 368 113h61.5t139.5 -9q143 -10 348 -63l-34 -219q-283 37 -488 37q-145 0 -211 -82q-68 -84 -97.5 -200t-51 -241t-21.5 -215t19 -147q37 -121 186 -121q63 0 130 25.5t103 52.5l35 24l45 263h-211l29 182 q129 49 367 49q66 0 139 -4l-135 -848h-207l-64 109q-119 -121 -344 -121q-106 0 -186 45q-201 109 -201 479zM696 1843q0 12 2 25h117v-35t23.5 -52.5t74.5 -27.5h2q119 0 134 115h116q-12 -111 -77.5 -170.5t-170 -59.5t-163 58.5t-58.5 146.5z" />
<glyph unicode="&#x11f;" horiz-adv-x="1138" d="M39 -508l31 191h460q80 0 135.5 49t69.5 145l31 199q-127 -78 -263 -78t-212 44t-107 124q-39 96 -39 212t21 228q41 264 163 382t314 118q211 0 363.5 -23.5t203.5 -38.5l-190 -1200q-35 -215 -158 -319q-104 -86 -266 -86q-33 0 -70 4zM430 390.5q0 -17.5 4 -54.5 t13.5 -52.5t23.5 -31.5q37 -39 172 -25q66 6 154 41l98 619h-219q-91 0 -146 -78q-20 -31 -46.5 -103.5t-40 -185t-13.5 -130zM565 1436q0 12 2 24h117q-8 -74 41 -102q24 -12 59 -12q119 0 134 114h116q-12 -113 -77.5 -172t-170 -59t-163 59.5t-58.5 147.5z" />
<glyph unicode="&#x120;" horiz-adv-x="1255" d="M182 512q0 127 29 283.5t60.5 263t79.5 198t112 146.5q135 113 368 113h61.5t139.5 -9q143 -10 348 -63l-34 -219q-283 37 -488 37q-145 0 -211 -82q-68 -84 -97.5 -200t-51 -241t-21.5 -215t19 -147q37 -121 186 -121q63 0 130 25.5t103 52.5l35 24l45 263h-211l29 182 q129 49 367 49q66 0 139 -4l-135 -848h-207l-64 109q-119 -121 -344 -121q-106 0 -186 45q-201 109 -201 479zM791 1686l24 155q8 51 57 51h148q47 0 39 -51l-25 -155q-6 -47 -53 -48h-147q-23 0 -34.5 13.5t-8.5 34.5z" />
<glyph unicode="&#x121;" horiz-adv-x="1138" d="M39 -508l31 191h460q80 0 135.5 49t69.5 145l31 199q-127 -78 -263 -78t-212 44t-107 124q-39 96 -39 212t21 228q41 264 163 382t314 118q211 0 363.5 -23.5t203.5 -38.5l-190 -1200q-35 -215 -158 -319q-104 -86 -266 -86q-33 0 -70 4zM430 390.5q0 -17.5 4 -54.5 t13.5 -52.5t23.5 -31.5q37 -39 172 -25q66 6 154 41l98 619h-219q-91 0 -146 -78q-20 -31 -46.5 -103.5t-40 -185t-13.5 -130zM657 1276l25 156q8 51 57 51h148q47 0 39 -51l-25 -156q-6 -47 -53 -47h-148q-23 0 -34 13t-9 34z" />
<glyph unicode="&#x122;" horiz-adv-x="1255" d="M182 512q0 127 29 283.5t60.5 263t79.5 198t112 146.5q135 113 368 113h61.5t139.5 -9q143 -10 348 -63l-34 -219q-283 37 -488 37q-145 0 -211 -82q-68 -84 -97.5 -200t-51 -241t-21.5 -215t19 -147q37 -121 186 -121q63 0 130 25.5t103 52.5l35 24l45 263h-211l29 182 q129 49 367 49q66 0 139 -4l-135 -848h-207l-64 109q-119 -121 -344 -121q-106 0 -186 45q-201 109 -201 479zM506 -555l14 88q27 0 41 9t17.5 17.5t7.5 20.5l4 27h-21q-20 0 -31.5 12t-7.5 33l25 162q8 49 55 49h154q37 0 37 -37v-12l-37 -228q-8 -57 -39 -92 q-49 -59 -154 -59q-25 0 -41 4z" />
<glyph unicode="&#x123;" horiz-adv-x="1234" d="M66 -508l30 191h461q109 0 166 86q29 45 39 108l33 199q-129 -78 -265.5 -78t-212 44t-106.5 124q-39 96 -39 212t21 228q41 264 162.5 382t314.5 118q211 0 363.5 -23.5t203.5 -38.5l-190 -1200q-35 -215 -158 -319q-102 -86 -264 -86q-35 0 -72 4zM459 390.5 q0 -17.5 3 -54.5t13 -52.5t25 -31.5q35 -39 170 -25q66 6 153 41l101 619h-222q-90 0 -145 -78q-20 -31 -47 -103.5t-39 -185t-12 -130zM682 1266v14l35 225q8 57 38.5 93t66.5 46.5t58.5 11.5t39 1t32.5 -4l25 -4l-16 -90q-39 2 -48 -13q-14 -16 -16 -35l-4 -26h20 q45 0 39 -45l-24 -160q-10 -49 -56 -49h-155q-35 0 -35 35z" />
<glyph unicode="&#x124;" horiz-adv-x="1304" d="M129 0l238 1499h286l-102 -643h514l102 643h287l-237 -1499h-287l94 594h-514l-94 -594h-287zM614 1632l267 277h213l153 -277h-184l-88 133l-148 -133h-213z" />
<glyph unicode="&#x125;" horiz-adv-x="1126" d="M45 0l254 1604h285l-101 -633q70 47 108 67.5t110.5 44t150.5 23.5q274 0 274 -270q0 -51 -10 -111l-115 -725h-286l114 729q4 23 5 43q0 104 -101 105q-82 0 -142.5 -23t-135.5 -72l-123 -782h-287zM131 1726l264 277h213l154 -277h-184l-89 134l-147 -134h-211z" />
<glyph unicode="&#x126;" horiz-adv-x="1353" d="M131 0l168 1057h-131l20 135h129l52 307h286l-51 -307h514l51 307h287l-51 -307h127l-19 -135h-127l-167 -1057h-287l94 594h-514l-94 -594h-287zM553 858h514l33 199h-514z" />
<glyph unicode="&#x127;" horiz-adv-x="1148" d="M123 0l196 1237h-139l21 135h139l37 232h289l-37 -232h229l-20 -135h-230l-43 -266q18 10 65.5 37.5t70 40t62.5 29t78 22.5t61 6h22q274 0 274 -270q0 -51 -10 -111l-115 -725h-287l115 729q4 25 4 45q0 102 -98 103q-133 0 -270 -95l-125 -782h-289z" />
<glyph unicode="&#x128;" horiz-adv-x="524" d="M133 0l238 1499h286l-237 -1499h-287zM201 1745q154 143 270 143q51 -2 111.5 -36.5t93.5 -34.5h27.5t85 25.5t92.5 51.5l30 -122q-49 -43 -78.5 -67t-81 -48.5t-73.5 -24.5q-74 0 -139.5 36t-98 36t-58.5 -5t-54 -18q-37 -16 -95 -49z" />
<glyph unicode="&#x129;" horiz-adv-x="462" d="M57 1337q154 141 271 142q51 0 111 -35t93 -35h28t85.5 25.5t91.5 50.5l29 -121q-47 -43 -77 -66.5t-81 -48t-73 -24.5q-76 0 -140.5 35.5t-102.5 35.5t-75 -12q-47 -14 -127 -59zM78 0l172 1087h287l-172 -1087h-287z" />
<glyph unicode="&#x12a;" horiz-adv-x="524" d="M90 0l238 1499h286l-237 -1499h-287zM182 1628l25 162h598l-25 -162h-598z" />
<glyph unicode="&#x12b;" horiz-adv-x="462" d="M78 0l172 1087h287l-172 -1087h-287zM109 1225l26 161h598l-26 -161h-598z" />
<glyph unicode="&#x12e;" horiz-adv-x="524" d="M55 -207q0 53 43 109.5t133 99.5h113q-121 -84 -121 -156q0 -80 103 -69l-25 -158q-29 -6 -59.5 -6t-76.5 15.5t-78 63.5t-32 101zM133 0l238 1499h286l-237 -1499h-287z" />
<glyph unicode="&#x12f;" horiz-adv-x="462" d="M-16 -198.5q0 53.5 44 109.5t132 97h114q-122 -81 -122 -153q0 -80 104 -72l-25 -156q-29 -6 -60.5 -6t-77.5 15.5t-77.5 63.5t-31.5 101.5zM88 0l172 1087h287l-172 -1087h-287zM274 1247l27 183q8 51 57 51h215q39 0 39 -37v-14l-28 -183q-6 -47 -54 -47h-215 q-23 0 -34 13.5t-7 33.5z" />
<glyph unicode="&#x130;" horiz-adv-x="524" d="M133 0l238 1499h286l-237 -1499h-287zM420 1679l26 156q6 51 58 51h147q39 0 39 -41v-10l-26 -156q-6 -47 -54 -47h-147q-20 0 -32.5 13.5t-10.5 33.5z" />
<glyph unicode="&#x131;" horiz-adv-x="462" d="M78 0l172 1087h287l-172 -1087h-287z" />
<glyph unicode="&#x134;" horiz-adv-x="729" d="M61 47l39 223q63 -4 100.5 -4h57.5q137 6 166 197l164 1036h286l-184 -1161q-35 -229 -155 -301q-82 -47 -222 -47q-172 0 -252 57zM436 1632l264 277h213l156 -277h-186l-86 133l-150 -133h-211z" />
<glyph unicode="&#x135;" horiz-adv-x="489" d="M25 -553l260 1640h290l-174 -1095q-53 -354 -161 -545h-215zM117 1219l262 282h213l156 -282h-189l-94 131l-146 -131h-202z" />
<glyph unicode="&#x136;" horiz-adv-x="1269" d="M125 0l237 1499h275l-98 -627h112l473 627h349l-572 -772l334 -727h-328l-268 618h-139l-99 -618h-276zM459 -545l14 88q27 0 41 9.5t17.5 17.5t7.5 20l4 27h-21q-20 0 -31.5 12.5t-7.5 34.5l25 160q8 49 55 49h154q37 0 37 -37v-12l-37 -227q-8 -57 -39 -93 q-49 -59 -154 -59q-25 0 -41 4z" />
<glyph unicode="&#x137;" horiz-adv-x="1085" d="M94 -4l254 1601h287l-146 -909q127 47 248 158.5t158 236.5h305q-72 -256 -293 -428q-53 -43 -106 -69l334 -590h-320l-276 500l-78 -2l-80 -498h-287zM410 -545l14 88q25 0 40 9.5t18 17.5t5 20l5 27h-21q-20 0 -30.5 12.5t-8.5 34.5l27 160q8 49 53 49h156q37 0 37 -37 q0 -6 -3 -12l-34 -227q-14 -84 -66 -117q-51 -33 -90 -33q-66 0 -102 8z" />
<glyph unicode="&#x138;" horiz-adv-x="1163" d="M94 0l172 1087h287l-70 -440h113l371 440h338l-455 -567l266 -520h-319l-215 430h-131l-70 -430h-287z" />
<glyph unicode="&#x139;" horiz-adv-x="1083" d="M59 225q0 31 7 66l192 1208h287l-180 -1128q-12 -78 28 -95q31 -12 84 -12h514l-43 -264h-616q-137 0 -205 62.5t-68 162.5zM319 1622l232 283h250l-295 -283h-187z" />
<glyph unicode="&#x13a;" horiz-adv-x="628" d="M117 274q0 51 8 113l192 1217h287l-184 -1172q-6 -66 -9 -101.5t9 -59t24.5 -33t81 -35t76.5 -25.5l-29 -178h-184q-272 0 -272 274zM387 1726l231 285h252l-297 -285h-186z" />
<glyph unicode="&#x13b;" horiz-adv-x="1083" d="M164 225q0 31 4 66l194 1208h285l-178 -1128q-12 -78 29 -95q29 -12 82 -12h514l-41 -264h-619q-135 0 -202.5 62.5t-67.5 162.5zM420 -545l14 88q39 0 49 13q12 18 17 34l4 27h-21q-20 0 -31.5 12.5t-7.5 34.5l25 160q8 49 53 49h156q37 0 37 -37v-12l-37 -227 q-8 -57 -39 -93q-49 -59 -154 -59q-25 0 -41 4z" />
<glyph unicode="&#x13c;" horiz-adv-x="628" d="M141 274q0 51 11 113l192 1217h287l-187 -1172q-6 -66 -9 -101.5t9.5 -59t24.5 -33t80.5 -35t77.5 -25.5l-27 -178h-184q-274 0 -275 274zM154 -545l14 88q25 0 40 9.5t18 17.5t5 20l5 27h-21q-20 0 -30.5 12.5t-6.5 34.5l25 160q8 49 53 49h156q37 0 37 -37q0 -6 -3 -12 l-34 -227q-14 -84 -66 -117q-51 -33 -90 -33q-66 0 -102 8z" />
<glyph unicode="&#x13d;" horiz-adv-x="1083" d="M164 225q0 31 4 66l194 1208h285l-178 -1128q-12 -78 29 -95q29 -12 82 -12h514l-41 -264h-619q-135 0 -202.5 62.5t-67.5 162.5zM741 1169l21 275l20 137h197l-21 -137l-63 -275h-154z" />
<glyph unicode="&#x13e;" horiz-adv-x="747" d="M141 272q0 51 11 115l192 1217h287l-187 -1172q-6 -66 -9 -101.5t9.5 -59t24.5 -33t82 -35t78 -25.5l-29 -178h-194q-264 0 -265 272zM721 1190l20 274l23 138h197l-23 -138l-64 -274h-153z" />
<glyph unicode="&#x141;" horiz-adv-x="1085" d="M61 625l23 147l172 68l104 659h285l-84 -536l246 98l-25 -146l-243 -98l-72 -446q-12 -78 29 -95q31 -12 82 -12h516l-43 -264h-617q-135 0 -203.5 62.5t-68.5 162.5q0 31 6 68l65 401z" />
<glyph unicode="&#x142;" horiz-adv-x="704" d="M113 717l24 147l160 66l109 674h288l-86 -551l252 102l-24 -147l-252 -103l-78 -473q-20 -123 -5 -153.5t28.5 -40t82 -35t76.5 -25.5l-26 -178h-185q-150 0 -223 92q-51 63 -51 182q0 51 8 113l63 395z" />
<glyph unicode="&#x143;" horiz-adv-x="1370" d="M125 0l237 1499h287l426 -975l154 975h287l-238 -1499h-283l-430 963l-151 -963h-289zM866 1632l232 285h250l-295 -285h-187z" />
<glyph unicode="&#x144;" horiz-adv-x="1126" d="M94 0l172 1087h230l39 -116q74 49 108.5 68.5t107 43t150.5 23.5q274 0 275 -270q0 -51 -11 -111l-114 -725h-287l115 729q4 23 4 43q0 104 -101 105q-123 0 -223 -62q-25 -14 -55 -33l-123 -782h-287zM674 1229l231 282h250l-295 -282h-186z" />
<glyph unicode="&#x145;" horiz-adv-x="1370" d="M125 0l237 1499h287l426 -975l154 975h287l-238 -1499h-283l-430 963l-151 -963h-289zM530 -545l15 88q51 0 61 35q0 4 2 12l4 27h-20q-20 0 -30.5 12.5t-8.5 34.5l27 160q8 49 53 49h155q37 0 37 -37q0 -6 -2 -12l-35 -227q-10 -57 -38 -93q-49 -59 -156 -59 q-23 0 -41 4z" />
<glyph unicode="&#x146;" horiz-adv-x="1126" d="M94 0l172 1087h230l39 -116q74 49 108.5 68.5t107 43t150.5 23.5q274 0 275 -270q0 -51 -11 -111l-114 -725h-287l115 729q4 23 4 43q0 104 -101 105q-123 0 -223 -62q-25 -14 -55 -33l-123 -782h-287zM385 -545l14 88q51 0 62 35q0 4 2 12l4 27h-21q-20 0 -30 12.5 t-6 34.5l24 160q8 49 53 49h156q37 0 37 -37q0 -6 -2 -12l-35 -227q-10 -57 -39 -93q-49 -59 -155 -59q-23 0 -41 4z" />
<glyph unicode="&#x147;" horiz-adv-x="1370" d="M125 0l237 1499h287l426 -975l154 975h287l-238 -1499h-283l-430 963l-151 -963h-289zM688 1909h184l93 -133l143 133h211l-264 -277h-207z" />
<glyph unicode="&#x148;" horiz-adv-x="1126" d="M94 0l172 1087h230l39 -116q74 49 108.5 68.5t107 43t150.5 23.5q274 0 275 -270q0 -51 -11 -111l-114 -725h-287l115 729q4 23 4 43q0 104 -101 105q-123 0 -223 -62q-25 -14 -55 -33l-123 -782h-287zM500 1507h184l92 -135l144 135h210l-264 -278h-207z" />
<glyph unicode="&#x14a;" horiz-adv-x="1370" d="M125 0l237 1499h287l426 -969l154 969h287l-263 -1649q-33 -207 -157 -290q-58 -39 -128.5 -62.5t-118.5 -23.5h-85h-88l33 207q12 2 38.5 5t38 5t35 6t35.5 10t30.5 15.5t29 22.5t22.5 30q23 31 31 94l22 137l-426 952l-151 -958h-289z" />
<glyph unicode="&#x14b;" d="M94 0l172 1087h230l39 -116q18 12 64 38.5t69.5 38t64.5 29.5q72 29 168 29q274 0 275 -270q0 -51 -11 -111l-114 -725l-25 -139q-16 -92 -58 -165t-91.5 -115t-110.5 -73q-96 -45 -205 -57l-49 156q88 33 132 65.5t64.5 75.5t30.5 105l140 876q4 23 4 43q0 104 -101 105 q-123 0 -223 -62q-25 -14 -55 -33l-123 -782h-287z" />
<glyph unicode="&#x14c;" horiz-adv-x="1363" d="M186.5 441.5q-0.5 54.5 0.5 119t21.5 193.5t45.5 224t51.5 167t63.5 127t70.5 94t81.5 65.5t89 42t98.5 23.5t104.5 10t121 2t137.5 -8t126 -29.5t105.5 -58.5q98 -84 124 -242q14 -72 14.5 -128t-1.5 -121.5t-23.5 -208t-53.5 -251t-69 -184t-88 -128t-101 -84 t-120 -48.5q-113 -27 -237.5 -26.5t-187 7.5t-126 27.5t-106.5 55.5q-100 82 -127 233q-14 72 -14.5 126.5zM475 473q0 -121 51 -166q63 -51 211 -51q137 0 217 53q119 82 174 430q25 152 25 242t-12.5 141.5t-50 79t-79.5 35.5t-106.5 8t-98.5 -3t-73 -13t-64.5 -31.5 t-52.5 -58.5q-45 -59 -93 -262t-48 -404zM655 1628l25 162h598l-25 -162h-598z" />
<glyph unicode="&#x14d;" d="M143 381q0 80 20.5 212t62.5 236.5t114 166t165 84t236 22.5q270 0 365 -146q61 -94 61 -260q0 -88 -20.5 -219t-59 -227t-106.5 -155.5t-162 -82t-239 -22.5q-274 0 -371 135q-66 92 -66 256zM430 383q0 -53 8 -85t33 -50q41 -29 121 -28t115.5 8.5t68.5 39t51.5 92 t36.5 170.5q20 123 20.5 182.5t-18 96.5t-54.5 49t-103.5 12t-106.5 -11t-69.5 -49t-49 -102.5t-36 -168t-17.5 -156.5zM463 1225l26 161h598l-26 -161h-598z" />
<glyph unicode="&#x150;" horiz-adv-x="1363" d="M186.5 441.5q-0.5 54.5 0.5 119t21.5 193.5t45.5 224t51.5 167t63.5 127t70.5 94t81.5 65.5t89 42t98.5 23.5t104.5 10t121 2t137.5 -8t126 -29.5t105.5 -58.5q98 -84 124 -242q14 -72 14.5 -128t-1.5 -121.5t-23.5 -208t-53.5 -251t-69 -184t-88 -128t-101 -84 t-120 -48.5q-113 -27 -237.5 -26.5t-187 7.5t-126 27.5t-106.5 55.5q-100 82 -127 233q-14 72 -14.5 126.5zM475 473q0 -121 51 -166q63 -51 211 -51q137 0 217 53q119 82 174 430q25 152 25 242t-12.5 141.5t-50 79t-79.5 35.5t-106.5 8t-98.5 -3t-73 -13t-64.5 -31.5 t-52.5 -58.5q-45 -59 -93 -262t-48 -404zM694 1632l230 285h252l-295 -285h-187zM1014 1632l229 285h252l-295 -285h-186z" />
<glyph unicode="&#x151;" d="M143 381q0 80 20.5 212t62.5 236.5t114 166t165 84t236 22.5q270 0 365 -146q61 -94 61 -260q0 -88 -20.5 -219t-59 -227t-106.5 -155.5t-162 -82t-239 -22.5q-274 0 -371 135q-66 92 -66 256zM430 383q0 -53 8 -85t33 -50q41 -29 121 -28t115.5 8.5t68.5 39t51.5 92 t36.5 170.5q20 123 20.5 182.5t-18 96.5t-54.5 49t-103.5 12t-106.5 -11t-69.5 -49t-49 -102.5t-36 -168t-17.5 -156.5zM510 1225l229 282h252l-295 -282h-186zM829 1225l230 282h252l-295 -282h-187z" />
<glyph unicode="&#x152;" horiz-adv-x="2125" d="M154 441.5q0 54.5 1 119t21.5 193.5t45 224t51 167t62.5 127t70.5 94t82 65.5t88 42t98.5 23.5q90 12 221 12t225 -24.5t154 -89.5q80 104 248 104q16 0 276 -7t389 -26l-37 -237h-571q-68 0 -92.5 -30t-32.5 -85l-35 -229l578 -21l-35 -235l-586 -21l-39 -237 q-10 -66 15 -84q8 -6 12 -10.5t14.5 -6.5t15.5 -4t17 -2h37h549l-37 -235q-115 -14 -594 -33l-29 -2h-20q-150 0 -219 96q-80 -57 -181.5 -77.5t-215 -20.5t-175 7t-125 27.5t-106.5 55.5q-100 82 -129 233q-12 72 -12 126.5zM440 473q0 -121 54 -166q61 -51 208 -51 q139 0 218 53q121 82 176 430q25 152 24.5 242t-12.5 141.5t-51 79t-81 35.5t-105.5 8t-98.5 -3t-74 -13t-63.5 -31.5t-50.5 -58.5q-45 -59 -94.5 -262t-49.5 -404z" />
<glyph unicode="&#x153;" horiz-adv-x="1787" d="M131 383q0 80 20.5 212t61.5 236.5t113.5 165t165 83t237.5 22.5q225 0 320 -109q119 115 385 115q422 0 421 -285q0 -115 -43 -198.5t-100 -124.5q-137 -103 -352 -103q-147 0 -215 29q-8 -47 -8 -93t22 -75q33 -43 144 -43q242 0 444 35l-33 -205q-211 -63 -452 -63 q-57 0 -115 4q-141 4 -205 98q-117 -94 -383 -94t-362 137q-66 92 -66 256zM418 383q0 -53 7 -85t34 -50q39 -27 119.5 -27t115.5 7.5t68 39t52.5 92t37.5 170.5q20 123 20 182.5t-18 96.5t-54 49t-115 12t-124 -24.5t-74.5 -94t-49 -192.5t-19.5 -176zM1167 614 q51 -8 91 -8t65 1t68 9.5t77 24.5q94 43 95 147q0 45 -31 68t-119 23q-104 0 -149 -41q-16 -16 -27.5 -25.5t-22 -34t-15.5 -36t-13 -42.5q-9 -33 -19 -86z" />
<glyph unicode="&#x154;" horiz-adv-x="1234" d="M104 0l238 1499h635q180 0 274 -121q68 -88 68 -248q0 -174 -53 -311q-31 -80 -63 -120t-76 -66.5t-67.5 -31.5t-55.5 -11l210 -590h-323l-174 573l-232 19l-94 -592h-287zM522 815h312q84 0 129 51q63 68 63 240q0 66 -16 94q-27 45 -103 45h-315zM750 1626l231 285h250 l-295 -285h-186z" />
<glyph unicode="&#x155;" horiz-adv-x="854" d="M166 0l172 1087h242l22 -137q178 148 338 148q86 0 119 -13l-45 -276q-57 6 -155.5 6t-166 -25.5t-129.5 -95.5l-110 -694h-287zM627 1225l231 284h250l-295 -284h-186z" />
<glyph unicode="&#x156;" horiz-adv-x="1234" d="M119 0l237 1499h633q182 0 275 -121q70 -88 69 -248q0 -174 -55 -311q-31 -80 -61.5 -120t-75.5 -66.5t-68.5 -31.5t-56.5 -11l213 -590h-324l-176 573l-229 19l-94 -592h-287zM467 -545l14 88q27 0 41.5 9.5t17.5 17.5t7 20l4 27h-21q-20 0 -31.5 12.5t-6.5 34.5l24 160 q8 49 55 49h154q37 0 37 -37v-12l-37 -227q-8 -57 -39 -93q-49 -59 -154 -59q-25 0 -40 4zM537 815h311q84 0 129 51q63 68 63 240q0 66 -18 94q-25 45 -100 45h-318z" />
<glyph unicode="&#x157;" horiz-adv-x="854" d="M96 -545l15 88q25 0 40 9.5t18 17.5t5 20l6 27h-20q-20 0 -31.5 12.5t-7.5 34.5l24 160q8 49 54 49h155q37 0 37 -37v-12l-37 -227q-8 -57 -39 -93q-49 -59 -155 -59q-23 0 -41 4zM150 0l172 1087h241l23 -137q180 148 338 148q86 0 118 -13l-45 -276q-57 6 -124.5 6 t-98.5 -3t-62.5 -11t-58.5 -21q-57 -29 -106 -86l-111 -694h-286z" />
<glyph unicode="&#x158;" horiz-adv-x="1234" d="M119 0l237 1499h633q182 0 275 -121q70 -88 69 -248q0 -174 -55 -311q-31 -80 -61.5 -120t-75.5 -66.5t-68.5 -31.5t-56.5 -11l213 -590h-324l-176 573l-229 19l-94 -592h-287zM537 815h311q84 0 129 51q63 68 63 240q0 66 -18 94q-25 45 -100 45h-318zM598 1909h184 l92 -133l144 133h211l-264 -277h-207z" />
<glyph unicode="&#x159;" horiz-adv-x="854" d="M94 0l172 1087h242l22 -137q178 148 336 148q88 0 119 -13l-43 -276q-59 6 -156.5 6t-166 -25.5t-130.5 -95.5l-108 -694h-287zM375 1503h186l92 -135l144 135h211l-265 -278h-206z" />
<glyph unicode="&#x15a;" horiz-adv-x="1185" d="M133 45l37 225q178 -22 506 -22q184 0 205 129l12 80q4 29 4 47t-2 38.5t-30.5 38t-86.5 17.5h-207q-174 0 -252 78q-76 78 -86 166q-4 45 -4 82t4 75l23 156q37 250 219 320q98 37 248 36h2h41q313 0 516 -59l-35 -225q-291 20 -394 20h-114q-92 0 -138 -24.5 t-60 -120.5l-13 -74q-4 -29 -4 -64.5t27 -57t119 -21.5h211q139 0 211 -68q72 -66 86 -153q10 -66 10 -106t-6 -71l-13 -135q-27 -311 -317 -356q-76 -12 -174 -12q-356 0 -545 61zM741 1636l230 283h252l-295 -283h-187z" />
<glyph unicode="&#x15b;" horiz-adv-x="1042" d="M131 45l29 178h512q72 0 84 70l10 55q6 37 -7.5 53.5t-56.5 16.5h-243q-199 0 -256 141q-18 47 -18.5 92t5.5 82l17 98q14 90 51 148q76 123 279 123q483 0 569 -55l-29 -181h-491q-49 0 -69.5 -20.5t-27.5 -54.5l-8 -54q-8 -51 13 -61q6 -4 10 -6t12 -2h12h13.5h13.5 h250q147 0 211 -88q47 -66 47 -154q0 -31 -6 -61l-19 -125q-25 -160 -123 -211q-82 -43 -188 -43q-516 0 -596 59zM621 1229l231 282h250l-295 -282h-186z" />
<glyph unicode="&#x15c;" horiz-adv-x="1185" d="M145 45l35 225q180 -22 506 -22q186 0 207 129l12 80q4 29 4 47t-2 38.5t-30.5 38t-85.5 17.5h-207q-176 0 -252 78t-86 166q-6 45 -6 82t6 75l20 156q39 250 221 320q98 37 246 36h2h43q313 0 516 -59l-37 -225q-289 20 -393 20h-114q-92 0 -137.5 -24.5t-61.5 -120.5 l-10 -74q-6 -29 -6 -64.5t27.5 -57t117.5 -21.5h213q137 0 209 -68q72 -66 86 -153q10 -66 10 -106t-6 -71l-12 -135q-27 -311 -318 -356q-74 -12 -172 -12q-356 0 -545 61zM522 1636l266 277h213l154 -277h-184l-88 133l-148 -133h-213z" />
<glyph unicode="&#x15d;" horiz-adv-x="1042" d="M115 45l28 178h512q72 0 84 70l11 55q6 49 -14.5 59.5t-49.5 10.5h-244q-201 0 -256 141q-18 47 -18 92t6 82l16 98q20 135 98.5 203t231.5 68q483 0 570 -55l-29 -181h-492q-66 0 -84 -37q-8 -16 -12 -38l-8 -54q-6 -20 -1 -34.5t7 -21.5t14 -11q16 -4 33 -3t21 1h249 q147 0 211 -88q47 -66 48 -154q0 -31 -7 -61l-18 -125q-25 -160 -123 -211q-82 -43 -188 -43q-516 0 -596 59zM389 1229l266 276h213l154 -276h-184l-88 133l-148 -133h-213z" />
<glyph unicode="&#x15e;" horiz-adv-x="1185" d="M145 45l35 225q180 -22 506 -22q186 0 207 129l12 80q4 29 4 47t-2 38.5t-30.5 38t-85.5 17.5h-207q-176 0 -252 78t-86 166q-6 45 -6 82t6 75l20 156q39 250 221 320q98 37 246 36h2h43q313 0 516 -59l-37 -225q-289 20 -393 20h-114q-92 0 -137.5 -24.5t-61.5 -120.5 l-10 -74q-6 -29 -6 -64.5t27.5 -57t117.5 -21.5h213q137 0 209 -68q72 -66 86 -153q10 -66 10 -106t-6 -71l-12 -135q-27 -311 -318 -356q-74 -12 -172 -12q-356 0 -545 61zM369 -381l20 123l94 31q55 20 70 69q6 20 14 66h193q-25 -160 -84.5 -224.5t-190.5 -64.5h-116z " />
<glyph unicode="&#x15f;" horiz-adv-x="1042" d="M115 45l28 178h512q72 0 84 70l11 55q6 49 -14.5 59.5t-49.5 10.5h-244q-201 0 -256 141q-18 47 -18 92t6 82l16 98q20 135 98.5 203t231.5 68q483 0 570 -55l-29 -181h-492q-66 0 -84 -37q-8 -16 -12 -38l-8 -54q-6 -20 -1 -34.5t7 -21.5t14 -11q16 -4 33 -3t21 1h249 q147 0 211 -88q47 -66 48 -154q0 -31 -7 -61l-18 -125q-25 -160 -123 -211q-82 -43 -188 -43q-516 0 -596 59zM279 -369l20 123l94 31q43 16 57.5 44t24.5 91h195q-16 -109 -47 -170q-60 -119 -230 -119h-114z" />
<glyph unicode="&#x160;" horiz-adv-x="1185" d="M145 45l35 225q180 -22 506 -22q186 0 207 129l12 80q4 29 4 47t-2 38.5t-30.5 38t-85.5 17.5h-207q-176 0 -252 78t-86 166q-6 45 -6 82t6 75l20 156q39 250 221 320q98 37 246 36h2h43q313 0 516 -59l-37 -225q-289 20 -393 20h-114q-92 0 -137.5 -24.5t-61.5 -120.5 l-10 -74q-6 -29 -6 -64.5t27.5 -57t117.5 -21.5h213q137 0 209 -68q72 -66 86 -153q10 -66 10 -106t-6 -71l-12 -135q-27 -311 -318 -356q-74 -12 -172 -12q-356 0 -545 61zM582 1913h184l92 -133l143 133h211l-264 -277h-207z" />
<glyph unicode="&#x161;" horiz-adv-x="1042" d="M115 45l28 178h512q72 0 84 70l11 55q6 49 -14.5 59.5t-49.5 10.5h-244q-201 0 -256 141q-18 47 -18 92t6 82l16 98q20 135 98.5 203t231.5 68q483 0 570 -55l-29 -181h-492q-66 0 -84 -37q-8 -16 -12 -38l-8 -54q-6 -20 -1 -34.5t7 -21.5t14 -11q16 -4 33 -3t21 1h249 q147 0 211 -88q47 -66 48 -154q0 -31 -7 -61l-18 -125q-25 -160 -123 -211q-82 -43 -188 -43q-516 0 -596 59zM428 1505h186l91 -133l145 133h211l-266 -276h-207z" />
<glyph unicode="&#x162;" horiz-adv-x="1204" d="M205 1235l43 264h1108l-43 -264h-416l-195 -1235h-286l194 1235h-405zM252 -375l20 123l95 31q43 18 57 44.5t25 92.5h194q-25 -160 -85 -225.5t-191 -65.5h-115z" />
<glyph unicode="&#x163;" horiz-adv-x="770" d="M129 870l27 160l184 60l96 303h240l-49 -303h243l-34 -220h-244l-70 -436q-18 -125 -4 -155.5t27.5 -41t82 -35t77.5 -24.5l-27 -180h-199q-141 0 -211 96q-49 66 -49 180q0 51 10 115l76 481h-176zM139 -377l21 123l94 31q43 16 58.5 43.5t23.5 91.5h194 q-16 -106 -47 -168q-59 -121 -229 -121h-115z" />
<glyph unicode="&#x164;" horiz-adv-x="1204" d="M250 1235l43 264h1108l-43 -264h-418l-195 -1235h-286l194 1235h-403zM596 1909h184l92 -133l144 133h211l-264 -277h-207z" />
<glyph unicode="&#x165;" horiz-adv-x="808" d="M143 870l25 160l184 60l97 303h239l-49 -303h244l-35 -220h-244l-67 -436q-20 -125 -6 -155.5t27 -40t82 -35t77 -25.5l-27 -178h-198q-137 0 -209 94q-49 63 -50 180q0 53 9 115l75 481h-174zM788 1229l23 274l20 137h199l-22 -137l-66 -274h-154z" />
<glyph unicode="&#x166;" horiz-adv-x="1226" d="M250 1235l43 264h1108l-43 -264h-418l-53 -348h200l-22 -133h-201l-119 -754h-286l119 754h-201l22 133h201l53 348h-403z" />
<glyph unicode="&#x167;" horiz-adv-x="759" d="M133 526l23 133h143l33 211h-174l24 160l185 60l96 303h237l-47 -303h244l-35 -220h-244l-32 -211h170l-23 -133h-168l-14 -92q-23 -141 6 -180q16 -20 53 -35q113 -41 123 -41l-28 -178h-199q-137 0 -209 94q-49 63 -49 180q0 53 8 115l23 137h-146z" />
<glyph unicode="&#x168;" horiz-adv-x="1337" d="M207 455q0 98 18 217l133 827h287l-135 -860q-16 -94 -16 -174t24 -127q45 -84 205 -84t231.5 89t104.5 296l137 860h289l-131 -895q-39 -246 -129 -379q-90 -135 -224 -186q-131 -49 -315 -49q-227 0 -338 86q-141 111 -141 379zM606 1745q154 143 271 143 q51 -2 111 -36.5t93 -34.5h28t85 25.5t92 51.5l31 -122q-49 -43 -79 -67t-81 -48.5t-74 -24.5q-74 0 -138 36t-102 36t-77 -12q-47 -14 -127 -60z" />
<glyph unicode="&#x169;" horiz-adv-x="1124" d="M125 252q0 51 10 113l115 722h287l-115 -729q-6 -27 -6 -59.5t21.5 -59t79.5 -26.5t104 10q80 16 176 84l123 780h286l-174 -1087h-229l-37 115q-100 -68 -177 -100.5t-190 -32.5q-274 0 -274 270zM414 1337q154 141 270 142q41 0 78 -17.5t67.5 -35t47 -17.5h40t85 25.5 t92.5 50.5l30 -121q-49 -43 -78.5 -66.5t-81 -48t-73.5 -24.5q-74 0 -138.5 35.5t-102.5 35.5t-77 -12q-47 -14 -127 -59z" />
<glyph unicode="&#x16a;" horiz-adv-x="1337" d="M207 455q0 98 18 217l133 827h287l-135 -860q-16 -94 -16 -174t24 -127q45 -84 205 -84t231.5 89t104.5 296l137 860h289l-131 -895q-39 -246 -129 -379q-90 -135 -224 -186q-131 -49 -315 -49q-227 0 -338 86q-141 111 -141 379zM643 1632l27 162h598l-27 -162h-598z " />
<glyph unicode="&#x16b;" horiz-adv-x="1124" d="M125 252q0 51 10 113l115 722h287l-115 -729q-6 -27 -6 -59.5t21.5 -59t79.5 -26.5t104 10q80 16 176 84l123 780h286l-174 -1087h-229l-37 115q-100 -68 -177 -100.5t-190 -32.5q-274 0 -274 270zM451 1225l26 161h598l-26 -161h-598z" />
<glyph unicode="&#x16c;" horiz-adv-x="1337" d="M207 455q0 98 18 217l133 827h287l-135 -860q-16 -94 -16 -174t24 -127q45 -84 205 -84t231.5 89t104.5 296l137 860h289l-131 -895q-39 -246 -129 -379q-90 -135 -224 -186q-131 -49 -315 -49q-227 0 -338 86q-141 111 -141 379zM743 1837q0 12 2 27h117q-8 -74 41 -103 q25 -14 62 -14q117 0 131 117h116q-12 -113 -77.5 -172.5t-169 -59.5t-163 59.5t-59.5 145.5z" />
<glyph unicode="&#x16d;" horiz-adv-x="1124" d="M125 252q0 51 10 113l115 722h287l-115 -729q-6 -27 -6 -59.5t21.5 -59t79.5 -26.5t104 10q80 16 176 84l123 780h286l-174 -1087h-229l-37 115q-100 -68 -177 -100.5t-190 -32.5q-274 0 -274 270zM551 1430q0 12 2 26h117v-36.5t24.5 -52.5t73.5 -28h4q117 0 131 117 h119q-18 -152 -129 -207q-53 -25 -138 -24.5t-144.5 58.5t-59.5 147z" />
<glyph unicode="&#x16e;" horiz-adv-x="1337" d="M207 455q0 98 18 217l133 827h287l-135 -860q-16 -94 -16 -174t24 -127q45 -84 205 -84t231.5 89t104.5 296l137 860h289l-131 -895q-39 -246 -129 -379q-90 -135 -224 -186q-131 -49 -315 -49q-227 0 -338 86q-141 111 -141 379zM766 1819q0 100 69.5 163.5t156.5 63.5 t139.5 -56.5t52.5 -129.5q0 -100 -68.5 -164t-155 -64t-140.5 56.5t-54 130.5zM887 1835q0 -37 22.5 -60.5t59.5 -23.5t63.5 25.5t29.5 53.5t-2 44t-16.5 27.5t-27 18.5t-43 7t-57 -27.5t-29.5 -64.5z" />
<glyph unicode="&#x16f;" horiz-adv-x="1124" d="M125 252q0 51 10 113l115 722h287l-115 -729q-6 -27 -6 -59.5t21.5 -59t79.5 -26.5t104 10q80 16 176 84l123 780h286l-174 -1087h-229l-37 115q-100 -68 -177 -100.5t-190 -32.5q-274 0 -274 270zM571 1411q0 98 70.5 162.5t142.5 64.5q135 0 187 -102q18 -39 18 -68 q0 -117 -67.5 -180t-154.5 -63t-141.5 56t-54.5 130zM692 1427.5q0 -36.5 22.5 -60.5t59.5 -24t64.5 26t29.5 55.5t-7 50t-28.5 33t-49 12.5t-60.5 -28t-31 -64.5z" />
<glyph unicode="&#x170;" horiz-adv-x="1337" d="M207 455q0 98 18 217l133 827h287l-135 -860q-16 -94 -16 -174t24 -127q45 -84 205 -84t231.5 89t104.5 296l137 860h289l-131 -895q-39 -246 -129 -379q-90 -135 -224 -186q-131 -49 -315 -49q-227 0 -338 86q-141 111 -141 379zM690 1632l230 285h251l-294 -285h-187z M1010 1632l229 285h252l-295 -285h-186z" />
<glyph unicode="&#x171;" horiz-adv-x="1124" d="M125 252q0 51 10 113l115 722h287l-115 -729q-6 -27 -6 -59.5t21.5 -59t79.5 -26.5t104 10q80 16 176 84l123 780h286l-174 -1087h-229l-37 115q-100 -68 -177 -100.5t-190 -32.5q-274 0 -274 270zM498 1225l229 282h252l-295 -282h-186zM817 1225l230 282h251l-294 -282 h-187z" />
<glyph unicode="&#x172;" horiz-adv-x="1337" d="M207 455q0 98 18 217l133 827h287l-135 -860q-16 -94 -16 -174t24 -127q45 -84 205 -84t231.5 89t104.5 296l137 860h289l-131 -895q-39 -246 -129 -379q-90 -135 -224 -186q-131 -49 -315 -49q-227 0 -338 86q-141 111 -141 379zM465 -205q0 53 44 109.5t134 97.5h113 q-123 -82 -123 -154q0 -80 104 -71l-24 -158q-29 -6 -59.5 -6t-78 16.5t-79 64.5t-31.5 101z" />
<glyph unicode="&#x173;" horiz-adv-x="1161" d="M125 252q0 51 10 113l115 722h287l-115 -729q-6 -27 -6 -59.5t21.5 -59t79.5 -26.5t104 10q80 16 176 84l123 780h286l-174 -1087h-229l-37 115q-100 -68 -177 -100.5t-190 -32.5q-274 0 -274 270zM684 -210q0 52 44 108.5t132 99.5h115q-123 -82 -123 -154 q0 -82 104 -71l-24 -158q-29 -6 -60.5 -6t-77.5 16.5t-78 64.5t-32 100z" />
<glyph unicode="&#x174;" horiz-adv-x="2068" d="M285 1499h299l153 -1108l492 1108h307l-193 -414l105 -700l496 1114h303l-686 -1499h-324l-94 616l-287 -616h-340zM924 1632l264 277h213l155 -277h-186l-86 133l-149 -133h-211z" />
<glyph unicode="&#x175;" horiz-adv-x="1695" d="M172 1087h299l117 -763l260 534q53 111 65 229h258q10 -39 10.5 -101t-36.5 -150l-33 -78l80 -428l268 530q53 111 66 230h260q8 -39 8 -82q0 -115 -65 -238l-414 -770h-318l-77 418l-203 -418h-338zM688 1221l264 278h213l154 -278h-184l-88 133l-148 -133h-211z" />
<glyph unicode="&#x176;" horiz-adv-x="1343" d="M285 1499h309l172 -717l428 717h328l-658 -1034l-73 -465h-287l74 465zM608 1632l264 277h213l154 -277h-184l-88 133l-148 -133h-211z" />
<glyph unicode="&#x177;" horiz-adv-x="1153" d="M172 1087h297l68 -761q8 -74 104 -80l277 616q37 88 51 228h266q8 -41 8 -84q0 -111 -57 -238l-350 -768q-168 -369 -410 -506q-113 -61 -238 -84v201q125 68 206 164t147 225q-119 0 -194 68.5t-89 207.5zM408 1221l264 278h213l153 -278h-184l-88 133l-148 -133h-210z " />
<glyph unicode="&#x178;" horiz-adv-x="1343" d="M246 1499h309l172 -717l428 717h328l-658 -1034l-73 -465h-287l74 465zM520 1714q0 76 46 115t96.5 39t76 -31t25.5 -55q0 -74 -45 -114t-95.5 -40t-77 32t-26.5 54zM1042 1714q0 76 46.5 115t96.5 39t75.5 -31t25.5 -55q0 -74 -45 -114t-95 -40t-77 32t-27 54z" />
<glyph unicode="&#x179;" d="M152 0l41 264l835 971h-682l43 264h1032l-43 -264l-813 -971h660l-41 -264h-1032zM831 1628l230 283h252l-295 -283h-187z" />
<glyph unicode="&#x17a;" horiz-adv-x="968" d="M121 2l35 240l581 604h-512l37 241h879l-37 -241l-557 -602h459l-37 -242h-848zM629 1219l231 284h250l-295 -284h-186z" />
<glyph unicode="&#x17b;" d="M55 0l43 264l834 971h-682l43 264h1032l-43 -264l-813 -971h661l-43 -264h-1032zM715 1679l24 156q9 51 58 51h147q47 0 39 -51l-25 -156q-6 -47 -53 -47h-147q-20 0 -32.5 13.5t-10.5 33.5z" />
<glyph unicode="&#x17c;" horiz-adv-x="968" d="M78 2l35 240l579 604h-510l37 241h879l-37 -241l-557 -602h459l-37 -242h-848zM565 1272l25 155q8 52 57 52h148q47 0 39 -52l-25 -155q-6 -47 -53 -47h-148q-23 0 -34 12t-9 35z" />
<glyph unicode="&#x17d;" d="M55 0l43 264l834 971h-682l43 264h1032l-43 -264l-813 -971h661l-43 -264h-1032zM557 1909h186l93 -133l143 133h211l-264 -277h-209z" />
<glyph unicode="&#x17e;" horiz-adv-x="968" d="M78 2l35 240l579 604h-510l37 241h879l-37 -241l-557 -602h459l-37 -242h-848zM408 1501h186l90 -133l145 133h211l-264 -276h-209z" />
<glyph unicode="&#x192;" horiz-adv-x="1077" d="M-27 -367l50 179h129q137 0 208 264q10 41 25 104l141 588h-178l60 219h178l8 49q141 588 444 602q16 2 34 2t45.5 -3t49 -6t48 -11t38 -13t27.5 -13l16 -7l-47 -178h-125q-113 0 -176 -162q-31 -78 -63 -211l-11 -49h238l-59 -219h-238l-139 -588q-82 -334 -205 -473 q-111 -127 -278 -127q-94 0 -149.5 21.5t-70.5 31.5z" />
<glyph unicode="&#x2c6;" horiz-adv-x="649" d="M102 1087l265 277h213l155 -277h-186l-86 134l-150 -134h-211z" />
<glyph unicode="&#x2da;" horiz-adv-x="565" d="M266 1274q0 100 70 163.5t156 63.5t139 -56t53 -130q0 -70 -35 -121q-70 -106 -188 -107q-88 0 -141.5 56.5t-53.5 130.5zM387 1291q0 -36 21.5 -59.5t58.5 -23.5t65 25q31 29 31 65.5t-21.5 60t-58.5 23.5t-66.5 -27.5t-29.5 -63.5z" />
<glyph unicode="&#x2dc;" horiz-adv-x="862" d="M250 1200q154 143 270 143q49 -2 110.5 -36.5t94.5 -34.5h26.5t86 25.5t92.5 52.5l28 -123q-47 -43 -76.5 -66.5t-80.5 -48.5t-74 -25q-76 0 -140.5 36t-94 36t-54 -4t-40 -9t-40.5 -18q-31 -14 -77 -41z" />
<glyph unicode="&#x3a9;" horiz-adv-x="1560" d="M113 0l39 242l231 20q-170 131 -170 402q0 324 162 555q61 90 145 153.5t210 102t274.5 38.5t259 -38.5t176.5 -106.5q152 -156 151 -397q0 -86 -12 -174q-31 -188 -94.5 -311.5t-198.5 -225.5l215 -20l-37 -240h-512l41 262q158 106 219 238q51 111 71 235.5t20 184 t-15.5 121t-49.5 106.5t-100.5 73.5t-158.5 28.5t-168 -28.5t-126 -74.5t-87 -110q-66 -111 -86 -242.5t-20 -211.5q0 -162 159 -320l-43 -262h-495z" />
<glyph unicode="&#x3c0;" horiz-adv-x="1318" d="M160 823l43 264h1161l-43 -264h-186l-70 -438q-4 -35 -4 -72t21.5 -64.5t99.5 -27.5h143l-27 -168q-106 -63 -255.5 -63t-223.5 94q-51 68 -51 184q0 47 8 105l72 450h-248l-129 -823h-287l129 823h-153z" />
<glyph unicode="&#x1e02;" horiz-adv-x="1226" d="M125 0l237 1499h609q111 0 190.5 -36t116.5 -95q59 -96 59 -213q0 -41 -8 -82q-16 -121 -85.5 -199.5t-170.5 -95.5q86 -14 141 -116q39 -76 39 -179q0 -37 -4 -77q-33 -231 -149.5 -318.5t-362.5 -87.5h-612zM453 254h313q166 0 197 199q4 30 4 57q0 154 -136 154h-315z M557 905h303q76 0 123 45q66 59 65.5 177t-135.5 118h-303zM739 1679l27 156q6 51 57 51h148q45 0 39 -51l-27 -156q-6 -47 -53 -47h-148q-20 0 -32.5 13.5t-10.5 33.5z" />
<glyph unicode="&#x1e03;" horiz-adv-x="1138" d="M82 0l254 1608h285l-91 -576q166 72 336 72q250 0 287 -256q8 -59 8 -100q0 -111 -22 -254q-43 -264 -139.5 -385t-284.5 -121q-102 0 -190.5 37.5t-137.5 85.5l-70 -111h-235zM381 1786l25 156q6 51 57 51h147q45 0 39 -51l-24 -156q-8 -47 -54 -47h-147q-23 0 -35 13 t-8 34zM416 299q93 -66 243 -66q78 0 122 70t66.5 213t22.5 201.5t-6 87.5q-20 74 -102 74q-147 0 -260 -41z" />
<glyph unicode="&#x1e0a;" horiz-adv-x="1341" d="M125 0l237 1499h607q125 0 214 -48t134 -124q82 -137 82 -366q0 -111 -21 -252q-61 -381 -207.5 -545t-418.5 -164h-627zM451 256h301q262 0 340 489q25 129 24 197q0 199 -74 260q-49 43 -145 43h-289zM745 1663l25 156q6 51 57 51h148q45 0 39 -51l-25 -156 q-6 -47 -53 -47h-148q-23 0 -35 12t-8 35z" />
<glyph unicode="&#x1e0b;" horiz-adv-x="1126" d="M141 410q0 84 19.5 190.5t48.5 193.5t80 160q98 150 315 150q174 0 320 -72l92 576h284l-256 -1608h-235l-35 111q-170 -123 -336 -123q-94 0 -162 49q-135 98 -135 373zM434 393q0 -160 109 -160q150 0 264 66l84 539q-98 41 -248 41q-47 0 -80 -23q-74 -53 -114 -307 q-15 -93 -15 -156zM1061 1778l24 155q8 51 58 52h147q41 0 41 -39q0 -6 -2 -13l-24 -155q-6 -47 -54 -47h-147q-20 0 -32.5 13t-10.5 34z" />
<glyph unicode="&#x1e1e;" horiz-adv-x="1148" d="M119 0l186 1176q27 176 128.5 249.5t236.5 73.5q6 0 260 -7t385 -26l-37 -237h-571q-74 0 -99 -37q-18 -29 -26 -78l-37 -233l579 -21l-34 -237l-588 -19l-96 -604h-287zM760 1679l24 156q9 51 58 51h147q47 0 39 -51l-24 -156q-6 -47 -54 -47h-147q-23 0 -35 13.5 t-8 33.5z" />
<glyph unicode="&#x1e1f;" horiz-adv-x="827" d="M168 868l29 183l180 36l22 146q33 209 122 293t256 84t267 -49l-26 -172l-184 2h-5q-82 0 -107.5 -42t-45.5 -184l-12 -78h262l-35 -219h-264l-142 -868h-286l141 868h-172zM678 1780l24 155q7 52 58 52h147q47 0 39 -52l-24 -155q-6 -47 -54 -47h-147q-23 0 -35 12 t-8 35z" />
<glyph unicode="&#x1e40;" horiz-adv-x="1693" d="M100 0l371 1499h391l90 -1024l408 1024h403l-96 -1499h-285l72 1001l-405 -1001h-326l-92 1001l-242 -1001h-289zM1022 1679l27 156q6 51 57 51h147q45 0 39 -51l-26 -156q-6 -47 -54 -47h-147q-20 0 -32.5 13.5t-10.5 33.5z" />
<glyph unicode="&#x1e41;" horiz-adv-x="1792" d="M94 0l172 1087h230l39 -116q8 4 36.5 22.5t48 30.5t55.5 30.5t64 26.5q74 23 148 23t125 -21q104 -37 137 -129q66 45 119 73t135 52.5t164 24.5q272 0 272 -281q0 -49 -8 -102l-115 -721h-286l114 725q4 20 4 39q0 109 -100 108q-88 0 -151.5 -18t-127.5 -68 q-2 -2 -6 -31.5t-4 -35.5l-115 -719h-286l114 725q2 21 2 39q0 109 -100 108q-82 0 -138 -20.5t-132 -71.5l-123 -780h-287zM971 1274l24 156q9 51 58 51h147q47 0 39 -51l-25 -156q-6 -47 -53 -47h-147q-23 0 -34 12t-9 35z" />
<glyph unicode="&#x1e56;" horiz-adv-x="1222" d="M119 0l237 1499h627q156 0 262 -100q90 -86 90 -271q0 -168 -59 -323q-53 -139 -158 -207q-49 -31 -96 -37q-94 -10 -129 -10t-77 3t-175 18.5t-141 19.5l-94 -592h-287zM532 807h318q74 0 120 50t66 177q6 41 6 74q0 137 -122 137h-318zM737 1679l25 156q6 51 57 51h148 q47 0 39 -51l-25 -156q-6 -47 -53 -47h-148q-23 0 -35 13.5t-8 33.5z" />
<glyph unicode="&#x1e57;" horiz-adv-x="1138" d="M6 -553l260 1597q222 54 568 54q109 0 181 -47t107 -127q45 -109 45 -222.5t-14 -199.5q-39 -266 -150.5 -393t-310 -127t-301.5 77l-98 -612h-287zM422 250q78 -45 172 -45q29 0 64.5 4t65.5 18.5t56 51.5q53 68 86 274q14 76 15 135q0 190 -129 191h-226zM614 1280 l25 156q6 51 57 51h148q45 0 39 -51l-27 -156q-6 -47 -53 -47h-148q-20 0 -32.5 13.5t-8.5 33.5z" />
<glyph unicode="&#x1e60;" horiz-adv-x="1185" d="M145 45l35 225q180 -22 506 -22q186 0 207 129l12 80q4 29 4 47t-2 38.5t-30.5 38t-85.5 17.5h-207q-176 0 -252 78t-86 166q-6 45 -6 82t6 75l20 156q39 250 221 320q98 37 246 36h2h43q313 0 516 -59l-37 -225q-289 20 -393 20h-114q-92 0 -137.5 -24.5t-61.5 -120.5 l-10 -74q-6 -29 -6 -64.5t27.5 -57t117.5 -21.5h213q137 0 209 -68q72 -66 86 -153q10 -66 10 -106t-6 -71l-12 -135q-27 -311 -318 -356q-74 -12 -172 -12q-356 0 -545 61zM729 1692l25 155q6 51 57 51h147q47 0 39 -51l-24 -155q-6 -47 -53 -47h-148q-23 0 -35 13t-8 34z " />
<glyph unicode="&#x1e61;" horiz-adv-x="1042" d="M115 45l28 178h512q72 0 84 70l11 55q6 49 -14.5 59.5t-49.5 10.5h-244q-201 0 -256 141q-18 47 -18 92t6 82l16 98q20 135 98.5 203t231.5 68q483 0 570 -55l-29 -181h-492q-66 0 -84 -37q-8 -16 -12 -38l-8 -54q-6 -20 -1 -34.5t7 -21.5t14 -11q16 -4 33 -3t21 1h249 q147 0 211 -88q47 -66 48 -154q0 -31 -7 -61l-18 -125q-25 -160 -123 -211q-82 -43 -188 -43q-516 0 -596 59zM561 1272l25 155q6 52 57 52h148q45 0 38 -52l-24 -155q-8 -47 -53 -47h-148q-23 0 -35 13t-8 34z" />
<glyph unicode="&#x1e6a;" horiz-adv-x="1204" d="M250 1235l43 264h1108l-43 -264h-418l-195 -1235h-286l194 1235h-403zM752 1679l26 156q7 51 58 51h147q45 0 39 -51l-27 -156q-6 -47 -53 -47h-147q-20 0 -32.5 13.5t-10.5 33.5z" />
<glyph unicode="&#x1e6b;" horiz-adv-x="770" d="M158 870l24 160l185 60l96 303h239l-49 -303h244l-35 -220h-244l-67 -436q-20 -125 -6 -155.5t27.5 -41t82 -35t78.5 -24.5l-28 -180h-197q-143 0 -213 96q-47 66 -47 180q0 51 8 115l76 481h-174zM500 1563l24 155q9 51 58 51h147q47 0 39 -51l-25 -155q-6 -47 -53 -47 h-147q-23 0 -35 13t-8 34z" />
<glyph unicode="&#x1e80;" horiz-adv-x="2068" d="M285 1499h299l153 -1108l492 1108h307l-193 -414l105 -700l496 1114h303l-686 -1499h-324l-94 616l-287 -616h-340zM979 1917h244l157 -285h-186z" />
<glyph unicode="&#x1e81;" horiz-adv-x="1695" d="M172 1087h299l117 -763l260 534q53 111 65 229h258q10 -39 10.5 -101t-36.5 -150l-33 -78l80 -428l268 530q53 111 66 230h260q8 -39 8 -82q0 -115 -65 -238l-414 -770h-318l-77 418l-203 -418h-338zM713 1503h243l158 -282h-186z" />
<glyph unicode="&#x1e82;" horiz-adv-x="2068" d="M285 1499h299l153 -1108l492 1108h307l-193 -414l105 -700l496 1114h303l-686 -1499h-324l-94 616l-287 -616h-340zM1194 1632l231 285h250l-295 -285h-186z" />
<glyph unicode="&#x1e83;" horiz-adv-x="1695" d="M172 1087h299l117 -763l260 534q53 111 65 229h258q10 -39 10.5 -101t-36.5 -150l-33 -78l80 -428l268 530q53 111 66 230h260q8 -39 8 -82q0 -115 -65 -238l-414 -770h-318l-77 418l-203 -418h-338zM940 1214l229 285h252l-295 -285h-186z" />
<glyph unicode="&#x1e84;" horiz-adv-x="2068" d="M285 1499h299l153 -1108l492 1108h307l-193 -414l105 -700l496 1114h303l-686 -1499h-324l-94 616l-287 -616h-340zM936 1720q0 76 45 114t95 38t77 -31t27 -54.5t-4.5 -45t-24.5 -47.5q-43 -61 -102.5 -61.5t-86 31.5t-26.5 56zM1458 1720q0 76 45 114t95.5 38t77 -31 t26.5 -53q0 -76 -46 -116t-95.5 -40t-76 32t-26.5 56z" />
<glyph unicode="&#x1e85;" horiz-adv-x="1695" d="M172 1087h299l117 -763l260 534q53 111 65 229h258q10 -39 10.5 -101t-36.5 -150l-33 -78l80 -428l268 530q53 111 66 230h260q8 -39 8 -82q0 -115 -65 -238l-414 -770h-318l-77 418l-203 -418h-338zM664 1309q0 76 45 114.5t95 38.5t76.5 -31.5t26.5 -55t-4 -45 t-24 -48.5q-43 -61 -102.5 -61t-86 31.5t-26.5 56.5zM1186 1309q0 76 45 114.5t95 38.5t77 -31.5t27 -55t-4.5 -45t-24.5 -48.5q-43 -61 -102.5 -61t-86 31.5t-26.5 56.5z" />
<glyph unicode="&#x1ef2;" horiz-adv-x="1343" d="M285 1499h309l172 -717l428 717h328l-658 -1034l-73 -465h-287l74 465zM616 1917h244l158 -285h-187z" />
<glyph unicode="&#x1ef3;" horiz-adv-x="1153" d="M172 1087h297l68 -761q8 -74 104 -80l277 616q37 88 51 228h266q8 -41 8 -84q0 -111 -57 -238l-350 -768q-168 -369 -410 -506q-113 -61 -238 -84v201q125 68 206 164t147 225q-119 0 -194 68.5t-89 207.5zM438 1503h242l160 -282h-187z" />
<glyph unicode="&#x2000;" horiz-adv-x="1023" />
<glyph unicode="&#x2001;" horiz-adv-x="2046" />
<glyph unicode="&#x2002;" horiz-adv-x="1023" />
<glyph unicode="&#x2003;" horiz-adv-x="2046" />
<glyph unicode="&#x2004;" horiz-adv-x="682" />
<glyph unicode="&#x2005;" horiz-adv-x="511" />
<glyph unicode="&#x2006;" horiz-adv-x="341" />
<glyph unicode="&#x2007;" horiz-adv-x="341" />
<glyph unicode="&#x2008;" horiz-adv-x="255" />
<glyph unicode="&#x2009;" horiz-adv-x="409" />
<glyph unicode="&#x200a;" horiz-adv-x="113" />
<glyph unicode="&#x2010;" horiz-adv-x="722" d="M125 473l37 242h643l-37 -242h-643z" />
<glyph unicode="&#x2011;" horiz-adv-x="722" d="M125 473l37 242h643l-37 -242h-643z" />
<glyph unicode="&#x2012;" horiz-adv-x="722" d="M125 473l37 242h643l-37 -242h-643z" />
<glyph unicode="&#x2013;" horiz-adv-x="927" d="M121 467l41 244h968l-40 -244h-969z" />
<glyph unicode="&#x2014;" horiz-adv-x="1507" d="M125 471l39 244h1425l-39 -244h-1425z" />
<glyph unicode="&#x2018;" horiz-adv-x="528" d="M289 1032q0 6 2 17l43 270q10 70 45 114t78 58t73.5 18t47 4t30.5 -2l27 -4l-19 -114h-2q-63 0 -75 -66l-7 -43h25q23 0 36 -13.5t9 -39.5l-29 -182q-10 -59 -65 -60h-176q-43 0 -43 43z" />
<glyph unicode="&#x2019;" horiz-adv-x="528" d="M293 995l18 115q29 0 47.5 13.5t22.5 24.5t6 28l8 43h-24q-23 0 -36 13t-9 40l30 182q8 59 62 59h176q45 0 45 -43q0 -6 -2 -16l-43 -270q-12 -70 -47 -114t-76 -58q-63 -23 -100 -23t-52 2z" />
<glyph unicode="&#x201a;" horiz-adv-x="528" d="M100 -223l17 112q31 0 48 14.5t21 26t9 27.5l6 43h-23q-25 0 -37 13.5t-8 39.5l29 183q10 59 63 59h176q43 0 43 -43v-16l-45 -271q-10 -70 -45 -114t-78 -58q-63 -23 -100 -22.5t-49 2.5z" />
<glyph unicode="&#x201c;" horiz-adv-x="866" d="M279 1030q0 6 2 17l41 270q12 70 46.5 114t76.5 58t73 18t47.5 4t30.5 -2l27 -6l-17 -112h-2q-63 0 -76 -66l-6 -43h23q25 0 37 -13.5t8 -39.5l-29 -182q-8 -59 -63 -60h-176q-43 0 -43 43zM641 1030q0 6 2 17l41 270q12 70 47 114t77 58t72.5 18t47 4t30.5 -2l27 -6 l-16 -112h-2q-63 0 -76 -66l-6 -43h22q25 0 37 -13.5t8 -39.5l-28 -182q-8 -59 -64 -60h-176q-43 0 -43 43z" />
<glyph unicode="&#x201d;" horiz-adv-x="868" d="M281 993l18 115q29 0 47.5 13.5t22.5 24.5t6 28l8 43h-25q-23 0 -36 13t-7 40l29 182q8 59 62 59h178q43 0 43 -43q0 -8 -2 -16l-43 -270q-10 -70 -46 -114t-77 -58q-63 -23 -100 -23t-50 2zM643 993l19 115q29 0 47 13.5t22 24.5t6 28l8 43h-24q-23 0 -36 13t-7 40 l29 182q8 59 61 59h178q43 0 43 -43q0 -8 -2 -16l-43 -270q-10 -70 -46 -114t-77 -58q-63 -23 -100 -23t-49 2z" />
<glyph unicode="&#x201e;" horiz-adv-x="866" d="M88 -223l18 114q29 0 46.5 13.5t21.5 25t8 29.5l6 41h-22q-25 0 -37 14.5t-8 38.5l29 185q10 57 63 57h176q45 0 45 -43q0 -6 -2 -14l-45 -273q-10 -68 -45 -113t-78 -59q-63 -23 -100 -22.5t-49 2.5zM451 -223l18 114q29 0 46 13.5t21.5 25t8.5 29.5l6 41h-23 q-25 0 -37 14.5t-8 38.5l29 185q10 57 63 57h177q45 0 45 -43q0 -6 -2 -14l-45 -273q-10 -68 -45 -113t-78 -59q-63 -23 -100.5 -22.5t-49.5 2.5z" />
<glyph unicode="&#x2020;" horiz-adv-x="1062" d="M213 928l35 223l276 25l86 401h254l-43 -401l266 -25l-34 -223l-275 -27l-190 -1048h-254l147 1048z" />
<glyph unicode="&#x2021;" horiz-adv-x="1001" d="M178 299l35 223l281 31l51 348l-269 27l35 223l279 25l84 401h252l-39 -401l264 -25l-35 -223l-274 -27l-62 -350l273 -29l-35 -223l-291 -27l-76 -419h-252l58 417z" />
<glyph unicode="&#x2022;" horiz-adv-x="628" d="M236 645v14l36 242q6 33 26.5 52.5t53.5 19.5h232q59 0 59 -55v-17l-37 -242q-10 -66 -84 -65h-231q-55 0 -55 51z" />
<glyph unicode="&#x2026;" horiz-adv-x="1603" d="M272 47l31 184q6 52 57 52h177q43 0 43 -37v-15l-31 -184q-8 -47 -57 -47h-177q-23 0 -34 13.5t-9 33.5zM829 47l31 184q7 52 58 52h176q43 0 43 -37v-15l-31 -184q-8 -47 -57 -47h-177q-23 0 -34 13.5t-9 33.5zM1386 47l31 184q7 52 58 52h176q43 0 43 -37v-15l-31 -184 q-8 -47 -57 -47h-176q-23 0 -34.5 13.5t-9.5 33.5z" />
<glyph unicode="&#x202f;" horiz-adv-x="409" />
<glyph unicode="&#x2030;" horiz-adv-x="2740" d="M150 934q0 31 4 65l41 250q20 133 89.5 191.5t227.5 58.5h207q236 0 235 -211q0 -35 -6 -74l-41 -249q-20 -137 -89.5 -193.5t-225.5 -56.5h-207q-133 0 -192 76q-43 57 -43 143zM356 975q0 -21 11 -35q18 -25 75 -25h152q82 0 102 43q10 20 17 58l28 182q8 66 -4 80 q-20 20 -80 20h-149q-76 0 -100 -38q-12 -20 -19 -62l-29 -182q-4 -20 -4 -41zM358 0l1153 1499h205l-1145 -1499h-213zM1130 223q0 31 7 64l39 250q14 90 47 143q65 108 270 108h207q236 0 235 -213q0 -33 -6 -71l-39 -250q-23 -137 -92 -193.5t-225 -56.5h-209 q-131 0 -190 76q-43 55 -44 143zM1339 271.5q0 -13.5 4 -29.5q6 -37 82 -37h150q63 0 87 22.5t34 77.5l26 182q16 76 -22 93q-18 8 -60 8h-149q-59 0 -85 -21.5t-36 -79.5l-27 -182q-4 -20 -4 -33.5zM1985 223q0 31 4 64l41 250q20 135 89.5 193t227.5 58h207 q233 0 233 -213q0 -33 -4 -71l-41 -250q-20 -137 -91 -193.5t-226 -56.5h-207q-131 0 -190 76q-43 55 -43 143zM2193 264.5q0 -22.5 13.5 -41t70.5 -18.5h152q80 0 102 43q10 18 17 57l28 182q4 23 4 45.5t-13 39t-75 16.5h-149q-59 0 -85 -21.5t-34 -79.5l-29 -182 q-2 -18 -2 -40.5z" />
<glyph unicode="&#x2039;" horiz-adv-x="589" d="M41 725l487 416l136 -158l-314 -264l228 -266l-172 -154z" />
<glyph unicode="&#x203a;" horiz-adv-x="733" d="M193 459l313 268l-225 264l176 150l358 -420l-491 -422z" />
<glyph unicode="&#x2044;" horiz-adv-x="659" d="M-141 0l979 1542h206l-976 -1542h-209z" />
<glyph unicode="&#x205f;" horiz-adv-x="511" />
<glyph unicode="&#x20ac;" horiz-adv-x="1441" d="M115 512l22 139l162 17l20 139l-153 16l20 131l160 21q20 129 43 184t47.5 100.5t54 79t73.5 68.5t96.5 57.5t122 37t139 14.5t159.5 -9q233 -20 377 -65l-33 -209q-297 29 -409.5 29t-157.5 -7.5t-76.5 -18.5t-55.5 -34.5t-38 -43t-26 -54.5q-14 -49 -29 -129l477 -17 l-23 -139l-481 -12l-20 -139l475 -17l-23 -139q-285 -6 -413 -12l-68 -4q-8 -35 -8 -56.5t3 -46t9 -53.5t26.5 -48.5t40 -31.5t48.5 -18q53 -12 129 -13q158 0 397 35l80 10l-35 -204q-205 -82 -555 -82q-117 0 -172 20.5t-93 40t-63.5 46t-52.5 65.5q-39 55 -51 196v50 t10 90z" />
<glyph unicode="&#x2122;" horiz-adv-x="1286" d="M78 1335l24 164h576l-25 -164h-194l-86 -551h-187l86 551h-194zM600 784l191 715h190l53 -412l170 412h203l-27 -715h-186l23 377l-138 -377h-166l-34 377l-91 -377h-188z" />
<glyph unicode="&#x2202;" horiz-adv-x="1292" d="M154 410q0 37 6 77q35 228 185.5 346.5t369.5 118.5t299 -116q8 82 8 127t-3 96t-34 100q-55 92 -178 92q-225 0 -412 -104l-14 209q137 82 238.5 121t222.5 39q180 0 295 -101q174 -154 174 -469q0 -94 -17 -198q-119 -758 -682 -758q-213 0 -348 141q-111 115 -110 279 zM442 428q0 -74 53.5 -126t138.5 -52t145.5 45t97.5 111q70 127 86 231q-88 55 -224.5 55t-206.5 -61q-90 -76 -90 -203z" />
<glyph unicode="&#x2206;" horiz-adv-x="1464" d="M31 0l874 1499h156l375 -1499h-1405zM471 254h674l-207 817z" />
<glyph unicode="&#x220f;" horiz-adv-x="1333" d="M184 0l195 1235h-154l43 264h1272l-43 -264h-156l-194 -1235h-287l195 1235h-389l-195 -1235h-287z" />
<glyph unicode="&#x2211;" horiz-adv-x="1171" d="M-2 -410l41 271l549 692l-330 682l43 264h1077l-43 -264h-733l336 -696l-518 -678h696l-41 -271h-1077z" />
<glyph unicode="&#x221a;" horiz-adv-x="1349" d="M106 492l44 264h331l113 -365l676 1247h307l-877 -1638h-278l-174 492h-142z" />
<glyph unicode="&#x221e;" horiz-adv-x="1368" d="M90 657q0 31 4 64q41 332 406 332q207 0 317 -195q147 195 389 195q98 0 165 -34t93 -87q43 -86 43 -180q0 -39 -8 -76q-43 -330 -405 -330q-109 0 -191 43t-139 154q-76 -106 -164 -151.5t-195.5 -45.5t-173.5 33q-141 74 -141 278zM311 666q0 -113 123 -113 q49 0 94 23.5t73 50t65 71.5q-31 61 -79 104.5t-100.5 43.5t-84 -11.5t-50.5 -31.5q-41 -51 -41 -137zM924 696q23 -43 43 -70.5t58 -50t85 -22.5q150 0 172 145q4 23 4 53.5t-20.5 62.5t-108.5 32q-115 0 -233 -150z" />
<glyph unicode="&#x222b;" horiz-adv-x="907" d="M-27 -367l29 179h129q72 0 111 59q43 63 57 127q23 86 39 182l135 856q94 602 414 602q135 0 217 -41q18 -8 22 -10l-28 -178h-125q-100 0 -148 -119q-41 -94 -65 -254l-135 -856q-72 -446 -248 -555q-70 -43 -160 -43q-174 0 -244 51z" />
<glyph unicode="&#x2248;" horiz-adv-x="1042" d="M162 532q53 43 93 70t104.5 51.5t126 24.5t146.5 -38t124 -38t56 2t30.5 4t31 7.5t26.5 8.5t28.5 12t29 13t33 15.5t33.5 17.5l29 -127q-145 -117 -224 -139q-43 -12 -90 -12.5t-136 38.5t-144.5 39t-96 -12t-92 -33.5t-86.5 -32.5zM219 903q53 41 94 68.5t104.5 52.5 t125 25t147.5 -38t127 -38t58.5 1t36 6t30.5 8t33.5 13.5t31 14.5t37 17.5t37.5 19.5l31 -129q-63 -49 -95 -73t-94.5 -50.5t-117.5 -26.5t-144.5 39t-143.5 39t-95 -12.5t-92 -34t-88 -31.5z" />
<glyph unicode="&#x2260;" horiz-adv-x="1095" d="M242 377l39 248h307l143 188h-422l41 246h561l103 135h147l-102 -135h166l-41 -246h-305l-144 -188h420l-39 -248h-563l-117 -156h-147l117 156h-164z" />
<glyph unicode="&#x2264;" horiz-adv-x="1085" d="M180 166l35 219h768l-35 -219h-768zM274 764l43 264l811 275l-43 -267l-497 -151l450 -156l-43 -256z" />
<glyph unicode="&#x2265;" horiz-adv-x="876" d="M102 166l35 219h768l-33 -219h-770zM150 469l43 268l505 166l-458 144l41 251l725 -272l-43 -266z" />
<glyph unicode="&#x25fc;" horiz-adv-x="1085" d="M0 0v1085h1085v-1085h-1085z" />
</font>
</defs>
</svg>
