<?xml version="1.0" encoding="utf-8"?>
<!-- Generator: Adobe Illustrator 15.1.0, SVG Export Plug-In . SVG Version: 6.00 Build 0)  -->
<!DOCTYPE svg PUBLIC "-//W3C//DTD SVG 1.1//EN" "http://www.w3.org/Graphics/SVG/1.1/DTD/svg11.dtd">
<svg version="1.1" id="Layer_1" xmlns="http://www.w3.org/2000/svg" xmlns:xlink="http://www.w3.org/1999/xlink" x="0px" y="0px"
	 width="87.318px" height="83.411px" viewBox="0 0 87.318 83.411" enable-background="new 0 0 87.318 83.411" xml:space="preserve">
<g id="AJAXCORE">
	<path fill="#26A9E0" d="M53.006,52.04c-2.338,1.627-5.553,1.049-7.178-1.291L30.523,28.725c-1.627-2.339-1.047-5.554,1.289-7.18
		L47.441,5.66c2.338-1.624,5.553-1.046,7.176,1.292l20.018,28.803c1.63,2.34,1.052,5.553-1.288,7.178L53.006,52.04z"/>
	<path fill="#404C51" d="M38.5,53.051c-1.313,0.914-3.123,0.589-4.035-0.727L25.859,39.94c-0.914-1.317-0.59-3.124,0.727-4.04
		l0.316-3.044c1.312-0.915,3.123-0.587,4.035,0.727L42.191,49.78c0.914,1.314,0.59,3.123-0.729,4.036L38.5,53.051z"/>
	<path fill="#CFD7D8" d="M62.445,14.602l11.549-8.028c1.639-1.136,2.043-3.387,0.904-5.023c-1.137-1.638-3.387-2.041-5.023-0.903
		L58.326,8.67L62.445,14.602z"/>
	<path fill="#CFD7D8" d="M74.219,31.541l11.549-8.024c1.639-1.139,2.041-3.388,0.903-5.024c-1.139-1.638-3.391-2.043-5.024-0.904
		L70.1,25.612L74.219,31.541z"/>
	<path fill="#FFD100" d="M31.328,51.168c-3.998,2.502-8.035,5.289-11.875,8.168c-3.842,2.899-7.586,5.953-10.881,9.326
		c-1.631,1.688-3.168,3.469-4.291,5.361c-1.109,1.896-1.752,3.902-0.713,5.332c0.512,0.745,1.438,1.366,2.479,1.812
		c1.052,0.447,2.205,0.762,3.39,0.99c2.371,0.457,4.84,0.616,7.307,0.666c-2.438,0.365-4.912,0.629-7.438,0.576
		c-1.267-0.029-2.543-0.146-3.841-0.451c-1.278-0.32-2.639-0.834-3.771-1.939c-0.562-0.547-1.023-1.256-1.303-2.022
		C0.105,78.221,0.002,77.417,0,76.65c0.021-1.536,0.406-2.921,0.881-4.204c0.982-2.562,2.357-4.799,3.812-6.936
		c2.938-4.252,6.287-8.07,9.75-11.756c3.494-3.686,7.057-7.166,10.906-10.604L31.328,51.168z"/>
</g>
</svg>
