<svg enable-background="new 0 0 300 300" height="300" viewBox="0 0 300 300" width="300" xmlns="http://www.w3.org/2000/svg"><path d="m74.982 56.134v-.682c0-10.438 8.492-18.929 18.93-18.929h110.949c10.438 0 18.929 8.491 18.929 18.929v13.302h9.816v-13.302c0-15.85-12.896-28.745-28.745-28.745h-110.949c-15.85 0-28.745 12.895-28.745 28.745v.682z" fill="#26a9e0"/><path d="m83.162 58.316h-26.175l13.087 9.656z" fill="#26a9e0"/><circle cx="149.387" cy="31.301" fill="#26a9e0" r="16.593"/><path d="m223.79 244.669v.682c0 10.438-8.49 18.93-18.929 18.93h-110.949c-10.438 0-18.93-8.491-18.93-18.93v-11.899h-9.815v11.899c0 15.851 12.896 28.745 28.745 28.745h110.949c15.85 0 28.745-12.895 28.745-28.745v-.682z" fill="#ffd100"/><path d="m215.611 242.486h26.174l-13.086-9.655z" fill="#ffd100"/><circle cx="149.387" cy="268.698" fill="#ffd100" r="16.593"/><path d="m.584 86.823 23.275 4.411 16.051-17.65h62.745l16.654 17.65 23.06-4.411-15.657 44.575-7.187 55.323-33.527 40.606h-29.894l-33.953-40.714-6.761-54.804" fill="#4a535a"/><path d="m61.656 143.34-38.579-14.381-5.836-24.626 30.606 6.122z" fill="#ffd100"/><path d="m80.447 143.34 38.579-14.381 5.835-24.626-30.604 6.122z" fill="#ffd100"/><path d="m48.986 108.177-19.504-3.844 13.24-17.51h16.656z" fill="#ffd100"/><path d="m92.83 108.177 19.504-3.844-13.239-17.51h-16.656z" fill="#ffd100"/><path d="m90.606 112.715-13.791 35.962 4.129 27.297h-20.499l4.644-27.332-13.826-35.927 8.968-25.892h21.212z" fill="#ffd100"/><path d="m32.544 146.97 13.524 7.26v28.684l-22.209-19.006v-32.099l8.685 3.559z" fill="#ffd100"/><path d="m109.133 146.97-13.525 7.26v28.684l22.209-19.006v-32.099l-8.684 3.559z" fill="#ffd100"/><path d="m85.498 143.836-5.051 2.633v4.949l3.166 26.316-6.779 6.887-5.899.053-5.899-.053-6.78-6.887 3.167-26.316v-4.949l-5.052-2.633-6.975 11.746v42.651l7.206-6.62 14.333-.157 14.334.157 7.205 6.62v-42.651z" fill="#ffd100"/><path d="m80.304 213.521h-18.863l-6.62-6.799 6.62-6.796h18.863l6.833 6.796z" fill="#ffd100"/><path d="m46.068 199.926-12.315-13.666v-9.325l12.315 8.044z" fill="#ffd100" opacity=".5"/><path d="m95.251 199.926 12.314-13.666v-9.325l-12.314 8.044z" fill="#ffd100" opacity=".5"/><path d="m83.72 198.233h-25.571l-5.071 6.941-3.682-1.922 8.628-8.665h25.911l8.539 8.665-3.629 1.922z" fill="#ffd100" opacity=".5"/><path d="m157.631 86.823 23.274 4.411 16.05-17.65h62.746l16.654 17.65 23.061-4.411-15.658 44.575-7.187 55.323-33.528 40.606h-29.894l-33.952-40.714-6.761-54.804" fill="#252c30"/><g fill="#26a9e0"><path d="m218.702 143.34-38.579-14.381-5.835-24.626 30.605 6.122z"/><path d="m237.493 143.34 38.58-14.381 5.835-24.626-30.606 6.122z"/><path d="m206.032 108.177-19.504-3.844 13.241-17.51h16.655z"/><path d="m249.877 108.177 19.503-3.844-13.239-17.51h-16.657z"/><path d="m247.652 112.715-13.79 35.962 4.127 27.297h-20.499l4.646-27.332-13.826-35.927 8.966-25.892h21.213z"/><path d="m189.59 146.97 13.525 7.26v28.684l-22.21-19.006v-32.099l8.685 3.559z"/><path d="m266.178 146.97-13.523 7.26v28.684l22.208-19.006v-32.099l-8.685 3.559z"/><path d="m242.544 143.836-5.051 2.633v4.949l3.167 26.316-6.78 6.887-5.9.053-5.899-.053-6.779-6.887 3.167-26.316v-4.949l-5.051-2.633-6.976 11.746v42.651l7.205-6.62 14.333-.157 14.333.157 7.207 6.62v-42.651z"/><path d="m237.35 213.521h-18.863l-6.619-6.799 6.619-6.796h18.863l6.833 6.796z"/><path d="m203.115 199.926-12.316-13.666v-9.325l12.316 8.044z" opacity=".5"/><path d="m252.296 199.926 12.315-13.666v-9.325l-12.315 8.044z" opacity=".5"/><path d="m240.767 198.233h-25.572l-5.071 6.941-3.682-1.922 8.629-8.665h25.909l8.54 8.665-3.629 1.922z" opacity=".5"/></g></svg>