<svg width="211" height="115" viewBox="0 0 211 115" fill="none" xmlns="http://www.w3.org/2000/svg">
<g clip-path="url(#clip0)">
<rect width="211" height="115" rx="3" fill="url(#paint0_linear)" fill-opacity="0.1"/>
<rect width="211" height="115" rx="3" fill="url(#paint1_radial)" fill-opacity="0.05"/>
<rect width="211" height="115" rx="3" fill="url(#paint2_linear)" fill-opacity="0.15"/>
<rect width="211" height="115" rx="3" fill="url(#paint3_linear)" fill-opacity="0.07"/>
<path d="M128.073 24C128.263 24 128.349 23.895 128.349 23.72V19.31H130.421C132.045 19.31 132.908 18.4175 132.908 16.79V12.52C132.908 10.875 132.045 10 130.421 10H126.276C126.104 10 126 10.105 126 10.28V23.72C126 23.895 126.104 24 126.276 24H128.073ZM129.869 17H128.349V12.31H129.869C130.335 12.31 130.56 12.555 130.56 13.01V16.3C130.56 16.7375 130.335 17 129.869 17ZM136.708 24C136.881 24 136.984 23.895 136.984 23.72V19.31H138.176L139.333 23.755C139.368 23.9125 139.454 24 139.627 24H141.423C141.613 24 141.717 23.895 141.665 23.685L140.473 19.1C141.302 18.7325 141.734 17.9625 141.734 16.79V12.52C141.734 10.875 140.87 10 139.247 10H134.912C134.739 10 134.636 10.105 134.636 10.28V23.72C134.636 23.895 134.739 24 134.912 24H136.708ZM138.694 17H136.984V12.31H138.694C139.143 12.31 139.385 12.555 139.385 13.01V16.3C139.385 16.755 139.143 17 138.694 17ZM145.534 24C145.706 24 145.81 23.895 145.81 23.72V10.28C145.81 10.105 145.706 10 145.534 10H143.737C143.547 10 143.461 10.105 143.461 10.28V23.72C143.461 23.895 143.547 24 143.737 24H145.534ZM149.472 24C149.696 24 149.817 23.8775 149.817 23.65V15.775H149.938L151.648 23.685C151.699 23.895 151.82 24 152.028 24H152.874C153.081 24 153.202 23.895 153.254 23.685L154.964 15.775H155.085V23.65C155.085 23.8775 155.206 24 155.43 24H157.036C157.261 24 157.382 23.8775 157.382 23.65V10.35C157.382 10.1225 157.261 10 157.036 10H154.756C154.549 10 154.428 10.105 154.377 10.315L152.459 19.03L150.542 10.315C150.491 10.105 150.37 10 150.162 10H147.883C147.658 10 147.537 10.1225 147.537 10.35V23.65C147.537 23.8775 147.658 24 147.883 24H149.472ZM165.724 24C165.931 24 166 23.895 166 23.72V21.97C166 21.7775 165.931 21.69 165.724 21.69H161.406V18.155H164.705C164.877 18.155 164.981 18.05 164.981 17.8575V16.125C164.981 15.9325 164.877 15.8275 164.705 15.8275H161.406V12.3275H165.724C165.931 12.3275 166 12.205 166 12.03V10.28C166 10.105 165.931 10 165.724 10H159.368C159.212 10 159.109 10.105 159.109 10.28V23.72C159.109 23.895 159.212 24 159.368 24H165.724Z" fill="#131314" fill-opacity="0.87"/>
<path d="M170.044 24C170.214 24 170.316 23.895 170.316 23.72V18.1375H173.519C173.689 18.1375 173.791 18.05 173.791 17.8575V16.1075C173.791 15.9325 173.689 15.8275 173.519 15.8275H170.316V12.31H174.541C174.711 12.31 174.813 12.205 174.813 12.03V10.28C174.813 10.105 174.711 10 174.541 10H168.273C168.085 10 168 10.105 168 10.28V23.72C168 23.895 168.085 24 168.273 24H170.044ZM182.887 24C183.074 24 183.159 23.9125 183.159 23.72V21.97C183.159 21.795 183.074 21.69 182.887 21.69H178.833V10.28C178.833 10.105 178.748 10 178.56 10H176.789C176.619 10 176.516 10.105 176.516 10.28V23.72C176.516 23.9125 176.619 24 176.789 24H182.887ZM191.386 24C191.59 24 191.658 23.895 191.658 23.72V21.97C191.658 21.7775 191.59 21.69 191.386 21.69H187.128V18.155H190.381C190.551 18.155 190.653 18.05 190.653 17.8575V16.125C190.653 15.9325 190.551 15.8275 190.381 15.8275H187.128V12.3275H191.386C191.59 12.3275 191.658 12.205 191.658 12.03V10.28C191.658 10.105 191.59 10 191.386 10H185.118C184.965 10 184.862 10.105 184.862 10.28V23.72C184.862 23.895 184.965 24 185.118 24H191.386ZM194.895 24C195.082 24 195.218 23.93 195.286 23.755L196.921 19.52L198.557 23.755C198.625 23.93 198.761 24 198.948 24H200.703C200.975 24 201.06 23.825 200.958 23.58L198.25 16.86L200.856 10.42C200.958 10.175 200.873 10 200.601 10H198.897C198.71 10 198.574 10.07 198.505 10.245L196.921 14.3925L195.337 10.245C195.269 10.07 195.133 10 194.946 10H193.242C192.97 10 192.885 10.175 192.987 10.42L195.576 16.86L192.885 23.58C192.783 23.825 192.868 24 193.14 24H194.895Z" fill="#0078E3"/>
<g opacity="0.1">
<line x1="138" y1="29.8333" x2="138" y2="112.5" stroke="#383A48" stroke-width="4" stroke-linecap="round"/>
<line x1="138" y1="-13" x2="138" y2="4.66667" stroke="#383A48" stroke-width="4" stroke-linecap="round"/>
<line x1="179" y1="38.3333" x2="179" y2="177.333" stroke="#383A48" stroke-width="4" stroke-linecap="round"/>
</g>
<path d="M177.408 153.535L91.5667 103.972C90.3627 103.277 89.3843 101.426 89.3843 99.8038V33.4002C89.3843 31.7961 90.3591 31.0577 91.5667 31.7525L177.408 81.3151C178.612 82.0099 179.591 83.8613 179.591 85.4799V151.887C179.591 153.491 178.605 154.23 177.408 153.535Z" fill="#B1B4C4"/>
<path d="M89.2207 32.1635L90.1591 31.6215L91.505 32.389C91.505 32.389 90.0718 32.6072 90.05 32.6C90.0282 32.5927 89.2207 32.1635 89.2207 32.1635Z" fill="#B1B4C4"/>
<path d="M176.616 153.99L90.7742 104.427C89.5702 103.732 88.5918 101.881 88.5918 100.259V33.8549C88.5918 32.2508 89.5702 31.5124 90.7742 32.2072L176.616 81.7698C177.82 82.4646 178.798 84.316 178.798 85.9346V152.342C178.795 153.946 177.82 154.684 176.616 153.99Z" fill="#E4E7F2"/>
<path d="M176.463 154.073L90.6214 104.511C89.4174 103.816 88.439 101.964 88.439 100.346V33.9422C88.439 32.3382 89.4138 31.5998 90.6214 32.2945L176.463 81.8572C177.667 82.5519 178.645 84.4033 178.645 86.0219V152.426C178.645 154.041 177.667 154.768 176.463 154.073Z" fill="#D6D8E5"/>
<path d="M177.463 150.039L89.5264 99.2691L89.5737 34.2077C89.5737 33.542 90.0429 33.2729 90.6176 33.6039L176.459 83.1665C176.764 83.3658 177.018 83.6345 177.2 83.9506C177.381 84.2666 177.485 84.6212 177.503 84.9852L177.463 150.039Z" fill="white"/>
<path d="M172.018 93.4784L94.0694 48.477C93.7994 48.2834 93.5785 48.0292 93.4244 47.7349C93.2703 47.4406 93.1872 47.1142 93.1819 46.782V41.155C93.1819 40.5039 93.5784 40.202 94.0694 40.4858L172.018 85.4872C172.288 85.6811 172.51 85.9359 172.664 86.2309C172.818 86.5259 172.901 86.853 172.906 87.1858V92.8092C172.906 93.4639 172.509 93.7622 172.018 93.4784Z" fill="#E9EAF2"/>
<path d="M167.952 108.541L149.63 97.9633C149.36 97.7697 149.139 97.5156 148.985 97.2212C148.831 96.9269 148.748 96.6005 148.743 96.2683V84.4433C148.743 83.7886 149.139 83.4903 149.63 83.774L167.952 94.3514C168.222 94.5447 168.443 94.7987 168.597 95.0932C168.752 95.3876 168.834 95.7141 168.839 96.0464V107.872C168.825 108.523 168.428 108.824 167.952 108.541Z" fill="#E9EAF2"/>
<path d="M143.803 112.382L97.8412 85.8292C97.7057 85.7329 97.5949 85.6059 97.5177 85.4586C97.4406 85.3113 97.3994 85.1479 97.3975 84.9817V82.9484C97.3975 82.621 97.5939 82.4682 97.8412 82.6101L143.803 109.163C143.938 109.26 144.048 109.387 144.125 109.534C144.202 109.681 144.244 109.844 144.247 110.01V112.047C144.247 112.371 144.047 112.524 143.803 112.382Z" fill="#E9EAF2"/>
<path d="M139.278 114.586L97.9721 90.7504C97.8374 90.6533 97.7272 90.5261 97.6501 90.379C97.5731 90.2319 97.5314 90.0689 97.5283 89.9029V88.8881C97.5283 88.5607 97.7284 88.4116 97.9721 88.5534L139.278 112.4C139.413 112.497 139.523 112.624 139.6 112.771C139.677 112.918 139.719 113.081 139.722 113.247V114.259C139.722 114.575 139.522 114.728 139.278 114.586Z" fill="#E9EAF2"/>
<path d="M139.278 118.427L97.9721 94.5806C97.8372 94.4837 97.7268 94.3566 97.6498 94.2094C97.5727 94.0623 97.5311 93.8991 97.5283 93.7331V92.7182C97.5283 92.3945 97.7284 92.2417 97.9721 92.3836L139.278 116.23C139.413 116.327 139.523 116.454 139.6 116.601C139.677 116.748 139.719 116.912 139.722 117.078V118.092C139.722 118.42 139.522 118.569 139.278 118.427Z" fill="#E9EAF2"/>
<path d="M128.719 116.172L97.9721 98.4217C97.8372 98.3248 97.7268 98.1977 97.6498 98.0506C97.5727 97.9034 97.5311 97.7403 97.5283 97.5742V96.5703C97.5283 96.2429 97.7284 96.0938 97.9721 96.232L128.719 113.982C128.853 114.081 128.962 114.209 129.039 114.357C129.116 114.504 129.158 114.667 129.162 114.833V115.848C129.162 116.165 128.962 116.314 128.719 116.172Z" fill="#E9EAF2"/>
<path d="M168.381 113.459L149.172 102.368C149.036 102.272 148.925 102.145 148.848 101.998C148.771 101.85 148.73 101.687 148.728 101.521V100.506C148.728 100.179 148.924 100.029 149.172 100.171L168.381 111.262C168.516 111.359 168.626 111.486 168.703 111.633C168.78 111.78 168.822 111.943 168.824 112.109V113.124C168.824 113.451 168.624 113.6 168.381 113.459Z" fill="#E9EAF2"/>
<path d="M168.381 117.303L149.172 106.209C149.036 106.113 148.925 105.986 148.848 105.839C148.771 105.691 148.73 105.528 148.728 105.362V104.351C148.728 104.023 148.924 103.87 149.172 104.012L168.381 115.121C168.516 115.217 168.627 115.344 168.704 115.492C168.781 115.639 168.822 115.802 168.824 115.968V116.979C168.824 117.303 168.624 117.441 168.381 117.303Z" fill="#E9EAF2"/>
<path d="M163.35 118.238L149.164 110.05C149.029 109.954 148.918 109.827 148.841 109.68C148.764 109.532 148.723 109.369 148.721 109.203V108.21C148.721 107.882 148.917 107.733 149.164 107.875L163.35 116.059C163.485 116.156 163.596 116.283 163.673 116.43C163.75 116.577 163.791 116.741 163.794 116.907V117.922C163.794 118.231 163.587 118.394 163.35 118.238Z" fill="#E9EAF2"/>
<path d="M167.952 138.149L149.63 127.571C149.36 127.378 149.139 127.124 148.985 126.829C148.831 126.535 148.748 126.209 148.743 125.876V114.051C148.743 113.4 149.139 113.098 149.63 113.382L167.952 123.96C168.221 124.156 168.44 124.413 168.592 124.71C168.743 125.007 168.823 125.336 168.825 125.669V137.494C168.825 138.131 168.428 138.433 167.952 138.149Z" fill="#E9EAF2"/>
<path d="M137.281 70.1449L130.538 66.2529C130.47 66.2041 130.415 66.1403 130.376 66.0664C130.338 65.9925 130.317 65.9106 130.316 65.8273V64.9253C130.316 64.7616 130.414 64.6852 130.538 64.7579L137.281 68.6499C137.349 68.6975 137.405 68.7606 137.443 68.834C137.482 68.9074 137.502 68.9889 137.503 69.0718V69.9666C137.503 70.1412 137.398 70.2176 137.281 70.1449Z" fill="#DADCE5"/>
<path d="M148.194 76.4484L141.45 72.5637C141.383 72.5155 141.327 72.4523 141.289 72.379C141.25 72.3058 141.23 72.2245 141.228 72.1418V71.247C141.228 71.0833 141.33 71.0069 141.45 71.0797L148.194 74.9716C148.261 75.0204 148.316 75.0842 148.355 75.1581C148.393 75.232 148.414 75.3139 148.415 75.3972V76.292C148.415 76.4411 148.31 76.5175 148.194 76.4484Z" fill="#DADCE5"/>
<path d="M158.931 82.6465L152.187 78.7472C152.12 78.6997 152.064 78.6366 152.025 78.5632C151.987 78.4898 151.966 78.4082 151.966 78.3253V77.4305C151.966 77.2668 152.064 77.1941 152.187 77.2632L158.931 81.1551C158.999 81.2039 159.054 81.2677 159.092 81.3416C159.131 81.4155 159.152 81.4974 159.153 81.5807V82.4755C159.153 82.6428 159.055 82.7156 158.931 82.6465Z" fill="#DADCE5"/>
<path d="M169.843 88.9318L163.103 85.0398C163.036 84.9911 162.98 84.9272 162.942 84.8534C162.903 84.7795 162.883 84.6976 162.881 84.6143V83.7195C162.881 83.5558 162.98 83.4831 163.103 83.5522L169.843 87.4769C169.911 87.5244 169.967 87.5875 170.005 87.6609C170.044 87.7343 170.064 87.8159 170.065 87.8988V88.7936C170.065 88.9318 169.967 89.0191 169.843 88.9318Z" fill="#DADCE5"/>
<path d="M154.959 95.8101L153.671 92.4965L151.332 95.8283L153.9 97.3123L156.014 98.5308L160.724 101.252L157.312 92.4601L154.959 95.8101Z" fill="#DADCE5"/>
<path d="M166.137 98.2129C166.74 97.8663 166.743 96.7396 166.143 95.6962C165.544 94.6528 164.569 94.0879 163.966 94.4344C163.363 94.781 163.36 95.9077 163.96 96.9511C164.559 97.9945 165.534 98.5594 166.137 98.2129Z" fill="#DADCE5"/>
<path d="M111.82 80.6859L110.118 87.5023V81.6679L111.82 80.6859Z" fill="#232733"/>
<path d="M91.9923 69.1299L90.29 75.95V70.1157L91.9923 69.1299Z" fill="#232733"/>
<path d="M119.989 111.422L79.4616 88.0224C79.2197 87.8488 79.0219 87.6207 78.8841 87.3566C78.7464 87.0926 78.6726 86.7998 78.6687 86.502V65.7691C78.6687 65.1835 79.0324 64.9143 79.4616 65.1689L119.989 88.568C120.232 88.7406 120.43 88.9678 120.569 89.2313C120.707 89.4948 120.781 89.7872 120.786 90.0848V110.836C120.786 111.407 120.429 111.676 119.989 111.422Z" fill="#E9EAF2"/>
<path d="M90.7413 87.1131L88.5443 81.4497L84.5432 87.1422L88.9371 89.6811L92.5454 91.7653L100.602 96.4175L94.7678 81.3843L90.7413 87.1131Z" fill="#3BA3EE"/>
<path d="M113.374 93.2196C114.399 92.628 114.398 90.7085 113.373 88.9322C112.347 87.156 110.685 86.1956 109.66 86.7873C108.636 87.3789 108.636 89.2984 109.662 91.0747C110.687 92.8509 112.349 93.8113 113.374 93.2196Z" fill="#3BA3EE"/>
<path d="M109.372 79.271L109.368 71.4944L107.164 69.8394V79.271L104.712 80.686L108.266 82.7374L111.82 80.686L109.372 79.271Z" fill="#353C4C"/>
<path d="M108.266 82.7374L110.117 87.5023V81.999V81.668L108.266 82.7374Z" fill="#232733"/>
<path d="M104.712 80.6859L106.287 85.2617L110.118 87.5023L108.266 82.7373L104.712 80.6859Z" fill="#2B303F"/>
<path d="M89.5408 67.7187V58.2834H87.3366V67.7151L84.885 69.13L88.4387 71.1851L91.9924 69.13L89.5408 67.7187Z" fill="#353C4C"/>
<path d="M88.439 71.1851L90.2904 75.95V70.4467V70.1157L88.439 71.1851Z" fill="#232733"/>
<path d="M84.885 69.1299L86.46 73.7057L90.2901 75.95L88.4387 71.1851L84.885 69.1299Z" fill="#2B303F"/>
<path opacity="0.4" d="M65.2941 111.753L43.339 99.0145L16.8845 114.288L40.5528 128.015L67.011 112.742V110.763L65.2941 111.753Z" fill="#D6D8E5"/>
<path d="M68.0803 110.036L43.339 95.7519L18.5977 110.036L16.8845 109.046V111.025L43.339 126.302L69.7935 111.025V109.046L68.0803 110.036Z" fill="#B1B4C4"/>
<path d="M43.339 124.32L16.8845 109.046L43.339 93.7731L69.7935 109.046L43.339 124.32Z" fill="#E7E9F2"/>
<path d="M43.2554 103.39L44.9831 102.394V28.6244L43.2554 29.621V103.39Z" fill="#B1B4C4"/>
<path d="M43.3936 59.7201L55.4732 78.8381L57.201 78.1324L44.9831 58.8253L43.3936 59.7201Z" fill="#B1B4C4"/>
<path d="M43.3208 63.1211L55.4077 82.3336V78.7399L43.3208 59.5965V63.1211Z" fill="#D6D8E5"/>
<path d="M41.5933 102.394L43.321 103.39V29.621L41.5933 28.6244V102.394Z" fill="#D6D8E5"/>
<path d="M55.408 110.37L57.1357 111.367V37.5977L55.408 36.6011V110.37Z" fill="#D6D8E5"/>
<path d="M57.0703 111.367L58.7981 110.37V36.6011L57.0703 37.5977V111.367Z" fill="#B1B4C4"/>
<path d="M43.3208 98.0725L55.4077 83.5994V80.1294L43.3208 94.6243V98.0725Z" fill="#D6D8E5"/>
<path d="M43.3208 98.0725L44.9831 97.1632L55.4077 84.5961V83.3303L43.3208 98.0725Z" fill="#B1B4C4"/>
<path d="M43.3208 59.7202L55.4077 45.2471V41.7771L43.3208 56.272V59.7202Z" fill="#D6D8E5"/>
<path d="M43.3208 59.7202L44.9831 58.8072L55.4077 46.2438V44.978L43.3208 59.7202Z" fill="#B1B4C4"/>
<path d="M29.5425 111.356L31.2702 110.359V36.5902L29.5425 37.5868V111.356Z" fill="#B1B4C4"/>
<path d="M29.6807 67.6859L41.7603 86.8002L43.4881 86.0982L31.2702 66.7911L29.6807 67.6859Z" fill="#B1B4C4"/>
<path d="M29.6079 71.0869L41.6949 90.2958V86.7057L29.6079 67.5587V71.0869Z" fill="#D6D8E5"/>
<path d="M27.8843 110.359L29.6084 111.356V37.5868L27.8843 36.5902V110.359Z" fill="#D6D8E5"/>
<path d="M41.6953 118.333L43.4231 119.329V45.5636L41.6953 44.5633V118.333Z" fill="#D6D8E5"/>
<path d="M43.3574 119.329L45.0852 118.333V44.5633L43.3574 45.5636V119.329Z" fill="#B1B4C4"/>
<path d="M29.6079 106.038L41.6949 91.5653V88.0916L29.6079 102.59V106.038Z" fill="#D6D8E5"/>
<path d="M29.6079 106.038L31.2702 105.125L41.6949 92.5618V91.2924L29.6079 106.038Z" fill="#B1B4C4"/>
<path d="M29.6079 67.686L41.6949 53.2129V49.7393L29.6079 64.2341V67.686Z" fill="#D6D8E5"/>
<path d="M29.6079 67.686L31.2702 66.7731L41.6949 54.206V52.9402L29.6079 67.686Z" fill="#B1B4C4"/>
<path d="M43.4226 49.2991L25.5886 39.0017L43.4226 28.708L61.2566 39.0017L43.4226 49.2991Z" fill="#F7DC6B"/>
<path d="M42.0952 19.7893L20.9512 31.9962L14.8987 28.5007L36.0426 16.2938L42.0952 19.7893Z" fill="#353C4C"/>
<path d="M14.8987 33.3966V28.5007L20.9512 31.9962V36.8921L14.8987 33.3966Z" fill="#2B303F"/>
<path d="M20.9512 36.8921L42.0951 24.6851V19.7892L20.9512 31.9962V36.4156" fill="#232733"/>
<path d="M42.0952 14.2968L20.9512 26.5038L14.8987 23.0083L36.0426 10.8013L42.0952 14.2968Z" fill="#353C4C"/>
<path d="M14.8987 27.9078V23.0083L20.9512 26.5038V31.4033L14.8987 27.9078Z" fill="#2B303F"/>
<path d="M20.9512 31.4033L42.0951 19.1963V14.2968L20.9512 26.5038V30.9268" fill="#232733"/>
<path d="M26.1127 29.4791L13 21.957V19.2145L26.1127 26.6892V29.4791Z" fill="#D6D8E5"/>
<path d="M45.0851 37.5796L13 19.2146L15.3752 17.8433L47.4603 36.2083L45.0851 37.5796Z" fill="#E7E9F2"/>
<path d="M40.5383 25.1435L24.0647 15.6136V12.8674L40.5383 21.6952V25.1435Z" fill="#D6D8E5"/>
<path d="M53.0326 29.3119L24.0647 12.871L26.4399 11.4998L55.4078 27.9406L53.0326 29.3119Z" fill="#E7E9F2"/>
<path d="M32.8416 17.9306V20.6732L33.9691 28.5699L35.6423 29.6102L32.8416 17.9306Z" fill="#D6D8E5"/>
<path d="M37.7993 30.7814L35.6314 19.542L32.8416 17.9306L34.5329 29.0064L37.7993 30.7814Z" fill="#E7E9F2"/>
<path d="M32.8418 20.673L24.1885 22.9537L19.7437 20.3857L32.4635 17.705L32.8418 17.9305V20.673Z" fill="#B1B4C4"/>
<path d="M32.8418 17.9305L20.7912 20.9932L18.2014 19.4982L30.3466 16.3956L32.8418 17.9305Z" fill="#E7E9F2"/>
<path d="M43.4226 26.5947L25.5886 16.2974L43.4226 6L61.2566 16.2974L43.4226 26.5947Z" fill="#E7E9F2"/>
<path d="M25.5886 48.0952V16.2974L43.4226 26.5948V58.3926L25.5886 48.0952Z" fill="#D6D8E5"/>
<path d="M61.2568 16.2974V48.0952L43.4229 58.3926V26.5912L61.2568 16.2974Z" fill="#B1B4C4"/>
<path d="M43.4226 37.6705L33.1834 31.7598L29.8916 21.2842L43.4226 29.0972V37.6705Z" fill="#3BA3EE"/>
<path d="M61.2568 18.7999V27.3732L43.4229 37.6742V29.1009L61.2568 18.7999Z" fill="#005CC3"/>
<path d="M122.947 85.7563L45.78 41.2023V38.4597L122.947 83.0137V85.7563Z" fill="#D6D8E5"/>
<path d="M122.947 83.0138L45.78 38.4634L48.1552 37.0921L125.322 81.6425L122.947 83.0138Z" fill="#E7E9F2"/>
<path d="M134.011 79.4128L56.8447 34.8588V32.1162L134.011 76.6702V79.4128Z" fill="#D6D8E5"/>
<path d="M134.011 76.6703L56.8447 32.1163L59.2199 30.745L136.386 75.299L134.011 76.6703Z" fill="#E7E9F2"/>
<path d="M136.387 78.0488L122.947 85.7564V83.0101L136.387 75.3062V78.0488Z" fill="#B1B4C4"/>
<path d="M136.386 75.3062L122.954 83.0138L120.942 81.8534L134.375 74.1459L136.386 75.3062Z" fill="#E7E9F2"/>
<path d="M124.34 73.8223L115.683 76.1029L111.238 73.5349L123.958 70.8542L124.34 71.0797V73.8223Z" fill="#B1B4C4"/>
<path d="M124.34 71.0796L112.289 74.1422L109.699 72.6436L121.841 69.5446L124.34 71.0796Z" fill="#E7E9F2"/>
<path d="M104.811 59.8184V62.561L105.938 70.4577L107.611 71.4943L104.811 59.8184Z" fill="#D6D8E5"/>
<path d="M109.768 72.6692L107.6 61.4298L104.811 59.8184L106.506 70.8942L109.768 72.6692Z" fill="#E7E9F2"/>
<path d="M104.811 62.5609L96.1575 64.8415L91.7126 62.2736L104.432 59.5928L104.811 59.8184V62.5609Z" fill="#B1B4C4"/>
<path d="M104.811 59.8184L92.7636 62.881L90.1738 61.3861L102.315 58.2834L104.811 59.8184Z" fill="#E7E9F2"/>
<path d="M85.2161 48.4953V51.2379L86.34 59.1346L88.0168 60.1749L85.2161 48.4953Z" fill="#D6D8E5"/>
<path d="M90.1738 61.3461L88.0059 50.1067L85.2161 48.4953L86.9074 59.5711L90.1738 61.3461Z" fill="#E7E9F2"/>
<path d="M85.2163 51.2378L76.563 53.5184L72.1182 50.9504L84.838 48.2697L85.2163 48.4952V51.2378Z" fill="#B1B4C4"/>
<path d="M85.2163 48.4952L73.1657 51.5579L70.5759 50.0629L82.7211 46.9603L85.2163 48.4952Z" fill="#E7E9F2"/>
<path d="M65.6216 37.1795V39.9221L66.7455 47.8188L68.4223 48.8554L65.6216 37.1795Z" fill="#D6D8E5"/>
<path d="M70.5757 50.0303L68.4114 38.7909L65.6216 37.1795L67.313 48.2553L70.5757 50.0303Z" fill="#E7E9F2"/>
<path d="M65.6216 39.922L56.9683 42.2026L52.5234 39.6347L65.2433 36.9539L65.6216 37.1794V39.922Z" fill="#B1B4C4"/>
<path d="M65.6218 37.1794L53.5712 40.2421L50.9814 38.7471L63.123 35.6445L65.6218 37.1794Z" fill="#E7E9F2"/>
<path d="M36.6428 126.091V112.295L15.8298 109.919V123.803C15.8338 124.041 15.904 124.272 16.0325 124.472C16.1611 124.672 16.3428 124.832 16.5573 124.934L26.3127 130.641C27.4039 131.289 29.3499 131.209 30.623 130.459L35.5698 127.55C36.2973 127.128 36.661 126.586 36.6246 126.095L36.6428 126.091Z" fill="#D6D8E5"/>
<path d="M36.621 113.8V112.294H35.0205L26.1381 107.086C25.0469 106.438 23.1009 106.522 21.8278 107.268L16.881 110.178C16.7917 110.228 16.7055 110.284 16.6228 110.345L15.8298 109.919C15.8298 109.919 15.8298 111.509 15.8298 111.563C15.8353 111.8 15.9062 112.031 16.0345 112.23C16.1629 112.429 16.3439 112.588 16.5573 112.691L26.3127 118.394C27.4039 119.042 29.3499 118.958 30.623 118.212L35.5698 115.303C36.2973 114.87 36.661 114.31 36.621 113.786V113.8Z" fill="#EDF0F9"/>
<path d="M26.3129 116.758L16.5721 111.051C15.4809 110.403 15.6046 109.272 16.8813 108.526L21.8281 105.616C23.1012 104.889 25.0326 104.787 26.1383 105.434L35.8828 111.141C36.974 111.789 36.8467 112.92 35.57 113.666L30.6232 116.576C29.3683 117.321 27.4187 117.405 26.3129 116.758Z" fill="#E2E5F2"/>
<path d="M24.1194 108.966V108.417H23.7884L23.6829 108.352C23.3575 108.183 22.9964 108.095 22.6299 108.095C22.2635 108.095 21.9024 108.183 21.5769 108.352C21.5147 108.387 21.4562 108.428 21.4023 108.475L21.144 108.417V108.966C21.1527 109.099 21.1977 109.227 21.274 109.336C21.3503 109.445 21.4551 109.531 21.5769 109.585C21.9029 109.751 22.2638 109.838 22.6299 109.838C22.996 109.838 23.3569 109.751 23.6829 109.585C23.8036 109.529 23.9074 109.443 23.984 109.334C24.0607 109.225 24.1074 109.099 24.1194 108.966V108.966Z" fill="#005CC3"/>
<path d="M22.6317 109.29C23.4533 109.29 24.1194 108.899 24.1194 108.417C24.1194 107.935 23.4533 107.544 22.6317 107.544C21.8101 107.544 21.144 107.935 21.144 108.417C21.144 108.899 21.8101 109.29 22.6317 109.29Z" fill="#3BA3EE"/>
<path d="M27.7129 111.036V110.487H27.3819L27.2801 110.421C26.9546 110.253 26.5935 110.165 26.227 110.165C25.8606 110.165 25.4995 110.253 25.174 110.421C25.1101 110.456 25.0503 110.497 24.9958 110.545L24.7375 110.487V111.036C24.7496 111.168 24.7963 111.295 24.8729 111.404C24.9495 111.512 25.0534 111.599 25.174 111.654C25.5 111.821 25.8609 111.908 26.227 111.908C26.5932 111.908 26.9541 111.821 27.2801 111.654C27.4019 111.601 27.5066 111.515 27.583 111.406C27.6593 111.297 27.7042 111.169 27.7129 111.036Z" fill="#005CC3"/>
<path d="M26.2252 111.36C27.0469 111.36 27.7129 110.969 27.7129 110.487C27.7129 110.005 27.0469 109.614 26.2252 109.614C25.4036 109.614 24.7375 110.005 24.7375 110.487C24.7375 110.969 25.4036 111.36 26.2252 111.36Z" fill="#3BA3EE"/>
<path d="M31.314 113.248V112.698H30.9793L30.8775 112.633C30.552 112.464 30.1909 112.377 29.8245 112.377C29.458 112.377 29.0969 112.464 28.7714 112.633C28.7083 112.668 28.6487 112.71 28.5932 112.756L28.335 112.698V113.248C28.3463 113.38 28.3927 113.507 28.4694 113.616C28.5461 113.725 28.6504 113.811 28.7714 113.866C29.0969 114.034 29.458 114.122 29.8245 114.122C30.1909 114.122 30.552 114.034 30.8775 113.866C30.9986 113.811 31.1028 113.725 31.1795 113.616C31.2562 113.507 31.3026 113.38 31.314 113.248V113.248Z" fill="#005CC3"/>
<path d="M29.8226 113.571C30.6443 113.571 31.3103 113.18 31.3103 112.698C31.3103 112.216 30.6443 111.825 29.8226 111.825C29.001 111.825 28.335 112.216 28.335 112.698C28.335 113.18 29.001 113.571 29.8226 113.571Z" fill="#3BA3EE"/>
<path d="M195.308 126.792L164.929 109.253C163.019 108.161 161.473 105.197 161.473 102.654V54.856C161.473 52.3098 163.019 51.1459 164.929 52.2443L195.308 69.7873C197.214 70.8785 198.76 73.843 198.76 76.3855V124.191C198.76 126.737 197.214 127.894 195.308 126.792Z" fill="#211B49"/>
<path d="M162.041 52.3789C162.347 52.1971 162.668 52.0425 163.001 51.9169L163.772 53.441L162.041 52.3789Z" fill="#211B49"/>
<path d="M194.511 127.192L164.128 109.642C162.222 108.551 160.677 105.586 160.677 103.044V55.2561C160.677 52.7099 162.222 51.5423 164.128 52.6444L194.511 70.1874C196.417 71.2786 197.963 74.2394 197.963 76.782V124.58C197.963 127.123 196.417 128.294 194.511 127.192Z" fill="#2E245B"/>
<path d="M169.654 62.6107L164.128 59.4208V57.4275L169.654 60.6175V62.6107Z" fill="#A3ABD9"/>
<path d="M194.166 76.7637L170.69 63.2073V61.2177L194.166 74.7705V76.7637Z" fill="#A548B5"/>
<path d="M169.654 68.9907L164.128 65.8007V63.8074L169.654 66.9974V68.9907Z" fill="#A3ABD9"/>
<path d="M186.226 78.5569L170.69 69.5872V67.5939L186.226 76.5637V78.5569Z" fill="#F9B937"/>
<path d="M169.654 72.1771L164.128 68.9908V66.9975L169.654 70.1838V72.1771Z" fill="#A3ABD9"/>
<path d="M190.023 83.9403L170.69 72.7773V70.784L190.023 81.9471V83.9403Z" fill="#F27320"/>
<path d="M169.654 75.3671L164.128 72.1771V70.1838L169.654 73.3738V75.3671Z" fill="#A3ABD9"/>
<path d="M184.156 83.7402L170.69 75.9671V73.9739L184.156 81.7469V83.7402Z" fill="#A3ABD9"/>
<path d="M169.654 65.8008L164.128 62.6108V60.6176L169.654 63.8075V65.8008Z" fill="#A3ABD9"/>
<path d="M182.428 73.1774L170.69 66.3973V64.4041L182.428 71.1804V73.1774Z" fill="#248AEE"/>
<path d="M169.654 78.557L164.128 75.367V73.3737L169.654 76.5637V78.557Z" fill="#A3ABD9"/>
<path d="M177.594 83.14L170.69 79.1535V77.1602L177.594 81.1468V83.14Z" fill="#A548B5"/>
<path d="M169.654 84.9333L164.128 81.7469V79.7537L169.654 82.9436V84.9333Z" fill="#A3ABD9"/>
<path d="M192.442 98.0896L170.69 85.5334V83.5402L192.442 96.0963V98.0896Z" fill="#F9B937"/>
<path d="M169.654 88.1232L164.128 84.9333V82.94L169.654 86.13V88.1232Z" fill="#A3ABD9"/>
<path d="M177.249 92.5098L170.69 88.7233V86.73L177.249 90.5165V92.5098Z" fill="#F27320"/>
<path d="M169.654 91.3132L164.128 88.1232V86.1299L169.654 89.3199V91.3132Z" fill="#A3ABD9"/>
<path d="M190.023 103.073L170.69 91.9097V89.9201L190.023 101.08V103.073Z" fill="#A3ABD9"/>
<path d="M169.654 81.7469L164.128 78.5569V76.5637L169.654 79.7536V81.7469Z" fill="#A3ABD9"/>
<path d="M188.986 92.9101L170.69 82.3436V80.3503L188.986 90.9168V92.9101Z" fill="#248AEE"/>
<path d="M169.654 94.5032L164.128 91.3132V89.3199L169.654 92.5099V94.5032Z" fill="#A3ABD9"/>
<path d="M173.106 96.4965L170.69 95.0997V93.1064L173.106 94.5032V96.4965Z" fill="#A548B5"/>
<path d="M169.654 100.879L164.128 97.6932V95.6999L169.654 98.8899V100.879Z" fill="#A3ABD9"/>
<path d="M175.179 104.069L170.69 101.48V99.4864L175.179 102.076V104.069Z" fill="#F9B937"/>
<path d="M169.654 104.069L164.128 100.879V98.8861L169.654 102.076V104.069Z" fill="#A3ABD9"/>
<path d="M182.428 111.446L170.69 104.67V102.676L182.428 109.453V111.446Z" fill="#F27320"/>
<path d="M169.654 107.259L164.128 104.069V102.076L169.654 105.266V107.259Z" fill="#A3ABD9"/>
<path d="M189.332 118.623L170.69 107.856V105.863L189.332 116.629V118.623Z" fill="#A3ABD9"/>
<path d="M169.654 97.6931L164.128 94.5032V92.5099L169.654 95.6999V97.6931Z" fill="#A3ABD9"/>
<path d="M194.166 111.846L170.69 98.2897V96.2964L194.166 109.849V111.846Z" fill="#248AEE"/>
<path d="M95.8273 48.162C95.8844 48.195 95.9103 48.1747 95.9103 48.1159L95.9103 46.6349L96.5328 46.9944C97.0205 47.276 97.2799 47.126 97.2798 46.5795L97.2798 45.1455C97.2798 44.5931 97.0204 44.1494 96.5327 43.8679L95.2876 43.1489C95.2357 43.119 95.2046 43.1363 95.2046 43.195L95.2047 47.7085C95.2047 47.7673 95.2359 47.8205 95.2877 47.8505L95.8273 48.162ZM96.3668 46.1228L95.9102 45.8592L95.9102 44.2842L96.3667 44.5478C96.5068 44.6286 96.5742 44.7499 96.5742 44.9027L96.5743 46.0075C96.5743 46.1544 96.5068 46.2037 96.3668 46.1228ZM98.4213 49.6598C98.4732 49.6897 98.5043 49.6724 98.5043 49.6137L98.5042 48.1327L98.8622 48.3394L99.2098 50.0328C99.2202 50.0917 99.2462 50.136 99.298 50.166L99.8376 50.4775C99.8947 50.5105 99.9258 50.4932 99.9102 50.4137L99.5522 48.6672C99.8012 48.6876 99.9309 48.5039 99.9309 48.1102L99.9308 46.6762C99.9308 46.1237 99.6714 45.6801 99.1838 45.3986L97.8816 44.6467C97.8297 44.6167 97.7986 44.634 97.7986 44.6928L97.7987 49.2063C97.7987 49.265 97.8298 49.3183 97.8817 49.3482L98.4213 49.6598ZM99.0178 47.6535L98.5042 47.3569L98.5042 45.7819L99.0178 46.0785C99.1527 46.1563 99.2253 46.2805 99.2253 46.4333L99.2253 47.5382C99.2253 47.691 99.1527 47.7314 99.0178 47.6535ZM101.072 51.1905C101.124 51.2204 101.155 51.2031 101.155 51.1443L101.155 46.6309C101.155 46.5721 101.124 46.5189 101.072 46.4889L100.533 46.1774C100.476 46.1444 100.45 46.1647 100.45 46.2235L100.45 50.737C100.45 50.7957 100.476 50.846 100.533 50.8789L101.072 51.1905ZM102.255 51.8734C102.323 51.9124 102.359 51.8922 102.359 51.8158L102.359 49.1712L102.395 49.1921L102.909 52.1451C102.924 52.2246 102.961 52.2808 103.023 52.3168L103.277 52.4635C103.339 52.4995 103.376 52.4852 103.391 52.4237L103.905 50.0638L103.941 50.0848L103.941 52.7294C103.941 52.8058 103.978 52.8679 104.045 52.9069L104.528 53.1854C104.595 53.2244 104.631 53.2042 104.631 53.1278L104.631 48.6614C104.631 48.585 104.595 48.5228 104.527 48.4839L103.843 48.0885C103.78 48.0526 103.744 48.0668 103.728 48.1284L103.153 50.7226L102.577 47.4634C102.561 47.3839 102.525 47.3276 102.463 47.2917L101.778 46.8963C101.71 46.8574 101.674 46.8775 101.674 46.9539L101.674 51.4204C101.674 51.4968 101.71 51.5589 101.778 51.5978L102.255 51.8734ZM107.137 54.6922C107.199 54.7281 107.22 54.7048 107.22 54.6461L107.22 54.0584C107.22 53.9937 107.199 53.9524 107.137 53.9164L105.84 53.1676L105.84 51.9804L106.831 52.5526C106.883 52.5825 106.914 52.5652 106.914 52.5006L106.914 51.9188C106.914 51.8541 106.883 51.8009 106.831 51.7709L105.84 51.1988L105.84 50.0234L107.137 50.7723C107.199 50.8082 107.22 50.7791 107.22 50.7203L107.22 50.1326C107.22 50.0738 107.199 50.0266 107.137 49.9906L105.228 48.8883C105.181 48.8613 105.15 48.8786 105.15 48.9374L105.15 53.4509C105.15 53.5096 105.181 53.5629 105.228 53.5898L107.137 54.6922Z" fill="#BDC1D1"/>
<path d="M108.371 55.405C108.423 55.4348 108.454 55.4174 108.454 55.3586L108.454 53.4839L109.424 54.0444C109.476 54.0742 109.507 54.0627 109.507 53.9981L109.507 53.4104C109.507 53.3516 109.476 53.2985 109.424 53.2687L108.454 52.7081L108.454 51.5269L109.734 52.2663C109.786 52.2961 109.817 52.2787 109.817 52.22L109.817 51.6323C109.817 51.5735 109.786 51.5203 109.734 51.4905L107.834 50.3933C107.777 50.3605 107.751 50.3809 107.751 50.4397L107.751 54.9532C107.751 55.0119 107.777 55.0621 107.834 55.0949L108.371 55.405ZM112.264 57.653C112.321 57.6858 112.347 57.6713 112.347 57.6067L112.347 57.019C112.347 56.9602 112.321 56.91 112.264 56.8772L111.035 56.1677L111.035 52.3359C111.035 52.2771 111.01 52.227 110.953 52.1942L110.416 51.8841C110.364 51.8543 110.333 51.8716 110.333 51.9304L110.333 56.4439C110.333 56.5085 110.364 56.5558 110.416 56.5856L112.264 57.653ZM114.841 59.1408C114.903 59.1765 114.924 59.1532 114.924 59.0944L114.924 58.5067C114.924 58.4421 114.903 58.4008 114.841 58.365L113.55 57.6196L113.55 56.4325L114.536 57.002C114.588 57.0318 114.619 57.0144 114.619 56.9498L114.619 56.3679C114.619 56.3033 114.588 56.2501 114.536 56.2203L113.55 55.6509L113.55 54.4755L114.841 55.2209C114.903 55.2566 114.924 55.2274 114.924 55.1687L114.924 54.581C114.924 54.5222 114.903 54.475 114.841 54.4392L112.941 53.342C112.894 53.3152 112.863 53.3326 112.863 53.3913L112.863 57.9048C112.863 57.9636 112.894 58.0167 112.941 58.0436L114.841 59.1408ZM115.905 59.755C115.962 59.7877 116.003 59.7881 116.024 59.7412L116.519 58.6053L117.015 60.3137C117.036 60.3844 117.077 60.4317 117.134 60.4645L117.666 60.7716C117.748 60.8193 117.774 60.7755 117.743 60.6753L116.922 57.9445L117.712 56.238C117.743 56.1736 117.717 56.0999 117.635 56.0522L117.118 55.7541C117.061 55.7213 117.02 55.7209 116.999 55.7678L116.519 56.8833L116.039 55.2132C116.018 55.1425 115.977 55.0952 115.92 55.0624L115.404 54.7642C115.321 54.7165 115.295 54.7604 115.326 54.8605L116.111 57.4764L115.296 59.2621C115.265 59.3265 115.29 59.4002 115.373 59.4479L115.905 59.755Z" fill="#BDC1D1"/>
<path d="M0 0H38.2661V16.1597C38.2661 17.8165 36.923 19.1597 35.2661 19.1597H0V0Z" fill="#F27320"/>
<path d="M5 14.1597H6.91064V8.16113H6.94873L11.1001 14.1597H12.7632V5H10.8525V10.9541H10.8145L6.67578 5H5V14.1597Z" fill="white"/>
<path d="M14.293 14.1597H20.3613V12.5791H16.21V10.2749H20.1265V8.77686H16.21V6.58057H20.3613V5H14.293V14.1597Z" fill="white"/>
<path d="M23.6812 14.1597H25.5537L27.2422 8.02148H27.2803L28.9624 14.1597H30.835L33.2661 5H31.2793L29.8257 11.5635H29.7876L28.0991 5H26.417L24.7285 11.5635H24.6904L23.2432 5H21.2563L23.6812 14.1597Z" fill="white"/>
</g>
<defs>
<linearGradient id="paint0_linear" x1="166.257" y1="94.3359" x2="66.2726" y2="-41.5467" gradientUnits="userSpaceOnUse">
<stop stop-color="#A3ABD9"/>
<stop offset="1" stop-color="#A3ABD9" stop-opacity="0"/>
</linearGradient>
<radialGradient id="paint1_radial" cx="0" cy="0" r="1" gradientUnits="userSpaceOnUse" gradientTransform="translate(14.6005 8.68489) rotate(25.4082) scale(131.918 124.405)">
<stop stop-color="#3E88F6"/>
<stop offset="0.521608" stop-color="#3E9EF6" stop-opacity="0.26"/>
<stop offset="1" stop-color="#3EF6F6" stop-opacity="0"/>
</radialGradient>
<linearGradient id="paint2_linear" x1="-1.75674e-07" y1="17.0703" x2="120.974" y2="125.007" gradientUnits="userSpaceOnUse">
<stop stop-color="#3E88F6"/>
<stop offset="0.47914" stop-color="#3EB4F6" stop-opacity="0.33"/>
<stop offset="1" stop-color="#3EEBF6" stop-opacity="0"/>
</linearGradient>
<linearGradient id="paint3_linear" x1="202.051" y1="-2.09636" x2="176.463" y2="147.951" gradientUnits="userSpaceOnUse">
<stop stop-color="#0078E3"/>
<stop offset="1" stop-color="#A548B5" stop-opacity="0"/>
</linearGradient>
<clipPath id="clip0">
<rect width="211" height="115" rx="3" fill="white"/>
</clipPath>
</defs>
</svg>
