<svg enable-background="new 0 0 200.206 109.645" height="300" viewBox="0 0 200.206 109.645" width="300" xmlns="http://www.w3.org/2000/svg"><path d="m89.064 78.036c0 5.567 4.512 10.082 10.079 10.082h36.674l15.657 18.839 1.584-18.839c5.566 0 10.078-4.515 10.078-10.082l4.321-35.523c0-5.568-4.512-10.081-10.081-10.081h-63.993c-5.567 0-10.079 4.513-10.079 10.081z" fill="#26a9e0"/><path d="m84.413 78.445-1.019-6.344h-7.732l-15.561 18.722-1.568-18.722h-3.427c-5.135 0-9.315-4.178-9.315-9.315l-5.586-46.164c.109-5.042 4.246-9.109 9.312-9.109h82.789c5.049 0 9.166 4.031 9.312 9.042l-1.818 11.22h7.551l1.679-10.349.047-.597c0-9.248-7.522-16.769-16.77-16.769h-82.791c-9.246 0-16.768 7.521-16.768 16.769l5.593 46.198c.109 7.955 5.79 14.587 13.308 16.168l2.547 30.389 24.963-30.029h5.339c-.038-.367-.077-.735-.085-1.11z" fill="#ffd100"/><path d="m53.999 17.083h70.366v5.783h-70.366z" fill="#404c51"/><path d="m53.999 26.747h29.305v5.783h-29.305z" fill="#ffd100"/><path d="m53.999 36.601h22.517v5.783h-22.517z" fill="#cfd7d8"/><path d="m53.999 46.645h26.622v5.782h-26.622z" fill="#26a9e0"/><path d="m96.224 43.753h58.304v5.782h-58.304z" fill="#404c51"/><path d="m109.362 52.786h45.165v5.782h-45.165z" fill="#ffd100"/><path d="m103.614 61.819h50.913v5.782h-50.913z" fill="#cfd7d8"/></svg>