<?xml version="1.0" encoding="utf-8"?>
<!-- Generator: Adobe Illustrator 15.1.0, SVG Export Plug-In . SVG Version: 6.00 Build 0)  -->
<!DOCTYPE svg PUBLIC "-//W3C//DTD SVG 1.1//EN" "http://www.w3.org/Graphics/SVG/1.1/DTD/svg11.dtd">
<svg version="1.1" id="Layer_1" xmlns="http://www.w3.org/2000/svg" xmlns:xlink="http://www.w3.org/1999/xlink" x="0px" y="0px"
	 width="300px" height="300px" viewBox="0 0 300 300" enable-background="new 0 0 300 300" xml:space="preserve">
<g id="COMPONENTS">
	<g id="MINIBOLDCRANK">
		<path fill="#404C51" d="M191.744,228.889l6.729-1.373l-0.522-5.68l-6.867-0.121c-0.521-2.773-1.339-5.432-2.416-7.943l5.682-3.904
			l-2.696-5.025l-6.448,2.598c-1.438-2.123-3.084-4.082-4.9-5.861l3.882-5.879l-4.386-3.643l-5.142,4.963
			c-1.753-1.16-3.604-2.178-5.534-3.037l1.654-7.055l-5.377-1.9l-3.205,6.645c-2.93-0.676-5.977-1.004-9.096-0.955l-1.515-7.412
			l-5.677,0.521l-0.137,7.711c-2.382,0.502-4.677,1.217-6.861,2.135l-4.339-6.529l-5.064,2.617l2.866,7.449
			c-2.108,1.426-4.059,3.055-5.829,4.857l-6.774-4.475l-3.645,4.385l5.713,5.918c-1.252,1.904-2.341,3.922-3.238,6.031l-8.126-1.645
			l-1.737,5.43l7.626,3.398c-0.492,2.402-0.759,4.877-0.775,7.402l-8.213,1.68l0.523,5.678l8.383,0.148
			c0.474,2.467,1.184,4.838,2.101,7.098l-6.883,4.727l2.697,5.025l7.69-3.098c1.275,1.928,2.723,3.723,4.311,5.375l-4.534,6.865
			l4.384,3.643l5.843-5.639c1.59,1.109,3.262,2.104,5.011,2.965l-1.83,7.801l5.375,1.902l3.422-7.09
			c2.844,0.758,5.812,1.182,8.851,1.256l1.546,7.555l5.678-0.525l0.133-7.564c2.462-0.42,4.831-1.064,7.094-1.924l4.104,6.178
			l5.066-2.619l-2.614-6.795c2.312-1.432,4.45-3.105,6.389-4.979l5.966,3.939l3.644-4.383l-4.893-5.072
			c1.451-2.066,2.704-4.279,3.727-6.609l6.814,1.381l1.737-5.43l-6.298-2.809C191.417,234.51,191.739,231.73,191.744,228.889z
			 M130.582,237.098c-4.555,0-8.246-3.691-8.246-8.244c0-4.555,3.691-8.246,8.246-8.246c4.554,0,8.245,3.691,8.245,8.246
			C138.827,233.406,135.136,237.098,130.582,237.098z M153.592,260.109c-4.554,0-8.245-3.691-8.245-8.246s3.691-8.246,8.245-8.246
			c4.555,0,8.246,3.691,8.246,8.246S158.146,260.109,153.592,260.109z M146.1,229.482c-0.388-4.18,2.69-7.881,6.869-8.268
			c4.18-0.385,7.882,2.691,8.267,6.871c0.387,4.182-2.691,7.881-6.87,8.266C150.186,236.736,146.484,233.662,146.1,229.482z
			 M153.592,214.088c-4.554,0-8.245-3.691-8.245-8.244c0-4.557,3.691-8.246,8.245-8.246c4.555,0,8.246,3.689,8.246,8.246
			C161.838,210.396,158.146,214.088,153.592,214.088z M176.603,237.098c-4.554,0-8.245-3.691-8.245-8.244
			c0-4.555,3.691-8.246,8.245-8.246c4.555,0,8.246,3.691,8.246,8.246C184.849,233.406,181.157,237.098,176.603,237.098z"/>
	</g>
	<g id="MINIYELLOWCRANK">
		<path fill="#FFD100" d="M261.905,53.238l4.294-1.211l-0.605-3.652l-4.455,0.244c-0.468-1.774-1.123-3.456-1.938-5.032l3.497-2.798
			l-1.985-3.126l-4.054,1.985c-1.032-1.306-2.191-2.497-3.453-3.564l2.238-3.992l-3.013-2.155l-3.097,3.46
			c-1.19-0.669-2.437-1.24-3.73-1.708l0.74-4.649l-3.571-0.976l-1.765,4.454c-1.93-0.297-3.919-0.367-5.938-0.188l-1.331-4.732
			l-3.653,0.607l0.274,5.001c-1.519,0.438-2.972,1.009-4.343,1.707l-3.118-4.025l-3.158,1.936l2.208,4.69
			c-1.299,1.021-2.487,2.169-3.548,3.422l-4.6-2.581l-2.154,3.012l3.98,3.566c-0.723,1.291-1.334,2.65-1.813,4.061l-5.342-0.685
			l-0.868,3.6l5.099,1.843c-0.206,1.579-0.263,3.195-0.153,4.833l-5.241,1.474l0.607,3.654l5.437-0.299
			c0.424,1.576,0.995,3.078,1.696,4.5l-4.236,3.389l1.984,3.128l4.836-2.37c0.917,1.187,1.938,2.283,3.046,3.278l-2.615,4.66
			l3.013,2.156l3.521-3.929c1.082,0.644,2.213,1.21,3.386,1.684l-0.818,5.142l3.573,0.979l1.882-4.755
			c1.878,0.358,3.819,0.493,5.792,0.397l1.358,4.821l3.653-0.607l-0.27-4.909c1.574-0.385,3.079-0.917,4.504-1.579l2.952,3.807
			l3.159-1.935l-2.017-4.278c1.429-1.038,2.739-2.222,3.905-3.528l4.05,2.272l2.154-3.012l-3.409-3.055
			c0.843-1.406,1.552-2.899,2.104-4.459l4.48,0.577l0.869-3.603l-4.214-1.522C261.958,56.894,262.038,55.078,261.905,53.238z
			 M237.432,74.764c-10.893,0-19.72-8.83-19.72-19.722c0-10.89,8.827-19.719,19.72-19.719c10.892,0,19.72,8.83,19.72,19.719
			C257.151,65.935,248.323,74.764,237.432,74.764z"/>
		<path fill="#404C51" d="M237.267,40.854c-7.837,0-14.189,6.354-14.189,14.189c0,7.836,6.353,14.19,14.189,14.19
			s14.188-6.354,14.188-14.19C251.455,47.207,245.104,40.854,237.267,40.854z M237.267,62.365c-4.042,0-7.32-3.278-7.32-7.322
			c0-4.041,3.278-7.321,7.32-7.321c4.043,0,7.32,3.28,7.32,7.321C244.587,59.086,241.31,62.365,237.267,62.365z"/>
	</g>
	<g id="BOLDBIGCRANK">
		<path fill="#404C51" d="M172.405,121.707v-10.739l-12.856-1.416c-0.498-5.295-1.573-10.419-3.158-15.316l11.331-6.34l-4.188-9.887
			l-12.537,3.752c-2.33-4.226-5.08-8.186-8.182-11.835l8.299-10.354l-7.593-7.593l-10.504,8.419
			c-3.086-2.478-6.379-4.704-9.854-6.651l4.322-12.943l-9.752-4.494l-7.161,11.904c-5.378-1.77-11.034-2.914-16.889-3.36
			l-1.56-14.166H81.387l-1.59,14.436c-4.554,0.528-8.979,1.472-13.233,2.814l-7.009-12.993l-9.95,4.036l4.087,14.461
			c-4.2,2.307-8.139,5.027-11.774,8.099l-11.928-9.563l-7.593,7.593l9.688,12.086c-2.677,3.354-5.068,6.947-7.114,10.753
			l-14.954-4.496l-4.194,9.884l13.71,7.692c-1.339,4.418-2.268,9.016-2.735,13.75l-15.69,1.727v10.739l15.69,1.727
			c0.465,4.708,1.388,9.278,2.715,13.674l-13.726,7.678l4.188,9.888l14.961-4.477c2.057,3.833,4.458,7.448,7.152,10.822
			l-9.693,12.088l7.594,7.595l11.933-9.566c2.789,2.357,5.753,4.512,8.884,6.426l-4.782,14.316l9.753,4.494l7.643-12.705
			c5.201,1.914,10.691,3.225,16.38,3.885l1.59,14.436h10.738l1.56-14.166c4.686-0.357,9.246-1.16,13.635-2.377l6.631,12.293
			l9.953-4.035l-3.728-13.193c4.581-2.289,8.884-5.053,12.842-8.232l10.505,8.422l7.593-7.594l-8.3-10.355
			c3.08-3.626,5.812-7.557,8.132-11.751l12.541,3.771l4.198-9.884l-11.326-6.355c1.602-4.925,2.688-10.08,3.188-15.406
			L172.405,121.707z M88.162,130.651c-7.906,0-14.315-6.408-14.315-14.313s6.409-14.314,14.315-14.314
			c7.904,0,14.313,6.409,14.313,14.314S96.066,130.651,88.162,130.651z"/>
		<path fill="#00ADEE" d="M87.886,171.179c-30.241,0-54.842-24.602-54.842-54.841c0-30.24,24.601-54.842,54.842-54.842
			c30.24,0,54.841,24.602,54.841,54.842C142.727,146.577,118.126,171.179,87.886,171.179z M87.886,69.166
			c-26.012,0-47.172,21.161-47.172,47.172c0,26.011,21.16,47.171,47.172,47.171c26.011,0,47.171-21.161,47.171-47.171
			C135.057,90.326,113.896,69.166,87.886,69.166z"/>
		<path fill="#CFD7D8" d="M87.886,92.176c-13.344,0-24.161,10.817-24.161,24.161c0,13.343,10.817,24.161,24.161,24.161
			c13.343,0,24.16-10.817,24.16-24.161C112.046,102.994,101.229,92.176,87.886,92.176z M87.886,128.801
			c-6.884,0-12.465-5.58-12.465-12.464s5.581-12.464,12.465-12.464c6.002,0,11.011,4.244,12.195,9.893l-10.36-2.47
			c-2.883-0.687-5.778,1.094-6.468,3.98c-0.688,2.881,1.092,5.778,3.978,6.466l10.319,2.461
			C95.265,127.008,91.785,128.801,87.886,128.801z"/>
	</g>
	<g id="BLUEOPTIMUSCRANK">
		<rect x="225.968" y="97.929" fill="#FFD100" width="14.956" height="102.013"/>
		<rect x="182.438" y="141.457" fill="#FFD100" width="102.014" height="14.957"/>
		<circle fill="#CFD7D8" cx="233.446" cy="149.265" r="24.161"/>
		<path fill="#26A9E0" d="M289.165,145.173l9.729-2.738l-1.375-8.277l-10.092,0.554c-1.062-4.018-2.548-7.83-4.395-11.402
			l7.922-6.339l-4.495-7.085l-9.186,4.497c-2.337-2.958-4.965-5.66-7.822-8.075l5.071-9.045l-6.824-4.88l-7.02,7.836
			c-2.694-1.516-5.521-2.811-8.447-3.867l1.673-10.532l-8.092-2.215l-3.996,10.092c-4.374-0.674-8.88-0.833-13.451-0.425
			l-3.015-10.722l-8.279,1.375l0.623,11.332c-3.442,0.991-6.734,2.284-9.842,3.863l-7.064-9.117l-7.155,4.386l5.001,10.625
			c-2.941,2.316-5.631,4.917-8.038,7.751l-10.421-5.846l-4.881,6.825l9.018,8.078c-1.633,2.928-3.017,6.004-4.107,9.201
			l-12.102-1.55l-1.972,8.157l11.557,4.174c-0.468,3.578-0.594,7.24-0.348,10.949l-11.874,3.342l1.374,8.277l12.318-0.679
			c0.959,3.571,2.256,6.976,3.844,10.194l-9.6,7.676l4.494,7.088l10.962-5.367c2.075,2.689,4.391,5.17,6.898,7.426l-5.924,10.561
			l6.826,4.881l7.973-8.9c2.452,1.459,5.012,2.74,7.671,3.814l-1.853,11.648l8.094,2.217l4.266-10.775
			c4.255,0.811,8.655,1.119,13.125,0.9l3.074,10.924l8.277-1.375l-0.612-11.121c3.568-0.875,6.98-2.08,10.207-3.578l6.687,8.625
			l7.156-4.383l-4.563-9.693c3.239-2.354,6.201-5.033,8.846-7.992l9.177,5.148l4.881-6.826l-7.725-6.922
			c1.911-3.188,3.515-6.568,4.765-10.1l10.149,1.3l1.971-8.157l-9.544-3.448C289.282,153.458,289.46,149.343,289.165,145.173z
			 M233.713,193.943c-24.676,0-44.68-20.002-44.68-44.679c0-24.676,20.004-44.678,44.68-44.678s44.678,20.002,44.678,44.678
			C278.391,173.941,258.389,193.943,233.713,193.943z"/>
		<polygon fill="#26A9E0" points="231.168,148.793 222.224,145.458 220.87,139.749 227.968,141.167 		"/>
		<polygon fill="#26A9E0" points="235.525,148.793 244.471,145.458 245.823,139.749 238.727,141.167 		"/>
		<polygon fill="#26A9E0" points="228.23,140.64 223.708,139.749 226.779,135.689 230.64,135.689 		"/>
		<polygon fill="#26A9E0" points="238.396,140.64 242.918,139.749 239.848,135.689 235.987,135.689 		"/>
		<polygon fill="#26A9E0" points="237.88,141.692 234.684,150.03 235.641,156.358 230.887,156.358 231.965,150.021 228.76,141.692 
			230.839,135.689 235.756,135.689 		"/>
		<polygon fill="#26A9E0" points="224.418,149.635 227.556,151.316 227.556,157.967 222.405,153.562 222.405,146.119 
			224.418,146.944 		"/>
		<polygon fill="#26A9E0" points="242.177,149.635 239.041,151.316 239.041,157.967 244.189,153.562 244.189,146.119 
			242.177,146.944 		"/>
		<polygon fill="#26A9E0" points="236.696,148.908 235.525,149.518 235.525,150.666 236.259,156.768 234.688,158.363 
			233.32,158.376 231.953,158.363 230.38,156.768 231.114,150.666 231.114,149.518 229.942,148.908 228.325,151.631 228.325,161.52 
			229.997,159.985 233.32,159.947 236.643,159.985 238.312,161.52 238.312,151.631 		"/>
		<polygon fill="#26A9E0" points="235.492,165.063 231.119,165.063 229.583,163.488 231.119,161.912 235.492,161.912 
			237.077,163.488 		"/>
		<polygon fill="#26A9E0" points="227.556,161.912 224.699,158.743 224.699,156.582 227.556,158.446 		"/>
		<polygon fill="#26A9E0" points="238.959,161.912 241.812,158.743 241.812,156.582 238.959,158.446 		"/>
		<polygon fill="#26A9E0" points="236.284,161.52 230.355,161.52 229.179,163.13 228.325,162.684 230.326,160.674 236.334,160.674 
			238.312,162.684 237.473,163.13 		"/>
	</g>
</g>
</svg>
