<svg enable-background="new 0 0 300 300" height="300" viewBox="0 0 300 300" width="300" xmlns="http://www.w3.org/2000/svg"><path d="m191.744 228.889 6.729-1.373-.522-5.68-6.867-.121c-.521-2.773-1.339-5.432-2.416-7.943l5.682-3.904-2.696-5.025-6.448 2.598c-1.438-2.123-3.084-4.082-4.9-5.861l3.882-5.879-4.386-3.643-5.142 4.963c-1.753-1.16-3.604-2.178-5.534-3.037l1.654-7.055-5.377-1.9-3.205 6.645c-2.93-.676-5.977-1.004-9.096-.955l-1.515-7.412-5.677.521-.137 7.711c-2.382.502-4.677 1.217-6.861 2.135l-4.339-6.529-5.064 2.617 2.866 7.449c-2.108 1.426-4.059 3.055-5.829 4.857l-6.774-4.475-3.645 4.385 5.713 5.918c-1.252 1.904-2.341 3.922-3.238 6.031l-8.126-1.645-1.737 5.43 7.626 3.398c-.492 2.402-.759 4.877-.775 7.402l-8.213 1.68.523 5.678 8.383.148c.474 2.467 1.184 4.838 2.101 7.098l-6.883 4.727 2.697 5.025 7.69-3.098c1.275 1.928 2.723 3.723 4.311 5.375l-4.534 6.865 4.384 3.643 5.843-5.639c1.59 1.109 3.262 2.104 5.011 2.965l-1.83 7.801 5.375 1.902 3.422-7.09c2.844.758 5.812 1.182 8.851 1.256l1.546 7.555 5.678-.525.133-7.564c2.462-.42 4.831-1.064 7.094-1.924l4.104 6.178 5.066-2.619-2.614-6.795c2.312-1.432 4.45-3.105 6.389-4.979l5.966 3.939 3.644-4.383-4.893-5.072c1.451-2.066 2.704-4.279 3.727-6.609l6.814 1.381 1.737-5.43-6.298-2.809c.603-2.682.925-5.462.93-8.303zm-61.162 8.209c-4.555 0-8.246-3.691-8.246-8.244 0-4.555 3.691-8.246 8.246-8.246 4.554 0 8.245 3.691 8.245 8.246 0 4.552-3.691 8.244-8.245 8.244zm23.01 23.011c-4.554 0-8.245-3.691-8.245-8.246s3.691-8.246 8.245-8.246c4.555 0 8.246 3.691 8.246 8.246s-3.692 8.246-8.246 8.246zm-7.492-30.627c-.388-4.18 2.69-7.881 6.869-8.268 4.18-.385 7.882 2.691 8.267 6.871.387 4.182-2.691 7.881-6.87 8.266-4.18.385-7.882-2.689-8.266-6.869zm7.492-15.394c-4.554 0-8.245-3.691-8.245-8.244 0-4.557 3.691-8.246 8.245-8.246 4.555 0 8.246 3.689 8.246 8.246 0 4.552-3.692 8.244-8.246 8.244zm23.011 23.01c-4.554 0-8.245-3.691-8.245-8.244 0-4.555 3.691-8.246 8.245-8.246 4.555 0 8.246 3.691 8.246 8.246 0 4.552-3.692 8.244-8.246 8.244z" fill="#404c51"/><path d="m261.905 53.238 4.294-1.211-.605-3.652-4.455.244c-.468-1.774-1.123-3.456-1.938-5.032l3.497-2.798-1.985-3.126-4.054 1.985c-1.032-1.306-2.191-2.497-3.453-3.564l2.238-3.992-3.013-2.155-3.097 3.46c-1.19-.669-2.437-1.24-3.73-1.708l.74-4.649-3.571-.976-1.765 4.454c-1.93-.297-3.919-.367-5.938-.188l-1.331-4.732-3.653.607.274 5.001c-1.519.438-2.972 1.009-4.343 1.707l-3.118-4.025-3.158 1.936 2.208 4.69c-1.299 1.021-2.487 2.169-3.548 3.422l-4.6-2.581-2.154 3.012 3.98 3.566c-.723 1.291-1.334 2.65-1.813 4.061l-5.342-.685-.868 3.6 5.099 1.843c-.206 1.579-.263 3.195-.153 4.833l-5.241 1.474.607 3.654 5.437-.299c.424 1.576.995 3.078 1.696 4.5l-4.236 3.389 1.984 3.128 4.836-2.37c.917 1.187 1.938 2.283 3.046 3.278l-2.615 4.66 3.013 2.156 3.521-3.929c1.082.644 2.213 1.21 3.386 1.684l-.818 5.142 3.573.979 1.882-4.755c1.878.358 3.819.493 5.792.397l1.358 4.821 3.653-.607-.27-4.909c1.574-.385 3.079-.917 4.504-1.579l2.952 3.807 3.159-1.935-2.017-4.278c1.429-1.038 2.739-2.222 3.905-3.528l4.05 2.272 2.154-3.012-3.409-3.055c.843-1.406 1.552-2.899 2.104-4.459l4.48.577.869-3.603-4.214-1.522c.267-1.769.347-3.585.214-5.425zm-24.473 21.526c-10.893 0-19.72-8.83-19.72-19.722 0-10.89 8.827-19.719 19.72-19.719 10.892 0 19.72 8.83 19.72 19.719-.001 10.893-8.829 19.722-19.72 19.722z" fill="#ffd100"/><path d="m237.267 40.854c-7.837 0-14.189 6.354-14.189 14.189 0 7.836 6.353 14.19 14.189 14.19s14.188-6.354 14.188-14.19-6.351-14.189-14.188-14.189zm0 21.511c-4.042 0-7.32-3.278-7.32-7.322 0-4.041 3.278-7.321 7.32-7.321 4.043 0 7.32 3.28 7.32 7.321 0 4.043-3.277 7.322-7.32 7.322z" fill="#404c51"/><path d="m172.405 121.707v-10.739l-12.856-1.416c-.498-5.295-1.573-10.419-3.158-15.316l11.331-6.34-4.188-9.887-12.537 3.752c-2.33-4.226-5.08-8.186-8.182-11.835l8.299-10.354-7.593-7.593-10.504 8.419c-3.086-2.478-6.379-4.704-9.854-6.651l4.322-12.943-9.752-4.494-7.161 11.904c-5.378-1.77-11.034-2.914-16.889-3.36l-1.56-14.166h-10.736l-1.59 14.436c-4.554.528-8.979 1.472-13.233 2.814l-7.009-12.993-9.95 4.036 4.087 14.461c-4.2 2.307-8.139 5.027-11.774 8.099l-11.928-9.563-7.593 7.593 9.688 12.086c-2.677 3.354-5.068 6.947-7.114 10.753l-14.954-4.496-4.194 9.884 13.71 7.692c-1.339 4.418-2.268 9.016-2.735 13.75l-15.69 1.727v10.739l15.69 1.727c.465 4.708 1.388 9.278 2.715 13.674l-13.726 7.678 4.188 9.888 14.961-4.477c2.057 3.833 4.458 7.448 7.152 10.822l-9.693 12.088 7.594 7.595 11.933-9.566c2.789 2.357 5.753 4.512 8.884 6.426l-4.782 14.316 9.753 4.494 7.643-12.705c5.201 1.914 10.691 3.225 16.38 3.885l1.59 14.436h10.738l1.56-14.166c4.686-.357 9.246-1.16 13.635-2.377l6.631 12.293 9.953-4.035-3.728-13.193c4.581-2.289 8.884-5.053 12.842-8.232l10.505 8.422 7.593-7.594-8.3-10.355c3.08-3.626 5.812-7.557 8.132-11.751l12.541 3.771 4.198-9.884-11.326-6.355c1.602-4.925 2.688-10.08 3.188-15.406zm-84.243 8.944c-7.906 0-14.315-6.408-14.315-14.313s6.409-14.314 14.315-14.314c7.904 0 14.313 6.409 14.313 14.314s-6.409 14.313-14.313 14.313z" fill="#404c51"/><path d="m87.886 171.179c-30.241 0-54.842-24.602-54.842-54.841 0-30.24 24.601-54.842 54.842-54.842 30.24 0 54.841 24.602 54.841 54.842 0 30.239-24.601 54.841-54.841 54.841zm0-102.013c-26.012 0-47.172 21.161-47.172 47.172s21.16 47.171 47.172 47.171c26.011 0 47.171-21.161 47.171-47.171 0-26.012-21.161-47.172-47.171-47.172z" fill="#00adee"/><path d="m87.886 92.176c-13.344 0-24.161 10.817-24.161 24.161 0 13.343 10.817 24.161 24.161 24.161 13.343 0 24.16-10.817 24.16-24.161 0-13.343-10.817-24.161-24.16-24.161zm0 36.625c-6.884 0-12.465-5.58-12.465-12.464s5.581-12.464 12.465-12.464c6.002 0 11.011 4.244 12.195 9.893l-10.36-2.47c-2.883-.687-5.778 1.094-6.468 3.98-.688 2.881 1.092 5.778 3.978 6.466l10.319 2.461c-2.285 2.805-5.765 4.598-9.664 4.598z" fill="#cfd7d8"/><path d="m225.968 97.929h14.956v102.013h-14.956z" fill="#ffd100"/><path d="m182.438 141.457h102.014v14.957h-102.014z" fill="#ffd100"/><circle cx="233.446" cy="149.265" fill="#cfd7d8" r="24.161"/><g fill="#26a9e0"><path d="m289.165 145.173 9.729-2.738-1.375-8.277-10.092.554c-1.062-4.018-2.548-7.83-4.395-11.402l7.922-6.339-4.495-7.085-9.186 4.497c-2.337-2.958-4.965-5.66-7.822-8.075l5.071-9.045-6.824-4.88-7.02 7.836c-2.694-1.516-5.521-2.811-8.447-3.867l1.673-10.532-8.092-2.215-3.996 10.092c-4.374-.674-8.88-.833-13.451-.425l-3.015-10.722-8.279 1.375.623 11.332c-3.442.991-6.734 2.284-9.842 3.863l-7.064-9.117-7.155 4.386 5.001 10.625c-2.941 2.316-5.631 4.917-8.038 7.751l-10.421-5.846-4.881 6.825 9.018 8.078c-1.633 2.928-3.017 6.004-4.107 9.201l-12.102-1.55-1.972 8.157 11.557 4.174c-.468 3.578-.594 7.24-.348 10.949l-11.874 3.342 1.374 8.277 12.318-.679c.959 3.571 2.256 6.976 3.844 10.194l-9.6 7.676 4.494 7.088 10.962-5.367c2.075 2.689 4.391 5.17 6.898 7.426l-5.924 10.561 6.826 4.881 7.973-8.9c2.452 1.459 5.012 2.74 7.671 3.814l-1.853 11.648 8.094 2.217 4.266-10.775c4.255.811 8.655 1.119 13.125.9l3.074 10.924 8.277-1.375-.612-11.121c3.568-.875 6.98-2.08 10.207-3.578l6.687 8.625 7.156-4.383-4.563-9.693c3.239-2.354 6.201-5.033 8.846-7.992l9.177 5.148 4.881-6.826-7.725-6.922c1.911-3.188 3.515-6.568 4.765-10.1l10.149 1.3 1.971-8.157-9.544-3.448c.602-4 .78-8.115.485-12.285zm-55.452 48.77c-24.676 0-44.68-20.002-44.68-44.679 0-24.676 20.004-44.678 44.68-44.678s44.678 20.002 44.678 44.678c0 24.677-20.002 44.679-44.678 44.679z"/><path d="m231.168 148.793-8.944-3.335-1.354-5.709 7.098 1.418z"/><path d="m235.525 148.793 8.946-3.335 1.352-5.709-7.096 1.418z"/><path d="m228.23 140.64-4.522-.891 3.071-4.06h3.861z"/><path d="m238.396 140.64 4.522-.891-3.07-4.06h-3.861z"/><path d="m237.88 141.692-3.196 8.338.957 6.328h-4.754l1.078-6.337-3.205-8.329 2.079-6.003h4.917z"/><path d="m224.418 149.635 3.138 1.681v6.651l-5.151-4.405v-7.443l2.013.825z"/><path d="m242.177 149.635-3.136 1.681v6.651l5.148-4.405v-7.443l-2.012.825z"/><path d="m236.696 148.908-1.171.61v1.148l.734 6.102-1.571 1.595-1.368.013-1.367-.013-1.573-1.595.734-6.102v-1.148l-1.172-.61-1.617 2.723v9.889l1.672-1.535 3.323-.038 3.323.038 1.669 1.535v-9.889z"/><path d="m235.492 165.063h-4.373l-1.536-1.575 1.536-1.576h4.373l1.585 1.576z"/><path d="m227.556 161.912-2.857-3.169v-2.161l2.857 1.864z"/><path d="m238.959 161.912 2.853-3.169v-2.161l-2.853 1.864z"/><path d="m236.284 161.52h-5.929l-1.176 1.61-.854-.446 2.001-2.01h6.008l1.978 2.01-.839.446z"/></g></svg>