<svg enable-background="new 0 0 64.126 64.126" height="64.126" viewBox="0 0 64.126 64.126" width="64.126" xmlns="http://www.w3.org/2000/svg"><path d="m62.346 7.837-4.988-6.056c-.713-1.069-2.137-1.781-3.919-1.781h-42.751c-1.782 0-3.208.712-4.276 1.781l-4.631 6.056c-1.068 1.426-1.781 2.851-1.781 4.632v44.532c0 3.92 3.207 7.125 7.126 7.125h49.875c3.919 0 7.125-3.205 7.125-7.125v-44.532c0-1.781-.713-3.206-1.78-4.632zm-30.284 43.82-19.593-19.594h12.47v-7.125h14.25v7.125h12.47zm-24.582-44.532 2.851-3.562h42.752l3.206 3.562z" fill="#404c51"/><path d="m39.188 24.963h-14.25v7.124h-12.469l19.593 19.596 19.596-19.596h-12.47z" fill="#ffd100"/><path d="m10.322 3.552-2.85 3.563h48.808l-3.206-3.563z" fill="#cfd7d8"/></svg>