<?xml version="1.0" encoding="utf-8"?>
<!-- Generator: Adobe Illustrator 15.1.0, SVG Export Plug-In . SVG Version: 6.00 Build 0)  -->
<!DOCTYPE svg PUBLIC "-//W3C//DTD SVG 1.1//EN" "http://www.w3.org/Graphics/SVG/1.1/DTD/svg11.dtd">
<svg version="1.1" id="Layer_1" xmlns="http://www.w3.org/2000/svg" xmlns:xlink="http://www.w3.org/1999/xlink" x="0px" y="0px"
	 width="64.126px" height="64.126px" viewBox="0 0 64.126 64.126" enable-background="new 0 0 64.126 64.126" xml:space="preserve">
<g>
	<g>
		<g id="archive">
			<path fill="#404C51" d="M62.346,7.837l-4.988-6.056C56.645,0.712,55.221,0,53.439,0H10.688C8.906,0,7.48,0.712,6.412,1.781
				L1.781,7.837C0.713,9.263,0,10.688,0,12.469v44.532c0,3.92,3.207,7.125,7.126,7.125h49.875c3.919,0,7.125-3.205,7.125-7.125
				V12.469C64.126,10.688,63.413,9.263,62.346,7.837z M32.062,51.657L12.469,32.063h12.47v-7.125h14.25v7.125h12.47L32.062,51.657z
				 M7.48,7.125l2.851-3.562h42.752l3.206,3.562H7.48z"/>
		</g>
	</g>
	<polygon fill="#FFD100" points="39.188,24.963 24.938,24.963 24.938,32.087 12.469,32.087 32.062,51.683 51.658,32.087 
		39.188,32.087 	"/>
	<polygon fill="#CFD7D8" points="10.322,3.552 7.472,7.115 56.28,7.115 53.074,3.552 	"/>
</g>
</svg>
