<?xml version="1.0" encoding="utf-8"?>
<!-- Generator: Adobe Illustrator 15.1.0, SVG Export Plug-In . SVG Version: 6.00 Build 0)  -->
<!DOCTYPE svg PUBLIC "-//W3C//DTD SVG 1.1//EN" "http://www.w3.org/Graphics/SVG/1.1/DTD/svg11.dtd">
<svg version="1.1" id="Layer_1" xmlns="http://www.w3.org/2000/svg" xmlns:xlink="http://www.w3.org/1999/xlink" x="0px" y="0px"
	 width="300px" height="300px" viewBox="0 0 300 300" enable-background="new 0 0 300 300" xml:space="preserve">
<g>
	<path fill="#404C51" d="M280.355,20.484H20.826c-7.243,0-13.141,5.897-13.141,13.145v170.033c0,7.249,5.898,13.145,13.141,13.145
		h88.407l-6.55,22.933h-19.21c-2.316,0-4.192,1.88-4.192,4.196c0,2.315,1.876,4.193,4.192,4.193h22.363c0.003,0,0.01,0,0.014,0
		s0.01,0,0.014,0h53.676c2.317,0,4.197-1.878,4.197-4.193c0-2.316-1.88-4.196-4.197-4.196h-48.132l6.553-22.933h41.579
		c2.317,0,4.197-1.88,4.197-4.192c0-2.319-1.88-4.196-4.197-4.196H20.826c-2.617,0-4.752-2.136-4.752-4.756V33.629
		c0-2.624,2.135-4.756,4.752-4.756h259.53c2.62,0,4.752,2.132,4.752,4.756v170.033c0,2.32,1.88,4.196,4.196,4.196
		s4.196-1.876,4.196-4.196V33.629C293.5,26.381,287.601,20.484,280.355,20.484z"/>
	<path fill="#FFD100" d="M271.407,38.383H29.778c-2.317,0-4.196,1.878-4.196,4.194v152.139c0,2.313,1.879,4.192,4.196,4.192h129.76
		c2.317,0,4.197-1.879,4.197-4.192c0-2.319-1.88-4.195-4.197-4.195H33.974V82.569h233.237v18.179c0,2.316,1.876,4.194,4.196,4.194
		c2.315,0,4.191-1.878,4.191-4.194v-58.17C275.599,40.261,273.723,38.383,271.407,38.383z M33.974,74.181V46.772h233.237v27.408
		H33.974z"/>
	<path fill="#404C51" d="M226.661,56.282H92.42c-2.313,0-4.193,1.876-4.193,4.195c0,2.316,1.879,4.194,4.193,4.194h134.241
		c2.312,0,4.196-1.878,4.196-4.194C230.857,58.158,228.974,56.282,226.661,56.282z"/>
	<path fill="#404C51" d="M253.506,56.282h-8.947c-2.317,0-4.197,1.876-4.197,4.195c0,2.316,1.88,4.194,4.197,4.194h8.947
		c2.317,0,4.197-1.878,4.197-4.194C257.703,58.158,255.823,56.282,253.506,56.282z"/>
	<path fill="#404C51" d="M47.675,56.282c-1.099,0-2.187,0.447-2.965,1.229c-0.781,0.778-1.229,1.863-1.229,2.965
		c0,1.102,0.447,2.186,1.229,2.964c0.778,0.783,1.866,1.229,2.965,1.229c1.105,0,2.19-0.447,2.964-1.229
		c0.785-0.778,1.231-1.863,1.231-2.964c0-1.102-0.447-2.187-1.231-2.965C49.865,56.729,48.78,56.282,47.675,56.282z"/>
	<path fill="#404C51" d="M61.099,56.282c-1.105,0-2.184,0.447-2.964,1.229c-0.782,0.778-1.229,1.858-1.229,2.965
		c0,1.102,0.447,2.186,1.229,2.964c0.781,0.783,1.862,1.229,2.964,1.229c1.105,0,2.187-0.447,2.964-1.229
		c0.782-0.778,1.232-1.863,1.232-2.964c0-1.107-0.45-2.187-1.232-2.965C63.286,56.729,62.208,56.282,61.099,56.282z"/>
	<path fill="#404C51" d="M74.523,56.282c-1.102,0-2.187,0.447-2.965,1.229c-0.785,0.778-1.231,1.863-1.231,2.965
		c0,1.102,0.447,2.186,1.231,2.964c0.778,0.783,1.863,1.229,2.965,1.229c1.108,0,2.187-0.447,2.965-1.229
		c0.784-0.778,1.228-1.863,1.228-2.964c0-1.102-0.444-2.187-1.228-2.965C76.71,56.729,75.632,56.282,74.523,56.282z"/>
	<path fill="#404C51" d="M262.455,114.45h-76.067c-7.246,0-13.145,5.897-13.145,13.145v138.71c0,7.253,5.898,13.148,13.145,13.148
		h76.067c7.25,0,13.144-5.896,13.144-13.148v-138.71C275.599,120.347,269.705,114.45,262.455,114.45z M181.636,140.738h85.575
		v18.457h-85.575V140.738z M181.636,167.589h85.575v85.574h-85.575V167.589z M186.388,122.841h76.067
		c2.623,0,4.756,2.132,4.756,4.754v4.754h-85.575v-4.754C181.636,124.973,183.769,122.841,186.388,122.841z M262.455,271.061
		h-76.067c-2.619,0-4.752-2.129-4.752-4.756v-4.753h85.575v4.753C267.211,268.932,265.078,271.061,262.455,271.061z"/>
	<path fill="#FFD100" d="M240.085,145.773h-49.221c-2.317,0-4.193,1.878-4.193,4.194c0,2.316,1.876,4.196,4.193,4.196h49.221
		c2.317,0,4.193-1.88,4.193-4.196C244.278,147.652,242.402,145.773,240.085,145.773z"/>
	<path fill="#FFD100" d="M257.982,145.773h-4.477c-2.316,0-4.192,1.878-4.192,4.194c0,2.316,1.876,4.196,4.192,4.196h4.477
		c2.316,0,4.195-1.88,4.195-4.196C262.178,147.652,260.299,145.773,257.982,145.773z"/>
	<path fill="#404C51" d="M56.623,96.552c-4.78,0-8.665,3.889-8.665,8.67v58.17c0,4.779,3.885,8.668,8.665,8.668h67.122
		c4.779,0,8.669-3.889,8.669-8.668v-58.17c0-4.781-3.89-8.67-8.669-8.67H56.623z M96.528,134.306l27.494-24.263v48.529
		L96.528,134.306z M90.186,128.712l-26.94-23.77h53.882L90.186,128.712z M56.347,158.571v-48.529l27.497,24.263L56.347,158.571z
		 M90.186,139.9l26.941,23.771H63.245L90.186,139.9z"/>
	<path fill="#CFD7D8" d="M150.59,104.942h102.916c2.317,0,4.197-1.878,4.197-4.194c0-2.317-1.88-4.196-4.197-4.196H150.59
		c-2.315,0-4.192,1.879-4.192,4.196C146.398,103.064,148.274,104.942,150.59,104.942z"/>
	<path fill="#CFD7D8" d="M159.538,118.924h-8.948c-2.315,0-4.192,1.88-4.192,4.196c0,2.317,1.876,4.195,4.192,4.195h8.948
		c2.317,0,4.197-1.878,4.197-4.195C163.735,120.804,161.855,118.924,159.538,118.924z"/>
	<path fill="#CFD7D8" d="M159.538,141.299h-8.948c-2.315,0-4.192,1.876-4.192,4.195c0,2.316,1.876,4.194,4.192,4.194h8.948
		c2.317,0,4.197-1.878,4.197-4.194C163.735,143.175,161.855,141.299,159.538,141.299z"/>
	<path fill="#CFD7D8" d="M159.538,163.672h-8.948c-2.315,0-4.192,1.877-4.192,4.193c0,2.315,1.876,4.195,4.192,4.195h8.948
		c2.317,0,4.197-1.88,4.197-4.195C163.735,165.549,161.855,163.672,159.538,163.672z"/>
	<path fill="#FFD100" d="M249.031,177.093h-49.219c-4.779,0-8.672,3.89-8.672,8.672v31.322c0,4.779,3.893,8.668,8.672,8.668h49.219
		c4.782,0,8.672-3.889,8.672-8.668v-31.322C257.703,180.982,253.813,177.093,249.031,177.093z M232.235,201.424l17.078-10.866
		v21.735L232.235,201.424z M224.423,196.453l-17.234-10.968h34.47L224.423,196.453z M199.532,212.293v-21.735l17.078,10.866
		L199.532,212.293z M224.423,206.398l17.235,10.968h-34.47L224.423,206.398z"/>
	<path fill="#404C51" d="M253.506,235.267h-58.169c-2.313,0-4.196,1.876-4.196,4.192s1.883,4.193,4.196,4.193h58.169
		c2.317,0,4.197-1.877,4.197-4.193S255.823,235.267,253.506,235.267z"/>
</g>
</svg>
