<svg enable-background="new 0 0 300 300" height="300" viewBox="0 0 300 300" width="300" xmlns="http://www.w3.org/2000/svg"><path d="m280.355 20.484h-259.529c-7.243 0-13.141 5.897-13.141 13.145v170.033c0 7.249 5.898 13.145 13.141 13.145h88.407l-6.55 22.933h-19.21c-2.316 0-4.192 1.88-4.192 4.196 0 2.315 1.876 4.193 4.192 4.193h22.363.014s.01 0 .014 0h53.676c2.317 0 4.197-1.878 4.197-4.193 0-2.316-1.88-4.196-4.197-4.196h-48.132l6.553-22.933h41.579c2.317 0 4.197-1.88 4.197-4.192 0-2.319-1.88-4.196-4.197-4.196h-138.714c-2.617 0-4.752-2.136-4.752-4.756v-170.034c0-2.624 2.135-4.756 4.752-4.756h259.53c2.62 0 4.752 2.132 4.752 4.756v170.033c0 2.32 1.88 4.196 4.196 4.196s4.196-1.876 4.196-4.196v-170.033c0-7.248-5.899-13.145-13.145-13.145z" fill="#404c51"/><path d="m271.407 38.383h-241.629c-2.317 0-4.196 1.878-4.196 4.194v152.139c0 2.313 1.879 4.192 4.196 4.192h129.76c2.317 0 4.197-1.879 4.197-4.192 0-2.319-1.88-4.195-4.197-4.195h-125.564v-107.952h233.237v18.179c0 2.316 1.876 4.194 4.196 4.194 2.315 0 4.191-1.878 4.191-4.194v-58.17c.001-2.317-1.875-4.195-4.191-4.195zm-237.433 35.798v-27.409h233.237v27.408h-233.237z" fill="#ffd100"/><g fill="#404c51"><path d="m226.661 56.282h-134.241c-2.313 0-4.193 1.876-4.193 4.195 0 2.316 1.879 4.194 4.193 4.194h134.241c2.312 0 4.196-1.878 4.196-4.194 0-2.319-1.883-4.195-4.196-4.195z"/><path d="m253.506 56.282h-8.947c-2.317 0-4.197 1.876-4.197 4.195 0 2.316 1.88 4.194 4.197 4.194h8.947c2.317 0 4.197-1.878 4.197-4.194 0-2.319-1.88-4.195-4.197-4.195z"/><path d="m47.675 56.282c-1.099 0-2.187.447-2.965 1.229-.781.778-1.229 1.863-1.229 2.965s.447 2.186 1.229 2.964c.778.783 1.866 1.229 2.965 1.229 1.105 0 2.19-.447 2.964-1.229.785-.778 1.231-1.863 1.231-2.964 0-1.102-.447-2.187-1.231-2.965-.774-.782-1.859-1.229-2.964-1.229z"/><path d="m61.099 56.282c-1.105 0-2.184.447-2.964 1.229-.782.778-1.229 1.858-1.229 2.965 0 1.102.447 2.186 1.229 2.964.781.783 1.862 1.229 2.964 1.229 1.105 0 2.187-.447 2.964-1.229.782-.778 1.232-1.863 1.232-2.964 0-1.107-.45-2.187-1.232-2.965-.777-.782-1.855-1.229-2.964-1.229z"/><path d="m74.523 56.282c-1.102 0-2.187.447-2.965 1.229-.785.778-1.231 1.863-1.231 2.965s.447 2.186 1.231 2.964c.778.783 1.863 1.229 2.965 1.229 1.108 0 2.187-.447 2.965-1.229.784-.778 1.228-1.863 1.228-2.964 0-1.102-.444-2.187-1.228-2.965-.778-.782-1.856-1.229-2.965-1.229z"/><path d="m262.455 114.45h-76.067c-7.246 0-13.145 5.897-13.145 13.145v138.71c0 7.253 5.898 13.148 13.145 13.148h76.067c7.25 0 13.144-5.896 13.144-13.148v-138.71c0-7.248-5.894-13.145-13.144-13.145zm-80.819 26.288h85.575v18.457h-85.575zm0 26.851h85.575v85.574h-85.575zm4.752-44.748h76.067c2.623 0 4.756 2.132 4.756 4.754v4.754h-85.575v-4.754c0-2.622 2.133-4.754 4.752-4.754zm76.067 148.22h-76.067c-2.619 0-4.752-2.129-4.752-4.756v-4.753h85.575v4.753c0 2.627-2.133 4.756-4.756 4.756z"/></g><path d="m240.085 145.773h-49.221c-2.317 0-4.193 1.878-4.193 4.194s1.876 4.196 4.193 4.196h49.221c2.317 0 4.193-1.88 4.193-4.196 0-2.315-1.876-4.194-4.193-4.194z" fill="#ffd100"/><path d="m257.982 145.773h-4.477c-2.316 0-4.192 1.878-4.192 4.194s1.876 4.196 4.192 4.196h4.477c2.316 0 4.195-1.88 4.195-4.196.001-2.315-1.878-4.194-4.195-4.194z" fill="#ffd100"/><path d="m56.623 96.552c-4.78 0-8.665 3.889-8.665 8.67v58.17c0 4.779 3.885 8.668 8.665 8.668h67.122c4.779 0 8.669-3.889 8.669-8.668v-58.17c0-4.781-3.89-8.67-8.669-8.67zm39.905 37.754 27.494-24.263v48.529zm-6.342-5.594-26.94-23.77h53.882zm-33.839 29.859v-48.529l27.497 24.263zm33.839-18.671 26.941 23.771h-53.882z" fill="#404c51"/><path d="m150.59 104.942h102.916c2.317 0 4.197-1.878 4.197-4.194 0-2.317-1.88-4.196-4.197-4.196h-102.916c-2.315 0-4.192 1.879-4.192 4.196 0 2.316 1.876 4.194 4.192 4.194z" fill="#cfd7d8"/><path d="m159.538 118.924h-8.948c-2.315 0-4.192 1.88-4.192 4.196 0 2.317 1.876 4.195 4.192 4.195h8.948c2.317 0 4.197-1.878 4.197-4.195 0-2.316-1.88-4.196-4.197-4.196z" fill="#cfd7d8"/><path d="m159.538 141.299h-8.948c-2.315 0-4.192 1.876-4.192 4.195 0 2.316 1.876 4.194 4.192 4.194h8.948c2.317 0 4.197-1.878 4.197-4.194 0-2.319-1.88-4.195-4.197-4.195z" fill="#cfd7d8"/><path d="m159.538 163.672h-8.948c-2.315 0-4.192 1.877-4.192 4.193 0 2.315 1.876 4.195 4.192 4.195h8.948c2.317 0 4.197-1.88 4.197-4.195 0-2.316-1.88-4.193-4.197-4.193z" fill="#cfd7d8"/><path d="m249.031 177.093h-49.219c-4.779 0-8.672 3.89-8.672 8.672v31.322c0 4.779 3.893 8.668 8.672 8.668h49.219c4.782 0 8.672-3.889 8.672-8.668v-31.322c0-4.783-3.89-8.672-8.672-8.672zm-16.796 24.331 17.078-10.866v21.735zm-7.812-4.971-17.234-10.968h34.47zm-24.891 15.84v-21.735l17.078 10.866zm24.891-5.895 17.235 10.968h-34.47z" fill="#ffd100"/><path d="m253.506 235.267h-58.169c-2.313 0-4.196 1.876-4.196 4.192s1.883 4.193 4.196 4.193h58.169c2.317 0 4.197-1.877 4.197-4.193s-1.88-4.192-4.197-4.192z" fill="#404c51"/></svg>