<?xml version="1.0" encoding="utf-8"?>
<!-- Generator: Adobe Illustrator 15.1.0, SVG Export Plug-In . SVG Version: 6.00 Build 0)  -->
<!DOCTYPE svg PUBLIC "-//W3C//DTD SVG 1.1//EN" "http://www.w3.org/Graphics/SVG/1.1/DTD/svg11.dtd">
<svg version="1.1" id="Layer_1" xmlns="http://www.w3.org/2000/svg" xmlns:xlink="http://www.w3.org/1999/xlink" x="0px" y="0px"
	 width="300px" height="300px" viewBox="0 0 300 300" enable-background="new 0 0 300 300" xml:space="preserve">
<g id="THEMEMARKET">
	<g id="YELLOWPANELS">
		<g opacity="0.5">
			<g>
				<g enable-background="new    ">
					<defs>
						<polygon id="SVGID_1_" enable-background="new    " points="228.336,183.841 228.336,116.156 299.75,109.553 299.75,190.443 
													"/>
					</defs>
					<clipPath id="SVGID_2_">
						<use xlink:href="#SVGID_1_"  overflow="visible"/>
					</clipPath>
					<g clip-path="url(#SVGID_2_)">
						<g>
							<g>
								<g>
									<path fill="#FFD100" d="M289.948,112.603l-54.462,4.763c-0.771,0.067-1.502,0.306-2.166,0.677
										c-0.661,0.371-1.255,0.874-1.753,1.474c-0.497,0.599-0.897,1.293-1.175,2.05c-0.276,0.755-0.429,1.573-0.429,2.417v52.03
										c0,0.845,0.152,1.662,0.429,2.417c0.277,0.756,0.678,1.451,1.175,2.05c0.498,0.6,1.092,1.103,1.753,1.474
										c0.664,0.371,1.396,0.609,2.166,0.677l54.462,4.763c1.019,0.089,1.993-0.027,2.884-0.313
										c0.895-0.288,1.703-0.748,2.385-1.346c0.684-0.599,1.238-1.335,1.623-2.171c0.385-0.838,0.598-1.775,0.598-2.775v-61.579
										c0-1-0.213-1.938-0.598-2.775c-0.385-0.836-0.939-1.572-1.623-2.171c-0.682-0.597-1.49-1.057-2.385-1.345
										C291.941,112.63,290.967,112.514,289.948,112.603"/>
									<path fill="#404D52" d="M235.486,182.631c-0.771-0.067-1.502-0.306-2.166-0.677c-0.661-0.371-1.255-0.874-1.753-1.474
										c-0.497-0.599-0.897-1.294-1.175-2.05c-0.276-0.755-0.429-1.572-0.429-2.417v-52.03c0-0.845,0.152-1.662,0.429-2.417
										c0.277-0.756,0.678-1.451,1.175-2.05c0.498-0.6,1.092-1.103,1.753-1.474c0.664-0.372,1.396-0.61,2.166-0.677l54.462-4.763
										c1.019-0.089,1.993,0.027,2.884,0.314c0.895,0.288,1.703,0.748,2.385,1.345c0.684,0.599,1.238,1.335,1.623,2.171
										c0.385,0.838,0.598,1.776,0.598,2.775v61.579c0,1-0.213,1.938-0.598,2.775c-0.385,0.836-0.939,1.572-1.623,2.171
										c-0.682,0.598-1.49,1.058-2.385,1.346c-0.891,0.286-1.865,0.402-2.884,0.313L235.486,182.631 M289.948,110.459
										l-54.462,5.036c-1.003,0.092-1.953,0.406-2.813,0.893c-0.856,0.484-1.626,1.139-2.269,1.919
										c-0.641,0.777-1.158,1.679-1.516,2.659c-0.355,0.979-0.553,2.038-0.553,3.133v51.799c0,1.095,0.197,2.153,0.553,3.133
										c0.357,0.98,0.875,1.882,1.516,2.658c0.643,0.78,1.412,1.436,2.269,1.92c0.86,0.486,1.811,0.8,2.813,0.893l54.462,5.035
										c1.323,0.123,2.594-0.021,3.757-0.389c1.169-0.37,2.229-0.965,3.123-1.739c0.897-0.778,1.627-1.736,2.133-2.828
										c0.508-1.095,0.789-2.321,0.789-3.63v-61.905c0-1.309-0.281-2.535-0.789-3.63c-0.506-1.092-1.235-2.05-2.133-2.829
										c-0.895-0.775-1.954-1.37-3.123-1.739C292.542,110.481,291.271,110.337,289.948,110.459"/>
								</g>
							</g>
						</g>
					</g>
				</g>
			</g>
		</g>
		<g opacity="0.5">
			<g>
				<g enable-background="new    ">
					<defs>
						<polygon id="SVGID_3_" enable-background="new    " points="0.247,190.533 0.247,109.463 71.536,116.219 71.536,183.778 
													"/>
					</defs>
					<clipPath id="SVGID_4_">
						<use xlink:href="#SVGID_3_"  overflow="visible"/>
					</clipPath>
					<g clip-path="url(#SVGID_4_)">
						<g>
							<g>
								<g>
									<path fill="#FFD100" d="M64.425,117.413l-54.368-4.873c-1.02-0.091-1.996,0.023-2.888,0.309
										c-0.896,0.287-1.706,0.746-2.389,1.343c-0.686,0.599-1.241,1.335-1.626,2.172c-0.386,0.839-0.6,1.778-0.6,2.78v61.708
										c0,1.002,0.214,1.941,0.6,2.78c0.385,0.838,0.941,1.574,1.626,2.173c0.683,0.597,1.493,1.056,2.389,1.343
										c0.892,0.285,1.869,0.399,2.888,0.308l54.368-4.872c0.768-0.069,1.497-0.309,2.158-0.681
										c0.658-0.371,1.249-0.874,1.744-1.475c0.493-0.598,0.892-1.292,1.166-2.048c0.274-0.754,0.426-1.57,0.426-2.413v-51.938
										c0-0.843-0.152-1.659-0.426-2.414c-0.274-0.755-0.673-1.45-1.166-2.048c-0.495-0.6-1.085-1.104-1.744-1.475
										C65.922,117.721,65.193,117.481,64.425,117.413"/>
									<path fill="#404D52" d="M10.057,187.456c-1.02,0.092-1.996-0.022-2.888-0.308c-0.896-0.287-1.706-0.746-2.389-1.343
										c-0.686-0.599-1.241-1.335-1.626-2.173c-0.386-0.839-0.6-1.778-0.6-2.78v-61.708c0-1.002,0.214-1.941,0.6-2.78
										c0.385-0.837,0.941-1.574,1.626-2.172c0.683-0.597,1.493-1.056,2.389-1.343c0.892-0.286,1.869-0.4,2.888-0.309
										l54.368,4.873c0.768,0.068,1.497,0.308,2.158,0.68c0.658,0.371,1.249,0.875,1.744,1.475
										c0.493,0.598,0.892,1.292,1.166,2.048c0.274,0.754,0.426,1.571,0.426,2.414v51.938c0,0.843-0.152,1.659-0.426,2.413
										c-0.274,0.756-0.673,1.45-1.166,2.048c-0.495,0.601-1.085,1.104-1.744,1.475c-0.661,0.372-1.39,0.611-2.158,0.681
										L10.057,187.456 M64.425,115.545l-54.368-5.152c-1.326-0.125-2.597,0.016-3.761,0.382c-1.17,0.368-2.23,0.961-3.125,1.736
										c-0.898,0.778-1.629,1.737-2.135,2.831c-0.508,1.096-0.789,2.324-0.789,3.636v62.043c0,1.312,0.281,2.54,0.789,3.636
										c0.506,1.093,1.236,2.052,2.135,2.83c0.895,0.774,1.955,1.368,3.125,1.736c1.164,0.365,2.436,0.507,3.761,0.381
										l54.368-5.151c0.997-0.095,1.943-0.41,2.799-0.897c0.852-0.484,1.617-1.141,2.256-1.92
										c0.637-0.776,1.152-1.678,1.506-2.657c0.354-0.978,0.549-2.034,0.549-3.128v-51.703c0-1.093-0.195-2.151-0.549-3.128
										c-0.354-0.979-0.869-1.88-1.506-2.657c-0.64-0.78-1.404-1.436-2.256-1.92C66.368,115.954,65.422,115.639,64.425,115.545"/>
								</g>
							</g>
						</g>
					</g>
				</g>
			</g>
		</g>
		<g opacity="0.8">
			<g>
				<g enable-background="new    ">
					<defs>
						<polygon id="SVGID_5_" enable-background="new    " points="162.593,196.947 162.593,103.059 266.059,89.316 266.059,210.69 
													"/>
					</defs>
					<clipPath id="SVGID_6_">
						<use xlink:href="#SVGID_5_"  overflow="visible"/>
					</clipPath>
					<g clip-path="url(#SVGID_6_)">
						<g>
							<g>
								<g>
									<path fill="#FFD100" d="M250.358,95.825l-77.761,9.549c-0.975,0.12-1.898,0.459-2.735,0.968
										c-0.832,0.507-1.58,1.182-2.205,1.979c-0.623,0.794-1.126,1.709-1.473,2.698c-0.347,0.988-0.538,2.052-0.538,3.146v71.677
										c0,1.092,0.191,2.154,0.538,3.141c0.347,0.988,0.85,1.902,1.473,2.696c0.625,0.796,1.373,1.471,2.205,1.978
										c0.837,0.509,1.761,0.848,2.735,0.967l77.761,9.548c1.446,0.178,2.834,0.07,4.104-0.276
										c1.277-0.349,2.435-0.939,3.411-1.728c0.981-0.792,1.778-1.78,2.331-2.919c0.555-1.141,0.861-2.429,0.861-3.813v-90.863
										c0-1.388-0.307-2.678-0.861-3.82c-0.553-1.14-1.35-2.129-2.331-2.921c-0.977-0.789-2.133-1.381-3.411-1.729
										C253.192,95.754,251.805,95.647,250.358,95.825"/>
									<path fill="#404D52" d="M172.598,194.623c-0.975-0.119-1.898-0.458-2.735-0.967c-0.832-0.507-1.58-1.182-2.205-1.978
										c-0.623-0.794-1.126-1.708-1.473-2.696c-0.347-0.986-0.538-2.049-0.538-3.141v-71.677c0-1.095,0.191-2.159,0.538-3.146
										c0.347-0.989,0.85-1.904,1.473-2.698c0.625-0.796,1.373-1.472,2.205-1.979c0.837-0.509,1.761-0.848,2.735-0.968
										l77.761-9.549c1.446-0.178,2.834-0.071,4.104,0.276c1.278,0.349,2.435,0.94,3.411,1.729
										c0.981,0.792,1.778,1.782,2.331,2.921c0.555,1.142,0.861,2.432,0.861,3.82v90.863c0,1.385-0.307,2.673-0.861,3.813
										c-0.553,1.139-1.35,2.127-2.331,2.919c-0.977,0.788-2.134,1.379-3.411,1.728c-1.27,0.347-2.657,0.454-4.104,0.276
										L172.598,194.623 M250.358,91.401l-77.761,10.329c-1.412,0.188-2.748,0.691-3.956,1.438
										c-1.199,0.742-2.273,1.726-3.171,2.88c-0.894,1.149-1.613,2.47-2.109,3.896c-0.495,1.422-0.769,2.952-0.769,4.527v71.062
										c0,1.572,0.273,3.102,0.769,4.523c0.496,1.426,1.216,2.747,2.109,3.896c0.897,1.155,1.972,2.14,3.171,2.882
										c1.208,0.748,2.544,1.253,3.956,1.44l77.761,10.329c2.101,0.278,4.122,0.144,5.978-0.344
										c1.87-0.491,3.569-1.341,5.006-2.481c1.446-1.148,2.624-2.589,3.441-4.253c0.82-1.67,1.275-3.559,1.275-5.591V104.07
										c0-2.035-0.455-3.925-1.275-5.595c-0.817-1.664-1.995-3.105-3.441-4.252c-1.437-1.14-3.136-1.988-5.006-2.479
										C254.48,91.257,252.459,91.122,250.358,91.401"/>
								</g>
							</g>
						</g>
					</g>
				</g>
			</g>
		</g>
		<g opacity="0.8">
			<g>
				<g enable-background="new    ">
					<defs>
						<polygon id="SVGID_7_" enable-background="new    " points="31.159,210.895 31.159,89.112 134.499,103.18 134.499,196.826 
													"/>
					</defs>
					<clipPath id="SVGID_8_">
						<use xlink:href="#SVGID_7_"  overflow="visible"/>
					</clipPath>
					<g clip-path="url(#SVGID_8_)">
						<g>
							<g>
								<g>
									<path fill="#FFD100" d="M124.56,105.464l-77.642-9.772c-1.451-0.183-2.843-0.08-4.117,0.264
										c-1.282,0.346-2.443,0.936-3.423,1.724c-0.985,0.792-1.785,1.782-2.34,2.923c-0.557,1.144-0.865,2.437-0.865,3.83v91.142
										c0,1.39,0.308,2.681,0.865,3.823c0.555,1.14,1.355,2.129,2.34,2.92c0.98,0.787,2.142,1.377,3.423,1.723
										c1.274,0.344,2.667,0.446,4.117,0.264l77.642-9.771c0.968-0.121,1.886-0.462,2.718-0.972
										c0.828-0.508,1.57-1.183,2.191-1.979c0.619-0.793,1.119-1.706,1.463-2.692c0.344-0.985,0.534-2.045,0.534-3.136v-71.504
										c0-1.092-0.19-2.154-0.534-3.14c-0.344-0.988-0.844-1.902-1.463-2.695c-0.621-0.796-1.363-1.472-2.191-1.979
										C126.446,105.926,125.528,105.586,124.56,105.464"/>
									<path fill="#404D52" d="M46.918,204.304c-1.451,0.183-2.843,0.08-4.117-0.264c-1.282-0.346-2.443-0.936-3.423-1.723
										c-0.985-0.791-1.785-1.78-2.34-2.92c-0.557-1.143-0.865-2.434-0.865-3.823v-91.142c0-1.393,0.308-2.686,0.865-3.83
										c0.555-1.141,1.355-2.131,2.34-2.923c0.98-0.788,2.142-1.378,3.423-1.724c1.274-0.344,2.667-0.447,4.117-0.264
										l77.642,9.772c0.968,0.122,1.886,0.462,2.718,0.973c0.828,0.507,1.57,1.183,2.191,1.979
										c0.619,0.793,1.119,1.707,1.463,2.695c0.344,0.986,0.534,2.048,0.534,3.14v71.504c0,1.091-0.19,2.15-0.534,3.136
										c-0.344,0.986-0.844,1.899-1.463,2.692c-0.621,0.796-1.363,1.471-2.191,1.979c-0.832,0.51-1.75,0.851-2.718,0.972
										L46.918,204.304 M124.56,101.827L46.918,91.258c-2.107-0.287-4.135-0.159-5.997,0.322c-1.877,0.486-3.583,1.331-5.026,2.47
										c-1.452,1.146-2.635,2.588-3.456,4.255c-0.824,1.673-1.281,3.568-1.281,5.61v92.175c0,2.039,0.457,3.933,1.281,5.605
										c0.821,1.667,2.003,3.109,3.456,4.256c1.443,1.14,3.148,1.986,5.026,2.473c1.862,0.482,3.89,0.61,5.997,0.324l77.642-10.57
										c1.403-0.19,2.731-0.697,3.931-1.447c1.192-0.744,2.259-1.729,3.151-2.884c0.887-1.148,1.602-2.469,2.095-3.892
										c0.491-1.419,0.763-2.945,0.763-4.514v-70.879c0-1.57-0.271-3.097-0.763-4.517c-0.493-1.424-1.208-2.743-2.095-3.892
										c-0.892-1.154-1.959-2.138-3.151-2.882C127.291,102.525,125.963,102.019,124.56,101.827"/>
								</g>
							</g>
						</g>
					</g>
				</g>
			</g>
		</g>
		<path fill="#FFD100" stroke="#404D52" stroke-width="7" stroke-miterlimit="10" d="M222.064,206.734
			c0,8.501-6.891,15.391-15.39,15.391H93.208c-8.501,0-15.393-6.89-15.393-15.391V93.267c0-8.5,6.892-15.392,15.393-15.392h113.467
			c8.499,0,15.39,6.891,15.39,15.392V206.734z"/>
	</g>
	<g id="IRISH">
		<path fill="#404C51" d="M149.938,209.013c-32.537,0-59.007-26.472-59.007-59.009c0-32.542,26.47-59.015,59.007-59.015
			c32.54,0,59.013,26.473,59.013,59.015C208.95,182.541,182.478,209.013,149.938,209.013z M149.938,93.092
			c-31.378,0-56.9,25.53-56.9,56.911c0,31.378,25.522,56.903,56.9,56.903c31.382,0,56.907-25.524,56.907-56.903
			C206.845,118.623,181.319,93.092,149.938,93.092z"/>
		<path fill="#26A9E0" d="M136.871,150.001c0,7.222,5.854,13.069,13.069,13.069c7.219,0,13.07-5.848,13.07-13.069
			c0-7.219-5.852-13.07-13.07-13.07C142.726,136.931,136.871,142.782,136.871,150.001z"/>
		<polygon fill="#404C51" points="149.94,133.093 155.341,123.568 165.295,118.179 164.428,117.676 152.646,120.509 
			149.238,132.255 		"/>
		<polygon fill="#404C51" points="149.905,166.906 144.507,176.432 134.551,181.819 135.417,182.321 147.2,179.493 150.607,167.748 
					"/>
		<polygon fill="#404C51" points="166.83,150.018 176.355,155.416 181.744,165.374 182.247,164.508 179.417,152.724 
			167.668,149.316 		"/>
		<polygon fill="#404C51" points="133.018,149.983 123.492,144.582 118.103,134.628 117.6,135.496 120.429,147.278 132.176,150.686 
					"/>
		<polygon fill="#404C51" points="161.864,161.968 164.784,172.521 161.553,183.372 162.522,183.112 168.852,172.779 
			162.954,162.065 		"/>
		<polygon fill="#404C51" points="137.979,138.034 135.061,127.481 138.292,116.629 137.321,116.888 130.994,127.222 
			136.89,137.936 		"/>
		<polygon fill="#404C51" points="137.959,161.943 127.404,164.862 116.555,161.633 116.812,162.602 127.146,168.93 
			137.859,163.034 		"/>
		<polygon fill="#404C51" points="161.893,138.06 172.444,135.141 183.298,138.371 183.037,137.403 172.706,131.073 
			161.991,136.969 		"/>
		<polygon fill="#404C51" points="134.271,156.387 123.409,154.998 114.652,147.823 114.516,148.817 121.597,158.65 
			133.758,157.357 		"/>
		<polygon fill="#404C51" points="165.576,143.616 176.439,145.004 185.196,152.179 185.336,151.184 178.252,141.354 
			166.09,142.648 		"/>
		<polygon fill="#404C51" points="134.328,143.479 127.614,134.826 126.474,123.563 125.678,124.172 123.752,136.135 
			133.282,143.802 		"/>
		<polygon fill="#404C51" points="165.521,156.527 172.234,165.176 173.374,176.439 174.174,175.83 176.098,163.866 166.566,156.2 
					"/>
		<polygon fill="#404C51" points="143.493,134.367 144.854,123.501 152.003,114.722 151.008,114.589 141.194,121.698 
			142.524,133.854 		"/>
		<polygon fill="#404C51" points="156.356,165.637 154.995,176.502 147.849,185.281 148.843,185.413 158.655,178.303 
			157.323,166.145 		"/>
		<polygon fill="#404C51" points="156.58,134.461 165.291,127.823 176.562,126.778 175.963,125.976 164.015,123.95 156.265,133.414 
					"/>
		<polygon fill="#404C51" points="143.266,165.541 134.556,172.181 123.285,173.223 123.885,174.026 135.832,176.055 143.58,166.59 
					"/>
		<polygon fill="#404D52" points="141.194,118.316 155.113,108.727 149.938,95.646 150.607,106.982 141.194,115.986 		"/>
		<polygon fill="#404D52" points="159.499,181.685 145.579,191.276 150.753,204.354 150.083,193.021 159.499,184.015 		"/>
		<polygon fill="#404D52" points="182.031,140.849 191.623,154.767 204.699,149.594 193.366,150.263 184.36,140.849 		"/>
		<polygon fill="#404D52" points="118.662,159.151 109.071,145.233 95.993,150.408 107.326,149.737 116.333,159.151 		"/>
		<polygon fill="#404D52" points="179.22,165.933 176.161,182.558 189.067,188.146 180.581,180.607 180.867,167.582 		"/>
		<polygon fill="#404D52" points="121.47,134.068 124.53,117.445 111.623,111.856 120.111,119.396 119.821,132.422 		"/>
		<polygon fill="#404D52" points="134.415,178.878 117.791,175.818 112.201,188.725 119.743,180.235 132.767,180.525 		"/>
		<polygon fill="#404D52" points="166.282,121.126 182.905,124.188 188.492,111.282 180.951,119.768 167.93,119.48 		"/>
		<polygon fill="#404D52" points="124.35,170.296 110.266,160.946 100.055,170.616 110.323,165.775 122.188,171.16 		"/>
		<polygon fill="#404D52" points="176.348,129.711 190.434,139.057 200.644,129.386 190.372,134.228 178.508,128.845 		"/>
		<polygon fill="#404D52" points="117.493,147.149 113.55,130.713 99.485,130.837 110.302,134.288 115.32,146.311 		"/>
		<polygon fill="#404D52" points="183.206,152.856 187.151,169.289 201.215,169.168 190.397,165.716 185.379,153.692 		"/>
		<polygon fill="#404D52" points="129.102,124.776 137.92,110.356 127.875,100.511 133.096,110.592 128.157,122.648 		"/>
		<polygon fill="#404D52" points="171.595,175.229 162.782,189.649 172.825,199.491 167.605,189.408 172.544,177.354 		"/>
		<polygon fill="#404D52" points="154.258,117.252 170.812,113.842 171.141,99.782 167.343,110.481 155.165,115.109 		"/>
		<polygon fill="#404D52" points="146.442,182.749 129.888,186.164 129.561,200.225 133.357,189.525 145.534,184.895 		"/>
	</g>
</g>
</svg>
