<svg enable-background="new 0 0 300 300" height="300" viewBox="0 0 300 300" width="300" xmlns="http://www.w3.org/2000/svg" xmlns:xlink="http://www.w3.org/1999/xlink"><clipPath id="a"><path d="m228.336 183.841v-67.685l71.414-6.603v80.89z"/></clipPath><clipPath id="b"><path d="m.247 190.533v-81.07l71.289 6.756v67.559z"/></clipPath><clipPath id="c"><path d="m162.593 196.947v-93.888l103.466-13.743v121.374z"/></clipPath><clipPath id="d"><path d="m31.159 210.895v-121.783l103.34 14.068v93.646z"/></clipPath><g clip-path="url(#a)" enable-background="new" opacity=".5"><path d="m289.948 112.603-54.462 4.763c-.771.067-1.502.306-2.166.677-.661.371-1.255.874-1.753 1.474-.497.599-.897 1.293-1.175 2.05-.276.755-.429 1.573-.429 2.417v52.03c0 .845.152 1.662.429 2.417.277.756.678 1.451 1.175 2.05.498.6 1.092 1.103 1.753 1.474.664.371 1.396.609 2.166.677l54.462 4.763c1.019.089 1.993-.027 2.884-.313.895-.288 1.703-.748 2.385-1.346.684-.599 1.238-1.335 1.623-2.171.385-.838.598-1.775.598-2.775v-61.579c0-1-.213-1.938-.598-2.775-.385-.836-.939-1.572-1.623-2.171-.682-.597-1.49-1.057-2.385-1.345-.891-.29-1.865-.406-2.884-.317" fill="#ffd100"/><path d="m235.486 182.631c-.771-.067-1.502-.306-2.166-.677-.661-.371-1.255-.874-1.753-1.474-.497-.599-.897-1.294-1.175-2.05-.276-.755-.429-1.572-.429-2.417v-52.03c0-.845.152-1.662.429-2.417.277-.756.678-1.451 1.175-2.05.498-.6 1.092-1.103 1.753-1.474.664-.372 1.396-.61 2.166-.677l54.462-4.763c1.019-.089 1.993.027 2.884.314.895.288 1.703.748 2.385 1.345.684.599 1.238 1.335 1.623 2.171.385.838.598 1.776.598 2.775v61.579c0 1-.213 1.938-.598 2.775-.385.836-.939 1.572-1.623 2.171-.682.598-1.49 1.058-2.385 1.346-.891.286-1.865.402-2.884.313zm54.462-72.172-54.462 5.036c-1.003.092-1.953.406-2.813.893-.856.484-1.626 1.139-2.269 1.919-.641.777-1.158 1.679-1.516 2.659-.355.979-.553 2.038-.553 3.133v51.799c0 1.095.197 2.153.553 3.133.357.98.875 1.882 1.516 2.658.643.78 1.412 1.436 2.269 1.92.86.486 1.811.8 2.813.893l54.462 5.035c1.323.123 2.594-.021 3.757-.389 1.169-.37 2.229-.965 3.123-1.739.897-.778 1.627-1.736 2.133-2.828.508-1.095.789-2.321.789-3.63v-61.905c0-1.309-.281-2.535-.789-3.63-.506-1.092-1.235-2.05-2.133-2.829-.895-.775-1.954-1.37-3.123-1.739-1.163-.367-2.434-.511-3.757-.389" fill="#404d52"/></g><g clip-path="url(#b)" enable-background="new" opacity=".5"><path d="m64.425 117.413-54.368-4.873c-1.02-.091-1.996.023-2.888.309-.896.287-1.706.746-2.389 1.343-.686.599-1.241 1.335-1.626 2.172-.386.839-.6 1.778-.6 2.78v61.708c0 1.002.214 1.941.6 2.78.385.838.941 1.574 1.626 2.173.683.597 1.493 1.056 2.389 1.343.892.285 1.869.399 2.888.308l54.368-4.872c.768-.069 1.497-.309 2.158-.681.658-.371 1.249-.874 1.744-1.475.493-.598.892-1.292 1.166-2.048.274-.754.426-1.57.426-2.413v-51.938c0-.843-.152-1.659-.426-2.414s-.673-1.45-1.166-2.048c-.495-.6-1.085-1.104-1.744-1.475-.661-.371-1.39-.611-2.158-.679" fill="#ffd100"/><path d="m10.057 187.456c-1.02.092-1.996-.022-2.888-.308-.896-.287-1.706-.746-2.389-1.343-.686-.599-1.241-1.335-1.626-2.173-.386-.839-.6-1.778-.6-2.78v-61.708c0-1.002.214-1.941.6-2.78.385-.837.941-1.574 1.626-2.172.683-.597 1.493-1.056 2.389-1.343.892-.286 1.869-.4 2.888-.309l54.368 4.873c.768.068 1.497.308 2.158.68.658.371 1.249.875 1.744 1.475.493.598.892 1.292 1.166 2.048.274.754.426 1.571.426 2.414v51.938c0 .843-.152 1.659-.426 2.413-.274.756-.673 1.45-1.166 2.048-.495.601-1.085 1.104-1.744 1.475-.661.372-1.39.611-2.158.681zm54.368-71.911-54.368-5.152c-1.326-.125-2.597.016-3.761.382-1.17.368-2.23.961-3.125 1.736-.898.778-1.629 1.737-2.135 2.831-.508 1.096-.789 2.324-.789 3.636v62.043c0 1.312.281 2.54.789 3.636.506 1.093 1.236 2.052 2.135 2.83.895.774 1.955 1.368 3.125 1.736 1.164.365 2.436.507 3.761.381l54.368-5.151c.997-.095 1.943-.41 2.799-.897.852-.484 1.617-1.141 2.256-1.92.637-.776 1.152-1.678 1.506-2.657.354-.978.549-2.034.549-3.128v-51.703c0-1.093-.195-2.151-.549-3.128-.354-.979-.869-1.88-1.506-2.657-.64-.78-1.404-1.436-2.256-1.92-.856-.489-1.802-.804-2.799-.898" fill="#404d52"/></g><g clip-path="url(#c)" enable-background="new" opacity=".8"><path d="m250.358 95.825-77.761 9.549c-.975.12-1.898.459-2.735.968-.832.507-1.58 1.182-2.205 1.979-.623.794-1.126 1.709-1.473 2.698-.347.988-.538 2.052-.538 3.146v71.677c0 1.092.191 2.154.538 3.141.347.988.85 1.902 1.473 2.696.625.796 1.373 1.471 2.205 1.978.837.509 1.761.848 2.735.967l77.761 9.548c1.446.178 2.834.07 4.104-.276 1.277-.349 2.435-.939 3.411-1.728.981-.792 1.778-1.78 2.331-2.919.555-1.141.861-2.429.861-3.813v-90.863c0-1.388-.307-2.678-.861-3.82-.553-1.14-1.35-2.129-2.331-2.921-.977-.789-2.133-1.381-3.411-1.729-1.27-.349-2.657-.456-4.104-.278" fill="#ffd100"/><path d="m172.598 194.623c-.975-.119-1.898-.458-2.735-.967-.832-.507-1.58-1.182-2.205-1.978-.623-.794-1.126-1.708-1.473-2.696-.347-.986-.538-2.049-.538-3.141v-71.677c0-1.095.191-2.159.538-3.146.347-.989.85-1.904 1.473-2.698.625-.796 1.373-1.472 2.205-1.979.837-.509 1.761-.848 2.735-.968l77.761-9.549c1.446-.178 2.834-.071 4.104.276 1.278.349 2.435.94 3.411 1.729.981.792 1.778 1.782 2.331 2.921.555 1.142.861 2.432.861 3.82v90.863c0 1.385-.307 2.673-.861 3.813-.553 1.139-1.35 2.127-2.331 2.919-.977.788-2.134 1.379-3.411 1.728-1.27.347-2.657.454-4.104.276zm77.76-103.222-77.761 10.329c-1.412.188-2.748.691-3.956 1.438-1.199.742-2.273 1.726-3.171 2.88-.894 1.149-1.613 2.47-2.109 3.896-.495 1.422-.769 2.952-.769 4.527v71.062c0 1.572.273 3.102.769 4.523.496 1.426 1.216 2.747 2.109 3.896.897 1.155 1.972 2.14 3.171 2.882 1.208.748 2.544 1.253 3.956 1.44l77.761 10.329c2.101.278 4.122.144 5.978-.344 1.87-.491 3.569-1.341 5.006-2.481 1.446-1.148 2.624-2.589 3.441-4.253.82-1.67 1.275-3.559 1.275-5.591v-91.864c0-2.035-.455-3.925-1.275-5.595-.817-1.664-1.995-3.105-3.441-4.252-1.437-1.14-3.136-1.988-5.006-2.479-1.856-.487-3.877-.622-5.978-.343" fill="#404d52"/></g><g clip-path="url(#d)" enable-background="new" opacity=".8"><path d="m124.56 105.464-77.642-9.772c-1.451-.183-2.843-.08-4.117.264-1.282.346-2.443.936-3.423 1.724-.985.792-1.785 1.782-2.34 2.923-.557 1.144-.865 2.437-.865 3.83v91.142c0 1.39.308 2.681.865 3.823.555 1.14 1.355 2.129 2.34 2.92.98.787 2.142 1.377 3.423 1.723 1.274.344 2.667.446 4.117.264l77.642-9.771c.968-.121 1.886-.462 2.718-.972.828-.508 1.57-1.183 2.191-1.979.619-.793 1.119-1.706 1.463-2.692.344-.985.534-2.045.534-3.136v-71.504c0-1.092-.19-2.154-.534-3.14-.344-.988-.844-1.902-1.463-2.695-.621-.796-1.363-1.472-2.191-1.979-.832-.511-1.75-.851-2.718-.973" fill="#ffd100"/><path d="m46.918 204.304c-1.451.183-2.843.08-4.117-.264-1.282-.346-2.443-.936-3.423-1.723-.985-.791-1.785-1.78-2.34-2.92-.557-1.143-.865-2.434-.865-3.823v-91.142c0-1.393.308-2.686.865-3.83.555-1.141 1.355-2.131 2.34-2.923.98-.788 2.142-1.378 3.423-1.724 1.274-.344 2.667-.447 4.117-.264l77.642 9.772c.968.122 1.886.462 2.718.973.828.507 1.57 1.183 2.191 1.979.619.793 1.119 1.707 1.463 2.695.344.986.534 2.048.534 3.14v71.504c0 1.091-.19 2.15-.534 3.136s-.844 1.899-1.463 2.692c-.621.796-1.363 1.471-2.191 1.979-.832.51-1.75.851-2.718.972zm77.642-102.477-77.642-10.569c-2.107-.287-4.135-.159-5.997.322-1.877.486-3.583 1.331-5.026 2.47-1.452 1.146-2.635 2.588-3.456 4.255-.824 1.673-1.281 3.568-1.281 5.61v92.175c0 2.039.457 3.933 1.281 5.605.821 1.667 2.003 3.109 3.456 4.256 1.443 1.14 3.148 1.986 5.026 2.473 1.862.482 3.89.61 5.997.324l77.642-10.57c1.403-.19 2.731-.697 3.931-1.447 1.192-.744 2.259-1.729 3.151-2.884.887-1.148 1.602-2.469 2.095-3.892.491-1.419.763-2.945.763-4.514v-70.879c0-1.57-.271-3.097-.763-4.517-.493-1.424-1.208-2.743-2.095-3.892-.892-1.154-1.959-2.138-3.151-2.882-1.2-.746-2.528-1.252-3.931-1.444" fill="#404d52"/></g><path d="m222.064 206.734c0 8.501-6.891 15.391-15.39 15.391h-113.466c-8.501 0-15.393-6.89-15.393-15.391v-113.467c0-8.5 6.892-15.392 15.393-15.392h113.467c8.499 0 15.39 6.891 15.39 15.392v113.467z" fill="#ffd100" stroke="#404d52" stroke-miterlimit="10" stroke-width="7"/><path d="m149.938 209.013c-32.537 0-59.007-26.472-59.007-59.009 0-32.542 26.47-59.015 59.007-59.015 32.54 0 59.013 26.473 59.013 59.015-.001 32.537-26.473 59.009-59.013 59.009zm0-115.921c-31.378 0-56.9 25.53-56.9 56.911 0 31.378 25.522 56.903 56.9 56.903 31.382 0 56.907-25.524 56.907-56.903 0-31.38-25.526-56.911-56.907-56.911z" fill="#404c51"/><path d="m136.871 150.001c0 7.222 5.854 13.069 13.069 13.069 7.219 0 13.07-5.848 13.07-13.069 0-7.219-5.852-13.07-13.07-13.07-7.214 0-13.069 5.851-13.069 13.07z" fill="#26a9e0"/><g fill="#404c51"><path d="m149.94 133.093 5.401-9.525 9.954-5.389-.867-.503-11.782 2.833-3.408 11.746z"/><path d="m149.905 166.906-5.398 9.526-9.956 5.387.866.502 11.783-2.828 3.407-11.745z"/><path d="m166.83 150.018 9.525 5.398 5.389 9.958.503-.866-2.83-11.784-11.749-3.408z"/><path d="m133.018 149.983-9.526-5.401-5.389-9.954-.503.868 2.829 11.782 11.747 3.408z"/><path d="m161.864 161.968 2.92 10.553-3.231 10.851.969-.26 6.33-10.333-5.898-10.714z"/><path d="m137.979 138.034-2.918-10.553 3.231-10.852-.971.259-6.327 10.334 5.896 10.714z"/><path d="m137.959 161.943-10.555 2.919-10.849-3.229.257.969 10.334 6.328 10.713-5.896z"/><path d="m161.893 138.06 10.551-2.919 10.854 3.23-.261-.968-10.331-6.33-10.715 5.896z"/><path d="m134.271 156.387-10.862-1.389-8.757-7.175-.136.994 7.081 9.833 12.161-1.293z"/><path d="m165.576 143.616 10.863 1.388 8.757 7.175.14-.995-7.084-9.83-12.162 1.294z"/><path d="m134.328 143.479-6.714-8.653-1.14-11.263-.796.609-1.926 11.963 9.53 7.667z"/><path d="m165.521 156.527 6.713 8.649 1.14 11.263.8-.609 1.924-11.964-9.532-7.666z"/><path d="m143.493 134.367 1.361-10.866 7.149-8.779-.995-.133-9.814 7.109 1.33 12.156z"/><path d="m156.356 165.637-1.361 10.865-7.146 8.779.994.132 9.812-7.11-1.332-12.158z"/><path d="m156.58 134.461 8.711-6.638 11.271-1.045-.599-.802-11.948-2.026-7.75 9.464z"/><path d="m143.266 165.541-8.71 6.64-11.271 1.042.6.803 11.947 2.029 7.748-9.465z"/></g><path d="m141.194 118.316 13.919-9.589-5.175-13.081.669 11.336-9.413 9.004z" fill="#404d52"/><path d="m159.499 181.685-13.92 9.591 5.174 13.078-.67-11.333 9.416-9.006z" fill="#404d52"/><path d="m182.031 140.849 9.592 13.918 13.076-5.173-11.333.669-9.006-9.414z" fill="#404d52"/><path d="m118.662 159.151-9.591-13.918-13.078 5.175 11.333-.671 9.007 9.414z" fill="#404d52"/><path d="m179.22 165.933-3.059 16.625 12.906 5.588-8.486-7.539.286-13.025z" fill="#404d52"/><path d="m121.47 134.068 3.06-16.623-12.907-5.589 8.488 7.54-.29 13.026z" fill="#404d52"/><path d="m134.415 178.878-16.624-3.06-5.59 12.907 7.542-8.49 13.024.29z" fill="#404d52"/><path d="m166.282 121.126 16.623 3.062 5.587-12.906-7.541 8.486-13.021-.288z" fill="#404d52"/><path d="m124.35 170.296-14.084-9.35-10.211 9.67 10.268-4.841 11.865 5.385z" fill="#404d52"/><path d="m176.348 129.711 14.086 9.346 10.21-9.671-10.272 4.842-11.864-5.383z" fill="#404d52"/><path d="m117.493 147.149-3.943-16.436-14.065.124 10.817 3.451 5.018 12.023z" fill="#404d52"/><path d="m183.206 152.856 3.945 16.433 14.064-.121-10.818-3.452-5.018-12.024z" fill="#404d52"/><path d="m129.102 124.776 8.818-14.42-10.045-9.845 5.221 10.081-4.939 12.056z" fill="#404d52"/><path d="m171.595 175.229-8.813 14.42 10.043 9.842-5.22-10.083 4.939-12.054z" fill="#404d52"/><path d="m154.258 117.252 16.554-3.41.329-14.06-3.798 10.699-12.178 4.628z" fill="#404d52"/><path d="m146.442 182.749-16.554 3.415-.327 14.061 3.796-10.7 12.177-4.63z" fill="#404d52"/></svg>