<?xml version="1.0" encoding="utf-8"?>
<!-- Generator: Adobe Illustrator 15.1.0, SVG Export Plug-In . SVG Version: 6.00 Build 0)  -->
<!DOCTYPE svg PUBLIC "-//W3C//DTD SVG 1.1//EN" "http://www.w3.org/Graphics/SVG/1.1/DTD/svg11.dtd">
<svg version="1.1" id="LOGO" xmlns="http://www.w3.org/2000/svg" xmlns:xlink="http://www.w3.org/1999/xlink" x="0px" y="0px"
	 width="419.542px" height="67.7px" viewBox="0 0 419.542 67.7" enable-background="new 0 0 419.542 67.7" xml:space="preserve">
<g>
	<g>
		<path fill="#889597" d="M79.908,67.69H66.545V0.931h26.721c2.454,0,4.812,0.319,7.078,0.955c2.265,0.636,4.384,1.536,6.353,2.7
			c1.971,1.165,3.771,2.562,5.402,4.19c1.629,1.629,3.024,3.435,4.189,5.421c1.162,1.987,2.064,4.114,2.7,6.379
			c0.633,2.264,0.955,4.625,0.955,7.078c0,3.662-0.7,7.113-2.093,10.356c-1.398,3.242-3.307,6.074-5.727,8.494
			c-2.422,2.422-5.255,4.328-8.497,5.728c-3.242,1.396-6.697,2.095-10.359,2.095H79.909L79.908,67.69L79.908,67.69z M79.908,14.292
			v26.721h13.358c1.831,0,3.553-0.349,5.169-1.048c1.613-0.694,3.024-1.651,4.235-2.86c1.209-1.211,2.166-2.633,2.864-4.262
			c0.698-1.629,1.045-3.355,1.045-5.188c0-1.833-0.347-3.564-1.045-5.193c-0.698-1.629-1.655-3.047-2.864-4.261
			c-1.211-1.208-2.622-2.163-4.235-2.861c-1.616-0.698-3.338-1.048-5.169-1.048H79.908z"/>
		<path fill="#889597" d="M141.124,67.69h-13.36V0.931h26.721c2.451,0,4.812,0.319,7.079,0.955c2.264,0.636,4.383,1.536,6.352,2.7
			c1.971,1.165,3.771,2.562,5.4,4.19s3.027,3.435,4.191,5.421c1.162,1.987,2.062,4.114,2.7,6.379
			c0.633,2.264,0.952,4.625,0.952,7.078c0,2.295-0.285,4.531-0.861,6.703c-0.573,2.175-1.396,4.233-2.464,6.19
			c-1.071,1.955-2.383,3.757-3.935,5.398c-1.554,1.645-3.292,3.07-5.213,4.285l7.4,17.455h-14.199l-5.82-13.453l-14.943,0.092V67.69
			L141.124,67.69z M141.124,14.292v26.721h13.36c1.832,0,3.554-0.349,5.167-1.048c1.616-0.694,3.027-1.651,4.235-2.86
			c1.211-1.211,2.169-2.633,2.864-4.262c0.7-1.629,1.048-3.355,1.048-5.188c0-1.833-0.348-3.564-1.048-5.193
			c-0.695-1.629-1.652-3.047-2.864-4.261c-1.208-1.208-2.62-2.163-4.235-2.861c-1.613-0.698-3.335-1.048-5.167-1.048H141.124z"/>
		<path fill="#889597" d="M203.273,67.69h-13.36V0.931h13.36V67.69z"/>
		<path fill="#44B3E6" d="M394.585,41.012c0,3.695-0.693,7.16-2.092,10.406c-1.396,3.242-3.309,6.065-5.727,8.473
			c-2.424,2.404-5.256,4.307-8.498,5.703c-3.24,1.396-6.713,2.096-10.404,2.096c-3.689,0-7.16-0.697-10.402-2.096
			c-3.246-1.396-6.068-3.299-8.475-5.703c-2.404-2.406-4.305-5.229-5.701-8.473c-1.396-3.246-2.096-6.711-2.096-10.406V0.931
			l13.311,13.361v26.722c0,1.83,0.352,3.553,1.053,5.166c0.693,1.615,1.648,3.025,2.859,4.238c1.211,1.211,2.627,2.166,4.262,2.858
			c1.629,0.701,3.355,1.05,5.189,1.05c1.832,0,3.561-0.349,5.189-1.05c1.631-0.692,3.049-1.647,4.258-2.858
			c1.215-1.213,2.168-2.623,2.863-4.238c0.699-1.613,1.051-3.336,1.051-5.166V0.931h13.357v40.081H394.585z"/>
		<path fill="#44B3E6" d="M419.542,67.69h-13.363V0.931h13.363V67.69z"/>
		<path fill="#889597" d="M332.578,67.69h-22.879h-22.883V34.311V0.931h27.188h27.189l6.654,6.679l6.658,6.683h-27.164h-27.162
			v6.681v6.682h10.963h10.965v6.68v6.68h-10.965h-10.963v6.654v6.658h16.199h16.199v6.682V67.69L332.578,67.69z"/>
	</g>
	<polygon fill="#2E8AAA" points="341.193,16.26 341.193,14.285 354.505,14.292 354.505,14.292 	"/>
	<g>
		<polygon fill="#889597" points="23.406,30.715 3.073,23.139 0,10.158 16.127,13.383 		"/>
		<polygon fill="#889597" points="33.309,30.715 53.639,23.139 56.715,10.158 40.584,13.383 		"/>
		<polygon fill="#889597" points="16.727,12.183 6.45,10.158 13.425,0.931 22.202,0.931 		"/>
		<polygon fill="#889597" points="39.835,12.183 50.111,10.158 43.134,0.931 34.356,0.931 		"/>
		<polygon fill="#889597" points="38.66,14.578 31.392,33.528 33.568,47.913 22.768,47.913 25.213,33.508 17.928,14.578 
			22.653,0.931 33.833,0.931 		"/>
		<polygon fill="#889597" points="8.064,32.626 15.191,36.454 15.191,51.569 3.485,41.555 3.485,24.635 8.064,26.514 		"/>
		<polygon fill="#889597" points="48.425,32.626 41.295,36.454 41.295,51.569 53.003,41.555 53.003,24.635 48.425,26.514 		"/>
		<polygon fill="#889597" points="35.97,30.975 33.309,32.366 33.309,34.969 34.977,48.844 31.405,52.471 28.295,52.5 
			25.185,52.471 21.611,48.844 23.281,34.969 23.281,32.366 20.617,30.975 16.944,37.167 16.944,59.643 20.742,56.155 
			28.295,56.069 35.848,56.155 39.645,59.643 39.645,37.167 		"/>
		<polygon fill="#889597" points="33.231,67.702 23.292,67.702 19.803,64.116 23.292,60.538 33.231,60.538 36.834,64.116 		"/>
		<polygon fill="#889597" points="15.191,60.538 8.699,53.333 8.699,48.42 15.191,52.657 		"/>
		<polygon fill="#889597" points="41.111,60.538 47.6,53.333 47.6,48.42 41.111,52.657 		"/>
		<polygon fill="#889597" points="35.031,59.643 21.556,59.643 18.885,63.301 16.944,62.29 21.489,57.721 35.145,57.721 
			39.645,62.29 37.733,63.301 		"/>
		<polygon fill="#44B3E6" points="16.325,36.028 9.155,32.084 8.979,26.772 19.686,30.715 		"/>
		<polygon fill="#44B3E6" points="40.255,36.028 47.424,32.084 47.6,26.772 36.893,30.715 		"/>
	</g>
	<path fill="#889597" d="M272.783,0H266c-2.076,0-3.455,0.989-4.345,2.672l-15.099,28.197c-0.395,0.791-0.691,1.284-1.086,1.284
		s-0.691-0.493-1.086-1.284L229.287,2.672C228.398,0.989,227.017,0,224.944,0h-6.784c-2.07,0-3.552,1.286-3.552,3.363v59.404v3.539
		v1.383h1.677h10.534h1.579v-1.979v-2.942V30.274c0-0.691,0.296-0.793,0.493-0.793c0.296,0,0.493,0.197,0.79,0.692l8.882,16.326
		c0.688,1.188,1.677,1.682,2.96,1.682h7.896c1.283,0,2.271-0.494,2.959-1.682l8.881-16.325c0.299-0.494,0.496-0.691,0.791-0.691
		c0.197,0,0.494,0.1,0.494,0.791v32.494v2.943v1.979h1.578h10.533h1.678v-1.383v-3.539V3.462C276.333,1.385,274.854,0,272.783,0z"/>
</g>
</svg>
