<svg enable-background="new 0 0 138.532 98.735" height="98.735" viewBox="0 0 138.532 98.735" width="138.532" xmlns="http://www.w3.org/2000/svg"><g fill="none" stroke="#a3abb3" stroke-miterlimit="10"><path d="m9.858 43.329h87.455l14.791 17.254h12.94v-8.627"/><circle cx="125.045" cy="49.375" r="2.772"/><path d="m9.858 46.603h65.733l6.317 12.439 24.032-.924 4.776 6.47h14.328l7.703 3.39"/><circle cx="135.26" cy="69.09" r="2.772"/><path d="m5.804 49.375h30.812l8.01 11.208v8.508h17.256l5.57 7.206"/><circle cx="69.408" cy="78.835" r="2.773"/><path d="m5.804 35.164 10.476-15.252h18.025l6.008 7.626h27.139v-21.492"/><circle cx="67.451" cy="3.273" r="2.772"/><path d="m.5 31.004v-18.025l13.007-9.706h14.533l14.584 19.412h16.176v-10.168"/><circle cx="58.8" cy="9.801" r="2.773"/><path d="m13.737 37.937 8.551-6.933h51.301l8.088 9.012h10.861v-25.188l9.475-7.8"/><circle cx="104.138" cy="5.404" r="2.773"/><path d="m5.804 54.121 6.431 6.462h25.848v11.28l5.965 4.434h11.978v14.359l-4.771 3.231"/><circle cx="48.97" cy="95.462" r="2.773"/><path d="m5.804 59.589 6.182 6.728h10.439l13.172 12.518v5.11h10.6"/><circle cx="48.97" cy="83.945" r="2.773"/></g></svg>