<svg enable-background="new 0 0 419.542 67.7" height="67.7" viewBox="0 0 419.542 67.7" width="419.542" xmlns="http://www.w3.org/2000/svg"><path d="m79.908 67.69h-13.363v-66.759h26.721c2.454 0 4.812.319 7.078.955 2.265.636 4.384 1.536 6.353 2.7 1.971 1.165 3.771 2.562 5.402 4.19 1.629 1.629 3.024 3.435 4.189 5.421 1.162 1.987 2.064 4.114 2.7 6.379.633 2.264.955 4.625.955 7.078 0 3.662-.7 7.113-2.093 10.356-1.398 3.242-3.307 6.074-5.727 8.494-2.422 2.422-5.255 4.328-8.497 5.728-3.242 1.396-6.697 2.095-10.359 2.095h-13.358zm0-53.398v26.721h13.358c1.831 0 3.553-.349 5.169-1.048 1.613-.694 3.024-1.651 4.235-2.86 1.209-1.211 2.166-2.633 2.864-4.262s1.045-3.355 1.045-5.188-.347-3.564-1.045-5.193-1.655-3.047-2.864-4.261c-1.211-1.208-2.622-2.163-4.235-2.861-1.616-.698-3.338-1.048-5.169-1.048z" fill="#889597"/><path d="m141.124 67.69h-13.36v-66.759h26.721c2.451 0 4.812.319 7.079.955 2.264.636 4.383 1.536 6.352 2.7 1.971 1.165 3.771 2.562 5.4 4.19s3.027 3.435 4.191 5.421c1.162 1.987 2.062 4.114 2.7 6.379.633 2.264.952 4.625.952 7.078 0 2.295-.285 4.531-.861 6.703-.573 2.175-1.396 4.233-2.464 6.19-1.071 1.955-2.383 3.757-3.935 5.398-1.554 1.645-3.292 3.07-5.213 4.285l7.4 17.455h-14.199l-5.82-13.453-14.943.092zm0-53.398v26.721h13.36c1.832 0 3.554-.349 5.167-1.048 1.616-.694 3.027-1.651 4.235-2.86 1.211-1.211 2.169-2.633 2.864-4.262.7-1.629 1.048-3.355 1.048-5.188s-.348-3.564-1.048-5.193c-.695-1.629-1.652-3.047-2.864-4.261-1.208-1.208-2.62-2.163-4.235-2.861-1.613-.698-3.335-1.048-5.167-1.048z" fill="#889597"/><path d="m203.273 67.69h-13.36v-66.759h13.36z" fill="#889597"/><path d="m394.585 41.012c0 3.695-.693 7.16-2.092 10.406-1.396 3.242-3.309 6.065-5.727 8.473-2.424 2.404-5.256 4.307-8.498 5.703-3.24 1.396-6.713 2.096-10.404 2.096-3.689 0-7.16-.697-10.402-2.096-3.246-1.396-6.068-3.299-8.475-5.703-2.404-2.406-4.305-5.229-5.701-8.473-1.396-3.246-2.096-6.711-2.096-10.406v-40.081l13.311 13.361v26.722c0 1.83.352 3.553 1.053 5.166.693 1.615 1.648 3.025 2.859 4.238 1.211 1.211 2.627 2.166 4.262 2.858 1.629.701 3.355 1.05 5.189 1.05 1.832 0 3.561-.349 5.189-1.05 1.631-.692 3.049-1.647 4.258-2.858 1.215-1.213 2.168-2.623 2.863-4.238.699-1.613 1.051-3.336 1.051-5.166v-40.083h13.357v40.081z" fill="#44b3e6"/><path d="m419.542 67.69h-13.363v-66.759h13.363z" fill="#44b3e6"/><path d="m332.578 67.69h-22.879-22.883v-33.379-33.38h27.188 27.189l6.654 6.679 6.658 6.683h-27.164-27.162v6.681 6.682h10.963 10.965v6.68 6.68h-10.965-10.963v6.654 6.658h16.199 16.199v6.682 6.68z" fill="#889597"/><path d="m341.193 16.26v-1.975l13.312.007z" fill="#2e8aaa"/><g fill="#889597"><path d="m23.406 30.715-20.333-7.576-3.073-12.981 16.127 3.225z"/><path d="m33.309 30.715 20.33-7.576 3.076-12.981-16.131 3.225z"/><path d="m16.727 12.183-10.277-2.025 6.975-9.227h8.777z"/><path d="m39.835 12.183 10.276-2.025-6.977-9.227h-8.778z"/><path d="m38.66 14.578-7.268 18.95 2.176 14.385h-10.8l2.445-14.405-7.285-18.93 4.725-13.647h11.18z"/><path d="m8.064 32.626 7.127 3.828v15.115l-11.706-10.014v-16.92l4.579 1.879z"/><path d="m48.425 32.626-7.13 3.828v15.115l11.708-10.014v-16.92l-4.578 1.879z"/><path d="m35.97 30.975-2.661 1.391v2.603l1.668 13.875-3.572 3.627-3.11.029-3.11-.029-3.574-3.627 1.67-13.875v-2.603l-2.664-1.391-3.673 6.192v22.476l3.798-3.488 7.553-.086 7.553.086 3.797 3.488v-22.476z"/><path d="m33.231 67.702h-9.939l-3.489-3.586 3.489-3.578h9.939l3.603 3.578z"/><path d="m15.191 60.538-6.492-7.205v-4.913l6.492 4.237z"/><path d="m41.111 60.538 6.489-7.205v-4.913l-6.489 4.237z"/><path d="m35.031 59.643h-13.475l-2.671 3.658-1.941-1.011 4.545-4.569h13.656l4.5 4.569-1.912 1.011z"/></g><path d="m16.325 36.028-7.17-3.944-.176-5.312 10.707 3.943z" fill="#44b3e6"/><path d="m40.255 36.028 7.169-3.944.176-5.312-10.707 3.943z" fill="#44b3e6"/><path d="m272.783 0h-6.783c-2.076 0-3.455.989-4.345 2.672l-15.099 28.197c-.395.791-.691 1.284-1.086 1.284s-.691-.493-1.086-1.284l-15.097-28.197c-.889-1.683-2.27-2.672-4.343-2.672h-6.784c-2.07 0-3.552 1.286-3.552 3.363v59.404 3.539 1.383h1.677 10.534 1.579v-1.979-2.942-32.494c0-.691.296-.793.493-.793.296 0 .493.197.79.692l8.882 16.326c.688 1.188 1.677 1.682 2.96 1.682h7.896c1.283 0 2.271-.494 2.959-1.682l8.881-16.325c.299-.494.496-.691.791-.691.197 0 .494.1.494.791v32.494 2.943 1.979h1.578 10.533 1.678v-1.383-3.539-59.306c0-2.077-1.479-3.462-3.55-3.462z" fill="#889597"/></svg>