<?xml version="1.0" encoding="UTF-8"?>
<svg width="177px" height="43px" viewBox="0 0 177 43" version="1.1" xmlns="http://www.w3.org/2000/svg" xmlns:xlink="http://www.w3.org/1999/xlink">
    <!-- Generator: Sketch 63.1 (92452) - https://sketch.com -->
    <title>primeng-logo@3x</title>
    <desc>Created with Sketch.</desc>
    <defs>
        <polygon id="path-1" points="20.004703 0 20.004703 0 20.004703 0 0.0515119974 7.08746128 3.09485585 33.3665722 20.004703 42.6955499 20.004703 42.6955499 20.004703 42.6955499 36.9145502 33.3665722 39.957894 7.08746128"></polygon>
    </defs>
    <g id="Organized-|-PrimeNG" stroke="none" stroke-width="1" fill="none" fill-rule="evenodd">
        <g id="PrimeNG-Horizontal-Original" transform="translate(-4.000000, -28.000000)">
            <g id="primeng-logo" transform="translate(4.000000, 28.000000)">
                <g id="text-primeng" transform="translate(50.000000, 10.000000)" fill="#FFFFFF" fill-rule="nonzero">
                    <path d="M4.17664348,21.1986222 L0,21.1986222 L0,0.311040029 L8.35111146,0.311040029 C9.1168864,0.311040029 9.85531225,0.411816999 10.5670106,0.609638458 C11.2715608,0.809326156 11.9329119,1.09143946 12.5529285,1.45566734 C13.1673511,1.81896209 13.7298724,2.25597333 14.2401819,2.76670106 C14.7508021,3.27680671 15.1874554,3.84227748 15.5504526,4.46186922 C15.9153146,5.0848824 16.1937782,5.74957494 16.3929916,6.45905725 C16.5943804,7.16853956 16.6916562,7.90414923 16.6916562,8.6724181 C16.6916562,9.81828957 16.4722418,10.8988426 16.0374532,11.9131442 C15.6026646,12.9283788 15.0025382,13.8142208 14.2498162,14.5703591 C13.4893246,15.3283637 12.6032758,15.9252495 11.5935344,16.3625718 C10.5781988,16.799583 9.49821995,17.0182442 8.35142224,17.0182442 L4.17695426,17.0182442 L4.17695426,21.1986222 L4.17664348,21.1986222 Z M4.17664348,4.49297322 L4.17664348,12.8534182 L8.35111146,12.8534182 C8.92637502,12.8534182 9.46154729,12.742999 9.96657338,12.5252709 C10.4719103,12.3066098 10.9157116,12.0089445 11.2911403,11.6297867 C11.672163,11.2500068 11.9670983,10.8058417 12.1862019,10.2969802 C12.4053055,9.78780764 12.5150127,9.24597591 12.5150127,8.67304018 C12.5150127,8.09917132 12.4053055,7.55951687 12.1862019,7.04878915 C11.9670983,6.53899454 11.672163,6.09482938 11.2911403,5.71629366 C10.9157116,5.3374469 10.4719103,5.04009264 9.96657338,4.81956525 C9.46154729,4.60121515 8.92606424,4.49328426 8.35111146,4.49328426 L4.17664348,4.49328426 L4.17664348,4.49297322 Z" id="Shape"></path>
                    <path d="M23.4468852,21.1986222 L19.2686878,21.1986222 L19.2686878,0.311040029 L27.6235287,0.311040029 C28.3852634,0.311040029 29.125554,0.411816999 29.8375631,0.609638458 C30.5421133,0.809326156 31.2015997,1.09143946 31.8231703,1.45566734 C32.4382144,1.81896209 32.9966955,2.25597333 33.507005,2.76670106 C34.0191791,3.27680671 34.4542785,3.84227748 34.8191404,4.46186922 C35.1840024,5.0848824 35.4643307,5.74957494 35.6619901,6.45905725 C35.8630682,7.16853956 35.9640734,7.90414923 35.9640734,8.6724181 C35.9640734,9.38998745 35.8702163,10.0904496 35.6890285,10.76945 C35.5112593,11.4500056 35.2557938,12.0960357 34.9213888,12.7072294 C34.5835652,13.3178009 34.1758149,13.8807834 33.6903683,14.3971098 C33.2049217,14.9106369 32.6626013,15.3576014 32.0602995,15.7361372 L34.3734743,21.1983111 L29.9367036,21.1983111 L28.1176773,16.9896285 L23.447196,17.0182442 L23.447196,21.1986222 L23.4468852,21.1986222 Z M23.4468852,4.49297322 L23.4468852,12.8534182 L27.6232179,12.8534182 C28.1947521,12.8534182 28.7302351,12.742999 29.2386798,12.5252709 C29.7399765,12.3066098 30.1837779,12.0089445 30.561382,11.6297867 C30.9405401,11.2500068 31.2407587,10.8058417 31.4564436,10.2969802 C31.677412,9.78780764 31.7833898,9.24597591 31.7833898,8.67304018 C31.7833898,8.09917132 31.677412,7.55951687 31.4564436,7.04878915 C31.2407587,6.53899454 30.9405401,6.09482938 30.561382,5.71629366 C30.1837779,5.3374469 29.7399765,5.04009264 29.2386798,4.81956525 C28.7299243,4.60121515 28.1947521,4.49328426 27.6232179,4.49328426 L23.4468852,4.49328426 L23.4468852,4.49297322 Z" id="Shape"></path>
                    <polygon id="Shape" points="42.7152622 21.1986222 38.5373756 21.1986222 38.5373756 0.311040029 42.7152622 0.311040029"></polygon>
                    <polygon id="Shape" points="84.8546394 21.1986222 70.5482602 21.1986222 70.5482602 0.311040029 84.8546394 0.311040029 84.8546394 4.49266218 74.7242821 4.49266218 74.7242821 8.6724181 81.5767869 8.6724181 81.5767869 12.8527961 74.7242821 12.8527961 74.7242821 17.0182442 84.8546394 17.0182442"></polygon>
                    <path d="M63.0440387,0 C62.3948082,0 61.963749,0.309484829 61.6849746,0.837008719 L56.962903,9.66432475 C56.8388996,9.91160158 56.7450425,10.0661885 56.6213499,10.0661885 C56.4985897,10.0661885 56.4056649,9.91129054 56.2813508,9.66432475 L51.5586576,0.837008719 C51.280194,0.309484829 50.8485132,0 50.1999043,0 L48.039325,0 C47.3904053,0 46.9285784,0.401863718 46.9285784,1.0528705 L46.9285784,19.650887 L46.9285784,20.7594336 L46.9285784,21.1920903 L47.4531839,21.1920903 L50.7875993,21.1920903 L51.280194,21.1920903 L51.280194,20.5734317 L51.280194,19.650887 L51.280194,9.47832281 C51.280194,9.26152791 51.3734296,9.23011287 51.4343435,9.23011287 C51.5282006,9.23011287 51.5891146,9.29232088 51.6807962,9.44659673 L54.4604598,14.5572955 C54.6761448,14.9289883 54.9853762,15.0845083 55.3878431,15.0845083 L57.8548567,15.0845083 C58.2576345,15.0845083 58.566555,14.9289883 58.78224,14.5572955 L61.5587958,9.44659673 C61.6538961,9.29200984 61.7154316,9.23011287 61.8086672,9.23011287 C61.8695811,9.23011287 61.9634382,9.26152791 61.9634382,9.47832281 L61.9634382,19.650887 L61.9634382,20.5734317 L61.9634382,21.1920903 L62.4554113,21.1920903 L65.7898267,21.1920903 L66.3147437,21.1920903 L66.3147437,20.7594336 L66.3147437,19.650887 L66.3147437,1.08366346 C66.3153646,0.433278761 65.8532269,0 65.2024425,0 L63.0440387,0 Z" id="Shape"></path>
                    <polygon id="Shape" points="105.585032 21.2404542 101.113959 21.2404542 93.0629126 7.46251531 93.0629126 21.2404542 88.8845922 21.2404542 88.8845922 0.311040029 93.3549824 0.311040029 101.407395 14.1028094 101.407395 0.311040029 105.585032 0.311040029"></polygon>
                    <path d="M122.180147,9.75202435 L122.180147,9.77475578 L118.189527,9.77475578 L118.189527,13.9575985 L122.180147,13.9575985 L122.180147,16.7390397 C121.73248,16.9641624 121.262272,17.1391663 120.766791,17.2654211 C120.272404,17.391676 119.762306,17.4560358 119.238001,17.4560358 C118.32559,17.4560358 117.470555,17.2803473 116.66907,16.9297915 C115.867039,16.5797835 115.166782,16.1029728 114.565019,15.4999072 C113.962438,14.8967048 113.486629,14.1908004 113.138549,13.3837004 C112.78883,12.5757789 112.613561,11.7097965 112.613561,10.7860272 C112.613561,9.87129545 112.78883,9.01174908 113.138549,8.21012646 C113.486765,7.40686092 113.962438,6.70629706 114.565019,6.10788715 C115.166782,5.50934069 115.867039,5.03554243 116.66907,4.68498663 C117.470418,4.33470486 118.32559,4.15983753 119.238001,4.15983753 C120.150412,4.15983753 121.018835,4.34223607 121.844499,4.70689629 C122.66907,5.07169337 123.396786,5.57520684 124.027509,6.21757292 L126.212159,2.56877976 C125.241689,1.74127642 124.158791,1.10671557 122.966331,0.664412918 C121.770867,0.221288496 120.528818,0 119.237864,0 C118.247859,0 117.294056,0.128993588 116.377137,0.386706737 C115.459262,0.64428334 114.602587,1.00675259 113.806703,1.4741145 C113.011776,1.94120269 112.284061,2.50277675 111.623556,3.16006903 C110.964008,3.81653954 110.39995,4.54599684 109.935207,5.34885181 C109.468824,6.15156961 109.106674,7.01056824 108.849849,7.92434132 C108.592341,8.83893587 108.464065,9.79269439 108.464065,10.7857531 C108.464065,11.7785382 108.592341,12.7362674 108.849849,13.6603108 C109.106674,14.5851755 109.468824,15.4477346 109.935207,16.2510005 C110.39995,17.0533077 110.964008,17.7834496 111.623556,18.4393724 C112.284197,19.0966647 113.011776,19.6612511 113.806703,20.1317626 C114.602587,20.604876 115.459398,20.9696734 116.377137,21.2276602 C117.294056,21.4856474 118.247859,21.6142304 119.237864,21.6142304 C120.528818,21.6142304 121.770867,21.3930788 122.966331,20.9506393 C124.158791,20.5076517 125.241689,19.8730909 126.212159,19.0455875 L126.212159,13.9573247 L126.212159,9.77448176 L122.201185,9.77448176 L122.180147,9.75202435 L122.180147,9.75202435 Z" id="Shape"></path>
                </g>
                <g id="icon-primeng">
                    <g id="angular-back">
                        <mask id="mask-2" fill="white">
                            <use xlink:href="#path-1"></use>
                        </mask>
                        <use id="Shape" fill="#DD0031" fill-rule="nonzero" xlink:href="#path-1"></use>
                        <polygon id="Shape-path" fill="#C3002F" mask="url(#mask-2)" points="20.004703 0 20.004703 4.73920604 20.004703 4.71785826 20.004703 26.3431543 20.004703 26.3431543 20.004703 42.6955499 20.004703 42.6955499 36.9145502 33.3665722 39.957894 7.08746128"></polygon>
                    </g>
                    <g id="head" transform="translate(7.775680, 7.492928)" fill="#FFFFFF">
                        <polygon id="chick-right" fill-rule="nonzero" points="18.0776868 12.7562155 16.1635787 12.3310084 17.6523294 14.4570443 17.6523294 21.0477557 22.7566174 16.7956838 22.7566174 9.56716166 20.4171521 10.417576"></polygon>
                        <polygon id="chick-left" fill-rule="nonzero" transform="translate(4.785270, 15.307459) scale(-1, 1) translate(-4.785270, -15.307459) " points="3.40285868 12.7562155 1.48875067 12.3310084 2.97750135 14.4570443 2.97750135 21.0477557 8.08178937 16.7956838 8.08178937 9.56716166 5.74232403 10.417576"></polygon>
                        <path d="M15.2686072,12.2997114 L16.9651192,14.8560992 L16.9641756,18.7437114 L14.036882,20.8354924 L14.0367363,21.6860206 L16.9641756,19.5947114 L16.9641756,20.4447114 L14.036882,22.5363211 L14.0367363,23.3868493 L16.9641756,21.2957114 L16.9641756,22.1457114 L14.036882,24.2371499 L14.0367363,25.0876781 L16.9641756,22.9967114 L16.9651192,24.4425535 L15.6927352,26.3598444 L14.2082873,27.8510706 L9.9670075,27.8510706 L8.48255958,26.3598444 L7.21017564,24.4425535 L7.21017564,14.8560992 L8.90668756,12.2997114 L9.9670075,12.9388083 L14.2082873,12.9388083 L15.2686072,12.2997114 Z M7.23101894,22.1103195 L7.23116463,22.9608477 L10.2086318,25.0876781 L10.2084861,24.2371499 L7.23101894,22.1103195 Z M7.23101894,20.4094907 L7.23116463,21.2600189 L10.2086318,23.3868493 L10.2084861,22.5363211 L7.23101894,20.4094907 Z M7.23101894,18.708662 L7.23116463,19.5591902 L10.2086318,21.6860206 L10.2084861,20.8354924 L7.23101894,18.708662 Z" id="mask"></path>
                        <polygon id="bottom-chick-right" fill-rule="nonzero" points="17.6523294 25.0872239 20.4171521 22.3233772 20.4171521 19.5595305 17.6523294 21.89817"></polygon>
                        <polygon id="bottom-chick-left" fill-rule="nonzero" transform="translate(5.210627, 22.323377) scale(-1, 1) translate(-5.210627, -22.323377) " points="3.82821602 25.0872239 6.5930387 22.3233772 6.5930387 19.5595305 3.82821602 21.89817"></polygon>
                        <path d="M13.3987561,2.70894418e-14 L13.3987561,5.31508981 L14.2494707,4.88988263 L14.2494707,2.70894418e-14 L14.8875067,0 L16.5889361,4.03946826 L14.0367921,12.1184048 L12.5480414,12.1184048 L12.5480414,0 L13.3987561,2.70894418e-14 Z M9.99589738,4.88988263 L10.8466121,5.31508981 L10.8466121,0 L11.6973267,0 L11.6973267,12.1184048 L10.4212547,12.1184048 L7.65643204,4.03946826 L9.35786138,0 L9.99589738,0 L9.99589738,4.88988263 Z"></path>
                        <polygon id="head-left" fill-rule="nonzero" points="10.4212547 12.1184048 1.27607201 8.71674729 0 3.40165748 7.8691107 4.03946826 10.6339334 12.1184048"></polygon>
                        <polygon id="head-right" fill-rule="nonzero" transform="translate(19.141080, 7.760031) scale(-1, 1) translate(-19.141080, -7.760031) " points="24.2453681 12.1184048 15.1001854 8.71674729 13.8241134 3.40165748 21.9059028 4.03946826 24.4580468 12.1184048"></polygon>
                        <polygon id="ear-right" fill-rule="nonzero" points="17.0142934 3.40165748 21.4805454 2.97645029 18.5030441 0 15.5255427 0"></polygon>
                        <polygon id="ear-left" fill-rule="nonzero" transform="translate(5.742324, 1.700829) scale(-1, 1) translate(-5.742324, -1.700829) " points="4.25357335 3.40165748 8.71982537 2.97645029 5.74232403 0 2.76482268 0"></polygon>
                    </g>
                </g>
            </g>
        </g>
    </g>
</svg>