<svg enable-background="new 0 0 200.206 109.645" height="109.645" viewBox="0 0 200.206 109.645" width="200.206" xmlns="http://www.w3.org/2000/svg"><path d="m69.713 68.214c-12.067-2.959-21.023-13.843-21.023-26.824 0-15.258 12.368-27.624 27.624-27.624 15.257 0 27.625 12.366 27.625 27.624 0 1.256-.092 2.489-.254 3.702l6.046-2.583v-10.128l-.206.011c-.655-2.484-1.574-4.842-2.717-7.05l4.898-3.919-2.778-4.381-5.681 2.781c-1.444-1.83-3.069-3.5-4.836-4.993l3.136-5.593-4.22-3.018-4.339 4.845c-1.666-.938-3.413-1.738-5.223-2.39l1.035-6.512-5.004-1.37-2.47 6.24c-2.705-.417-5.491-.515-8.317-.264l-1.864-6.629-5.119.85.386 7.006c-2.128.613-4.165 1.413-6.086 2.389l-4.368-5.637-4.424 2.712 3.093 6.57c-1.819 1.432-3.482 3.039-4.97 4.792l-6.443-3.614-3.018 4.22 5.575 4.994c-1.009 1.811-1.865 3.712-2.54 5.689l-7.482-.959-1.218 5.043 7.145 2.581c-.289 2.212-.367 4.476-.214 6.77l-7.342 2.066.849 5.118 7.617-.419c.593 2.208 1.396 4.312 2.377 6.303l-5.936 4.746 2.779 4.383 6.776-3.318c1.284 1.662 2.716 3.195 4.266 4.59l-3.662 6.531 4.219 3.018 4.93-5.504c1.516.902 3.099 1.693 4.743 2.359l-1.145 7.201 5.004 1.371 2.637-6.662c1.109.211 2.236.354 3.374.453z" fill="#cfd7d8"/><path d="m151.635 15.405c-14.13-8.521-32.492-3.974-41.012 10.155-2.871 4.759-4.251 9.996-4.291 15.176-.038-5.18-1.419-10.417-4.289-15.176-8.52-14.129-26.883-18.677-41.013-10.155-14.13 8.52-18.676 26.883-10.156 41.012 2.882 4.779 7.25 7.994 10.985 11.373l44.472 41.711v.002h.001.002v-.002l13.226-12.404c-.908.129-1.829.219-2.772.219-10.774 0-19.506-8.732-19.506-19.506 0-10.771 8.732-19.504 19.506-19.504 10.771 0 19.504 8.732 19.504 19.504 0 1.363-.142 2.693-.408 3.977l14.924-13.996c3.734-3.379 8.104-6.594 10.984-11.373 8.52-14.13 3.973-32.493-10.157-41.013zm-67.359 67.194c-6.353 0-11.502-5.148-11.502-11.502s5.15-11.504 11.502-11.504c6.354 0 11.502 5.15 11.502 11.504s-5.148 11.502-11.502 11.502zm52.675-19.467c-12.673 0-22.943-10.272-22.943-22.943 0-12.673 10.271-22.944 22.943-22.944s22.943 10.271 22.943 22.944c.001 12.671-10.271 22.943-22.943 22.943z" fill="#ee4036"/><path d="m93.213 71.116 1.532-.312-.119-1.295-1.564-.027c-.119-.633-.305-1.238-.55-1.811l1.294-.891-.615-1.145-1.469.592c-.328-.484-.703-.93-1.117-1.336l.884-1.34-.999-.83-1.171 1.133c-.4-.266-.822-.496-1.261-.693l.376-1.607-1.225-.432-.73 1.514c-.668-.154-1.361-.23-2.071-.219l-.346-1.688-1.294.119-.03 1.756c-.543.115-1.066.277-1.563.486l-.988-1.488-1.156.598.653 1.697c-.48.324-.925.695-1.328 1.105l-1.544-1.02-.83 1 1.302 1.348c-.286.436-.534.895-.739 1.375l-1.85-.375-.396 1.238 1.738.773c-.112.547-.173 1.111-.177 1.686l-1.871.383.119 1.295 1.91.033c.108.562.27 1.102.479 1.617l-1.569 1.078.615 1.145 1.752-.705c.291.439.62.848.982 1.225l-1.033 1.562.999.83 1.332-1.283c.362.252.743.479 1.141.674l-.417 1.779 1.224.434.781-1.615c.648.172 1.324.268 2.016.283l.353 1.723 1.293-.119.03-1.723c.561-.096 1.102-.244 1.616-.439l.936 1.406 1.155-.596-.596-1.547c.527-.328 1.014-.707 1.456-1.135l1.359.896.83-.998-1.114-1.156c.331-.471.616-.975.85-1.506l1.552.314.396-1.236-1.436-.639c.137-.61.211-1.244.213-1.891zm-13.937 1.869c-1.037 0-1.878-.842-1.878-1.879s.841-1.879 1.878-1.879 1.879.842 1.879 1.879-.842 1.879-1.879 1.879zm5.243 5.244c-1.037 0-1.878-.842-1.878-1.879s.841-1.879 1.878-1.879c1.039 0 1.88.842 1.88 1.879s-.841 1.879-1.88 1.879zm-1.707-6.978c-.088-.953.613-1.797 1.565-1.885.953-.088 1.796.613 1.884 1.566s-.613 1.795-1.566 1.883-1.795-.613-1.883-1.564zm1.707-3.508c-1.037 0-1.878-.842-1.878-1.879 0-1.039.841-1.879 1.878-1.879 1.039 0 1.88.84 1.88 1.879-.001 1.037-.841 1.879-1.88 1.879zm5.243 5.242c-1.037 0-1.878-.842-1.878-1.879s.842-1.879 1.878-1.879c1.038 0 1.879.842 1.879 1.879s-.841 1.879-1.879 1.879z" fill="#404c51"/><path d="m132.421 76.685 2.654-.75-.374-2.256-2.755.15c-.29-1.098-.696-2.137-1.199-3.111l2.161-1.73-1.227-1.934-2.506 1.227c-.639-.807-1.356-1.543-2.136-2.203l1.385-2.467-1.862-1.334-1.915 2.141c-.736-.416-1.508-.768-2.308-1.057l.458-2.875-2.208-.604-1.091 2.754c-1.193-.184-2.422-.227-3.67-.115l-.825-2.928-2.258.377.171 3.092c-.939.271-1.838.623-2.687 1.055l-1.929-2.488-1.952 1.197 1.366 2.9c-.803.629-1.538 1.34-2.194 2.115l-2.844-1.596-1.332 1.861 2.461 2.205c-.446.799-.824 1.639-1.12 2.512l-3.303-.424-.538 2.227 3.153 1.139c-.128.977-.162 1.975-.095 2.988l-3.24.91.375 2.26 3.361-.186c.263.975.616 1.904 1.05 2.783l-2.619 2.094 1.225 1.936 2.991-1.465c.567.732 1.198 1.41 1.884 2.025l-1.618 2.883 1.863 1.332 2.176-2.43c.671.398 1.368.748 2.095 1.041l-.507 3.18 2.209.604 1.163-2.939c1.162.221 2.363.305 3.582.246l.84 2.98 2.259-.375-.166-3.035c.973-.238 1.902-.568 2.785-.977l1.824 2.354 1.953-1.195-1.247-2.646c.883-.641 1.693-1.373 2.416-2.18l2.503 1.404 1.332-1.863-2.108-1.889c.521-.869.959-1.793 1.3-2.758l2.771.357.538-2.229-2.605-.939c.165-1.092.214-2.215.134-3.351zm-15.133 13.308c-6.734 0-12.193-5.459-12.193-12.193s5.459-12.191 12.193-12.191c6.733 0 12.191 5.457 12.191 12.191s-5.458 12.193-12.191 12.193z" fill="#ffd100"/><path d="m117.186 69.026c-4.846 0-8.772 3.928-8.772 8.773s3.927 8.773 8.772 8.773 8.772-3.928 8.772-8.773-3.927-8.773-8.772-8.773zm0 13.301c-2.5 0-4.525-2.027-4.525-4.527 0-2.498 2.025-4.525 4.525-4.525s4.525 2.027 4.525 4.525c0 2.5-2.025 4.527-4.525 4.527z" fill="#404c51"/><path d="m96.464 40.97v-2.645l-3.167-.347c-.123-1.305-.387-2.568-.778-3.773l2.791-1.562-1.031-2.436-3.088.925c-.574-1.041-1.251-2.017-2.016-2.915l2.044-2.55-1.87-1.871-2.587 2.074c-.761-.609-1.572-1.159-2.427-1.639l1.065-3.187-2.403-1.107-1.763 2.931c-1.325-.435-2.719-.717-4.161-.827l-.384-3.489h-2.645l-.392 3.555c-1.122.131-2.212.363-3.261.694l-1.725-3.201-2.451.995 1.008 3.562c-1.037.568-2.005 1.238-2.902 1.996l-2.938-2.357-1.872 1.872 2.387 2.976c-.658.826-1.249 1.711-1.752 2.649l-3.683-1.107-1.034 2.434 3.377 1.896c-.33 1.088-.559 2.221-.673 3.387l-3.865.424v2.645l3.865.426c.114 1.161.341 2.286.668 3.369l-3.38 1.892 1.031 2.437 3.686-1.104c.506.944 1.098 1.835 1.761 2.666l-2.388 2.977 1.872 1.871 2.938-2.356c.687.58 1.417 1.111 2.188 1.583l-1.177 3.526 2.401 1.107 1.882-3.129c1.282.469 2.634.793 4.035.955l.392 3.555h2.645l.384-3.486c1.154-.09 2.278-.287 3.359-.586l1.632 3.027 2.453-.994-.918-3.25c1.128-.564 2.188-1.246 3.164-2.03l2.588 2.076 1.869-1.87-2.044-2.551c.76-.894 1.432-1.862 2.004-2.895l3.088.929 1.034-2.435-2.789-1.566c.394-1.212.662-2.483.785-3.794zm-20.75 2.203c-1.947 0-3.525-1.578-3.525-3.524s1.579-3.525 3.525-3.525 3.525 1.579 3.525 3.525-1.578 3.524-3.525 3.524z" fill="#404c51"/><path d="m75.645 53.157c-7.447 0-13.508-6.06-13.508-13.508 0-7.45 6.061-13.508 13.508-13.508 7.449 0 13.51 6.059 13.51 13.508 0 7.448-6.061 13.508-13.51 13.508zm0-25.129c-6.407 0-11.619 5.213-11.619 11.62 0 6.405 5.212 11.618 11.619 11.618 6.408 0 11.619-5.213 11.619-11.618 0-6.406-5.211-11.62-11.619-11.62z" fill="#00adee"/><path d="m75.645 33.696c-3.286 0-5.951 2.666-5.951 5.953s2.665 5.952 5.951 5.952c3.288 0 5.952-2.665 5.952-5.952s-2.664-5.953-5.952-5.953zm0 9.023c-1.696 0-3.069-1.375-3.069-3.07 0-1.696 1.374-3.071 3.069-3.071 1.479 0 2.712 1.046 3.005 2.437l-2.553-.608c-.709-.169-1.424.269-1.592.979-.17.71.269 1.423.979 1.594l2.542.605c-.562.692-1.419 1.134-2.381 1.134z" fill="#cfd7d8"/><path d="m135.131 24.522h4.556v31.074h-4.556z" fill="#ffd100"/><path d="m121.872 37.782h31.074v4.556h-31.074z" fill="#ffd100"/><circle cx="137.408" cy="40.161" fill="#cfd7d8" r="7.36"/><path d="m154.382 38.914 2.964-.835-.421-2.521-3.071.169c-.325-1.224-.776-2.385-1.34-3.473l2.413-1.932-1.37-2.159-2.797 1.372c-.713-.902-1.513-1.725-2.383-2.46l1.544-2.754-2.079-1.488-2.138 2.389c-.82-.463-1.682-.857-2.572-1.179l.508-3.208-2.465-.674-1.215 3.074c-1.334-.206-2.707-.254-4.099-.13l-.919-3.266-2.521.418.189 3.452c-1.048.303-2.051.696-2.998 1.177l-2.151-2.777-2.18 1.335 1.524 3.237c-.897.705-1.716 1.498-2.45 2.362l-3.174-1.782-1.486 2.08 2.747 2.46c-.496.892-.919 1.829-1.251 2.803l-3.688-.472-.6 2.485 3.521 1.271c-.144 1.09-.181 2.205-.105 3.335l-3.618 1.018.419 2.521 3.753-.206c.291 1.087.688 2.125 1.17 3.104l-2.924 2.339 1.37 2.159 3.338-1.636c.632.821 1.338 1.575 2.102 2.263l-1.805 3.217 2.079 1.487 2.428-2.711c.748.444 1.528.834 2.338 1.161l-.563 3.549 2.465.676 1.3-3.283c1.294.248 2.636.342 3.997.273l.938 3.328 2.521-.418-.187-3.387c1.087-.268 2.126-.635 3.108-1.09l2.037 2.627 2.181-1.336-1.391-2.953c.986-.717 1.889-1.533 2.694-2.434l2.796 1.567 1.487-2.079-2.354-2.108c.584-.972 1.071-2 1.452-3.077l3.092.397.601-2.485-2.907-1.05c.181-1.218.236-2.473.146-3.742zm-16.893 14.856c-7.515 0-13.608-6.093-13.608-13.609 0-7.517 6.094-13.609 13.608-13.609 7.518 0 13.61 6.092 13.61 13.609.001 7.516-6.092 13.609-13.61 13.609z" fill="#26a9e0"/><g fill="#404c51"><path d="m137.662 34.604h-.352-.354c-.588.05-.705.674-.705.674v.29.53l.268 1.804c.034.335.236.739.236.739l.42.605h.136.134l.421-.605s.201-.404.234-.739l.269-1.804v-.53-.29c-.001 0-.118-.624-.707-.674zm.455 2.052s0 .774-.455 1.648l-.201.168h-.15-.153l-.201-.168c-.454-.875-.454-1.648-.454-1.648-.05-.656.622-.924.622-.924l.187-.017.185.017c-.002 0 .67.268.62.924z"/><path d="m136.247 39.437v-.136s-.27-3.094-.253-3.883l-.059-.043-.312.168-.075.151-.849.338s-.167.049-.22.378c0 0-.234 1.779-.15 2.835 0 0-.051.148.143.283l.573.37h.15z"/><path d="m138.372 39.437v-.136s.27-3.094.253-3.883l.059-.043.312.168.076.151.848.338s.168.049.22.378c0 0 .235 1.779.151 2.835 0 0 .05.148-.143.283l-.572.37h-.152z"/><path d="m134.119 39.201.21-2.522s-.36.009-.295-.378l.11-.546.075-.16.009.438.192.007.103-.236.074-.53-.06-.143.06-.664s-.137-.118-.32.167c0 0-.353.362-.512 2.364 0 0-.43.513-.276 1.336 0 0 .184-1.756.284.337l.093.646c0 .001.145-.251.253-.116z"/><path d="m140.501 39.201-.209-2.522s.36.009.295-.378l-.111-.546-.075-.16-.008.438-.193.007-.103-.236-.073-.53.057-.143-.057-.664s.136-.118.32.167c0 0 .351.362.511 2.364 0 0 .428.513.277 1.336 0 0-.185-1.756-.285.337l-.093.646c0 .001-.144-.251-.253-.116z"/><path d="m133.378 39.033s.22-.109.161.984h.093l-.076 1.218s-.126.261-.27 0l-.101.152v1.312s-.218.066-.252-.682c.001.001-.075-2 .445-2.984z"/><path d="m141.361 39.033s-.218-.109-.159.984h-.093l.076 1.218s.125.261.27 0l.101.152v1.312s.218.066.252-.682c0 .001.075-2-.447-2.984z"/><path d="m134.654 41.652.706.329s.265.151.328.516l.416 2.358s.063.252-.152.126l-.478-.265z"/><path d="m140.04 41.652-.706.329s-.265.151-.328.516l-.416 2.358s-.064.252.15.126l.479-.265z"/><path d="m138.48 41.729-.984-.277-.144-.088-.146.088-.984.277s-.429-.039-.669.164c0 0 1.427 1.21 1.8 1.21.37 0 1.797-1.21 1.797-1.21-.24-.203-.67-.164-.67-.164z"/><path d="m138.263 38.184-.543 1.186-.402.064-.377-.064-.543-1.186.164 1.062.354.49-.25 1.76.477-.261h.175.026.175l.501.261-.276-1.76.355-.49z"/><path d="m134.311 40.059s-.133.118-.099.277l1.172 4.697-1.073-.871-.269-2.75-.065-.134-.103-.781c0-.001-.094-.278.437-.438z"/><path d="m140.4 40.059s.133.118.099.277l-1.153 4.681 1.055-.854.267-2.75.067-.134.101-.781c-.001-.002.095-.279-.436-.439z"/><path d="m133.799 40.647s.227 3.952.799 4.751l-.799-1.069s-.108-.033-.101-.285l-.066-.068-.093-.008-.258-.159v-2.354s.164.194.351-.009c.185-.203.167-.799.167-.799z"/><path d="m140.931 40.647s-.194 3.952-.765 4.751l.765-1.069s.11-.033.102-.285l.067-.068.093-.008.258-.159v-2.354s-.164.194-.351-.009c-.186-.203-.169-.799-.169-.799z"/><path d="m138.775 45.17c-.303.164-.367-.087-.367-.087l.441-2.711-1.071.857-.426.164-.428-.164-1.071-.857.44 2.711s-.063.25-.365.087l-.176-.075v.228l.982.504.113-.416.504-.328.503.328.112.416.984-.504v-.228z"/><path d="m137.76 45.582-.407-.243-.409.243-.101.539.51.328.507-.328z"/><path d="m134.479 39.841.725.31 1.417-.31-.37 1.722-1.484-.529-.288-.546z"/><path d="m140.144 39.841-.723.31-1.418-.31.37 1.722 1.484-.529.287-.546z"/></g></svg>