<?xml version="1.0" encoding="utf-8"?>
<!-- Generator: Adobe Illustrator 15.1.0, SVG Export Plug-In . SVG Version: 6.00 Build 0)  -->
<!DOCTYPE svg PUBLIC "-//W3C//DTD SVG 1.1//EN" "http://www.w3.org/Graphics/SVG/1.1/DTD/svg11.dtd">
<svg version="1.1" id="Layer_1" xmlns="http://www.w3.org/2000/svg" xmlns:xlink="http://www.w3.org/1999/xlink" x="0px" y="0px"
	 width="200.206px" height="109.645px" viewBox="0 0 200.206 109.645" enable-background="new 0 0 200.206 109.645"
	 xml:space="preserve">
<g id="LOVECLIENTS">
	<path fill="#CFD7D8" d="M69.713,68.214C57.646,65.255,48.69,54.371,48.69,41.39c0-15.258,12.368-27.624,27.624-27.624
		c15.257,0,27.625,12.366,27.625,27.624c0,1.256-0.092,2.489-0.254,3.702l6.046-2.583V32.381l-0.206,0.011
		c-0.655-2.484-1.574-4.842-2.717-7.05l4.898-3.919l-2.778-4.381l-5.681,2.781c-1.444-1.83-3.069-3.5-4.836-4.993l3.136-5.593
		l-4.22-3.018l-4.339,4.845c-1.666-0.938-3.413-1.738-5.223-2.39l1.035-6.512l-5.004-1.37l-2.47,6.24
		c-2.705-0.417-5.491-0.515-8.317-0.264l-1.864-6.629l-5.119,0.85l0.386,7.006c-2.128,0.613-4.165,1.413-6.086,2.389l-4.368-5.637
		l-4.424,2.712l3.093,6.57c-1.819,1.432-3.482,3.039-4.97,4.792l-6.443-3.614l-3.018,4.22l5.575,4.994
		c-1.009,1.811-1.865,3.712-2.54,5.689l-7.482-0.959l-1.218,5.043l7.145,2.581c-0.289,2.212-0.367,4.476-0.214,6.77l-7.342,2.066
		l0.849,5.118l7.617-0.419c0.593,2.208,1.396,4.312,2.377,6.303l-5.936,4.746l2.779,4.383l6.776-3.318
		c1.284,1.662,2.716,3.195,4.266,4.59l-3.662,6.531l4.219,3.018l4.93-5.504c1.516,0.902,3.099,1.693,4.743,2.359l-1.145,7.201
		l5.004,1.371l2.637-6.662c1.109,0.211,2.236,0.354,3.374,0.453L69.713,68.214z"/>
	<path id="REDHEART" fill="#EE4036" d="M151.635,15.405c-14.13-8.521-32.492-3.974-41.012,10.155
		c-2.871,4.759-4.251,9.996-4.291,15.176c-0.038-5.18-1.419-10.417-4.289-15.176C93.523,11.431,75.16,6.883,61.03,15.405
		C46.9,23.925,42.354,42.288,50.874,56.417c2.882,4.779,7.25,7.994,10.985,11.373l44.472,41.711v0.002h0.001h0.002v-0.002
		l13.226-12.404c-0.908,0.129-1.829,0.219-2.772,0.219c-10.774,0-19.506-8.732-19.506-19.506c0-10.771,8.732-19.504,19.506-19.504
		c10.771,0,19.504,8.732,19.504,19.504c0,1.363-0.142,2.693-0.408,3.977l14.924-13.996c3.734-3.379,8.104-6.594,10.984-11.373
		C170.312,42.288,165.765,23.925,151.635,15.405z M84.276,82.599c-6.353,0-11.502-5.148-11.502-11.502s5.15-11.504,11.502-11.504
		c6.354,0,11.502,5.15,11.502,11.504S90.63,82.599,84.276,82.599z M136.951,63.132c-12.673,0-22.943-10.272-22.943-22.943
		c0-12.673,10.271-22.944,22.943-22.944c12.672,0,22.943,10.271,22.943,22.944C159.895,52.86,149.623,63.132,136.951,63.132z"/>
	<path fill="#404C51" d="M93.213,71.116l1.532-0.312l-0.119-1.295l-1.564-0.027c-0.119-0.633-0.305-1.238-0.55-1.811l1.294-0.891
		l-0.615-1.145l-1.469,0.592c-0.328-0.484-0.703-0.93-1.117-1.336l0.884-1.34l-0.999-0.83l-1.171,1.133
		c-0.4-0.266-0.822-0.496-1.261-0.693l0.376-1.607l-1.225-0.432l-0.73,1.514c-0.668-0.154-1.361-0.23-2.071-0.219l-0.346-1.688
		l-1.294,0.119l-0.03,1.756c-0.543,0.115-1.066,0.277-1.563,0.486l-0.988-1.488L79.031,62.2l0.653,1.697
		c-0.48,0.324-0.925,0.695-1.328,1.105l-1.544-1.02l-0.83,1l1.302,1.348c-0.286,0.436-0.534,0.895-0.739,1.375l-1.85-0.375
		l-0.396,1.238l1.738,0.773c-0.112,0.547-0.173,1.111-0.177,1.686l-1.871,0.383l0.119,1.295l1.91,0.033
		c0.108,0.562,0.27,1.102,0.479,1.617l-1.569,1.078l0.615,1.145l1.752-0.705c0.291,0.439,0.62,0.848,0.982,1.225l-1.033,1.562
		l0.999,0.83l1.332-1.283c0.362,0.252,0.743,0.479,1.141,0.674l-0.417,1.779l1.224,0.434l0.781-1.615
		c0.648,0.172,1.324,0.268,2.016,0.283l0.353,1.723l1.293-0.119l0.03-1.723c0.561-0.096,1.102-0.244,1.616-0.439l0.936,1.406
		l1.155-0.596l-0.596-1.547c0.527-0.328,1.014-0.707,1.456-1.135l1.359,0.896l0.83-0.998l-1.114-1.156
		c0.331-0.471,0.616-0.975,0.85-1.506l1.552,0.314l0.396-1.236L93,73.007C93.137,72.397,93.211,71.763,93.213,71.116z
		 M79.276,72.985c-1.037,0-1.878-0.842-1.878-1.879s0.841-1.879,1.878-1.879s1.879,0.842,1.879,1.879S80.313,72.985,79.276,72.985z
		 M84.519,78.229c-1.037,0-1.878-0.842-1.878-1.879s0.841-1.879,1.878-1.879c1.039,0,1.88,0.842,1.88,1.879
		S85.558,78.229,84.519,78.229z M82.812,71.251c-0.088-0.953,0.613-1.797,1.565-1.885c0.953-0.088,1.796,0.613,1.884,1.566
		c0.088,0.953-0.613,1.795-1.566,1.883C83.742,72.903,82.9,72.202,82.812,71.251z M84.519,67.743c-1.037,0-1.878-0.842-1.878-1.879
		c0-1.039,0.841-1.879,1.878-1.879c1.039,0,1.88,0.84,1.88,1.879C86.398,66.901,85.558,67.743,84.519,67.743z M89.762,72.985
		c-1.037,0-1.878-0.842-1.878-1.879s0.842-1.879,1.878-1.879c1.038,0,1.879,0.842,1.879,1.879S90.8,72.985,89.762,72.985z"/>
	<path fill="#FFD100" d="M132.421,76.685l2.654-0.75l-0.374-2.256l-2.755,0.15c-0.29-1.098-0.696-2.137-1.199-3.111l2.161-1.73
		l-1.227-1.934l-2.506,1.227c-0.639-0.807-1.356-1.543-2.136-2.203l1.385-2.467l-1.862-1.334l-1.915,2.141
		c-0.736-0.416-1.508-0.768-2.308-1.057l0.458-2.875l-2.208-0.604l-1.091,2.754c-1.193-0.184-2.422-0.227-3.67-0.115l-0.825-2.928
		l-2.258,0.377l0.171,3.092c-0.939,0.271-1.838,0.623-2.687,1.055l-1.929-2.488l-1.952,1.197l1.366,2.9
		c-0.803,0.629-1.538,1.34-2.194,2.115l-2.844-1.596l-1.332,1.861l2.461,2.205c-0.446,0.799-0.824,1.639-1.12,2.512l-3.303-0.424
		l-0.538,2.227l3.153,1.139c-0.128,0.977-0.162,1.975-0.095,2.988l-3.24,0.91l0.375,2.26l3.361-0.186
		c0.263,0.975,0.616,1.904,1.05,2.783l-2.619,2.094l1.225,1.936l2.991-1.465c0.567,0.732,1.198,1.41,1.884,2.025l-1.618,2.883
		l1.863,1.332l2.176-2.43c0.671,0.398,1.368,0.748,2.095,1.041l-0.507,3.18l2.209,0.604l1.163-2.939
		c1.162,0.221,2.363,0.305,3.582,0.246l0.84,2.98l2.259-0.375l-0.166-3.035c0.973-0.238,1.902-0.568,2.785-0.977l1.824,2.354
		l1.953-1.195l-1.247-2.646c0.883-0.641,1.693-1.373,2.416-2.18l2.503,1.404l1.332-1.863l-2.108-1.889
		c0.521-0.869,0.959-1.793,1.3-2.758l2.771,0.357l0.538-2.229l-2.605-0.939C132.452,78.944,132.501,77.821,132.421,76.685z
		 M117.288,89.993c-6.734,0-12.193-5.459-12.193-12.193s5.459-12.191,12.193-12.191c6.733,0,12.191,5.457,12.191,12.191
		S124.021,89.993,117.288,89.993z"/>
	<path fill="#404C51" d="M117.186,69.026c-4.846,0-8.772,3.928-8.772,8.773s3.927,8.773,8.772,8.773s8.772-3.928,8.772-8.773
		S122.031,69.026,117.186,69.026z M117.186,82.327c-2.5,0-4.525-2.027-4.525-4.527c0-2.498,2.025-4.525,4.525-4.525
		s4.525,2.027,4.525,4.525C121.711,80.3,119.686,82.327,117.186,82.327z"/>
	<path fill="#404C51" d="M96.464,40.97v-2.645l-3.167-0.347c-0.123-1.305-0.387-2.568-0.778-3.773l2.791-1.562l-1.031-2.436
		l-3.088,0.925c-0.574-1.041-1.251-2.017-2.016-2.915l2.044-2.55l-1.87-1.871l-2.587,2.074c-0.761-0.609-1.572-1.159-2.427-1.639
		l1.065-3.187l-2.403-1.107l-1.763,2.931c-1.325-0.435-2.719-0.717-4.161-0.827l-0.384-3.489h-2.645l-0.392,3.555
		c-1.122,0.131-2.212,0.363-3.261,0.694l-1.725-3.201l-2.451,0.995l1.008,3.562c-1.037,0.568-2.005,1.238-2.902,1.996l-2.938-2.357
		l-1.872,1.872l2.387,2.976c-0.658,0.826-1.249,1.711-1.752,2.649l-3.683-1.107l-1.034,2.434l3.377,1.896
		c-0.33,1.088-0.559,2.221-0.673,3.387l-3.865,0.424v2.645l3.865,0.426c0.114,1.161,0.341,2.286,0.668,3.369l-3.38,1.892
		l1.031,2.437l3.686-1.104c0.506,0.944,1.098,1.835,1.761,2.666l-2.388,2.977l1.872,1.871l2.938-2.356
		c0.687,0.58,1.417,1.111,2.188,1.583l-1.177,3.526l2.401,1.107l1.882-3.129c1.282,0.469,2.634,0.793,4.035,0.955l0.392,3.555h2.645
		l0.384-3.486c1.154-0.09,2.278-0.287,3.359-0.586l1.632,3.027l2.453-0.994l-0.918-3.25c1.128-0.564,2.188-1.246,3.164-2.03
		l2.588,2.076l1.869-1.87l-2.044-2.551c0.76-0.894,1.432-1.862,2.004-2.895l3.088,0.929l1.034-2.435l-2.789-1.566
		c0.394-1.212,0.662-2.483,0.785-3.794L96.464,40.97z M75.714,43.173c-1.947,0-3.525-1.578-3.525-3.524s1.579-3.525,3.525-3.525
		s3.525,1.579,3.525,3.525S77.661,43.173,75.714,43.173z"/>
	<path fill="#00ADEE" d="M75.645,53.157c-7.447,0-13.508-6.06-13.508-13.508c0-7.45,6.061-13.508,13.508-13.508
		c7.449,0,13.51,6.059,13.51,13.508C89.155,47.097,83.094,53.157,75.645,53.157z M75.645,28.028c-6.407,0-11.619,5.213-11.619,11.62
		c0,6.405,5.212,11.618,11.619,11.618c6.408,0,11.619-5.213,11.619-11.618C87.264,33.242,82.053,28.028,75.645,28.028z"/>
	<path fill="#CFD7D8" d="M75.645,33.696c-3.286,0-5.951,2.666-5.951,5.953s2.665,5.952,5.951,5.952c3.288,0,5.952-2.665,5.952-5.952
		S78.933,33.696,75.645,33.696z M75.645,42.719c-1.696,0-3.069-1.375-3.069-3.07c0-1.696,1.374-3.071,3.069-3.071
		c1.479,0,2.712,1.046,3.005,2.437l-2.553-0.608c-0.709-0.169-1.424,0.269-1.592,0.979c-0.17,0.71,0.269,1.423,0.979,1.594
		l2.542,0.605C77.464,42.277,76.607,42.719,75.645,42.719z"/>
	<rect x="135.131" y="24.522" fill="#FFD100" width="4.556" height="31.074"/>
	<rect x="121.872" y="37.782" fill="#FFD100" width="31.074" height="4.556"/>
	<circle fill="#CFD7D8" cx="137.408" cy="40.161" r="7.36"/>
	<path fill="#26A9E0" d="M154.382,38.914l2.964-0.835l-0.421-2.521l-3.071,0.169c-0.325-1.224-0.776-2.385-1.34-3.473l2.413-1.932
		l-1.37-2.159l-2.797,1.372c-0.713-0.902-1.513-1.725-2.383-2.46l1.544-2.754l-2.079-1.488l-2.138,2.389
		c-0.82-0.463-1.682-0.857-2.572-1.179l0.508-3.208l-2.465-0.674l-1.215,3.074c-1.334-0.206-2.707-0.254-4.099-0.13l-0.919-3.266
		l-2.521,0.418l0.189,3.452c-1.048,0.303-2.051,0.696-2.998,1.177l-2.151-2.777l-2.18,1.335l1.524,3.237
		c-0.897,0.705-1.716,1.498-2.45,2.362l-3.174-1.782l-1.486,2.08l2.747,2.46c-0.496,0.892-0.919,1.829-1.251,2.803l-3.688-0.472
		l-0.6,2.485l3.521,1.271c-0.144,1.09-0.181,2.205-0.105,3.335l-3.618,1.018l0.419,2.521l3.753-0.206
		c0.291,1.087,0.688,2.125,1.17,3.104l-2.924,2.339l1.37,2.159l3.338-1.636c0.632,0.821,1.338,1.575,2.102,2.263l-1.805,3.217
		l2.079,1.487l2.428-2.711c0.748,0.444,1.528,0.834,2.338,1.161l-0.563,3.549l2.465,0.676l1.3-3.283
		c1.294,0.248,2.636,0.342,3.997,0.273l0.938,3.328l2.521-0.418l-0.187-3.387c1.087-0.268,2.126-0.635,3.108-1.09l2.037,2.627
		l2.181-1.336l-1.391-2.953c0.986-0.717,1.889-1.533,2.694-2.434l2.796,1.567l1.487-2.079l-2.354-2.108
		c0.584-0.972,1.071-2,1.452-3.077l3.092,0.397l0.601-2.485l-2.907-1.05C154.417,41.438,154.472,40.183,154.382,38.914z
		 M137.489,53.77c-7.515,0-13.608-6.093-13.608-13.609c0-7.517,6.094-13.609,13.608-13.609c7.518,0,13.61,6.092,13.61,13.609
		C151.1,47.677,145.007,53.77,137.489,53.77z"/>
	<g>
		<path fill="#404C51" d="M137.662,34.604h-0.352h-0.354c-0.588,0.05-0.705,0.674-0.705,0.674v0.29v0.53l0.268,1.804
			c0.034,0.335,0.236,0.739,0.236,0.739l0.42,0.605h0.136h0.134l0.421-0.605c0,0,0.201-0.404,0.234-0.739l0.269-1.804v-0.53v-0.29
			C138.368,35.278,138.251,34.654,137.662,34.604z M138.117,36.656c0,0,0,0.774-0.455,1.648l-0.201,0.168h-0.15h-0.153l-0.201-0.168
			c-0.454-0.875-0.454-1.648-0.454-1.648c-0.05-0.656,0.622-0.924,0.622-0.924l0.187-0.017l0.185,0.017
			C137.495,35.732,138.167,36,138.117,36.656z"/>
		<path fill="#404C51" d="M136.247,39.437v-0.136c0,0-0.27-3.094-0.253-3.883l-0.059-0.043l-0.312,0.168l-0.075,0.151l-0.849,0.338
			c0,0-0.167,0.049-0.22,0.378c0,0-0.234,1.779-0.15,2.835c0,0-0.051,0.148,0.143,0.283l0.573,0.37h0.15L136.247,39.437z"/>
		<path fill="#404C51" d="M138.372,39.437v-0.136c0,0,0.27-3.094,0.253-3.883l0.059-0.043l0.312,0.168l0.076,0.151l0.848,0.338
			c0,0,0.168,0.049,0.22,0.378c0,0,0.235,1.779,0.151,2.835c0,0,0.05,0.148-0.143,0.283l-0.572,0.37h-0.152L138.372,39.437z"/>
		<path fill="#404C51" d="M134.119,39.201l0.21-2.522c0,0-0.36,0.009-0.295-0.378l0.11-0.546l0.075-0.16l0.009,0.438l0.192,0.007
			l0.103-0.236l0.074-0.53l-0.06-0.143l0.06-0.664c0,0-0.137-0.118-0.32,0.167c0,0-0.353,0.362-0.512,2.364
			c0,0-0.43,0.513-0.276,1.336c0,0,0.184-1.756,0.284,0.337l0.093,0.646C133.866,39.318,134.011,39.066,134.119,39.201z"/>
		<path fill="#404C51" d="M140.501,39.201l-0.209-2.522c0,0,0.36,0.009,0.295-0.378l-0.111-0.546l-0.075-0.16l-0.008,0.438
			l-0.193,0.007l-0.103-0.236l-0.073-0.53l0.057-0.143l-0.057-0.664c0,0,0.136-0.118,0.32,0.167c0,0,0.351,0.362,0.511,2.364
			c0,0,0.428,0.513,0.277,1.336c0,0-0.185-1.756-0.285,0.337l-0.093,0.646C140.754,39.318,140.61,39.066,140.501,39.201z"/>
		<path fill="#404C51" d="M133.378,39.033c0,0,0.22-0.109,0.161,0.984h0.093l-0.076,1.218c0,0-0.126,0.261-0.27,0l-0.101,0.152
			v1.312c0,0-0.218,0.066-0.252-0.682C132.934,42.018,132.858,40.017,133.378,39.033z"/>
		<path fill="#404C51" d="M141.361,39.033c0,0-0.218-0.109-0.159,0.984h-0.093l0.076,1.218c0,0,0.125,0.261,0.27,0l0.101,0.152
			v1.312c0,0,0.218,0.066,0.252-0.682C141.808,42.018,141.883,40.017,141.361,39.033z"/>
		<path fill="#404C51" d="M134.654,41.652l0.706,0.329c0,0,0.265,0.151,0.328,0.516l0.416,2.358c0,0,0.063,0.252-0.152,0.126
			l-0.478-0.265L134.654,41.652z"/>
		<path fill="#404C51" d="M140.04,41.652l-0.706,0.329c0,0-0.265,0.151-0.328,0.516l-0.416,2.358c0,0-0.064,0.252,0.15,0.126
			l0.479-0.265L140.04,41.652z"/>
		<path fill="#404C51" d="M138.48,41.729l-0.984-0.277l-0.144-0.088l-0.146,0.088l-0.984,0.277c0,0-0.429-0.039-0.669,0.164
			c0,0,1.427,1.21,1.8,1.21c0.37,0,1.797-1.21,1.797-1.21C138.91,41.69,138.48,41.729,138.48,41.729z"/>
		<polygon fill="#404C51" points="138.263,38.184 137.72,39.37 137.318,39.434 136.941,39.37 136.398,38.184 136.562,39.246 
			136.916,39.736 136.666,41.496 137.143,41.235 137.318,41.235 137.344,41.235 137.519,41.235 138.02,41.496 137.744,39.736 
			138.099,39.246 		"/>
		<path fill="#404C51" d="M134.311,40.059c0,0-0.133,0.118-0.099,0.277l1.172,4.697l-1.073-0.871l-0.269-2.75l-0.065-0.134
			l-0.103-0.781C133.874,40.496,133.78,40.219,134.311,40.059z"/>
		<path fill="#404C51" d="M140.4,40.059c0,0,0.133,0.118,0.099,0.277l-1.153,4.681l1.055-0.854l0.267-2.75l0.067-0.134l0.101-0.781
			C140.835,40.496,140.931,40.219,140.4,40.059z"/>
		<path fill="#404C51" d="M133.799,40.647c0,0,0.227,3.952,0.799,4.751l-0.799-1.069c0,0-0.108-0.033-0.101-0.285l-0.066-0.068
			l-0.093-0.008l-0.258-0.159v-2.354c0,0,0.164,0.194,0.351-0.009C133.817,41.243,133.799,40.647,133.799,40.647z"/>
		<path fill="#404C51" d="M140.931,40.647c0,0-0.194,3.952-0.765,4.751l0.765-1.069c0,0,0.11-0.033,0.102-0.285l0.067-0.068
			l0.093-0.008l0.258-0.159v-2.354c0,0-0.164,0.194-0.351-0.009C140.914,41.243,140.931,40.647,140.931,40.647z"/>
		<path fill="#404C51" d="M138.775,45.17c-0.303,0.164-0.367-0.087-0.367-0.087l0.441-2.711l-1.071,0.857l-0.426,0.164l0,0
			l-0.428-0.164l-1.071-0.857l0.44,2.711c0,0-0.063,0.25-0.365,0.087l-0.176-0.075v0.228l0.982,0.504l0.113-0.416l0.504-0.328
			l0.503,0.328l0.112,0.416l0.984-0.504v-0.228L138.775,45.17z"/>
		<polygon fill="#404C51" points="137.76,45.582 137.353,45.339 136.944,45.582 136.843,46.121 137.353,46.449 137.86,46.121 		"/>
		<polygon fill="#404C51" points="134.479,39.841 135.204,40.151 136.621,39.841 136.251,41.563 134.767,41.034 134.479,40.488 		
			"/>
		<polygon fill="#404C51" points="140.144,39.841 139.421,40.151 138.003,39.841 138.373,41.563 139.857,41.034 140.144,40.488 		
			"/>
	</g>
</g>
</svg>
