<svg enable-background="new 0 0 640 640" height="640" viewBox="0 0 640 640" width="640" xmlns="http://www.w3.org/2000/svg"><path d="m524.8 288h-409.6c-17.664 0-19.2 14.304-19.2 32 0 17.695 1.536 32 19.2 32h409.6c17.664 0 19.2-14.305 19.2-32 0-17.696-1.536-32-19.2-32zm0 128h-409.6c-17.664 0-19.2 14.304-19.2 32s1.536 32 19.2 32h409.6c17.664 0 19.2-14.304 19.2-32s-1.536-32-19.2-32zm-409.6-192h409.6c17.664 0 19.2-14.304 19.2-32s-1.536-32-19.2-32h-409.6c-17.664 0-19.2 14.304-19.2 32s1.536 32 19.2 32z" fill="#dfe9ef"/></svg>