<?xml version="1.0" encoding="utf-8"?>
<!-- Generator: Adobe Illustrator 15.1.0, SVG Export Plug-In . SVG Version: 6.00 Build 0)  -->
<!DOCTYPE svg PUBLIC "-//W3C//DTD SVG 1.1//EN" "http://www.w3.org/Graphics/SVG/1.1/DTD/svg11.dtd">
<svg version="1.1" id="Layer_1" xmlns="http://www.w3.org/2000/svg" xmlns:xlink="http://www.w3.org/1999/xlink" x="0px" y="0px"
	 width="300px" height="300px" viewBox="0 0 300 300" enable-background="new 0 0 300 300" xml:space="preserve">
<g id="MOBILE">
	<g id="IPAD">
		<path fill="#404C51" d="M252.942,221.016V63.198c0-10.155-8.231-18.386-18.388-18.386H18.508c-10.153,0-18.383,8.23-18.383,18.386
			v157.817c0,10.154,8.23,18.389,18.383,18.389h216.047C244.711,239.404,252.942,231.17,252.942,221.016z M244.915,142.107
			c0,1.535-1.244,2.78-2.78,2.78c-1.535,0-2.775-1.245-2.775-2.78c0-1.529,1.24-2.779,2.775-2.779
			C243.671,139.328,244.915,140.578,244.915,142.107z M3.299,142.107c0-4.071,3.304-7.376,7.373-7.376
			c4.076,0,7.375,3.305,7.375,7.376c0,4.074-3.299,7.376-7.375,7.376C6.604,149.483,3.299,146.182,3.299,142.107z M22.337,217.95
			V66.262H230.72V217.95H22.337z"/>
		<rect x="22.337" y="66.262" fill="#CFD7D8" width="208.382" height="151.688"/>
		<rect x="29.343" y="74.353" fill="#FFD100" width="191.241" height="14.682"/>
		<rect x="29.343" y="93.465" fill="#26A9E0" width="63.072" height="5.372"/>
		<rect x="96.874" y="93.465" fill="#26A9E0" width="101.935" height="5.372"/>
		<rect x="29.343" y="138.062" fill="#FFD100" width="63.072" height="14.682"/>
		<rect x="29.343" y="155.899" fill="#26A9E0" width="63.072" height="5.055"/>
		<path fill="#404C51" d="M130.077,151.407v26.178h-26.179c0,14.459,11.72,26.18,26.179,26.18c14.459,0,26.18-11.721,26.18-26.18
			C156.257,163.128,144.537,151.407,130.077,151.407z"/>
		<path fill="#26A9E0" d="M182.437,151.407v26.178h-0.139l-20.551,16.001c4.789,6.183,12.265,10.179,20.689,10.179
			c14.459,0,26.18-11.721,26.18-26.18C208.616,163.128,196.896,151.407,182.437,151.407z"/>
		<rect x="29.343" y="103.658" fill="#26A9E0" width="95.621" height="5.372"/>
		<rect x="130.077" y="103.658" fill="#26A9E0" width="68.731" height="5.372"/>
		<rect x="29.343" y="112.577" fill="#26A9E0" width="111.703" height="5.372"/>
		<rect x="29.343" y="164.818" fill="#26A9E0" width="43.641" height="5.055"/>
		<rect x="29.343" y="173.737" fill="#26A9E0" width="52.878" height="5.055"/>
	</g>
	<g id="IPHONE">
		<path fill="#404C51" d="M288.383,89.704h-56.307c-6.341,0-11.492,5.148-11.492,11.493v142.498c0,6.348,5.151,11.492,11.492,11.492
			h56.307c6.35,0,11.492-5.145,11.492-11.492V101.197C299.875,94.853,294.732,89.704,288.383,89.704z M260.229,94.817
			c1.327,0,2.395,1.071,2.395,2.396c0,1.318-1.067,2.393-2.395,2.393c-1.318,0-2.394-1.074-2.394-2.393
			C257.836,95.889,258.911,94.817,260.229,94.817z M254.817,103.049h10.824c0.637,0,1.153,0.511,1.153,1.146
			c0,0.638-0.517,1.153-1.153,1.153h-10.824c-0.634,0-1.15-0.516-1.15-1.153C253.667,103.56,254.184,103.049,254.817,103.049z
			 M260.229,252.062c-4.28,0-7.754-3.474-7.754-7.76c0-4.28,3.474-7.754,7.754-7.754c4.288,0,7.758,3.474,7.758,7.754
			C267.987,248.588,264.518,252.062,260.229,252.062z M294.705,232.202h-68.952V112.688h68.952V232.202z"/>
		<rect x="225.753" y="112.688" fill="#FFD100" width="68.952" height="119.514"/>
		<polygon fill="#4A535A" points="255.411,169.973 233.604,161.845 230.306,147.924 247.605,151.385 		"/>
		<polygon fill="#4A535A" points="266.031,169.973 287.839,161.845 291.136,147.924 273.838,151.385 		"/>
		<polygon fill="#4A535A" points="248.25,150.096 237.225,147.924 244.708,138.028 254.122,138.028 		"/>
		<polygon fill="#4A535A" points="273.031,150.096 284.056,147.924 276.571,138.028 267.158,138.028 		"/>
		<polygon fill="#4A535A" points="271.774,152.662 263.979,172.991 266.312,188.42 254.725,188.42 257.351,172.969 249.536,152.662 
			254.605,138.028 266.594,138.028 		"/>
		<polygon fill="#4A535A" points="238.955,172.023 246.6,176.129 246.6,192.342 234.046,181.6 234.046,163.455 238.955,165.466 		
			"/>
		<polygon fill="#4A535A" points="282.244,172.023 274.602,176.129 274.602,192.342 287.154,181.6 287.154,163.455 282.244,165.466 
					"/>
		<polygon fill="#4A535A" points="268.888,170.253 266.031,171.74 266.031,174.536 267.822,189.413 263.99,193.308 260.655,193.338 
			257.32,193.308 253.489,189.413 255.28,174.536 255.28,171.74 252.425,170.253 248.481,176.894 248.481,201 252.554,197.257 
			260.655,197.17 268.756,197.257 272.83,201 272.83,176.894 		"/>
		<polygon fill="#4A535A" points="265.951,209.643 255.289,209.643 251.549,205.798 255.289,201.958 265.951,201.958 
			269.813,205.798 		"/>
		<polygon opacity="0.5" fill="#4A535A" points="246.6,201.958 239.639,194.233 239.639,188.963 246.6,193.509 		"/>
		<polygon opacity="0.5" fill="#4A535A" points="274.4,201.958 281.361,194.233 281.361,188.963 274.4,193.509 		"/>
		<polygon opacity="0.5" fill="#4A535A" points="267.883,201 253.429,201 250.562,204.925 248.481,203.84 253.358,198.939 
			268.002,198.939 272.83,203.84 270.778,204.925 		"/>
	</g>
</g>
</svg>
