<svg enable-background="new 0 0 300 300" height="300" viewBox="0 0 300 300" width="300" xmlns="http://www.w3.org/2000/svg"><path d="m252.942 221.016v-157.818c0-10.155-8.231-18.386-18.388-18.386h-216.046c-10.153 0-18.383 8.23-18.383 18.386v157.817c0 10.154 8.23 18.389 18.383 18.389h216.047c10.156 0 18.387-8.234 18.387-18.388zm-8.027-78.909c0 1.535-1.244 2.78-2.78 2.78-1.535 0-2.775-1.245-2.775-2.78 0-1.529 1.24-2.779 2.775-2.779 1.536 0 2.78 1.25 2.78 2.779zm-241.616 0c0-4.071 3.304-7.376 7.373-7.376 4.076 0 7.375 3.305 7.375 7.376 0 4.074-3.299 7.376-7.375 7.376-4.068 0-7.373-3.301-7.373-7.376zm19.038 75.843v-151.688h208.383v151.688z" fill="#404c51"/><path d="m22.337 66.262h208.382v151.688h-208.382z" fill="#cfd7d8"/><path d="m29.343 74.353h191.241v14.682h-191.241z" fill="#ffd100"/><path d="m29.343 93.465h63.072v5.372h-63.072z" fill="#26a9e0"/><path d="m96.874 93.465h101.935v5.372h-101.935z" fill="#26a9e0"/><path d="m29.343 138.062h63.072v14.682h-63.072z" fill="#ffd100"/><path d="m29.343 155.899h63.072v5.055h-63.072z" fill="#26a9e0"/><path d="m130.077 151.407v26.178h-26.179c0 14.459 11.72 26.18 26.179 26.18s26.18-11.721 26.18-26.18c0-14.457-11.72-26.178-26.18-26.178z" fill="#404c51"/><path d="m182.437 151.407v26.178h-.139l-20.551 16.001c4.789 6.183 12.265 10.179 20.689 10.179 14.459 0 26.18-11.721 26.18-26.18 0-14.457-11.72-26.178-26.179-26.178z" fill="#26a9e0"/><path d="m29.343 103.658h95.621v5.372h-95.621z" fill="#26a9e0"/><path d="m130.077 103.658h68.731v5.372h-68.731z" fill="#26a9e0"/><path d="m29.343 112.577h111.703v5.372h-111.703z" fill="#26a9e0"/><path d="m29.343 164.818h43.641v5.055h-43.641z" fill="#26a9e0"/><path d="m29.343 173.737h52.878v5.055h-52.878z" fill="#26a9e0"/><path d="m288.383 89.704h-56.307c-6.341 0-11.492 5.148-11.492 11.493v142.498c0 6.348 5.151 11.492 11.492 11.492h56.307c6.35 0 11.492-5.145 11.492-11.492v-142.498c0-6.344-5.143-11.493-11.492-11.493zm-28.154 5.113c1.327 0 2.395 1.071 2.395 2.396 0 1.318-1.067 2.393-2.395 2.393-1.318 0-2.394-1.074-2.394-2.393.001-1.324 1.076-2.396 2.394-2.396zm-5.412 8.232h10.824c.637 0 1.153.511 1.153 1.146 0 .638-.517 1.153-1.153 1.153h-10.824c-.634 0-1.15-.516-1.15-1.153 0-.635.517-1.146 1.15-1.146zm5.412 149.013c-4.28 0-7.754-3.474-7.754-7.76 0-4.28 3.474-7.754 7.754-7.754 4.288 0 7.758 3.474 7.758 7.754 0 4.286-3.469 7.76-7.758 7.76zm34.476-19.86h-68.952v-119.514h68.952z" fill="#404c51"/><path d="m225.753 112.688h68.952v119.514h-68.952z" fill="#ffd100"/><g fill="#4a535a"><path d="m255.411 169.973-21.807-8.128-3.298-13.921 17.299 3.461z"/><path d="m266.031 169.973 21.808-8.128 3.297-13.921-17.298 3.461z"/><path d="m248.25 150.096-11.025-2.172 7.483-9.896h9.414z"/><path d="m273.031 150.096 11.025-2.172-7.485-9.896h-9.413z"/><path d="m271.774 152.662-7.795 20.329 2.333 15.429h-11.587l2.626-15.451-7.815-20.307 5.069-14.634h11.989z"/><path d="m238.955 172.023 7.645 4.106v16.213l-12.554-10.742v-18.145l4.909 2.011z"/><path d="m282.244 172.023-7.642 4.106v16.213l12.552-10.742v-18.145l-4.91 2.011z"/><path d="m268.888 170.253-2.857 1.487v2.796l1.791 14.877-3.832 3.895-3.335.03-3.335-.03-3.831-3.895 1.791-14.877v-2.796l-2.855-1.487-3.944 6.641v24.106l4.073-3.743 8.101-.087 8.101.087 4.074 3.743v-24.106z"/><path d="m265.951 209.643h-10.662l-3.74-3.845 3.74-3.84h10.662l3.862 3.84z"/><path d="m246.6 201.958-6.961-7.725v-5.27l6.961 4.546z" opacity=".5"/><path d="m274.4 201.958 6.961-7.725v-5.27l-6.961 4.546z" opacity=".5"/><path d="m267.883 201h-14.454l-2.867 3.925-2.081-1.085 4.877-4.901h14.644l4.828 4.901-2.052 1.085z" opacity=".5"/></g></svg>