<?xml version="1.0" encoding="utf-8"?>
<!-- Generator: Adobe Illustrator 15.1.0, SVG Export Plug-In . SVG Version: 6.00 Build 0)  -->
<!DOCTYPE svg PUBLIC "-//W3C//DTD SVG 1.1//EN" "http://www.w3.org/Graphics/SVG/1.1/DTD/svg11.dtd">
<svg version="1.1" id="Layer_1" xmlns="http://www.w3.org/2000/svg" xmlns:xlink="http://www.w3.org/1999/xlink" x="0px" y="0px"
	 width="200.206px" height="109.645px" viewBox="0 0 200.206 109.645" enable-background="new 0 0 200.206 109.645"
	 xml:space="preserve">
<g id="OPTIMUSHEAR">
	<g id="SIGNALS">
		<path fill="#FFD100" d="M181.523,7.99l-7.343,7.342c21.002,21.458,20.867,55.995-0.416,77.277l7.342,7.343
			C206.438,74.62,206.567,33.501,181.523,7.99z"/>
		<path fill="#FFD100" d="M168.388,20.281l-7.342,7.337c14.413,14.414,14.408,37.858,0,52.271l7.342,7.337
			C186.844,68.771,186.844,38.737,168.388,20.281z"/>
		<path fill="#FFD100" d="M154.356,34.307l-7.342,7.343c6.678,6.672,6.678,17.532,0,24.21l7.342,7.337
			C165.077,62.476,165.077,45.032,154.356,34.307z"/>
		<path fill="#FFD100" d="M18.683,99.526l7.343-7.342C5.023,70.728,5.158,36.19,26.441,14.907L19.1,7.565
			C-6.231,32.897-6.361,74.017,18.683,99.526z"/>
		<path fill="#FFD100" d="M31.818,87.235l7.342-7.336c-14.413-14.414-14.408-37.859,0-52.271l-7.342-7.338
			C13.362,38.747,13.362,68.78,31.818,87.235z"/>
		<path fill="#FFD100" d="M45.85,73.21l7.342-7.342c-6.678-6.672-6.678-17.533,0-24.211l-7.342-7.336
			C35.129,45.042,35.129,62.485,45.85,73.21z"/>
	</g>
	<polyline id="OPTIMUSBACK" fill="#4A535A" points="49.191,9.441 65.791,12.587 77.238,0 121.985,0 133.862,12.587 150.309,9.441 
		139.142,41.23 134.017,80.686 110.105,109.645 88.786,109.645 64.572,80.608 59.75,41.523 	"/>
	<g id="OPTIMUS">
		<polygon fill="#26A9E0" points="92.746,49.747 65.232,39.491 61.071,21.929 82.897,26.295 		"/>
		<polygon fill="#26A9E0" points="106.147,49.747 133.661,39.491 137.822,21.929 115.995,26.295 		"/>
		<polygon fill="#26A9E0" points="83.71,24.67 69.801,21.929 79.243,9.441 91.121,9.441 		"/>
		<polygon fill="#26A9E0" points="114.979,24.67 128.888,21.929 119.446,9.441 107.567,9.441 		"/>
		<polygon fill="#26A9E0" points="113.393,27.906 103.558,53.554 106.501,73.021 91.882,73.021 95.194,53.528 85.334,27.906 
			91.73,9.441 106.857,9.441 		"/>
		<polygon fill="#26A9E0" points="126.604,52.336 116.96,57.514 116.96,77.97 132.798,64.416 132.798,41.523 126.604,44.062 		"/>
		<polygon fill="#26A9E0" points="109.749,50.102 106.147,51.979 106.147,55.508 108.405,74.276 103.57,79.188 99.363,79.226 
			95.156,79.188 90.321,74.276 92.58,55.508 92.58,51.979 88.977,50.102 84.003,58.478 84.003,88.896 89.141,84.175 99.363,84.062 
			109.585,84.175 114.724,88.896 114.724,58.478 		"/>
		<polygon fill="#26A9E0" points="106.045,99.798 92.593,99.798 87.872,94.949 92.593,90.103 106.045,90.103 110.918,94.949 		"/>
		<polygon opacity="0.5" fill="#26A9E0" points="116.704,90.103 125.487,80.356 125.487,73.706 116.704,79.442 		"/>
		<polygon opacity="0.5" fill="#26A9E0" points="108.481,88.896 90.245,88.896 86.628,93.846 84.003,92.475 90.156,86.295 
			108.634,86.295 114.724,92.475 112.136,93.846 		"/>
		<polygon fill="#26A9E0" points="71.984,52.336 81.629,57.514 81.629,77.97 65.791,64.416 65.791,41.523 71.984,44.062 		"/>
		<polygon opacity="0.5" fill="#26A9E0" points="81.629,90.103 72.847,80.356 72.847,73.706 81.629,79.442 		"/>
	</g>
</g>
</svg>
