<svg enable-background="new 0 0 200.206 109.645" height="109.645" viewBox="0 0 200.206 109.645" width="200.206" xmlns="http://www.w3.org/2000/svg"><path d="m181.523 7.99-7.343 7.342c21.002 21.458 20.867 55.995-.416 77.277l7.342 7.343c25.332-25.332 25.461-66.451.417-91.962z" fill="#ffd100"/><path d="m168.388 20.281-7.342 7.337c14.413 14.414 14.408 37.858 0 52.271l7.342 7.337c18.456-18.455 18.456-48.489 0-66.945z" fill="#ffd100"/><path d="m154.356 34.307-7.342 7.343c6.678 6.672 6.678 17.532 0 24.21l7.342 7.337c10.721-10.721 10.721-28.165 0-38.89z" fill="#ffd100"/><path d="m18.683 99.526 7.343-7.342c-21.003-21.456-20.868-55.994.415-77.277l-7.341-7.342c-25.331 25.332-25.461 66.452-.417 91.961z" fill="#ffd100"/><path d="m31.818 87.235 7.342-7.336c-14.413-14.414-14.408-37.859 0-52.271l-7.342-7.338c-18.456 18.457-18.456 48.49 0 66.945z" fill="#ffd100"/><path d="m45.85 73.21 7.342-7.342c-6.678-6.672-6.678-17.533 0-24.211l-7.342-7.336c-10.721 10.721-10.721 28.164 0 38.889z" fill="#ffd100"/><path d="m49.191 9.441 16.6 3.146 11.447-12.587h44.747l11.877 12.587 16.447-3.146-11.167 31.789-5.125 39.456-23.912 28.959h-21.319l-24.214-29.037-4.822-39.085" fill="#4a535a"/><g fill="#26a9e0"><path d="m92.746 49.747-27.514-10.256-4.161-17.562 21.826 4.366z"/><path d="m106.147 49.747 27.514-10.256 4.161-17.562-21.827 4.366z"/><path d="m83.71 24.67-13.909-2.741 9.442-12.488h11.878z"/><path d="m114.979 24.67 13.909-2.741-9.442-12.488h-11.879z"/><path d="m113.393 27.906-9.835 25.648 2.943 19.467h-14.619l3.312-19.493-9.86-25.622 6.396-18.465h15.127z"/><path d="m126.604 52.336-9.644 5.178v20.456l15.838-13.554v-22.893l-6.194 2.539z"/><path d="m109.749 50.102-3.602 1.877v3.529l2.258 18.768-4.835 4.912-4.207.038-4.207-.038-4.835-4.912 2.259-18.768v-3.529l-3.603-1.877-4.974 8.376v30.418l5.138-4.721 10.222-.113 10.222.113 5.139 4.721v-30.418z"/><path d="m106.045 99.798h-13.452l-4.721-4.849 4.721-4.846h13.452l4.873 4.846z"/><path d="m116.704 90.103 8.783-9.747v-6.65l-8.783 5.736z" opacity=".5"/><path d="m108.481 88.896h-18.236l-3.617 4.95-2.625-1.371 6.153-6.18h18.478l6.09 6.18-2.588 1.371z" opacity=".5"/><path d="m71.984 52.336 9.645 5.178v20.456l-15.838-13.554v-22.893l6.193 2.539z"/><path d="m81.629 90.103-8.782-9.747v-6.65l8.782 5.736z" opacity=".5"/></g></svg>