<svg height="200" viewBox="0 0 188 200" width="188" xmlns="http://www.w3.org/2000/svg"><g fill="none" fill-rule="evenodd"><path d="m94 0-93.1 33.2 14.2 123.1 78.9 43.7 78.9-43.7 14.2-123.1z" fill="#dd0031"/><path d="m94 0v22.2-.1 101.3 76.6l78.9-43.7 14.2-123.1z" fill="#c3002f"/><g fill="#fff"><g transform="translate(37 34)"><path d="m47.417 60.122-40.598-15.135-6.146-25.919 32.208 6.444z"/><path d="m67.199 60.122 40.603-15.135 6.153-25.919-32.226 6.444z"/><path d="m34.083 23.115-20.533-4.047 13.935-18.431h17.533z"/><path d="m80.232 23.115 20.528-4.047-13.936-18.431h-17.526z"/><path d="m77.891 27.886-14.515 37.857 4.343 28.733h-21.573l4.891-28.774-14.559-37.816 9.442-27.249h22.32z"/><path d="m16.776 63.939 14.231 7.647v30.192l-23.378-20.002v-33.794l9.147 3.75z"/><path d="m97.388 63.939-14.236 7.647v30.192l23.384-20.002v-33.794l-9.148 3.75z"/><path d="m72.519 60.646-5.32 2.775v5.21l3.33 27.694-7.135 7.252-6.205.058-6.21-.058-7.141-7.252 3.336-27.694v-5.21l-5.308-2.775-7.361 12.365v44.894l7.599-6.968 15.085-.166 15.086.166 7.581 6.968v-44.894z"/><path d="m67.048 133.991h-19.862l-6.956-7.151 6.956-7.153h19.862l7.182 7.153z"/><path d="m31.007 119.687-12.964-14.388v-9.819l12.964 8.473z"/><path d="m82.788 119.687 12.953-14.388v-9.819l-12.953 8.473z"/><path d="m70.639 117.905h-26.911l-5.337 7.309-3.886-2.025 9.096-9.124h27.264l8.991 9.124-3.816 2.025z"/></g><g transform="translate(36 34)"><path d="m47.417 60.036-40.598-15.133-6.146-25.919 32.208 6.444z"/><path d="m67.199 60.036 40.603-15.133 6.153-25.919-32.226 6.444z"/><path d="m34.083 23.031-20.533-4.047 13.935-18.431h17.533z"/><path d="m80.238 23.031 20.522-4.047-13.936-18.431h-17.526z"/><path d="m77.891 27.799-14.515 37.86 4.343 28.735h-21.573l4.891-28.776-14.559-37.819 9.436-27.246h22.331z"/><path d="m16.776 63.855 14.231 7.647v30.189l-23.366-20.001v-33.792l9.135 3.747z"/><path d="m97.388 63.855-14.236 7.647v30.189l23.384-20.001v-33.792l-9.148 3.747z"/><path d="m72.519 60.562-5.32 2.772v5.213l3.33 27.698-7.135 7.25-6.205.047-6.215-.047-7.136-7.25 3.331-27.698v-5.213l-5.309-2.772-7.355 12.365v44.892l7.599-6.968 15.085-.162 15.081.162 7.58 6.968v-44.892z"/><path d="m67.048 133.911h-19.862l-6.956-7.158 6.956-7.153h19.862l7.176 7.153z"/><path d="m31.007 119.6-12.964-14.382v-9.818l12.964 8.465z"/><path d="m82.788 119.6 12.953-14.382v-9.818l-12.953 8.465z"/><path d="m70.639 117.819h-26.911l-5.337 7.309-3.886-2.018 9.096-9.126h27.264l8.985 9.126-3.81 2.018z"/></g></g></g></svg>