<svg width="1430" height="302" viewBox="0 0 1430 302" fill="none" xmlns="http://www.w3.org/2000/svg">
<path d="M141.5 0L0.364349 50.132L21.8909 236.013L141.5 302L261.109 236.013L282.636 50.132L141.5 0Z" fill="#DD0031"/>
<path fill-rule="evenodd" clip-rule="evenodd" d="M141.5 0V33.522V33.371V186.334V302L261.109 236.013L282.636 50.132L141.5 0Z" fill="#C3002F"/>
<path d="M182.87 143.229L169.33 140.221L179.861 155.26V201.878L215.965 171.802V120.672L199.417 126.687L182.87 143.229Z" fill="white"/>
<path d="M98.6261 143.229L112.165 140.221L101.635 155.26V201.878L65.5304 171.802V120.672L82.0783 126.687L98.6261 143.229Z" fill="white"/>
<path fill-rule="evenodd" clip-rule="evenodd" d="M106.148 158.267L118.183 140.221L125.704 144.733H155.791L163.313 140.221L175.348 158.267V225.939L166.322 239.473L155.791 250H125.704L115.174 239.473L106.148 225.939V158.267Z" fill="white"/>
<path d="M179.861 230.45L199.417 210.901V191.351L179.861 207.893V230.45Z" fill="white"/>
<path d="M101.635 230.45L82.0783 210.901V191.351L101.635 207.893V230.45Z" fill="white"/>
<path fill-rule="evenodd" clip-rule="evenodd" d="M131.722 53H137.739V138.718H128.713L109.157 81.5725L121.191 53H125.704V87.5878L131.722 90.5954V53ZM143.757 53H149.774V90.5954L155.791 87.5878V53H160.304L172.339 81.5725L154.287 138.718H143.757V53Z" fill="white"/>
<path d="M128.713 138.718L64.0261 114.656L55 77.0611L110.661 81.5725L130.217 138.718H128.713Z" fill="white"/>
<path d="M154.287 138.718L218.974 114.656L228 77.0611L170.835 81.5725L152.783 138.718H154.287Z" fill="white"/>
<path d="M175.348 77.0611L206.939 74.0534L185.878 53H164.817L175.348 77.0611Z" fill="white"/>
<path d="M106.148 77.0611L74.5565 74.0534L95.6174 53H116.678L106.148 77.0611Z" fill="white"/>
<path d="M337.586 237V63.8359H407.82C443.18 63.8359 460.859 79.2956 460.859 110.215C460.859 143.879 436.681 164.424 388.324 171.852L383.723 152.961C419.243 147.714 437.004 133.788 437.004 111.184C437.004 91.9701 426.59 82.3633 405.762 82.3633H359.988V237H337.586ZM490.648 237V63.8359H564.516C597.453 63.8359 613.922 77.681 613.922 105.371C613.922 127.895 597.816 144.565 565.605 155.383L625.062 237H595.516L540.418 159.137V144.484C573.517 139.237 590.066 126.522 590.066 106.34C590.066 90.3555 580.863 82.3633 562.457 82.3633H513.051V237H490.648ZM674.832 63.8359V237H652.43V63.8359H674.832ZM719.758 237V63.8359H748.215L811.789 208.301L874.152 63.8359H901.398V237H881.418V94.957L819.902 237H802.223L739.738 94.957V237H719.758ZM1055.79 63.8359V82H964.973V140.125H1051.55V158.289H964.973V218.836H1057.61V237H942.57V63.8359H1055.79ZM1091.52 237V63.8359H1113.92L1219.88 203.336V63.8359H1241.07V237H1218.66L1112.71 96.2891V237H1091.52ZM1413.14 230.219C1399.17 235.547 1384.12 238.211 1367.97 238.211C1305.25 238.211 1273.88 208.139 1273.88 147.996C1273.88 91.082 1304.16 62.625 1364.7 62.625C1382.06 62.625 1398.21 65.0469 1413.14 69.8906V89.2656C1398.21 83.6146 1382.87 80.7891 1367.12 80.7891C1319.9 80.7891 1296.29 103.191 1296.29 147.996C1296.29 196.03 1319.54 220.047 1366.04 220.047C1373.46 220.047 1381.7 219.078 1390.74 217.141V158.289H1413.14V230.219Z" fill="white"/>
</svg>
