<?xml version="1.0" encoding="UTF-8"?>
<svg width="40px" height="43px" viewBox="0 0 40 43" version="1.1" xmlns="http://www.w3.org/2000/svg" xmlns:xlink="http://www.w3.org/1999/xlink">
    <title>primeng-logo-horizontal</title>
    <defs>
        <polygon id="path-1" points="20.004703 0 20.004703 0 20.004703 0 0.0515119974 7.08746128 3.09485585 33.3665722 20.004703 42.6955499 20.004703 42.6955499 20.004703 42.6955499 36.9145502 33.3665722 39.957894 7.08746128"></polygon>
    </defs>
    <g id="Page-1" stroke="none" stroke-width="1" fill="none" fill-rule="evenodd">
        <g id="primeng-logo-horizontal">
            <g id="icon-primeng">
                <g>
                    <g id="prime-logo">
                        <mask id="mask-2" fill="white">
                            <use xlink:href="#path-1"></use>
                        </mask>
                        <use id="Shape" fill="#DD0031" fill-rule="nonzero" xlink:href="#path-1"></use>
                        <polygon id="Shape-path" fill="#C3002F" mask="url(#mask-2)" points="20.004703 0 20.004703 4.73920604 20.004703 4.71785826 20.004703 26.3431543 20.004703 26.3431543 20.004703 42.6955499 20.004703 42.6955499 36.9145502 33.3665722 39.957894 7.08746128"></polygon>
                    </g>
                    <g id="head" transform="translate(7.775680, 7.492928)" fill="#FFFFFF">
                        <polygon id="chick-right" fill-rule="nonzero" points="18.0776868 12.7562155 16.1635787 12.3310084 17.6523294 14.4570443 17.6523294 21.0477557 22.7566174 16.7956838 22.7566174 9.56716166 20.4171521 10.417576"></polygon>
                        <polygon id="chick-left" fill-rule="nonzero" transform="translate(4.785270, 15.307459) scale(-1, 1) translate(-4.785270, -15.307459) " points="3.40285868 12.7562155 1.48875067 12.3310084 2.97750135 14.4570443 2.97750135 21.0477557 8.08178937 16.7956838 8.08178937 9.56716166 5.74232403 10.417576"></polygon>
                        <polygon id="mask" points="7.21017564 14.8560992 8.90668756 12.2997114 9.9670075 12.9388083 14.2082873 12.9388083 15.2686072 12.2997114 16.9651192 14.8560992 16.9651192 24.4425535 15.6927352 26.3598444 14.2082873 27.8510706 9.9670075 27.8510706 8.48255958 26.3598444 7.21017564 24.4425535"></polygon>
                        <polygon id="bottom-chick-right" fill-rule="nonzero" points="17.6523294 25.0872239 20.4171521 22.3233772 20.4171521 19.5595305 17.6523294 21.89817"></polygon>
                        <polygon id="bottom-chick-left" fill-rule="nonzero" transform="translate(5.210627, 22.323377) scale(-1, 1) translate(-5.210627, -22.323377) " points="3.82821602 25.0872239 6.5930387 22.3233772 6.5930387 19.5595305 3.82821602 21.89817"></polygon>
                        <path d="M12.5480414,12.1184048 L12.5480414,0 L14.8875067,0 L16.581,4.023 L24.4580468,3.40165748 L23.1819748,8.71674729 L14.0367921,12.1184048 L12.5480414,12.1184048 Z M11.6973267,0 L11.6973267,12.1184048 L10.4212547,12.1184048 L1.27607201,8.71674729 L0,3.40165748 L7.663,4.022 L9.35786138,0 L11.6973267,0 Z"></path>
                        <polygon id="ear-right" fill-rule="nonzero" points="17.0142934 3.40165748 21.4805454 2.97645029 18.5030441 0 15.5255427 0"></polygon>
                        <polygon id="ear-left" fill-rule="nonzero" transform="translate(5.742324, 1.700829) scale(-1, 1) translate(-5.742324, -1.700829) " points="4.25357335 3.40165748 8.71982537 2.97645029 5.74232403 0 2.76482268 0"></polygon>
                    </g>
                </g>
            </g>
        </g>
    </g>
</svg>