<svg width="57" height="61" viewBox="0 0 57 61" fill="none" xmlns="http://www.w3.org/2000/svg">
<path d="M28.3 0L0.072876 10.0264L4.3782 47.2026L28.3 60.4L52.2218 47.2026L56.5271 10.0264L28.3 0Z" fill="white"/>
<mask id="mask0" mask-type="alpha" maskUnits="userSpaceOnUse" x="0" y="0" width="57" height="61">
<path d="M28.3 0L0.072876 10.0264L4.3782 47.2026L28.3 60.4L52.2218 47.2026L56.5271 10.0264L28.3 0Z" fill="white"/>
</mask>
<g mask="url(#mask0)">
<path fill-rule="evenodd" clip-rule="evenodd" d="M28.3 0V6.7044V6.6742V37.2668V60.4L52.2218 47.2026L56.5271 10.0264L28.3 0Z" fill="white"/>
</g>
<path d="M36.5739 28.6458L33.8661 28.0443L35.9722 31.0519V40.3756L43.193 34.3603V24.1344L39.8835 25.3374L36.5739 28.6458Z" fill="black"/>
<path d="M19.7252 28.6458L22.433 28.0443L20.327 31.0519V40.3756L13.1061 34.3603V24.1344L16.4157 25.3374L19.7252 28.6458Z" fill="black"/>
<path fill-rule="evenodd" clip-rule="evenodd" d="M21.2 31.6164L23.6 28L25.1 28.9041H31.1L32.6 28L35 31.6164V45.1781L33.2 47.8904L31.1 50H25.1L23 47.8904L21.2 45.1781V31.6164Z" fill="black"/>
<path d="M35.9722 46.0901L39.8835 42.1802V38.2702L35.9722 41.5786V46.0901Z" fill="black"/>
<path d="M20.327 46.0901L16.4156 42.1802V38.2702L20.327 41.5786V46.0901Z" fill="black"/>
<path fill-rule="evenodd" clip-rule="evenodd" d="M24.2383 10.6L21.8313 16.3145L25.7426 27.7435H27.5478V10.6H24.2383ZM28.7513 10.6V27.7435H30.8574L34.4678 16.3145L32.0609 10.6H28.7513Z" fill="black"/>
<path d="M25.7426 27.7435L12.8052 22.9313L11 15.4122L22.1322 16.3145L26.0435 27.7435H25.7426Z" fill="black"/>
<path d="M30.8574 27.7435L43.7948 22.9313L45.6 15.4122L34.167 16.3145L30.5565 27.7435H30.8574Z" fill="black"/>
<path d="M35.0696 15.4122L41.3878 14.8107L37.1757 10.6H32.9635L35.0696 15.4122Z" fill="black"/>
<path d="M21.2296 15.4122L14.9113 14.8107L19.1235 10.6H23.3356L21.2296 15.4122Z" fill="black"/>
</svg>
