<svg enable-background="new 0 0 544.119 241.86" height="241.86" viewBox="0 0 544.119 241.86" width="544.119" xmlns="http://www.w3.org/2000/svg" xmlns:xlink="http://www.w3.org/1999/xlink"><clipPath id="a"><path d="m0 22.366h130.311v206.901h-130.311z"/></clipPath><clipPath id="b"><path d="m130.311 31.311h98.86v188.553h-98.86z"/></clipPath><path d="m130.496.046-113.768 40.039 17.972 149.063 95.917 52.712 96.41-53.427 17.971-149.056z" fill="#37474f"/><path d="m233.653 47.993-103.429-35.269v216.543l86.677-47.965z" fill="#a61a17"/><path d="m29.484 48.629 15.41 133.309 85.33 47.329v-216.546z" fill="#d71516"/><g clip-path="url(#a)" fill="#fff"><path d="m120.417 112.122-40.598-15.135-6.146-25.919 32.208 6.444z"/><path d="m140.199 112.122 40.603-15.135 6.153-25.919-32.226 6.444z"/><path d="m107.083 75.115-20.533-4.047 13.935-18.431h17.533z"/><path d="m153.232 75.115 20.528-4.047-13.936-18.431h-17.526z"/><path d="m150.891 79.886-14.515 37.857 4.343 28.733h-21.573l4.891-28.774-14.559-37.816 9.442-27.249h22.32z"/><path d="m89.776 115.939 14.231 7.647v30.192l-23.378-20.002v-33.794l9.147 3.75z"/><path d="m170.388 115.939-14.236 7.647v30.192l23.384-20.002v-33.794l-9.148 3.75z"/><path d="m145.519 112.646-5.32 2.775v5.21l3.33 27.694-7.135 7.252-6.205.058-6.21-.058-7.141-7.252 3.336-27.694v-5.21l-5.308-2.775-7.361 12.365v44.894l7.599-6.968 15.085-.166 15.086.166 7.581 6.968v-44.894z"/><path d="m140.048 185.991h-19.862l-6.956-7.151 6.956-7.153h19.862l7.182 7.153z"/><path d="m104.007 171.687-12.964-14.388v-9.819l12.964 8.473z"/><path d="m155.788 171.687 12.953-14.388v-9.819l-12.953 8.473z"/><path d="m143.639 169.905h-26.911l-5.337 7.309-3.886-2.025 9.096-9.124h27.264l8.991 9.124-3.816 2.025z"/></g><g clip-path="url(#b)" fill="#dadada"><path d="m120.417 112.036-40.598-15.133-6.146-25.919 32.208 6.444z"/><path d="m140.199 112.036 40.603-15.133 6.153-25.919-32.226 6.444z"/><path d="m107.083 75.031-20.533-4.047 13.935-18.431h17.533z"/><path d="m153.238 75.031 20.522-4.047-13.936-18.431h-17.526z"/><path d="m150.891 79.799-14.515 37.86 4.343 28.735h-21.573l4.891-28.776-14.559-37.819 9.436-27.246h22.331z"/><path d="m89.776 115.855 14.231 7.647v30.189l-23.366-20.001v-33.792l9.135 3.747z"/><path d="m170.388 115.855-14.236 7.647v30.189l23.384-20.001v-33.792l-9.148 3.747z"/><path d="m145.519 112.562-5.32 2.772v5.213l3.33 27.698-7.135 7.25-6.205.047-6.215-.047-7.136-7.25 3.331-27.698v-5.213l-5.309-2.772-7.355 12.365v44.892l7.599-6.968 15.085-.162 15.081.162 7.58 6.968v-44.892z"/><path d="m140.048 185.911h-19.862l-6.956-7.158 6.956-7.153h19.862l7.176 7.153z"/><path d="m104.007 171.6-12.964-14.382v-9.818l12.964 8.465z"/><path d="m155.788 171.6 12.953-14.382v-9.818l-12.953 8.465z"/><path d="m143.639 169.819h-26.911l-5.337 7.309-3.886-2.018 9.096-9.126h27.264l8.985 9.126-3.81 2.018z"/></g><g fill="#37474f"><path d="m284.914 68.133h-13.439v-67.154h26.871c2.464 0 4.84.324 7.13.96 2.267.642 4.395 1.549 6.39 2.72 1.977 1.168 3.787 2.573 5.429 4.215 1.643 1.64 3.048 3.458 4.216 5.45 1.174 2.003 2.07 4.14 2.711 6.421.648 2.281.961 4.646.961 7.116 0 3.684-.706 7.158-2.105 10.419-1.399 3.264-3.33 6.112-5.752 8.543-2.447 2.437-5.298 4.356-8.547 5.762-3.267 1.405-6.742 2.108-10.432 2.108h-13.432v13.44zm0-53.709v26.879h13.432c1.851 0 3.573-.355 5.198-1.055 1.626-.703 3.054-1.66 4.262-2.879 1.226-1.221 2.175-2.649 2.88-4.285.705-1.637 1.058-3.379 1.058-5.221 0-1.845-.353-3.58-1.058-5.222-.705-1.639-1.654-3.067-2.88-4.284-1.208-1.218-2.636-2.174-4.262-2.883-1.625-.702-3.348-1.049-5.198-1.049h-13.432z"/><path d="m346.495 68.133h-13.444v-67.154h26.883c2.451 0 4.833.324 7.124.96 2.267.642 4.389 1.549 6.389 2.72 1.979 1.168 3.776 2.573 5.418 4.215 1.648 1.64 3.048 3.458 4.222 5.45 1.174 2.003 2.076 4.14 2.712 6.421.647 2.281.972 4.646.972 7.116 0 2.307-.302 4.559-.885 6.742-.572 2.188-1.394 4.265-2.47 6.23-1.087 1.963-2.399 3.773-3.961 5.433-1.562 1.651-3.307 3.088-5.245 4.305l7.443 17.561h-14.276l-5.853-13.531-15.028.092v13.44zm0-53.709v26.879h13.438c1.839 0 3.562-.355 5.198-1.055 1.613-.703 3.041-1.66 4.256-2.879 1.22-1.221 2.186-2.649 2.88-4.285.711-1.637 1.052-3.379 1.052-5.221 0-1.845-.341-3.58-1.052-5.222-.694-1.639-1.66-3.067-2.88-4.284-1.215-1.218-2.643-2.174-4.256-2.883-1.637-.702-3.359-1.049-5.198-1.049h-13.438z"/><path d="m409.008 68.133h-13.443v-67.154h13.443z"/><path d="m544.119 68.133h-46.033v-67.154h46.033v13.444h-32.596v13.438h22.049v13.44h-22.049v13.392h32.596z"/></g><path d="m393.575 237.062h-32.729l-58.935-100.616v100.616h-30.586v-152.841h32.724l58.945 100.717v-100.717h30.581z" fill="#d71516"/><path d="m481.174 0h-6.945c-2.089 0-3.476.995-4.373 2.691l-15.194 28.38c-.399.795-.701 1.292-1.099 1.292-.395 0-.694-.498-1.094-1.292l-15.196-28.38c-.896-1.696-2.285-2.691-4.372-2.691h-6.952c-2.088 0-3.574 1.292-3.574 3.385v59.793 3.564 1.391h1.688 10.729 1.585v-1.989-2.966-32.705c0-.697.3-.798.496-.798.302 0 .498.2.793.696l8.944 16.431c.694 1.195 1.689 1.695 2.984 1.695h7.938c1.296 0 2.29-.5 2.984-1.695l8.934-16.431c.306-.497.504-.696.804-.696.196 0 .498.101.498.798v32.705 2.966 1.989h1.583 10.729 1.689v-1.391-3.564-59.694c.002-2.091-1.485-3.484-3.579-3.484z" fill="#37474f"/><path d="m514.017 153.732v.166h-29.212v30.546h29.212v20.312c-3.277 1.644-6.719 2.922-10.346 3.844-3.619.922-7.353 1.392-11.191 1.392-6.679 0-12.938-1.283-18.805-3.843-5.871-2.556-10.997-6.038-15.402-10.442-4.411-4.405-7.894-9.56-10.442-15.454-2.56-5.9-3.843-12.224-3.843-18.97 0-6.68 1.283-12.957 3.843-18.811 2.549-5.866 6.031-10.982 10.442-15.352 4.405-4.371 9.531-7.831 15.402-10.391 5.866-2.558 12.126-3.835 18.805-3.835s13.036 1.332 19.08 3.995c6.036 2.664 11.363 6.341 15.98 11.032l15.992-26.646c-7.104-6.043-15.031-10.677-23.76-13.907-8.751-3.236-17.843-4.852-27.293-4.852-7.247 0-14.229.942-20.941 2.824-6.719 1.881-12.99 4.528-18.816 7.941-5.819 3.411-11.146 7.512-15.981 12.312-4.828 4.794-8.957 10.121-12.359 15.984-3.414 5.862-6.065 12.135-7.945 18.808-1.885 6.679-2.824 13.644-2.824 20.896 0 7.25.939 14.244 2.824 20.992 1.88 6.754 4.531 13.053 7.945 18.919 3.402 5.859 7.531 11.191 12.359 15.981 4.836 4.8 10.162 8.923 15.981 12.359 5.826 3.455 12.098 6.119 18.816 8.003 6.712 1.884 13.694 2.823 20.941 2.823 9.45 0 18.542-1.615 27.293-4.846 8.729-3.235 16.656-7.869 23.76-13.912v-37.158-30.546h-29.361z" fill="#d71516"/></svg>