<?xml version="1.0" encoding="utf-8"?>
<!-- Generator: Adobe Illustrator 16.0.0, SVG Export Plug-In . SVG Version: 6.00 Build 0)  -->
<!DOCTYPE svg PUBLIC "-//W3C//DTD SVG 1.1//EN" "http://www.w3.org/Graphics/SVG/1.1/DTD/svg11.dtd">
<svg version="1.1" id="katman_1" xmlns="http://www.w3.org/2000/svg" xmlns:xlink="http://www.w3.org/1999/xlink" x="0px" y="0px"
	 width="544.119px" height="241.86px" viewBox="0 0 544.119 241.86" enable-background="new 0 0 544.119 241.86"
	 xml:space="preserve">
<g>
	<g>
		<polygon fill="#37474F" points="130.496,0.046 16.728,40.085 34.7,189.148 130.617,241.86 227.027,188.433 244.998,39.377 		"/>
		<polygon fill="#A61A17" points="233.653,47.993 130.224,12.724 130.224,229.267 216.901,181.302 		"/>
		<polygon fill="#D71516" points="29.484,48.629 44.894,181.938 130.224,229.267 130.224,12.721 		"/>
		<g>
			<defs>
				<rect id="SVGID_1_" y="22.366" width="130.311" height="206.901"/>
			</defs>
			<clipPath id="SVGID_2_">
				<use xlink:href="#SVGID_1_"  overflow="visible"/>
			</clipPath>
			<g clip-path="url(#SVGID_2_)">
				<polygon fill="#FFFFFF" points="120.417,112.122 79.819,96.987 73.673,71.068 105.881,77.512 				"/>
				<polygon fill="#FFFFFF" points="140.199,112.122 180.802,96.987 186.955,71.068 154.729,77.512 				"/>
				<polygon fill="#FFFFFF" points="107.083,75.115 86.55,71.068 100.485,52.637 118.018,52.637 				"/>
				<polygon fill="#FFFFFF" points="153.232,75.115 173.76,71.068 159.824,52.637 142.298,52.637 				"/>
				<polygon fill="#FFFFFF" points="150.891,79.886 136.376,117.743 140.719,146.476 119.146,146.476 124.037,117.702 
					109.478,79.886 118.92,52.637 141.24,52.637 				"/>
				<polygon fill="#FFFFFF" points="89.776,115.939 104.007,123.586 104.007,153.778 80.629,133.776 80.629,99.982 89.776,103.732 
									"/>
				<polygon fill="#FFFFFF" points="170.388,115.939 156.152,123.586 156.152,153.778 179.536,133.776 179.536,99.982 
					170.388,103.732 				"/>
				<polygon fill="#FFFFFF" points="145.519,112.646 140.199,115.421 140.199,120.631 143.529,148.325 136.394,155.577 
					130.189,155.635 123.979,155.577 116.838,148.325 120.174,120.631 120.174,115.421 114.866,112.646 107.505,125.011 
					107.505,169.905 115.104,162.937 130.189,162.771 145.275,162.937 152.856,169.905 152.856,125.011 				"/>
				<polygon fill="#FFFFFF" points="140.048,185.991 120.186,185.991 113.23,178.84 120.186,171.687 140.048,171.687 147.23,178.84 
									"/>
				<polygon fill="#FFFFFF" points="104.007,171.687 91.043,157.299 91.043,147.48 104.007,155.953 				"/>
				<polygon fill="#FFFFFF" points="155.788,171.687 168.741,157.299 168.741,147.48 155.788,155.953 				"/>
				<polygon fill="#FFFFFF" points="143.639,169.905 116.728,169.905 111.391,177.214 107.505,175.189 116.601,166.065 
					143.865,166.065 152.856,175.189 149.04,177.214 				"/>
			</g>
		</g>
		<g>
			<defs>
				<rect id="SVGID_3_" x="130.311" y="31.311" width="98.86" height="188.553"/>
			</defs>
			<clipPath id="SVGID_4_">
				<use xlink:href="#SVGID_3_"  overflow="visible"/>
			</clipPath>
			<g clip-path="url(#SVGID_4_)">
				<polygon fill="#DADADA" points="120.417,112.036 79.819,96.903 73.673,70.984 105.881,77.428 				"/>
				<polygon fill="#DADADA" points="140.199,112.036 180.802,96.903 186.955,70.984 154.729,77.428 				"/>
				<polygon fill="#DADADA" points="107.083,75.031 86.55,70.984 100.485,52.553 118.018,52.553 				"/>
				<polygon fill="#DADADA" points="153.238,75.031 173.76,70.984 159.824,52.553 142.298,52.553 				"/>
				<polygon fill="#DADADA" points="150.891,79.799 136.376,117.659 140.719,146.394 119.146,146.394 124.037,117.618 
					109.478,79.799 118.914,52.553 141.245,52.553 				"/>
				<polygon fill="#DADADA" points="89.776,115.855 104.007,123.502 104.007,153.691 80.641,133.69 80.641,99.898 89.776,103.645 
									"/>
				<polygon fill="#DADADA" points="170.388,115.855 156.152,123.502 156.152,153.691 179.536,133.69 179.536,99.898 
					170.388,103.645 				"/>
				<polygon fill="#DADADA" points="145.519,112.562 140.199,115.334 140.199,120.547 143.529,148.245 136.394,155.495 
					130.189,155.542 123.974,155.495 116.838,148.245 120.169,120.547 120.169,115.334 114.86,112.562 107.505,124.927 
					107.505,169.819 115.104,162.851 130.189,162.689 145.27,162.851 152.85,169.819 152.85,124.927 				"/>
				<polygon fill="#DADADA" points="140.048,185.911 120.186,185.911 113.23,178.753 120.186,171.6 140.048,171.6 147.224,178.753 
									"/>
				<polygon fill="#DADADA" points="104.007,171.6 91.043,157.218 91.043,147.4 104.007,155.865 				"/>
				<polygon fill="#DADADA" points="155.788,171.6 168.741,157.218 168.741,147.4 155.788,155.865 				"/>
				<polygon fill="#DADADA" points="143.639,169.819 116.728,169.819 111.391,177.128 107.505,175.11 116.601,165.984 
					143.865,165.984 152.85,175.11 149.04,177.128 				"/>
			</g>
		</g>
	</g>
	<g>
		<path fill="#37474F" d="M284.914,68.133h-13.439V0.979h26.871c2.464,0,4.84,0.324,7.13,0.96c2.267,0.642,4.395,1.549,6.39,2.72
			c1.977,1.168,3.787,2.573,5.429,4.215c1.643,1.64,3.048,3.458,4.216,5.45c1.174,2.003,2.07,4.14,2.711,6.421
			c0.648,2.281,0.961,4.646,0.961,7.116c0,3.684-0.706,7.158-2.105,10.419c-1.399,3.264-3.33,6.112-5.752,8.543
			c-2.447,2.437-5.298,4.356-8.547,5.762c-3.267,1.405-6.742,2.108-10.432,2.108h-13.432V68.133z M284.914,14.424v26.879h13.432
			c1.851,0,3.573-0.355,5.198-1.055c1.626-0.703,3.054-1.66,4.262-2.879c1.226-1.221,2.175-2.649,2.88-4.285
			c0.705-1.637,1.058-3.379,1.058-5.221c0-1.845-0.353-3.58-1.058-5.222c-0.705-1.639-1.654-3.067-2.88-4.284
			c-1.208-1.218-2.636-2.174-4.262-2.883c-1.625-0.702-3.348-1.049-5.198-1.049H284.914z"/>
		<path fill="#37474F" d="M346.495,68.133h-13.444V0.979h26.883c2.451,0,4.833,0.324,7.124,0.96c2.267,0.642,4.389,1.549,6.389,2.72
			c1.979,1.168,3.776,2.573,5.418,4.215c1.648,1.64,3.048,3.458,4.222,5.45c1.174,2.003,2.076,4.14,2.712,6.421
			c0.647,2.281,0.972,4.646,0.972,7.116c0,2.307-0.302,4.559-0.885,6.742c-0.572,2.188-1.394,4.265-2.47,6.23
			c-1.087,1.963-2.399,3.773-3.961,5.433c-1.562,1.651-3.307,3.088-5.245,4.305l7.443,17.561h-14.276l-5.853-13.531l-15.028,0.092
			V68.133z M346.495,14.424v26.879h13.438c1.839,0,3.562-0.355,5.198-1.055c1.613-0.703,3.041-1.66,4.256-2.879
			c1.22-1.221,2.186-2.649,2.88-4.285c0.711-1.637,1.052-3.379,1.052-5.221c0-1.845-0.341-3.58-1.052-5.222
			c-0.694-1.639-1.66-3.067-2.88-4.284c-1.215-1.218-2.643-2.174-4.256-2.883c-1.637-0.702-3.359-1.049-5.198-1.049H346.495z"/>
		<path fill="#37474F" d="M409.008,68.133h-13.443V0.979h13.443V68.133z"/>
		<path fill="#37474F" d="M544.119,68.133h-46.033V0.979h46.033v13.444h-32.596v13.438h22.049v13.44h-22.049v13.392h32.596V68.133z"
			/>
		<path fill="#D71516" d="M393.575,237.062h-32.729l-58.935-100.616v100.616h-30.586V84.221h32.724l58.945,100.717V84.221h30.581
			V237.062z"/>
		<path fill="#37474F" d="M481.174,0h-6.945c-2.089,0-3.476,0.995-4.373,2.691l-15.194,28.38c-0.399,0.795-0.701,1.292-1.099,1.292
			c-0.395,0-0.694-0.498-1.094-1.292l-15.196-28.38C436.377,0.995,434.988,0,432.901,0h-6.952c-2.088,0-3.574,1.292-3.574,3.385
			v59.793v3.564v1.391h1.688h10.729h1.585v-1.989v-2.966V30.473c0-0.697,0.3-0.798,0.496-0.798c0.302,0,0.498,0.2,0.793,0.696
			l8.944,16.431c0.694,1.195,1.689,1.695,2.984,1.695h7.938c1.296,0,2.29-0.5,2.984-1.695l8.934-16.431
			c0.306-0.497,0.504-0.696,0.804-0.696c0.196,0,0.498,0.101,0.498,0.798v32.705v2.966v1.989h1.583h10.729h1.689v-1.391v-3.564
			V3.484C484.755,1.393,483.268,0,481.174,0z"/>
	</g>
	<path fill="#D71516" d="M514.017,153.732v0.166h-29.212v30.546h29.212v20.312c-3.277,1.644-6.719,2.922-10.346,3.844
		c-3.619,0.922-7.353,1.392-11.191,1.392c-6.679,0-12.938-1.283-18.805-3.843c-5.871-2.556-10.997-6.038-15.402-10.442
		c-4.411-4.405-7.894-9.56-10.442-15.454c-2.56-5.9-3.843-12.224-3.843-18.97c0-6.68,1.283-12.957,3.843-18.811
		c2.549-5.866,6.031-10.982,10.442-15.352c4.405-4.371,9.531-7.831,15.402-10.391c5.866-2.558,12.126-3.835,18.805-3.835
		s13.036,1.332,19.08,3.995c6.036,2.664,11.363,6.341,15.98,11.032l15.992-26.646c-7.104-6.043-15.031-10.677-23.76-13.907
		c-8.751-3.236-17.843-4.852-27.293-4.852c-7.247,0-14.229,0.942-20.941,2.824c-6.719,1.881-12.99,4.528-18.816,7.941
		c-5.819,3.411-11.146,7.512-15.981,12.312c-4.828,4.794-8.957,10.121-12.359,15.984c-3.414,5.862-6.065,12.135-7.945,18.808
		c-1.885,6.679-2.824,13.644-2.824,20.896c0,7.25,0.939,14.244,2.824,20.992c1.88,6.754,4.531,13.053,7.945,18.919
		c3.402,5.859,7.531,11.191,12.359,15.981c4.836,4.8,10.162,8.923,15.981,12.359c5.826,3.455,12.098,6.119,18.816,8.003
		c6.712,1.884,13.694,2.823,20.941,2.823c9.45,0,18.542-1.615,27.293-4.846c8.729-3.235,16.656-7.869,23.76-13.912v-37.158v-30.546
		h-29.361L514.017,153.732z"/>
</g>
<g>
</g>
<g>
</g>
<g>
</g>
<g>
</g>
<g>
</g>
<g>
</g>
</svg>
