<?xml version="1.0" encoding="UTF-8"?>
<svg width="158px" height="43px" viewBox="0 0 158 43" version="1.1" xmlns="http://www.w3.org/2000/svg" xmlns:xlink="http://www.w3.org/1999/xlink">
    <title>primeng-logo-horizontal</title>
    <defs>
        <polygon id="path-1" points="20.004703 0 20.004703 0 20.004703 0 0.0515119974 7.08746128 3.09485585 33.3665722 20.004703 42.6955499 20.004703 42.6955499 20.004703 42.6955499 36.9145502 33.3665722 39.957894 7.08746128"></polygon>
    </defs>
    <g id="Page-1" stroke="none" stroke-width="1" fill="none" fill-rule="evenodd">
        <g id="primeng-logo-horizontal">
            <g>
                <g id="PRIMENG" transform="translate(49.600000, 8.400000)" fill-rule="nonzero">
                    <path d="M3.84,25.6 C4.192,25.6 4.352,25.408 4.352,25.088 L4.352,17.024 L8.192,17.024 C11.2,17.024 12.8,15.392 12.8,12.416 L12.8,4.608 C12.8,1.6 11.2,0 8.192,0 L0.512,0 C0.192,0 -1.13686838e-13,0.192 -1.13686838e-13,0.512 L-1.13686838e-13,25.088 C-1.13686838e-13,25.408 0.192,25.6 0.512,25.6 L3.84,25.6 Z M7.168,12.8 L4.352,12.8 L4.352,4.224 L7.168,4.224 C8.032,4.224 8.448,4.672 8.448,5.504 L8.448,11.52 C8.448,12.32 8.032,12.8 7.168,12.8 Z M19.84,25.6 C20.16,25.6 20.352,25.408 20.352,25.088 L20.352,17.024 L22.56,17.024 L24.704,25.152 C24.768,25.44 24.928,25.6 25.248,25.6 L28.576,25.6 C28.928,25.6 29.12,25.408 29.024,25.024 L26.816,16.64 C28.352,15.968 29.152,14.56 29.152,12.416 L29.152,4.608 C29.152,1.6 27.552,0 24.544,0 L16.512,0 C16.192,0 16,0.192 16,0.512 L16,25.088 C16,25.408 16.192,25.6 16.512,25.6 L19.84,25.6 Z M23.52,12.8 L20.352,12.8 L20.352,4.224 L23.52,4.224 C24.352,4.224 24.8,4.672 24.8,5.504 L24.8,11.52 C24.8,12.352 24.352,12.8 23.52,12.8 Z M36.192,25.6 C36.512,25.6 36.704,25.408 36.704,25.088 L36.704,0.512 C36.704,0.192 36.512,0 36.192,0 L32.864,0 C32.512,0 32.352,0.192 32.352,0.512 L32.352,25.088 C32.352,25.408 32.512,25.6 32.864,25.6 L36.192,25.6 Z M43.488,25.6 C43.904,25.6 44.128,25.376 44.128,24.96 L44.128,10.56 L44.352,10.56 L47.52,25.024 C47.616,25.408 47.84,25.6 48.224,25.6 L49.792,25.6 C50.176,25.6 50.4,25.408 50.496,25.024 L53.664,10.56 L53.888,10.56 L53.888,24.96 C53.888,25.376 54.112,25.6 54.528,25.6 L57.504,25.6 C57.92,25.6 58.144,25.376 58.144,24.96 L58.144,0.64 C58.144,0.224 57.92,0 57.504,0 L53.28,0 C52.896,0 52.672,0.192 52.576,0.576 L49.024,16.512 L45.472,0.576 C45.376,0.192 45.152,0 44.768,0 L40.544,0 C40.128,0 39.904,0.224 39.904,0.64 L39.904,24.96 C39.904,25.376 40.128,25.6 40.544,25.6 L43.488,25.6 Z M73.6,25.6 C73.984,25.6 74.112,25.408 74.112,25.088 L74.112,21.888 C74.112,21.536 73.984,21.376 73.6,21.376 L65.6,21.376 L65.6,14.912 L71.712,14.912 C72.032,14.912 72.224,14.72 72.224,14.368 L72.224,11.2 C72.224,10.848 72.032,10.656 71.712,10.656 L65.6,10.656 L65.6,4.256 L73.6,4.256 C73.984,4.256 74.112,4.032 74.112,3.712 L74.112,0.512 C74.112,0.192 73.984,0 73.6,0 L61.824,0 C61.536,0 61.344,0.192 61.344,0.512 L61.344,25.088 C61.344,25.408 61.536,25.6 61.824,25.6 L73.6,25.6 Z" id="PRIME" fill="#303132"></path>
                    <path d="M81.152,25.6 C81.504,25.6 81.664,25.408 81.664,25.088 L81.664,11.52 L81.824,11.52 L86.72,25.184 C86.816,25.472 87.008,25.6 87.296,25.6 L90.464,25.6 C90.784,25.6 90.976,25.408 90.976,25.088 L90.976,0.512 C90.976,0.192 90.784,0 90.464,0 L87.136,0 C86.784,0 86.624,0.192 86.624,0.512 L86.624,14.016 L86.432,14.016 L81.568,0.416 C81.472,0.128 81.28,0 80.992,0 L77.824,0 C77.504,0 77.312,0.192 77.312,0.512 L77.312,25.088 C77.312,25.408 77.504,25.6 77.824,25.6 L81.152,25.6 Z M103.008,25.6 C105.984,25.6 107.616,24 107.616,20.992 L107.616,12.096 C107.616,11.744 107.424,11.584 107.104,11.584 L101.728,11.584 C101.376,11.584 101.216,11.744 101.216,12.096 L101.216,15.296 C101.216,15.616 101.376,15.808 101.728,15.808 L103.392,15.808 L103.392,20.096 C103.392,20.96 102.944,21.376 102.112,21.376 L99.808,21.376 C98.976,21.376 98.528,20.96 98.528,20.096 L98.528,5.504 C98.528,4.672 98.944,4.224 99.808,4.224 L102.112,4.224 C102.944,4.224 103.392,4.672 103.392,5.504 L103.392,7.936 C103.392,8.256 103.552,8.448 103.904,8.448 L107.104,8.448 C107.424,8.448 107.616,8.256 107.616,7.936 L107.616,4.608 C107.616,1.6 105.984,0 103.008,0 L98.784,0 C95.776,0 94.176,1.6 94.176,4.608 L94.176,20.992 C94.176,24 95.776,25.6 98.784,25.6 L103.008,25.6 Z" id="NG" fill="#E0002A"></path>
                </g>
                <g id="icon-primeng">
                    <g id="angular-back">
                        <mask id="mask-2" fill="white">
                            <use xlink:href="#path-1"></use>
                        </mask>
                        <use id="Shape" fill="#DD0031" fill-rule="nonzero" xlink:href="#path-1"></use>
                        <polygon id="Shape-path" fill="#C3002F" mask="url(#mask-2)" points="20.004703 0 20.004703 4.73920604 20.004703 4.71785826 20.004703 26.3431543 20.004703 26.3431543 20.004703 42.6955499 20.004703 42.6955499 36.9145502 33.3665722 39.957894 7.08746128"></polygon>
                    </g>
                    <g id="head" transform="translate(7.775680, 7.492928)" fill="#FFFFFF">
                        <polygon id="chick-right" fill-rule="nonzero" points="18.0776868 12.7562155 16.1635787 12.3310084 17.6523294 14.4570443 17.6523294 21.0477557 22.7566174 16.7956838 22.7566174 9.56716166 20.4171521 10.417576"></polygon>
                        <polygon id="chick-left" fill-rule="nonzero" transform="translate(4.785270, 15.307459) scale(-1, 1) translate(-4.785270, -15.307459) " points="3.40285868 12.7562155 1.48875067 12.3310084 2.97750135 14.4570443 2.97750135 21.0477557 8.08178937 16.7956838 8.08178937 9.56716166 5.74232403 10.417576"></polygon>
                        <polygon id="mask" points="7.21017564 14.8560992 8.90668756 12.2997114 9.9670075 12.9388083 14.2082873 12.9388083 15.2686072 12.2997114 16.9651192 14.8560992 16.9651192 24.4425535 15.6927352 26.3598444 14.2082873 27.8510706 9.9670075 27.8510706 8.48255958 26.3598444 7.21017564 24.4425535"></polygon>
                        <polygon id="bottom-chick-right" fill-rule="nonzero" points="17.6523294 25.0872239 20.4171521 22.3233772 20.4171521 19.5595305 17.6523294 21.89817"></polygon>
                        <polygon id="bottom-chick-left" fill-rule="nonzero" transform="translate(5.210627, 22.323377) scale(-1, 1) translate(-5.210627, -22.323377) " points="3.82821602 25.0872239 6.5930387 22.3233772 6.5930387 19.5595305 3.82821602 21.89817"></polygon>
                        <path d="M12.5480414,12.1184048 L12.5480414,0 L14.8875067,0 L16.581,4.023 L24.4580468,3.40165748 L23.1819748,8.71674729 L14.0367921,12.1184048 L12.5480414,12.1184048 Z M11.6973267,0 L11.6973267,12.1184048 L10.4212547,12.1184048 L1.27607201,8.71674729 L0,3.40165748 L7.663,4.022 L9.35786138,0 L11.6973267,0 Z"></path>
                        <polygon id="ear-right" fill-rule="nonzero" points="17.0142934 3.40165748 21.4805454 2.97645029 18.5030441 0 15.5255427 0"></polygon>
                        <polygon id="ear-left" fill-rule="nonzero" transform="translate(5.742324, 1.700829) scale(-1, 1) translate(-5.742324, -1.700829) " points="4.25357335 3.40165748 8.71982537 2.97645029 5.74232403 0 2.76482268 0"></polygon>
                    </g>
                </g>
            </g>
        </g>
    </g>
</svg>