<svg enable-background="new 0 0 2475.211 241.861" height="241.861" viewBox="0 0 2475.211 241.861" width="2475.211" xmlns="http://www.w3.org/2000/svg" xmlns:xlink="http://www.w3.org/1999/xlink"><clipPath id="a"><path d="m0 22.366h130.311v206.901h-130.311z"/></clipPath><clipPath id="b"><path d="m130.311 31.311h98.86v188.554h-98.86z"/></clipPath><path d="m130.496.046-113.768 40.039 17.972 149.063 95.917 52.713 96.41-53.428 17.971-149.056z" fill="#3d4950"/><path d="m233.653 47.993-103.429-35.269v216.543l86.677-47.965z" fill="#a61a17"/><path d="m29.484 48.629 15.41 133.309 85.33 47.329v-216.546z" fill="#d71516"/><g clip-path="url(#a)" fill="#fff"><path d="m120.417 112.122-40.598-15.135-6.146-25.919 32.208 6.444z"/><path d="m140.199 112.122 40.603-15.135 6.153-25.919-32.226 6.444z"/><path d="m107.083 75.115-20.533-4.047 13.935-18.431h17.533z"/><path d="m153.232 75.115 20.528-4.047-13.936-18.431h-17.526z"/><path d="m150.891 79.886-14.515 37.857 4.343 28.733h-21.573l4.891-28.774-14.559-37.816 9.442-27.249h22.32z"/><path d="m89.776 115.938 14.231 7.648v30.192l-23.378-20.002v-33.794l9.147 3.75z"/><path d="m170.388 115.938-14.236 7.648v30.192l23.384-20.002v-33.794l-9.148 3.75z"/><path d="m145.519 112.646-5.32 2.775v5.211l3.33 27.693-7.135 7.252-6.205.058-6.21-.058-7.141-7.252 3.336-27.693v-5.211l-5.308-2.775-7.361 12.365v44.894l7.599-6.968 15.085-.166 15.086.166 7.581 6.968v-44.894z"/><path d="m140.048 185.991h-19.862l-6.956-7.151 6.956-7.153h19.862l7.182 7.153z"/><path d="m104.007 171.687-12.964-14.388v-9.819l12.964 8.473z"/><path d="m155.788 171.687 12.953-14.388v-9.819l-12.953 8.473z"/><path d="m143.639 169.905h-26.911l-5.337 7.309-3.886-2.025 9.096-9.124h27.264l8.991 9.124-3.816 2.025z"/></g><g clip-path="url(#b)" fill="#dadada"><path d="m120.417 112.036-40.598-15.133-6.146-25.919 32.208 6.444z"/><path d="m140.199 112.036 40.603-15.133 6.153-25.919-32.226 6.444z"/><path d="m107.083 75.031-20.533-4.047 13.935-18.431h17.533z"/><path d="m153.238 75.031 20.522-4.047-13.936-18.431h-17.526z"/><path d="m150.891 79.799-14.515 37.86 4.343 28.735h-21.573l4.891-28.776-14.559-37.819 9.436-27.246h22.331z"/><path d="m89.776 115.854 14.231 7.648v30.189l-23.366-20.001v-33.792l9.135 3.747z"/><path d="m170.388 115.854-14.236 7.648v30.189l23.384-20.001v-33.792l-9.148 3.747z"/><path d="m145.519 112.562-5.32 2.772v5.214l3.33 27.697-7.135 7.25-6.205.047-6.215-.047-7.136-7.25 3.331-27.697v-5.214l-5.309-2.772-7.355 12.365v44.892l7.599-6.968 15.085-.162 15.081.162 7.58 6.968v-44.892z"/><path d="m140.048 185.911h-19.862l-6.956-7.158 6.956-7.153h19.862l7.176 7.153z"/><path d="m104.007 171.6-12.964-14.382v-9.818l12.964 8.465z"/><path d="m155.788 171.6 12.953-14.382v-9.818l-12.953 8.465z"/><path d="m143.639 169.819h-26.911l-5.337 7.309-3.886-2.018 9.096-9.126h27.264l8.985 9.126-3.81 2.018z"/></g><g fill="#e0eaf0"><path d="m443.565 74.188c0-9.44 1.802-18.297 5.41-26.572 3.608-8.274 8.511-15.518 14.716-21.722 6.213-6.208 13.447-11.112 21.722-14.72 8.274-3.604 17.132-5.41 26.576-5.41h104.704v45.671h-104.705c-3.182 0-6.154.583-8.911 1.749-2.757 1.17-5.168 2.783-7.24 4.854-2.07 2.066-3.688 4.482-4.854 7.239-1.169 2.761-1.751 5.729-1.751 8.911s.582 6.181 1.751 8.992c1.166 2.811 2.784 5.249 4.854 7.32 2.071 2.066 4.482 3.685 7.24 4.854 2.757 1.165 5.729 1.748 8.911 1.748h45.67c9.44 0 18.324 1.779 26.652 5.33 8.329 3.554 15.59 8.436 21.803 14.64 6.204 6.208 11.081 13.474 14.64 21.802 3.55 8.328 5.325 17.212 5.325 26.652 0 9.444-1.775 18.302-5.325 26.576-3.559 8.274-8.436 15.514-14.64 21.717-6.213 6.209-13.474 11.117-21.803 14.721-8.328 3.608-17.212 5.41-26.652 5.41h-101.363v-45.667h101.364c3.183 0 6.15-.583 8.911-1.753 2.752-1.166 5.173-2.784 7.234-4.854 2.071-2.066 3.689-4.478 4.859-7.239 1.165-2.757 1.748-5.729 1.748-8.911s-.583-6.15-1.748-8.911c-1.17-2.757-2.788-5.173-4.859-7.239-2.062-2.071-4.482-3.685-7.234-4.854-2.761-1.166-5.729-1.753-8.911-1.753h-45.67c-9.444 0-18.302-1.802-26.576-5.406-8.275-3.608-15.509-8.517-21.722-14.72-6.205-6.208-11.108-13.474-14.716-21.802-3.608-8.325-5.41-17.209-5.41-26.653z"/><path d="m701.661 233.95h-45.667v-228.186h45.667v91.338h91.181v-91.338h45.667v228.186h-45.667v-91.182h-91.181z"/><path d="m1104.414 120.813c0 10.82-1.407 21.242-4.223 31.265-2.806 10.027-6.759 19.413-11.852 28.167-5.092 8.75-11.241 16.733-18.458 23.95-7.217 7.212-15.169 13.393-23.873 18.535-8.696 5.146-18.082 9.127-28.159 11.938-10.085 2.81-20.529 4.213-31.35 4.213s-21.246-1.403-31.27-4.213c-10.022-2.811-19.408-6.791-28.167-11.938-8.75-5.142-16.729-11.323-23.945-18.535-7.217-7.217-13.394-15.2-18.539-23.95-5.146-8.754-9.126-18.14-11.933-28.167-2.814-10.022-4.222-20.444-4.222-31.265s1.407-21.269 4.222-31.35c2.807-10.076 6.787-19.467 11.933-28.167 5.146-8.696 11.322-16.652 18.539-23.864 7.217-7.217 15.195-13.366 23.945-18.458 8.759-5.092 18.145-9.045 28.167-11.856 10.023-2.811 20.449-4.218 31.27-4.218s21.265 1.407 31.35 4.218c10.077 2.811 19.463 6.764 28.159 11.856 8.704 5.092 16.656 11.242 23.873 18.458 7.217 7.212 13.366 15.168 18.458 23.864 5.093 8.701 9.046 18.091 11.852 28.167 2.815 10.081 4.223 20.53 4.223 31.35zm-45.353 0c0-9.974-1.91-19.387-5.729-28.248-3.819-8.857-8.992-16.549-15.519-23.071-6.518-6.526-14.209-11.694-23.066-15.513-8.866-3.819-18.279-5.729-28.248-5.729-10.076 0-19.517 1.909-28.329 5.729-8.803 3.819-16.495 8.987-23.066 15.513-6.58 6.522-11.779 14.214-15.599 23.071-3.818 8.861-5.729 18.274-5.729 28.248 0 9.969 1.91 19.333 5.729 28.082 3.819 8.754 9.019 16.419 15.599 22.995 6.571 6.58 14.264 11.775 23.066 15.594 8.812 3.819 18.253 5.729 28.329 5.729 9.969 0 19.382-1.91 28.248-5.729 8.857-3.819 16.549-9.014 23.066-15.594 6.526-6.576 11.699-14.241 15.519-22.995 3.819-8.749 5.729-18.113 5.729-28.082z"/><path d="m1360.762 168.708c0 9.444-1.774 18.329-5.325 26.652-3.559 8.328-8.436 15.594-14.64 21.802-6.212 6.204-13.474 11.086-21.802 14.64-8.328 3.551-17.213 5.33-26.652 5.33-8.49 0-16.63-1.488-24.43-4.455-7.799-2.968-14.828-7.32-21.085-13.049-6.258 5.729-13.312 10.081-21.166 13.049-7.845 2.967-16.011 4.455-24.501 4.455-9.439 0-18.324-1.779-26.652-5.33-8.328-3.554-15.599-8.436-21.803-14.64-6.203-6.208-11.089-13.474-14.639-21.802-3.551-8.324-5.334-17.208-5.334-26.652v-162.944h45.676v162.944c0 3.183.582 6.181 1.748 8.992 1.165 2.811 2.787 5.249 4.85 7.32 2.07 2.066 4.482 3.685 7.243 4.85 2.762 1.17 5.729 1.753 8.911 1.753s6.15-.583 8.911-1.753c2.761-1.165 5.173-2.783 7.243-4.85 2.062-2.071 3.686-4.509 4.851-7.32s1.748-5.809 1.748-8.992v-162.944h45.667v162.944c0 3.183.582 6.181 1.757 8.992 1.165 2.811 2.779 5.249 4.85 7.32 2.071 2.066 4.482 3.685 7.244 4.85 2.752 1.17 5.729 1.753 8.911 1.753s6.149-.583 8.91-1.753c2.753-1.165 5.173-2.783 7.235-4.85 2.07-2.071 3.711-4.509 4.939-7.32 1.22-2.811 1.829-5.809 1.829-8.992v-162.944h45.505v162.944z"/><path d="m1583.699 210.56c-10.614 9.122-22.492 16.124-35.644 21.005-13.16 4.877-26.787 7.315-40.897 7.315-10.82 0-21.246-1.403-31.27-4.213-10.022-2.811-19.408-6.791-28.167-11.938-8.75-5.142-16.729-11.323-23.945-18.535-7.217-7.217-13.394-15.2-18.539-23.95-5.146-8.754-9.126-18.14-11.933-28.167-2.814-10.022-4.223-20.444-4.223-31.265s1.408-21.269 4.223-31.35c2.807-10.076 6.787-19.494 11.933-28.244 5.146-8.754 11.322-16.732 18.539-23.949 7.217-7.212 15.195-13.394 23.945-18.539 8.759-5.142 18.145-9.122 28.167-11.933 10.023-2.811 20.449-4.218 31.27-4.218 14.11 0 27.737 2.416 40.897 7.239 13.151 4.827 25.029 11.856 35.644 21.085l-24.187 39.781c-6.688-7.212-14.586-12.757-23.712-16.629-9.126-3.869-18.674-5.805-28.643-5.805-10.076 0-19.517 1.909-28.329 5.729-8.804 3.819-16.495 8.987-23.066 15.513-6.58 6.522-11.779 14.214-15.599 23.071-3.819 8.861-5.729 18.274-5.729 28.248 0 9.969 1.909 19.333 5.729 28.082 3.819 8.754 9.019 16.419 15.599 22.995 6.571 6.58 14.263 11.775 23.066 15.594 8.812 3.819 18.253 5.729 28.329 5.729 9.969 0 19.517-1.937 28.643-5.809 9.126-3.869 17.023-9.413 23.712-16.63z"/><path d="m1790.078 233.95h-45.666v-45.667h-91.343v45.667h-45.505v-136.848c0-12.623 2.384-24.479 7.162-35.563 4.77-11.085 11.27-20.767 19.49-29.042s17.875-14.796 28.965-19.575c11.08-4.769 22.932-7.158 35.563-7.158 12.622 0 24.474 2.389 35.563 7.158 11.08 4.778 20.762 11.3 29.037 19.575 8.274 8.274 14.801 17.957 19.57 29.042 4.777 11.085 7.162 22.941 7.162 35.563v136.848zm-45.666-91.182v-45.666c0-6.257-1.192-12.174-3.577-17.741-2.394-5.572-5.657-10.426-9.79-14.559-4.142-4.142-8.991-7.4-14.559-9.79-5.567-2.385-11.484-3.577-17.741-3.577-6.267 0-12.175 1.192-17.741 3.577-5.576 2.389-10.426 5.648-14.568 9.79-4.133 4.133-7.396 8.987-9.78 14.559-2.385 5.567-3.586 11.484-3.586 17.741v45.667h91.342z"/><path d="m1816.335 74.188c0-9.44 1.803-18.297 5.406-26.572 3.613-8.274 8.517-15.518 14.721-21.722 6.212-6.208 13.447-11.112 21.721-14.72 8.275-3.604 17.133-5.41 26.572-5.41h104.709v45.671h-104.709c-3.183 0-6.15.583-8.911 1.749-2.752 1.17-5.164 2.783-7.234 4.854-2.071 2.066-3.685 4.482-4.859 7.239-1.165 2.761-1.748 5.729-1.748 8.911s.583 6.181 1.748 8.992c1.175 2.811 2.788 5.249 4.859 7.32 2.07 2.066 4.482 3.685 7.234 4.854 2.761 1.165 5.729 1.748 8.911 1.748h45.676c9.439 0 18.324 1.779 26.652 5.33 8.328 3.554 15.59 8.436 21.803 14.64 6.203 6.208 11.08 13.474 14.639 21.802 3.551 8.328 5.325 17.212 5.325 26.652 0 9.444-1.774 18.302-5.325 26.576-3.559 8.274-8.436 15.514-14.639 21.717-6.213 6.209-13.475 11.117-21.803 14.721-8.328 3.608-17.213 5.41-26.652 5.41h-101.365v-45.667h101.365c3.183 0 6.149-.583 8.911-1.753 2.752-1.166 5.173-2.784 7.234-4.854 2.071-2.066 3.685-4.478 4.858-7.239 1.166-2.757 1.748-5.729 1.748-8.911s-.582-6.15-1.748-8.911c-1.174-2.757-2.787-5.173-4.858-7.239-2.062-2.071-4.482-3.685-7.234-4.854-2.762-1.166-5.729-1.753-8.911-1.753h-45.676c-9.439 0-18.297-1.802-26.572-5.406-8.273-3.608-15.509-8.517-21.721-14.72-6.204-6.208-11.107-13.474-14.721-21.802-3.603-8.325-5.406-17.209-5.406-26.653z"/><path d="m2185.193 233.95h-156.418v-228.186h156.418v45.671h-110.751v45.667h74.945v45.667h-74.945v45.515h110.751z"/><path d="m326.379 0h19v241.861h-19z"/></g></svg>