<svg height="242" viewBox="0 0 2185 242" width="2185" xmlns="http://www.w3.org/2000/svg"><g fill="none" fill-rule="evenodd"><g fill="#e0eaf0"><g transform="translate(442 2)"><path d="m.565 72.188c0-9.44 1.802-18.297 5.41-26.572 3.608-8.274 8.511-15.518 14.716-21.722 6.213-6.208 13.447-11.112 21.722-14.72 8.274-3.604 17.132-5.41 26.576-5.41h104.704v45.671h-104.705c-3.182 0-6.154.583-8.911 1.749-2.757 1.17-5.168 2.783-7.24 4.854-2.07 2.066-3.688 4.482-4.854 7.239-1.169 2.761-1.751 5.729-1.751 8.911s.582 6.181 1.751 8.992c1.166 2.811 2.784 5.249 4.854 7.32 2.071 2.066 4.482 3.685 7.24 4.854 2.757 1.165 5.729 1.748 8.911 1.748h45.67c9.44 0 18.324 1.779 26.652 5.33 8.329 3.554 15.59 8.436 21.803 14.64 6.204 6.208 11.081 13.474 14.64 21.802 3.55 8.328 5.325 17.212 5.325 26.652 0 9.444-1.775 18.302-5.325 26.576-3.559 8.274-8.436 15.514-14.64 21.717-6.213 6.209-13.474 11.117-21.803 14.721-8.328 3.608-17.212 5.41-26.652 5.41h-101.363v-45.667h101.364c3.183 0 6.15-.583 8.911-1.753 2.752-1.166 5.173-2.784 7.234-4.854 2.071-2.066 3.689-4.478 4.859-7.239 1.165-2.757 1.748-5.729 1.748-8.911s-.583-6.15-1.748-8.911c-1.17-2.757-2.788-5.173-4.859-7.239-2.062-2.071-4.482-3.685-7.234-4.854-2.761-1.166-5.729-1.753-8.911-1.753h-45.67c-9.444 0-18.302-1.802-26.576-5.406-8.275-3.608-15.509-8.517-21.722-14.72-6.205-6.208-11.108-13.474-14.716-21.802-3.608-8.325-5.41-17.209-5.41-26.653z"/><path d="m258.661 231.95h-45.667v-228.186h45.667v91.338h91.181v-91.338h45.667v228.186h-45.667v-91.182h-91.181z"/><path d="m661.414 118.813c0 10.82-1.407 21.242-4.223 31.265-2.806 10.027-6.759 19.413-11.852 28.167-5.092 8.75-11.241 16.733-18.458 23.95-7.217 7.212-15.169 13.393-23.873 18.535-8.696 5.146-18.082 9.127-28.159 11.938-10.085 2.81-20.529 4.213-31.35 4.213s-21.246-1.403-31.27-4.213c-10.022-2.811-19.408-6.791-28.167-11.938-8.75-5.142-16.729-11.323-23.945-18.535-7.217-7.217-13.394-15.2-18.539-23.95-5.146-8.754-9.126-18.14-11.933-28.167-2.814-10.022-4.222-20.444-4.222-31.265s1.407-21.269 4.222-31.35c2.807-10.076 6.787-19.467 11.933-28.167 5.146-8.696 11.322-16.652 18.539-23.864 7.217-7.217 15.195-13.366 23.945-18.458 8.759-5.092 18.145-9.045 28.167-11.856 10.023-2.811 20.449-4.218 31.27-4.218s21.265 1.407 31.35 4.218c10.077 2.811 19.463 6.764 28.159 11.856 8.704 5.092 16.656 11.242 23.873 18.458 7.217 7.212 13.366 15.168 18.458 23.864 5.093 8.701 9.046 18.091 11.852 28.167 2.815 10.081 4.223 20.53 4.223 31.35zm-45.353 0c0-9.974-1.91-19.387-5.729-28.248-3.819-8.857-8.992-16.549-15.519-23.071-6.518-6.526-14.209-11.694-23.066-15.513-8.866-3.819-18.279-5.729-28.248-5.729-10.076 0-19.517 1.909-28.329 5.729-8.803 3.819-16.495 8.987-23.066 15.513-6.58 6.522-11.779 14.214-15.599 23.071-3.818 8.861-5.729 18.274-5.729 28.248 0 9.969 1.91 19.333 5.729 28.082 3.819 8.754 9.019 16.419 15.599 22.995 6.571 6.58 14.264 11.775 23.066 15.594 8.812 3.819 18.253 5.729 28.329 5.729 9.969 0 19.382-1.91 28.248-5.729 8.857-3.819 16.549-9.014 23.066-15.594 6.526-6.576 11.699-14.241 15.519-22.995 3.819-8.749 5.729-18.113 5.729-28.082z"/><path d="m917.762 166.708c0 9.444-1.774 18.329-5.325 26.652-3.559 8.328-8.436 15.594-14.64 21.802-6.212 6.204-13.474 11.086-21.802 14.64-8.328 3.551-17.213 5.33-26.652 5.33-8.49 0-16.63-1.488-24.43-4.455-7.799-2.968-14.828-7.32-21.085-13.049-6.258 5.729-13.312 10.081-21.166 13.049-7.845 2.967-16.011 4.455-24.501 4.455-9.439 0-18.324-1.779-26.652-5.33-8.328-3.554-15.599-8.436-21.803-14.64-6.203-6.208-11.089-13.474-14.639-21.802-3.551-8.324-5.334-17.208-5.334-26.652v-162.944h45.676v162.944c0 3.183.582 6.181 1.748 8.992 1.165 2.811 2.787 5.249 4.85 7.32 2.07 2.066 4.482 3.685 7.243 4.85 2.762 1.17 5.729 1.753 8.911 1.753s6.15-.583 8.911-1.753c2.761-1.165 5.173-2.783 7.243-4.85 2.062-2.071 3.686-4.509 4.851-7.32s1.748-5.809 1.748-8.992v-162.944h45.667v162.944c0 3.183.582 6.181 1.757 8.992 1.165 2.811 2.779 5.249 4.85 7.32 2.071 2.066 4.482 3.685 7.244 4.85 2.752 1.17 5.729 1.753 8.911 1.753s6.149-.583 8.91-1.753c2.753-1.165 5.173-2.783 7.235-4.85 2.07-2.071 3.711-4.509 4.939-7.32 1.22-2.811 1.829-5.809 1.829-8.992v-162.944h45.505v162.944z"/><path d="m1140.699 208.56c-10.614 9.122-22.492 16.124-35.644 21.005-13.16 4.877-26.787 7.315-40.897 7.315-10.82 0-21.246-1.403-31.27-4.213-10.022-2.811-19.408-6.791-28.167-11.938-8.75-5.142-16.729-11.323-23.945-18.535-7.217-7.217-13.394-15.2-18.539-23.95-5.146-8.754-9.126-18.14-11.933-28.167-2.814-10.022-4.223-20.444-4.223-31.265s1.408-21.269 4.223-31.35c2.807-10.076 6.787-19.494 11.933-28.244 5.146-8.754 11.322-16.732 18.539-23.949 7.217-7.212 15.195-13.394 23.945-18.539 8.759-5.142 18.145-9.122 28.167-11.933 10.023-2.811 20.449-4.218 31.27-4.218 14.11 0 27.737 2.416 40.897 7.239 13.151 4.827 25.029 11.856 35.644 21.085l-24.187 39.781c-6.688-7.212-14.586-12.757-23.712-16.629-9.126-3.869-18.674-5.805-28.643-5.805-10.076 0-19.517 1.909-28.329 5.729-8.804 3.819-16.495 8.987-23.066 15.513-6.58 6.522-11.779 14.214-15.599 23.071-3.819 8.861-5.729 18.274-5.729 28.248 0 9.969 1.909 19.333 5.729 28.082 3.819 8.754 9.019 16.419 15.599 22.995 6.571 6.58 14.263 11.775 23.066 15.594 8.812 3.819 18.253 5.729 28.329 5.729 9.969 0 19.517-1.937 28.643-5.809 9.126-3.869 17.023-9.413 23.712-16.63z"/><path d="m1347.078 231.95h-45.666v-45.667h-91.343v45.667h-45.505v-136.848c0-12.623 2.384-24.479 7.162-35.563 4.77-11.085 11.27-20.767 19.49-29.042s17.875-14.796 28.965-19.575c11.08-4.769 22.932-7.158 35.563-7.158 12.622 0 24.474 2.389 35.563 7.158 11.08 4.778 20.762 11.3 29.037 19.575 8.274 8.274 14.801 17.957 19.57 29.042 4.777 11.085 7.162 22.941 7.162 35.563v136.848zm-45.666-91.182v-45.666c0-6.257-1.192-12.174-3.577-17.741-2.394-5.572-5.657-10.426-9.79-14.559-4.142-4.142-8.991-7.4-14.559-9.79-5.567-2.385-11.484-3.577-17.741-3.577-6.267 0-12.175 1.192-17.741 3.577-5.576 2.389-10.426 5.648-14.568 9.79-4.133 4.133-7.396 8.987-9.78 14.559-2.385 5.567-3.586 11.484-3.586 17.741v45.667h91.342z"/><path d="m1373.335 72.188c0-9.44 1.803-18.297 5.406-26.572 3.613-8.274 8.517-15.518 14.721-21.722 6.212-6.208 13.447-11.112 21.721-14.72 8.275-3.604 17.133-5.41 26.572-5.41h104.709v45.671h-104.709c-3.183 0-6.15.583-8.911 1.749-2.752 1.17-5.164 2.783-7.234 4.854-2.071 2.066-3.685 4.482-4.859 7.239-1.165 2.761-1.748 5.729-1.748 8.911s.583 6.181 1.748 8.992c1.175 2.811 2.788 5.249 4.859 7.32 2.07 2.066 4.482 3.685 7.234 4.854 2.761 1.165 5.729 1.748 8.911 1.748h45.676c9.439 0 18.324 1.779 26.652 5.33 8.328 3.554 15.59 8.436 21.803 14.64 6.203 6.208 11.08 13.474 14.639 21.802 3.551 8.328 5.325 17.212 5.325 26.652 0 9.444-1.774 18.302-5.325 26.576-3.559 8.274-8.436 15.514-14.639 21.717-6.213 6.209-13.475 11.117-21.803 14.721-8.328 3.608-17.213 5.41-26.652 5.41h-101.365v-45.667h101.365c3.183 0 6.149-.583 8.911-1.753 2.752-1.166 5.173-2.784 7.234-4.854 2.071-2.066 3.685-4.478 4.858-7.239 1.166-2.757 1.748-5.729 1.748-8.911s-.582-6.15-1.748-8.911c-1.174-2.757-2.787-5.173-4.858-7.239-2.062-2.071-4.482-3.685-7.234-4.854-2.762-1.166-5.729-1.753-8.911-1.753h-45.676c-9.439 0-18.297-1.802-26.572-5.406-8.273-3.608-15.509-8.517-21.721-14.72-6.204-6.208-11.107-13.474-14.721-21.802-3.603-8.325-5.406-17.209-5.406-26.653z"/><path d="m1742.193 231.95h-156.418v-228.186h156.418v45.671h-110.751v45.667h74.945v45.667h-74.945v45.515h110.751z"/></g><path d="m325.379 0h19v241.861h-19z"/></g><g transform="translate(0 1)"><path d="m112.5 0-112.41329787 40.006 17.14574467 148.3355 95.2675532 52.6585 95.267553-52.6585 17.145745-148.3355z" fill="#dd0031"/><path d="m112.5 0v26.751-.1205 122.0665 92.303l95.267553-52.6585 17.145745-148.3355z" fill="#c3002f"/><g fill="#fff"><g transform="translate(43.675532 40.97)"><path d="m57.2535053 72.44701-49.01992551-18.237675-7.42096809-31.232395 38.8894468 7.76502z"/><path d="m81.1392181 72.44701 49.0259629-18.237675 7.42942-31.232395-38.9111808 7.76502z"/><path d="m41.1534096 27.853575-24.7925053-4.876635 16.8257712-22.209355h21.1701649z"/><path d="m96.8758723 27.853575 24.7864677-4.876635-16.826978-22.209355h-21.1617131z"/><path d="m94.0492394 33.60263-17.5260905 45.617685 5.2439415 34.623265h-26.04825l5.9056224-34.67267-17.5792181-45.56828 11.4007127-32.835045h26.9502128z"/><path d="m20.2561277 77.046495 17.1831755 9.214635v36.38136l-28.2276915-24.10241v-40.72177l11.044516 4.51875z"/><path d="m117.59083 77.046495-17.189213 9.214635v36.38136l28.234936-24.10241v-40.72177l-11.045723 4.51875z"/><path d="m87.5628351 73.07843-6.423617 3.343875v6.27805l4.0207979 33.37127-8.615133 8.73866-7.4922075.06989-7.4982446-.06989-8.6223777-8.73866 4.0280425-33.37127v-6.27805l-6.4091276-3.343875-8.888016 14.899825v54.09727l9.1753883-8.39644 18.2143351-.20003 18.2155426.20003 9.1536542 8.39644v-54.09727z"/><path d="m80.9568936 161.459155h-23.9823085l-8.399-8.616955 8.399-8.619365h23.9823085l8.671883 8.619365z"/><path d="m37.4393032 144.222835-15.6533404-17.33754v-11.831895l15.6533404 10.209965z"/><path d="m99.9621064 144.222835 15.6400586-17.33754v-11.831895l-15.6400586 10.209965z"/><path d="m85.2928351 142.075525h-32.4936011l-6.4441436 8.807345-4.6921383-2.440125 10.9829362-10.99442h32.9198298l10.8561542 10.99442-4.607617 2.440125z"/></g><g transform="translate(42.468085 40.97)"><path d="m57.2535053 72.34338-49.01992551-18.235265-7.42096809-31.232395 38.8894468 7.76502z"/><path d="m81.1392181 72.34338 49.0259629-18.235265 7.42942-31.232395-38.9111808 7.76502z"/><path d="m41.1534096 27.752355-24.7925053-4.876635 16.8257712-22.209355h21.1701649z"/><path d="m96.883117 27.752355 24.779223-4.876635-16.826978-22.209355h-21.1617131z"/><path d="m94.0492394 33.497795-17.5260905 45.6213 5.2439415 34.625675h-26.04825l5.9056224-34.67508-17.5792181-45.571895 11.3934681-32.83143h26.9634946z"/><path d="m20.2561277 76.945275 17.1831755 9.214635v36.377745l-28.21320214-24.101205v-40.71936l11.03002664 4.515135z"/><path d="m117.59083 76.945275-17.189213 9.214635v36.377745l28.234936-24.101205v-40.71936l-11.045723 4.515135z"/><path d="m87.5628351 72.97721-6.423617 3.34026v6.281665l4.0207979 33.37609-8.615133 8.73625-7.4922075.056635-7.5042819-.056635-8.6163404-8.73625 4.0220053-33.37609v-6.281665l-6.4103351-3.34026-8.8807713 14.899825v54.09486l9.1753883-8.39644 18.2143351-.19521 18.2095054.19521 9.1524468 8.39644v-54.09486z"/><path d="m80.9568936 161.362755h-23.9823085l-8.399-8.62539 8.399-8.619365h23.9823085l8.6646383 8.619365z"/><path d="m37.4393032 144.118-15.6533404-17.33031v-11.83069l15.6533404 10.200325z"/><path d="m99.9621064 144.118 15.6400586-17.33031v-11.83069l-15.6400586 10.200325z"/><path d="m85.2928351 141.971895h-32.4936011l-6.4441436 8.807345-4.6921383-2.43169 10.9829362-10.99683h32.9198298l10.8489096 10.99683-4.6003724 2.43169z"/></g></g></g></g></svg>