<?xml version="1.0" encoding="utf-8"?>
<!-- Generator: Adobe Illustrator 16.0.0, SVG Export Plug-In . SVG Version: 6.00 Build 0)  -->
<!DOCTYPE svg PUBLIC "-//W3C//DTD SVG 1.1//EN" "http://www.w3.org/Graphics/SVG/1.1/DTD/svg11.dtd">
<svg version="1.1" id="katman_1" xmlns="http://www.w3.org/2000/svg" xmlns:xlink="http://www.w3.org/1999/xlink" x="0px" y="0px"
	 width="2475.211px" height="241.861px" viewBox="0 0 2475.211 241.861" enable-background="new 0 0 2475.211 241.861"
	 xml:space="preserve">
<g>
	<g>
		<polygon fill="#3D4950" points="130.496,0.046 16.728,40.085 34.7,189.148 130.617,241.861 227.027,188.433 244.998,39.377 		"/>
		<polygon fill="#A61A17" points="233.653,47.993 130.224,12.724 130.224,229.267 216.901,181.302 		"/>
		<polygon fill="#D71516" points="29.484,48.629 44.894,181.938 130.224,229.267 130.224,12.721 		"/>
		<g>
			<defs>
				<rect id="SVGID_1_" y="22.366" width="130.311" height="206.901"/>
			</defs>
			<clipPath id="SVGID_2_">
				<use xlink:href="#SVGID_1_"  overflow="visible"/>
			</clipPath>
			<g clip-path="url(#SVGID_2_)">
				<polygon fill="#FFFFFF" points="120.417,112.122 79.819,96.987 73.673,71.068 105.881,77.512 				"/>
				<polygon fill="#FFFFFF" points="140.199,112.122 180.802,96.987 186.955,71.068 154.729,77.512 				"/>
				<polygon fill="#FFFFFF" points="107.083,75.115 86.55,71.068 100.485,52.637 118.018,52.637 				"/>
				<polygon fill="#FFFFFF" points="153.232,75.115 173.76,71.068 159.824,52.637 142.298,52.637 				"/>
				<polygon fill="#FFFFFF" points="150.891,79.886 136.376,117.743 140.719,146.476 119.146,146.476 124.037,117.702 
					109.478,79.886 118.92,52.637 141.24,52.637 				"/>
				<polygon fill="#FFFFFF" points="89.776,115.938 104.007,123.586 104.007,153.778 80.629,133.776 80.629,99.982 89.776,103.732 
									"/>
				<polygon fill="#FFFFFF" points="170.388,115.938 156.152,123.586 156.152,153.778 179.536,133.776 179.536,99.982 
					170.388,103.732 				"/>
				<polygon fill="#FFFFFF" points="145.519,112.646 140.199,115.421 140.199,120.632 143.529,148.325 136.394,155.577 
					130.189,155.635 123.979,155.577 116.838,148.325 120.174,120.632 120.174,115.421 114.866,112.646 107.505,125.011 
					107.505,169.905 115.104,162.937 130.189,162.771 145.275,162.937 152.856,169.905 152.856,125.011 				"/>
				<polygon fill="#FFFFFF" points="140.048,185.991 120.186,185.991 113.23,178.84 120.186,171.687 140.048,171.687 147.23,178.84 
									"/>
				<polygon fill="#FFFFFF" points="104.007,171.687 91.043,157.299 91.043,147.48 104.007,155.953 				"/>
				<polygon fill="#FFFFFF" points="155.788,171.687 168.741,157.299 168.741,147.48 155.788,155.953 				"/>
				<polygon fill="#FFFFFF" points="143.639,169.905 116.728,169.905 111.391,177.214 107.505,175.189 116.601,166.065 
					143.865,166.065 152.856,175.189 149.04,177.214 				"/>
			</g>
		</g>
		<g>
			<defs>
				<rect id="SVGID_3_" x="130.311" y="31.311" width="98.86" height="188.554"/>
			</defs>
			<clipPath id="SVGID_4_">
				<use xlink:href="#SVGID_3_"  overflow="visible"/>
			</clipPath>
			<g clip-path="url(#SVGID_4_)">
				<polygon fill="#DADADA" points="120.417,112.036 79.819,96.903 73.673,70.984 105.881,77.428 				"/>
				<polygon fill="#DADADA" points="140.199,112.036 180.802,96.903 186.955,70.984 154.729,77.428 				"/>
				<polygon fill="#DADADA" points="107.083,75.031 86.55,70.984 100.485,52.553 118.018,52.553 				"/>
				<polygon fill="#DADADA" points="153.238,75.031 173.76,70.984 159.824,52.553 142.298,52.553 				"/>
				<polygon fill="#DADADA" points="150.891,79.799 136.376,117.659 140.719,146.394 119.146,146.394 124.037,117.618 
					109.478,79.799 118.914,52.553 141.245,52.553 				"/>
				<polygon fill="#DADADA" points="89.776,115.854 104.007,123.502 104.007,153.691 80.641,133.69 80.641,99.898 89.776,103.645 
									"/>
				<polygon fill="#DADADA" points="170.388,115.854 156.152,123.502 156.152,153.691 179.536,133.69 179.536,99.898 
					170.388,103.645 				"/>
				<polygon fill="#DADADA" points="145.519,112.562 140.199,115.334 140.199,120.548 143.529,148.245 136.394,155.495 
					130.189,155.542 123.974,155.495 116.838,148.245 120.169,120.548 120.169,115.334 114.86,112.562 107.505,124.927 
					107.505,169.819 115.104,162.851 130.189,162.689 145.27,162.851 152.85,169.819 152.85,124.927 				"/>
				<polygon fill="#DADADA" points="140.048,185.911 120.186,185.911 113.23,178.753 120.186,171.6 140.048,171.6 147.224,178.753 
									"/>
				<polygon fill="#DADADA" points="104.007,171.6 91.043,157.218 91.043,147.4 104.007,155.865 				"/>
				<polygon fill="#DADADA" points="155.788,171.6 168.741,157.218 168.741,147.4 155.788,155.865 				"/>
				<polygon fill="#DADADA" points="143.639,169.819 116.728,169.819 111.391,177.128 107.505,175.11 116.601,165.984 
					143.865,165.984 152.85,175.11 149.04,177.128 				"/>
			</g>
		</g>
	</g>
	<g>
		<path fill="#E0EAF0" d="M443.565,74.188c0-9.44,1.802-18.297,5.41-26.572c3.608-8.274,8.511-15.518,14.716-21.722
			c6.213-6.208,13.447-11.112,21.722-14.72c8.274-3.604,17.132-5.41,26.576-5.41h104.704v45.671H511.988
			c-3.182,0-6.154,0.583-8.911,1.749c-2.757,1.17-5.168,2.783-7.24,4.854c-2.07,2.066-3.688,4.482-4.854,7.239
			c-1.169,2.761-1.751,5.729-1.751,8.911s0.582,6.181,1.751,8.992c1.166,2.811,2.784,5.249,4.854,7.32
			c2.071,2.066,4.482,3.685,7.24,4.854c2.757,1.165,5.729,1.748,8.911,1.748h45.67c9.44,0,18.324,1.779,26.652,5.33
			c8.329,3.554,15.59,8.436,21.803,14.64c6.204,6.208,11.081,13.474,14.64,21.802c3.55,8.328,5.325,17.212,5.325,26.652
			c0,9.444-1.775,18.302-5.325,26.576c-3.559,8.274-8.436,15.514-14.64,21.717c-6.213,6.209-13.474,11.117-21.803,14.721
			c-8.328,3.608-17.212,5.41-26.652,5.41H456.295v-45.667h101.364c3.183,0,6.15-0.583,8.911-1.753
			c2.752-1.166,5.173-2.784,7.234-4.854c2.071-2.066,3.689-4.478,4.859-7.239c1.165-2.757,1.748-5.729,1.748-8.911
			s-0.583-6.15-1.748-8.911c-1.17-2.757-2.788-5.173-4.859-7.239c-2.062-2.071-4.482-3.685-7.234-4.854
			c-2.761-1.166-5.729-1.753-8.911-1.753h-45.67c-9.444,0-18.302-1.802-26.576-5.406c-8.275-3.608-15.509-8.517-21.722-14.72
			c-6.205-6.208-11.108-13.474-14.716-21.802C445.367,92.516,443.565,83.632,443.565,74.188z"/>
		<path fill="#E0EAF0" d="M701.661,233.95h-45.667V5.764h45.667v91.338h91.181V5.764h45.667V233.95h-45.667v-91.182h-91.181V233.95z
			"/>
		<path fill="#E0EAF0" d="M1104.414,120.813c0,10.82-1.407,21.242-4.223,31.265c-2.806,10.027-6.759,19.413-11.852,28.167
			c-5.092,8.75-11.241,16.733-18.458,23.95c-7.217,7.212-15.169,13.393-23.873,18.535c-8.696,5.146-18.082,9.127-28.159,11.938
			c-10.085,2.81-20.529,4.213-31.35,4.213s-21.246-1.403-31.27-4.213c-10.022-2.811-19.408-6.791-28.167-11.938
			c-8.75-5.142-16.729-11.323-23.945-18.535c-7.217-7.217-13.394-15.2-18.539-23.95c-5.146-8.754-9.126-18.14-11.933-28.167
			c-2.814-10.022-4.222-20.444-4.222-31.265s1.407-21.269,4.222-31.35c2.807-10.076,6.787-19.467,11.933-28.167
			c5.146-8.696,11.322-16.652,18.539-23.864c7.217-7.217,15.195-13.366,23.945-18.458c8.759-5.092,18.145-9.045,28.167-11.856
			c10.023-2.811,20.449-4.218,31.27-4.218s21.265,1.407,31.35,4.218c10.077,2.811,19.463,6.764,28.159,11.856
			c8.704,5.092,16.656,11.242,23.873,18.458c7.217,7.212,13.366,15.168,18.458,23.864c5.093,8.701,9.046,18.091,11.852,28.167
			C1103.006,99.544,1104.414,109.993,1104.414,120.813z M1059.061,120.813c0-9.974-1.91-19.387-5.729-28.248
			c-3.819-8.857-8.992-16.549-15.519-23.071c-6.518-6.526-14.209-11.694-23.066-15.513c-8.866-3.819-18.279-5.729-28.248-5.729
			c-10.076,0-19.517,1.909-28.329,5.729c-8.803,3.819-16.495,8.987-23.066,15.513c-6.58,6.522-11.779,14.214-15.599,23.071
			c-3.818,8.861-5.729,18.274-5.729,28.248c0,9.969,1.91,19.333,5.729,28.082c3.819,8.754,9.019,16.419,15.599,22.995
			c6.571,6.58,14.264,11.775,23.066,15.594c8.812,3.819,18.253,5.729,28.329,5.729c9.969,0,19.382-1.91,28.248-5.729
			c8.857-3.819,16.549-9.014,23.066-15.594c6.526-6.576,11.699-14.241,15.519-22.995
			C1057.151,140.146,1059.061,130.782,1059.061,120.813z"/>
		<path fill="#E0EAF0" d="M1360.762,168.708c0,9.444-1.774,18.329-5.325,26.652c-3.559,8.328-8.436,15.594-14.64,21.802
			c-6.212,6.204-13.474,11.086-21.802,14.64c-8.328,3.551-17.213,5.33-26.652,5.33c-8.49,0-16.63-1.488-24.43-4.455
			c-7.799-2.968-14.828-7.32-21.085-13.049c-6.258,5.729-13.312,10.081-21.166,13.049c-7.845,2.967-16.011,4.455-24.501,4.455
			c-9.439,0-18.324-1.779-26.652-5.33c-8.328-3.554-15.599-8.436-21.803-14.64c-6.203-6.208-11.089-13.474-14.639-21.802
			c-3.551-8.324-5.334-17.208-5.334-26.652V5.764h45.676v162.944c0,3.183,0.582,6.181,1.748,8.992
			c1.165,2.811,2.787,5.249,4.85,7.32c2.07,2.066,4.482,3.685,7.243,4.85c2.762,1.17,5.729,1.753,8.911,1.753
			s6.15-0.583,8.911-1.753c2.761-1.165,5.173-2.783,7.243-4.85c2.062-2.071,3.686-4.509,4.851-7.32s1.748-5.809,1.748-8.992V5.764
			h45.667v162.944c0,3.183,0.582,6.181,1.757,8.992c1.165,2.811,2.779,5.249,4.85,7.32c2.071,2.066,4.482,3.685,7.244,4.85
			c2.752,1.17,5.729,1.753,8.911,1.753c3.182,0,6.149-0.583,8.91-1.753c2.753-1.165,5.173-2.783,7.235-4.85
			c2.07-2.071,3.711-4.509,4.939-7.32c1.22-2.811,1.829-5.809,1.829-8.992V5.764h45.505V168.708z"/>
		<path fill="#E0EAF0" d="M1583.699,210.56c-10.614,9.122-22.492,16.124-35.644,21.005c-13.16,4.877-26.787,7.315-40.897,7.315
			c-10.82,0-21.246-1.403-31.27-4.213c-10.022-2.811-19.408-6.791-28.167-11.938c-8.75-5.142-16.729-11.323-23.945-18.535
			c-7.217-7.217-13.394-15.2-18.539-23.95c-5.146-8.754-9.126-18.14-11.933-28.167c-2.814-10.022-4.223-20.444-4.223-31.265
			s1.408-21.269,4.223-31.35c2.807-10.076,6.787-19.494,11.933-28.244c5.146-8.754,11.322-16.732,18.539-23.949
			c7.217-7.212,15.195-13.394,23.945-18.539c8.759-5.142,18.145-9.122,28.167-11.933c10.023-2.811,20.449-4.218,31.27-4.218
			c14.11,0,27.737,2.416,40.897,7.239c13.151,4.827,25.029,11.856,35.644,21.085l-24.187,39.781
			c-6.688-7.212-14.586-12.757-23.712-16.629c-9.126-3.869-18.674-5.805-28.643-5.805c-10.076,0-19.517,1.909-28.329,5.729
			c-8.804,3.819-16.495,8.987-23.066,15.513c-6.58,6.522-11.779,14.214-15.599,23.071c-3.819,8.861-5.729,18.274-5.729,28.248
			c0,9.969,1.909,19.333,5.729,28.082c3.819,8.754,9.019,16.419,15.599,22.995c6.571,6.58,14.263,11.775,23.066,15.594
			c8.812,3.819,18.253,5.729,28.329,5.729c9.969,0,19.517-1.937,28.643-5.809c9.126-3.869,17.023-9.413,23.712-16.63
			L1583.699,210.56z"/>
		<path fill="#E0EAF0" d="M1790.078,233.95h-45.666v-45.667h-91.343v45.667h-45.505V97.102c0-12.623,2.384-24.479,7.162-35.563
			c4.77-11.085,11.27-20.767,19.49-29.042s17.875-14.796,28.965-19.575c11.08-4.769,22.932-7.158,35.563-7.158
			c12.622,0,24.474,2.389,35.563,7.158c11.08,4.778,20.762,11.3,29.037,19.575c8.274,8.274,14.801,17.957,19.57,29.042
			c4.777,11.085,7.162,22.941,7.162,35.563V233.95z M1744.412,142.768V97.102c0-6.257-1.192-12.174-3.577-17.741
			c-2.394-5.572-5.657-10.426-9.79-14.559c-4.142-4.142-8.991-7.4-14.559-9.79c-5.567-2.385-11.484-3.577-17.741-3.577
			c-6.267,0-12.175,1.192-17.741,3.577c-5.576,2.389-10.426,5.648-14.568,9.79c-4.133,4.133-7.396,8.987-9.78,14.559
			c-2.385,5.567-3.586,11.484-3.586,17.741v45.667H1744.412z"/>
		<path fill="#E0EAF0" d="M1816.335,74.188c0-9.44,1.803-18.297,5.406-26.572c3.613-8.274,8.517-15.518,14.721-21.722
			c6.212-6.208,13.447-11.112,21.721-14.72c8.275-3.604,17.133-5.41,26.572-5.41h104.709v45.671h-104.709
			c-3.183,0-6.15,0.583-8.911,1.749c-2.752,1.17-5.164,2.783-7.234,4.854c-2.071,2.066-3.685,4.482-4.859,7.239
			c-1.165,2.761-1.748,5.729-1.748,8.911s0.583,6.181,1.748,8.992c1.175,2.811,2.788,5.249,4.859,7.32
			c2.07,2.066,4.482,3.685,7.234,4.854c2.761,1.165,5.729,1.748,8.911,1.748h45.676c9.439,0,18.324,1.779,26.652,5.33
			c8.328,3.554,15.59,8.436,21.803,14.64c6.203,6.208,11.08,13.474,14.639,21.802c3.551,8.328,5.325,17.212,5.325,26.652
			c0,9.444-1.774,18.302-5.325,26.576c-3.559,8.274-8.436,15.514-14.639,21.717c-6.213,6.209-13.475,11.117-21.803,14.721
			c-8.328,3.608-17.213,5.41-26.652,5.41h-101.365v-45.667h101.365c3.183,0,6.149-0.583,8.911-1.753
			c2.752-1.166,5.173-2.784,7.234-4.854c2.071-2.066,3.685-4.478,4.858-7.239c1.166-2.757,1.748-5.729,1.748-8.911
			s-0.582-6.15-1.748-8.911c-1.174-2.757-2.787-5.173-4.858-7.239c-2.062-2.071-4.482-3.685-7.234-4.854
			c-2.762-1.166-5.729-1.753-8.911-1.753h-45.676c-9.439,0-18.297-1.802-26.572-5.406c-8.273-3.608-15.509-8.517-21.721-14.72
			c-6.204-6.208-11.107-13.474-14.721-21.802C1818.138,92.516,1816.335,83.632,1816.335,74.188z"/>
		<path fill="#E0EAF0" d="M2185.193,233.95h-156.418V5.764h156.418v45.671h-110.751v45.667h74.945v45.667h-74.945v45.515h110.751
			V233.95z"/>
	</g>
	<rect x="326.379" fill="#E0EAF0" width="19" height="241.861"/>
</g>
<g>
</g>
<g>
</g>
<g>
</g>
<g>
</g>
<g>
</g>
<g>
</g>
</svg>
