<svg height="70" viewBox="0 0 407 70" width="407" xmlns="http://www.w3.org/2000/svg"><g fill="none" fill-rule="evenodd"><g fill="#404c51"><path d="m13.439 68.154h-13.439v-67.154h26.871c2.464 0 4.84.324 7.13.96 2.267.642 4.395 1.549 6.39 2.72 1.977 1.168 3.787 2.573 5.429 4.215 1.643 1.64 3.048 3.458 4.216 5.45 1.174 2.003 2.07 4.14 2.711 6.421.648 2.281.961 4.646.961 7.116 0 3.684-.706 7.158-2.105 10.419-1.399 3.264-3.33 6.112-5.752 8.543-2.447 2.437-5.298 4.356-8.547 5.762-3.267 1.405-6.742 2.108-10.432 2.108h-13.432v13.44zm0-53.709v26.879h13.432c1.851 0 3.573-.355 5.198-1.055 1.626-.703 3.054-1.66 4.262-2.879 1.226-1.221 2.175-2.649 2.88-4.285.705-1.637 1.058-3.379 1.058-5.221 0-1.845-.353-3.58-1.058-5.222-.705-1.639-1.654-3.067-2.88-4.284-1.208-1.218-2.636-2.174-4.262-2.883-1.625-.702-3.348-1.049-5.198-1.049h-13.432z"/><path d="m75.444 68.154h-13.444v-67.154h26.883c2.451 0 4.833.324 7.124.96 2.267.642 4.389 1.549 6.389 2.72 1.979 1.168 3.776 2.573 5.418 4.215 1.648 1.64 3.048 3.458 4.222 5.45 1.174 2.003 2.076 4.14 2.712 6.421.647 2.281.972 4.646.972 7.116 0 2.307-.302 4.559-.885 6.742-.572 2.188-1.394 4.265-2.47 6.23-1.087 1.963-2.399 3.773-3.961 5.433-1.562 1.651-3.307 3.088-5.245 4.305l7.443 17.561h-14.276l-5.853-13.531-15.028.092v13.44zm0-53.709v26.879h13.438c1.839 0 3.562-.355 5.198-1.055 1.613-.703 3.041-1.66 4.256-2.879 1.22-1.221 2.186-2.649 2.88-4.285.711-1.637 1.052-3.379 1.052-5.221 0-1.845-.341-3.58-1.052-5.222-.694-1.639-1.66-3.067-2.88-4.284-1.215-1.218-2.643-2.174-4.256-2.883-1.637-.702-3.359-1.049-5.198-1.049h-13.438z"/><path d="m137.443 68.154h-13.443v-67.154h13.443z"/><path d="m273.033 68.154h-46.033v-67.154h46.033v13.444h-32.596v13.438h22.049v13.44h-22.049v13.392h32.596z"/><path d="m202.854 0c-2.089 0-3.476.995-4.373 2.691l-15.194 28.38c-.399.795-.701 1.292-1.099 1.292-.395 0-.694-.498-1.094-1.292l-15.196-28.38c-.896-1.696-2.285-2.691-4.372-2.691h-6.952c-2.088 0-3.574 1.292-3.574 3.385v59.793 3.564 1.391h1.688 10.729 1.585v-1.989-2.966-32.705c0-.697.3-.798.496-.798.302 0 .498.2.793.696l8.944 16.431c.694 1.195 1.689 1.695 2.984 1.695h7.938c1.296 0 2.29-.5 2.984-1.695l8.934-16.431c.306-.497.504-.696.804-.696.196 0 .498.101.498.798v32.705 2.966 1.989h1.583 10.729 1.689v-1.391-3.564-59.694c.002-2.091-1.485-3.484-3.579-3.484z"/></g><path d="m339.736264 68.288491h-14.386374l-25.905494-44.296353v44.296353h-13.444396v-67.288491h14.384176l25.90989 44.340818v-44.340818h13.442198z" fill="#dd0031"/><path d="m393.133626 31.352956v.073082h-12.840439v13.447924h12.840439v8.94239c-1.440439.723774-2.953406 1.286415-4.547692 1.692327-1.590769.405912-3.232088.61283-4.919121.61283-2.935824 0-5.687033-.564842-8.265934-1.691886-2.580659-1.125283-4.833846-2.658239-6.77011-4.597107-1.938901-1.939308-3.46989-4.208805-4.58989-6.803648-1.125275-2.597484-1.689231-5.381635-1.689231-8.351572 0-2.940881.563956-5.70434 1.689231-8.281573 1.12044-2.582515 2.650989-4.834842 4.58989-6.758742 1.936264-1.924339 4.189451-3.44761 6.77011-4.574654 2.578462-1.126163 5.33011-1.688365 8.265934-1.688365s5.73011.586415 8.386813 1.758805c2.653187 1.17283 4.994726 2.791636 7.024176 4.856856l7.029451-11.730944c-3.122638-2.66044-6.607033-4.700566-10.443956-6.122578-3.846594-1.424654-7.843077-2.136101-11.996923-2.136101-3.185495 0-6.254506.414717-9.204836 1.24327-2.953406.828114-5.70989 1.99346-8.270769 3.496038-2.557802 1.501698-4.89934 3.30717-7.024615 5.420378-2.122198 2.110566-3.937143 4.455786-5.432528 7.036981-1.500659 2.580754-2.665934 5.342452-3.492307 8.280251-.828572 2.94044-1.241319 6.006793-1.241319 9.199497 0 3.191824.412747 6.270943 1.241319 9.241761.826373 2.973459 1.991648 5.746604 3.492307 8.32912 1.495385 2.579434 3.31033 4.926855 5.432528 7.03566 2.125714 2.113208 4.466813 3.928365 7.024615 5.441069 2.560879 1.521069 5.317802 2.6939 8.270769 3.523333 2.95033.829434 6.019341 1.242831 9.204836 1.242831 4.153846 0 8.150329-.711007 11.996923-2.133459 3.836923-1.424214 7.321318-3.46434 10.443956-6.12478v-16.358868-13.447925h-12.905934z" fill="#dd0031"/></g></svg>