<?xml version="1.0" encoding="UTF-8"?>
<svg width="2185px" height="242px" viewBox="0 0 2185 242" version="1.1" xmlns="http://www.w3.org/2000/svg" xmlns:xlink="http://www.w3.org/1999/xlink">
    <!-- Generator: Sketch 40.1 (33804) - http://www.bohemiancoding.com/sketch -->
    <title>primengfull</title>
    <desc>Created with Sketch.</desc>
    <defs></defs>
    <g id="Page-1" stroke="none" stroke-width="1" fill="none" fill-rule="evenodd">
        <g id="primengfull">
            <g id="Group" transform="translate(325.000000, 0.000000)" fill="#E0EAF0">
                <g transform="translate(117.000000, 2.000000)" id="Shape">
                    <path d="M0.565,72.188 C0.565,62.748 2.367,53.891 5.975,45.616 C9.583,37.342 14.486,30.098 20.691,23.894 C26.904,17.686 34.138,12.782 42.413,9.174 C50.687,5.57 59.545,3.764 68.989,3.764 L173.693,3.764 L173.693,49.435 L68.988,49.435 C65.806,49.435 62.834,50.018 60.077,51.184 C57.32,52.354 54.909,53.967 52.837,56.038 C50.767,58.104 49.149,60.52 47.983,63.277 C46.814,66.038 46.232,69.006 46.232,72.188 C46.232,75.37 46.814,78.369 47.983,81.18 C49.149,83.991 50.767,86.429 52.837,88.5 C54.908,90.566 57.319,92.185 60.077,93.354 C62.834,94.519 65.806,95.102 68.988,95.102 L114.658,95.102 C124.098,95.102 132.982,96.881 141.31,100.432 C149.639,103.986 156.9,108.868 163.113,115.072 C169.317,121.28 174.194,128.546 177.753,136.874 C181.303,145.202 183.078,154.086 183.078,163.526 C183.078,172.97 181.303,181.828 177.753,190.102 C174.194,198.376 169.317,205.616 163.113,211.819 C156.9,218.028 149.639,222.936 141.31,226.54 C132.982,230.148 124.098,231.95 114.658,231.95 L13.295,231.95 L13.295,186.283 L114.659,186.283 C117.842,186.283 120.809,185.7 123.57,184.53 C126.322,183.364 128.743,181.746 130.804,179.676 C132.875,177.61 134.493,175.198 135.663,172.437 C136.828,169.68 137.411,166.708 137.411,163.526 C137.411,160.344 136.828,157.376 135.663,154.615 C134.493,151.858 132.875,149.442 130.804,147.376 C128.742,145.305 126.322,143.691 123.57,142.522 C120.809,141.356 117.841,140.769 114.659,140.769 L68.989,140.769 C59.545,140.769 50.687,138.967 42.413,135.363 C34.138,131.755 26.904,126.846 20.691,120.643 C14.486,114.435 9.583,107.169 5.975,98.841 C2.367,90.516 0.565,81.632 0.565,72.188 L0.565,72.188 Z"></path>
                    <polygon points="258.661 231.95 212.994 231.95 212.994 3.764 258.661 3.764 258.661 95.102 349.842 95.102 349.842 3.764 395.509 3.764 395.509 231.95 349.842 231.95 349.842 140.768 258.661 140.768"></polygon>
                    <path d="M661.414,118.813 C661.414,129.633 660.007,140.055 657.191,150.078 C654.385,160.105 650.432,169.491 645.339,178.245 C640.247,186.995 634.098,194.978 626.881,202.195 C619.664,209.407 611.712,215.588 603.008,220.73 C594.312,225.876 584.926,229.857 574.849,232.668 C564.764,235.478 554.32,236.881 543.499,236.881 C532.678,236.881 522.253,235.478 512.229,232.668 C502.207,229.857 492.821,225.877 484.062,220.73 C475.312,215.588 467.333,209.407 460.117,202.195 C452.9,194.978 446.723,186.995 441.578,178.245 C436.432,169.491 432.452,160.105 429.645,150.078 C426.831,140.056 425.423,129.634 425.423,118.813 C425.423,107.992 426.83,97.544 429.645,87.463 C432.452,77.387 436.432,67.996 441.578,59.296 C446.724,50.6 452.9,42.644 460.117,35.432 C467.334,28.215 475.312,22.066 484.062,16.974 C492.821,11.882 502.207,7.929 512.229,5.118 C522.252,2.307 532.678,0.9 543.499,0.9 C554.32,0.9 564.764,2.307 574.849,5.118 C584.926,7.929 594.312,11.882 603.008,16.974 C611.712,22.066 619.664,28.216 626.881,35.432 C634.098,42.644 640.247,50.6 645.339,59.296 C650.432,67.997 654.385,77.387 657.191,87.463 C660.006,97.544 661.414,107.993 661.414,118.813 L661.414,118.813 Z M616.061,118.813 C616.061,108.839 614.151,99.426 610.332,90.565 C606.513,81.708 601.34,74.016 594.813,67.494 C588.295,60.968 580.604,55.8 571.747,51.981 C562.881,48.162 553.468,46.252 543.499,46.252 C533.423,46.252 523.982,48.161 515.17,51.981 C506.367,55.8 498.675,60.968 492.104,67.494 C485.524,74.016 480.325,81.708 476.505,90.565 C472.687,99.426 470.776,108.839 470.776,118.813 C470.776,128.782 472.686,138.146 476.505,146.895 C480.324,155.649 485.524,163.314 492.104,169.89 C498.675,176.47 506.368,181.665 515.17,185.484 C523.982,189.303 533.423,191.213 543.499,191.213 C553.468,191.213 562.881,189.303 571.747,185.484 C580.604,181.665 588.296,176.47 594.813,169.89 C601.339,163.314 606.512,155.649 610.332,146.895 C614.151,138.146 616.061,128.782 616.061,118.813 L616.061,118.813 Z"></path>
                    <path d="M917.762,166.708 C917.762,176.152 915.988,185.037 912.437,193.36 C908.878,201.688 904.001,208.954 897.797,215.162 C891.585,221.366 884.323,226.248 875.995,229.802 C867.667,233.353 858.782,235.132 849.343,235.132 C840.853,235.132 832.713,233.644 824.913,230.677 C817.114,227.709 810.085,223.357 803.828,217.628 C797.57,223.357 790.516,227.709 782.662,230.677 C774.817,233.644 766.651,235.132 758.161,235.132 C748.722,235.132 739.837,233.353 731.509,229.802 C723.181,226.248 715.91,221.366 709.706,215.162 C703.503,208.954 698.617,201.688 695.067,193.36 C691.516,185.036 689.733,176.152 689.733,166.708 L689.733,3.764 L735.409,3.764 L735.409,166.708 C735.409,169.891 735.991,172.889 737.157,175.7 C738.322,178.511 739.944,180.949 742.007,183.02 C744.077,185.086 746.489,186.705 749.25,187.87 C752.012,189.04 754.979,189.623 758.161,189.623 C761.343,189.623 764.311,189.04 767.072,187.87 C769.833,186.705 772.245,185.087 774.315,183.02 C776.377,180.949 778.001,178.511 779.166,175.7 C780.331,172.889 780.914,169.891 780.914,166.708 L780.914,3.764 L826.581,3.764 L826.581,166.708 C826.581,169.891 827.163,172.889 828.338,175.7 C829.503,178.511 831.117,180.949 833.188,183.02 C835.259,185.086 837.67,186.705 840.432,187.87 C843.184,189.04 846.161,189.623 849.343,189.623 C852.525,189.623 855.492,189.04 858.253,187.87 C861.006,186.705 863.426,185.087 865.488,183.02 C867.558,180.949 869.199,178.511 870.427,175.7 C871.647,172.889 872.256,169.891 872.256,166.708 L872.256,3.764 L917.761,3.764 L917.761,166.708 L917.762,166.708 Z"></path>
                    <path d="M1140.699,208.56 C1130.085,217.682 1118.207,224.684 1105.055,229.565 C1091.895,234.442 1078.268,236.88 1064.158,236.88 C1053.338,236.88 1042.912,235.477 1032.888,232.667 C1022.866,229.856 1013.48,225.876 1004.721,220.729 C995.971,215.587 987.992,209.406 980.776,202.194 C973.559,194.977 967.382,186.994 962.237,178.244 C957.091,169.49 953.111,160.104 950.304,150.077 C947.49,140.055 946.081,129.633 946.081,118.812 C946.081,107.991 947.489,97.543 950.304,87.462 C953.111,77.386 957.091,67.968 962.237,59.218 C967.383,50.464 973.559,42.486 980.776,35.269 C987.993,28.057 995.971,21.875 1004.721,16.73 C1013.48,11.588 1022.866,7.608 1032.888,4.797 C1042.911,1.986 1053.337,0.579 1064.158,0.579 C1078.268,0.579 1091.895,2.995 1105.055,7.818 C1118.206,12.645 1130.084,19.674 1140.699,28.903 L1116.512,68.684 C1109.824,61.472 1101.926,55.927 1092.8,52.055 C1083.674,48.186 1074.126,46.25 1064.157,46.25 C1054.081,46.25 1044.64,48.159 1035.828,51.979 C1027.024,55.798 1019.333,60.966 1012.762,67.492 C1006.182,74.014 1000.983,81.706 997.163,90.563 C993.344,99.424 991.434,108.837 991.434,118.811 C991.434,128.78 993.343,138.144 997.163,146.893 C1000.982,155.647 1006.182,163.312 1012.762,169.888 C1019.333,176.468 1027.025,181.663 1035.828,185.482 C1044.64,189.301 1054.081,191.211 1064.157,191.211 C1074.126,191.211 1083.674,189.274 1092.8,185.402 C1101.926,181.533 1109.823,175.989 1116.512,168.772 L1140.699,208.56 L1140.699,208.56 Z"></path>
                    <path d="M1347.078,231.95 L1301.412,231.95 L1301.412,186.283 L1210.069,186.283 L1210.069,231.95 L1164.564,231.95 L1164.564,95.102 C1164.564,82.479 1166.948,70.623 1171.726,59.539 C1176.496,48.454 1182.996,38.772 1191.216,30.497 C1199.436,22.222 1209.091,15.701 1220.181,10.922 C1231.261,6.153 1243.113,3.764 1255.744,3.764 C1268.366,3.764 1280.218,6.153 1291.307,10.922 C1302.387,15.7 1312.069,22.222 1320.344,30.497 C1328.618,38.771 1335.145,48.454 1339.914,59.539 C1344.691,70.624 1347.076,82.48 1347.076,95.102 L1347.076,231.95 L1347.078,231.95 Z M1301.412,140.768 L1301.412,95.102 C1301.412,88.845 1300.22,82.928 1297.835,77.361 C1295.441,71.789 1292.178,66.935 1288.045,62.802 C1283.903,58.66 1279.054,55.402 1273.486,53.012 C1267.919,50.627 1262.002,49.435 1255.745,49.435 C1249.478,49.435 1243.57,50.627 1238.004,53.012 C1232.428,55.401 1227.578,58.66 1223.436,62.802 C1219.303,66.935 1216.04,71.789 1213.656,77.361 C1211.271,82.928 1210.07,88.845 1210.07,95.102 L1210.07,140.769 L1301.412,140.769 L1301.412,140.768 Z"></path>
                    <path d="M1373.335,72.188 C1373.335,62.748 1375.138,53.891 1378.741,45.616 C1382.354,37.342 1387.258,30.098 1393.462,23.894 C1399.674,17.686 1406.909,12.782 1415.183,9.174 C1423.458,5.57 1432.316,3.764 1441.755,3.764 L1546.464,3.764 L1546.464,49.435 L1441.755,49.435 C1438.572,49.435 1435.605,50.018 1432.844,51.184 C1430.092,52.354 1427.68,53.967 1425.61,56.038 C1423.539,58.104 1421.925,60.52 1420.751,63.277 C1419.586,66.038 1419.003,69.006 1419.003,72.188 C1419.003,75.37 1419.586,78.369 1420.751,81.18 C1421.926,83.991 1423.539,86.429 1425.61,88.5 C1427.68,90.566 1430.092,92.185 1432.844,93.354 C1435.605,94.519 1438.573,95.102 1441.755,95.102 L1487.431,95.102 C1496.87,95.102 1505.755,96.881 1514.083,100.432 C1522.411,103.986 1529.673,108.868 1535.886,115.072 C1542.089,121.28 1546.966,128.546 1550.525,136.874 C1554.076,145.202 1555.85,154.086 1555.85,163.526 C1555.85,172.97 1554.076,181.828 1550.525,190.102 C1546.966,198.376 1542.089,205.616 1535.886,211.819 C1529.673,218.028 1522.411,222.936 1514.083,226.54 C1505.755,230.148 1496.87,231.95 1487.431,231.95 L1386.066,231.95 L1386.066,186.283 L1487.431,186.283 C1490.614,186.283 1493.58,185.7 1496.342,184.53 C1499.094,183.364 1501.515,181.746 1503.576,179.676 C1505.647,177.61 1507.261,175.198 1508.434,172.437 C1509.6,169.68 1510.182,166.708 1510.182,163.526 C1510.182,160.344 1509.6,157.376 1508.434,154.615 C1507.26,151.858 1505.647,149.442 1503.576,147.376 C1501.514,145.305 1499.094,143.691 1496.342,142.522 C1493.58,141.356 1490.613,140.769 1487.431,140.769 L1441.755,140.769 C1432.316,140.769 1423.458,138.967 1415.183,135.363 C1406.91,131.755 1399.674,126.846 1393.462,120.643 C1387.258,114.435 1382.355,107.169 1378.741,98.841 C1375.138,90.516 1373.335,81.632 1373.335,72.188 L1373.335,72.188 Z"></path>
                    <polygon points="1742.193 231.95 1585.775 231.95 1585.775 3.764 1742.193 3.764 1742.193 49.435 1631.442 49.435 1631.442 95.102 1706.387 95.102 1706.387 140.769 1631.442 140.769 1631.442 186.284 1742.193 186.284"></polygon>
                </g>
                <rect id="Rectangle-path" x="0.379" y="0" width="19" height="241.861"></rect>
            </g>
            <g id="Group-2" transform="translate(0.000000, 1.000000)">
                <polygon id="Shape" fill="#DD0031" points="112.5 0 112.5 0 112.5 0 0.0867021277 40.006 17.2324468 188.3415 112.5 241 112.5 241 112.5 241 207.767553 188.3415 224.913298 40.006"></polygon>
                <polygon id="Shape" fill="#C3002F" points="112.5 0 112.5 26.751 112.5 26.6305 112.5 148.697 112.5 148.697 112.5 241 112.5 241 207.767553 188.3415 224.913298 40.006"></polygon>
                <g id="Clipped" transform="translate(43.675532, 40.970000)" fill="#FFFFFF">
                    <g id="Group">
                        <polygon id="Shape" points="57.2535053 72.44701 8.23357979 54.209335 0.812611702 22.97694 39.7020585 30.74196"></polygon>
                        <polygon id="Shape" points="81.1392181 72.44701 130.165181 54.209335 137.594601 22.97694 98.6834202 30.74196"></polygon>
                        <polygon id="Shape" points="41.1534096 27.853575 16.3609043 22.97694 33.1866755 0.767585 54.3568404 0.767585"></polygon>
                        <polygon id="Shape" points="96.8758723 27.853575 121.66234 22.97694 104.835362 0.767585 83.6736489 0.767585"></polygon>
                        <polygon id="Shape" points="94.0492394 33.60263 76.5231489 79.220315 81.7670904 113.84358 55.7188404 113.84358 61.6244628 79.17091 44.0452447 33.60263 55.4459574 0.767585 82.3961702 0.767585"></polygon>
                        <polygon id="Shape" points="20.2561277 77.046495 37.4393032 86.26113 37.4393032 122.64249 9.2116117 98.54008 9.2116117 57.81831 20.2561277 62.33706"></polygon>
                        <polygon id="Shape" points="117.59083 77.046495 100.401617 86.26113 100.401617 122.64249 128.636553 98.54008 128.636553 57.81831 117.59083 62.33706"></polygon>
                        <polygon id="Shape" points="87.5628351 73.07843 81.1392181 76.422305 81.1392181 82.700355 85.160016 116.071625 76.544883 124.810285 69.0526755 124.880175 61.5544309 124.810285 52.9320532 116.071625 56.9600957 82.700355 56.9600957 76.422305 50.5509681 73.07843 41.6629521 87.978255 41.6629521 142.075525 50.8383404 133.679085 69.0526755 133.479055 87.2682181 133.679085 96.4218723 142.075525 96.4218723 87.978255"></polygon>
                        <polygon id="Shape" points="80.9568936 161.459155 56.9745851 161.459155 48.5755851 152.8422 56.9745851 144.222835 80.9568936 144.222835 89.6287766 152.8422"></polygon>
                        <polygon id="Shape" points="37.4393032 144.222835 21.7859628 126.885295 21.7859628 115.0534 37.4393032 125.263365"></polygon>
                        <polygon id="Shape" points="99.9621064 144.222835 115.602165 126.885295 115.602165 115.0534 99.9621064 125.263365"></polygon>
                        <polygon id="Shape" points="85.2928351 142.075525 52.799234 142.075525 46.3550904 150.88287 41.6629521 148.442745 52.6458883 137.448325 85.5657181 137.448325 96.4218723 148.442745 91.8142553 150.88287"></polygon>
                    </g>
                </g>
                <g id="Clipped" transform="translate(42.468085, 40.970000)" fill="#FFFFFF">
                    <g id="Group">
                        <polygon id="Shape" points="57.2535053 72.34338 8.23357979 54.108115 0.812611702 22.87572 39.7020585 30.64074"></polygon>
                        <polygon id="Shape" points="81.1392181 72.34338 130.165181 54.108115 137.594601 22.87572 98.6834202 30.64074"></polygon>
                        <polygon id="Shape" points="41.1534096 27.752355 16.3609043 22.87572 33.1866755 0.666365 54.3568404 0.666365"></polygon>
                        <polygon id="Shape" points="96.883117 27.752355 121.66234 22.87572 104.835362 0.666365 83.6736489 0.666365"></polygon>
                        <polygon id="Shape" points="94.0492394 33.497795 76.5231489 79.119095 81.7670904 113.74477 55.7188404 113.74477 61.6244628 79.06969 44.0452447 33.497795 55.4387128 0.666365 82.4022074 0.666365"></polygon>
                        <polygon id="Shape" points="20.2561277 76.945275 37.4393032 86.15991 37.4393032 122.537655 9.22610106 98.43645 9.22610106 57.71709 20.2561277 62.232225"></polygon>
                        <polygon id="Shape" points="117.59083 76.945275 100.401617 86.15991 100.401617 122.537655 128.636553 98.43645 128.636553 57.71709 117.59083 62.232225"></polygon>
                        <polygon id="Shape" points="87.5628351 72.97721 81.1392181 76.31747 81.1392181 82.599135 85.160016 115.975225 76.544883 124.711475 69.0526755 124.76811 61.5483936 124.711475 52.9320532 115.975225 56.9540585 82.599135 56.9540585 76.31747 50.5437234 72.97721 41.6629521 87.877035 41.6629521 141.971895 50.8383404 133.575455 69.0526755 133.380245 87.2621809 133.575455 96.4146277 141.971895 96.4146277 87.877035"></polygon>
                        <polygon id="Shape" points="80.9568936 161.362755 56.9745851 161.362755 48.5755851 152.737365 56.9745851 144.118 80.9568936 144.118 89.6215319 152.737365"></polygon>
                        <polygon id="Shape" points="37.4393032 144.118 21.7859628 126.78769 21.7859628 114.957 37.4393032 125.157325"></polygon>
                        <polygon id="Shape" points="99.9621064 144.118 115.602165 126.78769 115.602165 114.957 99.9621064 125.157325"></polygon>
                        <polygon id="Shape" points="85.2928351 141.971895 52.799234 141.971895 46.3550904 150.77924 41.6629521 148.34755 52.6458883 137.35072 85.5657181 137.35072 96.4146277 148.34755 91.8142553 150.77924"></polygon>
                    </g>
                </g>
            </g>
        </g>
    </g>
</svg>