<?xml version="1.0" encoding="UTF-8"?>
<svg width="407px" height="302px" viewBox="0 0 407 302" version="1.1" xmlns="http://www.w3.org/2000/svg" xmlns:xlink="http://www.w3.org/1999/xlink">
    <!-- Generator: Sketch 40.1 (33804) - http://www.bohemiancoding.com/sketch -->
    <title>angular copy</title>
    <desc>Created with Sketch.</desc>
    <defs></defs>
    <g id="Page-1" stroke="none" stroke-width="1" fill="none" fill-rule="evenodd">
        <g id="angular-copy">
            <g id="Group" transform="translate(108.000000, 0.000000)">
                <polygon id="Shape" fill="#DD0031" points="94 0 94 0 94 0 0.9 33.2 15.1 156.3 94 200 94 200 94 200 172.9 156.3 187.1 33.2"></polygon>
                <polygon id="Shape" fill="#C3002F" points="94 0 94 22.2 94 22.1 94 123.4 94 123.4 94 200 94 200 172.9 156.3 187.1 33.2"></polygon>
            </g>
            <g id="Clipped" transform="translate(145.000000, 34.000000)" fill="#FFFFFF">
                <g id="Group">
                    <polygon id="Shape" points="47.417 60.122 6.819 44.987 0.673 19.068 32.881 25.512"></polygon>
                    <polygon id="Shape" points="67.199 60.122 107.802 44.987 113.955 19.068 81.729 25.512"></polygon>
                    <polygon id="Shape" points="34.083 23.115 13.55 19.068 27.485 0.637 45.018 0.637"></polygon>
                    <polygon id="Shape" points="80.232 23.115 100.76 19.068 86.824 0.637 69.298 0.637"></polygon>
                    <polygon id="Shape" points="77.891 27.886 63.376 65.743 67.719 94.476 46.146 94.476 51.037 65.702 36.478 27.886 45.92 0.637 68.24 0.637"></polygon>
                    <polygon id="Shape" points="16.776 63.939 31.007 71.586 31.007 101.778 7.629 81.776 7.629 47.982 16.776 51.732"></polygon>
                    <polygon id="Shape" points="97.388 63.939 83.152 71.586 83.152 101.778 106.536 81.776 106.536 47.982 97.388 51.732"></polygon>
                    <polygon id="Shape" points="72.519 60.646 67.199 63.421 67.199 68.631 70.529 96.325 63.394 103.577 57.189 103.635 50.979 103.577 43.838 96.325 47.174 68.631 47.174 63.421 41.866 60.646 34.505 73.011 34.505 117.905 42.104 110.937 57.189 110.771 72.275 110.937 79.856 117.905 79.856 73.011"></polygon>
                    <polygon id="Shape" points="67.048 133.991 47.186 133.991 40.23 126.84 47.186 119.687 67.048 119.687 74.23 126.84"></polygon>
                    <polygon id="Shape" points="31.007 119.687 18.043 105.299 18.043 95.48 31.007 103.953"></polygon>
                    <polygon id="Shape" points="82.788 119.687 95.741 105.299 95.741 95.48 82.788 103.953"></polygon>
                    <polygon id="Shape" points="70.639 117.905 43.728 117.905 38.391 125.214 34.505 123.189 43.601 114.065 70.865 114.065 79.856 123.189 76.04 125.214"></polygon>
                </g>
            </g>
            <g id="Clipped" transform="translate(144.000000, 34.000000)" fill="#FFFFFF">
                <g id="Group">
                    <polygon id="Shape" points="47.417 60.036 6.819 44.903 0.673 18.984 32.881 25.428"></polygon>
                    <polygon id="Shape" points="67.199 60.036 107.802 44.903 113.955 18.984 81.729 25.428"></polygon>
                    <polygon id="Shape" points="34.083 23.031 13.55 18.984 27.485 0.553 45.018 0.553"></polygon>
                    <polygon id="Shape" points="80.238 23.031 100.76 18.984 86.824 0.553 69.298 0.553"></polygon>
                    <polygon id="Shape" points="77.891 27.799 63.376 65.659 67.719 94.394 46.146 94.394 51.037 65.618 36.478 27.799 45.914 0.553 68.245 0.553"></polygon>
                    <polygon id="Shape" points="16.776 63.855 31.007 71.502 31.007 101.691 7.641 81.69 7.641 47.898 16.776 51.645"></polygon>
                    <polygon id="Shape" points="97.388 63.855 83.152 71.502 83.152 101.691 106.536 81.69 106.536 47.898 97.388 51.645"></polygon>
                    <polygon id="Shape" points="72.519 60.562 67.199 63.334 67.199 68.547 70.529 96.245 63.394 103.495 57.189 103.542 50.974 103.495 43.838 96.245 47.169 68.547 47.169 63.334 41.86 60.562 34.505 72.927 34.505 117.819 42.104 110.851 57.189 110.689 72.27 110.851 79.85 117.819 79.85 72.927"></polygon>
                    <polygon id="Shape" points="67.048 133.911 47.186 133.911 40.23 126.753 47.186 119.6 67.048 119.6 74.224 126.753"></polygon>
                    <polygon id="Shape" points="31.007 119.6 18.043 105.218 18.043 95.4 31.007 103.865"></polygon>
                    <polygon id="Shape" points="82.788 119.6 95.741 105.218 95.741 95.4 82.788 103.865"></polygon>
                    <polygon id="Shape" points="70.639 117.819 43.728 117.819 38.391 125.128 34.505 123.11 43.601 113.984 70.865 113.984 79.85 123.11 76.04 125.128"></polygon>
                </g>
            </g>
            <path d="M13.439,300.154 L0,300.154 L0,233 L26.871,233 C29.335,233 31.711,233.324 34.001,233.96 C36.268,234.602 38.396,235.509 40.391,236.68 C42.368,237.848 44.178,239.253 45.82,240.895 C47.463,242.535 48.868,244.353 50.036,246.345 C51.21,248.348 52.106,250.485 52.747,252.766 C53.395,255.047 53.708,257.412 53.708,259.882 C53.708,263.566 53.002,267.04 51.603,270.301 C50.204,273.565 48.273,276.413 45.851,278.844 C43.404,281.281 40.553,283.2 37.304,284.606 C34.037,286.011 30.562,286.714 26.872,286.714 L13.44,286.714 L13.44,300.154 L13.439,300.154 Z M13.439,246.445 L13.439,273.324 L26.871,273.324 C28.722,273.324 30.444,272.969 32.069,272.269 C33.695,271.566 35.123,270.609 36.331,269.39 C37.557,268.169 38.506,266.741 39.211,265.105 C39.916,263.468 40.269,261.726 40.269,259.884 C40.269,258.039 39.916,256.304 39.211,254.662 C38.506,253.023 37.557,251.595 36.331,250.378 C35.123,249.16 33.695,248.204 32.069,247.495 C30.444,246.793 28.721,246.446 26.871,246.446 L13.439,246.446 L13.439,246.445 Z" id="Shape" fill="#B0B6B9"></path>
            <path d="M75.444,300.154 L62,300.154 L62,233 L88.883,233 C91.334,233 93.716,233.324 96.007,233.96 C98.274,234.602 100.396,235.509 102.396,236.68 C104.375,237.848 106.172,239.253 107.814,240.895 C109.462,242.535 110.862,244.353 112.036,246.345 C113.21,248.348 114.112,250.485 114.748,252.766 C115.395,255.047 115.72,257.412 115.72,259.882 C115.72,262.189 115.418,264.441 114.835,266.624 C114.263,268.812 113.441,270.889 112.365,272.854 C111.278,274.817 109.966,276.627 108.404,278.287 C106.842,279.938 105.097,281.375 103.159,282.592 L110.602,300.153 L96.326,300.153 L90.473,286.622 L75.445,286.714 L75.445,300.154 L75.444,300.154 Z M75.444,246.445 L75.444,273.324 L88.882,273.324 C90.721,273.324 92.444,272.969 94.08,272.269 C95.693,271.566 97.121,270.609 98.336,269.39 C99.556,268.169 100.522,266.741 101.216,265.105 C101.927,263.468 102.268,261.726 102.268,259.884 C102.268,258.039 101.927,256.304 101.216,254.662 C100.522,253.023 99.556,251.595 98.336,250.378 C97.121,249.16 95.693,248.204 94.08,247.495 C92.443,246.793 90.721,246.446 88.882,246.446 L75.444,246.446 L75.444,246.445 Z" id="Shape" fill="#B0B6B9"></path>
            <polygon id="Shape" fill="#B0B6B9" points="137.443 300.154 124 300.154 124 233 137.443 233"></polygon>
            <polygon id="Shape" fill="#B0B6B9" points="273.033 300.154 227 300.154 227 233 273.033 233 273.033 246.444 240.437 246.444 240.437 259.882 262.486 259.882 262.486 273.322 240.437 273.322 240.437 286.714 273.033 286.714"></polygon>
            <path d="M202.854,232 C200.765,232 199.378,232.995 198.481,234.691 L183.287,263.071 C182.888,263.866 182.586,264.363 182.188,264.363 C181.793,264.363 181.494,263.865 181.094,263.071 L165.898,234.691 C165.002,232.995 163.613,232 161.526,232 L154.574,232 C152.486,232 151,233.292 151,235.385 L151,295.178 L151,298.742 L151,300.133 L152.688,300.133 L163.417,300.133 L165.002,300.133 L165.002,298.144 L165.002,295.178 L165.002,262.473 C165.002,261.776 165.302,261.675 165.498,261.675 C165.8,261.675 165.996,261.875 166.291,262.371 L175.235,278.802 C175.929,279.997 176.924,280.497 178.219,280.497 L186.157,280.497 C187.453,280.497 188.447,279.997 189.141,278.802 L198.075,262.371 C198.381,261.874 198.579,261.675 198.879,261.675 C199.075,261.675 199.377,261.776 199.377,262.473 L199.377,295.178 L199.377,298.144 L199.377,300.133 L200.96,300.133 L211.689,300.133 L213.378,300.133 L213.378,298.742 L213.378,295.178 L213.378,235.484 C213.38,233.393 211.893,232 209.799,232 L202.854,232 Z" id="Shape" fill="#B0B6B9"></path>
            <polygon id="Shape" fill="#DD0031" points="339.736264 300.288491 325.34989 300.288491 299.444396 255.992138 299.444396 300.288491 286 300.288491 286 233 300.384176 233 326.294066 277.340818 326.294066 233 339.736264 233"></polygon>
            <path d="M393.133626,263.352956 L393.133626,263.426038 L380.293187,263.426038 L380.293187,276.873962 L393.133626,276.873962 L393.133626,285.816352 C391.693187,286.540126 390.18022,287.102767 388.585934,287.508679 C386.995165,287.914591 385.353846,288.121509 383.666813,288.121509 C380.730989,288.121509 377.97978,287.556667 375.400879,286.429623 C372.82022,285.30434 370.567033,283.771384 368.630769,281.832516 C366.691868,279.893208 365.160879,277.623711 364.040879,275.028868 C362.915604,272.431384 362.351648,269.647233 362.351648,266.677296 C362.351648,263.736415 362.915604,260.972956 364.040879,258.395723 C365.161319,255.813208 366.691868,253.560881 368.630769,251.636981 C370.567033,249.712642 372.82022,248.189371 375.400879,247.062327 C377.979341,245.936164 380.730989,245.373962 383.666813,245.373962 C386.602637,245.373962 389.396923,245.960377 392.053626,247.132767 C394.706813,248.305597 397.048352,249.924403 399.077802,251.989623 L406.107253,240.258679 C402.984615,237.598239 399.50022,235.558113 395.663297,234.136101 C391.816703,232.711447 387.82022,232 383.666374,232 C380.480879,232 377.411868,232.414717 374.461538,233.24327 C371.508132,234.071384 368.751648,235.23673 366.190769,236.739308 C363.632967,238.241006 361.291429,240.046478 359.166154,242.159686 C357.043956,244.270252 355.229011,246.615472 353.733626,249.196667 C352.232967,251.777421 351.067692,254.539119 350.241319,257.476918 C349.412747,260.417358 349,263.483711 349,266.676415 C349,269.868239 349.412747,272.947358 350.241319,275.918176 C351.067692,278.891635 352.232967,281.66478 353.733626,284.247296 C355.229011,286.82673 357.043956,289.174151 359.166154,291.282956 C361.291868,293.396164 363.632967,295.211321 366.190769,296.724025 C368.751648,298.245094 371.508571,299.417925 374.461538,300.247358 C377.411868,301.076792 380.480879,301.490189 383.666374,301.490189 C387.82022,301.490189 391.816703,300.779182 395.663297,299.35673 C399.50022,297.932516 402.984615,295.89239 406.107253,293.23195 L406.107253,276.873082 L406.107253,263.425157 L393.201319,263.425157 L393.133626,263.352956 L393.133626,263.352956 Z" id="Shape" fill="#DD0031"></path>
        </g>
    </g>
</svg>