<?xml version="1.0" encoding="UTF-8"?>
<svg width="239px" height="227px" viewBox="0 0 239 227" version="1.1" xmlns="http://www.w3.org/2000/svg" xmlns:xlink="http://www.w3.org/1999/xlink">
    <!-- Generator: Sketch 63.1 (92452) - https://sketch.com -->
    <title>icon-pro</title>
    <desc>Created with Sketch.</desc>
    <g id="Page-1" stroke="none" stroke-width="1" fill="none" fill-rule="evenodd">
        <g id="icon-pro" fill="#455C71" fill-rule="nonzero">
            <g id="Group">
                <path d="M21.6783851,115.917877 C22.4259156,115.917877 23.1734461,115.354869 23.1734461,114.416524 L23.1734461,95.6496093 C23.1734461,94.8989327 22.6127982,94.1482561 21.6783851,94.1482561 C20.7439719,94.1482561 20.183324,94.7112636 20.183324,95.6496093 L20.183324,114.604193 C20.3702067,115.354869 20.9308545,115.917877 21.6783851,115.917877 Z" id="Path"></path>
                <path d="M20.3702067,130.180732 C20.3702067,130.931408 20.9308545,131.682085 21.8652677,131.682085 C22.7996808,131.682085 23.3603287,131.119078 23.3603287,130.180732 L23.3603287,123.424643 C23.3603287,122.673966 22.7996808,121.923289 21.8652677,121.923289 C20.9308545,121.923289 20.3702067,122.486297 20.3702067,123.424643 L20.3702067,130.180732 Z" id="Path"></path>
                <path d="M60.1762068,30.5284162 C60.1762068,34.4694683 63.3532115,37.6598437 67.2777467,37.6598437 C71.202282,37.6598437 74.3792867,34.4694683 74.3792867,30.5284162 C74.3792867,26.5873642 71.202282,23.3969888 67.2777467,23.3969888 C63.3532115,23.3969888 60.1762068,26.5873642 60.1762068,30.5284162 L60.1762068,30.5284162 Z M71.5760472,30.5284162 C71.5760472,32.9681151 69.7072209,34.8448066 67.2777467,34.8448066 C64.8482726,34.8448066 62.9794463,32.9681151 62.9794463,30.5284162 C62.9794463,28.0887174 64.8482726,26.2120259 67.2777467,26.2120259 C69.7072209,26.2120259 71.5760472,28.2763865 71.5760472,30.5284162 L71.5760472,30.5284162 Z" id="Shape"></path>
                <path d="M134.742376,210.878464 C131.191606,210.878464 128.201484,213.88117 128.201484,217.446884 C128.201484,221.012598 131.191606,224.015304 134.742376,224.015304 C138.293146,224.015304 141.283268,221.012598 141.283268,217.446884 C141.283268,213.88117 138.293146,210.878464 134.742376,210.878464 Z M134.742376,221.387936 C132.686667,221.387936 131.004724,219.698914 131.004724,217.634553 C131.004724,215.570192 132.686667,213.88117 134.742376,213.88117 C136.798085,213.88117 138.480029,215.570192 138.480029,217.634553 C138.480029,219.698914 136.798085,221.387936 134.742376,221.387936 Z" id="Shape"></path>
                <g id="Path">
                    <path d="M206.131541,214.444178 C206.131541,213.693501 205.570893,212.942824 204.63648,212.942824 L181.276151,212.942824 C180.52862,212.942824 179.78109,213.505832 179.78109,214.444178 C179.78109,215.194854 180.341738,215.945531 181.276151,215.945531 L204.63648,215.945531 C205.570893,215.757862 206.131541,215.194854 206.131541,214.444178 Z"></path>
                    <path d="M219.960855,212.942824 L212.298668,212.942824 C211.551137,212.942824 210.803606,213.505832 210.803606,214.444178 C210.803606,215.194854 211.364254,215.945531 212.298668,215.945531 L219.960855,215.945531 C220.708386,215.945531 221.455916,215.382523 221.455916,214.444178 C221.455916,213.505832 220.895268,212.942824 219.960855,212.942824 Z"></path>
                    <path d="M219.960855,221.012598 L203.702067,221.012598 C202.954536,221.012598 202.207006,221.575605 202.207006,222.513951 C202.207006,223.264627 202.767653,224.015304 203.702067,224.015304 L219.960855,224.015304 C220.708386,224.015304 221.455916,223.452297 221.455916,222.513951 C221.455916,221.575605 220.895268,221.012598 219.960855,221.012598 Z"></path>
                    <path d="M196.600527,221.012598 L191.367813,221.012598 C190.620282,221.012598 189.872752,221.575605 189.872752,222.513951 C189.872752,223.264627 190.4334,224.015304 191.367813,224.015304 L196.600527,224.015304 C197.348057,224.015304 198.095588,223.452297 198.095588,222.513951 C198.095588,221.575605 197.53494,221.012598 196.600527,221.012598 Z"></path>
                    <path d="M58,9.50135315 C58,10.2520297 58.5606479,11.0027063 59.495061,11.0027063 L82.8553898,11.0027063 C83.6029203,11.0027063 84.3504508,10.4396989 84.3504508,9.50135315 C84.3504508,8.75067658 83.7898029,8 82.8553898,8 L59.3081784,8 C58.5606479,8.18766914 58,8.75067658 58,9.50135315 Z"></path>
                    <path d="M44.495061,11.0027063 L52.1572489,11.0027063 C52.9047794,11.0027063 53.6523099,10.4396989 53.6523099,9.50135315 C53.6523099,8.75067658 53.091662,8 52.1572489,8 L44.495061,8 C43.7475305,8 43,8.56300743 43,9.50135315 C43,10.4396989 43.7475305,11.0027063 44.495061,11.0027063 Z"></path>
                    <path d="M44.495061,2.81503716 L60.7538498,2.81503716 C61.5013804,2.81503716 62.2489109,2.25202973 62.2489109,1.31368401 C62.2489109,0.37533829 61.5013804,2.22044605e-16 60.7538498,2.22044605e-16 L44.495061,2.22044605e-16 C43.7475305,2.22044605e-16 43,0.56300743 43,1.50135315 C43,2.43969888 43.7475305,2.81503716 44.495061,2.81503716 L44.495061,2.81503716 Z"></path>
                    <path d="M67.495061,2.81503716 L72.7277747,2.81503716 C73.4753052,2.81503716 74.2228357,2.25202973 74.2228357,1.31368401 C74.2228357,0.37533829 73.4753052,2.22044605e-16 72.7277747,2.22044605e-16 L67.495061,2.22044605e-16 C66.7475305,2.22044605e-16 66,0.56300743 66,1.50135315 C66,2.43969888 66.7475305,2.81503716 67.495061,2.81503716 Z"></path>
                    <path d="M41.1141786,161.146141 L17.5669672,161.146141 C16.8194367,161.146141 16.0719062,161.709148 16.0719062,162.647494 C16.0719062,163.39817 16.6325541,164.148847 17.5669672,164.148847 L41.1141786,164.148847 C41.8617091,164.148847 42.6092396,163.58584 42.6092396,162.647494 C42.422357,161.896817 41.8617091,161.146141 41.1141786,161.146141 Z"></path>
                    <path d="M9.90477938,161.146141 L2.42947419,161.146141 C1.68194367,161.146141 0.93441315,161.709148 0.93441315,162.647494 C0.93441315,163.39817 1.49506104,164.148847 2.42947419,164.148847 L10.091662,164.148847 C10.8391925,164.148847 11.5867231,163.58584 11.5867231,162.647494 C11.3998404,161.896817 10.6523099,161.146141 9.90477938,161.146141 Z"></path>
                    <path d="M2.42947419,155.891405 L18.688263,155.891405 C19.4357935,155.891405 20.183324,155.328397 20.183324,154.390051 C20.183324,153.639375 19.6226761,152.888698 18.688263,152.888698 L2.42947419,152.888698 C1.68194367,152.888698 0.93441315,153.451706 0.93441315,154.390051 C0.93441315,155.328397 1.49506104,155.891405 2.42947419,155.891405 Z"></path>
                    <path d="M31.0225166,155.891405 C31.7700471,155.891405 32.5175776,155.328397 32.5175776,154.390051 C32.5175776,153.639375 31.9569297,152.888698 31.0225166,152.888698 L25.7898029,152.888698 C25.0422724,152.888698 24.2947419,153.451706 24.2947419,154.390051 C24.2947419,155.140728 24.8553898,155.891405 25.7898029,155.891405 L31.0225166,155.891405 Z"></path>
                </g>
                <g transform="translate(6.000000, 7.000000)">
                    <path d="M128.742376,6.6381933 C128.929259,6.8258624 129.303024,7.0135315 129.676789,7.0135315 C130.050555,7.0135315 130.42432,6.8258624 130.611202,6.6381933 C131.17185,6.0751858 131.17185,5.1368401 130.611202,4.5738327 L127.434198,1.38345721 C126.87355,0.82044978 125.939137,0.82044978 125.378489,1.38345721 C124.817841,1.94646465 124.817841,2.88481037 125.378489,3.4478178 L128.742376,6.6381933 Z" id="Path"></path>
                    <path d="M138.647156,16.772327 C138.834038,16.9599962 139.207803,17.1476653 139.581569,17.1476653 C139.955334,17.1476653 140.329099,16.9599962 140.515982,16.772327 C141.07663,16.2093196 141.07663,15.2709739 140.515982,14.7079665 L137.338977,11.517591 C136.778329,10.9545836 135.843916,10.9545836 135.283268,11.517591 C134.72262,12.0805984 134.72262,13.0189442 135.283268,13.5819516 L138.647156,16.772327 Z" id="Path"></path>
                    <path d="M126.686667,17.1476653 C127.060432,17.1476653 127.434198,16.9599962 127.62108,16.772327 L130.798085,13.5819516 C131.358733,13.0189442 131.358733,12.0805984 130.798085,11.517591 C130.237437,10.9545836 129.303024,10.9545836 128.742376,11.517591 L125.565371,14.7079665 C125.004724,15.2709739 125.004724,16.2093196 125.565371,16.772327 C125.939137,16.9599962 126.312902,17.1476653 126.686667,17.1476653 L126.686667,17.1476653 Z" id="Path"></path>
                    <path d="M136.591447,7.0135315 C136.965212,7.0135315 137.338977,6.8258624 137.52586,6.6381933 L140.702864,3.4478178 C141.263512,2.88481037 141.263512,1.94646465 140.702864,1.38345721 C140.142217,0.82044978 139.207803,0.82044978 138.647156,1.38345721 L135.470151,4.5738327 C134.909503,5.1368401 134.909503,6.0751858 135.470151,6.6381933 C135.843916,7.0135315 136.217681,7.0135315 136.591447,7.0135315 L136.591447,7.0135315 Z" id="Path"></path>
                    <path d="M193.216883,69.3196874 C193.403766,69.5073566 193.777531,69.6950257 194.151297,69.6950257 C194.525062,69.6950257 194.898827,69.5073566 195.08571,69.3196874 C195.646358,68.75668 195.646358,67.8183343 195.08571,67.2553269 L191.908705,64.0649514 C191.348057,63.501944 190.413644,63.501944 189.852996,64.0649514 C189.292348,64.6279588 189.292348,65.5663046 189.852996,66.129312 L193.216883,69.3196874 Z" id="Path"></path>
                    <path d="M200.131541,76.2634458 L203.308545,79.4538212 C203.495428,79.6414904 203.869193,79.8291595 204.242959,79.8291595 C204.616724,79.8291595 204.990489,79.6414904 205.177372,79.4538212 C205.73802,78.8908138 205.73802,77.9524681 205.177372,77.3894606 L202.000367,74.1990852 C201.439719,73.6360778 200.505306,73.6360778 199.944658,74.1990852 C199.570893,74.7620926 199.570893,75.7004383 200.131541,76.2634458 Z" id="Path"></path>
                    <path d="M190.226761,79.2661521 C190.413644,79.4538212 190.787409,79.6414904 191.161174,79.6414904 C191.53494,79.6414904 191.908705,79.4538212 192.095588,79.2661521 L195.272592,76.0757766 C195.83324,75.5127692 195.83324,74.5744235 195.272592,74.011416 C194.711944,73.4484086 193.777531,73.4484086 193.216883,74.011416 L190.039879,77.2017915 C189.666113,77.7647989 189.666113,78.7031447 190.226761,79.2661521 Z" id="Path"></path>
                    <path d="M201.252837,69.6950257 C201.626602,69.6950257 202.000367,69.5073566 202.18725,69.3196874 L205.364254,66.129312 C205.924902,65.5663046 205.924902,64.6279588 205.364254,64.0649514 C204.803606,63.501944 203.869193,63.501944 203.308545,64.0649514 L200.131541,67.2553269 C199.570893,67.8183343 199.570893,68.75668 200.131541,69.3196874 C200.505306,69.5073566 200.879071,69.6950257 201.252837,69.6950257 L201.252837,69.6950257 Z" id="Path"></path>
                    <path d="M43.1501317,204.253802 C42.5894838,203.690795 41.6550706,203.690795 41.0944227,204.253802 C40.5337748,204.81681 40.5337748,205.755155 41.0944227,206.318163 L44.2714274,209.508538 C44.4583101,209.696207 44.8320753,209.883877 45.2058406,209.883877 C45.5796058,209.883877 45.9533711,209.696207 46.1402537,209.508538 C46.7009016,208.945531 46.7009016,208.007185 46.1402537,207.444178 L43.1501317,204.253802 Z" id="Path"></path>
                    <path d="M53.2417937,214.387936 C52.6811458,213.824929 51.7467326,213.824929 51.1860847,214.387936 C50.6254368,214.950943 50.6254368,215.889289 51.1860847,216.452297 L54.3630894,219.642672 C54.5499721,219.830341 54.9237373,220.01801 55.2975026,220.01801 C55.6712679,220.01801 56.0450331,219.830341 56.2319157,219.642672 C56.7925636,219.079665 56.7925636,218.141319 56.2319157,217.578311 L53.2417937,214.387936 Z" id="Path"></path>
                    <path d="M44.2714274,214.387936 L41.0944227,217.578311 C40.5337748,218.141319 40.5337748,219.079665 41.0944227,219.642672 C41.2813054,219.830341 41.6550706,220.01801 42.0288359,220.01801 C42.4026011,220.01801 42.7763664,219.830341 42.963249,219.642672 L46.1402537,216.452297 C46.7009016,215.889289 46.7009016,214.950943 46.1402537,214.387936 C45.7664885,213.824929 44.8320753,213.824929 44.2714274,214.387936 Z" id="Path"></path>
                    <path d="M54.3630894,204.253802 L51.1860847,207.444178 C50.6254368,208.007185 50.6254368,208.945531 51.1860847,209.508538 C51.3729674,209.696207 51.7467326,209.883877 52.1204979,209.883877 C52.4942631,209.883877 52.8680284,209.696207 53.054911,209.508538 L56.2319157,206.318163 C56.7925636,205.755155 56.7925636,204.81681 56.2319157,204.253802 C55.6712679,203.690795 54.9237373,203.690795 54.3630894,204.253802 Z" id="Path"></path>
                    <path d="M36.6092396,62.18826 C46.514019,56.3705165 50.8123195,44.3596913 46.8877842,33.4748809 C42.4026011,21.0887174 28.7601692,14.5202973 16.4259156,19.0243568 C13.4357935,20.1503716 10.8194367,21.8393939 8.5768451,23.7160854 C5.0260752,26.9064608 2.59660097,31.035182 1.28842256,35.7269106 C0.16712679,40.4186392 0.35400942,45.298037 1.84907045,49.8020964 C5.7736057,60.8745759 17.3603287,67.442996 28.7601692,65.1909663 C29.320817,65.3786354 30.8158781,66.129312 31.7502912,66.6923194 C34.1797654,68.1936726 35.4879438,68.75668 36.422357,68.75668 C36.6092396,68.75668 36.7961222,68.75668 36.9830049,68.5690109 C37.3567701,68.3813417 37.7305354,68.1936726 37.7305354,67.8183343 C37.917418,67.442996 37.917418,67.0676577 37.7305354,66.6923194 C37.3567701,65.1909663 36.6092396,63.1266057 36.6092396,62.18826 Z M34.366648,64.815628 C33.9928828,64.6279588 33.6191175,64.4402897 33.4322349,64.2526205 C31.0027607,62.9389365 29.8814649,62.18826 29.1339344,62.18826 L28.7601692,62.18826 C18.6685071,64.2526205 8.2030799,58.4348771 4.8391925,48.6760816 C3.34413149,44.7350295 3.15724886,40.4186392 4.2785446,36.289918 C5.3998404,32.1611969 7.4555493,28.5954831 10.6325541,25.780446 C12.688263,23.9037545 14.9308545,22.5900705 17.5472114,21.6517248 C28.3864039,17.7106728 40.5337748,23.3407471 44.4583101,34.4132266 C48.00908,44.1720221 43.8976622,54.8691633 35.1141786,59.9362302 C34.1797654,60.3115685 33.0584696,61.0622451 34.366648,64.815628 Z" id="Shape"></path>
                </g>
                <path d="M45.0881034,43.5013532 C45.0881034,42.7506766 44.5274555,42 43.5930424,42 L16.495061,42 C15.7475305,42 15,42.5630074 15,43.5013532 C15,44.2520297 15.5606479,45.0027063 16.495061,45.0027063 L43.5930424,45.0027063 C44.3405729,45.0027063 45.0881034,44.4396989 45.0881034,43.5013532 Z" id="Path"></path>
                <path d="M38.8751456,52 L21.495061,52 C20.7475305,52 20,52.5630074 20,53.5013532 C20,54.4396989 20.5606479,55.0027063 21.495061,55.0027063 L38.8751456,55.0027063 C39.6226761,55.0027063 40.3702067,54.4396989 40.3702067,53.5013532 C40.3702067,52.5630074 39.6226761,52 38.8751456,52 Z" id="Path"></path>
                <path d="M214.354376,106.346751 C213.980611,106.53442 213.606846,106.909758 213.419963,107.285096 C213.233081,107.848104 213.419963,108.223442 213.793729,108.59878 L218.278912,113.10284 L217.905146,118.357576 L212.672433,118.732914 L208.18725,114.228855 C207.813484,113.853516 207.439719,113.665847 206.879071,113.853516 C206.505306,114.041185 205.944658,114.228855 205.944658,114.791862 C203.888949,120.046598 205.197128,126.23968 209.121663,130.180732 C210.056076,131.119078 211.177372,131.869754 212.298668,132.620431 C213.606846,153.264037 213.980611,174.845988 213.233081,196.803278 C213.233081,200.556661 216.223203,203.747036 220.147738,203.747036 C223.885391,203.747036 227.062395,200.74433 227.062395,196.803278 C226.314865,174.845988 226.68863,153.264037 227.996808,132.432762 L227.996808,131.869754 C228.557456,131.494416 229.118104,130.931408 229.678752,130.368401 C235.285231,124.738327 235.285231,115.542539 229.678752,109.912464 C225.567334,105.783743 219.58709,104.470059 214.354376,106.346751 L214.354376,106.346751 Z M224.072273,196.615609 C224.072273,198.867639 222.203447,200.74433 219.960855,200.74433 C217.718264,200.74433 215.849437,198.867639 215.849437,196.803278 C216.596968,175.408996 216.223203,154.202382 214.915024,133.934115 C216.223203,134.309453 217.718264,134.497122 219.026442,134.497122 C220.895268,134.497122 222.950977,134.121784 224.632921,133.371107 C223.698508,153.639375 223.324743,175.033657 224.072273,196.615609 L224.072273,196.615609 Z M227.436161,128.116371 C222.950977,132.620431 215.662555,132.620431 211.177372,128.116371 C208.561015,125.489003 207.252837,121.547951 208.000367,117.982237 L211.364254,121.360282 C211.73802,121.73562 212.111785,121.73562 212.48555,121.73562 L219.400207,121.172613 C220.147738,121.172613 220.708386,120.609605 220.708386,119.858929 L221.269034,112.915171 C221.269034,112.539832 221.082151,112.164494 220.895268,111.789156 L217.718264,108.59878 C221.269034,108.035773 224.819804,109.349457 227.436161,111.789156 C231.921344,116.293215 231.921344,123.612312 227.436161,128.116371 L227.436161,128.116371 Z" id="Shape"></path>
                <path d="M234.350818,16.6408996 L181.836799,16.6408996 C179.594207,16.6408996 177.912264,18.3299219 177.912264,20.5819516 L177.912264,49.2953307 C177.912264,51.5473604 179.594207,53.2363827 181.836799,53.2363827 L234.350818,53.2363827 C236.593409,53.2363827 238.275353,51.5473604 238.275353,49.2953307 L238.275353,20.5819516 C238.275353,18.517591 236.593409,16.6408996 234.350818,16.6408996 Z M235.472114,49.2953307 C235.472114,49.8583381 234.911466,50.4213455 234.350818,50.4213455 L181.836799,50.4213455 C181.276151,50.4213455 180.715503,49.8583381 180.715503,49.2953307 L180.715503,20.5819516 C180.715503,20.0189442 181.276151,19.4559367 181.836799,19.4559367 L234.350818,19.4559367 C234.911466,19.4559367 235.472114,20.0189442 235.472114,20.5819516 L235.472114,49.2953307 Z" id="Shape"></path>
                <path d="M219.400207,24.7106728 C213.793729,24.7106728 209.308545,29.2147322 209.308545,34.8448066 C209.308545,40.4748809 213.793729,44.9789403 219.400207,44.9789403 C225.006686,44.9789403 229.491869,40.4748809 229.491869,34.8448066 C229.491869,29.4024014 224.819804,24.7106728 219.400207,24.7106728 L219.400207,24.7106728 Z M219.400207,42.3515723 C215.28879,42.3515723 212.111785,38.9735277 212.111785,35.0324757 C212.111785,31.0914237 215.475672,27.7133791 219.400207,27.7133791 C223.511625,27.7133791 226.68863,31.0914237 226.68863,35.0324757 C226.68863,38.9735277 223.324743,42.3515723 219.400207,42.3515723 Z" id="Shape"></path>
                <path d="M200.711944,29.2147322 L186.88263,29.2147322 C186.135099,29.2147322 185.387569,29.7777397 185.387569,30.7160854 C185.387569,31.466762 185.948217,32.2174385 186.88263,32.2174385 L200.711944,32.2174385 C201.459475,32.2174385 202.207006,31.6544311 202.207006,30.7160854 C202.020123,29.7777397 201.459475,29.2147322 200.711944,29.2147322 Z" id="Path"></path>
                <path d="M200.711944,37.8475129 L186.88263,37.8475129 C186.135099,37.8475129 185.387569,38.4105203 185.387569,39.348866 C185.387569,40.0995426 185.948217,40.8502192 186.88263,40.8502192 L200.711944,40.8502192 C201.459475,40.8502192 202.207006,40.2872117 202.207006,39.348866 C202.020123,38.5981894 201.459475,37.8475129 200.711944,37.8475129 Z" id="Path"></path>
                <path d="M188.190808,14.3888698 L195.852996,14.3888698 C196.600527,14.3888698 197.348057,13.8258624 197.348057,12.8875167 C197.348057,11.949171 196.787409,11.3861635 195.852996,11.3861635 L188.190808,11.3861635 C187.443278,11.3861635 186.695747,11.949171 186.695747,12.8875167 C186.695747,13.8258624 187.443278,14.3888698 188.190808,14.3888698 Z" id="Path"></path>
            </g>
            <g id="Group" transform="translate(76.000000, 62.000000)">
                <polygon id="Path" points="64.3043478 45.3435115 57.4956522 43.8320611 62.7913043 51.389313 62.7913043 74.8167939 80.9478261 59.7022901 80.9478261 34.0076336 72.626087 37.0305344"></polygon>
                <polygon id="Path" transform="translate(17.021739, 54.412214) scale(-1, 1) translate(-17.021739, -54.412214) " points="12.1043478 45.3435115 5.2956522 43.8320611 10.5913043 51.389313 10.5913043 74.8167939 28.7478261 59.7022901 28.7478261 34.0076336 20.426087 37.0305344"></polygon>
                <polygon id="Path" points="25.7217391 78.6405041 25.7217391 75.6177068 36.0477501 82.9941337 36.0462043 79.9700252 25.7217391 72.5947025 25.7217391 69.5719052 36.0477501 76.9483321 36.0462043 73.9242237 25.7217391 66.548901 25.7217391 52.9007634 31.773913 43.8320611 35.5565217 46.0992366 50.6869565 46.0992366 54.4695652 43.8320611 60.5217391 52.9007634 60.5217391 66.3917536 49.9772885 73.9242237 49.9757428 76.9483321 60.5217391 69.4147578 60.5217391 72.4375551 49.9772885 79.9700252 49.9757428 82.9941337 60.5217391 75.4605593 60.5217391 78.4833566 49.9772885 86.0158267 49.9757428 89.0399352 60.5217391 81.5063608 60.5217391 86.9083969 55.9826087 93.7099237 50.6869565 99 35.5565217 99 30.2608696 93.7099237 25.7217391 86.9083969 25.7217391 81.6635083 36.0477501 89.0399352 36.0462043 86.0158267"></polygon>
                <polygon id="Path" points="62.7913043 89.1755725 72.626087 79.351145 72.626087 69.5267176 62.7913043 77.8396947"></polygon>
                <polygon id="Path" transform="translate(18.534783, 79.351145) scale(-1, 1) translate(-18.534783, -79.351145) " points="13.6173913 89.1755725 23.4521739 79.351145 23.4521739 69.5267176 13.6173913 77.8396947"></polygon>
                <path d="M38.5826087,-3.55271368e-15 L41.6086957,-3.55271368e-15 L41.6086957,43.0763359 L37.0695652,43.0763359 L27.2347826,14.3587786 L33.2869565,-3.55271368e-15 L35.5565217,-3.55271368e-15 L35.5565217,17.3816794 L38.5826087,18.8931298 L38.5826087,-3.55271368e-15 Z M44.6347826,-1.19949929e-24 L47.6608696,-1.19949929e-24 L47.6608696,18.8931298 L50.6869565,17.3816794 L50.6869565,-1.19949929e-24 L52.9565217,-1.19949929e-24 L59.0086957,14.3587786 L49.9304348,43.0763359 L44.6347826,43.0763359 L44.6347826,-1.19949929e-24 Z" id="Shape"></path>
                <g id="Path">
                    <polygon points="37.0695652 43.0763359 4.53913043 30.9847328 0 12.0916031 27.9913043 14.3587786 37.826087 43.0763359"></polygon>
                    <polygon transform="translate(68.086956, 27.583969) scale(-1, 1) translate(-68.086956, -27.583969) " points="86.2434783 43.0763359 53.7130435 30.9847328 49.173913 12.0916031 77.9217391 14.3587786 87 43.0763359"></polygon>
                    <polygon points="60.5217391 12.0916031 76.4086957 10.5801527 65.8173913 1.77635684e-15 55.226087 1.77635684e-15"></polygon>
                    <polygon transform="translate(20.426087, 6.045802) scale(-1, 1) translate(-20.426087, -6.045802) " points="15.1304348 12.0916031 31.0173913 10.5801527 20.426087 1.77635684e-15 9.8347826 1.77635684e-15"></polygon>
                </g>
            </g>
        </g>
    </g>
</svg>