<svg height="227" viewBox="0 0 239 227" width="239" xmlns="http://www.w3.org/2000/svg"><g fill="#455c71"><path d="m21.6783851 115.917877c.7475305 0 1.495061-.563008 1.495061-1.501353v-18.7669147c0-.7506766-.5606479-1.5013532-1.495061-1.5013532-.9344132 0-1.4950611.5630075-1.4950611 1.5013532v18.9545837c.1868827.750676.7475305 1.313684 1.4950611 1.313684z"/><path d="m20.3702067 130.180732c0 .750676.5606478 1.501353 1.495061 1.501353.9344131 0 1.495061-.563007 1.495061-1.501353v-6.756089c0-.750677-.5606479-1.501354-1.495061-1.501354-.9344132 0-1.495061.563008-1.495061 1.501354z"/><path d="m60.1762068 30.5284162c0 3.9410521 3.1770047 7.1314275 7.1015399 7.1314275 3.9245353 0 7.10154-3.1903754 7.10154-7.1314275 0-3.941052-3.1770047-7.1314274-7.10154-7.1314274-3.9245352 0-7.1015399 3.1903754-7.1015399 7.1314274zm11.3998404 0c0 2.4396989-1.8688263 4.3163904-4.2983005 4.3163904-2.4294741 0-4.2983004-1.8766915-4.2983004-4.3163904 0-2.4396988 1.8688263-4.3163903 4.2983004-4.3163903 2.4294742 0 4.2983005 2.0643606 4.2983005 4.3163903z"/><path d="m134.742376 210.878464c-3.55077 0-6.540892 3.002706-6.540892 6.56842s2.990122 6.56842 6.540892 6.56842 6.540892-3.002706 6.540892-6.56842-2.990122-6.56842-6.540892-6.56842zm0 10.509472c-2.055709 0-3.737652-1.689022-3.737652-3.753383s1.681943-3.753383 3.737652-3.753383 3.737653 1.689022 3.737653 3.753383-1.681944 3.753383-3.737653 3.753383z"/><path d="m206.131541 214.444178c0-.750677-.560648-1.501354-1.495061-1.501354h-23.360329c-.747531 0-1.495061.563008-1.495061 1.501354 0 .750676.560648 1.501353 1.495061 1.501353h23.360329c.934413-.187669 1.495061-.750677 1.495061-1.501353z"/><path d="m219.960855 212.942824h-7.662187c-.747531 0-1.495062.563008-1.495062 1.501354 0 .750676.560648 1.501353 1.495062 1.501353h7.662187c.747531 0 1.495061-.563008 1.495061-1.501353 0-.938346-.560648-1.501354-1.495061-1.501354z"/><path d="m219.960855 221.012598h-16.258788c-.747531 0-1.495061.563007-1.495061 1.501353 0 .750676.560647 1.501353 1.495061 1.501353h16.258788c.747531 0 1.495061-.563007 1.495061-1.501353s-.560648-1.501353-1.495061-1.501353z"/><path d="m196.600527 221.012598h-5.232714c-.747531 0-1.495061.563007-1.495061 1.501353 0 .750676.560648 1.501353 1.495061 1.501353h5.232714c.74753 0 1.495061-.563007 1.495061-1.501353s-.560648-1.501353-1.495061-1.501353z"/><path d="m58 9.50135315c0 .75067655.5606479 1.50135315 1.495061 1.50135315h23.3603288c.7475305 0 1.495061-.5630074 1.495061-1.50135315 0-.75067657-.5606479-1.50135315-1.495061-1.50135315h-23.5472114c-.7475305.18766914-1.3081784.75067658-1.3081784 1.50135315z"/><path d="m44.495061 11.0027063h7.6621879c.7475305 0 1.495061-.5630074 1.495061-1.50135315 0-.75067657-.5606479-1.50135315-1.495061-1.50135315h-7.6621879c-.7475305 0-1.495061.56300743-1.495061 1.50135315 0 .93834575.7475305 1.50135315 1.495061 1.50135315z"/><path d="m44.495061 2.81503716h16.2587888c.7475306 0 1.4950611-.56300743 1.4950611-1.50135315s-.7475305-1.31368401-1.4950611-1.31368401h-16.2587888c-.7475305 0-1.495061.56300743-1.495061 1.50135315 0 .93834573.7475305 1.31368401 1.495061 1.31368401z"/><path d="m67.495061 2.81503716h5.2327137c.7475305 0 1.495061-.56300743 1.495061-1.50135315s-.7475305-1.31368401-1.495061-1.31368401h-5.2327137c-.7475305 0-1.495061.56300743-1.495061 1.50135315 0 .93834573.7475305 1.31368401 1.495061 1.31368401z"/><path d="m41.1141786 161.146141h-23.5472114c-.7475305 0-1.495061.563007-1.495061 1.501353 0 .750676.5606479 1.501353 1.495061 1.501353h23.5472114c.7475305 0 1.495061-.563007 1.495061-1.501353-.1868826-.750677-.7475305-1.501353-1.495061-1.501353z"/><path d="m9.90477938 161.146141h-7.47530519c-.74753052 0-1.49506104.563007-1.49506104 1.501353 0 .750676.56064789 1.501353 1.49506104 1.501353h7.66218781c.7475305 0 1.4950611-.563007 1.4950611-1.501353-.1868827-.750677-.9344132-1.501353-1.68194372-1.501353z"/><path d="m2.42947419 155.891405h16.25878881c.7475305 0 1.495061-.563008 1.495061-1.501354 0-.750676-.5606479-1.501353-1.495061-1.501353h-16.25878881c-.74753052 0-1.49506104.563008-1.49506104 1.501353 0 .938346.56064789 1.501354 1.49506104 1.501354z"/><path d="m31.0225166 155.891405c.7475305 0 1.495061-.563008 1.495061-1.501354 0-.750676-.5606479-1.501353-1.495061-1.501353h-5.2327137c-.7475305 0-1.495061.563008-1.495061 1.501353 0 .750677.5606479 1.501354 1.495061 1.501354z"/><g transform="translate(6 7)"><path d="m128.742376 6.6381933c.186883.1876691.560648.3753382.934413.3753382.373766 0 .747531-.1876691.934413-.3753382.560648-.5630075.560648-1.5013532 0-2.0643606l-3.177004-3.19037549c-.560648-.56300743-1.495061-.56300743-2.055709 0-.560648.56300744-.560648 1.50135316 0 2.06436059z"/><path d="m138.647156 16.772327c.186882.1876692.560647.3753383.934413.3753383.373765 0 .74753-.1876691.934413-.3753383.560648-.5630074.560648-1.5013531 0-2.0643605l-3.177005-3.1903755c-.560648-.5630074-1.495061-.5630074-2.055709 0s-.560648 1.5013532 0 2.0643606z"/><path d="m126.686667 17.1476653c.373765 0 .747531-.1876691.934413-.3753383l3.177005-3.1903754c.560648-.5630074.560648-1.5013532 0-2.0643606s-1.495061-.5630074-2.055709 0l-3.177005 3.1903755c-.560647.5630074-.560647 1.5013531 0 2.0643605.373766.1876692.747531.3753383 1.121296.3753383z"/><path d="m136.591447 7.0135315c.373765 0 .74753-.1876691.934413-.3753382l3.177004-3.1903755c.560648-.56300743.560648-1.50135315 0-2.06436059-.560647-.56300743-1.495061-.56300743-2.055708 0l-3.177005 3.19037549c-.560648.5630074-.560648 1.5013531 0 2.0643606.373765.3753382.74753.3753382 1.121296.3753382z"/><path d="m193.216883 69.3196874c.186883.1876692.560648.3753383.934414.3753383.373765 0 .74753-.1876691.934413-.3753383.560648-.5630074.560648-1.5013531 0-2.0643605l-3.177005-3.1903755c-.560648-.5630074-1.495061-.5630074-2.055709 0s-.560648 1.5013532 0 2.0643606z"/><path d="m200.131541 76.2634458 3.177004 3.1903754c.186883.1876692.560648.3753383.934414.3753383.373765 0 .74753-.1876691.934413-.3753383.560648-.5630074.560648-1.5013531 0-2.0643606l-3.177005-3.1903754c-.560648-.5630074-1.495061-.5630074-2.055709 0-.373765.5630074-.373765 1.5013531.186883 2.0643606z"/><path d="m190.226761 79.2661521c.186883.1876691.560648.3753383.934413.3753383.373766 0 .747531-.1876692.934414-.3753383l3.177004-3.1903755c.560648-.5630074.560648-1.5013531 0-2.0643606-.560648-.5630074-1.495061-.5630074-2.055709 0l-3.177004 3.1903755c-.373766.5630074-.373766 1.5013532.186882 2.0643606z"/><path d="m201.252837 69.6950257c.373765 0 .74753-.1876691.934413-.3753383l3.177004-3.1903754c.560648-.5630074.560648-1.5013532 0-2.0643606s-1.495061-.5630074-2.055709 0l-3.177004 3.1903755c-.560648.5630074-.560648 1.5013531 0 2.0643605.373765.1876692.74753.3753383 1.121296.3753383z"/><path d="m43.1501317 204.253802c-.5606479-.563007-1.4950611-.563007-2.055709 0-.5606479.563008-.5606479 1.501353 0 2.064361l3.1770047 3.190375c.1868827.187669.5606479.375339.9344132.375339.3737652 0 .7475305-.18767.9344131-.375339.5606479-.563007.5606479-1.501353 0-2.06436z"/><path d="m53.2417937 214.387936c-.5606479-.563007-1.4950611-.563007-2.055709 0s-.5606479 1.501353 0 2.064361l3.1770047 3.190375c.1868827.187669.5606479.375338.9344132.375338s.7475305-.187669.9344131-.375338c.5606479-.563007.5606479-1.501353 0-2.064361z"/><path d="m44.2714274 214.387936-3.1770047 3.190375c-.5606479.563008-.5606479 1.501354 0 2.064361.1868827.187669.5606479.375338.9344132.375338.3737652 0 .7475305-.187669.9344131-.375338l3.1770047-3.190375c.5606479-.563008.5606479-1.501354 0-2.064361-.3737652-.563007-1.3081784-.563007-1.8688263 0z"/><path d="m54.3630894 204.253802-3.1770047 3.190376c-.5606479.563007-.5606479 1.501353 0 2.06436.1868827.187669.5606479.375339.9344132.375339.3737652 0 .7475305-.18767.9344131-.375339l3.1770047-3.190375c.5606479-.563008.5606479-1.501353 0-2.064361-.5606478-.563007-1.3081784-.563007-1.8688263 0z"/><path d="m36.6092396 62.18826c9.9047794-5.8177435 14.2030799-17.8285687 10.2785446-28.7133791-4.4851831-12.3861635-18.127615-18.9545836-30.4618686-14.4505241-2.9901221 1.1260148-5.6064789 2.8150371-7.8490705 4.6917286-3.5507699 3.1903754-5.98024413 7.3190966-7.28842254 12.0108252-1.12129577 4.6917286-.93441314 9.5711264.56064789 14.0751858 3.92453525 11.0724795 15.51125825 17.6408996 26.91109875 15.3888699.5606478.1876691 2.0557089.9383457 2.990122 1.5013531 2.4294742 1.5013532 3.7376526 2.0643606 4.6720658 2.0643606.1868826 0 .3737652 0 .5606479-.1876691.3737652-.1876692.7475305-.3753383.7475305-.7506766.1868826-.3753383.1868826-.7506766 0-1.1260149-.3737653-1.5013531-1.1212958-3.5657137-1.1212958-4.5040594zm-2.2425916 2.627368c-.3737652-.1876692-.7475305-.3753383-.9344131-.5630075-2.4294742-1.313684-3.55077-2.0643605-4.2983005-2.0643605h-.3737652c-10.0916621 2.0643605-20.5570893-3.7533829-23.9209767-13.5121784-1.49506101-3.9410521-1.68194364-8.2574424-.5606479-12.3861636 1.1212958-4.1287211 3.1770047-7.6944349 6.3540095-10.509472 2.0557089-1.8766915 4.2983004-3.1903755 6.9146573-4.1287212 10.8391925-3.941052 22.9865634 1.6890223 26.9110987 12.7615018 3.5507699 9.7587955-.5606479 20.4559367-9.3441315 25.5230036-.9344132.3753383-2.055709 1.1260149-.7475306 4.8793978z"/></g><path d="m45.0881034 43.5013532c0-.7506766-.5606479-1.5013532-1.495061-1.5013532h-27.0979814c-.7475305 0-1.495061.5630074-1.495061 1.5013532 0 .7506765.5606479 1.5013531 1.495061 1.5013531h27.0979814c.7475305 0 1.495061-.5630074 1.495061-1.5013531z"/><path d="m38.8751456 52h-17.3800846c-.7475305 0-1.495061.5630074-1.495061 1.5013532 0 .9383457.5606479 1.5013531 1.495061 1.5013531h17.3800846c.7475305 0 1.4950611-.5630074 1.4950611-1.5013531 0-.9383458-.7475306-1.5013532-1.4950611-1.5013532z"/><path d="m214.354376 106.346751c-.373765.187669-.74753.563007-.934413.938345-.186882.563008 0 .938346.373766 1.313684l4.485183 4.50406-.373766 5.254736-5.232713.375338-4.485183-4.504059c-.373766-.375339-.747531-.563008-1.308179-.375339-.373765.187669-.934413.375339-.934413.938346-2.055709 5.254736-.74753 11.447818 3.177005 15.38887.934413.938346 2.055709 1.689022 3.177005 2.439699 1.308178 20.643606 1.681943 42.225557.934413 64.182847 0 3.753383 2.990122 6.943758 6.914657 6.943758 3.737653 0 6.914657-3.002706 6.914657-6.943758-.74753-21.95729-.373765-43.539241.934413-64.370516v-.563008c.560648-.375338 1.121296-.938346 1.681944-1.501353 5.606479-5.630074 5.606479-14.825862 0-20.455937-4.111418-4.128721-10.091662-5.442405-15.324376-3.565713zm9.717897 90.268858c0 2.25203-1.868826 4.128721-4.111418 4.128721-2.242591 0-4.111418-1.876691-4.111418-3.941052.747531-21.394282.373766-42.600896-.934413-62.869163 1.308179.375338 2.80324.563007 4.111418.563007 1.868826 0 3.924535-.375338 5.606479-1.126015-.934413 20.268268-1.308178 41.66255-.560648 63.244502zm3.363888-68.499238c-4.485184 4.50406-11.773606 4.50406-16.258789 0-2.616357-2.627368-3.924535-6.56842-3.177005-10.134134l3.363887 3.378045c.373766.375338.747531.375338 1.121296.375338l6.914657-.563007c.747531 0 1.308179-.563008 1.308179-1.313684l.560648-6.943758c0-.375339-.186883-.750677-.373766-1.126015l-3.177004-3.190376c3.55077-.563007 7.10154.750677 9.717897 3.190376 4.485183 4.504059 4.485183 11.823156 0 16.327215z"/><path d="m234.350818 16.6408996h-52.514019c-2.242592 0-3.924535 1.6890223-3.924535 3.941052v28.7133791c0 2.2520297 1.681943 3.941052 3.924535 3.941052h52.514019c2.242591 0 3.924535-1.6890223 3.924535-3.941052v-28.7133791c0-2.0643606-1.681944-3.941052-3.924535-3.941052zm1.121296 32.6544311c0 .5630074-.560648 1.1260148-1.121296 1.1260148h-52.514019c-.560648 0-1.121296-.5630074-1.121296-1.1260148v-28.7133791c0-.5630074.560648-1.1260149 1.121296-1.1260149h52.514019c.560648 0 1.121296.5630075 1.121296 1.1260149z"/><path d="m219.400207 24.7106728c-5.606478 0-10.091662 4.5040594-10.091662 10.1341338 0 5.6300743 4.485184 10.1341337 10.091662 10.1341337 5.606479 0 10.091662-4.5040594 10.091662-10.1341337 0-5.4424052-4.672065-10.1341338-10.091662-10.1341338zm0 17.6408995c-4.111417 0-7.288422-3.3780446-7.288422-7.3190966s3.363887-7.3190966 7.288422-7.3190966c4.111418 0 7.288423 3.3780446 7.288423 7.3190966s-3.363887 7.3190966-7.288423 7.3190966z"/><path d="m200.711944 29.2147322h-13.829314c-.747531 0-1.495061.5630075-1.495061 1.5013532 0 .7506766.560648 1.5013531 1.495061 1.5013531h13.829314c.747531 0 1.495062-.5630074 1.495062-1.5013531-.186883-.9383457-.747531-1.5013532-1.495062-1.5013532z"/><path d="m200.711944 37.8475129h-13.829314c-.747531 0-1.495061.5630074-1.495061 1.5013531 0 .7506766.560648 1.5013532 1.495061 1.5013532h13.829314c.747531 0 1.495062-.5630075 1.495062-1.5013532-.186883-.7506766-.747531-1.5013531-1.495062-1.5013531z"/><path d="m188.190808 14.3888698h7.662188c.747531 0 1.495061-.5630074 1.495061-1.5013531s-.560648-1.5013532-1.495061-1.5013532h-7.662188c-.74753 0-1.495061.5630075-1.495061 1.5013532s.747531 1.5013531 1.495061 1.5013531z"/><g transform="translate(76 62)"><path d="m64.3043478 45.3435115-6.8086956-1.5114504 5.2956521 7.5572519v23.4274809l18.1565218-15.1145038v-25.6946565l-8.3217391 3.0229008z"/><path d="m12.1043478 45.3435115-6.8086956-1.5114504 5.2956521 7.5572519v23.4274809l18.1565218-15.1145038v-25.6946565l-8.3217391 3.0229008z" transform="matrix(-1 0 0 1 34.043478 0)"/><path d="m25.7217391 78.6405041v-3.0227973l10.326011 7.3764269-.0015458-3.0241085-10.3244652-7.3753227v-3.0227973l10.326011 7.3764269-.0015458-3.0241084-10.3244652-7.3753227v-13.6481376l6.0521739-9.0687023 3.7826087 2.2671755h15.1304348l3.7826087-2.2671755 6.0521739 9.0687023v13.4909902l-10.5444506 7.5324701-.0015457 3.0241084 10.5459963-7.5335743v3.0227973l-10.5444506 7.5324701-.0015457 3.0241085 10.5459963-7.5335744v3.0227973l-10.5444506 7.5324701-.0015457 3.0241085 10.5459963-7.5335744v5.4020361l-4.5391304 6.8015268-5.2956522 5.2900763h-15.1304348l-5.2956521-5.2900763-4.5391305-6.8015268v-5.2448886l10.326011 7.3764269-.0015458-3.0241085z"/><path d="m62.7913043 89.1755725 9.8347827-9.8244275v-9.8244274l-9.8347827 8.3129771z"/><path d="m13.6173913 89.1755725 9.8347826-9.8244275v-9.8244274l-9.8347826 8.3129771z" transform="matrix(-1 0 0 1 37.069566 0)"/><path d="m38.5826087 0h3.026087v43.0763359h-4.5391305l-9.8347826-28.7175573 6.0521739-14.3587786h2.2695652v17.3816794l3.026087 1.5114504zm6.0521739 0h3.026087v18.8931298l3.0260869-1.5114504v-17.3816794h2.2695652l6.052174 14.3587786-9.0782609 28.7175573h-5.2956522z"/><path d="m37.0695652 43.0763359-32.53043477-12.0916031-4.53913043-18.8931297 27.9913043 2.2671755 9.8347827 28.7175573z"/><path d="m86.2434783 43.0763359-32.5304348-12.0916031-4.5391305-18.8931297 28.7478261 2.2671755 9.0782609 28.7175573z" transform="matrix(-1 0 0 1 136.173912 0)"/><path d="m60.5217391 12.0916031 15.8869566-1.5114504-10.5913044-10.5801527h-10.5913043z"/><path d="m15.1304348 12.0916031 15.8869565-1.5114504-10.5913043-10.5801527h-10.5913044z" transform="matrix(-1 0 0 1 40.852174 0)"/></g></g></svg>