<?xml version="1.0" encoding="utf-8"?>
<!-- Generator: Adobe Illustrator 15.1.0, SVG Export Plug-In . SVG Version: 6.00 Build 0)  -->
<!DOCTYPE svg PUBLIC "-//W3C//DTD SVG 1.1//EN" "http://www.w3.org/Graphics/SVG/1.1/DTD/svg11.dtd">
<svg version="1.1" id="Layer_1" xmlns="http://www.w3.org/2000/svg" xmlns:xlink="http://www.w3.org/1999/xlink" x="0px" y="0px"
	 width="300px" height="300px" viewBox="0 0 300 300" enable-background="new 0 0 300 300" xml:space="preserve">
<g id="PFEXTENSIONS">
	<path id="BOLDPUZZLE_1_" fill="#404C51" d="M164.515,91.853c-12.165,0-19.657-8.295-19.657-22.024
		c0-13.734,9.862-24.869,22.026-24.869c5.592,0,10.691,2.359,14.579,6.236c-2.167-26.97-8.421-43.654-8.421-43.654h-89.05
		c-14.649,0-26.525,11.875-26.525,26.525v86.206c0,0,21.697-4.125,47.143-5.196c10.91,7.373,4.911,10.55,2.309,12.525
		c-6.162,2.128-10.651,6.135-11.103,12.218c-0.637,8.61,7.043,16.193,17.15,16.939c10.112,0.751,18.824-5.621,19.46-14.232
		c0.474-6.412-3.668-11.301-9.985-14.175l0.286,0.005c-10.858-10.463,4.195-13.236,4.195-13.236
		c-0.079-0.018-0.158-0.036-0.237-0.053c26.363,1.176,47.459,6.311,47.459,6.311s6.714-15.316,6.951-37.105
		C178.963,88.534,169.584,91.853,164.515,91.853z"/>
	<path id="YELLOWPUZZLE" fill="#FFD100" d="M214.189,118.746c-0.053-12.165,8.208-19.691,21.944-19.749
		c13.731-0.062,24.904,9.755,24.957,21.917c0.022,5.596-2.312,10.708-6.174,14.605c26.959-2.282,43.618-8.602,43.618-8.602
		l-0.378-89.048c-0.061-14.647-11.984-26.475-26.635-26.411l-86.205,0.362c0,0,4.213,21.676,5.394,47.114
		c-7.325,10.947-10.528,4.959-12.518,2.368c-2.149-6.153-6.175-10.629-12.267-11.053c-8.609-0.6-16.158,7.11-16.865,17.224
		c-0.706,10.111,5.706,18.797,14.315,19.394c6.413,0.447,11.284-3.711,14.137-10.04v0.285c10.41-10.902,13.245,4.139,13.245,4.139
		c0.017-0.079,0.035-0.158,0.057-0.237c-1.065,26.365-6.113,47.482-6.113,47.482s15.348,6.649,37.133,6.794
		C217.563,133.176,214.212,123.815,214.189,118.746z"/>
	<path id="BOLDPUZZLE" fill="#404C51" d="M187.156,168.145c12.16,0.009,19.647,8.312,19.631,22.045
		c-0.01,13.731-9.885,24.853-22.05,24.844c-5.591-0.01-10.691-2.37-14.57-6.25c2.143,26.973,8.373,43.659,8.373,43.659l89.046,0.096
		c14.65,0.014,26.538-11.849,26.556-26.499l0.089-86.201c0,0-21.698,4.099-47.143,5.143c-10.906-7.381-4.903-10.555-2.301-12.529
		c6.162-2.12,10.661-6.123,11.116-12.205c0.646-8.61-7.025-16.203-17.133-16.958c-10.107-0.763-18.827,5.601-19.473,14.211
		c-0.479,6.407,3.656,11.305,9.968,14.184h-0.287c10.85,10.471-4.207,13.228-4.207,13.228c0.079,0.018,0.157,0.035,0.237,0.057
		c-26.36-1.207-47.452-6.364-47.452-6.364s-6.727,15.312-6.985,37.097C172.704,171.444,182.086,168.136,187.156,168.145z"/>
	<path id="GRAYPUZZLE" fill="#CFD7D8" d="M116.6,184.47c-5.657,10.771-16.484,13.548-28.641,7.162
		c-12.156-6.389-17.427-20.293-11.77-31.062c2.602-4.95,7.061-8.373,12.301-10.006c-24.883-10.624-42.566-12.85-42.566-12.85
		L4.514,216.542c-6.812,12.973-1.826,29.006,11.147,35.82l76.31,40.096c0,0,6.442-21.122,17.326-44.151
		c11.604-6.231,11.625,0.559,12.166,3.779c-0.983,6.442,0.474,12.283,5.652,15.515c7.325,4.563,17.607,1.298,22.976-7.304
		c5.362-8.601,3.769-19.278-3.551-23.848c-5.459-3.396-11.709-2.01-17.194,2.247l0.132-0.254c-14.308,4.748-9.761-9.866-9.761-9.866
		c-0.052,0.062-0.105,0.123-0.158,0.185c13.306-22.79,27.657-39.076,27.657-39.076s-10.437-13.069-29.615-23.41
		C120.383,170.141,118.961,179.984,116.6,184.47z"/>
</g>
</svg>
