<svg enable-background="new 0 0 300 300" height="300" viewBox="0 0 300 300" width="300" xmlns="http://www.w3.org/2000/svg"><path d="m164.515 91.853c-12.165 0-19.657-8.295-19.657-22.024 0-13.734 9.862-24.869 22.026-24.869 5.592 0 10.691 2.359 14.579 6.236-2.167-26.97-8.421-43.654-8.421-43.654h-89.05c-14.649 0-26.525 11.875-26.525 26.525v86.206s21.697-4.125 47.143-5.196c10.91 7.373 4.911 10.55 2.309 12.525-6.162 2.128-10.651 6.135-11.103 12.218-.637 8.61 7.043 16.193 17.15 16.939 10.112.751 18.824-5.621 19.46-14.232.474-6.412-3.668-11.301-9.985-14.175l.286.005c-10.858-10.463 4.195-13.236 4.195-13.236-.079-.018-.158-.036-.237-.053 26.363 1.176 47.459 6.311 47.459 6.311s6.714-15.316 6.951-37.105c-2.132 4.26-11.511 7.579-16.58 7.579z" fill="#404c51"/><path d="m214.189 118.746c-.053-12.165 8.208-19.691 21.944-19.749 13.731-.062 24.904 9.755 24.957 21.917.022 5.596-2.312 10.708-6.174 14.605 26.959-2.282 43.618-8.602 43.618-8.602l-.378-89.048c-.061-14.647-11.984-26.475-26.635-26.411l-86.205.362s4.213 21.676 5.394 47.114c-7.325 10.947-10.528 4.959-12.518 2.368-2.149-6.153-6.175-10.629-12.267-11.053-8.609-.6-16.158 7.11-16.865 17.224-.706 10.111 5.706 18.797 14.315 19.394 6.413.447 11.284-3.711 14.137-10.04v.285c10.41-10.902 13.245 4.139 13.245 4.139.017-.079.035-.158.057-.237-1.065 26.365-6.113 47.482-6.113 47.482s15.348 6.649 37.133 6.794c-4.271-2.114-7.622-11.475-7.645-16.544z" fill="#ffd100"/><path d="m187.156 168.145c12.16.009 19.647 8.312 19.631 22.045-.01 13.731-9.885 24.853-22.05 24.844-5.591-.01-10.691-2.37-14.57-6.25 2.143 26.973 8.373 43.659 8.373 43.659l89.046.096c14.65.014 26.538-11.849 26.556-26.499l.089-86.201s-21.698 4.099-47.143 5.143c-10.906-7.381-4.903-10.555-2.301-12.529 6.162-2.12 10.661-6.123 11.116-12.205.646-8.61-7.025-16.203-17.133-16.958-10.107-.763-18.827 5.601-19.473 14.211-.479 6.407 3.656 11.305 9.968 14.184h-.287c10.85 10.471-4.207 13.228-4.207 13.228.079.018.157.035.237.057-26.36-1.207-47.452-6.364-47.452-6.364s-6.727 15.312-6.985 37.097c2.133-4.259 11.515-7.567 16.585-7.558z" fill="#404c51"/><path d="m116.6 184.47c-5.657 10.771-16.484 13.548-28.641 7.162-12.156-6.389-17.427-20.293-11.77-31.062 2.602-4.95 7.061-8.373 12.301-10.006-24.883-10.624-42.566-12.85-42.566-12.85l-41.41 78.828c-6.812 12.973-1.826 29.006 11.147 35.82l76.31 40.096s6.442-21.122 17.326-44.151c11.604-6.231 11.625.559 12.166 3.779-.983 6.442.474 12.283 5.652 15.515 7.325 4.563 17.607 1.298 22.976-7.304 5.362-8.601 3.769-19.278-3.551-23.848-5.459-3.396-11.709-2.01-17.194 2.247l.132-.254c-14.308 4.748-9.761-9.866-9.761-9.866-.052.062-.105.123-.158.185 13.306-22.79 27.657-39.076 27.657-39.076s-10.437-13.069-29.615-23.41c2.782 3.866 1.36 13.709-1.001 18.195z" fill="#cfd7d8"/></svg>