<?xml version="1.0" encoding="utf-8"?>
<!-- Generator: Adobe Illustrator 15.1.0, SVG Export Plug-In . SVG Version: 6.00 Build 0)  -->
<!DOCTYPE svg PUBLIC "-//W3C//DTD SVG 1.1//EN" "http://www.w3.org/Graphics/SVG/1.1/DTD/svg11.dtd">
<svg version="1.1" id="Layer_1" xmlns="http://www.w3.org/2000/svg" xmlns:xlink="http://www.w3.org/1999/xlink" x="0px" y="0px"
	 width="300px" height="300px" viewBox="0 0 300 300" enable-background="new 0 0 300 300" xml:space="preserve">
<g id="PFPUSH">
	<g id="HEADOFPUSH">
		<path fill="#404C51" d="M161.68,163.824c-3.866,7.412-13.017,10.273-20.422,6.398l-69.738-36.479
			c-7.411-3.875-10.27-13.021-6.402-20.427l19.059-62.552c3.877-7.406,13.021-10.271,20.422-6.394l91.209,47.708
			c7.404,3.872,10.267,13.017,6.393,20.423L161.68,163.824z"/>
		<path fill="#404C51" d="M124.62,183.229c-2.179,4.164-7.322,5.776-11.481,3.598l-39.217-20.514
			c-4.17-2.181-5.781-7.321-3.601-11.491l-3.313-8.35c2.175-4.166,7.322-5.772,11.482-3.591l51.285,26.826
			c4.165,2.178,5.777,7.321,3.597,11.481L124.62,183.229z"/>
	</g>
	<g id="METALLINE">
		<path fill="#CFD7D8" d="M135.353,53.622l19.125-36.568c2.719-5.184,0.711-11.588-4.474-14.298
			c-5.184-2.713-11.586-0.708-14.297,4.478l-19.129,36.565L135.353,53.622z"/>
		<path fill="#CFD7D8" d="M188.992,81.682l19.134-36.563c2.711-5.188,0.703-11.588-4.473-14.301
			c-5.188-2.71-11.594-0.709-14.301,4.478l-19.129,36.568L188.992,81.682z"/>
	</g>
	<path id="CABLE" fill="#FFD100" d="M107.679,293.197c-47.164-24.664-37.302-85.646-25.892-113.679l16.073,8.264
		c-1.085,2.691-26.081,66.142,18.234,89.323c36.288,18.987,35.189-56.313,52.072-88.121l0.316-0.558
		c1.47-2.351,14.909-22.887,33.597-20.044c15.083,2.303,26.379,18.514,34.526,49.565l-17.576,4.612
		c-6.69-25.514-14.523-35.431-19.684-36.219c-5.151-0.786-12.392,6.946-15.306,11.467
		C176.188,212.562,165.85,323.639,107.679,293.197z"/>
</g>
</svg>
