<svg enable-background="new 0 0 300 300" height="300" viewBox="0 0 300 300" width="300" xmlns="http://www.w3.org/2000/svg"><path d="m161.68 163.824c-3.866 7.412-13.017 10.273-20.422 6.398l-69.738-36.479c-7.411-3.875-10.27-13.021-6.402-20.427l19.059-62.552c3.877-7.406 13.021-10.271 20.422-6.394l91.209 47.708c7.404 3.872 10.267 13.017 6.393 20.423z" fill="#404c51"/><path d="m124.62 183.229c-2.179 4.164-7.322 5.776-11.481 3.598l-39.217-20.514c-4.17-2.181-5.781-7.321-3.601-11.491l-3.313-8.35c2.175-4.166 7.322-5.772 11.482-3.591l51.285 26.826c4.165 2.178 5.777 7.321 3.597 11.481z" fill="#404c51"/><path d="m135.353 53.622 19.125-36.568c2.719-5.184.711-11.588-4.474-14.298-5.184-2.713-11.586-.708-14.297 4.478l-19.129 36.565z" fill="#cfd7d8"/><path d="m188.992 81.682 19.134-36.563c2.711-5.188.703-11.588-4.473-14.301-5.188-2.71-11.594-.709-14.301 4.478l-19.129 36.568z" fill="#cfd7d8"/><path d="m107.679 293.197c-47.164-24.664-37.302-85.646-25.892-113.679l16.073 8.264c-1.085 2.691-26.081 66.142 18.234 89.323 36.288 18.987 35.189-56.313 52.072-88.121l.316-.558c1.47-2.351 14.909-22.887 33.597-20.044 15.083 2.303 26.379 18.514 34.526 49.565l-17.576 4.612c-6.69-25.514-14.523-35.431-19.684-36.219-5.151-.786-12.392 6.946-15.306 11.467-7.851 14.755-18.189 125.832-76.36 95.39z" fill="#ffd100"/></svg>