<?xml version="1.0" encoding="utf-8"?>
<!-- Generator: Adobe Illustrator 15.1.0, SVG Export Plug-In . SVG Version: 6.00 Build 0)  -->
<!DOCTYPE svg PUBLIC "-//W3C//DTD SVG 1.1//EN" "http://www.w3.org/Graphics/SVG/1.1/DTD/svg11.dtd">
<svg version="1.1" id="Layer_1" xmlns="http://www.w3.org/2000/svg" xmlns:xlink="http://www.w3.org/1999/xlink" x="0px" y="0px"
	 width="300px" height="300px" viewBox="0 0 300 300" enable-background="new 0 0 300 300" xml:space="preserve">
<g>
	<path fill="#CFD7D8" d="M160.354,1.655h-21.04c-10.435,0-18.9,8.824-18.9,19.709V122.8h58.839V21.364
		C179.253,10.479,170.788,1.655,160.354,1.655z"/>
	<path fill="#FFD100" d="M94.205,9.352l-39.93-7.697V122.8h58.83V34.191C113.105,23.307,109.38,13.918,94.205,9.352z"/>
	<path fill="#FFD100" d="M205.462,9.352l39.93-7.697V122.8h-58.83V34.191C186.562,23.307,190.287,13.918,205.462,9.352z"/>
	<path fill="#404C51" d="M54.275,129.53v49.266c0,11.336,9.187,20.523,20.522,20.523h48.244l-3.318,78.118
		c0,11.34,9.192,20.527,20.523,20.527h19.169c11.34,0,20.522-9.188,20.522-20.527l-3.318-78.118h48.249
		c11.336,0,20.522-9.188,20.522-20.523V129.53H54.275z M149.831,283.137c-8.232,0-14.91-6.673-14.91-14.909s6.678-14.91,14.91-14.91
		c8.236,0,14.915,6.674,14.915,14.91S158.067,283.137,149.831,283.137z"/>
</g>
</svg>
