<svg enable-background="new 0 0 300 300" height="300" viewBox="0 0 300 300" width="300" xmlns="http://www.w3.org/2000/svg"><path d="m160.354 1.655h-21.04c-10.435 0-18.9 8.824-18.9 19.709v101.436h58.839v-101.436c0-10.885-8.465-19.709-18.899-19.709z" fill="#cfd7d8"/><path d="m94.205 9.352-39.93-7.697v121.145h58.83v-88.609c0-10.884-3.725-20.273-18.9-24.839z" fill="#ffd100"/><path d="m205.462 9.352 39.93-7.697v121.145h-58.83v-88.609c0-10.884 3.725-20.273 18.9-24.839z" fill="#ffd100"/><path d="m54.275 129.53v49.266c0 11.336 9.187 20.523 20.522 20.523h48.244l-3.318 78.118c0 11.34 9.192 20.527 20.523 20.527h19.169c11.34 0 20.522-9.188 20.522-20.527l-3.318-78.118h48.249c11.336 0 20.522-9.188 20.522-20.523v-49.266zm95.556 153.607c-8.232 0-14.91-6.673-14.91-14.909s6.678-14.91 14.91-14.91c8.236 0 14.915 6.674 14.915 14.91s-6.679 14.909-14.915 14.909z" fill="#404c51"/></svg>