<svg enable-background="new 0 0 87.318 83.411" height="83.411" viewBox="0 0 87.318 83.411" width="87.318" xmlns="http://www.w3.org/2000/svg"><g fill="#889597"><path d="m20.351 40.021h-3.184v4.001l3.184.021c1.08 0 1.62-.656 1.62-1.962 0-.599-.134-1.093-.4-1.48-.266-.386-.674-.58-1.22-.58z"/><path d="m21.381 37.231c.261-.288.39-.719.39-1.291 0-.573-.146-.984-.439-1.231-.294-.246-.661-.37-1.1-.37h-3.063v3.322h3.063c.504 0 .89-.144 1.149-.43z"/><path d="m58.905 38.891c-.08-.259-.207-.443-.379-.551-.308-.198-.738-.302-1.291-.31-.553-.005-.947.022-1.182.09-.23.067-.433.22-.601.461-.166.24-.277.57-.33.99-.055.42-.08.99-.08 1.711 0 .72.033 1.28.103 1.679.063.4.188.703.369.91.18.207.385.338.61.394.228.051.533.077.92.077.386 0 .677-.014.871-.041.191-.024.379-.092.56-.2.18-.104.311-.271.391-.498.172-.479.26-1.13.26-1.951s-.016-1.42-.051-1.802c-.033-.379-.09-.7-.17-.959z"/><path d="m84.522 24.263h-81.727c-1.587 0-2.874 1.286-2.874 2.874v24.268c0 1.586 1.287 2.873 2.874 2.873h81.728c1.59 0 2.875-1.287 2.875-2.873v-24.268c-.001-1.588-1.286-2.874-2.876-2.874zm-60.781 21.14c-.687.734-1.783 1.1-3.291 1.1h-6.083v-14.646h6.043c1.414 0 2.453.363 3.121 1.091.668.726 1.001 1.671 1.001 2.832 0 .748-.167 1.423-.501 2.031-.333.607-.833.97-1.5 1.091.642.119 1.175.477 1.602 1.069.428.595.641 1.336.641 2.231-.003 1.401-.345 2.466-1.033 3.201zm11.596 1.099h-2.262l-.541-1.121c-.118.068-.286.168-.5.304-.213.133-.38.235-.5.312-.12.071-.277.157-.47.258-.194.102-.378.178-.552.231-.414.134-.866.199-1.36.199-2.106 0-3.16-1.248-3.16-3.742v-7.063h2.801v7.125c0 .947.394 1.42 1.182 1.42.691 0 1.278-.127 1.76-.379.24-.133.507-.314.799-.541v-7.625h2.803zm8.101-8.501h-2.38v4.261c0 .72.072 1.221.221 1.5.146.281.373.479.679.6.801.279 1.248.42 1.341.42v1.721h-2.44c-1.734 0-2.602-1.266-2.602-3.801v-4.701h-1.721v-1.562l1.721-.58.46-2.961h2.342v2.961h2.38v2.142zm7.625 0h-2.383v4.261c0 .72.073 1.221.221 1.5.146.281.375.479.682.6.799.279 1.246.42 1.34.42v1.721h-2.44c-1.734 0-2.603-1.266-2.603-3.801v-4.701h-1.719v-1.562l1.719-.58.461-2.961h2.341v2.961h2.383zm9.834 7.462c-.688.761-1.957 1.14-3.812 1.14-1.813 0-3.082-.403-3.801-1.222-.695-.784-1.041-2.11-1.041-3.979 0-.921.053-1.691.158-2.312.106-.621.274-1.147.502-1.58.227-.435.541-.778.941-1.03.733-.468 1.812-.701 3.239-.701 1.828 0 3.092.399 3.791 1.2.701.799 1.051 2.225 1.051 4.271.002 2.049-.34 3.454-1.028 4.213zm12.055 1.039h-2.803v-7.122c0-.96-.394-1.44-1.18-1.44-.533 0-.988.07-1.359.21-.375.14-.775.376-1.201.709v7.643h-2.801v-10.623h2.24l.561 1.14c.975-.708 1.746-1.112 2.32-1.22.307-.067.653-.101 1.041-.101 2.121 0 3.182 1.24 3.182 3.722z"/><path d="m84.522 56.274h-81.727c-1.587 0-2.874-1.285-2.874-2.875v2.875c0 1.588 1.287 2.873 2.874 2.873h81.728c1.59 0 2.875-1.285 2.875-2.873v-2.875c-.001 1.59-1.286 2.875-2.876 2.875z"/></g></svg>