<?xml version="1.0" encoding="utf-8"?>
<!-- Generator: Adobe Illustrator 15.1.0, SVG Export Plug-In . SVG Version: 6.00 Build 0)  -->
<!DOCTYPE svg PUBLIC "-//W3C//DTD SVG 1.1//EN" "http://www.w3.org/Graphics/SVG/1.1/DTD/svg11.dtd">
<svg version="1.1" id="Layer_1" xmlns="http://www.w3.org/2000/svg" xmlns:xlink="http://www.w3.org/1999/xlink" x="0px" y="0px"
	 width="87.318px" height="83.411px" viewBox="0 0 87.318 83.411" enable-background="new 0 0 87.318 83.411" xml:space="preserve">
<g id="BUTTON">
	<g>
		<path fill="#889597" d="M20.351,40.021h-3.184v4.001l3.184,0.021c1.08,0,1.62-0.656,1.62-1.962c0-0.599-0.134-1.093-0.4-1.48
			C21.305,40.215,20.897,40.021,20.351,40.021z"/>
		<path fill="#889597" d="M21.381,37.231c0.261-0.288,0.39-0.719,0.39-1.291c0-0.573-0.146-0.984-0.439-1.231
			c-0.294-0.246-0.661-0.37-1.1-0.37h-3.063v3.322h3.063C20.736,37.661,21.122,37.517,21.381,37.231z"/>
		<path fill="#889597" d="M58.905,38.891c-0.08-0.259-0.207-0.443-0.379-0.551c-0.308-0.198-0.738-0.302-1.291-0.31
			c-0.553-0.005-0.947,0.022-1.182,0.09c-0.23,0.067-0.433,0.22-0.601,0.461c-0.166,0.24-0.277,0.57-0.33,0.99
			c-0.055,0.42-0.08,0.99-0.08,1.711c0,0.72,0.033,1.28,0.103,1.679c0.063,0.4,0.188,0.703,0.369,0.91
			c0.18,0.207,0.385,0.338,0.61,0.394c0.228,0.051,0.533,0.077,0.92,0.077c0.386,0,0.677-0.014,0.871-0.041
			c0.191-0.024,0.379-0.092,0.56-0.2c0.18-0.104,0.311-0.271,0.391-0.498c0.172-0.479,0.26-1.13,0.26-1.951
			c0-0.821-0.016-1.42-0.051-1.802C59.042,39.471,58.985,39.15,58.905,38.891z"/>
		<path fill="#889597" d="M84.522,24.263H2.795c-1.587,0-2.874,1.286-2.874,2.874v24.268c0,1.586,1.287,2.873,2.874,2.873h81.728
			c1.59,0,2.875-1.287,2.875-2.873V27.137C87.397,25.549,86.112,24.263,84.522,24.263z M23.741,45.403
			c-0.687,0.734-1.783,1.1-3.291,1.1h-6.083V31.857h6.043c1.414,0,2.453,0.363,3.121,1.091c0.668,0.726,1.001,1.671,1.001,2.832
			c0,0.748-0.167,1.423-0.501,2.031c-0.333,0.607-0.833,0.97-1.5,1.091c0.642,0.119,1.175,0.477,1.602,1.069
			c0.428,0.595,0.641,1.336,0.641,2.231C24.771,43.603,24.429,44.668,23.741,45.403z M35.337,46.502h-2.262l-0.541-1.121
			c-0.118,0.068-0.286,0.168-0.5,0.304c-0.213,0.133-0.38,0.235-0.5,0.312c-0.12,0.071-0.277,0.157-0.47,0.258
			c-0.194,0.102-0.378,0.178-0.552,0.231c-0.414,0.134-0.866,0.199-1.36,0.199c-2.106,0-3.16-1.248-3.16-3.742V35.88h2.801v7.125
			c0,0.947,0.394,1.42,1.182,1.42c0.691,0,1.278-0.127,1.76-0.379c0.24-0.133,0.507-0.314,0.799-0.541V35.88h2.803L35.337,46.502
			L35.337,46.502z M43.438,38.001h-2.38v4.261c0,0.72,0.072,1.221,0.221,1.5c0.146,0.281,0.373,0.479,0.679,0.6
			c0.801,0.279,1.248,0.42,1.341,0.42v1.721h-2.44c-1.734,0-2.602-1.266-2.602-3.801v-4.701h-1.721v-1.562l1.721-0.58l0.46-2.961
			h2.342v2.961h2.38V38.001z M51.063,38.001H48.68v4.261c0,0.72,0.073,1.221,0.221,1.5c0.146,0.281,0.375,0.479,0.682,0.6
			c0.799,0.279,1.246,0.42,1.34,0.42v1.721h-2.44c-1.734,0-2.603-1.266-2.603-3.801v-4.701h-1.719v-1.562l1.719-0.58l0.461-2.961
			h2.341v2.961h2.383L51.063,38.001L51.063,38.001z M60.897,45.463c-0.688,0.761-1.957,1.14-3.812,1.14
			c-1.813,0-3.082-0.403-3.801-1.222c-0.695-0.784-1.041-2.11-1.041-3.979c0-0.921,0.053-1.691,0.158-2.312
			c0.106-0.621,0.274-1.147,0.502-1.58c0.227-0.435,0.541-0.778,0.941-1.03c0.733-0.468,1.812-0.701,3.239-0.701
			c1.828,0,3.092,0.399,3.791,1.2c0.701,0.799,1.051,2.225,1.051,4.271C61.927,43.299,61.585,44.704,60.897,45.463z M72.952,46.502
			h-2.803v-7.122c0-0.96-0.394-1.44-1.18-1.44c-0.533,0-0.988,0.07-1.359,0.21c-0.375,0.14-0.775,0.376-1.201,0.709v7.643h-2.801
			V35.879h2.24l0.561,1.14c0.975-0.708,1.746-1.112,2.32-1.22c0.307-0.067,0.653-0.101,1.041-0.101c2.121,0,3.182,1.24,3.182,3.722
			V46.502z"/>
	</g>
	<path fill="#889597" d="M84.522,56.274H2.795c-1.587,0-2.874-1.285-2.874-2.875v2.875c0,1.588,1.287,2.873,2.874,2.873h81.728
		c1.59,0,2.875-1.285,2.875-2.873v-2.875C87.397,54.989,86.112,56.274,84.522,56.274z"/>
</g>
</svg>
