<svg enable-background="new 0 0 87.318 83.411" height="83.411" viewBox="0 0 87.318 83.411" width="87.318" xmlns="http://www.w3.org/2000/svg"><g fill="#1b82d7"><ellipse cx="43.659" cy="22.15" rx="43.616" ry="16.3"/><path d="m.043 29.25s6.548 14.195 43.616 14.195c37.067 0 43.616-14.195 43.616-14.195v8.218s-7.969 14.195-43.616 14.195c-35.646 0-43.616-13.946-43.616-13.946v-8.467z"/><path d="m.043 42.199s6.548 14.195 43.616 14.195c37.067 0 43.616-14.195 43.616-14.195v8.219s-7.969 14.193-43.616 14.193c-35.646 0-43.616-13.945-43.616-13.945v-8.467z"/><path d="m.043 55.149s6.548 14.193 43.616 14.193c37.067 0 43.616-14.193 43.616-14.193v8.219s-7.969 14.193-43.616 14.193c-35.646 0-43.616-13.945-43.616-13.945v-8.467z"/></g></svg>