<svg enable-background="new 0 0 87.318 83.411" height="83.411" viewBox="0 0 87.318 83.411" width="87.318" xmlns="http://www.w3.org/2000/svg"><g fill="#1b82d7"><path d="m47.303 33.088h-9.331v3.109h8.293v.572h3.111v-1.608h-2.074v-2.073zm-13.478 0h-9.33v3.109h9.33zm-13.477 0h-9.331v3.109h9.331zm-13.476 0h-4.697c-1.146 0-2.074.928-2.074 2.073v1.375h3.109v-.339h3.662zm-3.662 7.594h-3.109v9.331h3.109zm0 13.479h-3.109v9.33h3.109zm0 13.477h-3.109v9.331h3.109zm-1.035 12.653-1.914.803c.178.421.488.77.878.996.002.001.007.003.01.004.002.002.005.004.007.005.005.004.01.006.015.009.012.006.022.013.035.019.003.001.005.003.008.004.002.003.005.004.007.005.005.003.013.005.018.009.002.001.005.003.007.004.005.001.008.002.01.004.002.001.005.004.007.004.002.002.005.003.01.005.002.001.005.002.007.004.002.002.005.002.007.003.005.003.008.004.01.004.002.003.005.004.007.005.002.002.005.003.01.004.002.001.005.003.007.004.002.001.005.004.01.004.002.001.005.002.007.004v.001c.002 0 .005.001.007.003.005.002.008.002.01.003.002.002.005.003.01.004.002.001.005.003.008.004.002.001.005.003.007.004.005.001.007.002.01.004.002.001.005.002.01.004.002.001.005.002.007.002v.001c.003.002.005.003.01.004.002 0 .005.002.007.003.002.001.005.002.01.004.002.001.005.002.007.004.005 0 .008.001.01.002.002.001.005.003.007.003v.001c.005 0 .007.002.01.002v.002c.002 0 .005.001.007.002h.002c.002.002.005.003.007.004.003 0 .008.001.01.003.002.001.005.002.007.002.005.002.008.003.01.004.002.001.005.003.01.003.002.001.005.002.008.004.005.001.007.001.01.002.002.001.005.003.007.004h.003.002c.002.001.005.001.005.001.002.002.002.002.005.003.002 0 .002.001.005.001h.005c0 .001.002.001.005.003l.002.001h.002l.002.001c.002 0 .005 0 .005.001.002 0 .002.002.005.002.002.001.002.001.005.001l.002.001h.002s.002.002.005.002l.002.001h.002c0 .001.002.001.002.001v.001c.002 0 .002 0 .005.002h.005c.003 0 .003.001.005.001 0 .001.002.001.005.001s.002.002.002.003h.002.002c.002 0 .002.001.005.001.003 0 .005.001.005.001.002.002.002.002.005.002.002.001.002.001.005.002h.005s.002.002.005.002l.002.001h.002l.002.001c.002 0 .002.001.005.001h.005c.002.002.002.002.005.002.002.001.002.001.005.001.002.001.002.001.005.001v.001h.005s.002 0 .002.002h.002l.002.001c.002 0 .005 0 .005.001h.005v.002h.005c.002 0 .002 0 .005.001.002 0 .002 0 .005.001h.005v.001s.003 0 .005.002h.005.002.002l.002.001h.002c0 .001.003.001.003.001.002.002.002.002.005.002h.002l.002.001h.005c.002 0 .002 0 .005.001.002 0 .002 0 .005.001h.005s.002.002.005.002c0 .001.002.001.002.001h.003l.002.001h.002.002.002.002s.002 0 .002.002h.002c.002.001.005.001.005.001.002 0 .002 0 .005.001.002 0 .002 0 .005.001h.005.005c.002 0 .002.002.005.002h.005c.002.001.002.001.005.001.002 0 .002.001.005.001h.005s.002.001.005.001l.002.002h.002.002.003.002c.002 0 .005.001.005.001h.005c.002 0 .005.001.005.001s0 0 .003 0h.002v.002h.005.005v.001h.005.005.005c.002 0 .002 0 .005.001h.005c.003 0 .003.001.005.001h.005c.002 0 .002 0 .005.002h.005c.002 0 .002 0 .005.001h.005.005.002.002.005s.002.001.005.001h.002.002.002.002l.002.002h.003.002.031.002.002l.002.001h.002.002.003.002.002s.002 0 .002.001h.002.002.002.002.005s0 0 .002 0h.002.005s0 0 .002 0h.002.005.01.002.002l.002.001h.002.002.005.005.002.005s0 0 .002 0h.002c.002.002.005.002.005.002h.004.002.002.002.002.002.005.005.002.005s0 0 .002 0h.002.005s0 0 .002 0h.005v-2.081zm6.896-1.038h-6.896v1.037 2.074h6.896zm13.478 0h-9.331v3.111h9.331zm13.476 0h-9.328v3.111h9.328zm11.278 0h-7.131v3.111h7.131v-2.074zm0 1.037v2.075h.002.004.002.002.002.006.006.004.002.004.002.006.004c.002 0 .002 0 .006-.002h.002.002.004.004.006.004.006l.002-.001h.002.004.004.006.002.002.004.002.002.002.004.004c.004 0 .004 0 .004-.001h.002.002.002.004.004c.004 0 .004 0 .006-.001h.002.002.004.002s.002 0 .002-.002h.006.004.004.002l.002-.001h.006.004.004.002.002c.002 0 .006-.001.006-.001s0 0 .002 0h.002c.004 0 .004-.002.006-.002h.002.002.004c.002-.001.002-.001.004-.001h.006v-.001h.002.002.004.002.002c.002 0 .008-.001.01-.001h.004.002l.002-.002h.006v-.001h.002.002.004.002l.002-.001h.006.004c.004 0 .004 0 .004-.002h.002.002c.002-.001.002-.001.006-.001h.002c.002 0 .002-.001.002-.001h-.005.004l.002-.001h.002.004c.002-.002.002-.002.004-.002h.002.004.002c.002-.001.006-.001.006-.001.002 0 .002-.001.004-.001h.002.004l.002-.001c.002-.002.002-.002.006-.002h.004.002l.004-.001h.002c.002 0 .002-.001.004-.001.004 0 .004 0 .006-.002h.002.004c0-.001.002-.001.002-.001.002 0 .002-.001.004-.001h.004.002s.002 0 .002-.001h.006c.002-.002.002-.002.002-.002h.002l.004-.001h.002s0 0 .002-.001h.006.004s0 0 0-.002h.004s0 0 .002-.001h.002c.004 0 .004-.001.006-.001 0-.001.002-.001.002-.001s0 0 .002 0h.004c.002 0 .002-.002.004-.002.002 0 .002 0 .002-.001h.004l.002-.001h.002s0 0 .004 0v-.002h.004.002.004l.002-.001v-.001h.006l.002-.001c.002 0 .002 0 .002-.002h.002c.004 0 .006-.001.008-.001h.004c0-.001.002-.001.002-.001s0 0 .002 0l.002-.001c.004-.002.004-.002.006-.002h.002.002l.004-.001c0-.001 0-.001 0-.001h.004v-.001h.004c0-.001 0-.001.002-.001l.002-.001h.006s.002 0 .002-.001h.002l.004-.002c.002 0 .002 0 .004-.001.002 0 .002-.001.006-.001h.002.002c0-.002 0-.002.004-.002l.004-.002h.002s0-.001.004-.001c0 0 0 0 .002-.002h.006l.002-.001c.002-.001.002-.001.004-.001s.004-.002.006-.002v-.001h.002.002s0 0 .004-.001c.002 0 .002-.001.004-.001l.004-.002s0 0 .002-.001c0 0 .002 0 .004-.001h.004s.002 0 .002-.001c.002-.002.002-.002.006-.002 0-.001.002-.001.002-.001h.002l.002-.001c.004 0 .004-.002.006-.002.002 0 .002-.001.002-.001h.004l.002-.001c.002 0 .002-.001.004-.001l.004-.002h.002c0-.001.002-.001.002-.001v-.001h.006l.002-.002c.002-.001.006-.002.008-.003h.002l.002-.002c.004 0 .006-.001.008-.002h.004l.002-.002h.004l.004-.001h.002c0-.001.002-.001.002-.001v-.002c.004 0 .004 0 .006-.001l.002-.001c.002-.002.006-.002.01-.003 0 0 0 0 0-.001l.004-.001c.002 0 .004-.002.006-.003h.004s0-.001.002-.001c.002-.001.004-.001.008-.003l.004-.002.004-.002c.002 0 .002 0 .004-.001.002 0 .002-.001.006-.001 0-.001.002-.001.002-.001v-.002h.006c.002-.001.004-.002.006-.004.004-.001.004-.001.006-.001.002-.001.006-.002.008-.004l.002-.002c.002 0 .006-.002.01-.003l.002-.002c.004 0 .006-.002.008-.003h.004c.002-.001.004-.003.006-.004l.004-.001c.002-.001.004-.003.008-.004h.004v-.001c.002-.001.006-.003.008-.004s.002 0 .006-.001c.002-.002.004-.003.006-.004l.004-.001c.002-.002.004-.003.008-.004.002-.002.004-.003.006-.004h.004s0-.001.002-.001c.002-.002.004-.003.008-.004.002-.002.002-.002.004-.003.004 0 .006-.001.008-.002 0 0 0 0 0-.002l.002-.001c.004-.001.006-.002.008-.004.006-.002.008-.004.014-.005 0 0 0 0 0-.001.002-.001.004-.001.008-.003l.004-.002c.002-.002.006-.003.008-.004l.002-.001v-.002c.004 0 .006-.001.008-.002.002-.002.002-.003.006-.003.002-.001.004-.002.006-.004.004-.001.008-.003.012-.006.004-.001.006-.004.012-.006.01-.006.02-.011.029-.017.004-.001.008-.004.01-.005.004-.002.006-.004.008-.005.004 0 .004 0 .006-.002.002-.002.004-.003.008-.003l.002-.003c.002-.003.006-.003.008-.005.002-.003.008-.004.012-.007.004-.002.006-.003.01-.006v-.001c.238-.142.445-.33.609-.555.012-.018.027-.036.039-.054.006-.007.01-.014.012-.021h.004c0-.003.002-.006.004-.008v-.003h.004c0-.004.002-.005.002-.007v-.002c.002-.001.002-.001.002-.001v.005c.002-.003.002-.005.006-.008s.002-.001.002-.003v-.001c.002-.002.002-.004.006-.006v-.001c0-.002 0-.002.002-.003 0-.003.002-.005.002-.008h.002c0-.002.004-.005.004-.007.002-.002.002-.003.002-.004.002-.002.002-.004.006-.007 0-.001 0-.002.002-.003v-.002c0-.001.002-.004.004-.005 0-.001 0-.001 0-.001s0-.003 0-.004l.004-.001v-.003c.002-.001.002-.002.002-.002v-.002c.002-.001.002-.002.002-.002v-.002c0-.001.004-.001.004-.003l.002-.003v.001c0-.001 0-.003.002-.004s0-.001 0-.003c.002-.001.002-.001.002-.001 0-.001 0-.001 0-.001s0-.001 0-.003c.004-.001.004-.001.004-.002l.002-.004c0-.001 0-.001 0-.001l.002-.002c0-.001 0-.001 0-.001s0-.003.002-.004c0 0 0 0 0-.001 0 0 0-.001 0-.003.004 0 .004-.001.004-.001s0 0 0-.001v-.002c.002-.002.002-.002.002-.002v-.001zm2.075-12.419h-3.111v9.332h3.111zm0-13.477h-3.111v9.331h3.111zm0-13.477h-3.111v9.33h3.111zm-2.075-7.829v2.073h2.074c.001-1.145-.927-2.073-2.074-2.073z"/><path d="m56.329 38.811 5.773 23 6.131-6.132 9.256 9.255 2.484-2.481 2.481-2.482-9.256-9.255 6.133-6.133z"/><path d="m85.143 1.045h-45.129c-1.146 0-2.074.929-2.074 2.074v45.13c0 1.145.928 2.072 2.074 2.072h17.068l-2.766-11.005-.842-3.359 3.359.843 23 5.773 3.547.889-2.586 2.587-4.271 4.272h8.619c1.146 0 2.074-.928 2.074-2.072v-45.129c.002-1.146-.926-2.075-2.073-2.075z"/></g></svg>