<svg enable-background="new 0 0 87.318 83.411" height="83.411" viewBox="0 0 87.318 83.411" width="87.318" xmlns="http://www.w3.org/2000/svg"><g fill="#889597"><path d="m19.281 79.582 60.706-23.925s1.098.102 1.596-1.993l5.582-32.994s1.097-4.187-3.19-3.19-60.805 11.962-60.805 11.962-6.197 1.371-5.784 7.475c.307 4.481 2.494 40.87 2.494 40.87s.111.992-.599 1.795z"/><path d="m15.491 74.872-2.689-40.472s0-6.58 6.579-7.876 49.815-9.792 49.815-9.792l-.599-7.402s-.896-3.587-4.934-2.99-37.157 4.934-37.157 4.934-5.68 1.271-7.474-4.561c0 0-1.198-3.288-4.413-2.842-3.214.449-11.063 1.124-11.063 1.124s-4.188.448-3.439 4.26c.746 3.813 11.737 60.856 11.737 60.856s2.192 8.548 3.637 4.761z"/></g></svg>