<?xml version="1.0" encoding="utf-8"?>
<!-- Generator: Adobe Illustrator 15.1.0, SVG Export Plug-In . SVG Version: 6.00 Build 0)  -->
<!DOCTYPE svg PUBLIC "-//W3C//DTD SVG 1.1//EN" "http://www.w3.org/Graphics/SVG/1.1/DTD/svg11.dtd">
<svg version="1.1" id="Layer_1" xmlns="http://www.w3.org/2000/svg" xmlns:xlink="http://www.w3.org/1999/xlink" x="0px" y="0px"
	 width="87.318px" height="83.411px" viewBox="0 0 87.318 83.411" enable-background="new 0 0 87.318 83.411" xml:space="preserve">
<g id="FILE">
	<path fill="#1B82D7" d="M19.281,79.582l60.706-23.925c0,0,1.098,0.102,1.596-1.993l5.582-32.994c0,0,1.097-4.187-3.19-3.19
		C79.688,18.477,23.17,29.442,23.17,29.442s-6.197,1.371-5.784,7.475c0.307,4.481,2.494,40.87,2.494,40.87
		S19.991,78.779,19.281,79.582z"/>
	<path fill="#1B82D7" d="M15.491,74.872L12.802,34.4c0,0,0-6.58,6.579-7.876c6.579-1.296,49.815-9.792,49.815-9.792l-0.599-7.402
		c0,0-0.896-3.587-4.934-2.99s-37.157,4.934-37.157,4.934s-5.68,1.271-7.474-4.561c0,0-1.198-3.288-4.413-2.842
		C11.405,4.32,3.556,4.995,3.556,4.995s-4.188,0.448-3.439,4.26c0.746,3.813,11.737,60.856,11.737,60.856
		S14.046,78.659,15.491,74.872z"/>
</g>
</svg>
