<svg enable-background="new 0 0 87.318 83.411" height="83.411" viewBox="0 0 87.318 83.411" width="87.318" xmlns="http://www.w3.org/2000/svg"><g fill="#1b82d7"><path d="m87.232 57.611h-87.146v-31.811h87.146zm-83.329-3.818h79.512v-24.176h-79.512z"/><path d="m8.212 39.186c1.323-.524 3.092-.787 5.303-.787 1.338 0 2.366.281 3.086.841.721.562 1.081 1.524 1.081 2.89v8.076h-2.422l-.633-1.269c-.06.104-.244.261-.558.47-.312.211-.746.42-1.297.623-.555.203-1.085.307-1.593.307-1.077 0-1.906-.311-2.488-.93-.582-.617-.873-1.334-.873-2.148v-1.09c0-.931.275-1.695.83-2.293.553-.594 1.402-.89 2.553-.883 1.149.008 2.007.012 2.575.012.567 0 .851-.008.851-.021 0-.233 0-.411 0-.534 0-.125 0-.193 0-.207 0-.583-.124-.966-.371-1.146-.248-.183-.741-.272-1.482-.272-.743 0-2.264.08-4.562.239zm2.662 7.635c0 .438.094.725.283.862.189.14.466.206.83.206s.767-.076 1.211-.229c.443-.152.789-.301 1.036-.445l.394-.241v-2.116l-2.814.219c-.626.059-.938.45-.938 1.18z"/><path d="m22.526 33.075v6.132c1.091-.51 2.261-.764 3.512-.764 1.062 0 1.862.254 2.401.764.566.523.938 1.222 1.112 2.094.176.859.263 1.915.263 3.165 0 1.877-.292 3.324-.873 4.343s-1.549 1.526-2.902 1.526c-.624 0-1.258-.131-1.896-.392-.642-.263-1.171-.567-1.595-.919l-.544 1.18h-2.511v-17.129zm2.727 14.642c.51 0 .888-.252 1.136-.754.245-.502.369-1.303.369-2.398 0-1.1-.062-1.91-.186-2.436-.123-.521-.287-.867-.491-1.035-.203-.166-.479-.251-.829-.251-1.062 0-1.963.145-2.707.438v5.739c.745.463 1.646.697 2.708.697z"/><path d="m31.45 44.398c0-1.163.09-2.142.273-2.933.181-.794.45-1.398.807-1.812.356-.415.752-.71 1.189-.885.437-.173.952-.261 1.549-.261 2.138 0 3.913.226 5.322.677v1.898c-1.381-.089-2.483-.132-3.305-.132s-1.316.014-1.484.043c-.167.03-.354.103-.557.218-.203.118-.349.299-.436.548-.204.596-.307 1.443-.307 2.541 0 1.1.068 1.889.207 2.367.14.48.342.797.61.949.27.152.695.229 1.277.229 1.178 0 2.363-.051 3.557-.15l.588-.045v1.922c-.669.348-1.323.553-1.964.609-.946.088-1.766.131-2.465.131h-.13c-.555 0-.859 0-.917 0-1.15 0-2.051-.387-2.707-1.154-.736-.861-1.107-2.445-1.107-4.76z"/><path d="m44.059 33.075h1.907v17.237h-1.907z"/></g></svg>