<?xml version="1.0" encoding="utf-8"?>
<!-- Generator: Adobe Illustrator 15.1.0, SVG Export Plug-In . SVG Version: 6.00 Build 0)  -->
<!DOCTYPE svg PUBLIC "-//W3C//DTD SVG 1.1//EN" "http://www.w3.org/Graphics/SVG/1.1/DTD/svg11.dtd">
<svg version="1.1" id="Layer_1" xmlns="http://www.w3.org/2000/svg" xmlns:xlink="http://www.w3.org/1999/xlink" x="0px" y="0px"
	 width="87.318px" height="83.411px" viewBox="0 0 87.318 83.411" enable-background="new 0 0 87.318 83.411" xml:space="preserve">
<g id="INPUT">
	<path fill="#889597" d="M87.232,57.611H0.086V25.8h87.146V57.611z M3.903,53.793h79.512V29.617H3.903V53.793z"/>
	<g>
		<path fill="#889597" d="M8.212,39.186c1.323-0.524,3.092-0.787,5.303-0.787c1.338,0,2.366,0.281,3.086,0.841
			c0.721,0.562,1.081,1.524,1.081,2.89v8.076H15.26l-0.633-1.269c-0.06,0.104-0.244,0.261-0.558,0.47
			c-0.312,0.211-0.746,0.42-1.297,0.623c-0.555,0.203-1.085,0.307-1.593,0.307c-1.077,0-1.906-0.311-2.488-0.93
			c-0.582-0.617-0.873-1.334-0.873-2.148v-1.09c0-0.931,0.275-1.695,0.83-2.293c0.553-0.594,1.402-0.89,2.553-0.883
			c1.149,0.008,2.007,0.012,2.575,0.012c0.567,0,0.851-0.008,0.851-0.021c0-0.233,0-0.411,0-0.534c0-0.125,0-0.193,0-0.207
			c0-0.583-0.124-0.966-0.371-1.146c-0.248-0.183-0.741-0.272-1.482-0.272c-0.743,0-2.264,0.08-4.562,0.239V39.186z M10.874,46.821
			c0,0.438,0.094,0.725,0.283,0.862c0.189,0.14,0.466,0.206,0.83,0.206s0.767-0.076,1.211-0.229
			c0.443-0.152,0.789-0.301,1.036-0.445l0.394-0.241v-2.116l-2.814,0.219c-0.626,0.059-0.938,0.45-0.938,1.18L10.874,46.821
			L10.874,46.821z"/>
		<path fill="#889597" d="M22.526,33.075v6.132c1.091-0.51,2.261-0.764,3.512-0.764c1.062,0,1.862,0.254,2.401,0.764
			c0.566,0.523,0.938,1.222,1.112,2.094c0.176,0.859,0.263,1.915,0.263,3.165c0,1.877-0.292,3.324-0.873,4.343
			s-1.549,1.526-2.902,1.526c-0.624,0-1.258-0.131-1.896-0.392c-0.642-0.263-1.171-0.567-1.595-0.919l-0.544,1.18h-2.511V33.075
			H22.526z M25.253,47.717c0.51,0,0.888-0.252,1.136-0.754c0.245-0.502,0.369-1.303,0.369-2.398c0-1.1-0.062-1.91-0.186-2.436
			c-0.123-0.521-0.287-0.867-0.491-1.035c-0.203-0.166-0.479-0.251-0.829-0.251c-1.062,0-1.963,0.145-2.707,0.438v5.739
			C23.29,47.483,24.191,47.717,25.253,47.717z"/>
		<path fill="#889597" d="M31.45,44.398c0-1.163,0.09-2.142,0.273-2.933c0.181-0.794,0.45-1.398,0.807-1.812
			c0.356-0.415,0.752-0.71,1.189-0.885c0.437-0.173,0.952-0.261,1.549-0.261c2.138,0,3.913,0.226,5.322,0.677v1.898
			c-1.381-0.089-2.483-0.132-3.305-0.132c-0.822,0-1.316,0.014-1.484,0.043c-0.167,0.03-0.354,0.103-0.557,0.218
			c-0.203,0.118-0.349,0.299-0.436,0.548c-0.204,0.596-0.307,1.443-0.307,2.541c0,1.1,0.068,1.889,0.207,2.367
			c0.14,0.48,0.342,0.797,0.61,0.949c0.27,0.152,0.695,0.229,1.277,0.229c1.178,0,2.363-0.051,3.557-0.15l0.588-0.045v1.922
			c-0.669,0.348-1.323,0.553-1.964,0.609c-0.946,0.088-1.766,0.131-2.465,0.131h-0.13c-0.555,0-0.859,0-0.917,0
			c-1.15,0-2.051-0.387-2.707-1.154C31.821,48.297,31.45,46.713,31.45,44.398z"/>
	</g>
	<rect x="44.059" y="33.075" fill="#889597" width="1.907" height="17.237"/>
</g>
</svg>
