<svg enable-background="new 0 0 87.318 83.411" height="83.411" viewBox="0 0 87.318 83.411" width="87.318" xmlns="http://www.w3.org/2000/svg"><g fill="#889597"><path d="m84.43 30.728h-81.542c-1.584 0-2.867 1.283-2.867 2.868v16.291c0 1.583 1.282 2.868 2.867 2.868h81.542c1.582 0 2.865-1.285 2.865-2.868v-16.291c.001-1.585-1.283-2.868-2.865-2.868z"/><path d="m84.43 57.887c.33 0 .604.27.604.604v16.291c0 .333-.273.604-.604.604h-81.542c-.333 0-.604-.271-.604-.604v-16.29c0-.335.27-.604.604-.604h81.542m0-2.264h-81.542c-1.584 0-2.867 1.283-2.867 2.868v16.291c0 1.583 1.282 2.867 2.867 2.867h81.542c1.582 0 2.865-1.284 2.865-2.867v-16.291c.001-1.585-1.283-2.868-2.865-2.868z"/><path d="m84.43 5.76h-81.542c-1.584 0-2.867 1.283-2.867 2.868v.073 16.218.072c0 1.584 1.282 2.868 2.867 2.868h81.542c1.582 0 2.865-1.284 2.865-2.868v-.072-16.217-.074c.001-1.585-1.283-2.868-2.865-2.868zm-54.394 17.925-.913-9.297-2.243 9.297h-2.966l-2.336-9.297-.818 9.297h-2.624l1.216-13.917h3.706l2.321 9.505 2.301-9.505h3.687l1.293 13.917zm13.269-11.407h-5.495c-.469 0-.76.114-.873.342-.077.178-.115.419-.115.723v2.167l5.627.191v2.204l-5.627.171v2.168c0 .48.133.773.398.874.192.076.451.115.78.115h5.304v2.186c-.634.088-2.199.178-4.697.267l-1.235.056c-.102 0-.219 0-.351 0-.133 0-.308-.008-.522-.027-.216-.019-.475-.086-.78-.201-.305-.112-.57-.267-.798-.455-.506-.455-.763-1.159-.763-2.108v-8.291c0-1.152.345-1.944 1.028-2.375.318-.191.63-.324.941-.399.31-.076.557-.115.741-.115.186 0 1.101.023 2.747.066 1.646.046 2.878.124 3.689.238v2.203zm12.567 11.407h-2.662l-5.533-8.898v8.898h-2.68v-13.917h2.699l5.514 8.991v-8.991h2.662zm12.642-6.084c0 1.989-.291 3.436-.875 4.337-.191.313-.375.571-.559.768-.188.197-.42.368-.707.513-.283.146-.527.255-.73.325-.203.068-.475.123-.818.16-.43.052-.955.075-1.578.075h-.266c-1.52 0-2.533-.158-3.043-.475-.227-.152-.492-.376-.797-.675-.303-.297-.533-.663-.684-1.094-.379-1.064-.572-2.377-.572-3.935v-7.832h2.664v7.833c0 1.217.119 2.111.359 2.679.217.509.641.831 1.275.971.279.052.682.076 1.207.076s.967-.094 1.32-.284c.746-.405 1.123-1.553 1.123-3.441v-7.834h2.68v7.833z"/></g></svg>