<svg enable-background="new 0 0 87.318 83.411" height="83.411" viewBox="0 0 87.318 83.411" width="87.318" xmlns="http://www.w3.org/2000/svg"><g fill="#1b82d7"><path d="m36.506 56.748c0 3.607 2.924 6.533 6.532 6.533h23.764l10.147 12.209 1.025-12.209c3.607 0 6.532-2.926 6.532-6.533l2.799-23.02c0-3.607-2.924-6.532-6.532-6.532h-41.469c-3.607 0-6.532 2.925-6.532 6.532z"/><path d="m33.492 57.013-.66-4.11h-5.011l-10.083 12.131-1.017-12.131h-2.221c-3.327 0-6.037-2.708-6.037-6.037l-3.62-29.915c.071-3.268 2.752-5.902 6.034-5.902h53.648c3.271 0 5.94 2.611 6.034 5.858l-1.179 7.271h4.893l1.088-6.707.03-.387c0-5.991-4.874-10.865-10.866-10.865h-53.647c-5.992 0-10.866 4.874-10.866 10.865l3.625 29.938c.071 5.154 3.751 9.453 8.623 10.478l1.651 19.692 16.176-19.46h3.459c-.023-.238-.049-.477-.054-.719z"/></g></svg>