<svg enable-background="new 0 0 87.318 83.411" height="83.411" viewBox="0 0 87.318 83.411" width="87.318" xmlns="http://www.w3.org/2000/svg"><g fill="#889597"><path d="m82.989 10.083h-78.661c-2.338 0-4.235 1.897-4.235 4.235v12.248h87.132v-12.247c0-2.338-1.896-4.236-4.236-4.236zm-1.301 11.012c.516.516.516 1.349 0 1.862-.512.515-1.348.516-1.861 0l-2.77-2.769-2.77 2.769c-.516.516-1.35.515-1.863 0-.514-.514-.514-1.347 0-1.862l2.77-2.769-2.771-2.771c-.512-.516-.512-1.349 0-1.862.516-.515 1.35-.516 1.863 0l2.771 2.771 2.77-2.771c.514-.516 1.35-.515 1.861 0 .516.514.516 1.347 0 1.862l-2.77 2.771z"/><path d="m.093 30.052v39.04c0 2.338 1.897 4.235 4.235 4.235h78.661c2.34 0 4.236-1.897 4.236-4.235v-39.04zm80.197 35.705h-73.26v-28.137h73.26z"/><path d="m11.052 41.882h65.652v5.395h-65.652z"/><path d="m11.052 50.898h46.211v5.396h-46.211z"/></g></svg>