<?xml version="1.0" encoding="utf-8"?>
<!-- Generator: Adobe Illustrator 15.1.0, SVG Export Plug-In . SVG Version: 6.00 Build 0)  -->
<!DOCTYPE svg PUBLIC "-//W3C//DTD SVG 1.1//EN" "http://www.w3.org/Graphics/SVG/1.1/DTD/svg11.dtd">
<svg version="1.1" id="Layer_1" xmlns="http://www.w3.org/2000/svg" xmlns:xlink="http://www.w3.org/1999/xlink" x="0px" y="0px"
	 width="87.318px" height="83.411px" viewBox="0 0 87.318 83.411" enable-background="new 0 0 87.318 83.411" xml:space="preserve">
<g id="PANEL">
	<path fill="#1B82D7" d="M77.591,70.883c0,2.082-1.688,3.771-3.77,3.771H3.802c-2.083,0-3.77-1.689-3.77-3.771V22.221
		c0-2.081,1.687-3.77,3.77-3.77h70.021c2.082,0,3.77,1.689,3.77,3.77L77.591,70.883L77.591,70.883z"/>
	<path fill="#1B82D7" d="M83.517,8.756h-70.02c-2.083,0-3.771,1.688-3.771,3.77v1.616H78.13c2.082,0,3.771,1.689,3.771,3.77v47.047
		h1.617c2.08,0,3.77-1.688,3.77-3.77V12.526C87.286,10.444,85.597,8.756,83.517,8.756z"/>
</g>
</svg>
