<svg enable-background="new 0 0 87.318 83.411" height="83.411" viewBox="0 0 87.318 83.411" width="87.318" xmlns="http://www.w3.org/2000/svg"><g fill="#889597"><path d="m77.591 70.883c0 2.082-1.688 3.771-3.77 3.771h-70.019c-2.083 0-3.77-1.689-3.77-3.771v-48.662c0-2.081 1.687-3.77 3.77-3.77h70.021c2.082 0 3.77 1.689 3.77 3.77z"/><path d="m83.517 8.756h-70.02c-2.083 0-3.771 1.688-3.771 3.77v1.616h68.404c2.082 0 3.771 1.689 3.771 3.77v47.047h1.617c2.08 0 3.77-1.688 3.77-3.77v-48.663c-.002-2.082-1.691-3.77-3.771-3.77z"/></g></svg>