<?xml version="1.0" encoding="utf-8"?>
<!-- Generator: Adobe Illustrator 15.1.0, SVG Export Plug-In . SVG Version: 6.00 Build 0)  -->
<!DOCTYPE svg PUBLIC "-//W3C//DTD SVG 1.1//EN" "http://www.w3.org/Graphics/SVG/1.1/DTD/svg11.dtd">
<svg version="1.1" id="Layer_1" xmlns="http://www.w3.org/2000/svg" xmlns:xlink="http://www.w3.org/1999/xlink" x="0px" y="0px"
	 width="87.318px" height="83.411px" viewBox="0 0 87.318 83.411" enable-background="new 0 0 87.318 83.411" xml:space="preserve">
<g id="MENU">
	<path fill="#27AAE1" d="M84.43,30.728H2.888c-1.584,0-2.867,1.283-2.867,2.868v16.291c0,1.582,1.282,2.867,2.867,2.867H84.43
		c1.582,0,2.864-1.285,2.864-2.867V33.596C87.296,32.011,86.012,30.728,84.43,30.728z"/>
	<path fill="#27AAE1" d="M84.43,57.887c0.329,0,0.604,0.27,0.604,0.604v16.291c0,0.334-0.272,0.604-0.604,0.604H2.888
		c-0.333,0-0.604-0.27-0.604-0.604V58.493c0-0.336,0.271-0.604,0.604-0.604L84.43,57.887 M84.43,55.624H2.888
		c-1.584,0-2.867,1.283-2.867,2.869v16.291c0,1.582,1.282,2.866,2.867,2.866H84.43c1.582,0,2.864-1.284,2.864-2.866V58.493
		C87.296,56.907,86.012,55.624,84.43,55.624L84.43,55.624z"/>
	<path fill="#27AAE1" d="M84.43,5.76H2.888c-1.584,0-2.867,1.283-2.867,2.868v0.073v16.218v0.072c0,1.584,1.282,2.868,2.867,2.868
		H84.43c1.582,0,2.864-1.284,2.864-2.868v-0.072V8.702V8.628C87.296,7.043,86.012,5.76,84.43,5.76z M30.036,23.685l-0.913-9.297
		l-2.243,9.297h-2.966l-2.336-9.297l-0.818,9.297h-2.623l1.216-13.917h3.706l2.32,9.505l2.302-9.505h3.687l1.293,13.917H30.036z
		 M43.305,12.278H37.81c-0.47,0-0.761,0.114-0.873,0.342c-0.077,0.178-0.115,0.419-0.115,0.723v2.167l5.627,0.191v2.204
		l-5.627,0.171v2.168c0,0.48,0.133,0.773,0.398,0.874c0.191,0.076,0.45,0.115,0.779,0.115h5.305v2.186
		c-0.635,0.088-2.199,0.178-4.697,0.267l-1.235,0.056c-0.102,0-0.219,0-0.351,0c-0.133,0-0.309-0.008-0.522-0.027
		c-0.216-0.019-0.475-0.086-0.78-0.201c-0.305-0.112-0.569-0.267-0.798-0.455c-0.506-0.455-0.763-1.159-0.763-2.108V12.66
		c0-1.152,0.345-1.944,1.028-2.375c0.317-0.191,0.63-0.324,0.94-0.399c0.311-0.076,0.558-0.115,0.741-0.115
		c0.187,0,1.102,0.023,2.747,0.066c1.646,0.046,2.878,0.124,3.689,0.238L43.305,12.278L43.305,12.278z M55.872,23.685H53.21
		l-5.533-8.898v8.898h-2.68V9.768h2.699l5.514,8.991V9.768h2.662V23.685z M68.514,17.601c0,1.989-0.291,3.436-0.875,4.337
		c-0.191,0.313-0.375,0.571-0.56,0.768c-0.188,0.197-0.42,0.368-0.707,0.513c-0.283,0.146-0.526,0.255-0.729,0.325
		c-0.203,0.068-0.476,0.123-0.818,0.16c-0.43,0.052-0.955,0.075-1.578,0.075h-0.266c-1.521,0-2.533-0.158-3.043-0.475
		c-0.228-0.152-0.492-0.376-0.797-0.675c-0.304-0.297-0.533-0.663-0.685-1.094c-0.379-1.064-0.572-2.377-0.572-3.935V9.768h2.664
		v7.833c0,1.217,0.119,2.111,0.359,2.679c0.217,0.509,0.641,0.831,1.275,0.971c0.278,0.052,0.682,0.076,1.207,0.076
		c0.524,0,0.967-0.094,1.319-0.284c0.746-0.405,1.123-1.553,1.123-3.441V9.768h2.681L68.514,17.601L68.514,17.601z"/>
</g>
</svg>
