<?xml version="1.0" encoding="utf-8"?>
<!-- Generator: Adobe Illustrator 15.1.0, SVG Export Plug-In . SVG Version: 6.00 Build 0)  -->
<!DOCTYPE svg PUBLIC "-//W3C//DTD SVG 1.1//EN" "http://www.w3.org/Graphics/SVG/1.1/DTD/svg11.dtd">
<svg version="1.1" id="Layer_1" xmlns="http://www.w3.org/2000/svg" xmlns:xlink="http://www.w3.org/1999/xlink" x="0px" y="0px"
	 width="87.318px" height="83.411px" viewBox="0 0 87.318 83.411" enable-background="new 0 0 87.318 83.411" xml:space="preserve">
<g id="MISC">
	<path fill="#27AAE1" d="M84.444,69.508L66.802,51.868c3.58-4.729,5.705-10.614,5.705-16.987c0-15.556-12.653-28.211-28.211-28.211
		c-15.556,0-28.209,12.655-28.209,28.211c0,15.556,12.653,28.209,28.209,28.209c6.134,0,11.808-1.973,16.441-5.307L78.452,75.5
		c0.828,0.826,1.914,1.24,2.996,1.24c1.086,0,2.17-0.414,2.998-1.24C86.098,73.846,86.098,71.163,84.444,69.508z M24.56,34.88
		c0-10.883,8.852-19.737,19.735-19.737s19.736,8.854,19.736,19.737c0,10.884-8.854,19.736-19.736,19.736
		C33.412,54.618,24.56,45.764,24.56,34.88z"/>
	<path fill="#27AAE1" d="M55.397,43.043c0,1.996-1.617,3.613-3.611,3.613H35.531c-1.996,0-3.613-1.617-3.613-3.613V26.788
		c0-1.994,1.617-3.611,3.613-3.611h16.255c1.994,0,3.611,1.617,3.611,3.611V43.043z"/>
	<path fill="#27AAE1" d="M76.137,34.88c0,2.746-0.416,5.394-1.15,7.904h9.83c1.336,0,2.422-1.083,2.422-2.421V29.468
		c0-1.337-1.086-2.421-2.422-2.421h-9.793C75.743,29.536,76.137,32.163,76.137,34.88z"/>
	<path fill="#27AAE1" d="M12.454,34.88c0-2.712,0.394-5.331,1.109-7.816c-0.058-0.004-0.111-0.017-0.168-0.017H2.5
		c-1.338,0-2.421,1.084-2.421,2.421v10.896c0,1.337,1.083,2.421,2.421,2.421h10.896c0.063,0,0.125-0.015,0.188-0.02
		C12.854,40.262,12.454,37.618,12.454,34.88z"/>
</g>
</svg>
