<?xml version="1.0" encoding="utf-8"?>
<!-- Generator: Adobe Illustrator 15.1.0, SVG Export Plug-In . SVG Version: 6.00 Build 0)  -->
<!DOCTYPE svg PUBLIC "-//W3C//DTD SVG 1.1//EN" "http://www.w3.org/Graphics/SVG/1.1/DTD/svg11.dtd">
<svg version="1.1" id="Layer_1" xmlns="http://www.w3.org/2000/svg" xmlns:xlink="http://www.w3.org/1999/xlink" x="0px" y="0px"
	 width="87.318px" height="83.411px" viewBox="0 0 87.318 83.411" enable-background="new 0 0 87.318 83.411" xml:space="preserve">
<g id="MULTIMEDIA">
	<path fill="#27AAE1" d="M60.707,28.371c12.215,0,22.152,9.938,22.152,22.153s-9.938,22.15-22.152,22.15
		c-12.213,0-22.149-9.937-22.149-22.15C38.556,38.308,48.494,28.371,60.707,28.371 M60.707,23.941
		c-14.68,0-26.581,11.9-26.581,26.583c0,14.682,11.901,26.582,26.581,26.582c14.683,0,26.583-11.9,26.583-26.582
		C87.29,35.841,75.388,23.941,60.707,23.941L60.707,23.941z"/>
	<path fill="#27AAE1" d="M32.536,63.922H7.782c-1.834,0-3.324-1.49-3.324-3.322V14.058c0-1.833,1.49-3.322,3.324-3.322h65.682
		c1.832,0,3.321,1.489,3.321,3.322v9.9c1.578,0.989,3.063,2.109,4.431,3.354V14.058c0-4.282-3.47-7.753-7.752-7.753H7.782
		c-4.283,0-7.754,3.471-7.754,7.753V60.6c0,4.281,3.472,7.753,7.754,7.753h27.424C34.199,66.958,33.303,65.479,32.536,63.922z"/>
	<path fill="#27AAE1" d="M55.576,63.988c-0.939,0.618-2.298,0.013-2.298-0.769v-25.22c0-0.78,1.171-1.674,2.222-0.889l18.757,12.201
		c0.688,0.52,0.702,1.686,0.025,2.127"/>
	<path fill="#27AAE1" d="M28.281,18.476c-2.846,0-4.431-1.261-4.431-1.261l0.826,27.295c-2.091-0.625-4.807-0.346-7.38,0.961
		c-4.284,2.173-6.534,6.347-5.026,9.324c1.509,2.976,6.207,3.627,10.492,1.453c3.178-1.611,5.233-4.326,5.468-6.836h0.027V22.014
		c0,0,1.061,0.02,2.483-1.344c1.661-1.59,2.562-4.592,2.562-4.592S30.762,18.476,28.281,18.476z"/>
</g>
</svg>
