<svg width="87" height="16" viewBox="0 0 87 16" fill="none" xmlns="http://www.w3.org/2000/svg">
<path fill-rule="evenodd" clip-rule="evenodd" d="M14.7146 7.90211C14.6419 4.20105 11.7967 1.19474 8.29614 1.19474C4.79324 1.19395 2.02219 4.27842 2.02219 7.97947H0.782715C0.782715 3.89237 3.84587 0.576579 7.71193 0.5C11.578 0.5 14.788 3.81579 14.788 7.90211H14.7146Z" fill="#191919"/>
<path fill-rule="evenodd" clip-rule="evenodd" d="M14.9078 7.63672C14.9078 4.62883 12.6467 2.23909 9.80227 2.23909C6.95701 2.23909 4.91543 4.62962 4.91543 7.63672H3.52832C3.52832 4.24356 6.15411 1.54435 9.36332 1.46777C12.4999 1.46777 15.0531 4.55146 15.1265 7.55935L14.907 7.63672H14.9078Z" fill="#191919"/>
<path fill-rule="evenodd" clip-rule="evenodd" d="M14.6434 7.62361C14.6434 5.4644 12.8923 3.69045 10.7773 3.69045C8.66234 3.69045 7.12998 5.4644 7.12998 7.70097H5.81787C5.81787 5.07834 7.71419 2.91992 10.1939 2.91992C12.6744 2.91992 14.6434 5.07834 14.7168 7.62361H14.6434Z" fill="#191919"/>
<mask id="mask0_1676_2195" style="mask-type:alpha" maskUnits="userSpaceOnUse" x="0" y="8" width="15" height="8">
<path d="M0.782715 8.02051V15.5H14.8606V8.02051H0.782715Z" fill="#191919"/>
</mask>
<g mask="url(#mask0_1676_2195)">
<path fill-rule="evenodd" clip-rule="evenodd" d="M0.928767 8.09788C0.928767 11.7989 3.77324 14.806 7.27456 14.806C10.8485 14.806 13.6211 11.7223 13.6211 8.02051H14.8606C14.8606 12.1076 11.724 15.5 7.85798 15.5C3.99193 15.5 0.855346 12.1842 0.782715 8.09788H0.928767Z" fill="#191919"/>
</g>
<mask id="mask1_1676_2195" style="mask-type:alpha" maskUnits="userSpaceOnUse" x="0" y="8" width="13" height="7">
<path d="M0.782715 8.02051V14.1895H12.3075V8.02051H0.782715Z" fill="#191919"/>
</mask>
<g mask="url(#mask1_1676_2195)">
<path fill-rule="evenodd" clip-rule="evenodd" d="M0.928767 8.02051C0.928767 11.0284 3.18982 13.4181 6.03429 13.4181C8.87956 13.4181 10.9946 11.0276 10.9211 8.02051H12.3075C12.3075 11.4137 9.68166 14.1895 6.54508 14.1895C3.33587 14.1895 0.782715 11.1058 0.782715 8.09788L0.929557 8.02051H0.928767Z" fill="#191919"/>
</g>
<path fill-rule="evenodd" clip-rule="evenodd" d="M0.782715 7.83597C0.855346 9.99439 2.6064 11.7675 4.64877 11.7675C6.76456 11.7675 8.29614 9.99439 8.29614 7.7586H9.60824C9.60824 10.3797 7.71193 12.5397 5.23219 12.5397C2.75245 12.5397 0.782715 10.457 0.782715 7.83597ZM21.8238 13.4199L22.4798 11.8781H26.1272L26.3459 13.4199H29.9932L27.9509 1.46729H24.2301L18.1748 13.4199H21.8222H21.8238ZM25.9085 9.41018H23.574L25.4703 5.09176L25.9085 9.41018ZM31.4506 13.4199L33.4203 1.46807H37.1403L35.1706 13.4199H31.4506ZM40.9748 13.4199L41.6317 9.25623H43.0906C43.528 9.25623 43.8927 9.3336 44.1114 9.41018C44.3301 9.56492 44.4761 9.71886 44.5496 9.95018C44.6222 10.1815 44.6222 10.4894 44.5496 10.8754L44.4761 11.8007C44.3301 12.572 44.3301 13.1112 44.3301 13.4199H48.1235V13.0347C48.0509 13.0347 47.9048 13.0347 47.9048 12.9573C47.8322 12.8807 47.8322 12.726 47.9048 12.4173L48.1969 10.5668C48.2696 9.71886 48.2696 9.10228 48.0509 8.7936C47.8322 8.40834 47.394 8.09886 46.7372 7.79097C47.1027 7.71439 47.394 7.55965 47.6861 7.40571C48.0509 7.09781 48.3422 6.78834 48.5609 6.40307C48.853 5.94044 48.999 5.47781 49.1451 4.86044C49.2177 4.3986 49.2177 4.01255 49.1451 3.70465C49.0828 3.37589 48.9588 3.06192 48.7796 2.77939C48.5765 2.48733 48.3309 2.22734 48.0509 2.00807C47.6861 1.85334 47.3214 1.69939 46.8114 1.62202C46.1594 1.52056 45.5007 1.4691 44.8409 1.46807H39.3698L37.4009 13.4207H40.9756L40.9748 13.4199ZM42.4338 4.3986H44.2575C44.8417 4.3986 45.2064 4.47518 45.4251 4.7065C45.5703 4.86044 45.6438 5.16992 45.5703 5.47781C45.4977 5.86307 45.3517 6.17176 45.0603 6.32571C44.8409 6.55702 44.4035 6.6336 43.8201 6.6336H42.069L42.4338 4.3986ZM56.1248 8.40755C56.8551 8.40755 57.2932 8.56228 57.5119 8.71623C57.7306 8.94676 57.8032 9.17886 57.7306 9.56413C57.6572 9.87202 57.5119 10.1807 57.2198 10.412C56.9277 10.5668 56.4903 10.7207 55.7609 10.7207H54.2293L54.594 8.40755H56.1256H56.1248ZM55.9069 13.4199C56.7817 13.4199 57.3659 13.3425 57.7306 13.266C58.1303 13.1722 58.5207 13.043 58.8974 12.8799C59.3348 12.6486 59.6269 12.4947 59.8456 12.2633C60.2103 12.032 60.4298 11.646 60.6477 11.2607C60.9128 10.8387 61.0868 10.366 61.1585 9.87281C61.2311 9.17886 61.1585 8.56228 60.9398 8.09886C60.6477 7.55965 60.2838 7.25097 59.7003 7.09623C60.7938 6.40307 61.4506 5.55439 61.5967 4.55176C61.8153 3.47255 61.5232 2.70202 60.7211 2.16202C60.1369 1.69939 59.1896 1.46729 57.7306 1.46729H52.1869L50.2172 13.4199H55.9069ZM56.4903 4.1665C57.0003 4.1665 57.3659 4.24386 57.5119 4.24386C57.6066 4.27612 57.694 4.32675 57.769 4.39287C57.8441 4.45898 57.9054 4.53927 57.9493 4.62913C58.0953 4.78307 58.0953 5.01439 58.0953 5.24571C58.0219 5.55439 57.8767 5.78571 57.5846 6.01702C57.3659 6.17176 56.9277 6.32492 56.3451 6.32492H54.958L55.3235 4.1665H56.4903ZM64.3748 1.46807H68.0222L66.7827 8.87018C66.7093 9.33281 66.7093 9.71807 66.7827 9.94939C66.8553 10.1807 67.0014 10.4128 67.2927 10.5668C67.5848 10.7207 67.8769 10.7981 68.2409 10.7981C68.7517 10.7981 69.2625 10.6433 69.5538 10.3354C69.9185 10.0275 70.138 9.48676 70.2832 8.87018L71.5227 1.46807H75.1701L74.0032 8.48492C73.858 9.33281 73.7111 10.0268 73.4932 10.5668C73.2713 11.0464 72.9759 11.4886 72.6177 11.8773C72.253 12.2633 71.8156 12.6486 71.3782 12.8799C70.8799 13.1882 70.3392 13.422 69.7732 13.5739C69.1164 13.6512 68.4595 13.7286 67.8035 13.7286C67.0014 13.7286 66.3446 13.6512 65.7611 13.5739C65.1769 13.4199 64.7396 13.1886 64.3748 12.8799C63.9375 12.572 63.6461 12.2633 63.4267 11.8773C63.208 11.492 63.0619 10.952 63.0619 10.3354C62.9893 9.94939 63.0619 9.25544 63.208 8.40755L64.3748 1.46807ZM86.6459 5.2465H83.0711C83.0711 4.93781 82.9251 4.62992 82.779 4.47518C82.5603 4.32123 82.2682 4.24386 81.8317 4.24386C81.3935 4.24386 81.0288 4.32123 80.8101 4.47518C80.5914 4.62992 80.518 4.78386 80.4453 5.01518C80.4453 5.2465 80.4453 5.32307 80.5914 5.47781C80.7367 5.63176 81.1022 5.78571 81.7582 5.94044L83.1446 6.32571C84.384 6.71176 85.2596 7.17439 85.6969 7.79097C86.1351 8.40834 86.2811 9.1015 86.1351 9.95018C85.989 10.6441 85.7703 11.1841 85.4056 11.7233C85.0409 12.2633 84.6027 12.726 84.1661 13.0339C83.728 13.3433 83.1446 13.5747 82.4877 13.806C81.8309 13.9599 81.1022 14.0373 80.3719 14.0373C79.6432 14.0373 78.9138 13.9599 78.2569 13.7286C77.6009 13.4973 77.0901 13.1886 76.7253 12.8033C76.3606 12.4173 76.0685 11.9547 75.9224 11.4154C75.8498 11.0294 75.8498 10.5668 75.8498 10.0268H79.4246C79.4246 10.4128 79.5698 10.7215 79.7885 10.8754C80.008 11.1068 80.4453 11.1833 81.028 11.1833C81.5396 11.1833 81.9043 11.1068 82.123 10.952C82.3417 10.7981 82.4151 10.6441 82.4877 10.4128C82.4877 10.1815 82.4877 9.95018 82.3417 9.79544C82.1956 9.64149 81.8309 9.48755 81.1748 9.3336L79.9353 9.02571C79.3511 8.87097 78.6943 8.63886 78.1835 8.33097C77.6735 8.02307 77.2361 7.63623 77.0174 7.09702C76.798 6.63439 76.798 6.09439 76.8714 5.40044C77.0174 4.70728 77.2361 4.16729 77.6009 3.62729C77.941 3.12318 78.3896 2.70157 78.9138 2.39334C79.3511 2.00807 79.9346 1.85334 80.518 1.69939C81.0889 1.54679 81.6773 1.46903 82.2682 1.46807C82.9985 1.46807 83.5819 1.54544 84.1653 1.69939C84.7495 1.85334 85.1127 2.08465 85.4782 2.31597C85.7703 2.54807 85.989 2.85597 86.1351 3.16465C86.353 3.47255 86.4272 3.78123 86.499 4.08992C86.5724 4.39781 86.6451 4.78386 86.6451 5.2465" fill="#191919"/>
</svg>
