<svg width="81" height="30" viewBox="0 0 81 30" fill="none" xmlns="http://www.w3.org/2000/svg">
<path d="M7.5785 7.45714L6.02279 3.58L4.47493 7.45714H7.57922H7.5785ZM41.8692 5.91429C41.5564 6.10786 41.1871 6.11429 40.7442 6.11429H37.9814V3.95429H40.7814C41.1785 3.95429 41.5914 3.97286 41.8599 4.13C42.1556 4.27143 42.3385 4.57286 42.3385 4.99C42.3385 5.415 42.1642 5.75643 41.8692 5.91429ZM61.5778 7.45786L60.0035 3.58071L58.4392 7.45786H61.5778ZM24.8399 11.655H22.5085L22.4999 4.03714L19.2028 11.6543H17.2056L13.8999 4.03V11.6543H9.27422L8.40064 9.485H3.66493L2.78207 11.6543H0.312073L4.38564 1.92857H7.76422L11.6321 11.1364V1.92857H15.3435L18.3199 8.52643L21.0528 1.92857H24.8385V11.6543H24.8392L24.8399 11.655ZM34.1321 11.655H26.5342V1.92857H34.1314V3.95357H28.8085V5.70714H34.0035V7.70143H28.8085V9.64286H34.1314V11.6543L34.1321 11.655ZM44.8428 4.54786C44.8428 6.09929 43.8306 6.9 43.2406 7.14071C43.7385 7.33429 44.1635 7.67643 44.3656 7.96C44.6871 8.44357 44.7421 8.87571 44.7421 9.74429V11.655H42.4485L42.4399 10.4286C42.4399 9.84286 42.4942 9.00143 42.0806 8.53357C41.7485 8.19143 41.2421 8.11714 40.4235 8.11714H37.9821V11.655H35.7071V1.92857H40.9378C42.0999 1.92857 42.9564 1.96 43.6914 2.39429C44.4114 2.82857 44.8421 3.46286 44.8421 4.54786H44.8428ZM48.4821 11.655H46.1621V1.92857H48.4821V11.6543V11.655ZM75.4021 11.655H72.1792L67.8692 4.355V11.655H63.2378L62.3521 9.48571H57.6285L56.7699 11.655H54.1092C53.0035 11.655 51.6042 11.405 50.8114 10.5793C50.0121 9.75357 49.5964 8.635 49.5964 6.86643C49.5964 5.42357 49.8449 4.105 50.8221 3.06357C51.5571 2.28571 52.7078 1.92857 54.2749 1.92857H56.4771V4.01214H54.3214C53.4914 4.01214 53.0228 4.13857 52.5714 4.58857C52.1835 4.99786 51.9178 5.77214 51.9178 6.79143C51.9178 7.83357 52.1206 8.58429 52.5428 9.07572C52.8928 9.46071 53.5292 9.57714 54.1285 9.57714H55.1499L58.3535 1.92857H61.7606L65.6114 11.1279V1.92857H69.0742L73.0714 8.70214V1.92857H75.4007V11.6543L75.4021 11.655ZM0.285645 13.5643H4.17136L5.04779 11.4043H7.00922L7.88279 13.5643H15.5278V11.9129L16.2099 13.5714H20.1792L20.8614 11.8879V13.5643H39.8614L39.8521 10.0186H40.2199C40.4771 10.0271 40.5521 10.0521 40.5521 10.4864V13.565H50.3785V12.7386C51.1714 13.1729 52.4042 13.5643 54.0264 13.5643H58.1606L59.0449 11.4043H61.0064L61.8721 13.5643H69.8385V11.5121L71.0449 13.5643H77.4285V0H71.1106V1.60214L70.2256 0H63.7428V1.60214L62.9306 0H54.1735C52.7078 0 51.4199 0.209286 50.3785 0.792143V0H44.3356V0.792143C43.6735 0.191429 42.7714 0 41.7678 0H19.6906L18.2092 3.50357L16.6878 0H9.73422V1.60214L8.96993 0H3.03993L0.285645 6.44929V13.5643ZM80.2856 20.4314H76.1749C75.7649 20.4314 75.4921 20.4471 75.2621 20.6071C75.0242 20.7643 74.9328 20.9979 74.9328 21.3064C74.9328 21.6729 75.1335 21.9229 75.4256 22.0307C75.6642 22.1157 75.9192 22.1407 76.2949 22.1407L77.5178 22.1743C78.7514 22.2057 79.5749 22.4243 80.0764 22.9564C80.1678 23.0307 80.2228 23.1136 80.2856 23.1971V20.4314ZM80.2856 26.8407C79.7378 27.6657 78.6699 28.0836 77.2249 28.0836H72.8692V26H77.2071C77.6378 26 77.9385 25.9414 78.1199 25.7593C78.2771 25.6093 78.3871 25.3907 78.3871 25.125C78.3871 24.8421 78.2771 24.6179 78.1114 24.4821C77.9471 24.3343 77.7092 24.2664 77.3164 24.2664C75.1992 24.1929 72.5571 24.3343 72.5571 21.2579C72.5571 19.8479 73.4264 18.3636 75.7928 18.3636H80.2856V16.4286H76.1114C74.8514 16.4286 73.9364 16.7393 73.2885 17.2221V16.4286H67.1149C66.1278 16.4286 64.9685 16.6807 64.4206 17.2221V16.4286H53.3956V17.2221C52.5178 16.5714 51.0378 16.4286 50.3542 16.4286H43.0821V17.2221C42.3878 16.53 40.8442 16.4286 39.9035 16.4286H31.7642L29.9021 18.505L28.1571 16.4286H15.9999V29.9929H27.9285L29.8478 27.8843L31.6556 29.9936L39.0085 30V26.8093H39.7314C40.7071 26.8243 41.8578 26.7843 42.8728 26.3321V29.9929H48.9378V26.4571H49.2306C49.6042 26.4571 49.6406 26.4736 49.6406 26.8571V29.9929H68.0649C69.2342 29.9929 70.4578 29.6843 71.1342 29.125V29.9929H76.9785C78.1942 29.9929 79.3821 29.8171 80.2856 29.3671V26.8407ZM71.2892 22.9564C71.7285 23.425 71.9635 24.0157 71.9635 25.0164C71.9635 27.1079 70.6949 28.0843 68.4206 28.0843H64.0278V25.9993H68.4028C68.8306 25.9993 69.1342 25.9407 69.3242 25.7586C69.4792 25.6086 69.5906 25.39 69.5906 25.1243C69.5906 24.8414 69.4699 24.6171 69.3156 24.4814C69.1428 24.3336 68.9049 24.2657 68.5121 24.2657C66.4028 24.1921 63.7621 24.3336 63.7621 21.2571C63.7621 19.8471 64.6214 18.3629 66.9864 18.3629H71.5078V20.4321H67.3706C66.9599 20.4321 66.6935 20.4479 66.4664 20.6071C66.2199 20.7643 66.1278 20.9986 66.1278 21.3071C66.1278 21.6736 66.3378 21.9229 66.6214 22.0307C66.8592 22.1164 67.1149 22.1414 67.4999 22.1414L68.7135 22.175C69.9378 22.2057 70.7778 22.4236 71.2892 22.9564ZM50.9378 22.3564C50.6356 22.5407 50.2628 22.5564 49.8235 22.5564H47.0842V20.3729H49.8614C50.2628 20.3729 50.6649 20.3821 50.9378 20.5486C51.2299 20.7057 51.4049 21.0071 51.4049 21.4236C51.4049 21.8393 51.2299 22.1743 50.9378 22.3564ZM52.2999 23.5664C52.8021 23.7571 53.2121 24.0993 53.4042 24.3821C53.7228 24.8571 53.7685 25.3 53.7785 26.1571V28.0843H51.5142V26.8679C51.5142 26.2829 51.5685 25.4171 51.1499 24.965C50.8199 24.6164 50.3178 24.5336 49.4949 24.5336H47.0842V28.0836H44.8178V18.3621H50.0249C51.1671 18.3621 51.9985 18.4143 52.7392 18.8214C53.4506 19.2643 53.8985 19.8714 53.8985 20.98C53.8985 22.5314 52.8935 23.3229 52.2999 23.5657V23.5664ZM55.1492 18.3621H62.6764V20.3729H57.3949V22.14H62.5478V24.1236H57.3949V26.0579L62.6764 26.0671V28.0843H55.1492V18.3629V18.3621ZM39.9321 22.8486H37.0178V20.3729H39.9585C40.7728 20.3729 41.3371 20.715 41.3371 21.5657C41.3371 22.4057 40.7985 22.8486 39.9321 22.8486ZM34.7706 27.2L31.3085 23.24L34.7706 19.4057V27.2ZM25.8285 26.0571H20.2842V24.1229H25.2356V22.1393H20.2842V20.3721H25.9385L28.4056 23.205L25.8292 26.0571H25.8285ZM43.7599 21.5643C43.7599 24.2643 41.8035 24.8229 39.8321 24.8229H37.0178V28.0836H32.6342L29.8571 24.8657L26.9714 28.0843H18.0356V18.3629H27.1071L29.8821 21.5486L32.7506 18.3629H39.9578C41.7471 18.3629 43.7578 18.8729 43.7578 21.565L43.7599 21.5643Z" fill="#191919"/>
</svg>
