<svg width="64" height="26" viewBox="0 0 64 26" fill="none" xmlns="http://www.w3.org/2000/svg">
<mask id="mask0_1676_2216" style="mask-type:alpha" maskUnits="userSpaceOnUse" x="0" y="6" width="16" height="17">
<path d="M0.249512 6.77344V22.2007H15.0503V6.77344H0.249512Z" fill="#191919"/>
</mask>
<g mask="url(#mask0_1676_2216)">
<path fill-rule="evenodd" clip-rule="evenodd" d="M3.32508 13.1058C3.32508 13.1058 3.53493 8.9467 7.74402 8.94519C11.9372 8.94367 11.9372 13.1058 11.9372 13.1058H3.32584H3.32508ZM7.81675 6.77246C0.499322 6.7717 0.214473 13.124 0.251595 14.7732C0.251595 14.7732 -0.106739 22.2005 7.6372 22.2005C14.291 22.2005 14.6183 17.5399 14.6183 17.5399L11.5577 17.5475C11.5577 17.5475 10.9614 20.1141 7.65008 20.0459C3.3925 19.9573 3.22735 15.3581 3.22735 15.3581H15.0205C15.0205 15.3581 15.916 6.77473 7.81599 6.77246H7.81675Z" fill="#191919"/>
</g>
<path fill-rule="evenodd" clip-rule="evenodd" d="M23.0812 19.1545C18.2509 19.2182 18.3297 13.7545 18.3297 13.7545C18.3297 13.7545 18.1532 8.49546 23.0736 8.36061C27.9941 8.225 27.8335 13.8667 27.8335 13.8667C27.8335 13.8667 27.9123 19.0902 23.0812 19.1545ZM23.7842 6.17576C19.9585 6.15303 18.313 8.56288 18.313 8.56288V0.5H15.2471L15.2986 17.5409C15.2986 17.5409 15.2805 19.5258 15.1646 20.8379H18.1426L18.2706 18.9235C18.2706 18.9235 19.66 21.3333 23.7191 21.3333C27.7797 21.3333 30.9858 18.6977 31.0714 13.8106C31.1562 8.92348 27.6092 6.19849 23.7835 6.17576H23.7842ZM37.6888 20.2598C37.6888 20.2598 34.5312 20.2644 34.3456 17.6083C34.1486 14.7735 39.2032 14.9439 39.2032 14.9439L42.7752 14.9409C42.7752 14.9409 43.3532 20.3379 37.6888 20.2598ZM45.9221 18.4144C45.9297 16.1523 45.9926 14.1326 45.9221 12.7076C45.8388 11.0561 45.988 7.06894 39.2032 6.77424C39.2032 6.77424 32.6994 6.15 32.0236 11.2462H35.3502C35.3502 11.2462 35.6085 8.91136 38.9842 8.97879C42.1789 9.04243 42.7608 10.6909 42.7441 12.7197C42.7441 12.7197 40.0062 12.7273 39.0926 12.7326C37.4456 12.7417 31.6835 12.9333 31.1456 16.628C30.5062 21.022 34.2305 22.3924 37.1456 22.375C40.06 22.3576 41.7229 21.4386 42.9577 19.7917L43.0896 21.8371L45.988 21.8205C45.988 21.8205 45.913 20.6765 45.9221 18.4144Z" fill="#191919"/>
<path fill-rule="evenodd" clip-rule="evenodd" d="M43.0054 6.75H46.5031L51.619 17.2682L56.7463 6.75H59.9084L50.6523 25.5H47.2705L49.9486 20.2894L43.0054 6.75ZM62.0986 7.55455V7.1303H61.897V6.97121H62.0986V6.75H62.4637V6.97121H62.891V7.1303H62.4637V7.52576C62.4637 7.59773 62.5357 7.62651 62.6592 7.62651C62.741 7.62651 62.8137 7.61742 62.8864 7.59924V7.75076C62.7955 7.77652 62.6963 7.79167 62.5576 7.79167C62.2879 7.79167 62.0986 7.73182 62.0986 7.55455Z" fill="#191919"/>
<mask id="mask1_1676_2216" style="mask-type:alpha" maskUnits="userSpaceOnUse" x="62" y="6" width="2" height="2">
<path d="M63.7509 7.17748V6.76611H62.8926V7.17748H63.7509Z" fill="#191919"/>
</mask>
<g mask="url(#mask1_1676_2216)">
<path fill-rule="evenodd" clip-rule="evenodd" d="M62.8916 6.77436H63.0211V6.83497C63.0437 6.81213 63.0708 6.79431 63.1007 6.78268C63.1306 6.77106 63.1626 6.7659 63.1946 6.76755C63.2757 6.76755 63.3333 6.79482 63.3628 6.838C63.3881 6.81384 63.4179 6.79497 63.4506 6.78248C63.4832 6.76999 63.518 6.76414 63.553 6.76527C63.6757 6.76527 63.7507 6.82133 63.7507 6.91982V7.1774H63.6219V6.94785C63.6219 6.88346 63.5795 6.84936 63.5068 6.84936C63.4363 6.84936 63.3855 6.88421 63.3855 6.94936V7.17664H63.2568V6.94785C63.2568 6.88497 63.2136 6.85012 63.1431 6.85012C63.0711 6.85012 63.0219 6.888 63.0219 6.95012V7.1774H62.8916V6.77436Z" fill="#191919"/>
</g>
</svg>
