<svg width="64" height="26" viewBox="0 0 64 26" fill="none" xmlns="http://www.w3.org/2000/svg">
<mask id="mask0_1676_2229" style="mask-type:alpha" maskUnits="userSpaceOnUse" x="0" y="0" width="64" height="26">
<path d="M63.9492 26H0.335938V0H63.9492V26Z" fill="#191919"/>
</mask>
<g mask="url(#mask0_1676_2229)">
<path fill-rule="evenodd" clip-rule="evenodd" d="M30.27 8.94496C30.3921 8.81118 30.5978 8.41317 30.5568 8.14728C30.5376 8.01433 30.4757 7.85881 30.331 7.88055C30.0217 7.9466 29.8377 8.1038 29.7566 8.43408C29.6529 8.7886 29.6956 9.03359 29.7566 9.29865C29.7566 9.29865 29.9606 9.32123 30.27 8.94496ZM46.4553 17.523C47.3374 17.4787 48.9571 15.6617 49.3484 15.2177C49.4295 15.1065 49.5741 14.9084 49.6536 14.9084C49.7372 14.9084 49.9011 14.9962 49.9011 15.1274C49.9011 15.2177 49.7171 15.5505 49.5741 15.7495C48.7522 16.8583 47.3985 18.564 45.86 18.6083C45.1016 18.6083 44.8148 18.2772 44.7103 17.6342C44.3633 17.9662 43.1718 18.5431 41.961 18.5431C40.956 18.5205 40.5446 17.8784 40.3414 17.3691C40.1549 16.9469 40.0747 16.3265 40.2185 15.7052C39.6641 16.0163 39.1507 16.0597 38.4124 16.0388C37.552 16.0163 37.0186 15.594 36.7527 14.5104C35.7677 16.4586 35.7259 16.5263 34.7208 18.564H32.9758L35.2125 14.4627C35.5009 13.9108 35.6448 13.4677 35.7451 13.0011C35.7602 12.9402 35.7617 12.8767 35.7495 12.8151C35.7374 12.7536 35.7118 12.6954 35.6748 12.6448C35.6377 12.5942 35.5899 12.5523 35.5349 12.5221C35.4799 12.4919 35.4189 12.4742 35.3563 12.4702C35.0712 12.4702 34.5987 12.7795 34.1456 13.2461C34.1456 13.2461 32.9958 14.5764 32.1555 15.926C31.3562 17.2128 29.9815 18.6777 28.4848 18.6777C27.3962 18.6777 26.4112 18.0339 26.208 16.7922C26.208 16.7922 26.1035 17.0807 25.1402 17.6785C25.0575 17.722 24.8526 17.8541 24.7916 17.8106C24.6059 17.635 24.5048 17.4118 24.4847 17.2563C24.5457 17.278 24.6687 17.1685 25.0575 16.8357C25.8184 16.2144 25.9822 15.7278 25.9822 15.7278C26.167 15.3055 26.4948 14.6416 26.7206 14.1759C27.3351 12.8464 28.4012 11.4944 30.1454 11.4275C30.4331 11.4275 30.515 11.5613 30.576 11.6716C30.7416 11.8054 30.6797 12.0696 30.6797 12.0696C29.4489 12.2686 28.6061 13.0463 28.0944 13.7996C27.7867 14.2879 27.4597 15.084 27.3962 15.6617C27.2749 16.6593 27.7064 17.3257 28.341 17.4787C29.53 17.6785 30.515 16.7479 31.296 15.3047C31.4991 14.9301 31.6446 13.9543 31.6446 13.4217C31.6446 12.8899 31.3771 12.3372 31.1722 12.1148C31.1722 11.7369 31.3971 11.4944 31.6639 11.4944C31.7458 11.4944 31.8269 11.4944 31.9105 11.583C32.3194 12.0253 32.546 12.8682 32.546 13.5128C32.546 13.7319 32.546 13.9543 32.5059 14.1759C33.3671 13.0463 34.4541 11.583 35.2944 11.2929C35.4591 11.2051 35.6239 11.2051 35.7877 11.2051C37.3263 11.1616 37.1206 12.6675 37.1206 12.6675C37.9417 11.6491 38.5161 11.2711 39.2728 11.3154C40.0956 11.3623 40.3832 11.981 40.3832 12.4702C40.3615 13.0463 39.971 13.7093 39.2962 13.7327C38.7009 13.7327 38.3514 13.4217 38.1666 12.8464C37.7778 13.0011 37.593 13.2896 37.5119 13.8665C37.389 14.5956 37.9007 15.1734 38.5571 15.1734C39.685 15.1734 40.1767 14.6416 40.5872 14.2428C41.9819 12.823 42.7629 11.3372 44.7738 11.3623C45.9812 11.3832 46.2914 12.4267 46.4963 12.8682L49.1435 8.03607H50.7623L46.3725 16.4368C46.2914 16.6141 46.0866 16.9469 46.105 17.2128C46.1468 17.6342 46.6393 17.523 46.4553 17.523ZM18.3282 18.6978C16.5447 18.6978 14.9652 17.4352 14.925 15.1734C14.9041 13.7996 15.9292 12.1148 17.8357 11.6047C18.0631 11.6047 18.1459 11.6934 18.1459 11.8272C18.1459 11.915 18.0623 12.0253 17.8783 12.1148C17.3264 12.3372 16.3599 13.5128 16.3599 14.5956C16.3599 15.4176 16.834 16.3265 17.6342 16.5271C17.8566 16.5915 18.0631 16.5706 18.268 16.5706C20.2588 16.5706 22.4947 14.1542 24.9162 10.4751C24.5257 10.4969 22.8617 10.6959 22.4537 11.2051C22.2689 11.3623 22.1468 11.272 22.1042 11.0964C22.1042 11.0512 22.1669 10.8949 22.2296 10.8071C22.8826 10.0094 24.8526 9.83128 25.325 9.76606C27.0926 6.8362 29.3461 4.96908 29.9648 4.8353C29.9523 4.83028 29.9356 4.82443 29.9197 4.82108C28.3402 4.42141 26.9045 4.09113 25.7766 4.09113C21.8166 4.09113 20.054 5.92982 20.1359 7.61549C20.1777 8.3028 20.6894 8.74429 21.4461 8.59044C22.2689 8.43408 23.4169 7.59291 23.7054 6.86128C23.7673 6.70576 23.9312 6.68402 23.9922 6.7275C24.1143 6.83704 24.0733 6.99507 24.0733 6.99507C23.973 7.85881 22.7397 10.2535 20.6067 10.2535C19.4168 10.2535 18.6158 9.05617 18.6392 7.88055C18.6584 5.6865 20.7296 3.46903 25.8384 3.46903C26.8025 3.46903 27.8895 3.55934 29.0793 3.78092C30.4531 4.04598 33.8805 4.66723 36.669 4.71071C37.6942 4.71071 39.0094 4.75587 40.0747 4.57944C41.2026 4.37876 40.956 4.33528 41.4075 4.33528C41.818 4.33528 41.818 4.51171 41.818 4.68897C41.818 5.39803 39.5203 6.75091 37.5721 6.75091C34.7016 6.75091 31.7207 5.34368 30.1739 4.89048C30.2341 4.95152 30.2759 5.04935 30.2282 5.17645C30.1388 5.30592 30.035 5.42485 29.9188 5.53097C29.5091 5.92982 28.1144 6.90727 26.596 9.67826C27.8285 9.61137 29.2633 9.34464 29.2633 9.34464C29.2633 9.34464 29.183 9.05617 29.183 8.81118C29.2449 7.85797 29.7566 7.28103 30.4122 7.39307C30.587 7.42685 30.7445 7.52076 30.8574 7.65852C30.9703 7.79628 31.0313 7.96919 31.0301 8.14728C31.0301 8.52187 30.7608 9.07875 30.4966 9.34464C30.3118 9.49933 30.1053 9.65402 29.8586 9.7878C29.8586 10.032 30.1663 10.2301 30.4331 10.2535C30.372 10.496 30.3913 10.6072 30.2901 10.5855C29.6738 10.5855 29.4272 9.94165 29.4272 9.94165C28.6069 10.0972 27.8084 10.2092 26.1879 10.3848C22.1042 17.523 20.8324 18.6978 18.3282 18.6978ZM32.1522 2.28254C15.7829 2.28254 2.55256 7.09206 2.55256 13.0103C2.55256 18.952 15.7829 23.7632 32.1522 23.7632C48.5022 23.7632 61.7769 18.952 61.7769 13.0103C61.7769 7.09206 48.5022 2.28254 32.1522 2.28254ZM44.8566 12.4024C44.1375 12.313 43.2345 12.9794 42.4945 13.9543C42.1266 14.4418 41.7353 15.3724 41.6751 15.926C41.5931 16.4803 41.7353 17.0372 41.9217 17.1902C42.1057 17.3466 42.9251 17.8106 44.1977 16.4143C44.9168 15.64 45.6133 14.3749 45.6133 14.3749L45.3876 14.3097C45.819 13.4443 45.7379 12.5145 44.8566 12.4033V12.4024ZM32.1513 24.6687C15.2896 24.6687 1.58681 19.4821 1.58681 13.0095C1.58681 6.5586 15.2896 1.30676 32.1513 1.30676C49.0574 1.30676 62.7376 6.55776 62.7376 13.0095C62.7376 19.4813 49.0574 24.6687 32.1513 24.6687ZM32.1513 -0.000976562C14.573 -0.000976562 0.335938 5.82948 0.335938 13.0095C0.335938 20.192 14.573 25.9999 32.1513 25.9999C49.7129 25.9999 63.95 20.1911 63.95 13.0095C63.95 5.82864 49.7129 -0.000976562 32.1513 -0.000976562Z" fill="#191919"/>
</g>
</svg>
