<svg width="51" height="22" viewBox="0 0 51 22" fill="none" xmlns="http://www.w3.org/2000/svg">
<path d="M50.8801 21.9602H43.9579C43.8946 21.9602 43.7785 21.6784 43.7449 21.62C42.7926 19.8894 41.8414 18.1499 40.8946 16.422C39.8817 18.2616 38.8964 20.1321 37.8863 21.974C35.62 21.9795 33.3724 21.963 31.126 21.9685C31.3803 21.489 31.6517 21.0206 31.9231 20.5499C33.8128 17.2609 35.6756 13.9278 37.5681 10.636C35.5561 7.09649 33.5139 3.58451 31.4909 0.0527076C31.4854 0.0527076 31.4717 0.0306889 31.4854 0.0334412H38.44C39.2949 1.59952 40.1283 3.18542 40.9694 4.76306C41.8441 3.19973 42.688 1.60503 43.5539 0.0334412H50.2773C50.2828 0.0609646 50.2635 0.0917908 50.2498 0.11436C48.2874 3.58671 46.2781 7.07117 44.319 10.5496C46.4967 14.3566 48.7162 18.1609 50.8806 21.9602H50.8801Z" fill="#191919"/>
<path d="M34.0766 8.54271C34.2538 9.26712 34.3562 10.0647 34.3562 10.9037C34.3562 13.5206 33.6032 15.4604 32.5573 17.0381C32.38 17.3056 32.2 17.5621 32.0068 17.8071C31.4283 18.5442 30.7481 19.1955 29.9866 19.7414C29.4714 20.1097 28.9352 20.4438 28.3396 20.7257C27.1555 21.2855 25.7249 21.7231 24.0751 21.7231C21.4962 21.7231 19.5921 20.9315 18.0508 19.8449C16.5095 18.755 15.3084 17.3139 14.4915 15.4962C13.9438 14.2786 13.5843 12.8738 13.5425 11.1624C13.5232 10.3152 13.6283 9.47905 13.7803 8.75464C14.1678 6.92598 14.9291 5.49367 15.8919 4.25897C16.8552 3.02702 18.0756 2.0626 19.5503 1.33488C20.1676 1.03287 20.8153 0.797414 21.4824 0.632487C22.187 0.456888 22.9687 0.337437 23.8125 0.337437H23.8263C24.6509 0.298353 25.5251 0.432117 26.2115 0.585147C26.8879 0.739704 27.5464 0.963837 28.1767 1.25397C30.0031 2.08517 31.3644 3.32813 32.4604 4.88045C33.1826 5.89771 33.7248 7.11865 34.0766 8.54271ZM25.7744 15.8061C25.8405 15.5386 25.8212 15.1957 25.8212 14.8417V6.78672C25.8212 6.44102 25.7827 6.17349 25.683 5.92248C25.591 5.69609 25.4556 5.48985 25.2845 5.31532C24.9608 4.98338 24.4737 4.68503 23.8621 4.73237C23.5659 4.75494 23.3199 4.84962 23.1041 4.98614C22.6833 5.2513 22.3847 5.67226 22.2734 6.15698C22.2101 6.42121 22.2129 6.75864 22.2129 7.10709V15.1621C22.2129 15.3349 22.2046 15.5023 22.2267 15.6498C22.2845 16.0737 22.4727 16.4138 22.7193 16.6671C23.0375 16.9935 23.5302 17.2671 24.1665 17.1972C24.9883 17.1074 25.5922 16.5586 25.7739 15.8061H25.7744ZM13.8249 6.01496H6.47117C6.44089 6.93424 6.46566 7.95206 6.4574 8.87739C8.44459 8.89391 10.4621 8.88014 12.463 8.8829V14.8835C10.4483 14.889 8.41707 14.8753 6.41337 14.889C6.41612 17.2693 6.42713 19.6049 6.42713 21.9851C6.42713 21.9934 6.42438 21.9961 6.42162 21.9994H0.292167C0.281158 22.0022 0.281158 21.9939 0.272901 21.9939C0.259139 14.6848 0.259139 7.32948 0.270149 0.0187159C0.270149 0.0110094 0.270149 0 0.275653 0H13.4071C13.4153 0 13.4181 0 13.4208 0.00550468C13.559 2.007 13.6922 4.01071 13.8249 6.01496Z" fill="#191919"/>
</svg>
