<svg width="53" height="34" viewBox="0 0 53 34" fill="none" xmlns="http://www.w3.org/2000/svg">
<path d="M15.8397 14.4214V22.7475H13.1885V12.2826L18.6599 12.2875C20.9841 12.2875 21.7758 13.927 21.7758 15.415V22.7475H19.1303V15.429C19.1303 14.8053 18.8073 14.4214 18.0288 14.4214H15.8389H15.8397ZM33.8614 14.297C32.9551 14.297 32.2548 14.7625 31.9615 15.3944C31.7885 15.7734 31.7283 16.065 31.7086 16.5297H35.786C35.7332 15.3944 35.2183 14.297 33.8614 14.297ZM31.7086 18.334C31.7086 19.6893 32.5506 20.687 34.0558 20.687C35.2257 20.687 35.8082 20.3624 36.4846 19.6893L38.1217 21.2522C37.0737 22.287 35.9738 22.9156 34.036 22.9156C31.4985 22.9156 29.0705 21.5315 29.0705 17.5002C29.0705 14.0547 31.1912 12.1046 33.9767 12.1046C36.8002 12.1046 38.4315 14.3884 38.4315 17.3791V18.3332H31.7086V18.334ZM26.8336 22.7344C24.6751 22.7344 23.7581 21.2316 23.7581 19.747V9.4311H26.4044V12.2817H28.3998V14.4214H26.4036V19.5814C26.4036 20.1894 26.6911 20.5264 27.3222 20.5264H28.399V22.7344H26.8328H26.8336ZM10.8313 10.8358H8.16193V8.30073H10.8313V10.8358ZM10.8379 22.8571C8.83917 22.6652 8.16028 21.4532 8.16028 20.0551L8.16276 12.2826H10.8379V22.8571ZM42.6432 22.6347C40.6494 22.4419 39.9721 21.2316 39.9721 19.8343V7.94069H42.6432V22.6339V22.6347ZM51.9794 9.65931C49.5597 -2.14119 26.6532 -2.88845 11.8884 6.10013V7.09209C26.6375 -0.487651 47.5568 -0.443161 49.4624 10.4255C50.1001 14.0193 48.075 17.7663 44.4582 19.9208V22.7385C48.8116 21.1459 53.2762 15.981 51.9802 9.65931H51.9794ZM25.1405 30.3059C14.9507 31.2476 4.33252 29.7687 2.84623 21.8058C2.11874 17.8809 3.90739 13.7194 6.27936 11.1349V9.75241C2.00916 13.4978 -0.308425 18.2384 1.02544 23.8408C2.72841 31.0235 11.8422 35.0951 25.7519 33.7423C31.2554 33.2051 38.4595 31.4354 43.467 28.6869V24.7817C38.9233 27.4882 31.4037 29.725 25.1405 30.3059Z" fill="#191919"/>
<path d="M45.7301 8.73005C45.7301 8.6007 45.6543 8.5595 45.4813 8.5595H45.3148V8.92613L45.4813 8.93025C45.6543 8.93025 45.7301 8.87258 45.7301 8.75147V8.73005ZM45.9904 9.63879H45.7927C45.7746 9.63879 45.7597 9.62808 45.7515 9.61243L45.4813 9.15517C45.4772 9.14693 45.4533 9.1354 45.4442 9.1354H45.3231V9.58853C45.3231 9.61325 45.3066 9.63879 45.2745 9.63879H45.0957C45.0735 9.63879 45.0512 9.61243 45.0512 9.58936V8.44086C45.0512 8.37495 45.0767 8.34694 45.1336 8.3387C45.1962 8.33046 45.3676 8.3247 45.4599 8.3247C45.7894 8.3247 45.9871 8.42109 45.9871 8.73005V8.75147C45.9871 8.94261 45.8924 9.04312 45.7449 9.09256L46.025 9.56629C46.0267 9.57535 46.0333 9.58853 46.0333 9.59925C46.0333 9.61819 46.0217 9.63879 45.9904 9.63879ZM45.5208 8.11708C45.0347 8.11708 44.6401 8.51913 44.6401 9.00358C44.6401 9.48802 45.0339 9.88349 45.5208 9.88349C46.0053 9.88349 46.4024 9.48802 46.4024 9.00358C46.4024 8.51913 46.0053 8.11708 45.5208 8.11708ZM45.5208 10.0656C44.9293 10.0656 44.458 9.58853 44.458 9.00275C44.458 8.41862 44.9293 7.93994 45.5208 7.93994C46.1058 7.93994 46.5861 8.41862 46.5861 9.00275C46.5861 9.58853 46.1058 10.0656 45.5208 10.0656Z" fill="#191919"/>
</svg>
