<svg width="97" height="18" viewBox="0 0 97 18" fill="none" xmlns="http://www.w3.org/2000/svg">
<path fill-rule="evenodd" clip-rule="evenodd" d="M48.823 5.08533H49.2537V3.29541H47.851C46.0175 3.29541 45.0471 4.30266 45.0471 6.31547V6.53921H43.9678V8.32829H45.0471V14.7036H47.6364V8.32829H49.1465V6.53921H47.6356V6.31547C47.6356 5.53197 48.0663 5.08533 48.8222 5.08533H48.823ZM50.6565 6.53921H49.5772V8.32913H50.6565V12.2425C50.6565 13.9209 51.4115 14.7036 52.9215 14.7036H54.8631V12.8022H54.3243L53.4612 12.6899C53.3531 12.467 53.2458 12.131 53.2458 11.5721V8.32913H54.7559V6.53921H53.2458V3.96663H50.6565V6.53921ZM57.993 3.29541H55.4028V14.7036H57.9921V10.0059C57.9921 8.88806 58.4237 8.32829 59.2868 8.32829C60.0418 8.32829 60.3653 8.88806 60.3653 10.0059V14.7036H62.9546V10.0059C62.9546 8.88806 62.8474 8.10539 62.6312 7.65791C62.0915 6.76295 61.3356 6.31547 60.1499 6.31547C59.0714 6.31547 58.4237 6.65066 57.993 7.43417V3.29541ZM67.3774 11.2361L68.9947 10.7894V11.4606C68.9947 12.5793 68.4559 13.1383 67.1621 13.1383C66.5152 13.1383 66.0836 12.9145 66.0836 12.3548C66.0836 11.7958 66.5152 11.4606 67.3774 11.2369V11.2361ZM67.809 7.99394C68.564 7.99394 68.8883 8.21684 68.8883 8.77577C68.8883 9.11179 68.673 9.3347 68.1341 9.44698L65.8674 9.89363C64.3574 10.3419 63.6015 11.2369 63.6015 12.467C63.6015 13.2497 63.8186 13.8078 64.4655 14.3684C65.0051 14.8159 65.7585 15.0388 66.6224 15.0388C67.4855 15.0388 68.3487 14.7036 69.2126 14.0332L69.3199 14.7036H71.6922L71.4777 13.5857V9.33386C71.4777 7.20959 70.2911 6.20318 67.809 6.20318C65.3286 6.20318 64.0331 7.20875 64.0331 9.11096H66.4071C66.4071 8.43974 66.8378 7.99226 67.809 7.99226V7.99394ZM74.7139 6.53921H72.3408V14.7036H74.9284V10.0059C74.9284 8.88806 75.36 8.32913 76.2239 8.32913C76.9781 8.32913 77.4105 8.88806 77.4105 10.0059V14.7036H79.9999V10.0059C80.0031 9.20289 79.8564 8.40631 79.5675 7.65707C79.0286 6.76295 78.2728 6.31547 77.0854 6.31547C76.2239 6.31547 75.3592 6.65066 74.8203 7.43417L74.7131 6.53921H74.7139ZM83.4515 8.66348C83.4515 8.216 83.7766 7.9931 84.4235 7.9931C85.1777 7.9931 85.502 8.32829 85.6093 9.1118H88.0913L87.659 7.65707C87.2274 6.6515 86.1489 6.20318 84.5308 6.20318C81.9414 6.20318 80.754 7.09814 80.754 8.99951C80.754 10.2297 81.6188 11.0123 83.4523 11.4606H84.2065C85.1769 11.6835 85.7165 12.0196 85.7165 12.467C85.7165 12.9145 85.2858 13.1374 84.4227 13.1374C83.5596 13.1374 83.0199 12.8022 83.0199 12.131V12.0196H80.5395C80.5395 14.0324 81.8334 15.0388 84.6381 15.0388C87.0129 15.0388 88.3059 14.1447 88.3059 12.2425C88.3059 10.9017 87.3347 10.0059 85.502 9.67072L84.6389 9.44698C83.8839 9.33553 83.4515 9.11179 83.4515 8.66432" fill="#191919"/>
<mask id="mask0_1676_2273" style="mask-type:alpha" maskUnits="userSpaceOnUse" x="88" y="6" width="9" height="10">
<path d="M96.8288 15.0397V6.2041H88.7373V15.0397H96.8288Z" fill="#191919"/>
</mask>
<g mask="url(#mask0_1676_2273)">
<path fill-rule="evenodd" clip-rule="evenodd" d="M92.5132 11.237L94.1322 10.7895V11.4616C94.1322 12.5794 93.5925 13.1383 92.297 13.1383C91.6501 13.1383 91.2194 12.9146 91.2194 12.3548C91.2194 11.7959 91.6501 11.4616 92.5132 11.237ZM92.9456 7.99402C93.6998 7.99402 94.0249 8.21692 94.0249 8.77585C94.0249 9.11187 93.8071 9.33561 93.2682 9.4479L91.0024 9.89454C89.4923 10.342 88.7373 11.237 88.7373 12.4671C88.7373 13.2498 88.9527 13.8087 89.6004 14.3693C90.1401 14.816 90.8951 15.0397 91.7582 15.0397C92.6213 15.0397 93.4844 14.7045 94.3475 14.0333L94.4556 14.7037H96.8288L96.6126 13.5858V9.33561C96.6126 7.21051 95.4252 6.2041 92.9456 6.2041C90.5708 6.2041 89.2778 7.21051 89.1697 9.11187H91.5428C91.5428 8.44066 91.9744 7.99402 92.9456 7.99402Z" fill="#191919"/>
</g>
<path fill-rule="evenodd" clip-rule="evenodd" d="M8.69075 1.28267C10.8485 1.28267 12.5748 2.0645 14.0856 3.51922C15.4876 5.0854 16.2426 6.87531 16.2426 8.99958C16.2426 11.1247 15.4884 12.9146 14.0856 14.4799C12.5748 15.9347 10.8485 16.7173 8.79885 16.7173C6.74916 16.7173 5.02293 15.9347 3.51374 14.4799C2.11097 12.9146 1.35595 11.1247 1.35595 8.99958C1.35595 6.87531 2.11013 5.0854 3.51374 3.51922C5.02293 2.0645 6.74916 1.28183 8.69075 1.28183V1.28267ZM14.6236 2.96029C13.1153 1.28267 11.1712 0.5 8.90694 0.5C6.6419 0.5 4.69947 1.28267 2.97408 2.96029C1.35511 4.63792 0.600098 6.65074 0.600098 8.99958C0.600098 11.4607 1.35595 13.3612 2.97324 15.0389C4.59221 16.7165 6.5338 17.5 8.79885 17.5C11.0647 17.5 13.0055 16.7165 14.6244 15.0389C16.2426 13.3612 16.9976 11.4607 16.9976 8.99958C16.9976 6.65074 16.2434 4.63792 14.6244 2.96029" fill="#191919"/>
<path fill-rule="evenodd" clip-rule="evenodd" d="M3.29695 7.09814L3.18969 7.54562L2.00228 7.21043L1.89502 7.65707C2.75813 7.88165 3.83661 8.44058 5.23854 9.22408C7.72062 10.7894 10.31 12.0196 13.0066 12.6908L13.7616 12.0196H13.2228C11.6038 12.0196 10.31 11.4606 9.33875 10.3419C10.4691 9.74634 11.7289 9.43893 13.0066 9.44698L13.8697 9.55844L14.1931 9.1118H13.2228L10.9569 9.22408L11.065 8.88806H14.4085L14.7328 8.44058H11.2803L11.3884 8.21684H14.9482L15.1644 7.88165L11.6038 7.76936L11.7127 7.43417L15.3797 7.54562L15.7032 7.21043L12.7904 6.98669L9.87841 7.20959C9.44685 8.55203 8.58374 9.22408 7.28906 9.22408C6.74941 9.22408 6.10249 8.99951 5.34664 8.55203L5.02318 8.32829L5.13212 8.21684L6.85667 8.88722L6.96561 8.66432L3.29695 7.0973V7.09814ZM30.6987 3.29541H28.0013V14.7036H35.3378V12.467H30.6987V3.29541ZM43.4293 6.53921H40.8399V11.2361C40.8399 12.3548 40.4084 12.9145 39.5452 12.9145C38.7894 12.9145 38.4668 12.3548 38.4668 11.2361V6.53921H35.8774V11.4606C35.8774 12.3548 35.9847 13.1383 36.309 13.5849C36.7397 14.4799 37.4956 14.9273 38.7894 14.9273C39.6533 14.9273 40.4084 14.5922 41.0553 13.9209V14.7036H43.4284V6.53921H43.4293Z" fill="#191919"/>
</svg>
