<svg width="86" height="16" viewBox="0 0 86 16" fill="none" xmlns="http://www.w3.org/2000/svg">
<path d="M83.6954 14.3825V14.0353H83.918C84.0398 14.0353 84.2064 14.0451 84.2064 14.1935C84.2064 14.3545 84.121 14.3825 83.9768 14.3825H83.6954ZM83.6954 14.6261H83.8438L84.1896 15.2323H84.5704L84.1868 14.6023C84.3856 14.5883 84.548 14.4945 84.548 14.2285C84.548 13.8967 84.3184 13.7903 83.9334 13.7903H83.3748V15.2323H83.6954V14.6261ZM85.3194 14.5141C85.3194 13.6657 84.66 13.1743 83.9264 13.1743C83.1872 13.1743 82.5278 13.6657 82.5278 14.5141C82.5278 15.3611 83.1872 15.8553 83.9264 15.8553C84.66 15.8553 85.3194 15.3611 85.3194 14.5141ZM84.9162 14.5141C84.9162 15.1315 84.464 15.5473 83.9264 15.5473V15.5431C83.3748 15.5473 82.9296 15.1315 82.9296 14.5141C82.9296 13.8967 83.3748 13.4837 83.9264 13.4837C84.464 13.4837 84.9162 13.8967 84.9162 14.5141Z" fill="white"/>
<path d="M34.2008 0.165531L34.2022 15.3807H38.4988V0.165531H34.2008ZM0.39502 0.144531V15.3807H4.73082V3.81253H8.08942C9.20102 3.81253 9.99342 4.08833 10.531 4.66233C11.21 5.38613 11.4872 6.55373 11.4872 8.69153V15.3807H15.6886V6.96253C15.6886 0.953731 11.8582 0.144531 8.11182 0.144531H0.39502ZM41.121 0.165531V15.3807H48.0902C51.8044 15.3807 53.0168 14.7633 54.3272 13.3787C55.254 12.4071 55.8518 10.2721 55.8518 7.94253C55.8518 5.80333 55.345 3.89513 54.4616 2.70653C52.8698 0.579931 50.5752 0.165531 47.1522 0.165531H41.121ZM45.3826 3.47793H47.2306C49.9102 3.47793 51.6448 4.68333 51.6448 7.80533C51.6448 10.9301 49.9102 12.1341 47.2306 12.1341H45.3826V3.47793ZM28.0058 0.165531L24.4176 12.2251L20.982 0.165531H16.3424L21.2508 15.3807H27.4444L32.392 0.165531H28.0058ZM57.851 15.3807H62.1504V0.165531H57.851V15.3807ZM69.8994 0.171131L63.899 15.3779H68.1354L69.0846 12.6885H76.1868L77.0856 15.3779H81.686L75.6394 0.171131H69.8994ZM72.6882 2.94453L75.2922 10.0691H70.003L72.6882 2.94453Z" fill="white"/>
</svg>
