<svg width="72" height="36" viewBox="0 0 72 36" fill="none" xmlns="http://www.w3.org/2000/svg">
<path d="M0.786133 0.5V35.4819H36.521L71.4989 0.503938H0.786133V0.5ZM46.0495 31.9061V34.5155H46.4433V33.3829H46.886L47.6003 34.5155H48.043L47.2798 33.3829C47.661 33.3356 47.9689 33.1135 47.9689 32.6441C47.9689 32.1306 47.6539 31.9061 47.034 31.9061H46.0495ZM46.4433 32.2511H46.9844C47.2506 32.2511 47.5507 32.2936 47.5507 32.6197C47.5507 33.0269 47.2467 33.0631 46.9104 33.0631H46.4433V32.2503V32.2511ZM46.9356 30.946C45.6864 30.946 44.6216 31.9085 44.6216 33.2104C44.6216 34.5218 45.6864 35.5 46.9356 35.5C47.2353 35.5008 47.5322 35.4419 47.8089 35.3268C48.0856 35.2116 48.3366 35.0426 48.5474 34.8295C48.7581 34.6164 48.9244 34.3635 49.0364 34.0856C49.1485 33.8076 49.2041 33.5101 49.2 33.2104C49.2 31.9085 48.1674 30.946 46.9356 30.946ZM46.9356 31.3154C47.9548 31.3154 48.7566 32.1385 48.7566 33.2104C48.7566 34.3005 47.9548 35.1062 46.9356 35.1062C45.8991 35.1062 45.065 34.3005 45.065 33.2104C45.065 32.1392 45.8991 31.3154 46.9356 31.3154Z" fill="#070D42"/>
<path fill-rule="evenodd" clip-rule="evenodd" d="M43.1574 17.2386H41.6247V11.6331H43.1574C45.2036 11.6331 46.8324 12.3073 46.8324 14.4C46.8324 16.5612 45.2036 17.2386 43.1574 17.2386ZM26.6608 21.246C25.8999 21.2485 25.1447 21.1146 24.4311 20.8506L26.6387 13.8881H26.686L28.848 20.8695C28.1467 21.1192 27.4076 21.2466 26.6632 21.246H26.6608ZM42.751 7.07916H35.7908V23.6293L29.7104 7.07916H23.6836L18.4885 20.916C17.9395 17.4284 14.3268 16.221 11.4866 15.3208C9.61446 14.7182 7.62179 13.833 7.63991 12.8524C7.65566 12.0506 8.71028 11.3071 10.7904 11.4181C12.1923 11.489 13.4289 11.6024 15.8839 12.7894L18.3018 8.57721C16.0619 7.4328 12.9579 6.7145 10.4186 6.70898H10.4029C7.44064 6.70898 4.97226 7.6746 3.44114 9.25534C2.37707 10.3612 1.80133 11.76 1.77534 13.3171C1.73596 15.4499 2.52121 16.9637 4.16496 18.1743C5.55588 19.1935 7.33038 19.8495 8.89773 20.341C10.8313 20.9372 12.4097 21.4578 12.3916 22.5676C12.3758 22.9716 12.2254 23.3505 11.9332 23.6498C11.452 24.1499 10.7124 24.335 9.68928 24.3578C7.7171 24.3972 6.2545 24.0901 3.92473 22.7133L1.77534 26.9845C4.17751 28.3492 6.89111 29.0711 9.65384 29.0804H10.0169C12.4585 29.0331 14.4307 28.3361 16.0067 27.0696L16.2619 26.8467L15.5657 28.7181H21.8863L22.948 25.4896C24.0585 25.8653 25.3234 26.0764 26.6624 26.0764C27.969 26.0764 29.2016 25.8795 30.2925 25.5204L31.3132 28.7181H41.6262V22.0312H43.8765C49.311 22.0312 52.5292 19.2651 52.5292 14.6229C52.5292 9.45618 49.4039 7.08625 42.7502 7.08625" fill="white"/>
</svg>
