<svg width="79" height="18" viewBox="0 0 79 18" fill="none" xmlns="http://www.w3.org/2000/svg">
<mask id="mask0_1676_2249" style="mask-type:alpha" maskUnits="userSpaceOnUse" x="72" y="0" width="7" height="18">
<path d="M72.6172 17.0941H78.4091V0.0214844H72.6172V17.0941Z" fill="#191919"/>
</mask>
<g mask="url(#mask0_1676_2249)">
<path fill-rule="evenodd" clip-rule="evenodd" d="M76.4579 0.0214844C75.018 0.0214844 73.8438 1.30307 73.8438 2.8772V4.40907H72.6172V6.83536H73.8431V14.0411C73.8431 16.0098 74.9656 17.0941 77.0034 17.0941C77.7482 17.0941 78.2864 16.8565 78.4085 16.7962V14.2967C78.2125 14.3705 77.8918 14.4591 77.6784 14.4591C76.8598 14.4591 76.6102 14.2095 76.6102 13.3902V6.83469H78.4085V4.40907H76.6102V0.0214844H76.4572H76.4579Z" fill="#191919"/>
</g>
<path fill-rule="evenodd" clip-rule="evenodd" d="M63.6332 15.9554H62.4516C60.6654 15.9554 59.7971 14.5939 59.7971 11.7946C59.7971 9.77425 60.2903 7.36541 62.6401 7.36541C62.9756 7.36262 63.3099 7.4055 63.6338 7.49289V15.9554H63.6332ZM66.3191 0.789062C64.8269 0.789062 63.6124 2.08407 63.6124 3.67431V5.71209C63.1027 5.58059 62.578 5.51652 62.0517 5.52153C58.951 5.52153 56.9481 8.04511 56.9481 11.9503C56.9481 15.8252 58.8719 17.973 62.3664 17.9999C62.5026 17.9999 65.8582 18.0012 66.4614 17.9569V0.789062H66.3191ZM48.4648 10.6982C48.4729 8.44838 49.2566 7.33186 50.9166 7.27952C51.6997 7.25536 53.3953 7.36138 53.4885 9.98024L48.4648 10.6982ZM56.0832 11.2243C56.0832 7.41305 54.2689 5.31822 51.024 5.31822C47.7261 5.31822 45.7051 7.73176 45.7051 11.6235C45.7051 15.6165 47.873 17.9999 51.5044 17.9999C53.512 17.9999 54.9177 17.5134 55.6766 17.1008V14.5913C54.9238 15.1395 53.875 15.8172 51.7983 15.8172C49.9242 15.8172 48.8949 14.808 48.6447 12.7481L56.0832 11.7094V11.2243Z" fill="#191919"/>
<mask id="mask1_1676_2249" style="mask-type:alpha" maskUnits="userSpaceOnUse" x="39" y="4" width="7" height="14">
<path d="M39.7002 17.9999H45.6867V4.6499H39.7002V17.9999Z" fill="#191919"/>
</mask>
<g mask="url(#mask1_1676_2249)">
<path fill-rule="evenodd" clip-rule="evenodd" d="M39.7002 5.66792V18H39.8552C41.4112 18 42.672 16.654 42.672 14.9993V7.14946C43.2893 6.81397 44.6467 6.56235 45.6867 7.33868V4.73727C42.7123 4.44404 41.1589 4.92783 39.7002 5.66725" fill="#191919"/>
</g>
<mask id="mask2_1676_2249" style="mask-type:alpha" maskUnits="userSpaceOnUse" x="27" y="0" width="12" height="18">
<path d="M38.6989 0H27.627V17.9999H38.6989V0Z" fill="#191919"/>
</mask>
<g mask="url(#mask2_1676_2249)">
<path fill-rule="evenodd" clip-rule="evenodd" d="M27.627 8.95298C27.627 13.4486 30.1257 17.9999 34.9018 17.9999C36.4887 17.9999 37.8407 17.6349 38.6996 16.9558V13.8767C38.0031 14.8791 36.8409 15.279 35.5661 15.279C32.6594 15.279 30.7061 11.9946 30.7061 8.92815C30.7061 5.87114 32.5647 2.57256 35.5654 2.57256C37.0859 2.57256 38.0387 3.22342 38.6989 4.14536V1.0407C37.6086 0.326771 36.3176 0 34.9273 0C30.1338 0 27.627 4.50366 27.627 8.95298Z" fill="#191919"/>
</g>
<path fill-rule="evenodd" clip-rule="evenodd" d="M24.0987 4.64992V17.9999H24.2705C25.9835 17.9999 27.3758 16.6559 27.3758 15.0039V4.65059H24.0987V4.64992ZM24.084 2.15788C24.084 2.90133 24.8596 3.50656 25.8138 3.50656C26.784 3.50656 27.5436 2.91408 27.5436 2.15788C27.5436 1.39027 26.784 0.789062 25.8138 0.789062C24.8596 0.789062 24.084 1.40302 24.084 2.15788Z" fill="#191919"/>
<mask id="mask3_1676_2249" style="mask-type:alpha" maskUnits="userSpaceOnUse" x="0" y="0" width="12" height="18">
<path d="M0.733887 17.0941H11.8112V0.0214844H0.733887V17.0941Z" fill="#191919"/>
</mask>
<g mask="url(#mask3_1676_2249)">
<path fill-rule="evenodd" clip-rule="evenodd" d="M11.6602 0.0214844C10.1485 0.0214844 8.91792 1.2608 8.91792 2.78394V12.2469C8.91792 13.7901 7.6115 14.6235 6.38226 14.6235C5.1255 14.6235 3.82512 13.7344 3.82512 12.2469V0.0214844H3.6245C2.03023 0.0214844 0.733887 1.3279 0.733887 2.93357V12.269C0.733887 15.0201 3.11522 17.0941 6.27288 17.0941C9.43055 17.0941 11.8112 15.0201 11.8112 12.269V0.0214844H11.6602Z" fill="#191919"/>
</g>
<path fill-rule="evenodd" clip-rule="evenodd" d="M68.3913 4.6499V17.9999H68.5517C70.15 17.9999 71.4503 16.6559 71.4503 15.0039V4.65057H68.3906L68.3913 4.6499Z" fill="#191919"/>
<path fill-rule="evenodd" clip-rule="evenodd" d="M68.1904 2.15788C68.1904 2.90133 68.9668 3.50656 69.9216 3.50656C70.8912 3.50656 71.65 2.91408 71.65 2.15788C71.65 1.39027 70.8912 0.789062 69.9209 0.789062C68.9668 0.789062 68.1904 1.40302 68.1904 2.15788Z" fill="#191919"/>
<path fill-rule="evenodd" clip-rule="evenodd" d="M12.8413 6.23761V18H15.7809V7.61314C16.264 7.42727 16.6968 7.32461 17.457 7.32461C19.0748 7.32461 19.4143 8.32774 19.4143 9.16915L19.4123 15.1698C19.4123 16.7292 20.6724 18 22.2083 18H22.3546V9.12554C22.3546 7.70305 21.7326 5.31836 17.5657 5.31836C15.699 5.31836 14.1048 5.63507 12.842 6.23761" fill="#191919"/>
</svg>
