<svg width="102" height="18" viewBox="0 0 102 18" fill="none" xmlns="http://www.w3.org/2000/svg">
<path fill-rule="evenodd" clip-rule="evenodd" d="M64.9033 8.49793H64.9613L65.3723 13.7699H66.4873L69.4243 6.99193H68.3673L66.1943 12.3259L65.8423 6.99193H64.6093L62.4953 12.3259L62.1413 6.99193H60.9683L61.6733 13.7699H62.7893L64.9033 8.49793ZM71.4223 5.79993L71.6553 4.48193H70.5983L70.3643 5.79993H71.4223ZM71.2433 6.99093H70.1873L69.0703 13.7689H70.1293L71.2433 6.99093Z" fill="white"/>
<path fill-rule="evenodd" clip-rule="evenodd" d="M73.3581 9.81593C73.5341 8.81293 74.2981 7.99593 75.2961 7.99593H75.6501L75.8821 6.80593H75.5891C74.7681 6.80593 74.1221 7.30593 73.5951 8.12193L73.7701 6.99193H72.7701L71.5981 13.7679H72.7141L73.3591 9.81493L73.3581 9.81593ZM76.5281 9.81593C76.7071 8.87393 77.4681 7.99593 78.2911 7.86993V6.86793C76.5901 7.11793 75.5891 8.68793 75.2391 10.5699C74.9431 12.5129 75.7661 13.9569 77.5271 13.9569C77.8221 13.9569 78.1151 13.9569 78.2911 13.8959V12.8909C78.1731 12.9529 77.9971 12.9529 77.8221 12.9529C76.6461 12.9529 76.1181 12.1379 76.3531 10.7579H78.2921V9.81593H76.5281ZM78.2921 13.8959V12.8909C79.0571 12.7009 79.5851 12.0739 79.7021 11.6349H80.7581C80.7001 11.9499 80.2281 12.9529 79.3491 13.5179C79.1131 13.6439 78.8201 13.8309 78.2921 13.8959ZM78.2921 7.86993C78.4101 7.80793 78.5281 7.80793 78.6461 7.80793C79.9361 7.80793 80.1711 8.81293 80.0531 9.81593H78.2921V10.7579H80.9921C81.0511 10.3799 81.1101 10.0049 81.1101 9.69093V9.25093C81.0501 7.74593 80.3461 6.80493 78.9371 6.80493C78.7021 6.80493 78.5271 6.80493 78.2911 6.86793V7.86993H78.2921ZM85.5131 9.81593C85.6921 8.87393 86.4531 7.99593 87.3351 7.86993V6.86793C85.5731 7.11793 84.5731 8.68793 84.2801 10.5699C83.9291 12.5129 84.7511 13.9569 86.5701 13.9569C86.8631 13.9569 87.0991 13.9569 87.3351 13.8959V12.8909C87.1581 12.9529 87.0411 12.9529 86.8631 12.9529C85.6311 12.9529 85.1631 12.1379 85.3951 10.7579H87.3351V9.81593H85.5131ZM87.3351 13.8959V12.8909C88.0971 12.7009 88.6251 12.0739 88.7431 11.6349H89.8011C89.6831 11.9499 89.2721 12.9529 88.3331 13.5179C88.0971 13.6439 87.8041 13.8309 87.3351 13.8959ZM87.3351 7.86993C87.3921 7.80793 87.5111 7.80793 87.6281 7.80793C88.9181 7.80793 89.1551 8.81293 89.0361 9.81593H87.3351V10.7579H90.0351C90.0951 10.3799 90.0951 10.0049 90.1521 9.69093V9.25093C90.0941 7.74593 89.3901 6.80493 87.9221 6.80493C87.7461 6.80493 87.5111 6.80493 87.3351 6.86793V7.86993ZM84.1621 4.48193H83.1051L81.5791 13.7699H82.6371L84.1621 4.48193ZM95.9661 8.93693C96.0261 8.56093 96.1431 6.80493 93.9111 6.80493C92.6191 6.80493 91.3851 7.43093 91.0911 8.93693C90.9751 9.87893 91.4451 10.3809 92.3251 10.6309L93.4991 10.9449C94.3801 11.1949 94.6751 11.3849 94.6151 11.8869C94.4971 12.6389 93.7351 12.9529 92.9721 12.9529C91.4451 12.9529 91.4451 12.1369 91.5021 11.5729H90.4461C90.3871 12.3889 90.2701 13.9569 92.7961 13.9569C94.2641 13.9569 95.4961 13.1419 95.7311 11.6989C95.8481 10.8189 95.4971 10.2549 94.2041 9.94193L93.2071 9.62793C92.3851 9.43893 92.0921 9.31393 92.2071 8.74793C92.3251 7.86993 93.2651 7.74593 93.6181 7.74593C94.9681 7.74593 94.9681 8.49893 94.9081 8.93693H95.9661Z" fill="white"/>
<mask id="mask0_1676_2292" style="mask-type:alpha" maskUnits="userSpaceOnUse" x="96" y="6" width="6" height="8">
<path d="M101.808 13.9562V6.80518H96.2764V13.9562H101.808Z" fill="white"/>
</mask>
<g mask="url(#mask0_1676_2292)">
<path fill-rule="evenodd" clip-rule="evenodd" d="M101.781 8.93615C101.838 8.56215 102.017 6.80615 99.7256 6.80615C98.4926 6.80615 97.1986 7.43215 96.9656 8.93815C96.7886 9.87915 97.3166 10.3822 98.1386 10.6312L99.3146 10.9462C100.195 11.1962 100.548 11.3862 100.43 11.8872C100.311 12.6392 99.5486 12.9542 98.7866 12.9542C97.3166 12.9542 97.3166 12.1382 97.3166 11.5742H96.3196C96.2026 12.3902 96.1426 13.9562 98.6686 13.9562C100.076 13.9562 101.31 13.1412 101.545 11.6992C101.663 10.8192 101.31 10.2552 100.076 9.94215L99.0216 9.62815C98.2576 9.43915 97.9036 9.31315 98.0216 8.74815C98.1386 7.86915 99.1376 7.74615 99.4336 7.74615C100.784 7.74615 100.841 8.49915 100.784 8.93815H101.781V8.93615Z" fill="white"/>
</g>
<path fill-rule="evenodd" clip-rule="evenodd" d="M31.9013 4.48193L31.4903 7.18093H35.7763L30.2573 14.9609L29.9043 17.3459H38.5383H58.5023L58.9133 15.4929L34.2493 14.5839L39.7703 6.80493L40.1813 4.48193H31.9013Z" fill="white"/>
<path fill-rule="evenodd" clip-rule="evenodd" d="M29.5534 13.7688H26.0874L27.6134 4.48181H31.0794L29.5534 13.7688ZM27.7924 3.28981L28.2594 0.653809H31.7244L31.2544 3.28981H27.7924Z" fill="white"/>
<mask id="mask1_1676_2292" style="mask-type:alpha" maskUnits="userSpaceOnUse" x="0" y="4" width="10" height="10">
<path d="M0.192383 4.48193V13.7689H9.99938V4.48193H0.192383Z" fill="white"/>
</mask>
<g mask="url(#mask1_1676_2292)">
<path fill-rule="evenodd" clip-rule="evenodd" d="M1.65838 13.7689L0.192383 4.48193H3.65538L4.18538 10.3179L6.70938 4.48193H9.99938L5.53538 13.7689H1.65838Z" fill="white"/>
</g>
<path fill-rule="evenodd" clip-rule="evenodd" d="M49.5766 13.769L51.1026 4.48198H54.2746L54.0406 5.98698C54.9806 4.85798 55.9776 4.22998 57.2696 4.22998C59.5596 4.22998 60.4416 5.67398 59.9696 8.18398L59.0896 13.769H55.6236L56.3886 8.81298C56.5626 7.93498 56.4486 7.11798 55.5076 7.11798C54.4506 7.11798 54.0406 7.80798 53.8046 8.99998L53.0406 13.77H49.5766V13.769ZM18.9826 13.769L20.5096 4.48198H23.6796L23.3296 6.30198H23.3866C24.0906 4.92198 25.0906 4.22998 26.3816 4.22998C26.4986 4.22998 26.6736 4.29298 26.7916 4.29298L26.2066 7.93498C25.9696 7.86898 25.7356 7.80798 25.5586 7.80798C24.1506 7.80798 23.3286 8.56098 22.9746 10.57L22.4466 13.77H18.9826V13.769ZM44.7616 6.74198C43.8806 6.99198 43.4696 8.12198 43.2946 8.99998C42.9996 10.757 43.5276 11.574 44.4096 11.574C44.5276 11.574 44.6456 11.511 44.7616 11.511V13.956C44.4666 14.019 44.1746 14.019 43.8216 14.019C41.0036 14.019 39.1236 12.389 39.6536 9.18898C40.1206 6.23898 42.1776 4.54498 44.7616 4.29298V6.74198ZM45.2316 6.67898C45.0566 6.67898 44.9386 6.67898 44.7616 6.74198V4.29298C44.9956 4.22998 45.2316 4.22998 45.4066 4.22998C48.5196 4.22998 50.1066 6.17598 49.6346 8.99998C49.1076 12.013 47.1686 13.644 44.7616 13.956V11.511C45.5246 11.322 46.0526 10.507 46.2886 8.99998C46.5216 7.61998 46.1106 6.61498 45.2316 6.67898ZM12.5226 8.05798H14.1086V9.94198H12.2286C12.0536 11.07 12.7006 11.761 13.6386 11.761C13.8156 11.761 13.9336 11.761 14.1086 11.699V13.957C13.7556 14.019 13.4046 14.019 13.0506 14.019C10.2336 14.019 8.35457 12.326 8.88157 9.18898C9.35157 6.36498 11.5256 4.48198 14.1086 4.29298V6.42698C13.2286 6.55198 12.7006 7.17998 12.5216 8.05798H12.5226ZM14.1086 13.957V11.699C14.4977 11.5603 14.8288 11.2947 15.0486 10.945H18.3956C17.5736 12.891 15.8116 13.705 14.1086 13.957ZM14.1086 8.05798H15.6946C15.8116 7.17998 15.2246 6.42798 14.4016 6.42798H14.1086V4.29198C14.2846 4.22998 14.4606 4.22998 14.6376 4.22998C17.8676 4.22998 19.4516 6.54998 18.8076 9.94098H14.1076V8.05798H14.1086Z" fill="white"/>
</svg>
