<svg width="87" height="14" viewBox="0 0 87 14" fill="none" xmlns="http://www.w3.org/2000/svg">
<path d="M16.7944 0.637488V11.8387C16.7944 12.7127 17.3181 13.3461 18.4704 13.3461H20.2872V0.637488H16.7944ZM77.1541 9.74935C77.1541 9.74935 74.9519 3.56648 74.5328 2.40192C74.2718 1.61382 73.888 0.637488 72.0883 0.637488H67.9833V13.3461H69.3639C70.4278 13.3461 71.0916 12.8838 71.0916 11.8043V2.93305H71.1447L75.145 13.3453H78.8817L82.8812 2.93141H82.9344V11.8215C82.9344 12.7127 83.4238 13.3461 84.662 13.3461H86.392V0.637488H82.5317C81.1699 0.637488 80.3319 1.01394 79.9129 2.19651L77.2237 9.74935H77.1541ZM7.92227 9.86884C7.92227 9.86884 4.91799 2.16213 4.74286 1.71693C4.51617 1.11706 4.20191 0.637488 3.04881 0.637488H0.464355L5.79202 13.3461H9.6687L15.187 0.637488H12.8997C11.9217 0.637488 11.5371 1.04832 11.2924 1.66538L7.97465 9.86884H7.92227ZM46.1342 3.30951H47.9158C49.1916 3.30951 49.9429 2.84712 49.9429 1.71693V0.637488H44.8771C40.6518 0.637488 38.6247 3.08691 38.6247 6.99223C38.6247 11.8559 41.7157 13.3461 44.8771 13.3461H49.9429V12.2495C49.9429 11.1365 49.1565 10.6741 48.0034 10.6741H46.1342C44.1275 10.6741 42.2583 9.97195 42.2583 6.99141C42.2583 4.40532 43.6741 3.30869 46.1342 3.30869V3.30951ZM32.5638 8.5848C32.5638 9.85165 31.9704 10.8452 30.224 10.8452H28.408C27.133 10.8452 26.3833 10.5031 26.3833 9.49238C26.3833 8.51605 27.0814 8.12241 28.408 8.12241H32.5638V8.5848ZM30.8713 0.637488H23.7269V1.61382C23.7269 2.46985 24.1803 3.30951 25.4209 3.30951H29.9793C31.9009 3.30951 32.5638 3.92575 32.5638 5.41602V5.63862H27.7451C24.1459 5.63862 22.8365 7.26556 22.8365 9.4752C22.8365 12.1644 24.6721 13.3461 27.7451 13.3461H30.9573C35.167 13.3461 36.0746 11.274 36.0746 8.55043V5.39965C36.0746 2.45348 34.9575 0.637488 30.8713 0.637488ZM58.1169 10.8116C60.3871 10.8116 61.7137 9.26978 61.7137 6.99223C61.7137 4.57718 60.2979 3.17202 58.1169 3.17202C55.7935 3.17202 54.4833 4.69666 54.4833 6.99223C54.4833 9.18385 55.7592 10.8116 58.1169 10.8116ZM58.1169 0.5C62.3586 0.5 65.3809 2.76119 65.3809 6.99223C65.3809 11.0342 62.5869 13.5 58.1169 13.5C53.75 13.5 50.8333 11.1365 50.8333 6.99223C50.8333 2.89868 53.714 0.500818 58.1169 0.500818V0.5Z" fill="white"/>
</svg>
