<svg width="35" height="34" viewBox="0 0 35 34" fill="none" xmlns="http://www.w3.org/2000/svg">
<path fill-rule="evenodd" clip-rule="evenodd" d="M20.502 4.68312C19.4551 4.4036 18.3762 4.26194 17.2926 4.26172C16.2067 4.26172 15.1553 4.40709 14.1533 4.66841L17.335 13.5801L20.502 4.68312ZM29.8333 17.0092C29.8333 15.4197 29.5651 13.9011 29.0416 12.4959L23.0736 28.303C25.1182 27.2098 26.8272 25.5814 28.0179 23.592C29.2085 21.6025 29.836 19.3269 29.8333 17.0084" fill="white"/>
<path fill-rule="evenodd" clip-rule="evenodd" d="M23.6056 5.99188L19.9255 16.2681H14.7459L11.0528 5.94775C9.69036 6.74519 8.48796 7.78885 7.50684 9.0256L12.7522 22.8296L14.6732 17.7876H19.7109L21.6319 22.8296L26.9275 8.86206C25.9961 7.7186 24.8715 6.74719 23.6048 5.99188" fill="white"/>
<path fill-rule="evenodd" clip-rule="evenodd" d="M17.2935 31.8264C9.25062 31.8264 2.67785 25.1697 2.67785 17.0082C2.67785 8.83033 9.25062 2.1615 17.2927 2.1615C25.3356 2.1615 31.9092 8.83033 31.9092 17.0082C31.9092 25.1697 25.3356 31.8264 17.2935 31.8264ZM17.2935 0.000865309C8.07382 1.46064e-08 0.537109 7.63276 0.537109 17.0091C0.537109 26.3551 8.07382 34 17.2935 34C26.5219 34 34.0344 26.3551 34.0344 17.0091C34.0344 7.63362 26.5219 0 17.2935 0" fill="white"/>
<path fill-rule="evenodd" clip-rule="evenodd" d="M17.1837 20.4908L13.9467 29.0149L13.9319 29.2796C15.0032 29.5851 16.1281 29.7382 17.2936 29.7382C18.3882 29.7382 19.4499 29.5989 20.4597 29.3341L20.4234 29.0149L17.1837 20.4917V20.4908ZM4.74079 17.0089C4.74079 21.8 7.37388 26.0062 11.2694 28.1643L5.45293 12.7759C4.97679 14.1359 4.73596 15.5671 4.74079 17.008" fill="white"/>
</svg>
