<?xml version="1.0" encoding="utf-8"?>
<!-- Generator: Adobe Illustrator 15.1.0, SVG Export Plug-In . SVG Version: 6.00 Build 0)  -->
<!DOCTYPE svg PUBLIC "-//W3C//DTD SVG 1.1//EN" "http://www.w3.org/Graphics/SVG/1.1/DTD/svg11.dtd">
<svg version="1.1" id="Layer_1" xmlns="http://www.w3.org/2000/svg" xmlns:xlink="http://www.w3.org/1999/xlink" x="0px" y="0px"
	 width="87.318px" height="83.411px" viewBox="0 0 87.318 83.411" enable-background="new 0 0 87.318 83.411" xml:space="preserve">
<g id="DIALOGFRAMEWORK">
	<circle fill="#27AAE1" cx="20.178" cy="25.659" r="9.253"/>
	<circle fill="#27AAE1" cx="43.659" cy="41.706" r="9.252"/>
	<circle fill="#27AAE1" cx="43.659" cy="9.324" r="9.252"/>
	<circle fill="#27AAE1" cx="67.141" cy="25.659" r="9.252"/>
	<circle fill="#27AAE1" cx="43.659" cy="74.086" r="9.252"/>
	<circle fill="#27AAE1" cx="20.178" cy="57.751" r="9.253"/>
	<circle fill="#27AAE1" cx="67.141" cy="57.75" r="9.252"/>
	
		<rect x="53.663" y="19.46" transform="matrix(-0.5641 -0.8257 0.8257 -0.5641 58.8416 98.4208)" fill="#27AAE1" width="3.469" height="28.441"/>
	
		<rect x="30.826" y="3.27" transform="matrix(-0.5643 -0.8256 0.8256 -0.5643 36.4941 54.2436)" fill="#27AAE1" width="3.47" height="28.442"/>
	
		<rect x="53.664" y="51.695" transform="matrix(-0.5641 -0.8257 0.8257 -0.5641 32.2271 148.8429)" fill="#27AAE1" width="3.469" height="28.44"/>
	
		<rect x="29.957" y="35.438" transform="matrix(-0.5639 -0.8258 0.8258 -0.5639 8.5515 103.8337)" fill="#27AAE1" width="3.469" height="28.441"/>
	
		<rect x="31.477" y="20.691" transform="matrix(-0.5525 0.8335 -0.8335 -0.5525 80.6611 26.517)" fill="#27AAE1" width="3.47" height="28.442"/>
	
		<rect x="53.665" y="3.273" transform="matrix(-0.5524 0.8336 -0.8336 -0.5524 100.583 -19.0251)" fill="#27AAE1" width="3.469" height="28.442"/>
	
		<rect x="31.474" y="52.781" transform="matrix(-0.5526 0.8334 -0.8334 -0.5526 107.4029 76.349)" fill="#27AAE1" width="3.471" height="28.44"/>
	
		<rect x="53.668" y="35.363" transform="matrix(-0.5523 0.8336 -0.8336 -0.5523 127.3372 30.7834)" fill="#27AAE1" width="3.469" height="28.444"/>
	
		<rect x="65.408" y="26.8" transform="matrix(-1 0.0034 -0.0034 -1 134.4257 81.8155)" fill="#27AAE1" width="3.471" height="28.443"/>
	
		<rect x="18.668" y="26.801" transform="matrix(-1 0.0034 -0.0034 -1 40.9436 81.9753)" fill="#27AAE1" width="3.469" height="28.443"/>
	
		<rect x="42.436" y="44.892" transform="matrix(-1 0.0028 -0.0028 -1 88.5094 118.1011)" fill="#27AAE1" width="3.472" height="28.442"/>
</g>
</svg>
