<?xml version="1.0" encoding="utf-8"?>
<!-- Generator: Adobe Illustrator 15.1.0, SVG Export Plug-In . SVG Version: 6.00 Build 0)  -->
<!DOCTYPE svg PUBLIC "-//W3C//DTD SVG 1.1//EN" "http://www.w3.org/Graphics/SVG/1.1/DTD/svg11.dtd">
<svg version="1.1" id="Layer_1" xmlns="http://www.w3.org/2000/svg" xmlns:xlink="http://www.w3.org/1999/xlink" x="0px" y="0px"
	 width="87.318px" height="83.411px" viewBox="0 0 87.318 83.411" enable-background="new 0 0 87.318 83.411" xml:space="preserve">
<g id="MESSAGE">
	<path fill="#27AAE1" d="M36.506,56.749c0,3.606,2.925,6.533,6.532,6.533h23.764l10.147,12.209l1.025-12.209
		c3.606,0,6.531-2.927,6.531-6.533l2.8-23.021c0-3.607-2.925-6.532-6.532-6.532H39.304c-3.607,0-6.532,2.925-6.532,6.532
		L36.506,56.749z"/>
	<path fill="#27AAE1" d="M33.492,57.013l-0.66-4.11h-5.011L17.738,65.034l-1.017-12.131H14.5c-3.327,0-6.037-2.708-6.037-6.037
		l-3.62-29.915c0.071-3.268,2.753-5.902,6.034-5.902h53.648c3.271,0,5.939,2.611,6.034,5.858l-1.18,7.271h4.894l1.088-6.707
		l0.03-0.387c0-5.991-4.874-10.865-10.866-10.865H10.878c-5.991,0-10.865,4.874-10.865,10.865l3.625,29.938
		c0.07,5.154,3.751,9.453,8.622,10.479l1.651,19.691l16.176-19.46h3.459C33.523,57.495,33.497,57.254,33.492,57.013z"/>
</g>
</svg>
