<?xml version="1.0" encoding="utf-8"?>
<!-- Generator: Adobe Illustrator 15.1.0, SVG Export Plug-In . SVG Version: 6.00 Build 0)  -->
<!DOCTYPE svg PUBLIC "-//W3C//DTD SVG 1.1//EN" "http://www.w3.org/Graphics/SVG/1.1/DTD/svg11.dtd">
<svg version="1.1" id="Layer_1" xmlns="http://www.w3.org/2000/svg" xmlns:xlink="http://www.w3.org/1999/xlink" x="0px" y="0px"
	 width="87.318px" height="83.411px" viewBox="0 0 87.318 83.411" enable-background="new 0 0 87.318 83.411" xml:space="preserve">
<g id="OVERLAY">
	<path fill="#27AAE1" d="M82.989,10.083H4.328c-2.338,0-4.235,1.897-4.235,4.235v12.248h87.133V14.319
		C87.225,11.981,85.329,10.083,82.989,10.083z M81.688,21.095c0.516,0.516,0.516,1.349,0,1.862c-0.513,0.515-1.349,0.516-1.861,0
		l-2.77-2.769l-2.771,2.769c-0.516,0.516-1.35,0.515-1.863,0c-0.514-0.514-0.514-1.347,0-1.862l2.771-2.769l-2.771-2.771
		c-0.512-0.516-0.512-1.349,0-1.862c0.517-0.515,1.351-0.516,1.863,0l2.771,2.771l2.77-2.771c0.514-0.516,1.35-0.515,1.861,0
		c0.516,0.514,0.516,1.347,0,1.862l-2.771,2.771L81.688,21.095z"/>
	<path fill="#27AAE1" d="M0.093,30.052v39.041c0,2.338,1.897,4.234,4.235,4.234h78.661c2.34,0,4.236-1.896,4.236-4.234V30.052H0.093
		z M80.29,65.756H7.03V37.62h73.26V65.756z"/>
	<rect x="11.052" y="41.882" fill="#27AAE1" width="65.652" height="5.395"/>
	<rect x="11.052" y="50.898" fill="#27AAE1" width="46.212" height="5.396"/>
</g>
</svg>
