<svg width="21" height="26" viewBox="0 0 21 26" fill="none" xmlns="http://www.w3.org/2000/svg">
<path d="M7.63671 3.34105C7.63671 2.58749 7.93595 1.86496 8.46882 1.33211C9.00152 0.799417 9.724 0.5 10.4776 0.5C11.2311 0.5 11.9537 0.799436 12.4863 1.33211C13.0191 1.86496 13.3184 2.58749 13.3184 3.34105C13.3184 4.09442 13.0192 4.81715 12.4863 5.34979C11.9536 5.88264 11.2311 6.18191 10.4776 6.18191C9.724 6.18191 9.00147 5.88266 8.46882 5.34979C7.93598 4.8171 7.63671 4.09442 7.63671 3.34105ZM19.5686 7.31821H1.38635C0.980382 7.31821 0.605229 7.5349 0.402241 7.88646C0.199253 8.23803 0.199253 8.67119 0.402241 9.02277C0.605229 9.37434 0.980377 9.59102 1.38635 9.59102H7.06836V24.3636C7.06836 24.7696 7.28504 25.1448 7.63661 25.3478C7.98817 25.5507 8.42134 25.5507 8.77291 25.3478C9.12448 25.1448 9.34116 24.7696 9.34116 24.3636V16.4092H11.614V24.3636H11.6138C11.6138 24.7696 11.8305 25.1448 12.182 25.3478C12.5336 25.5507 12.9667 25.5507 13.3183 25.3478C13.6699 25.1448 13.8866 24.7696 13.8866 24.3636V9.59102H19.5686C19.9746 9.59102 20.3497 9.37433 20.5527 9.02277C20.7557 8.6712 20.7557 8.23804 20.5527 7.88646C20.3497 7.53489 19.9746 7.31821 19.5686 7.31821H19.5686Z" fill="#03C4E8"/>
</svg>
