<svg width="26" height="26" viewBox="0 0 26 26" fill="none" xmlns="http://www.w3.org/2000/svg">
<g clip-path="url(#clip0_1676_2383)">
<path d="M25.25 13C25.25 6.09644 19.6536 0.5 12.75 0.5C5.84644 0.5 0.25 6.09644 0.25 13C0.25 19.9036 5.84644 25.5 12.75 25.5C19.6536 25.5 25.25 19.9036 25.25 13Z" fill="#3178C6"/>
<path fill-rule="evenodd" clip-rule="evenodd" d="M13.6949 15.6891V17.7512C14.0302 17.9231 14.4266 18.052 14.8844 18.1379C15.3421 18.2238 15.8245 18.2668 16.3317 18.2668C16.826 18.2668 17.2955 18.2195 17.7403 18.125C18.1852 18.0305 18.5753 17.8747 18.9105 17.6578C19.2457 17.4409 19.5111 17.1573 19.7067 16.8071C19.9022 16.457 20 16.0242 20 15.5086C20 15.1349 19.9441 14.8073 19.8324 14.5259C19.7206 14.2445 19.5595 13.9943 19.3489 13.7752C19.1383 13.5561 18.8858 13.3595 18.5914 13.1855C18.297 13.0115 17.9649 12.8472 17.5953 12.6925C17.3245 12.5808 17.0817 12.4723 16.8668 12.3671C16.6519 12.2618 16.4692 12.1544 16.3188 12.0449C16.1684 11.9353 16.0523 11.8193 15.9707 11.6969C15.889 11.5744 15.8482 11.4359 15.8482 11.2812C15.8482 11.1395 15.8847 11.0116 15.9578 10.8978C16.0309 10.7839 16.134 10.6862 16.2672 10.6046C16.4005 10.523 16.5638 10.4596 16.7572 10.4145C16.9506 10.3693 17.1655 10.3468 17.4019 10.3468C17.5738 10.3468 17.7554 10.3597 17.9466 10.3855C18.1379 10.4112 18.3302 10.451 18.5237 10.5047C18.7171 10.5584 18.9051 10.6261 19.0878 10.7077C19.2704 10.7893 19.4391 10.8838 19.5938 10.9912V9.06439C19.2801 8.9441 18.9373 8.85496 18.5656 8.79696C18.1938 8.73896 17.7672 8.70996 17.2859 8.70996C16.7959 8.70996 16.3317 8.76261 15.8933 8.86785C15.455 8.9731 15.0692 9.13742 14.7361 9.36081C14.403 9.58425 14.1398 9.86885 13.9464 10.2147C13.753 10.5605 13.6562 10.974 13.6562 11.4552C13.6562 12.0696 13.8335 12.5937 14.1881 13.0276C14.5427 13.4615 15.081 13.8288 15.8031 14.1296C16.0867 14.2456 16.3511 14.3594 16.596 14.4711C16.841 14.5828 17.0527 14.6988 17.231 14.8191C17.4094 14.9394 17.5502 15.0704 17.6533 15.2122C17.7565 15.354 17.8081 15.5151 17.8081 15.6955C17.8081 15.8287 17.7758 15.9522 17.7113 16.0661C17.6469 16.1799 17.5491 16.2787 17.418 16.3625C17.2869 16.4463 17.1236 16.5118 16.9281 16.559C16.7325 16.6063 16.5036 16.6299 16.2415 16.6299C15.7945 16.6299 15.3518 16.5515 14.9134 16.3947C14.475 16.2379 14.0688 16.0027 13.6949 15.6891ZM10.2282 10.6082H12.8736V8.91593H5.5V10.6082H8.13249V18.1432H10.2282V10.6082Z" fill="white"/>
</g>
<defs>
<clipPath id="clip0_1676_2383">
<rect width="25" height="25" fill="white" transform="translate(0.25 0.5)"/>
</clipPath>
</defs>
</svg>
