<svg width="15" height="26" viewBox="0 0 15 26" fill="none" xmlns="http://www.w3.org/2000/svg">
<path fill-rule="evenodd" clip-rule="evenodd" d="M14.904 2.47354V23.6405L14.9037 23.6406C14.9124 23.6755 14.9182 23.7132 14.9211 23.751C14.9123 24.3904 14.5549 25.0182 13.9678 25.303C13.6975 25.4367 13.4127 25.4948 13.1133 25.4948H5.15601C4.86269 25.4948 4.56872 25.4961 4.27454 25.4974C3.68552 25.5 3.09563 25.5026 2.50834 25.4948C1.53761 25.4832 0.761625 24.6927 0.758719 23.7249C0.757744 23.6615 0.756441 23.5984 0.755141 23.5354C0.752566 23.4108 0.75 23.2866 0.75 23.161V2.34856C0.75 1.66555 1.07551 1.00292 1.71202 0.691942C2.10625 0.498957 2.50048 0.499495 2.91456 0.500061C2.93701 0.500092 2.95951 0.500122 2.98207 0.500122H12.9568H13.1718C13.7909 0.505968 14.3809 0.840194 14.686 1.38657C14.8779 1.72952 14.904 2.09571 14.904 2.47354ZM6.3013 21.8793C6.3013 22.7308 6.9901 23.4196 7.84164 23.4196C8.69317 23.4196 9.38198 22.7279 9.38198 21.8793C9.38198 21.0277 8.69317 20.3389 7.84164 20.3389C6.9901 20.3389 6.3013 21.0277 6.3013 21.8793ZM10.9496 2.37872C10.9407 2.40627 10.9456 2.36176 10.9501 2.32157C10.9524 2.30045 10.9546 2.28053 10.9546 2.27288C10.9546 2.25434 10.9539 2.2358 10.9532 2.21692C10.9525 2.19732 10.9517 2.17735 10.9517 2.15663V1.66255H4.72316V2.24092V2.2758C4.72316 2.30196 4.72316 2.32811 4.72607 2.35427C4.72785 2.35427 4.73292 2.37945 4.73724 2.40091C4.73996 2.41443 4.74238 2.42647 4.7435 2.42984C4.74786 2.44146 4.7515 2.45381 4.75513 2.46616C4.75876 2.47852 4.76239 2.49087 4.76675 2.5025C4.76675 2.50395 4.76748 2.50467 4.76821 2.5054C4.76893 2.50613 4.76966 2.50685 4.76966 2.50831C4.77257 2.51121 4.77547 2.51412 4.77547 2.51703L4.78129 2.52865C4.78681 2.53971 4.79234 2.55193 4.79639 2.56088C4.79872 2.56604 4.80057 2.57012 4.80163 2.57225C4.80336 2.57745 4.81543 2.59505 4.82797 2.61334C4.83646 2.62572 4.84517 2.63843 4.85104 2.64781C4.83941 2.63619 4.8336 2.63328 4.85104 2.65363C4.85611 2.65869 4.85841 2.661 4.85868 2.66079C4.85902 2.66051 4.85596 2.65601 4.85104 2.64781C4.86266 2.66525 4.88882 2.69431 4.88882 2.69431C4.89234 2.69959 4.90968 2.7155 4.9267 2.73111C4.93781 2.7413 4.94878 2.75136 4.95567 2.75825C4.95368 2.75706 4.9518 2.75592 4.9501 2.75489C4.93935 2.74838 4.93559 2.7461 4.95567 2.76116C4.96729 2.76988 4.96439 2.76697 4.95567 2.75825C4.9731 2.76988 5.00217 2.79022 5.00217 2.79022C5.01088 2.79313 5.06029 2.81929 5.08354 2.83382C5.0661 2.82801 5.05739 2.8251 5.08354 2.83672C5.09179 2.83947 5.09548 2.84092 5.09555 2.84076C5.09563 2.84059 5.0912 2.83841 5.08354 2.83382C5.10389 2.83963 5.13876 2.85416 5.13876 2.85416L5.1388 2.85417C5.15348 2.85711 5.25501 2.87742 5.2463 2.88032C5.26374 2.88323 5.27827 2.88323 5.2928 2.88323H5.3393C6.19174 2.89679 7.04545 2.89227 7.89959 2.88775C8.32682 2.88549 8.75416 2.88323 9.18149 2.88323H10.0534H10.2917H10.3411H10.3527H10.3527C10.3847 2.88323 10.4138 2.88323 10.4457 2.88032C10.437 2.88323 10.4312 2.88613 10.4312 2.88613C10.4336 2.88613 10.451 2.88235 10.4638 2.87937C10.4578 2.88032 10.4518 2.88032 10.4457 2.88032C10.4493 2.88032 10.4529 2.87921 10.4579 2.87768C10.461 2.87673 10.4646 2.87562 10.469 2.87451C10.4799 2.8714 10.4905 2.86851 10.501 2.86565C10.5283 2.85822 10.5546 2.85108 10.5809 2.84128C10.5838 2.83908 10.589 2.83665 10.6001 2.83279C10.6027 2.83138 10.6053 2.82994 10.6077 2.82866C10.6104 2.82719 10.6127 2.82591 10.6143 2.8251C10.6311 2.81335 10.6498 2.80257 10.6688 2.79165C10.6827 2.78365 10.6967 2.77557 10.7102 2.76697C10.7117 2.76552 10.7131 2.76479 10.7146 2.76406C10.716 2.76334 10.7175 2.76261 10.7189 2.76116L10.7248 2.75534C10.748 2.735 10.7683 2.71466 10.7916 2.69141C10.7954 2.68765 10.8045 2.67635 10.8139 2.6647C10.8264 2.64929 10.8393 2.63328 10.841 2.63328C10.8526 2.61584 10.8643 2.5984 10.873 2.58096C10.8773 2.5737 10.8817 2.5657 10.8861 2.55771C10.8904 2.54972 10.8948 2.54173 10.8991 2.53446C10.8991 2.53446 10.902 2.52865 10.9049 2.51993C10.9064 2.51848 10.9071 2.51702 10.9079 2.51557C10.9086 2.51412 10.9093 2.51266 10.9108 2.51121C10.9127 2.50636 10.915 2.50085 10.9172 2.49535C10.9217 2.48439 10.9263 2.47342 10.9282 2.46761C10.9329 2.45187 10.9368 2.43443 10.9407 2.41666C10.9435 2.40401 10.9464 2.3912 10.9496 2.37872ZM10.5852 2.83963C10.5879 2.83829 10.5912 2.83695 10.5946 2.83561C10.5912 2.83728 10.5879 2.83873 10.5852 2.83963ZM13.75 4H1.75V19H13.75V4Z" fill="#00A3FF"/>
</svg>
