<svg width="25" height="26" viewBox="0 0 25 26" fill="none" xmlns="http://www.w3.org/2000/svg">
<path fill-rule="evenodd" clip-rule="evenodd" d="M21.9656 4.83481C23.9265 7.10809 25.0038 10.0115 25.0006 13.0136C24.9972 16.0157 23.9135 18.9168 21.9476 21.1852L16.8672 16.1048C17.5091 15.2018 17.8553 14.1217 17.8581 13.0138C17.8609 11.9059 17.5199 10.8243 16.8823 9.91801L21.9656 4.83481ZM20.7058 3.56963L15.6261 8.6493C14.7189 7.9974 13.6307 7.64519 12.5134 7.64244C11.3963 7.63945 10.3061 7.98604 9.39571 8.63318L4.31527 3.55274H4.31507C6.5911 1.58085 9.50245 0.496793 12.5138 0.500007C15.5251 0.502997 18.4343 1.5932 20.7058 3.56968L20.7058 3.56963ZM4.33548 22.465L9.41872 17.3818C10.325 18.0193 11.4066 18.3604 12.5145 18.3576C13.6225 18.3548 14.7025 18.0086 15.6055 17.3666L20.686 22.4471C18.4171 24.413 15.5164 25.4966 12.5143 25.5C9.51219 25.5032 6.60906 24.4259 4.33553 22.465H4.33548ZM3.07029 21.2052C1.09361 18.9334 0.00342547 16.0245 7.01672e-06 13.0132C-0.00318184 10.0019 1.08065 7.09059 3.05254 4.81451L8.13399 9.89495L8.13379 9.89514C7.48664 10.8056 7.14005 11.8958 7.14306 13.0128C7.14585 14.1301 7.49801 15.2183 8.14992 16.1256L3.07029 21.2052Z" fill="#FFBD80"/>
</svg>
