<svg width="29" height="26" viewBox="0 0 29 26" fill="none" xmlns="http://www.w3.org/2000/svg">
<path d="M13.7008 2.13655L0.40966 9.05525C-0.136553 9.35863 -0.136553 10.2084 0.40966 10.5118L13.7008 17.4305C14.065 17.6126 14.4899 17.6126 14.854 17.4305L28.1452 10.5118C28.6914 10.2084 28.6914 9.35863 28.1452 9.05525L14.7932 2.13655C14.429 1.95448 14.0649 1.95448 13.7007 2.13655H13.7008Z" fill="#916AFF"/>
<path d="M28.0841 15.4885L25.5959 14.214C25.4746 14.1533 25.2925 14.1533 25.1105 14.214L15.5819 19.1907C15.157 19.4335 14.6715 19.4941 14.2466 19.4941C13.7612 19.4941 13.3363 19.3728 12.9114 19.1907L3.38335 14.214C3.26204 14.1533 3.07997 14.1533 2.89789 14.214L0.40966 15.4885C-0.136553 15.7919 -0.136553 16.6417 0.40966 16.9451L13.7008 23.8638C14.065 24.0459 14.4899 24.0459 14.854 23.8638L28.1452 16.9451C28.6305 16.6417 28.6305 15.7921 28.0843 15.4885H28.0841Z" fill="#916AFF"/>
</svg>
