<?xml version="1.0" encoding="utf-8"?>
<!-- Generator: Adobe Illustrator 15.1.0, SVG Export Plug-In . SVG Version: 6.00 Build 0)  -->
<!DOCTYPE svg PUBLIC "-//W3C//DTD SVG 1.1//EN" "http://www.w3.org/Graphics/SVG/1.1/DTD/svg11.dtd">
<svg version="1.1" id="Layer_1" xmlns="http://www.w3.org/2000/svg" xmlns:xlink="http://www.w3.org/1999/xlink" x="0px" y="0px"
	 width="87.318px" height="83.411px" viewBox="0 0 87.318 83.411" enable-background="new 0 0 87.318 83.411" xml:space="preserve">
<g id="DIALOGFRAMEWORK">
	<circle fill="#889597" cx="20.178" cy="25.659" r="9.253"/>
	<circle fill="#889597" cx="43.659" cy="41.706" r="9.252"/>
	<circle fill="#889597" cx="43.659" cy="9.324" r="9.252"/>
	<circle fill="#889597" cx="67.141" cy="25.659" r="9.252"/>
	<circle fill="#889597" cx="43.659" cy="74.086" r="9.252"/>
	<circle fill="#889597" cx="20.178" cy="57.751" r="9.253"/>
	<circle fill="#889597" cx="67.141" cy="57.751" r="9.252"/>
	
		<rect x="53.666" y="19.461" transform="matrix(0.5642 0.8256 -0.8256 0.5642 51.9487 -31.0618)" fill="#889597" width="3.469" height="28.442"/>
	
		<rect x="30.826" y="3.27" transform="matrix(0.5643 0.8256 -0.8256 0.5643 28.6277 -19.2611)" fill="#889597" width="3.47" height="28.442"/>
	
		<rect x="53.666" y="51.698" transform="matrix(0.5642 0.8256 -0.8256 0.5642 78.5641 -17.0143)" fill="#889597" width="3.469" height="28.441"/>
	
		<rect x="29.958" y="35.436" transform="matrix(0.5639 0.8259 -0.8259 0.5639 54.8315 -4.5165)" fill="#889597" width="3.468" height="28.44"/>
	
		<rect x="31.476" y="20.689" transform="matrix(0.5527 -0.8334 0.8334 0.5527 -14.2373 43.2951)" fill="#889597" width="3.47" height="28.441"/>
	
		<rect x="53.665" y="3.269" transform="matrix(0.5523 -0.8336 0.8336 0.5523 10.2223 54.0145)" fill="#889597" width="3.469" height="28.443"/>
	
		<rect x="31.476" y="52.782" transform="matrix(0.5525 -0.8335 0.8335 0.5525 -40.9857 57.6635)" fill="#889597" width="3.47" height="28.441"/>
	
		<rect x="53.666" y="35.361" transform="matrix(0.5524 -0.8336 0.8336 0.5524 -16.5326 68.3766)" fill="#889597" width="3.469" height="28.443"/>
	
		<rect x="65.407" y="26.801" transform="matrix(1 -0.0034 0.0034 1 -0.1381 0.2269)" fill="#889597" width="3.471" height="28.443"/>
	
		<rect x="18.667" y="26.801" transform="matrix(1 -0.0034 0.0034 1 -0.1385 0.0692)" fill="#889597" width="3.469" height="28.443"/>
	
		<rect x="42.437" y="44.891" transform="matrix(1 -0.0028 0.0028 1 -0.1661 0.1245)" fill="#889597" width="3.471" height="28.442"/>
</g>
</svg>
