<?xml version="1.0" encoding="utf-8"?>
<!-- Generator: Adobe Illustrator 15.1.0, SVG Export Plug-In . SVG Version: 6.00 Build 0)  -->
<!DOCTYPE svg PUBLIC "-//W3C//DTD SVG 1.1//EN" "http://www.w3.org/Graphics/SVG/1.1/DTD/svg11.dtd">
<svg version="1.1" id="Layer_1" xmlns="http://www.w3.org/2000/svg" xmlns:xlink="http://www.w3.org/1999/xlink" x="0px" y="0px"
	 width="87.318px" height="83.411px" viewBox="0 0 87.318 83.411" enable-background="new 0 0 87.318 83.411" xml:space="preserve">
<g transform="translate(-306.26351,190.84496)">
	<g>
		<g transform="matrix(5.34921,0,0,5.34921,-1332.0035,-1857.9695)">
			<path fill="#889597" d="M314.768,326.119v-4.224l7.551-4.224v4.224L314.768,326.119z"/>
			<path fill="#889597" d="M314.188,326.165v-4.224l-7.551-4.224v4.224L314.188,326.165z"/>
			<path fill="#889597" d="M312.483,316.089c0-0.654-0.947-1.184-2.116-1.184c-1.169,0-2.116,0.53-2.116,1.184
				c0,0.654,0.947,1.183,2.116,1.183C311.535,317.273,312.483,316.743,312.483,316.089z"/>
			<path fill="#889597" d="M316.428,318.151c0-0.654-0.947-1.184-2.116-1.184c-1.168,0-2.116,0.53-2.116,1.184
				c0,0.654,0.947,1.183,2.116,1.183C315.481,319.335,316.428,318.805,316.428,318.151L316.428,318.151z"/>
			<path fill="#889597" d="M320.493,316.089c0-0.654-0.947-1.184-2.116-1.184c-1.168,0-2.116,0.53-2.116,1.184
				c0,0.654,0.948,1.183,2.116,1.183C319.546,317.273,320.493,316.743,320.493,316.089z"/>
			<path fill="#889597" d="M314.52,312.99l-1.621,0.906c0.375-0.188,0.87-0.303,1.413-0.303c1.169,0,2.116,0.53,2.116,1.184
				c0,0.654-0.947,1.184-2.116,1.184c-1.168,0-2.116-0.53-2.116-1.184c0-0.304,0.205-0.581,0.541-0.79l-3.468,1.939
				c0.32-0.108,0.695-0.171,1.097-0.171c1.168,0,2.116,0.53,2.116,1.184c0,0.653-0.947,1.184-2.116,1.184
				c-1.169,0-2.116-0.53-2.116-1.184c0-0.225,0.112-0.435,0.306-0.614l-1.534,0.858l7.496,4.193l7.496-4.193L314.52,312.99z
				 M314.312,320.185c-1.168,0-2.116-0.53-2.116-1.183c0-0.654,0.947-1.184,2.116-1.184c1.169,0,2.116,0.53,2.116,1.184
				C316.428,319.655,315.481,320.185,314.312,320.185z M318.378,318.123c-1.168,0-2.116-0.53-2.116-1.184
				c0-0.654,0.948-1.184,2.116-1.184c1.169,0,2.116,0.53,2.116,1.184C320.493,317.593,319.546,318.123,318.378,318.123z"/>
			<path fill="#889597" d="M316.428,313.927c0-0.654-0.947-1.183-2.116-1.183c-1.168,0-2.116,0.53-2.116,1.183
				c0,0.654,0.947,1.184,2.116,1.184C315.481,315.111,316.428,314.581,316.428,313.927L316.428,313.927z"/>
		</g>
	</g>
</g>
</svg>
