<?xml version="1.0" standalone="no"?>
<!DOCTYPE svg PUBLIC "-//W3C//DTD SVG 1.1//EN" "http://www.w3.org/Graphics/SVG/1.1/DTD/svg11.dtd" >
<svg xmlns="http://www.w3.org/2000/svg">
<metadata></metadata>
<defs>
<font id="exoregular" horiz-adv-x="1134" >
<font-face units-per-em="2048" ascent="1638" descent="-410" />
<missing-glyph horiz-adv-x="512" />
<glyph horiz-adv-x="0" />
<glyph unicode="&#xd;" horiz-adv-x="2048" />
<glyph unicode=" "  horiz-adv-x="512" />
<glyph unicode="&#x09;" horiz-adv-x="512" />
<glyph unicode="&#xa0;" horiz-adv-x="512" />
<glyph unicode="!" horiz-adv-x="550" d="M168 47v117q0 51 49 51h113q47 0 47 -51v-117q0 -47 -47 -47h-113q-49 0 -49 47zM180 1497h182l-14 -1096h-153z" />
<glyph unicode="&#x22;" horiz-adv-x="778" d="M174 1362v137h154v-137l-21 -275h-110zM451 1362v137h153v-137l-20 -275h-111z" />
<glyph unicode="#" horiz-adv-x="1406" d="M41 475l16 107h326l53 338h-325l18 106h324l75 473h107l-76 -473h340l74 473h106l-73 -473h362l-18 -106h-363l-53 -340h362l-16 -107h-362l-76 -473h-107l76 473l-340 2l-76 -475h-106l76 475h-324zM489 582l338 -2l54 340h-338z" />
<glyph unicode="$" horiz-adv-x="1177" d="M113 1012v135q2 203 103 281.5t284 82.5v177h118v-183q133 -10 392 -43v-119l-492 19h-41.5t-64.5 -5t-74 -26q-74 -45 -74 -184v-135q0 -201 213 -201h266q201 0 269 -115q53 -94 53 -237v-140q0 -203 -143 -278q-106 -57 -260 -57h-44v-168h-118v178l-340 41v112 l489 -12q264 0 264 184v140q0 201 -170 200h-266q-215 0 -297 115q-68 98 -67 238z" />
<glyph unicode="%" horiz-adv-x="1955" d="M86 971v272q0 135 57.5 195.5t206.5 60.5h207q145 0 202.5 -60.5t57.5 -195.5v-272q0 -135 -57.5 -195.5t-206.5 -60.5h-207q-145 0 -202.5 60.5t-57.5 195.5zM219 971q0 -74 26.5 -98.5t100.5 -24.5h207q86 0 108.5 24.5t22.5 98.5v272q0 74 -26.5 98.5t-100.5 24.5 h-207q-84 0 -107.5 -24.5t-23.5 -98.5v-272zM465 0l897 1499h145l-897 -1499h-145zM1139 260v272q0 135 57 195.5t207 60.5h207q145 0 202.5 -60t57.5 -196v-272q0 -135 -57.5 -195.5t-206.5 -60.5h-207q-145 0 -202.5 60.5t-57.5 195.5zM1272 260q0 -74 26.5 -98.5 t100.5 -24.5h207q86 0 108.5 24.5t22.5 98.5v272q0 74 -27 98.5t-100 24.5h-207q-84 0 -107.5 -24.5t-23.5 -98.5v-272z" />
<glyph unicode="&#x26;" horiz-adv-x="1304" d="M68 420q0 188 165 330l177 149l-129 174q-68 98 -68 180q0 102 67.5 168t141.5 73t147 7q195 0 400 -47v-102h-416q-92 0 -137 -20.5t-45 -76t71 -153.5l482 -651l233 243l47 -49l-104 -219l-84 -92l239 -334h-180l-168 227l-147 -137q-104 -98 -254 -98q-223 0 -346 176 q-92 123 -92 252zM215 430q0 -86 70 -174q90 -117 221 -117q78 0 145 56l164 153l-319 426l-160 -133q-121 -98 -121 -211z" />
<glyph unicode="'" horiz-adv-x="378" d="M113 1362v137h153v-137l-20 -275h-111z" />
<glyph unicode="(" horiz-adv-x="686" d="M154 656q0 169 33.5 339t80.5 301q96 264 178 408l33 57h166q-47 -72 -111.5 -209t-109.5 -260t-82 -296t-37 -336.5t35 -340t86 -305.5q102 -266 184 -391l35 -53h-166l-35 53q-23 33 -79 145.5t-99 233.5t-77.5 303t-34.5 351z" />
<glyph unicode=")" horiz-adv-x="686" d="M41 -430q47 68 111.5 197t109.5 249.5t82 300t37 343t-35 333.5t-84 301q-106 272 -186 410l-35 57h166q12 -23 34.5 -61.5t79 -160.5t99.5 -245t77.5 -296t34.5 -342t-33.5 -349t-80.5 -307q-104 -270 -176 -381l-35 -49h-166z" />
<glyph unicode="*" horiz-adv-x="901" d="M102 1159v82l285 59l10 -151zM242 848l49 276l147 -34l-121 -267zM360 1468l80 33l154 -241l-139 -64zM426 975l84 127l225 -187l-43 -65zM514 1169l246 156l39 -72l-187 -198z" />
<glyph unicode="+" horiz-adv-x="1056" d="M102 653v152h349v350h151v-350h352v-152h-352v-350h-151v350h-349z" />
<glyph unicode="," horiz-adv-x="552" d="M174 51v111q0 55 51 55h105q49 0 49 -55v-185q0 -55 -21 -92q-41 -70 -137 -69h-16l-21 4v65h4q59 0 60 64v51h-23q-51 0 -51 51z" />
<glyph unicode="-" horiz-adv-x="724" d="M41 518v152h643v-152h-643z" />
<glyph unicode="." horiz-adv-x="557" d="M174 47v117q0 51 49 51h109q51 0 51 -51v-117q0 -47 -51 -47h-109q-49 0 -49 47z" />
<glyph unicode="/" horiz-adv-x="819" d="M41 -147l575 1724h162l-575 -1724h-162z" />
<glyph unicode="0" horiz-adv-x="1316" d="M143 332v835q0 160 99.5 246t253.5 86h335q176 0 259.5 -93t83.5 -239v-835q0 -332 -343 -332h-335q-154 0 -253.5 80t-99.5 252zM295 332q0 -94 58.5 -137t142.5 -43h335q190 0 191 180v835q0 180 -191 181h-335q-102 0 -151.5 -50.5t-49.5 -130.5v-835z" />
<glyph unicode="1" horiz-adv-x="741" d="M82 1217v108l344 174h152v-1499h-152v1327z" />
<glyph unicode="2" horiz-adv-x="1222" d="M82 1366v113q322 41 623 41q207 0 311 -127t104 -303q0 -113 -63.5 -242t-149.5 -232.5t-198 -205.5q-174 -162 -320 -258h731v-152h-1024v139q406 276 631 516q96 102 168 222t72 228.5t-65.5 184.5t-199.5 76h-620z" />
<glyph unicode="3" horiz-adv-x="1216" d="M61 1352v94q160 59 490 59q78 0 162 -2q164 -2 257 -97t93 -241v-141q0 -225 -135 -279q135 -86 135 -294v-121q0 -344 -365 -344h-122t-101 1t-75.5 2t-66.5 4t-71 7l-61 10q-66 10 -127 33l2 96h610q162 0 203 90q18 39 18 101v121q0 209 -209 217l-497 14v119l497 20 q213 10 213 203v141q0 92 -62.5 139.5t-150.5 47.5h-637z" />
<glyph unicode="4" horiz-adv-x="1234" d="M41 459l657 1040h181l-603 -956h582v424l76 153h76v-577h184v-121l-184 -39v-379h-152v379h-747z" />
<glyph unicode="5" horiz-adv-x="1234" d="M156 41v113h622q96 0 140.5 55t44.5 135v225q0 137 -80 174q-41 18 -105 19h-315q-68 0 -118 -39t-50 -115h-135l45 891h864v-151h-725l-25 -496q56 68 261 68l198 -7q174 0 255 -91t81 -249v-233q0 -98 -33.5 -171t-89.5 -108q-102 -70 -213 -69q-207 0 -317.5 8 t-304.5 41z" />
<glyph unicode="6" horiz-adv-x="1275" d="M133 786q0 375 103.5 550t248.5 175q334 0 619 -38v-113h-592q-66 0 -113 -55.5t-69 -145.5q-41 -164 -45 -325q367 43 548 43t250.5 -82t69.5 -224v-268q0 -305 -330 -305h-305q-90 0 -155.5 34t-120.5 118q-109 169 -109 636zM285 725q0 -254 32 -360q16 -55 39 -107 q49 -109 162 -108h305q90 0 135.5 32.5t45.5 132.5v256q0 154 -181 154h-538z" />
<glyph unicode="7" horiz-adv-x="1118" d="M61 1348v151h940l56 -98l-543 -1401h-180l528 1348h-801z" />
<glyph unicode="8" horiz-adv-x="1298" d="M154 315v201q0 70 28.5 118t61 66.5t84.5 34.5q-90 31 -132 112t-42 175v133q0 195 94 274.5t266 79.5h299q168 0 250 -84t82 -270v-133v-21.5t-3 -37t-16.5 -64.5t-48.5 -72.5t-86 -42.5q76 -14 116 -100t38 -168v-201q0 -94 -33 -160.5t-88 -97.5q-96 -57 -213 -57 h-297q-100 0 -172 25.5t-107.5 59.5t-54.5 83q-26 67 -26 147zM305 309q0 -158 209 -157h297q74 0 128 40.5t54 116.5v215q0 82 -51 124t-125 42h-325q-80 0 -133.5 -39t-53.5 -127v-215zM305 1012q0 -92 58.5 -132t128.5 -40h325q176 0 176 172v139q0 111 -44 159t-136 48 h-299q-111 0 -160 -39t-49 -168v-139z" />
<glyph unicode="9" horiz-adv-x="1275" d="M123 938v268q0 305 330 305h305q90 0 155.5 -33.5t118.5 -117.5q111 -170 111 -637q0 -375 -103.5 -550t-248.5 -175q-430 0 -619 39v113h592q66 0 113 55t69 145q41 164 45 326q-365 -43 -547 -43t-251.5 82t-69.5 223zM272 938q0 -154 181 -154h538q0 252 -33 363 q-16 53 -40 106q-47 106 -160 107h-305q-90 0 -135.5 -33t-45.5 -133v-256z" />
<glyph unicode=":" horiz-adv-x="557" d="M174 47v117q0 51 49 51h109q51 0 51 -51v-117q0 -47 -51 -47h-109q-49 0 -49 47zM174 922v116q0 51 49 52h109q51 0 51 -52v-116q0 -47 -51 -48h-109q-49 1 -49 48z" />
<glyph unicode=";" horiz-adv-x="561" d="M174 51v111q0 23 14.5 39t36.5 16h105q23 0 36 -15.5t13 -39.5v-185q0 -55 -21 -92q-41 -70 -137 -69h-16l-21 4v65h4q59 0 60 64v51h-23q-20 0 -35.5 16.5t-15.5 34.5zM178 924v116q0 51 49 52h109q51 0 51 -52v-116q0 -47 -51 -47h-109q-49 0 -49 47z" />
<glyph unicode="&#x3c;" horiz-adv-x="972" d="M102 643v164l768 332v-164l-565 -250l565 -270v-168z" />
<glyph unicode="=" horiz-adv-x="956" d="M41 434v152h874v-152h-874zM41 862v152h874v-152h-874z" />
<glyph unicode="&#x3e;" horiz-adv-x="972" d="M102 287v168l566 270l-566 250v164l768 -332v-164z" />
<glyph unicode="?" horiz-adv-x="1107" d="M41 1360v113q102 16 156.5 21t123.5 12t89 7l143 5q43 0 65 -5q217 0 312.5 -105t95.5 -273v-207q0 -199 -137 -277q-96 -55 -234 -55q-59 0 -127 10v-207h-153v332h291q86 4 148.5 53.5t62.5 143.5v207q0 119 -66 172t-215 53h-555zM348 47v117q0 51 49 51h113 q47 0 47 -51v-117q0 -47 -47 -47h-113q-49 0 -49 47z" />
<glyph unicode="@" horiz-adv-x="1728" d="M133 0v713q0 154 76 239q33 37 102.5 67t165.5 30h441q129 0 221 -67t92 -220v-762h-115l-29 131l-20 -16q-178 -133 -350 -133q-109 0 -183.5 67.5t-72.5 171.5v109q0 125 69.5 198.5t194.5 73.5h358q2 78 2 117t-2 39q0 82 -41 110.5t-131 28.5h-434q-90 0 -141 -37 t-51 -147v-713q0 -211 192 -211h715q121 0 166 50t45 161v1049q0 115 -57.5 174t-153.5 59h-827v96q266 55 567 56h22h238q168 -4 265 -101.5t97 -283.5v-1049q0 -365 -362 -365h-715q-160 0 -252 94.5t-92 270.5zM612 233q0 -35 37 -67.5t82 -32.5h33t100.5 20.5t104 36 t114.5 54.5v252l-348 -33q-59 -6 -92 -44t-31 -93v-93z" />
<glyph unicode="A" horiz-adv-x="1372" d="M92 0l551 1499h152l526 -1499h-180l-129 418h-598l-135 -418h-187zM469 569h489l-241 699z" />
<glyph unicode="B" horiz-adv-x="1220" d="M164 0v1499h577q203 0 296 -118.5t93 -270.5q0 -272 -188 -332q78 -18 137.5 -109t59.5 -251q0 -172 -80 -287q-92 -131 -318 -131h-577zM317 152h424q246 0 246 270q0 123 -61.5 205t-184.5 82h-424v-557zM317 860h424q238 0 238 244t-238 244h-424v-488z" />
<glyph unicode="C" horiz-adv-x="1183" d="M218.5 1329.5q105.5 186.5 393.5 186.5q223 0 500 -52v-121q-369 21 -501 21h-3q-130 0 -202 -50t-107 -182.5t-35 -381.5q0 -610 348 -611l500 15v-121q-242 -45 -500 -45q-499 0 -499 763q0 392 105.5 578.5z" />
<glyph unicode="D" horiz-adv-x="1345" d="M164 0v1499h557q133 0 232.5 -50t154.5 -126t90 -182q55 -170 55 -398q0 -223 -73 -407q-86 -209 -252 -291q-92 -45 -207 -45h-557zM315 158h406q129 0 217 84q164 154 164 487.5t-97.5 476t-283.5 142.5h-406v-1190z" />
<glyph unicode="E" horiz-adv-x="1161" d="M164 252v981q0 141 70.5 203.5t175.5 62.5h12l647 -33v-118h-647q-49 0 -74.5 -19.5t-29 -39t-3.5 -56.5v-410l672 -20v-121l-672 -20v-410q0 -51 22.5 -75.5t43 -28t61.5 -3.5h627v-116l-627 -35h-30q-248 0 -248 258z" />
<glyph unicode="F" horiz-adv-x="1161" d="M164 0v1233q0 141 70.5 203.5t175.5 62.5h12l647 -33v-118h-647q-49 0 -74.5 -19.5t-29 -39t-3.5 -56.5v-410l672 -20v-121l-672 -20v-662h-151z" />
<glyph unicode="G" horiz-adv-x="1257" d="M113 771q0 157 18.5 281t67.5 234q100 229 393 230q80 0 247 -17.5t273 -38.5v-121q-18 0 -102 6.5t-150 10.5q-131 8 -268 8q-195 0 -261.5 -140.5t-66.5 -476t74 -471t262 -137.5q70 0 168 23.5t162 46.5l63 24v410h-344v102q186 51 357 52q66 0 139 -6v-791h-115 l-33 100q-199 -110 -393 -110h-4h-12q-115 0 -203 39t-140 103.5t-83 167.5t-40 208.5t-9 262.5z" />
<glyph unicode="H" horiz-adv-x="1306" d="M164 0v1499h151v-698h717v698h152v-1499h-152v649h-717v-649h-151z" />
<glyph unicode="I" horiz-adv-x="438" d="M164 0v1499h151v-1499h-151z" />
<glyph unicode="J" horiz-adv-x="735" d="M72 43l8 111q131 -33 205 -33q174 0 176 217v1161h151v-1161q0 -233 -106 -301q-78 -49 -214 -49t-220 55z" />
<glyph unicode="K" horiz-adv-x="1210" d="M164 0v1499h151v-672h168l471 672h185l-516 -747l516 -752h-185l-471 676h-166v-676h-153z" />
<glyph unicode="L" horiz-adv-x="1140" d="M164 258v1241h151v-1241q0 -78 43 -94q33 -12 84 -12h627v-152h-627q-117 0 -188 41q-90 51 -90 217z" />
<glyph unicode="M" horiz-adv-x="1640" d="M113 0l98 1499h209l399 -1247l387 1247h207l115 -1499h-152l-92 1225l-385 -1225h-156l-397 1225l-82 -1225h-151z" />
<glyph unicode="N" horiz-adv-x="1392" d="M164 0v1499h155l799 -1216v1216h152v-1499h-152l-801 1217v-1217h-153z" />
<glyph unicode="O" horiz-adv-x="1384" d="M133 741q0 170 18.5 298t57.5 212t85 136.5t118 78.5q117 43 303 43q268 0 377 -82q104 -80 149 -227q51 -180 51 -417.5t-25.5 -374t-69.5 -218t-121 -126t-158.5 -58.5t-193.5 -14t-181.5 8t-141 33.5t-116.5 76t-82 132.5t-53.5 205.5t-16.5 293.5zM285 690.5 q0 -149.5 19.5 -266.5t75.5 -180.5t130 -82t190.5 -18.5t182 13.5t119 49.5t81.5 103q57 135 58 430q0 322 -49 432q-20 47 -37 78t-49.5 52.5t-56 33t-69.5 16.5t-77 6t-88.5 1t-87 -1t-75.5 -6t-70.5 -16.5t-57.5 -33t-50.5 -52t-38 -77t-29.5 -107.5t-15 -143t-6 -231.5z " />
<glyph unicode="P" horiz-adv-x="1189" d="M123 0v1499h616q358 0 359 -434q0 -336 -168 -418q-53 -25 -94 -31t-98.5 -6t-256 18.5t-207.5 22.5v-651h-151zM274 762h465q98 0 151.5 59.5t53.5 243.5q-4 190 -80 242q-55 39 -125 39h-465v-584z" />
<glyph unicode="Q" horiz-adv-x="1384" d="M133 758.5q0 187.5 27.5 331t73 225.5t124 126t156.5 56t187.5 12t177 -8t139.5 -34.5t118 -79t85 -136.5q71 -160 71 -502v-10q0 -369 -96 -549q-45 -82 -123 -126t-160 -58t-193.5 -14t-181 8t-141 33.5t-114.5 76t-80 132.5t-53.5 205.5t-16.5 311zM285 690.5 q0 -149.5 19.5 -266.5t73.5 -180.5t128 -82t204 -18.5t204.5 21.5t130 86t76 180.5t20.5 263.5t-6.5 228.5t-15.5 142t-28.5 107.5t-37 77t-50 52t-56 33t-71 16.5t-78 6t-88 1t-87 -1t-75.5 -6t-69.5 -16.5t-56.5 -33t-49.5 -52t-37 -77t-29.5 -107.5t-15 -143t-6 -231.5z M649 -68h107q101 -72 187 -72h1q86 1 156 31v-163q-68 -18 -113 -18.5t-61 -0.5q-94 6 -177 66.5t-100 156.5z" />
<glyph unicode="R" horiz-adv-x="1214" d="M123 0v1499h639q346 0 346 -450q0 -393 -260 -431l315 -618h-164l-315 612l-410 29v-641h-151zM274 776h488q121 0 151 60q41 72 41 232.5t-53 219t-139 58.5h-488v-570z" />
<glyph unicode="S" horiz-adv-x="1196" d="M133 1012v135q0 207 106.5 285.5t272.5 78.5t539 -49v-123l-512 21h-33q-104 0 -162.5 -37t-58.5 -176v-135q0 -127 50 -164t159 -37h290q319 0 320 -352v-140q0 -207 -133 -278q-111 -57 -281 -57q-72 0 -253 18t-259 33v123q225 -23 512 -23q262 0 262 184v140 q0 96 -36.5 148t-131.5 52h-286q-233 0 -305 113q-60 95 -60 240z" />
<glyph unicode="T" horiz-adv-x="1183" d="M92 1348v151h1041v-151h-451v-1348h-152v1348h-438z" />
<glyph unicode="U" horiz-adv-x="1386" d="M164 655v844h151v-844q0 -186 23.5 -295.5t87 -154.5t115 -54.5t110.5 -9.5h68q145 0 180 14.5t65.5 32t49 43t39 64.5t32.5 90q25 113 25 270v844h154v-844q0 -190 -36 -322t-82 -197.5t-131 -100.5t-140.5 -40t-108.5 -5h-87t-61.5 1t-78 4t-77 12t-68.5 24.5t-65.5 41 t-54 60.5t-47 85t-32.5 114q-31 116 -31 323z" />
<glyph unicode="V" horiz-adv-x="1372" d="M92 1499h166l438 -1257l459 1257h166l-551 -1499h-152z" />
<glyph unicode="W" horiz-adv-x="1970" d="M92 1499h166l436 -1235l371 1235h172l-139 -479l272 -768l383 1247h166l-469 -1499h-152l-280 766l-248 -766h-152z" />
<glyph unicode="X" horiz-adv-x="1220" d="M92 1499h166l369 -629l377 629h165l-442 -739l432 -760h-166l-366 631l-363 -631h-166l428 760z" />
<glyph unicode="Y" horiz-adv-x="1290" d="M92 1499h166l387 -786l428 786h166l-518 -967v-532h-152v532z" />
<glyph unicode="Z" horiz-adv-x="1153" d="M72 0v152l811 1196h-811v151h1009v-151l-811 -1196h811v-152h-1009z" />
<glyph unicode="[" horiz-adv-x="657" d="M174 -78v1450q0 119 45 221q27 59 86.5 95t147.5 36h163v-151h-163q-57 0 -92 -54.5t-35 -146.5v-1450q0 -92 34.5 -146.5t92.5 -54.5h163v-151h-163q-88 0 -147.5 36t-86.5 95q-45 102 -45 221z" />
<glyph unicode="\" horiz-adv-x="819" d="M41 1577h162l575 -1724h-162z" />
<glyph unicode="]" horiz-adv-x="657" d="M41 -279h164q57 0 92 54.5t35 146.5v1450q0 92 -35 146.5t-92 54.5h-164v151h164q88 0 147.5 -35.5t85.5 -95.5q45 -102 45 -221v-1450q0 -119 -45 -221q-27 -59 -86 -95t-147 -36h-164v151z" />
<glyph unicode="^" horiz-adv-x="802" d="M102 1087l240 267h145l213 -267h-145l-143 146l-162 -146h-148z" />
<glyph unicode="_" horiz-adv-x="1380" d="M41 -2v152h1298v-152h-1298z" />
<glyph unicode="`" horiz-adv-x="495" d="M41 1360h195l219 -273h-142z" />
<glyph unicode="a" horiz-adv-x="1062" d="M82 258v125q0 125 72.5 198.5t199.5 73.5h341h114q2 68 2 102t-2 36q0 168 -176 168t-516 -25v111q221 61 536 61q133 0 220.5 -78t87.5 -237v-793h-113l-39 131l-31 -14q-266 -129 -424 -129q-117 0 -194.5 71.5t-77.5 198.5zM233 268q0 -129 121 -129q74 0 187.5 27 t191.5 51l76 27v293l-455 -33q-61 -6 -91 -43t-30 -90v-103z" />
<glyph unicode="b" d="M123 0v1608h147v-586q92 37 210 59.5t211 22.5t168 -47t112 -135q61 -152 61 -383q0 -211 -67 -367q-37 -86 -111 -135t-174 -49t-228 48t-180 85l-41 -121h-108zM272 233q232 -94 402 -94q207 0 207 400q0 238 -50.5 325.5t-156.5 87.5q-197 0 -402 -53v-666z" />
<glyph unicode="c" horiz-adv-x="1024" d="M102 545q0 172 26 285.5t77 170t110.5 77t192.5 20.5t420 -54v-110q-285 12 -403.5 12t-149.5 -10t-64 -47q-57 -72 -57 -327t46 -338t161 -83q193 0 403 17l78 6v-115q-197 -55 -481 -59q-84 0 -142.5 20.5t-110.5 76.5t-79 171t-27 287z" />
<glyph unicode="d" d="M102 545.5q0 111.5 13.5 201t48.5 175.5q76 182 297 182q76 0 192.5 -22.5t208.5 -59.5v586h150v-1608h-109l-41 121q-51 -37 -179 -85t-228.5 -48t-174 49t-110.5 134t-52.5 174t-15.5 200.5zM254 539q0 -399 207 -400q170 0 401 94v666q-205 53 -401 53 q-106 0 -156.5 -87.5t-50.5 -325.5z" />
<glyph unicode="e" horiz-adv-x="1075" d="M102 549q0 180 25 289.5t89.5 166t143 74t204.5 17.5t189.5 -10.5t125 -47.5t88 -116.5t26.5 -210.5q0 -250 -280 -250h-459q0 -190 43 -255t164 -65q373 0 512 21v-115q-203 -57 -512 -57q-207 0 -283 118.5t-76 440.5zM254 610h459q129 0 129 101q0 158 -46 195.5 t-216 37.5q-211 0 -252 -43q-57 -61 -65.5 -135t-8.5 -156z" />
<glyph unicode="f" horiz-adv-x="819" d="M41 936v117l199 34v203q0 166 57 242q25 31 75 54.5t148 23.5t258 -49v-101l-252 2q-94 0 -116 -49q-18 -43 -19 -123v-203h303v-151h-303v-936h-151v936h-199z" />
<glyph unicode="g" d="M92 -63l82 133q-76 53 -76 166q0 57 31 107t90 63q-119 76 -119 282.5t93.5 305t261.5 98.5h639v-115l-166 -37q2 -4 14 -25.5t18.5 -35t14.5 -39.5q16 -49 16 -121t-13 -131.5t-46 -128t-104.5 -111.5t-174.5 -43h-319q-84 0 -84 -61q0 -70 84 -70h436q125 0 194.5 -77 t69.5 -206v-129q0 -111 -51 -200q-31 -53 -96.5 -84t-159.5 -31h-307q-150 0 -239 80t-89 235v175zM244 39v-277q0 -163 174 -163h2h307q156 0 156 163v119q0 78 -28 110t-112 32h-407q-55 0 -92 16zM252 705q0 -86 27 -144q49 -104 161 -104h201q111 0 155 74.5t44 158.5 q0 123 -44 186.5t-157 63.5h-184h-2q-201 0 -201 -235z" />
<glyph unicode="h" horiz-adv-x="1114" d="M123 0v1606h151v-645q6 2 45 25.5t48.5 27.5t44 23.5t49 23.5t47.5 16.5t53 16.5q66 12 115 12q156 0 246 -102.5t90 -245.5v-758h-152v758q0 98 -50 147t-131 49t-150.5 -16t-111.5 -33.5t-143 -66.5v-838h-151z" />
<glyph unicode="i" horiz-adv-x="403" d="M102 1264v110q0 51 50 51h102q47 0 47 -51v-110q0 -47 -47 -47h-102q-50 0 -50 47zM123 0v1087h151v-1087h-151z" />
<glyph unicode="j" horiz-adv-x="444" d="M123 1264v110q0 51 49 51h102q47 0 48 -51v-110q0 -47 -48 -47h-102q-49 0 -49 47zM145 -553v1640h152v-1095v-47q0 -326 -53 -498h-99z" />
<glyph unicode="k" horiz-adv-x="1024" d="M123 0v1602h151v-902h82l416 387h211l-483 -462l483 -625h-188l-439 549h-82v-549h-151z" />
<glyph unicode="l" horiz-adv-x="614" d="M123 387v1217h151v-1217q0 -125 29 -173t88 -62q168 -43 182 -43v-109h-180q-270 0 -270 387z" />
<glyph unicode="m" horiz-adv-x="1839" d="M123 0v1087h106l45 -131q12 8 50 30t53.5 31t49.5 25.5t56 22.5l52 18q49 17 139 17h2q89 0 170 -43q82 -43 117 -117q193 160 438 160q143 0 239.5 -98.5t96.5 -251.5v-750h-152v750q0 90 -52 144t-132 54q-123 0 -212 -24.5t-190 -89.5v-834h-151v750q0 90 -52.5 144 t-131 54t-145 -16.5t-103.5 -31.5t-142 -66v-834h-151z" />
<glyph unicode="n" horiz-adv-x="1114" d="M123 0v1087h106l45 -126q6 2 45 25.5t48.5 27.5t44 23.5t49 23.5t47.5 16.5t53 16.5q66 12 115 12q156 0 246 -102.5t90 -245.5v-758h-152v758q0 96 -51 146t-131 50t-149.5 -16t-111.5 -33.5t-143 -66.5v-838h-151z" />
<glyph unicode="o" horiz-adv-x="1163" d="M102 544.5q0 313.5 104.5 433.5t377 120t375 -122t102.5 -437.5t-102.5 -432t-375 -116.5t-377 120.5t-104.5 434zM254 520q0 -125 19.5 -204.5t67.5 -116.5t98 -47.5t143.5 -10.5t145.5 10.5t98 48.5t64.5 116.5t18.5 218t-15 223.5t-60.5 126t-97.5 52t-142 10t-135 -6 t-90 -28.5t-66.5 -67.5t-35 -122t-13.5 -202z" />
<glyph unicode="p" d="M123 -553v1640h108l39 -120q51 37 180.5 85t229.5 48t174 -49.5t111 -132.5q67 -156 67 -363v-6q0 -410 -172 -518q-76 -47 -169 -47t-211 22.5t-210 59.5v-619h-147zM270 188q205 -53 404 -53q106 0 156.5 88t50.5 326q0 399 -207 399q-172 0 -404 -94v-666z" />
<glyph unicode="q" horiz-adv-x="1136" d="M102 549.5q0 263.5 94.5 407t282.5 143.5q174 0 342 -22.5t193 -24.5v-1606h-152v612q-195 -79 -378 -79h-5q-225 0 -307 163q-70 143 -70 406.5zM254 549q0 -209 29 -287q49 -131 196 -131q115 0 185.5 9.5t197.5 41.5v766h-383q-225 0 -225 -399z" />
<glyph unicode="r" horiz-adv-x="872" d="M123 0v1087h106l45 -137q156 94 197 107.5t74 23.5q61 19 157 19h6q92 0 123 -17v-149q-49 12 -139 12t-160.5 -16.5t-112.5 -34.5t-145 -68v-827h-151z" />
<glyph unicode="s" horiz-adv-x="1036" d="M82 733v94q0 133 65.5 202t238.5 69t513 -33v-117h-534q-94 0 -115 -35q-16 -27 -17 -86v-94q0 -82 39 -100q33 -16 93 -17h323q129 0 197.5 -72.5t68.5 -191.5v-100q0 -152 -73.5 -207t-192.5 -55q-190 0 -561 39v112h561q0 2 11.5 0t28.5 4.5t34 14.5q41 20 41 92v100 q0 57 -25.5 85t-89.5 28h-323q-150 0 -216.5 57t-66.5 211z" />
<glyph unicode="t" horiz-adv-x="774" d="M41 938v115l203 37l37 303h114v-303h318v-152h-318v-549q0 -125 29 -173t88 -62q168 -43 182 -43v-109h-180q-270 0 -270 387v549h-203z" />
<glyph unicode="u" horiz-adv-x="1114" d="M102 330v757h152v-757q0 -96 51 -146.5t131 -50.5t149.5 16.5t111.5 34t143 66.5v837h151v-1087h-106l-45 127q-6 -2 -45 -25.5t-48.5 -27.5t-44 -23.5t-49 -23.5t-47.5 -16.5t-53 -16.5q-66 -12 -115 -12q-156 0 -246 102.5t-90 245.5z" />
<glyph unicode="v" horiz-adv-x="1097" d="M41 1087h166l340 -864l344 864h166l-436 -1087h-152z" />
<glyph unicode="w" horiz-adv-x="1640" d="M41 1087h166l321 -864l283 864h164l-111 -348l238 -516l332 864h165l-415 -1087h-152l-241 532l-179 -532h-163z" />
<glyph unicode="x" horiz-adv-x="1073" d="M49 0l393 545l-393 542h189l294 -417l304 417h188l-397 -548l381 -539h-172l-299 414l-299 -414h-189z" />
<glyph unicode="y" d="M43 1087h166l264 -849q14 -41 27.5 -53.5t24 -19.5t20.5 -9t19 -3t18 -1q18 4 26 6l312 929h170l-480 -1431l-153 -209h-95l193 553q-176 0 -246 225z" />
<glyph unicode="z" horiz-adv-x="933" d="M61 936v151h811v-151l-581 -782h581v-152h-780v152l592 782h-623z" />
<glyph unicode="{" horiz-adv-x="655" d="M41 614v138q27 0 68 6t50 11t24.5 13.5t21.5 18.5q20 29 20 59v483q0 162 98.5 271.5t290.5 109.5v-151q-111 0 -174 -50t-63 -180v-483q0 -72 -48 -117t-126 -59q74 -10 123 -58t49 -112v-592q0 -98 62.5 -149.5t154.5 -51.5h22v-151q-109 0 -188.5 31.5t-122.5 85.5 q-80 102 -80 235v584q0 59 -51 84.5t-85 25.5t-46 -2z" />
<glyph unicode="|" horiz-adv-x="501" d="M176 -147v1724h152v-1724h-152z" />
<glyph unicode="}" horiz-adv-x="655" d="M41 -279h22q92 0 155 51.5t63 149.5v592q0 63 49 111.5t123 58.5q-78 14 -126 59t-48 117v483q0 129 -63.5 179.5t-174.5 50.5v151q193 0 291 -109.5t98 -271.5v-483q0 -55 41 -78q16 -8 25.5 -13t30 -8t30.5 -3q45 -6 57 -6v-138q-12 2 -45.5 2t-85 -25.5t-51.5 -84.5 v-584q0 -133 -80 -235q-43 -53 -122.5 -85t-188.5 -32v151z" />
<glyph unicode="~" horiz-adv-x="897" d="M102 1171q16 12 55.5 48t57.5 51q57 41 115.5 41t124 -36t104.5 -36q82 0 191 82l45 -86q-70 -70 -95 -90q-70 -57 -129 -57.5t-127.5 35.5t-105.5 36t-66.5 -11t-65.5 -30.5t-61 -30.5z" />
<glyph unicode="&#xa1;" horiz-adv-x="550" d="M170 788v109q0 43 49 47h100q18 -2 34 -17.5t16 -35.5v-100q-4 -55 -47 -56h-103q-49 0 -49 53zM180 -553l13 1088h153l16 -1088h-182z" />
<glyph unicode="&#xa2;" horiz-adv-x="1003" d="M82 544q0 179 26.5 294.5t82 173t113.5 74t104.5 16.5h64.5v196h123v-206q154 -18 311 -48v-110q-285 16 -397.5 16t-139 -6t-55 -28.5t-45.5 -65.5q-37 -96 -37 -319.5t47.5 -308.5t159.5 -85q193 0 404 17l78 6v-115q-150 -43 -326 -53v-189h-123v183h-57t-107.5 17 t-117 73.5t-83 172.5t-26.5 295z" />
<glyph unicode="&#xa3;" horiz-adv-x="1220" d="M102 0v121l148 31v524h-148v92l148 35v231q0 266 100 367q63 63 137 78q106 20 193 20q139 0 364 -24l74 -9v-116h-397q-217 0 -254 -41q-51 -53 -58.5 -125t-7.5 -150v-231l555 -35v-92h-555v-524h715v-152h-1014z" />
<glyph unicode="&#xa4;" horiz-adv-x="940" d="M104 920l82 73l84 -86q84 61 192.5 61.5t199.5 -69.5l98 96l71 -82l-96 -96q49 -78 49 -179t-57 -187l109 -109l-86 -76l-101 101q-86 -66 -187.5 -66t-182.5 59l-97 -96l-76 86l93 90q-63 88 -63.5 198t57.5 191zM250 639q0 -88 60.5 -153.5t148.5 -65.5t149.5 65.5 t61.5 154.5t-61.5 149.5t-148.5 60.5t-148.5 -61.5t-61.5 -149.5z" />
<glyph unicode="&#xa5;" horiz-adv-x="1228" d="M41 1499h166l387 -692l422 692h172l-516 -842h370v-120h-372v-103h372v-121h-372v-313h-152v313h-350v121h350v103h-350v120h348z" />
<glyph unicode="&#xa6;" horiz-adv-x="503" d="M176 -147v671h152v-671h-152zM176 879v698h152v-698h-152z" />
<glyph unicode="&#xa7;" horiz-adv-x="1130" d="M113 1208v144q0 137 75.5 195.5t190.5 58.5q190 0 561 -39v-113h-561q-57 0 -85 -22.5t-30 -79.5v-144q0 -96 115 -96h366q162 0 218.5 -65.5t54.5 -194.5v-127q0 -170 -86 -182q84 -12 84 -168v-150q0 -160 -94 -205q-74 -37 -219.5 -36.5t-514.5 39.5v112h545 q63 0 96 17.5t35 72.5v150q0 61 -25.5 78.5t-93.5 17.5h-366q-135 0 -199.5 52.5t-64.5 199.5v127q0 162 90 190q-92 27 -92 168zM264 723q0 -63 25.5 -81.5t89.5 -18.5h366q86 0 105 32q14 23 14 70v127q0 61 -19.5 86t-99.5 25h-366q-70 0 -92.5 -20.5t-22.5 -94.5v-125z " />
<glyph unicode="&#xa8;" horiz-adv-x="933" d="M102 1192q0 43 31 72.5t74 29.5t72.5 -29.5t29.5 -72.5t-29.5 -74t-72.5 -31t-74 31t-31 74zM625 1192q0 43 30.5 72.5t73.5 29.5t72.5 -29.5t29.5 -72.5t-29.5 -74t-72.5 -31t-73.5 31t-30.5 74z" />
<glyph unicode="&#xa9;" horiz-adv-x="1660" d="M113 754q0 745 465 745h552q233 0 332 -213q86 -184 86 -532q0 -313 -92 -525q-47 -106 -130 -167.5t-196 -61.5h-552q-109 0 -193 53t-134 133t-83 185q-55 176 -55 383zM244 754q0 -246 86 -433.5t248 -189.5h552q127 2 207 162t80 461q0 328 -69 471q-29 59 -84.5 101 t-133.5 42h-552q-156 0 -245 -135t-89 -479zM473 738.5q0 242.5 80 349t215 106.5q90 0 365 -49v-107q-172 25 -365 25q-164 0 -164 -322q0 -147 35 -228t129 -81q147 0 377 33v-107q-205 -57 -377 -57q-137 0 -216 97.5t-79 340z" />
<glyph unicode="&#xaa;" horiz-adv-x="745" d="M61 549v119h623v-119h-623zM61 948v94q0 84 55.5 134.5t149.5 50.5q143 -2 215 -2t72 2v47v18q0 102 -125 103q-78 0 -182.5 -6.5t-159.5 -8.5v86q35 4 102 17q152 31 256 30h9q96 0 161.5 -52t65.5 -158v-529h-82l-43 100l-18 -10q-170 -98 -262.5 -98t-153 48 t-60.5 134zM188 975q0 -82 91 -82q111 0 233 49l41 16v177l-274 -21q-90 -8 -91 -84v-55z" />
<glyph unicode="&#xab;" horiz-adv-x="1124" d="M102 725l422 416l107 -107l-318 -309l328 -319l-106 -107zM483 725l422 416l107 -107l-318 -309l328 -319l-107 -107z" />
<glyph unicode="&#xac;" horiz-adv-x="1079" d="M102 524v152h875v-350h-152v198h-723z" />
<glyph unicode="&#xad;" horiz-adv-x="724" d="M41 518v152h643v-152h-643z" />
<glyph unicode="&#xae;" horiz-adv-x="1660" d="M113 754q0 745 465 745h552q233 0 332 -213q86 -184 86 -532q0 -313 -92 -525q-47 -106 -130 -167.5t-196 -61.5h-552q-109 0 -193 53t-134 133t-83 185q-55 176 -55 383zM244 754q0 -246 86 -433.5t248 -189.5h552q127 2 207 162t80 461q0 328 -69 471q-29 59 -84.5 101 t-133.5 42h-552q-156 0 -245 -135t-89 -479zM535 313v875h362q274 0 274 -262q0 -170 -75 -221q-39 -25 -58.5 -32t-62.5 -16l186 -344h-147l-187 349l-161 24v-373h-131zM666 776h243q80 0 105.5 29t25.5 96.5t-12 97t-35 41.5q-35 16 -84 17h-243v-281z" />
<glyph unicode="&#xaf;" horiz-adv-x="802" d="M102 1087v130h598v-130h-598z" />
<glyph unicode="&#xb0;" horiz-adv-x="620" d="M102 1294q0 88 61.5 149.5t147.5 61.5t146.5 -61.5t60.5 -149.5t-60.5 -148.5t-146.5 -60.5t-147.5 60.5t-61.5 148.5zM199 1294q0 -45 32.5 -77.5t78.5 -32.5t79 32.5t33 78.5t-33 79t-78 33t-78.5 -34t-33.5 -79z" />
<glyph unicode="&#xb1;" horiz-adv-x="1079" d="M115 178v152h852v-152h-852zM115 793v151h348v350h151v-350h353v-151h-353v-351h-151v351h-348z" />
<glyph unicode="&#xb2;" horiz-adv-x="792" d="M63.5 1716.5q-0.5 24.5 2.5 48.5v23q254 31 374 31q266 0 267 -279q0 -72 -37 -153.5t-77 -138t-113.5 -130.5t-98.5 -94t-78 -66h402v-127h-633v119q16 14 82.5 64.5t109.5 85.5t107.5 95t103.5 112q98 125 98 218t-34.5 130t-120.5 37h-352q-2 0 -2.5 24.5z" />
<glyph unicode="&#xb3;" horiz-adv-x="831" d="M61 1683v89q111 37 254 36h146q125 0 186.5 -68.5t61.5 -170.5v-72q0 -68 -29 -116t-72 -64q100 -63 101 -193v-57q0 -119 -57.5 -181.5t-200.5 -62.5h-170t-211 37l2 88l362 2q82 0 115 29t33 96v47q0 137 -140 142l-290 10v96l290 14q141 6 142 132v45q0 123 -142 122 h-381z" />
<glyph unicode="&#xb4;" horiz-adv-x="495" d="M41 1087l219 273h195l-273 -273h-141z" />
<glyph unicode="&#xb5;" horiz-adv-x="1216" d="M184 -553v1640h152v-757q0 -96 51 -146.5t131 -50.5t149.5 16.5t111.5 34t143 66.5v837h151v-1087h-106l-45 127q-6 -2 -45 -25.5t-48.5 -27.5t-44 -23.5t-49 -23.5t-47.5 -16.5t-53 -16.5q-66 -12 -115 -12q-109 0 -184 51v-586h-152z" />
<glyph unicode="&#xb6;" horiz-adv-x="1189" d="M82 1022v190q0 137 95 212t224 75h748v-156h-141v-1343h-152v1348h-192v-1901h-152v1315l-18 -10q-45 -25 -93 -25q-152 0 -235.5 84t-83.5 211zM233 1026q0 -84 53.5 -115.5t114.5 -31.5h111v469h-111q-90 0 -129 -43t-39 -97v-182z" />
<glyph unicode="&#xb7;" horiz-adv-x="557" d="M174 725v117q0 51 49 51h109q51 0 51 -51v-117q0 -47 -51 -47h-109q-49 0 -49 47z" />
<glyph unicode="&#xb8;" horiz-adv-x="516" d="M102 -279l109 31q65 29 65 172h138q0 -160 -43 -219t-164 -59h-105v75z" />
<glyph unicode="&#xb9;" horiz-adv-x="555" d="M33 1593v101l262 112h127v-975h-127v834z" />
<glyph unicode="&#xba;" horiz-adv-x="798" d="M61 1136q0 210 73 291.5t267.5 81.5t265 -81.5t70.5 -291.5t-71.5 -291t-264 -81t-266.5 81t-74 291zM84 555v119h629v-119h-629zM188 1131.5q0 -89.5 13.5 -138.5t47.5 -70.5t63.5 -26.5t91 -5t90 4t60.5 25.5t44 70.5q12 59 12 147.5t-10 137.5t-43 72.5t-62.5 28.5 t-95 5t-94.5 -4t-61.5 -27.5t-44 -76.5t-11.5 -142.5z" />
<glyph unicode="&#xbb;" horiz-adv-x="1124" d="M102 406l328 319l-317 309l106 107l422 -416l-432 -426zM483 406l328 319l-317 309l106 107l422 -416l-432 -426z" />
<glyph unicode="&#xbc;" horiz-adv-x="1849" d="M33 1286v100l262 113h127v-975h-127v834zM451 0l712 1499h133l-712 -1499h-133zM1016 293l428 678h145l-370 -594h340v248l57 98h70v-346h120v-107l-120 -26v-246h-127v246h-498z" />
<glyph unicode="&#xbd;" horiz-adv-x="1994" d="M33 1286v100l262 113h127v-975h-127v834zM440 0l713 1499h133l-713 -1499h-133zM1268 884.5q0 24.5 2 49.5v22q254 31 375 31q266 0 266 -278q0 -72 -37 -154t-77 -138.5t-113.5 -130t-98 -94t-78.5 -65.5h402v-127h-633v119q16 14 82.5 64t109.5 85t107.5 95.5 t103.5 111.5q98 125 98.5 218t-34.5 130t-121 37h-352q-2 0 -2 24.5z" />
<glyph unicode="&#xbe;" horiz-adv-x="2086" d="M61 1376v88q111 37 254 37h146q125 0 186.5 -68.5t61.5 -170.5v-72q0 -68 -29 -116t-72 -64q100 -63 101 -193v-57q0 -119 -57.5 -181.5t-200.5 -62.5h-170t-211 37l2 88l362 2q82 0 115 28.5t33 96.5v47q0 137 -140 141l-290 11v96l290 14q141 6 142 131v45 q0 123 -142 123h-381zM653 0l713 1499h133l-713 -1499h-133zM1190 295l426 676h137l-371 -600h359v256l49 98h70v-354h120v-99l-120 -26v-246h-119v246h-506z" />
<glyph unicode="&#xbf;" horiz-adv-x="1112" d="M82 45q-2 176 139 262q102 59 242 60q53 0 112 -9v207h158l2 -332q-96 2 -169.5 2.5t-135 -2t-113 -61.5t-57.5 -141q-2 -164 -2 -205q0 -92 60.5 -157.5t179.5 -65.5h14l559 2q-6 0 -4 -54.5t0 -58.5q-102 -16 -156.5 -21.5t-123 -12.5t-91.5 -7l-141 -4q-43 0 -55.5 2 t-14.5 2q-403 0 -403 385v209zM553 807v104q0 20 15.5 36t33.5 18h100q49 -4 50 -47v-111q-4 -49 -43 -51h-115q-37 12 -41 51z" />
<glyph unicode="&#xc0;" horiz-adv-x="1372" d="M92 0l551 1499h152l526 -1499h-180l-129 418h-598l-135 -418h-187zM377 1905h192l222 -273h-144zM469 569h489l-241 699z" />
<glyph unicode="&#xc1;" horiz-adv-x="1372" d="M92 0l551 1499h152l526 -1499h-180l-129 418h-598l-135 -418h-187zM469 569h489l-241 699zM647 1632l221 273h193l-270 -273h-144z" />
<glyph unicode="&#xc2;" horiz-adv-x="1372" d="M92 0l551 1499h152l526 -1499h-180l-129 418h-598l-135 -418h-187zM420 1632l239 266h146l213 -266h-146l-145 146l-160 -146h-147zM469 569h489l-241 699z" />
<glyph unicode="&#xc3;" horiz-adv-x="1372" d="M92 0l551 1499h152l526 -1499h-180l-129 418h-598l-135 -418h-187zM373 1716q55 45 82.5 66.5t73.5 43t94.5 19.5t117 -35.5t75.5 -33.5h20q47 0 184 73l45 -86q-6 -4 -49 -39q-111 -90 -178 -90q-61 0 -127 35t-104 35t-67.5 -11.5t-63.5 -31t-60 -29.5zM469 569h489 l-241 699z" />
<glyph unicode="&#xc4;" horiz-adv-x="1372" d="M92 0l551 1499h152l526 -1499h-180l-129 418h-598l-135 -418h-187zM354 1737q0 43 31 72.5t74 29.5t72.5 -29.5t29.5 -72.5t-29.5 -74t-72.5 -31t-74 31t-31 74zM469 569h489l-241 699zM877 1737q0 43 30.5 72.5t73.5 29.5t72.5 -29.5t29.5 -72.5t-29.5 -74t-72.5 -31 t-73.5 31t-30.5 74z" />
<glyph unicode="&#xc5;" horiz-adv-x="1372" d="M92 0l551 1499h152l526 -1499h-180l-129 418h-598l-135 -418h-187zM469 569h489l-241 699zM512 1719.5q0 -72.5 27.5 -121t76 -76t104.5 -27.5t104 27.5t75 76t27 121t-60.5 134t-146.5 61.5t-146.5 -61.5t-60.5 -134zM606 1705q0 46 34 79t80 33t78.5 -33t32.5 -79 t-32.5 -79t-78.5 -33t-80 33t-34 79z" />
<glyph unicode="&#xc6;" horiz-adv-x="1886" d="M61 0l611 1237q53 109 90 143.5t57.5 55t52 32t50 19.5t54.5 10t47.5 3t25.5 1l90 -2l655 -33v-120h-655q-72 0 -86 -35q-12 -27 -17 -74v-424l676 -20v-121l-676 -21v-403q0 -61 24.5 -78.5t43.5 -17.5h37h22l629 -2v-125l-629 -35h-30q-248 0 -248 258v217h-430 l-228 -465h-166zM530 616h355v719z" />
<glyph unicode="&#xc7;" horiz-adv-x="1183" d="M113 754q0 389 105.5 575.5t393.5 186.5q223 0 500 -52v-121q-369 20 -501 20.5t-204.5 -49.5t-107.5 -182.5t-35 -381.5q0 -610 348 -611l500 15v-121q-242 -45 -500 -45q-500 0 -499 766zM446 -276l109 30q66 29 66 172h137q0 -160 -43 -219t-164 -59h-105v76z" />
<glyph unicode="&#xc8;" horiz-adv-x="1161" d="M164 252v981q0 141 70.5 203.5t175.5 62.5h12l647 -33v-118h-647q-49 0 -74.5 -19.5t-29 -39t-3.5 -56.5v-410l672 -20v-121l-672 -20v-410q0 -51 22.5 -75.5t43 -28t61.5 -3.5h627v-116l-627 -35h-30q-248 0 -248 258zM360 1894h195l219 -272h-141z" />
<glyph unicode="&#xc9;" horiz-adv-x="1161" d="M164 252v981q0 141 70.5 203.5t175.5 62.5h12l647 -33v-118h-647q-49 0 -74.5 -19.5t-29 -39t-3.5 -56.5v-410l672 -20v-121l-672 -20v-410q0 -51 22.5 -75.5t43 -28t61.5 -3.5h627v-116l-627 -35h-30q-248 0 -248 258zM588 1622l219 272h194l-272 -272h-141z" />
<glyph unicode="&#xca;" horiz-adv-x="1161" d="M164 252v981q0 141 70.5 203.5t175.5 62.5h12l647 -33v-118h-647q-49 0 -74.5 -19.5t-29 -39t-3.5 -56.5v-410l672 -20v-121l-672 -20v-410q0 -51 22.5 -75.5t43 -28t61.5 -3.5h627v-116l-627 -35h-30q-248 0 -248 258zM348 1632l240 266h145l213 -266h-145l-146 146 l-159 -146h-148z" />
<glyph unicode="&#xcb;" horiz-adv-x="1161" d="M164 252v981q0 141 70.5 203.5t175.5 62.5h12l647 -33v-118h-647q-49 0 -74.5 -19.5t-29 -39t-3.5 -56.5v-410l672 -20v-121l-672 -20v-410q0 -51 22.5 -75.5t43 -28t61.5 -3.5h627v-116l-627 -35h-30q-248 0 -248 258zM285 1726q0 43 30.5 73t73.5 30t73 -30t30 -73 t-30 -73.5t-73 -30.5t-73.5 30.5t-30.5 73.5zM807 1726q0 43 30.5 73t73.5 30t73 -30t30 -73t-30 -73.5t-73 -30.5t-73.5 30.5t-30.5 73.5z" />
<glyph unicode="&#xcc;" horiz-adv-x="438" d="M-102 1905h192l221 -273h-143zM164 0v1499h151v-1499h-151z" />
<glyph unicode="&#xcd;" horiz-adv-x="438" d="M164 0v1499h151v-1499h-151zM168 1632l221 273h193l-271 -273h-143z" />
<glyph unicode="&#xce;" horiz-adv-x="438" d="M-59 1632l239 266h146l213 -266h-146l-145 146l-160 -146h-147zM164 0v1499h151v-1499h-151z" />
<glyph unicode="&#xcf;" horiz-adv-x="438" d="M-125 1737q0 43 31 72.5t74 29.5t72.5 -29.5t29.5 -72.5t-29.5 -74t-72.5 -31t-74 31t-31 74zM164 0v1499h151v-1499h-151zM397 1737q0 43 31 72.5t74 29.5t72.5 -29.5t29.5 -72.5t-29.5 -74t-72.5 -31t-74 31t-31 74z" />
<glyph unicode="&#xd0;" horiz-adv-x="1345" d="M31 709v110h133v678q0 2 559 2q225 0 342 -129q119 -129 154 -295q35 -170 34.5 -304t-16.5 -235.5t-56 -199.5t-99.5 -172t-151.5 -119t-207 -45h-559v709h-133zM315 158h408q190 0 281.5 164.5t91.5 422.5q0 592 -373 592l-408 -2v-516h285v-110h-285v-551z" />
<glyph unicode="&#xd1;" horiz-adv-x="1392" d="M164 0v1499h155l799 -1216v1216h152v-1499h-152l-801 1217v-1217h-153zM371 1716q55 45 82.5 66.5t73.5 43t94.5 19.5t117 -35.5t75.5 -33.5h20q47 0 184 73l45 -86q-6 -4 -51 -39q-109 -90 -176 -90q-61 0 -127 35t-104 35t-67.5 -11.5t-63.5 -31t-60 -29.5z" />
<glyph unicode="&#xd2;" horiz-adv-x="1384" d="M133 741q0 170 18.5 298t57.5 212t85 136.5t118 78.5q117 43 303 43q268 0 377 -82q104 -80 149 -227q51 -180 51 -417.5t-25.5 -374t-69.5 -218t-121 -126t-158.5 -58.5t-193.5 -14t-181.5 8t-141 33.5t-116.5 76t-82 132.5t-53.5 205.5t-16.5 293.5zM285 690.5 q0 -149.5 19.5 -266.5t75.5 -180.5t130 -82t190.5 -18.5t182 13.5t119 49.5t81.5 103q57 135 58 430q0 322 -49 432q-20 47 -37 78t-49.5 52.5t-56 33t-69.5 16.5t-77 6t-88.5 1t-87 -1t-75.5 -6t-70.5 -16.5t-57.5 -33t-50.5 -52t-38 -77t-29.5 -107.5t-15 -143t-6 -231.5z M373 1905h192l221 -273h-143z" />
<glyph unicode="&#xd3;" horiz-adv-x="1384" d="M133 741q0 170 18.5 298t57.5 212t85 136.5t118 78.5q117 43 303 43q268 0 377 -82q104 -80 149 -227q51 -180 51 -417.5t-25.5 -374t-69.5 -218t-121 -126t-158.5 -58.5t-193.5 -14t-181.5 8t-141 33.5t-116.5 76t-82 132.5t-53.5 205.5t-16.5 293.5zM285 690.5 q0 -149.5 19.5 -266.5t75.5 -180.5t130 -82t190.5 -18.5t182 13.5t119 49.5t81.5 103q57 135 58 430q0 322 -49 432q-20 47 -37 78t-49.5 52.5t-56 33t-69.5 16.5t-77 6t-88.5 1t-87 -1t-75.5 -6t-70.5 -16.5t-57.5 -33t-50.5 -52t-38 -77t-29.5 -107.5t-15 -143t-6 -231.5z M643 1632l221 273h193l-271 -273h-143z" />
<glyph unicode="&#xd4;" horiz-adv-x="1384" d="M133 741q0 170 18.5 298t57.5 212t85 136.5t118 78.5q117 43 303 43q268 0 377 -82q104 -80 149 -227q51 -180 51 -417.5t-25.5 -374t-69.5 -218t-121 -126t-158.5 -58.5t-193.5 -14t-181.5 8t-141 33.5t-116.5 76t-82 132.5t-53.5 205.5t-16.5 293.5zM285 690.5 q0 -149.5 19.5 -266.5t75.5 -180.5t130 -82t190.5 -18.5t182 13.5t119 49.5t81.5 103q57 135 58 430q0 322 -49 432q-20 47 -37 78t-49.5 52.5t-56 33t-69.5 16.5t-77 6t-88.5 1t-87 -1t-75.5 -6t-70.5 -16.5t-57.5 -33t-50.5 -52t-38 -77t-29.5 -107.5t-15 -143t-6 -231.5z M416 1632l239 266h146l213 -266h-146l-145 146l-160 -146h-147z" />
<glyph unicode="&#xd5;" horiz-adv-x="1384" d="M133 741q0 170 18.5 298t57.5 212t85 136.5t118 78.5q117 43 303 43q268 0 377 -82q104 -80 149 -227q51 -180 51 -417.5t-25.5 -374t-69.5 -218t-121 -126t-158.5 -58.5t-193.5 -14t-181.5 8t-141 33.5t-116.5 76t-82 132.5t-53.5 205.5t-16.5 293.5zM285 690.5 q0 -149.5 19.5 -266.5t75.5 -180.5t130 -82t190.5 -18.5t182 13.5t119 49.5t81.5 103q57 135 58 430q0 322 -49 432q-20 47 -37 78t-49.5 52.5t-56 33t-69.5 16.5t-77 6t-88.5 1t-87 -1t-75.5 -6t-70.5 -16.5t-57.5 -33t-50.5 -52t-38 -77t-29.5 -107.5t-15 -143t-6 -231.5z M369 1716q55 45 82.5 66.5t73.5 43t94.5 19.5t117 -35.5t75.5 -33.5h19q47 0 185 73l45 -86q-6 -4 -49 -39q-111 -90 -178 -90q-61 0 -127 35t-104 35t-67.5 -11.5t-63.5 -31t-60 -29.5z" />
<glyph unicode="&#xd6;" horiz-adv-x="1384" d="M133 741q0 170 18.5 298t57.5 212t85 136.5t118 78.5q117 43 303 43q268 0 377 -82q104 -80 149 -227q51 -180 51 -417.5t-25.5 -374t-69.5 -218t-121 -126t-158.5 -58.5t-193.5 -14t-181.5 8t-141 33.5t-116.5 76t-82 132.5t-53.5 205.5t-16.5 293.5zM285 690.5 q0 -149.5 19.5 -266.5t75.5 -180.5t130 -82t190.5 -18.5t182 13.5t119 49.5t81.5 103q57 135 58 430q0 322 -49 432q-20 47 -37 78t-49.5 52.5t-56 33t-69.5 16.5t-77 6t-88.5 1t-87 -1t-75.5 -6t-70.5 -16.5t-57.5 -33t-50.5 -52t-38 -77t-29.5 -107.5t-15 -143t-6 -231.5z M350 1737q0 43 31 72.5t74 29.5t72.5 -29.5t29.5 -72.5t-29.5 -74t-72.5 -31t-74 31t-31 74zM872 1737q0 43 31 72.5t74 29.5t72.5 -29.5t29.5 -72.5t-29.5 -74t-72.5 -31t-74 31t-31 74z" />
<glyph unicode="&#xd7;" horiz-adv-x="937" d="M115 481l247 246l-247 248l106 108l248 -247l250 247l106 -106l-250 -250l248 -246l-106 -108l-248 248l-246 -246z" />
<glyph unicode="&#xd8;" horiz-adv-x="1384" d="M133 718q0 409 100 597q45 82 125 126t158 56t197 12q258 0 368 -75l43 65h125l-90 -139q133 -172 133 -621q0 -369 -96 -549q-45 -82 -122 -126t-158.5 -58t-202.5 -14q-266 0 -381 78l-45 -70h-125l92 145q-121 164 -121 573zM284.5 695q0.5 -279 63.5 -404l651 1016 q-57 43 -170 49q-39 2 -114.5 2t-112.5 -2t-92 -13.5t-82 -35t-59.5 -67.5t-49.5 -110q-35 -156 -34.5 -435zM418 205q84 -62 295 -62q129 0 203.5 21.5t129 86t75 180.5t20.5 308q0 348 -70 482z" />
<glyph unicode="&#xd9;" horiz-adv-x="1386" d="M164 655v844h151v-844q0 -186 23.5 -295.5t87 -154.5t115 -54.5t110.5 -9.5h68q145 0 180 14.5t65.5 32t49 43t39 64.5t32.5 90q25 113 25 270v844h154v-844q0 -190 -36 -322t-82 -197.5t-131 -100.5t-140.5 -40t-108.5 -5h-87t-61.5 1t-78 4t-77 12t-68.5 24.5t-65.5 41 t-54 60.5t-47 85t-32.5 114q-31 116 -31 323zM371 1905h194l219 -273h-141z" />
<glyph unicode="&#xda;" horiz-adv-x="1386" d="M164 655v844h151v-844q0 -186 23.5 -295.5t87 -154.5t115 -54.5t110.5 -9.5h68q145 0 180 14.5t65.5 32t49 43t39 64.5t32.5 90q25 113 25 270v844h154v-844q0 -190 -36 -322t-82 -197.5t-131 -100.5t-140.5 -40t-108.5 -5h-87t-61.5 1t-78 4t-77 12t-68.5 24.5t-65.5 41 t-54 60.5t-47 85t-32.5 114q-31 116 -31 323zM643 1632l219 273h195l-273 -273h-141z" />
<glyph unicode="&#xdb;" horiz-adv-x="1386" d="M164 655v844h151v-844q0 -186 23.5 -295.5t87 -154.5t115 -54.5t110.5 -9.5h68q145 0 180 14.5t65.5 32t49 43t39 64.5t32.5 90q25 113 25 270v844h154v-844q0 -190 -36 -322t-82 -197.5t-131 -100.5t-140.5 -40t-108.5 -5h-87t-61.5 1t-78 4t-77 12t-68.5 24.5t-65.5 41 t-54 60.5t-47 85t-32.5 114q-31 116 -31 323zM414 1632l241 266h144l213 -266h-144l-147 146l-160 -146h-147z" />
<glyph unicode="&#xdc;" horiz-adv-x="1386" d="M164 655v844h151v-844q0 -186 23.5 -295.5t87 -154.5t115 -54.5t110.5 -9.5h68q145 0 180 14.5t65.5 32t49 43t39 64.5t32.5 90q25 113 25 270v844h154v-844q0 -190 -36 -322t-82 -197.5t-131 -100.5t-140.5 -40t-108.5 -5h-87t-61.5 1t-78 4t-77 12t-68.5 24.5t-65.5 41 t-54 60.5t-47 85t-32.5 114q-31 116 -31 323zM348 1725.5q0 31.5 9.5 51t21.5 33.5q31 29 74 29t73.5 -29.5t30.5 -72.5t-30.5 -74t-73.5 -31t-74 31t-31 62.5zM872 1737q0 43 30 72.5t74 29.5t72.5 -29.5t28.5 -72.5t-29.5 -74t-71.5 -31t-73 31t-31 74z" />
<glyph unicode="&#xdd;" horiz-adv-x="1290" d="M92 1499h166l387 -786l428 786h166l-518 -967v-532h-152v532zM594 1632l221 273h193l-271 -273h-143z" />
<glyph unicode="&#xde;" horiz-adv-x="1140" d="M123 0v1493h151v-289h404q360 -4 360 -436q0 -328 -170 -420q-51 -29 -94 -36t-78 -7h-139t-283 39v-344h-151zM274 457h404h6q90 0 145.5 64.5t55.5 250.5q-4 193 -80 240q-59 39 -127 39h-404v-594z" />
<glyph unicode="&#xdf;" horiz-adv-x="1167" d="M123 0v1159q0 184 123 308t334 124q145 0 247.5 -37.5t151.5 -99.5q72 -90 72 -207q0 -106 -68 -211q-41 -66 -96 -104q-18 -16 -53 -43t-48.5 -39t-35 -32.5t-29.5 -35.5q-23 -35 -23 -70.5t44 -57t107.5 -36t126 -36t106.5 -75.5t44 -140v-97q0 -213 -217 -272 q-53 -14 -110.5 -14t-126 7t-135 18t-88.5 14v122l362 -10q63 0 112.5 38t51.5 97v97q0 43 -44 66.5t-106.5 36.5t-126 33.5t-107.5 73t-44 142.5t46 152.5t202 177.5q102 78 102 204q0 186 -317 187q-133 0 -219.5 -67.5t-86.5 -213.5v-1159h-151z" />
<glyph unicode="&#xe0;" horiz-adv-x="1062" d="M82 258v125q0 125 72.5 198.5t199.5 73.5h341h114q2 68 2 102t-2 36q0 168 -176 168t-516 -25v111q221 61 536 61q133 0 220.5 -78t87.5 -237v-793h-113l-39 131l-31 -14q-266 -129 -424 -129q-117 0 -194.5 71.5t-77.5 198.5zM203 1503h194l219 -272h-141zM233 268 q0 -129 121 -129q74 0 187.5 27t191.5 51l76 27v293l-455 -33q-61 -6 -91 -43t-30 -90v-103z" />
<glyph unicode="&#xe1;" horiz-adv-x="1062" d="M82 258v125q0 125 72.5 198.5t199.5 73.5h341h114q2 68 2 102t-2 36q0 168 -176 168t-516 -25v111q221 61 536 61q133 0 220.5 -78t87.5 -237v-793h-113l-39 131l-31 -14q-266 -129 -424 -129q-117 0 -194.5 71.5t-77.5 198.5zM233 268q0 -129 121 -129q74 0 187.5 27 t191.5 51l76 27v293l-455 -33q-61 -6 -91 -43t-30 -90v-103zM465 1231l219 272h195l-273 -272h-141z" />
<glyph unicode="&#xe2;" horiz-adv-x="1062" d="M82 258v125q0 125 72.5 198.5t199.5 73.5h341h114q2 68 2 102t-2 36q0 168 -176 168t-516 -25v111q221 61 536 61q133 0 220.5 -78t87.5 -237v-793h-113l-39 131l-31 -14q-266 -129 -424 -129q-117 0 -194.5 71.5t-77.5 198.5zM233 268q0 -129 121 -129q74 0 187.5 27 t191.5 51l76 27v293l-455 -33q-61 -6 -91 -43t-30 -90v-103zM240 1231l239 266h146l213 -266h-146l-145 145l-160 -145h-147z" />
<glyph unicode="&#xe3;" horiz-adv-x="1062" d="M82 258v125q0 125 72.5 198.5t199.5 73.5h341h114q2 68 2 102t-2 36q0 168 -176 168t-516 -25v111q221 61 536 61q133 0 220.5 -78t87.5 -237v-793h-113l-39 131l-31 -14q-266 -129 -424 -129q-117 0 -194.5 71.5t-77.5 198.5zM182 1315q55 45 83 66.5t74 43t94 19.5 t116.5 -36t75.5 -34h20q47 0 184 74l45 -86q-6 -4 -51 -39q-109 -90 -176 -90q-61 0 -126.5 35t-103.5 35t-68 -11.5t-63.5 -31t-60.5 -29.5zM233 268q0 -129 121 -129q74 0 187.5 27t191.5 51l76 27v293l-455 -33q-61 -6 -91 -43t-30 -90v-103z" />
<glyph unicode="&#xe4;" horiz-adv-x="1062" d="M82 258v125q0 125 72.5 198.5t199.5 73.5h341h114q2 68 2 102t-2 36q0 168 -176 168t-516 -25v111q221 61 536 61q133 0 220.5 -78t87.5 -237v-793h-113l-39 131l-31 -14q-266 -129 -424 -129q-117 0 -194.5 71.5t-77.5 198.5zM170 1335q0 43 30.5 73t73.5 30t73 -30 t30 -73t-30 -73.5t-73 -30.5t-73.5 30.5t-30.5 73.5zM233 268q0 -129 121 -129q74 0 187.5 27t191.5 51l76 27v293l-455 -33q-61 -6 -91 -43t-30 -90v-103zM692 1335q0 43 31 73t74 30t72.5 -30t29.5 -73t-29.5 -73.5t-72.5 -30.5t-74 30.5t-31 73.5z" />
<glyph unicode="&#xe5;" horiz-adv-x="1062" d="M82 258v125q0 125 72.5 198.5t199.5 73.5h341h114q2 68 2 102t-2 36q0 168 -176 168t-516 -25v111q221 61 536 61q133 0 220.5 -78t87.5 -237v-793h-113l-39 131l-31 -14q-266 -129 -424 -129q-117 0 -194.5 71.5t-77.5 198.5zM233 268q0 -129 121 -129q74 0 187.5 27 t191.5 51l76 27v293l-455 -33q-61 -6 -91 -43t-30 -90v-103zM330 1378q0 88 61.5 149.5t147.5 61.5t146 -61.5t60 -149.5t-60 -148.5t-146 -60.5t-147.5 60.5t-61.5 148.5zM426 1379q0 -46 33 -78.5t80 -32.5t78.5 31.5t31.5 78.5t-32.5 80t-78.5 33t-79 -33t-33 -79z" />
<glyph unicode="&#xe6;" horiz-adv-x="1783" d="M82 270v82q0 125 72.5 199t199.5 74q227 -2 341 -2t114 2q2 88 2 133t-2 47q0 168 -171 168t-521 -25v111q186 61 542 61q166 0 248 -119q53 63 142.5 85t219.5 22t193.5 -10.5t125 -47t88 -116.5t26.5 -211q0 -250 -281 -250h-458q0 -190 43 -254.5t163 -64.5 q373 0 512 20v-115q-203 -57 -512 -57q-123 0 -186 34t-129 109l-35 -14q-180 -80 -296.5 -105.5t-168.5 -25.5q-117 0 -194.5 71.5t-77.5 198.5zM233 281q0 -129 121 -129q74 0 187.5 26.5t191.5 50.5l76 27v262l-455 -33q-61 -6 -91 -42.5t-30 -90.5v-71zM963 623h458 q129 0 129 100q0 158 -46 195.5t-216 37.5q-211 0 -252 -43q-57 -61 -65 -134.5t-8 -155.5z" />
<glyph unicode="&#xe7;" horiz-adv-x="1024" d="M102 545q0 172 26 286.5t77 171t110.5 78t181 21.5t431.5 -58v-110q-285 16 -397.5 16t-139 -6t-55.5 -28.5t-45 -65.5q-37 -96 -37 -319.5t47 -308.5t160 -85q193 0 403 17l78 6v-115q-197 -55 -481 -59q-84 0 -143.5 21.5t-110.5 78.5t-78 172t-27 287zM358 -279 l109 31q65 29 65 172h138q0 -160 -43 -219t-164 -59h-105v75z" />
<glyph unicode="&#xe8;" horiz-adv-x="1075" d="M102 549q0 180 25 289.5t89.5 166t143 74t204.5 17.5t189.5 -10.5t125 -47.5t88 -116.5t26.5 -210.5q0 -250 -280 -250h-459q0 -190 43 -255t164 -65q373 0 512 21v-115q-203 -57 -512 -57q-207 0 -283 118.5t-76 440.5zM233 1493h197l217 -272h-139zM254 610h459 q129 0 129 101q0 158 -46 195.5t-216 37.5q-211 0 -252 -43q-57 -61 -65.5 -135t-8.5 -156z" />
<glyph unicode="&#xe9;" horiz-adv-x="1075" d="M102 549q0 180 25 289.5t89.5 166t143 74t204.5 17.5t189.5 -10.5t125 -47.5t88 -116.5t26.5 -210.5q0 -250 -280 -250h-459q0 -190 43 -255t164 -65q373 0 512 21v-115q-203 -57 -512 -57q-207 0 -283 118.5t-76 440.5zM254 610h459q129 0 129 101q0 158 -46 195.5 t-216 37.5q-211 0 -252 -43q-57 -61 -65.5 -135t-8.5 -156zM487 1221l218 272h196l-274 -272h-140z" />
<glyph unicode="&#xea;" horiz-adv-x="1075" d="M102 549q0 180 25 289.5t89.5 166t143 74t204.5 17.5t189.5 -10.5t125 -47.5t88 -116.5t26.5 -210.5q0 -250 -280 -250h-459q0 -190 43 -255t164 -65q373 0 512 21v-115q-203 -57 -512 -57q-207 0 -283 118.5t-76 440.5zM254 610h459q129 0 129 101q0 158 -46 195.5 t-216 37.5q-211 0 -252 -43q-57 -61 -65.5 -135t-8.5 -156zM262 1221l240 266h145l213 -266h-145l-146 145l-159 -145h-148z" />
<glyph unicode="&#xeb;" horiz-adv-x="1075" d="M102 549q0 180 25 289.5t89.5 166t143 74t204.5 17.5t189.5 -10.5t125 -47.5t88 -116.5t26.5 -210.5q0 -250 -280 -250h-459q0 -190 43 -255t164 -65q373 0 512 21v-115q-203 -57 -512 -57q-207 0 -283 118.5t-76 440.5zM190 1325q0 43 31 72.5t74 29.5t72.5 -29.5 t29.5 -72.5t-29.5 -73.5t-72.5 -30.5t-74 30.5t-31 73.5zM254 610h459q129 0 129 101q0 158 -46 195.5t-216 37.5q-211 0 -252 -43q-57 -61 -65.5 -135t-8.5 -156zM713 1325q0 43 30.5 72.5t73.5 29.5t73 -29.5t30 -72.5t-30 -73.5t-73 -30.5t-73.5 30.5t-30.5 73.5z" />
<glyph unicode="&#xec;" horiz-adv-x="397" d="M-143 1493h192l221 -272h-143zM123 0v1087h151v-1087h-151z" />
<glyph unicode="&#xed;" horiz-adv-x="397" d="M123 0v1087h151v-1087h-151zM127 1221l221 272h193l-271 -272h-143z" />
<glyph unicode="&#xee;" horiz-adv-x="397" d="M-100 1221l239 266h146l213 -266h-146l-145 145l-160 -145h-147zM123 0v1087h151v-1087h-151z" />
<glyph unicode="&#xef;" horiz-adv-x="397" d="M-166 1325q0 43 31 72.5t74 29.5t72.5 -29.5t29.5 -72.5t-29.5 -73.5t-72.5 -30.5t-74 30.5t-31 73.5zM123 0v1087h151v-1087h-151zM356 1325q0 43 31 72.5t74 29.5t72.5 -29.5t29.5 -72.5t-29.5 -73.5t-72.5 -30.5t-74 30.5t-31 73.5z" />
<glyph unicode="&#xf0;" horiz-adv-x="1101" d="M82 535.5q0 279.5 83 415.5t281 136h205q115 0 144 -30q-51 170 -152 270l-297 -119l-49 123l223 90q-94 49 -227 49h-39v134q270 0 428 -121l242 96l51 -123l-187 -74q231 -285 232 -841q0 -291 -96.5 -416t-272.5 -125h-205q-204 0 -284 128t-80 407.5zM233 555 q0 -147 15.5 -228t48.5 -117t64.5 -45t84.5 -9h205q123 0 170 95t47 308t-44 295t-173 82h-205q-74 0 -116.5 -27.5t-69.5 -117t-27 -236.5z" />
<glyph unicode="&#xf1;" horiz-adv-x="1114" d="M123 0v1087h106l45 -126q6 2 45 25.5t48.5 27.5t44 23.5t49 23.5t47.5 16.5t53 16.5q66 12 115 12q156 0 246 -102.5t90 -245.5v-758h-152v758q0 96 -51 146t-131 50t-149.5 -16t-111.5 -33.5t-143 -66.5v-838h-151zM221 1313q55 45 83 66.5t74 43t94 19.5t116.5 -36 t75.5 -34h20q47 0 184 74l45 -86q-6 -4 -49 -41q-111 -88 -178 -88q-61 0 -126.5 34.5t-103.5 34.5t-68 -11t-63.5 -30.5t-60.5 -29.5z" />
<glyph unicode="&#xf2;" horiz-adv-x="1163" d="M102 544.5q0 313.5 104.5 433.5t377 120t375 -122t102.5 -437.5t-102.5 -432t-375 -116.5t-377 120.5t-104.5 434zM254 520q0 -125 19.5 -204.5t67.5 -116.5t98 -47.5t143.5 -10.5t145.5 10.5t98 48.5t64.5 116.5t18.5 218t-15 223.5t-60.5 126t-97.5 52t-142 10t-135 -6 t-90 -28.5t-66.5 -67.5t-35 -122t-13.5 -202zM258 1493h197l217 -272h-140z" />
<glyph unicode="&#xf3;" horiz-adv-x="1163" d="M102 544.5q0 313.5 104.5 433.5t377 120t375 -122t102.5 -437.5t-102.5 -432t-375 -116.5t-377 120.5t-104.5 434zM254 520q0 -125 19.5 -204.5t67.5 -116.5t98 -47.5t143.5 -10.5t145.5 10.5t98 48.5t64.5 116.5t18.5 218t-15 223.5t-60.5 126t-97.5 52t-142 10t-135 -6 t-90 -28.5t-66.5 -67.5t-35 -122t-13.5 -202zM512 1221l217 272h197l-275 -272h-139z" />
<glyph unicode="&#xf4;" horiz-adv-x="1163" d="M102 544.5q0 313.5 104.5 433.5t377 120t375 -122t102.5 -437.5t-102.5 -432t-375 -116.5t-377 120.5t-104.5 434zM254 520q0 -125 19.5 -204.5t67.5 -116.5t98 -47.5t143.5 -10.5t145.5 10.5t98 48.5t64.5 116.5t18.5 218t-15 223.5t-60.5 126t-97.5 52t-142 10t-135 -6 t-90 -28.5t-66.5 -67.5t-35 -122t-13.5 -202zM293 1221l239 266h146l213 -266h-146l-145 145l-160 -145h-147z" />
<glyph unicode="&#xf5;" horiz-adv-x="1163" d="M102 544.5q0 313.5 104.5 433.5t377 120t375 -122t102.5 -437.5t-102.5 -432t-375 -116.5t-377 120.5t-104.5 434zM254 520q0 -125 19.5 -204.5t67.5 -116.5t98 -47.5t143.5 -10.5t145.5 10.5t98 48.5t64.5 116.5t18.5 218t-15 223.5t-60.5 126t-97.5 52t-142 10t-135 -6 t-90 -28.5t-66.5 -67.5t-35 -122t-13.5 -202zM254 1305q55 45 83 66.5t74 43t94 19.5t116.5 -36t74.5 -34h21q47 0 184 74l45 -86q-6 -4 -49 -41q-111 -88 -178 -88q-61 0 -127 34.5t-103.5 34.5t-67.5 -11t-63.5 -30.5t-60.5 -29.5z" />
<glyph unicode="&#xf6;" horiz-adv-x="1163" d="M102 544.5q0 313.5 104.5 433.5t377 120t375 -122t102.5 -437.5t-102.5 -432t-375 -116.5t-377 120.5t-104.5 434zM219 1325q0 43 31 72.5t74 29.5t72.5 -29.5t29.5 -72.5t-29.5 -73.5t-72.5 -30.5t-74 30.5t-31 73.5zM254 520q0 -125 19.5 -204.5t67.5 -116.5t98 -47.5 t143.5 -10.5t145.5 10.5t98 48.5t64.5 116.5t18.5 218t-15 223.5t-60.5 126t-97.5 52t-142 10t-135 -6t-90 -28.5t-66.5 -67.5t-35 -122t-13.5 -202zM741 1325q0 43 31 72.5t74 29.5t72.5 -29.5t29.5 -72.5t-29.5 -73.5t-72.5 -30.5t-74 30.5t-31 73.5z" />
<glyph unicode="&#xf7;" horiz-adv-x="1056" d="M102 647v152h852v-152h-852zM434 354v111q0 51 49 51h103q47 0 47 -51v-111q0 -47 -47 -47h-103q-49 0 -49 47zM434 967v110q0 51 49 51h103q47 0 47 -51v-110q0 -47 -47 -47h-103q-49 0 -49 47z" />
<glyph unicode="&#xf8;" horiz-adv-x="1163" d="M102.5 550q-0.5 308 104 428t375.5 120q188 0 288 -51l31 40h135l-80 -108q104 -121 104.5 -438.5t-102 -434t-376.5 -116.5q-205 0 -312 65l-41 -55h-125l91 125q-92 117 -92.5 425zM254 496.5q0 -148.5 41 -236.5l485 662q-59 25 -167.5 24.5t-153.5 -6.5t-90 -28.5 t-66.5 -67.5t-35 -122t-13.5 -225.5zM362 180q59 -39 186.5 -39t179.5 10.5t98 48.5t64.5 116.5t18.5 211.5q0 236 -49 322z" />
<glyph unicode="&#xf9;" horiz-adv-x="1114" d="M102 330v757h152v-757q0 -96 51 -146.5t131 -50.5t149.5 16.5t111.5 34t143 66.5v837h151v-1087h-106l-45 127q-6 -2 -45 -25.5t-48.5 -27.5t-44 -23.5t-49 -23.5t-47.5 -16.5t-53 -16.5q-66 -12 -115 -12q-156 0 -246 102.5t-90 245.5zM225 1493h193l221 -272h-143z" />
<glyph unicode="&#xfa;" horiz-adv-x="1114" d="M102 330v757h152v-757q0 -96 51 -146.5t131 -50.5t149.5 16.5t111.5 34t143 66.5v837h151v-1087h-106l-45 127q-6 -2 -45 -25.5t-48.5 -27.5t-44 -23.5t-49 -23.5t-47.5 -16.5t-53 -16.5q-66 -12 -115 -12q-156 0 -246 102.5t-90 245.5zM475 1221l221 272h193l-271 -272 h-143z" />
<glyph unicode="&#xfb;" horiz-adv-x="1114" d="M102 330v757h152v-757q0 -96 51 -146.5t131 -50.5t149.5 16.5t111.5 34t143 66.5v837h151v-1087h-106l-45 127q-6 -2 -45 -25.5t-48.5 -27.5t-44 -23.5t-49 -23.5t-47.5 -16.5t-53 -16.5q-66 -12 -115 -12q-156 0 -246 102.5t-90 245.5zM248 1221l239 266h146l213 -266 h-146l-145 145l-160 -145h-147z" />
<glyph unicode="&#xfc;" horiz-adv-x="1114" d="M102 330v757h152v-757q0 -96 51 -146.5t131 -50.5t149.5 16.5t111.5 34t143 66.5v837h151v-1087h-106l-45 127q-6 -2 -45 -25.5t-48.5 -27.5t-44 -23.5t-49 -23.5t-47.5 -16.5t-53 -16.5q-66 -12 -115 -12q-156 0 -246 102.5t-90 245.5zM182 1325q0 43 31 72.5t74 29.5 t72.5 -29.5t29.5 -72.5t-29.5 -73.5t-72.5 -30.5t-74 30.5t-31 73.5zM705 1325q0 43 30.5 72.5t73.5 29.5t72.5 -29.5t29.5 -72.5t-29.5 -73.5t-72.5 -30.5t-73.5 30.5t-30.5 73.5z" />
<glyph unicode="&#xfd;" d="M43 1087h166l264 -849q14 -41 27.5 -53.5t24 -19.5t20.5 -9t19 -3t18 -1q18 4 26 6l312 929h170l-480 -1431l-153 -209h-95l193 553q-176 0 -246 225zM496 1221l219 272h194l-272 -272h-141z" />
<glyph unicode="&#xfe;" d="M143 -553v2155h152v-637q55 39 181 90t222.5 51t169 -47t111.5 -129q74 -156 74 -383q0 -315 -95 -449q-39 -51 -106.5 -84.5t-151.5 -33.5t-198.5 21.5t-206.5 57.5v-612h-152zM295 182q96 -29 163.5 -35t94.5 -8q106 -8 141 -8q102 0 154.5 91t52.5 305t-55 320.5 t-152 106.5q-160 -10 -399 -102v-670z" />
<glyph unicode="&#xff;" d="M43 1087h166l264 -849q14 -41 27.5 -53.5t24 -19.5t20.5 -9t19 -3t18 -1q18 4 26 6l312 929h170l-480 -1431l-153 -209h-95l193 553q-176 0 -246 225zM201 1314q0 32 9 51t21 34q31 29 74 28.5t74 -30t31 -72.5t-31 -73.5t-74 -30.5t-73.5 30.5t-30.5 62.5zM725 1325 q0 43 29.5 72.5t73.5 29.5t73 -29.5t29 -72.5t-30 -73.5t-72 -30.5t-72.5 30.5t-30.5 73.5z" />
<glyph unicode="&#x100;" horiz-adv-x="1372" d="M92 0l551 1499h152l526 -1499h-180l-129 418h-598l-135 -418h-187zM420 1632v129h598v-129h-598zM469 569h489l-241 699z" />
<glyph unicode="&#x101;" horiz-adv-x="1062" d="M82 258v125q0 125 72.5 198.5t199.5 73.5h341h114q2 68 2 102t-2 36q0 168 -176 168t-516 -25v111q221 61 536 61q133 0 220.5 -78t87.5 -237v-793h-113l-39 131l-31 -14q-266 -129 -424 -129q-117 0 -194.5 71.5t-77.5 198.5zM233 268q0 -129 121 -129q74 0 187.5 27 t191.5 51l76 27v293l-455 -33q-61 -6 -91 -43t-30 -90v-103zM260 1231v129h598v-129h-598z" />
<glyph unicode="&#x102;" horiz-adv-x="1372" d="M92 0l551 1499h152l526 -1499h-180l-129 418h-598l-135 -418h-187zM469 569h489l-241 699zM483 1866h97q0 -57 42 -97t98 -40t97 36.5t41 100.5h96q0 -109 -72.5 -171.5t-163.5 -62.5t-163 65t-72 169z" />
<glyph unicode="&#x103;" horiz-adv-x="1062" d="M82 258v125q0 125 72.5 198.5t199.5 73.5h341h114q2 68 2 102t-2 36q0 168 -176 168t-516 -25v111q221 61 536 61q133 0 220.5 -78t87.5 -237v-793h-113l-39 131l-31 -14q-266 -129 -424 -129q-117 0 -194.5 71.5t-77.5 198.5zM233 268q0 -129 121 -129q74 0 187.5 27 t191.5 51l76 27v293l-455 -33q-61 -6 -91 -43t-30 -90v-103zM324 1464h96q0 -57 42 -97t98 -40t97 37t41 100h97q0 -109 -73 -171t-164 -62t-162.5 64.5t-71.5 168.5z" />
<glyph unicode="&#x104;" horiz-adv-x="1372" d="M92 0l551 1499h152l526 -1499h-180l-129 418h-598l-135 -418h-187zM469 569h489l-241 699zM1026 -189.5q0 50.5 42 101.5t128 88h80q-121 -100 -121 -170q0 -74 127 -78v-123q-20 -2 -53 -2t-84 18.5t-82 63.5q-37 51 -37 101.5z" />
<glyph unicode="&#x105;" horiz-adv-x="1062" d="M82 258v125q0 125 72.5 198.5t199.5 73.5h341h114q2 68 2 102t-2 36q0 168 -176 168t-516 -25v111q221 61 536 61q133 0 220.5 -78t87.5 -237v-793h-113l-39 131l-31 -14q-266 -129 -424 -129q-117 0 -194.5 71.5t-77.5 198.5zM233 268q0 -129 121 -129q74 0 187.5 27 t191.5 51l76 27v293l-455 -33q-61 -6 -91 -43t-30 -90v-103zM694 -189.5q0 50.5 42 101.5t130 88h80q-123 -100 -123 -170q0 -74 129 -78v-123q-20 -2 -53 -2t-85 18.5t-83 63.5q-37 51 -37 101.5z" />
<glyph unicode="&#x106;" horiz-adv-x="1183" d="M113 754q0 389 105.5 575.5t393.5 186.5q223 0 500 -52v-121q-369 20 -501 20.5t-204.5 -49.5t-107.5 -182.5t-35 -381.5q0 -610 348 -611l500 15v-121q-242 -45 -500 -45q-500 0 -499 766zM602 1638l221 273h193l-271 -273h-143z" />
<glyph unicode="&#x107;" horiz-adv-x="1024" d="M102 545q0 172 26 285.5t77 170t110.5 77t192.5 20.5t420 -54v-110q-285 12 -403.5 12t-149.5 -10t-64 -47q-57 -72 -57 -327t46 -338t161 -83q193 0 403 17l78 6v-115q-197 -55 -481 -59q-84 0 -142.5 20.5t-110.5 76.5t-79 171t-27 287zM479 1225l219 272h195 l-272 -272h-142z" />
<glyph unicode="&#x108;" horiz-adv-x="1183" d="M113 754q0 389 105.5 575.5t393.5 186.5q223 0 500 -52v-121q-369 20 -501 20.5t-204.5 -49.5t-107.5 -182.5t-35 -381.5q0 -610 348 -611l500 15v-121q-242 -45 -500 -45q-500 0 -499 766zM375 1638l239 267h146l213 -267h-146l-145 146l-160 -146h-147z" />
<glyph unicode="&#x109;" horiz-adv-x="1024" d="M102 545q0 172 26 285.5t77 170t110.5 77t192.5 20.5t420 -54v-110q-285 12 -403.5 12t-149.5 -10t-64 -47q-57 -72 -57 -327t46 -338t161 -83q193 0 403 17l78 6v-115q-197 -55 -481 -59q-84 0 -142.5 20.5t-110.5 76.5t-79 171t-27 287zM281 1225l239 266h146l213 -266 h-146l-145 145l-160 -145h-147z" />
<glyph unicode="&#x10a;" horiz-adv-x="1183" d="M113 754q0 389 105.5 575.5t393.5 186.5q223 0 500 -52v-121q-369 20 -501 20.5t-204.5 -49.5t-107.5 -182.5t-35 -381.5q0 -610 348 -611l500 15v-121q-242 -45 -500 -45q-500 0 -499 766zM594 1690v110q0 51 49 51h102q47 0 48 -51v-110q0 -47 -48 -48h-102 q-49 1 -49 48z" />
<glyph unicode="&#x10b;" horiz-adv-x="1024" d="M102 545q0 172 26 285.5t77 170t110.5 77t192.5 20.5t420 -54v-110q-285 12 -403.5 12t-149.5 -10t-64 -47q-57 -72 -57 -327t46 -338t161 -83q193 0 403 17l78 6v-115q-197 -55 -481 -59q-84 0 -142.5 20.5t-110.5 76.5t-79 171t-27 287zM502 1276v110q0 51 49 52h102 q47 0 47 -52v-110q0 -47 -47 -47h-102q-49 0 -49 47z" />
<glyph unicode="&#x10c;" horiz-adv-x="1183" d="M113 754q0 389 105.5 575.5t393.5 186.5q223 0 500 -52v-121q-369 20 -501 20.5t-204.5 -49.5t-107.5 -182.5t-35 -381.5q0 -610 348 -611l500 15v-121q-242 -45 -500 -45q-500 0 -499 766zM385 1905h147l164 -146l142 146h145l-213 -267h-145z" />
<glyph unicode="&#x10d;" horiz-adv-x="1024" d="M102 545q0 172 26 285.5t77 170t110.5 77t192.5 20.5t420 -54v-110q-285 12 -403.5 12t-149.5 -10t-64 -47q-57 -72 -57 -327t46 -338t161 -83q193 0 403 17l78 6v-115q-197 -55 -481 -59q-84 0 -142.5 20.5t-110.5 76.5t-79 171t-27 287zM250 1491h147l164 -145l141 145 h146l-213 -266h-146z" />
<glyph unicode="&#x10e;" horiz-adv-x="1345" d="M164 0v1499h557q133 0 232.5 -50t154.5 -126t90 -182q55 -170 55 -398q0 -223 -73 -407q-86 -209 -252 -291q-92 -45 -207 -45h-557zM315 158h406q129 0 217 84q164 154 164 487.5t-97.5 476t-283.5 142.5h-406v-1190zM352 1888h148l164 -145l141 145h145l-213 -266h-145 z" />
<glyph unicode="&#x10f;" d="M102 545.5q0 111.5 13.5 201t48.5 175.5q76 182 297 182q76 0 192.5 -22.5t208.5 -59.5v586h150v-1608h-109l-41 121q-51 -37 -179 -85t-228.5 -48t-174 49t-110.5 134t-52.5 174t-15.5 200.5zM254 539q0 -399 207 -400q170 0 401 94v666q-205 53 -401 53 q-106 0 -156.5 -87.5t-50.5 -325.5zM1108 1597h154v-137l-23 -274h-109l-20 274z" />
<glyph unicode="&#x110;" horiz-adv-x="1345" d="M31 709v110h133v678q0 2 559 2q225 0 342 -129q119 -129 154 -295q35 -170 34.5 -304t-16.5 -235.5t-56 -199.5t-99.5 -172t-151.5 -119t-207 -45h-559v709h-133zM315 158h408q190 0 281.5 164.5t91.5 422.5q0 592 -373 592l-408 -2v-516h285v-110h-285v-551z" />
<glyph unicode="&#x111;" d="M102 545.5q0 111.5 13.5 201t48.5 175.5q76 182 297 182q76 0 192.5 -22.5t208.5 -59.5v240h-250v110h250v236h150v-236h147v-110h-147v-1262h-109l-41 121q-51 -37 -179 -85t-228.5 -48t-174 49t-110.5 134t-52.5 174t-15.5 200.5zM254 539q0 -399 207 -400 q170 0 401 94v666q-205 53 -401 53q-106 0 -156.5 -87.5t-50.5 -325.5z" />
<glyph unicode="&#x112;" horiz-adv-x="1161" d="M164 252v981q0 141 70.5 203.5t175.5 62.5h12l647 -33v-118h-647q-49 0 -74.5 -19.5t-29 -39t-3.5 -56.5v-410l672 -20v-121l-672 -20v-410q0 -51 22.5 -75.5t43 -28t61.5 -3.5h627v-116l-627 -35h-30q-248 0 -248 258zM354 1628v129h598v-129h-598z" />
<glyph unicode="&#x113;" horiz-adv-x="1075" d="M102 549q0 180 25 289.5t89.5 166t143 74t204.5 17.5t189.5 -10.5t125 -47.5t88 -116.5t26.5 -210.5q0 -250 -280 -250h-459q0 -190 43 -255t164 -65q373 0 512 21v-115q-203 -57 -512 -57q-207 0 -283 118.5t-76 440.5zM254 610h459q129 0 129 101q0 158 -46 195.5 t-216 37.5q-211 0 -252 -43q-57 -61 -65.5 -135t-8.5 -156zM264 1219v129h598v-129h-598z" />
<glyph unicode="&#x116;" horiz-adv-x="1161" d="M164 252v981q0 141 70.5 203.5t175.5 62.5h12l647 -33v-118h-647q-49 0 -74.5 -19.5t-29 -39t-3.5 -56.5v-410l672 -20v-121l-672 -20v-410q0 -51 22.5 -75.5t43 -28t61.5 -3.5h627v-116l-627 -35h-30q-248 0 -248 258zM557 1673v111q0 51 49 51h103q47 0 47 -51v-111 q0 -47 -47 -47h-103q-49 0 -49 47z" />
<glyph unicode="&#x117;" horiz-adv-x="1075" d="M102 549q0 180 25 289.5t89.5 166t143 74t204.5 17.5t189.5 -10.5t125 -47.5t88 -116.5t26.5 -210.5q0 -250 -280 -250h-459q0 -190 43 -255t164 -65q373 0 512 21v-115q-203 -57 -512 -57q-207 0 -283 118.5t-76 440.5zM254 610h459q129 0 129 101q0 158 -46 195.5 t-216 37.5q-211 0 -252 -43q-57 -61 -65.5 -135t-8.5 -156zM459 1268v110q0 51 49 52h102q23 0 36 -14.5t13 -37.5v-110q0 -47 -49 -47h-102q-20 0 -34.5 13.5t-14.5 33.5z" />
<glyph unicode="&#x118;" horiz-adv-x="1161" d="M164 252v981q0 141 70.5 203.5t175.5 62.5h12l647 -33v-118h-647q-49 0 -74.5 -19.5t-29 -39t-3.5 -56.5v-410l672 -20v-121l-672 -20v-410q0 -51 22.5 -75.5t43 -28t61.5 -3.5h627v-116l-627 -35h-30q-248 0 -248 258zM817 -162q0 49 42 100.5t130 90.5h80 q-121 -102 -121 -170q0 -76 127 -78v-123q-20 -4 -53 -4t-85 19.5t-83 62.5q-37 53 -37 102z" />
<glyph unicode="&#x119;" horiz-adv-x="1075" d="M102 549q0 180 25 289.5t89.5 166t143 74t204.5 17.5t189.5 -10.5t125 -47.5t88 -116.5t26.5 -210.5q0 -250 -280 -250h-459q0 -190 43 -255t164 -65q373 0 512 21v-115q-203 -57 -512 -57q-207 0 -283 118.5t-76 440.5zM254 610h459q129 0 129 101q0 158 -46 195.5 t-216 37.5q-211 0 -252 -43q-57 -61 -65.5 -135t-8.5 -156zM721 -142.5q0 50.5 42 101.5t130 88h80q-123 -98 -123 -170q0 -25 24.5 -50.5t104.5 -27.5v-123q-20 -4 -53 -4t-85.5 19.5t-82.5 62.5q-37 53 -37 103.5z" />
<glyph unicode="&#x11a;" horiz-adv-x="1161" d="M164 252v981q0 141 70.5 203.5t175.5 62.5h12l647 -33v-118h-647q-49 0 -74.5 -19.5t-29 -39t-3.5 -56.5v-410l672 -20v-121l-672 -20v-410q0 -51 22.5 -75.5t43 -28t61.5 -3.5h627v-116l-627 -35h-30q-248 0 -248 258zM346 1888h148l163 -145l142 145h145l-213 -266 h-145z" />
<glyph unicode="&#x11b;" horiz-adv-x="1075" d="M102 549q0 180 25 289.5t89.5 166t143 74t204.5 17.5t189.5 -10.5t125 -47.5t88 -116.5t26.5 -210.5q0 -250 -280 -250h-459q0 -190 43 -255t164 -65q373 0 512 21v-115q-203 -57 -512 -57q-207 0 -283 118.5t-76 440.5zM254 610h459q129 0 129 101q0 158 -46 195.5 t-216 37.5q-211 0 -252 -43q-57 -61 -65.5 -135t-8.5 -156zM266 1477h148l164 -146l141 146h145l-213 -267h-145z" />
<glyph unicode="&#x11c;" horiz-adv-x="1257" d="M113 771q0 157 18.5 281t67.5 234q100 229 393 230q80 0 247 -17.5t273 -38.5v-121q-18 0 -102 6.5t-150 10.5q-131 8 -268 8q-195 0 -261.5 -140.5t-66.5 -476t74 -471t262 -137.5q70 0 168 23.5t162 46.5l63 24v410h-344v102q186 51 357 52q66 0 139 -6v-791h-115 l-33 100q-201 -111 -397 -110h-12q-115 0 -203 39t-140 103.5t-83 167.5t-40 208.5t-9 262.5zM389 1638l240 267h145l213 -267h-145l-146 146l-159 -146h-148z" />
<glyph unicode="&#x11d;" d="M92 -63l82 133q-76 53 -76 166q0 57 31 107t90 63q-119 76 -119 282.5t93.5 305t261.5 98.5h639v-115l-166 -37q2 -4 14 -25.5t18.5 -35t14.5 -39.5q16 -49 16 -121t-13 -131.5t-46 -128t-104.5 -111.5t-174.5 -43h-319q-84 0 -84 -61q0 -70 84 -70h436q125 0 194.5 -77 t69.5 -206v-129q0 -111 -51 -200q-31 -53 -96.5 -84t-159.5 -31h-307q-150 0 -239 80t-89 235v175zM244 39v-277q0 -164 176 -163h307q156 0 156 163v119q0 78 -28 110t-112 32h-407q-55 0 -92 16zM252 705q0 -86 27 -144q49 -104 161 -104h201q111 0 155 74.5t44 158.5 q0 123 -44 186.5t-157 63.5h-184q-203 1 -203 -235zM264 1223l240 266h145l213 -266h-145l-146 145l-159 -145h-148z" />
<glyph unicode="&#x11e;" horiz-adv-x="1257" d="M113 771q0 157 18.5 281t67.5 234q100 229 393 230q80 0 247 -17.5t273 -38.5v-121q-18 0 -102 6.5t-150 10.5q-131 8 -268 8q-195 0 -261.5 -140.5t-66.5 -476t74 -471t262 -137.5q70 0 168 23.5t162 46.5l63 24v410h-344v102q186 51 357 52q66 0 139 -6v-791h-115 l-33 100q-201 -111 -397 -110h-12q-115 0 -203 39t-140 103.5t-83 167.5t-40 208.5t-9 262.5zM453 1872h96q0 -57 42 -97t98 -40t97 36.5t41 100.5h97q0 -109 -73 -171.5t-164 -62.5t-162.5 65t-71.5 169z" />
<glyph unicode="&#x11f;" d="M92 -63l82 133q-76 53 -76 166q0 57 31 107t90 63q-119 76 -119 282.5t93.5 305t261.5 98.5h639v-115l-166 -37q2 -4 14 -25.5t18.5 -35t14.5 -39.5q16 -49 16 -121t-13 -131.5t-46 -128t-104.5 -111.5t-174.5 -43h-319q-84 0 -84 -61q0 -70 84 -70h436q125 0 194.5 -77 t69.5 -206v-129q0 -111 -51 -200q-31 -53 -96.5 -84t-159.5 -31h-307q-150 0 -239 80t-89 235v175zM244 39v-277q0 -164 176 -163h307q156 0 156 163v119q0 78 -28 110t-112 32h-407q-55 0 -92 16zM252 705q0 -86 27 -144q49 -104 161 -104h201q111 0 155 74.5t44 158.5 q0 123 -44 186.5t-157 63.5h-184q-203 1 -203 -235zM326 1456h96q0 -57 42 -97t98 -40t97 37t41 100h97q0 -109 -73 -171t-164 -62t-162.5 64.5t-71.5 168.5z" />
<glyph unicode="&#x120;" horiz-adv-x="1257" d="M113 771q0 157 18.5 281t67.5 234q100 229 393 230q80 0 247 -17.5t273 -38.5v-121q-18 0 -102 6.5t-150 10.5q-131 8 -268 8q-195 0 -261.5 -140.5t-66.5 -476t74 -471t262 -137.5q70 0 168 23.5t162 46.5l63 24v410h-344v102q186 51 357 52q66 0 139 -6v-791h-115 l-33 100q-201 -111 -397 -110h-12q-115 0 -203 39t-140 103.5t-83 167.5t-40 208.5t-9 262.5zM571 1686v110q0 51 50 51h102q47 0 47 -51v-110q0 -47 -47 -48h-102q-50 1 -50 48z" />
<glyph unicode="&#x121;" d="M92 -63l82 133q-76 53 -76 166q0 57 31 107t90 63q-119 76 -119 282.5t93.5 305t261.5 98.5h639v-115l-166 -37q2 -4 14 -25.5t18.5 -35t14.5 -39.5q16 -49 16 -121t-13 -131.5t-46 -128t-104.5 -111.5t-174.5 -43h-319q-84 0 -84 -61q0 -70 84 -70h436q125 0 194.5 -77 t69.5 -206v-129q0 -111 -51 -200q-31 -53 -96.5 -84t-159.5 -31h-307q-150 0 -239 80t-89 235v175zM244 39v-277q0 -164 176 -163h307q156 0 156 163v119q0 78 -28 110t-112 32h-407q-55 0 -92 16zM252 705q0 -86 27 -144q49 -104 161 -104h201q111 0 155 74.5t44 158.5 q0 123 -44 186.5t-157 63.5h-184q-203 1 -203 -235zM469 1274v110q0 51 49 52h103q47 0 47 -52v-110q0 -47 -47 -47h-103q-49 0 -49 47z" />
<glyph unicode="&#x122;" horiz-adv-x="1257" d="M113 771q0 157 18.5 281t67.5 234q100 229 393 230q80 0 247 -17.5t273 -38.5v-121q-18 0 -102 6.5t-150 10.5q-131 8 -268 8q-195 0 -261.5 -140.5t-66.5 -476t74 -471t262 -137.5q70 0 168 23.5t162 46.5l63 24v410h-344v102q186 51 357 52q66 0 139 -6v-791h-115 l-33 100q-201 -111 -397 -110h-12q-115 0 -203 39t-140 103.5t-83 167.5t-40 208.5t-9 262.5zM565 -203q0 49 47 49h95q43 0 43 -49v-166q0 -49 -17.5 -81.5t-43 -44t-47 -15.5t-32 -4t-35.5 4v59h5q53 0 53 58v45h-21q-47 0 -47 45v100z" />
<glyph unicode="&#x123;" d="M92 -63l82 133q-76 52 -76 163q0 57 32 108.5t89 64.5q-61 39 -90 121.5t-29 177.5q0 190 93.5 288.5t261.5 98.5h639v-115l-166 -37q2 -4 14 -25.5t18.5 -35t14.5 -37.5q16 -49 16 -114.5t-7 -112t-28.5 -104.5t-56.5 -101t-99.5 -74t-146.5 -31h-319q-33 0 -58.5 -15.5 t-25.5 -51t21.5 -49t62.5 -19.5l403 -51q135 -16 216 -93t81 -196v-68q0 -158 -82 -239q-76 -76 -225 -76h-307q-150 0 -239 80t-89 235v175zM244 39v-277q0 -164 176 -163h307q113 0 143 77q12 35 13 86v58q0 131 -181 155l-346 45zM252 705q0 -88 27 -144 q49 -104 161 -104h201q156 0 193 168q6 33 6 53q0 139 -44 200.5t-157 61.5h-184q-203 1 -203 -235zM467 1264v166q0 49 18.5 81.5t44 44t47 15.5t31.5 4t35 -2v-60h-4q-53 0 -53 -57v-47h20q45 0 45 -45v-100q0 -49 -45 -50h-94q-45 0 -45 50z" />
<glyph unicode="&#x124;" horiz-adv-x="1306" d="M164 0v1499h151v-698h717v698h152v-1499h-152v649h-717v-649h-151zM375 1632l239 266h146l213 -266h-146l-145 146l-160 -146h-147z" />
<glyph unicode="&#x125;" horiz-adv-x="1114" d="M-104 1729l239 266h146l213 -266h-146l-145 145l-160 -145h-147zM123 0v1606h151v-645q6 2 45 25.5t48.5 27.5t44 23.5t49 23.5t47.5 16.5t53 16.5q66 12 115 12q156 0 246 -102.5t90 -245.5v-758h-152v758q0 98 -50 147t-131 49t-150.5 -16t-111.5 -33.5t-143 -66.5 v-838h-151z" />
<glyph unicode="&#x126;" horiz-adv-x="1347" d="M39 1057v110h125v332h151v-332h717v332h152v-332h121v-110h-121v-1057h-152v649h-717v-649h-151v1057h-125zM315 801h717v256h-717v-256z" />
<glyph unicode="&#x127;" horiz-adv-x="1114" d="M-35 1249v111h158v246h158v-246h274v-111h-274v-288q254 145 409 145h7h14q137 0 219 -99.5t82 -244.5v-762h-158v756q-4 98 -48 150t-147 52q-145 -8 -378 -120v-838h-158v1249h-158z" />
<glyph unicode="&#x128;" horiz-adv-x="438" d="M-106 1716q55 45 82.5 66.5t73.5 43t94.5 19.5t117 -35.5t74.5 -33.5h20q47 0 185 73l45 -86q-6 -4 -49 -39q-111 -90 -179 -90q-61 0 -126.5 35t-103.5 35t-67.5 -11.5t-63.5 -31t-60 -29.5zM164 0v1499h151v-1499h-151z" />
<glyph unicode="&#x129;" horiz-adv-x="397" d="M-147 1305q55 45 82.5 66.5t73.5 43t94.5 19.5t117 -36t75.5 -34h19q47 0 185 74l45 -86q-6 -4 -49 -41q-111 -88 -179 -88q-61 0 -126.5 34.5t-103.5 34.5t-67.5 -11t-63.5 -30.5t-60 -29.5zM123 0v1087h151v-1087h-151z" />
<glyph unicode="&#x12a;" horiz-adv-x="438" d="M-59 1632v129h598v-129h-598zM164 0v1499h151v-1499h-151z" />
<glyph unicode="&#x12b;" horiz-adv-x="397" d="M-100 1221v129h598v-129h-598zM123 0v1087h151v-1087h-151z" />
<glyph unicode="&#x12e;" horiz-adv-x="438" d="M33 -189.5q0 50.5 42 101.5t130 88h80q-123 -98 -123 -170q0 -25 24.5 -50.5t104.5 -27.5v-123q-20 -4 -53 -4t-85.5 19.5t-82.5 64.5q-37 51 -37 101.5zM164 0v1499h151v-1499h-151z" />
<glyph unicode="&#x12f;" horiz-adv-x="403" d="M-4 -189.5q0 50.5 42 101.5t130 88h80q-123 -98 -123 -170q0 -25 24.5 -50.5t104.5 -27.5v-123q-20 -4 -53 -4t-85.5 19.5t-82.5 64.5q-37 51 -37 101.5zM102 1264v110q0 51 50 51h102q47 0 47 -51v-110q0 -47 -47 -47h-102q-50 0 -50 47zM123 0v1087h151v-1087h-151z " />
<glyph unicode="&#x130;" horiz-adv-x="438" d="M139 1679v111q0 51 49 51h103q23 0 36 -14.5t13 -36.5v-111q0 -47 -49 -47h-103q-20 0 -34.5 13.5t-14.5 33.5zM164 0v1499h151v-1499h-151z" />
<glyph unicode="&#x131;" horiz-adv-x="397" d="M123 0v1087h151v-1087h-151z" />
<glyph unicode="&#x134;" horiz-adv-x="735" d="M72 43l8 111q131 -33 205 -33q174 0 176 217v1161h151v-1161q0 -233 -106 -301q-78 -49 -214 -49t-220 55zM238 1632l239 266h146l213 -266h-146l-145 146l-160 -146h-147z" />
<glyph unicode="&#x135;" horiz-adv-x="444" d="M-82 1227l240 327h145l213 -327h-123l-168 186l-180 -186h-127zM141 -553v1640h162v-1095v-41q0 -283 -53 -504h-109z" />
<glyph unicode="&#x136;" horiz-adv-x="1210" d="M164 0v1499h151v-672h168l471 672h185l-516 -747l516 -752h-185l-471 676h-166v-676h-153zM537 -193q0 49 45 50h94q45 0 45 -50v-165q0 -49 -18.5 -82t-44 -44.5t-47 -15.5t-32 -4t-34.5 4v60h4q53 0 53 55v47h-20q-45 0 -45 47v98z" />
<glyph unicode="&#x137;" horiz-adv-x="1024" d="M123 0v1602h151v-902h82l416 387h211l-483 -462l483 -625h-188l-439 549h-82v-549h-151zM438 -193q0 49 47 50h95q43 0 43 -50v-165q0 -49 -17.5 -82t-43 -44.5t-47 -15.5t-32 -4t-34.5 4v60h4q53 0 53 55v47h-21q-47 0 -47 47v98z" />
<glyph unicode="&#x138;" horiz-adv-x="1060" d="M123 0v1087h151v-473h172l385 473h189l-436 -546l407 -541h-190l-361 463h-164l-2 -463h-151z" />
<glyph unicode="&#x139;" horiz-adv-x="1140" d="M164 258v1241h151v-1241q0 -78 43 -94q33 -12 84 -12h627v-152h-627q-117 0 -188 41q-90 51 -90 217zM168 1632l221 273h193l-271 -273h-143z" />
<glyph unicode="&#x13a;" horiz-adv-x="614" d="M123 387v1217h151v-1217q0 -125 29 -173t88 -62q168 -43 182 -43v-109h-180q-270 0 -270 387zM193 1726l219 273h194l-272 -273h-141z" />
<glyph unicode="&#x13b;" horiz-adv-x="1140" d="M164 258v1241h151v-1241q0 -78 43 -94q33 -12 84 -12h627v-152h-627q-117 0 -188 41q-90 51 -90 217zM541 -193q0 49 47 50h94q43 0 43 -50v-165q0 -49 -17.5 -82t-43 -44.5t-47 -15.5t-32 -4t-34.5 4v60h4q53 0 53 55v47h-20q-47 0 -47 47v98z" />
<glyph unicode="&#x13c;" horiz-adv-x="614" d="M123 387v1217h151v-1217q0 -125 29 -173t88 -62q168 -43 182 -43v-109h-180q-270 0 -270 387zM254 -193q0 49 45 50h94q45 0 45 -50v-165q0 -49 -18.5 -82t-44 -44.5t-47 -15.5t-31.5 -4t-35 4v60h4q53 0 53 55v47h-20q-45 0 -45 47v98z" />
<glyph unicode="&#x13d;" horiz-adv-x="1140" d="M164 258v1241h151v-1241q0 -78 43 -94q33 -12 84 -12h627v-152h-627q-117 0 -188 41q-90 51 -90 217zM473 1444v137h152v-137l-21 -275h-108z" />
<glyph unicode="&#x13e;" horiz-adv-x="614" d="M123 387v1217h151v-1217q0 -129 24 -173t93 -62q168 -43 182 -43v-109h-180q-145 0 -207.5 86t-62.5 301zM430 1462v137h152v-137l-21 -274h-108z" />
<glyph unicode="&#x141;" horiz-adv-x="1138" d="M-6 655v125l170 74v645h151v-579l287 122l-2 -122l-285 -125v-537q0 -78 43 -94q33 -12 84 -12h627v-152h-627q-117 0 -188 41q-90 51 -90 217v471z" />
<glyph unicode="&#x142;" horiz-adv-x="675" d="M20 756v125l164 69v654h152v-588l293 127l-2 -123l-291 -127v-506q0 -125 28.5 -173t88.5 -62q168 -43 182 -43v-109h-180q-270 0 -271 387v440z" />
<glyph unicode="&#x143;" horiz-adv-x="1392" d="M164 0v1499h155l799 -1216v1216h152v-1499h-152l-801 1217v-1217h-153zM668 1632l217 273h196l-274 -273h-139z" />
<glyph unicode="&#x144;" horiz-adv-x="1114" d="M123 0v1087h106l45 -126q6 2 45 25.5t48.5 27.5t44 23.5t49 23.5t47.5 16.5t53 16.5q66 12 115 12q156 0 246 -102.5t90 -245.5v-758h-152v758q0 96 -51 146t-131 50t-149.5 -16t-111.5 -33.5t-143 -66.5v-838h-151zM489 1229l220 272h194l-272 -272h-142z" />
<glyph unicode="&#x145;" horiz-adv-x="1392" d="M164 0v1499h155l799 -1216v1216h152v-1499h-152l-801 1217v-1217h-153zM623 -193q0 49 47 50h94q43 0 43 -50v-165q0 -49 -17.5 -82t-43 -44.5t-47 -15.5t-32 -4t-34.5 4v60h4q53 0 53 55v47h-20q-47 0 -47 47v98z" />
<glyph unicode="&#x146;" horiz-adv-x="1114" d="M123 0v1087h106l45 -126q6 2 45 25.5t48.5 27.5t44 23.5t49 23.5t47.5 16.5t53 16.5q66 12 115 12q156 0 246 -102.5t90 -245.5v-758h-152v758q0 96 -51 146t-131 50t-149.5 -16t-111.5 -33.5t-143 -66.5v-838h-151zM479 -193q0 49 45 50h94q45 0 46 -50v-165 q0 -49 -18.5 -82t-44.5 -44.5t-47.5 -15.5t-31.5 -4t-35 4v60h5q53 0 53 55v47h-21q-45 0 -45 47v98z" />
<glyph unicode="&#x147;" horiz-adv-x="1392" d="M164 0v1499h155l799 -1216v1216h152v-1499h-152l-801 1217v-1217h-153zM438 1898h148l164 -145l141 145h145l-213 -266h-145z" />
<glyph unicode="&#x148;" horiz-adv-x="1114" d="M123 0v1087h106l45 -126q6 2 45 25.5t48.5 27.5t44 23.5t49 23.5t47.5 16.5t53 16.5q66 12 115 12q156 0 246 -102.5t90 -245.5v-758h-152v758q0 96 -51 146t-131 50t-149.5 -16t-111.5 -33.5t-143 -66.5v-838h-151zM291 1495h147l164 -145l141 145h146l-213 -266h-146z " />
<glyph unicode="&#x14a;" horiz-adv-x="1388" d="M164 0v1499h155l795 -1196v1196h152v-1671q0 -225 -131 -295q-66 -35 -135.5 -47t-172.5 -12v116q18 6 61.5 14.5t67 14.5t58.5 24.5t53 41.5q47 61 47 172v143l-795 1217l-4 -1217h-151z" />
<glyph unicode="&#x14b;" d="M123 0v1087h106l45 -126q6 2 45 25.5t48.5 27.5t44 23.5t49 23.5t47.5 16.5t53 16.5q66 12 115 12q156 0 246 -102.5t90 -245.5v-758l-2 -184q-6 -98 -47 -187q-16 -33 -50 -61.5t-51.5 -42.5t-64.5 -33q-57 -23 -121 -41l-62 78q66 23 125.5 71t75.5 70q45 68 45 137 v951q0 96 -51 146t-131 50t-149.5 -16t-111.5 -33.5t-143 -66.5v-838h-151z" />
<glyph unicode="&#x14c;" horiz-adv-x="1384" d="M133 741q0 170 18.5 298t57.5 212t85 136.5t118 78.5q117 43 303 43q268 0 377 -82q104 -80 149 -227q51 -180 51 -417.5t-25.5 -374t-69.5 -218t-121 -126t-158.5 -58.5t-193.5 -14t-181.5 8t-141 33.5t-116.5 76t-82 132.5t-53.5 205.5t-16.5 293.5zM285 690.5 q0 -149.5 19.5 -266.5t75.5 -180.5t130 -82t190.5 -18.5t182 13.5t119 49.5t81.5 103q57 135 58 430q0 322 -49 432q-20 47 -37 78t-49.5 52.5t-56 33t-69.5 16.5t-77 6t-88.5 1t-87 -1t-75.5 -6t-70.5 -16.5t-57.5 -33t-50.5 -52t-38 -77t-29.5 -107.5t-15 -143t-6 -231.5z M416 1632v129h598v-129h-598z" />
<glyph unicode="&#x14d;" horiz-adv-x="1163" d="M102 544.5q0 313.5 104.5 433.5t377 120t375 -122t102.5 -437.5t-102.5 -432t-375 -116.5t-377 120.5t-104.5 434zM254 520q0 -125 19.5 -204.5t67.5 -116.5t98 -47.5t143.5 -10.5t145.5 10.5t98 48.5t64.5 116.5t18.5 218t-15 223.5t-60.5 126t-97.5 52t-142 10t-135 -6 t-90 -28.5t-66.5 -67.5t-35 -122t-13.5 -202zM283 1221v129h598v-129h-598z" />
<glyph unicode="&#x150;" horiz-adv-x="1384" d="M133 741q0 170 18.5 298t57.5 212t85 136.5t118 78.5q117 43 303 43q268 0 377 -82q104 -80 149 -227q51 -180 51 -417.5t-25.5 -374t-69.5 -218t-121 -126t-158.5 -58.5t-193.5 -14t-181.5 8t-141 33.5t-116.5 76t-82 132.5t-53.5 205.5t-16.5 293.5zM285 690.5 q0 -149.5 19.5 -266.5t75.5 -180.5t130 -82t190.5 -18.5t182 13.5t119 49.5t81.5 103q57 135 58 430q0 322 -49 432q-20 47 -37 78t-49.5 52.5t-56 33t-69.5 16.5t-77 6t-88.5 1t-87 -1t-75.5 -6t-70.5 -16.5t-57.5 -33t-50.5 -52t-38 -77t-29.5 -107.5t-15 -143t-6 -231.5z M506 1632l219 273h195l-273 -273h-141zM782 1632l219 273h195l-272 -273h-142z" />
<glyph unicode="&#x151;" horiz-adv-x="1163" d="M102 544.5q0 313.5 104.5 433.5t377 120t375 -122t102.5 -437.5t-102.5 -432t-375 -116.5t-377 120.5t-104.5 434zM254 520q0 -125 19.5 -204.5t67.5 -116.5t98 -47.5t143.5 -10.5t145.5 10.5t98 48.5t64.5 116.5t18.5 218t-15 223.5t-60.5 126t-97.5 52t-142 10t-135 -6 t-90 -28.5t-66.5 -67.5t-35 -122t-13.5 -202zM373 1221l219 272h194l-272 -272h-141zM649 1221l219 272h195l-272 -272h-142z" />
<glyph unicode="&#x152;" horiz-adv-x="2160" d="M133 757.5q0 186.5 28.5 331t75 226.5t126 126t156.5 56t218.5 12t248 -30.5t175.5 -120.5q51 141 215 141h23l649 -33v-118h-649q-49 0 -75 -19.5t-29 -39t-3 -56.5v-410l674 -20v-121l-674 -20v-410q0 -51 22.5 -75.5t43 -28t61.5 -3.5h629v-116l-629 -35h-30 q-186 0 -232 141q-70 -84 -176.5 -113.5t-238.5 -29.5t-201.5 8t-141 33.5t-115.5 76t-81 132.5t-53.5 205.5t-16.5 310zM285 704.5q0 -163.5 19.5 -280.5t74.5 -180.5t129 -82t204 -18.5t204.5 21.5t129 86t75 180.5t20.5 263.5t-6.5 228.5t-15.5 142t-28.5 107.5t-36 77 t-49 52t-57 33t-71.5 17.5q-63 6 -150.5 6t-124.5 -2t-92 -13.5t-82 -35t-59.5 -67.5t-48 -110.5t-25.5 -164t-10 -261z" />
<glyph unicode="&#x153;" horiz-adv-x="1878" d="M102 544.5q0 313.5 104.5 433.5t387.5 120t383 -146q51 86 144 115t232.5 29t203 -10.5t125 -47.5t88 -116.5t26.5 -210.5q0 -250 -280 -250h-457v-41q0 -143 42 -211t163 -68q373 0 512 21v-115q-203 -57 -512 -57q-215 0 -291 135q-100 -135 -381 -135t-385.5 120.5 t-104.5 434zM254 520q0 -125 19.5 -204.5t67.5 -116.5t98 -47.5t143 -10.5q207 0 265 77t58 326t-65.5 325.5t-257.5 76.5q-78 0 -123 -6t-90 -28.5t-66.5 -67.5t-35 -122t-13.5 -202zM1057 657q0 -23 2 -47h457q129 0 129 101q0 158 -46.5 195.5t-216.5 37.5 q-145 0 -203.5 -22.5t-80.5 -59.5q-41 -70 -41 -205z" />
<glyph unicode="&#x154;" horiz-adv-x="1214" d="M123 0v1499h639q346 0 346 -450q0 -393 -260 -431l315 -618h-164l-315 612l-410 29v-641h-151zM274 776h488q121 0 151 60q41 72 41 232.5t-53 219t-139 58.5h-488v-570zM524 1622l219 272h195l-272 -272h-142z" />
<glyph unicode="&#x155;" horiz-adv-x="872" d="M123 0v1087h106l45 -137q156 94 197 107.5t74 23.5q61 18 157.5 18.5t128.5 -16.5v-149q-49 12 -139 12t-160.5 -16.5t-112.5 -34.5t-145 -68v-827h-151zM446 1225l220 272h194l-272 -272h-142z" />
<glyph unicode="&#x156;" horiz-adv-x="1214" d="M123 0v1499h639q346 0 346 -450q0 -393 -260 -431l315 -618h-164l-315 612l-410 29v-641h-151zM274 776h488q121 0 151 60q41 72 41 232.5t-53 219t-139 58.5h-488v-570zM520 -193q0 49 47 50h95q43 0 43 -50v-165q0 -49 -17.5 -82t-43.5 -44.5t-47.5 -15.5t-31.5 -4 t-35 4v60h5q53 0 53 55v47h-21q-47 0 -47 47v98z" />
<glyph unicode="&#x157;" horiz-adv-x="872" d="M106 -193q0 49 48 50h94q43 0 43 -50v-165q0 -49 -17.5 -82t-43 -44.5t-47 -15.5t-32 -4t-34.5 4v60h4q53 0 53 55v47h-20q-47 0 -48 47v98zM123 0v1087h106l45 -137q156 94 197 107.5t74 23.5q61 18 157.5 18.5t128.5 -16.5v-149q-49 12 -139 12t-160.5 -16.5 t-112.5 -34.5t-145 -68v-827h-151z" />
<glyph unicode="&#x158;" horiz-adv-x="1214" d="M123 0v1499h639q346 0 346 -450q0 -393 -260 -431l315 -618h-164l-315 612l-410 29v-641h-151zM274 776h488q121 0 151 60q41 72 41 232.5t-53 219t-139 58.5h-488v-570zM289 1898h147l164 -145l141 145h146l-213 -266h-146z" />
<glyph unicode="&#x159;" horiz-adv-x="872" d="M123 0v1087h106l45 -137q156 94 197 107.5t74 23.5q61 18 157.5 18.5t128.5 -16.5v-149q-49 12 -139 12t-160.5 -16.5t-112.5 -34.5t-145 -68v-827h-151zM178 1489h148l163 -146l142 146h145l-213 -266h-145z" />
<glyph unicode="&#x15a;" horiz-adv-x="1196" d="M133 1012v135q0 207 106.5 285.5t272.5 78.5t539 -49v-123l-512 21h-33q-104 0 -162.5 -37t-58.5 -176v-135q0 -127 50 -164t159 -37h290q319 0 320 -352v-140q0 -207 -133 -278q-111 -57 -281 -57q-72 0 -253 18t-259 33v123q225 -23 512 -23q262 0 262 184v140 q0 96 -36.5 148t-131.5 52h-286q-233 0 -305 113q-60 95 -60 240zM557 1634l219 273h195l-273 -273h-141z" />
<glyph unicode="&#x15b;" horiz-adv-x="1036" d="M82 733v94q0 133 65.5 202t238.5 69t513 -33v-117h-534q-94 0 -115 -35q-16 -27 -17 -86v-94q0 -82 39 -100q33 -16 93 -17h323q129 0 197.5 -72.5t68.5 -191.5v-100q0 -152 -73.5 -207t-192.5 -55q-190 0 -561 39v112h561q0 2 11.5 0t28.5 4.5t34 14.5q41 20 41 92v100 q0 57 -25.5 85t-89.5 28h-323q-150 0 -216.5 57t-66.5 211zM440 1231l219 272h195l-272 -272h-142z" />
<glyph unicode="&#x15c;" horiz-adv-x="1196" d="M133 1012v135q0 207 106.5 285.5t272.5 78.5t539 -49v-123l-512 21h-33q-104 0 -162.5 -37t-58.5 -176v-135q0 -127 50 -164t159 -37h290q319 0 320 -352v-140q0 -207 -133 -278q-111 -57 -281 -57q-72 0 -253 18t-259 33v123q225 -23 512 -23q262 0 262 184v140 q0 96 -36.5 148t-131.5 52h-286q-233 0 -305 113q-60 95 -60 240zM342 1634l240 267h145l213 -267h-145l-146 146l-160 -146h-147z" />
<glyph unicode="&#x15d;" horiz-adv-x="1036" d="M82 733v94q0 133 65.5 202t238.5 69t513 -33v-117h-534q-94 0 -115 -35q-16 -27 -17 -86v-94q0 -82 39 -100q33 -16 93 -17h323q129 0 197.5 -72.5t68.5 -191.5v-100q0 -152 -73.5 -207t-192.5 -55q-190 0 -561 39v112h561q0 2 11.5 0t28.5 4.5t34 14.5q41 20 41 92v100 q0 57 -25.5 85t-89.5 28h-323q-150 0 -216.5 57t-66.5 211zM219 1221l240 266h145l213 -266h-145l-146 145l-159 -145h-148z" />
<glyph unicode="&#x15e;" horiz-adv-x="1196" d="M133 1012v135q0 207 106.5 285.5t272.5 78.5t539 -49v-123l-512 21h-33q-104 0 -162.5 -37t-58.5 -176v-135q0 -127 50 -164t159 -37h290q319 0 320 -352v-140q0 -207 -133 -278q-111 -57 -281 -57q-72 0 -253 18t-259 33v123q225 -23 512 -23q262 0 262 184v140 q0 96 -36.5 148t-131.5 52h-286q-233 0 -305 113q-60 95 -60 240zM401 -295l109 31q65 29 65 172h138q0 -160 -43 -219.5t-164 -59.5h-105v76z" />
<glyph unicode="&#x15f;" horiz-adv-x="1036" d="M82 733v94q0 133 65.5 202t238.5 69t513 -33v-117h-534q-94 0 -115 -35q-16 -27 -17 -86v-94q0 -82 39 -100q33 -16 93 -17h323q129 0 197.5 -72.5t68.5 -191.5v-100q0 -152 -73.5 -207t-192.5 -55q-190 0 -561 39v112h561q0 2 11.5 0t28.5 4.5t34 14.5q41 20 41 92v100 q0 57 -25.5 85t-89.5 28h-323q-150 0 -216.5 57t-66.5 211zM305 -283l109 31q65 29 65 172h137q0 -160 -43 -219t-163 -59h-105v75z" />
<glyph unicode="&#x160;" horiz-adv-x="1196" d="M133 1012v135q0 207 106.5 285.5t272.5 78.5t539 -49v-123l-512 21h-33q-104 0 -162.5 -37t-58.5 -176v-135q0 -127 50 -164t159 -37h290q319 0 320 -352v-140q0 -207 -133 -278q-111 -57 -281 -57q-72 0 -253 18t-259 33v123q225 -23 512 -23q262 0 262 184v140 q0 96 -36.5 148t-131.5 52h-286q-233 0 -305 113q-60 95 -60 240zM326 1901h147l164 -146l141 146h146l-213 -267h-146z" />
<glyph unicode="&#x161;" horiz-adv-x="1036" d="M82 733v94q0 133 65.5 202t238.5 69t513 -33v-117h-534q-94 0 -115 -35q-16 -27 -17 -86v-94q0 -82 39 -100q33 -16 93 -17h323q129 0 197.5 -72.5t68.5 -191.5v-100q0 -152 -73.5 -207t-192.5 -55q-190 0 -561 39v112h561q0 2 11.5 0t28.5 4.5t34 14.5q41 20 41 92v100 q0 57 -25.5 85t-89.5 28h-323q-150 0 -216.5 57t-66.5 211zM225 1497h148l164 -145l141 145h145l-213 -266h-145z" />
<glyph unicode="&#x162;" horiz-adv-x="1183" d="M92 1348v151h1041v-151h-451v-1348h-152v1348h-438zM360 -303l109 31q66 29 66 172h137q0 -160 -43 -219.5t-164 -59.5h-105v76z" />
<glyph unicode="&#x163;" horiz-adv-x="774" d="M41 938v115l203 37l37 303h114v-303h318v-152h-318v-549q0 -125 29 -173t88 -62q168 -43 182 -43v-109h-180q-270 0 -270 387v549h-203zM188 -307l109 31q65 29 65 172h138q0 -160 -43 -219.5t-164 -59.5h-105v76z" />
<glyph unicode="&#x164;" horiz-adv-x="1183" d="M92 1348v151h1041v-151h-451v-1348h-152v1348h-438zM293 1898h147l164 -145l141 145h146l-213 -266h-146z" />
<glyph unicode="&#x165;" horiz-adv-x="753" d="M41 938v115l203 37l37 303h114v-303h318v-152h-318v-549q0 -125 29 -173t88 -62q168 -43 182 -43v-109h-180q-270 0 -270 387v549h-203zM524 1638h154v-137l-23 -274h-108l-21 274z" />
<glyph unicode="&#x166;" horiz-adv-x="1183" d="M72 1348v151h1040v-151h-450v-439h245v-110h-245v-799h-152v799h-246v110h246v439h-438z" />
<glyph unicode="&#x167;" horiz-adv-x="753" d="M41 938v115l203 37l37 303h114v-303h318v-152h-318v-279h215v-110h-215v-160q2 -143 23.5 -180t97.5 -55q158 -37 160 -37v-115h-160q-147 0 -209.5 87t-62.5 300v160h-166v110h166v279h-203z" />
<glyph unicode="&#x168;" horiz-adv-x="1386" d="M164 655v844h151v-844q0 -186 23.5 -295.5t87 -154.5t115 -54.5t110.5 -9.5h68q145 0 180 14.5t65.5 32t49 43t39 64.5t32.5 90q25 113 25 270v844h154v-844q0 -190 -36 -322t-82 -197.5t-131 -100.5t-140.5 -40t-108.5 -5h-87t-61.5 1t-78 4t-77 12t-68.5 24.5t-65.5 41 t-54 60.5t-47 85t-32.5 114q-31 116 -31 323zM367 1706q55 45 82.5 66.5t73.5 43t94.5 19.5t117 -36t75.5 -34h19q47 0 185 74l45 -86q-6 -4 -51 -41q-109 -88 -177 -88q-61 0 -126.5 35t-103.5 35t-67.5 -11.5t-63.5 -31t-60 -29.5z" />
<glyph unicode="&#x169;" horiz-adv-x="1114" d="M102 330v757h152v-757q0 -96 51 -146.5t131 -50.5t149.5 16.5t111.5 34t143 66.5v837h151v-1087h-106l-45 127q-6 -2 -45 -25.5t-48.5 -27.5t-44 -23.5t-49 -23.5t-47.5 -16.5t-53 -16.5q-66 -12 -115 -12q-156 0 -246 102.5t-90 245.5zM201 1305q55 45 82.5 66.5 t73.5 43t94.5 19.5t117 -36t75.5 -34h20q47 0 184 74l45 -86q-6 -4 -49 -41q-111 -88 -178 -88q-61 0 -127 34.5t-104 34.5t-67.5 -11t-63.5 -30.5t-60 -29.5z" />
<glyph unicode="&#x16a;" horiz-adv-x="1386" d="M164 655v844h151v-844q0 -186 23.5 -295.5t87 -154.5t115 -54.5t110.5 -9.5h68q145 0 180 14.5t65.5 32t49 43t39 64.5t32.5 90q25 113 25 270v844h154v-844q0 -190 -36 -322t-82 -197.5t-131 -100.5t-140.5 -40t-108.5 -5h-87t-61.5 1t-78 4t-77 12t-68.5 24.5t-65.5 41 t-54 60.5t-47 85t-32.5 114q-31 116 -31 323zM414 1632v129h598v-129h-598z" />
<glyph unicode="&#x16b;" horiz-adv-x="1114" d="M102 330v757h152v-757q0 -96 51 -146.5t131 -50.5t149.5 16.5t111.5 34t143 66.5v837h151v-1087h-106l-45 127q-6 -2 -45 -25.5t-48.5 -27.5t-44 -23.5t-49 -23.5t-47.5 -16.5t-53 -16.5q-66 -12 -115 -12q-156 0 -246 102.5t-90 245.5zM248 1221v129h598v-129h-598z" />
<glyph unicode="&#x16c;" horiz-adv-x="1386" d="M164 655v844h151v-844q0 -186 23.5 -295.5t87 -154.5t115 -54.5t110.5 -9.5h68q145 0 180 14.5t65.5 32t49 43t39 64.5t32.5 90q25 113 25 270v844h154v-844q0 -190 -36 -322t-82 -197.5t-131 -100.5t-140.5 -40t-108.5 -5h-87t-61.5 1t-78 4t-77 12t-68.5 24.5t-65.5 41 t-54 60.5t-47 85t-32.5 114q-31 116 -31 323zM479 1866h94q0 -57 43 -97t99.5 -40t96.5 36.5t40 100.5h98q0 -113 -78 -176q-72 -57 -161.5 -57.5t-160.5 64.5t-71 169z" />
<glyph unicode="&#x16d;" horiz-adv-x="1114" d="M102 330v757h152v-757q0 -96 51 -146.5t131 -50.5t149.5 16.5t111.5 34t143 66.5v837h151v-1087h-106l-45 127q-6 -2 -45 -25.5t-48.5 -27.5t-44 -23.5t-49 -23.5t-47.5 -16.5t-53 -16.5q-66 -12 -115 -12q-156 0 -246 102.5t-90 245.5zM328 1454h96q0 -57 42 -97 t98.5 -40t97 37t40.5 100h97q0 -109 -73 -171t-164 -62t-162.5 64.5t-71.5 168.5z" />
<glyph unicode="&#x16e;" horiz-adv-x="1386" d="M164 655v844h151v-844q0 -186 23.5 -295.5t87 -154.5t115 -54.5t110.5 -9.5h68q145 0 180 14.5t65.5 32t49 43t39 64.5t32.5 90q25 113 25 270v844h154v-844q0 -190 -36 -322t-82 -197.5t-131 -100.5t-140.5 -40t-108.5 -5h-87t-61.5 1t-78 4t-77 12t-68.5 24.5t-65.5 41 t-54 60.5t-47 85t-32.5 114q-31 116 -31 323zM506 1841q0 88 61.5 149.5t147.5 61.5t146.5 -61.5t60.5 -149.5t-60.5 -148.5t-146.5 -60.5t-147.5 60.5t-61.5 148.5zM602 1842q0 -46 33 -78.5t80 -32.5t78.5 31.5t31.5 78.5t-32.5 80t-78.5 33t-79 -33t-33 -79z" />
<glyph unicode="&#x16f;" horiz-adv-x="1114" d="M102 330v757h152v-757q0 -96 51 -146.5t131 -50.5t149.5 16.5t111.5 34t143 66.5v837h151v-1087h-106l-45 127q-6 -2 -45 -25.5t-48.5 -27.5t-44 -23.5t-49 -23.5t-47.5 -16.5t-53 -16.5q-66 -12 -115 -12q-156 0 -246 102.5t-90 245.5zM340 1436.5q0 50.5 27.5 98.5 t76 76.5t104.5 28.5t104 -28.5t75 -76.5t27 -105.5t-27 -105.5t-75 -75.5t-97 -27.5t-88 16t-66.5 44t-44 66.5t-16.5 89zM434 1429.5q0 -45.5 34 -78t80 -32.5t78.5 32.5t32.5 79t-32.5 79t-78.5 32.5t-80 -33.5t-34 -79z" />
<glyph unicode="&#x170;" horiz-adv-x="1386" d="M164 655v844h151v-844q0 -186 23.5 -295.5t87 -154.5t115 -54.5t110.5 -9.5h68q145 0 180 14.5t65.5 32t49 43t39 64.5t32.5 90q25 113 25 270v844h154v-844q0 -190 -36 -322t-82 -197.5t-131 -100.5t-140.5 -40t-108.5 -5h-87t-61.5 1t-78 4t-77 12t-68.5 24.5t-65.5 41 t-54 60.5t-47 85t-32.5 114q-31 116 -31 323zM504 1632l221 273h193l-271 -273h-143zM782 1632l217 273h197l-274 -273h-140z" />
<glyph unicode="&#x171;" horiz-adv-x="1114" d="M102 330v757h152v-757q0 -96 51 -146.5t131 -50.5t149.5 16.5t111.5 34t143 66.5v837h151v-1087h-106l-45 127q-6 -2 -45 -25.5t-48.5 -27.5t-44 -23.5t-49 -23.5t-47.5 -16.5t-53 -16.5q-66 -12 -115 -12q-156 0 -246 102.5t-90 245.5zM338 1221l219 272h195l-273 -272 h-141zM614 1221l220 272h194l-272 -272h-142z" />
<glyph unicode="&#x172;" horiz-adv-x="1386" d="M164 655v844h151v-844q0 -186 23.5 -295.5t87 -154.5t115 -54.5t110.5 -9.5h68q145 0 180 14.5t65.5 32t49 43t39 64.5t32.5 90q25 113 25 270v844h154v-844q0 -190 -36 -322t-82 -197.5t-131 -100.5t-140.5 -40t-108.5 -5h-87t-61.5 1t-78 4t-77 12t-68.5 24.5t-65.5 41 t-54 60.5t-47 85t-32.5 114q-31 116 -31 323zM495.5 -197.5q0.5 50.5 42.5 101.5t130 88h80q-123 -98 -123 -170q0 -25 24.5 -50.5t104.5 -27.5v-123q-20 -4 -53 -4t-85.5 19.5t-83.5 64.5q-37 51 -36.5 101.5z" />
<glyph unicode="&#x173;" horiz-adv-x="1114" d="M102 330v757h152v-757q0 -96 51 -146.5t131 -50.5t149.5 16.5t111.5 34t143 66.5v837h151v-1087h-106l-45 127q-6 -2 -45 -25.5t-48.5 -27.5t-44 -23.5t-49 -23.5t-47.5 -16.5t-53 -16.5q-66 -12 -115 -12q-156 0 -246 102.5t-90 245.5zM727 -189.5q0 50.5 42 101.5 t130 88h80q-123 -100 -123 -170q0 -74 129 -78v-123q-20 -2 -53 -2t-85 18.5t-83 63.5q-37 51 -37 101.5z" />
<glyph unicode="&#x174;" horiz-adv-x="1970" d="M92 1499h166l436 -1235l371 1235h172l-139 -479l272 -768l383 1247h166l-469 -1499h-152l-280 766l-248 -766h-152zM727 1622l240 266h145l213 -266h-145l-146 145l-160 -145h-147z" />
<glyph unicode="&#x175;" horiz-adv-x="1640" d="M41 1087h166l321 -864l283 864h164l-111 -348l238 -516l332 864h165l-415 -1087h-152l-241 532l-179 -532h-163zM532 1210l240 267h146l212 -267h-145l-145 146l-160 -146h-148z" />
<glyph unicode="&#x176;" horiz-adv-x="1290" d="M92 1499h166l387 -786l428 786h166l-518 -967v-532h-152v532zM346 1622l240 266h145l213 -266h-145l-146 145l-159 -145h-148z" />
<glyph unicode="&#x177;" d="M43 1087h166l264 -849q14 -41 27.5 -53.5t24 -19.5t20.5 -9t19 -3t18 -1q18 4 26 6l312 929h170l-480 -1431l-153 -209h-95l193 553q-176 0 -246 225zM268 1221l240 266h145l213 -266h-145l-146 145l-159 -145h-148z" />
<glyph unicode="&#x178;" horiz-adv-x="1290" d="M92 1499h166l387 -786l428 786h166l-518 -967v-532h-152v532zM301 1737q0 43 30.5 72.5t74 29.5t73 -29.5t29.5 -72.5t-29.5 -74t-73 -31t-74 31t-30.5 74zM823 1737q0 43 31 72.5t74 29.5t72.5 -29.5t29.5 -72.5t-29.5 -74t-72.5 -31t-74 31t-31 74z" />
<glyph unicode="&#x179;" horiz-adv-x="1153" d="M72 0v152l811 1196h-811v151h1009v-151l-811 -1196h811v-152h-1009zM506 1632l219 273h195l-273 -273h-141z" />
<glyph unicode="&#x17a;" horiz-adv-x="933" d="M61 936v151h811v-151l-581 -782h581v-152h-780v152l592 782h-623zM397 1221l217 272h197l-274 -272h-140z" />
<glyph unicode="&#x17b;" horiz-adv-x="1153" d="M72 0v152l811 1196h-811v151h1009v-151l-811 -1196h811v-152h-1009zM477 1679v111q0 51 49 51h103q47 0 47 -51v-111q0 -47 -47 -47h-103q-49 0 -49 47z" />
<glyph unicode="&#x17c;" horiz-adv-x="933" d="M61 936v151h811v-151l-581 -782h581v-152h-780v152l592 782h-623zM369 1268v110q0 51 49 52h102q20 0 32.5 -14.5t12.5 -37.5v-110q0 -47 -45 -47h-102q-23 0 -36 13.5t-13 33.5z" />
<glyph unicode="&#x17d;" horiz-adv-x="1153" d="M72 0v152l811 1196h-811v151h1009v-151l-811 -1196h811v-152h-1009zM279 1898h147l164 -145l139 145h148l-213 -266h-148z" />
<glyph unicode="&#x17e;" horiz-adv-x="933" d="M61 936v151h811v-151l-581 -782h581v-152h-780v152l592 782h-623zM168 1487h147l164 -146l142 146h145l-213 -266h-145z" />
<glyph unicode="&#x192;" horiz-adv-x="1212" d="M41 -367l14 101h185q104 0 153 149q41 123 68 297l98 633h-209l27 154h209l10 69q68 444 227 557q68 45 154 45q76 0 113 -16l81 -35l-14 -100h-180q-100 0 -154 -154q-41 -119 -69 -297l-11 -71h289l-26 -152h-289l-99 -633q-45 -309 -106 -422q-68 -121 -156 -155 q-51 -20 -109.5 -20.5t-124 20t-81.5 30.5z" />
<glyph unicode="&#x2c6;" horiz-adv-x="802" d="M102 1087l240 267h145l213 -267h-145l-145 146l-160 -146h-148z" />
<glyph unicode="&#x2da;" horiz-adv-x="620" d="M102 1294q0 88 61.5 149.5t147.5 61.5t146.5 -61.5t60.5 -149.5t-60.5 -148.5t-146.5 -60.5t-147.5 60.5t-61.5 148.5zM199 1294q0 -45 32.5 -77.5t78.5 -32.5t79 32.5t33 78.5t-33 79t-78 33t-78.5 -34t-33.5 -79z" />
<glyph unicode="&#x2dc;" horiz-adv-x="897" d="M102 1171q55 45 83 67t74 43.5t94 19t117 -36t76 -33.5h19q47 0 185 74l45 -86q-6 -4 -50 -39q-111 -90 -178 -90q-61 0 -126.5 34.5t-103.5 34.5t-67.5 -11t-63.5 -30.5t-61 -30.5z" />
<glyph unicode="&#x3a9;" horiz-adv-x="1595" d="M133 741v101q0 55 17.5 149t63.5 191.5t117.5 169t192.5 116.5t289 45t300 -60t204 -167q135 -199 135 -502q0 -111 -6 -179t-29 -156q-43 -166 -217 -291l262 -21v-137h-467v160q242 162 283 346q23 111 22.5 257t-22 241.5t-74.5 179.5q-111 178 -405 178 q-514 0 -514 -584q0 -121 6 -181t35.5 -137t93 -144.5t176.5 -155.5v-160h-451v139l273 21q-143 92 -201 192q-31 53 -49 96.5t-25 108.5q-10 82 -10 184z" />
<glyph unicode="&#x3c0;" horiz-adv-x="1308" d="M41 936v151h1126v-151h-264v-596q0 -111 34 -154t107 -43h222v-90q-94 -63 -229.5 -63t-210 78.5t-74.5 271.5v596h-383v-936h-152v936h-176z" />
<glyph unicode="&#x1e02;" horiz-adv-x="1220" d="M164 0v1499h577q203 0 296 -118.5t93 -270.5q0 -272 -188 -332q78 -18 137.5 -109t59.5 -251q0 -172 -80 -287q-92 -131 -318 -131h-577zM317 152h424q246 0 246 270q0 123 -61.5 205t-184.5 82h-424v-557zM317 860h424q238 0 238 244t-238 244h-424v-488zM526 1671v111 q0 51 49 51h103q47 0 47 -51v-111q0 -47 -47 -47h-103q-49 0 -49 47z" />
<glyph unicode="&#x1e03;" d="M102 1796v111q0 51 50 51h102q47 0 47 -51v-111q0 -47 -47 -47h-102q-50 0 -50 47zM123 0v1608h147v-586q92 37 210 59.5t211 22.5t168 -47t112 -135q61 -152 61 -383q0 -211 -67 -367q-37 -86 -111 -135t-174 -49t-228 48t-180 85l-41 -121h-108zM272 233 q232 -94 402 -94q207 0 207 400q0 238 -50.5 325.5t-156.5 87.5q-197 0 -402 -53v-666z" />
<glyph unicode="&#x1e0a;" horiz-adv-x="1345" d="M164 0v1499h557q133 0 232.5 -50t154.5 -126t90 -182q55 -170 55 -398q0 -223 -73 -407q-86 -209 -252 -291q-92 -45 -207 -45h-557zM315 158h406q129 0 217 84q164 154 164 487.5t-97.5 476t-283.5 142.5h-406v-1190zM553 1690v110q0 51 49 51h103q47 0 47 -51v-110 q0 -47 -47 -48h-103q-49 1 -49 48z" />
<glyph unicode="&#x1e0b;" d="M102 545.5q0 111.5 13.5 201t48.5 175.5q76 182 297 182q76 0 192.5 -22.5t208.5 -59.5v586h150v-1608h-109l-41 121q-51 -37 -179 -85t-228.5 -48t-174 49t-110.5 134t-52.5 174t-15.5 200.5zM254 539q0 -399 207 -400q170 0 401 94v666q-205 53 -401 53 q-106 0 -156.5 -87.5t-50.5 -325.5zM831 1780v110q0 51 50 52h102q47 0 47 -52v-110q0 -47 -47 -47h-102q-50 0 -50 47z" />
<glyph unicode="&#x1e1e;" horiz-adv-x="1161" d="M164 0v1233q0 141 70.5 203.5t175.5 62.5h12l647 -33v-118h-647q-49 0 -74.5 -19.5t-29 -39t-3.5 -56.5v-410l672 -20v-121l-672 -20v-662h-151zM549 1671v111q0 51 49 51h102q47 0 48 -51v-111q0 -47 -48 -47h-102q-49 0 -49 47z" />
<glyph unicode="&#x1e1f;" horiz-adv-x="819" d="M41 936v117l199 34v203q0 166 57 242q25 31 75 54.5t148 23.5t258 -49v-101l-252 2q-94 0 -116 -49q-18 -43 -19 -123v-203h303v-151h-303v-936h-151v936h-199zM428 1823v110q0 51 49 52h103q47 0 47 -52v-110q0 -47 -47 -47h-103q-49 0 -49 47z" />
<glyph unicode="&#x1e40;" horiz-adv-x="1640" d="M113 0l98 1499h209l399 -1247l387 1247h207l115 -1499h-152l-92 1225l-385 -1225h-156l-397 1225l-82 -1225h-151zM713 1679v111q0 51 49 51h102q47 0 47 -51v-111q0 -47 -47 -47h-102q-49 0 -49 47z" />
<glyph unicode="&#x1e41;" horiz-adv-x="1839" d="M123 0v1087h106l45 -131q12 8 50 30t53.5 31t49.5 25.5t56 22.5l52 18q49 16 139 16.5t172 -42.5t117 -117q193 160 438 160q143 0 239.5 -98.5t96.5 -251.5v-750h-152v750q0 90 -52 144t-132 54q-123 0 -212 -24.5t-190 -89.5v-834h-151v750q0 90 -52.5 144t-131 54 t-145 -16.5t-103.5 -31.5t-142 -66v-834h-151zM932 1270v110q0 51 49 52h102q47 0 47 -52v-110q0 -47 -47 -47h-102q-49 0 -49 47z" />
<glyph unicode="&#x1e56;" horiz-adv-x="1189" d="M123 0v1499h616q358 0 359 -434q0 -336 -168 -418q-53 -25 -94 -31t-98.5 -6t-256 18.5t-207.5 22.5v-651h-151zM274 762h465q98 0 151.5 59.5t53.5 243.5q-4 190 -80 242q-55 39 -125 39h-465v-584zM500 1694v110q0 51 49 51h102q47 0 47 -51v-110q0 -47 -47 -47h-102 q-49 0 -49 47z" />
<glyph unicode="&#x1e57;" d="M123 -553v1640h108l39 -120q51 37 180.5 85t229.5 48t174 -49.5t111 -132.5q68 -158 67 -369q0 -410 -172 -518q-76 -47 -169 -47t-211 22.5t-210 59.5v-619h-147zM270 188q205 -53 404 -53q106 0 156.5 88t50.5 326q0 399 -207 399q-172 0 -404 -94v-666zM512 1294v111 q0 51 49 51h103q47 0 47 -51v-111q0 -47 -47 -47h-103q-49 0 -49 47z" />
<glyph unicode="&#x1e60;" horiz-adv-x="1196" d="M133 1012v135q0 207 106.5 285.5t272.5 78.5t539 -49v-123l-512 21h-33q-104 0 -162.5 -37t-58.5 -176v-135q0 -127 50 -164t159 -37h290q319 0 320 -352v-140q0 -207 -133 -278q-111 -57 -281 -57q-72 0 -253 18t-259 33v123q225 -23 512 -23q262 0 262 184v140 q0 96 -36.5 148t-131.5 52h-286q-233 0 -305 113q-60 95 -60 240zM516 1702v110q0 51 49 52h103q47 0 47 -52v-110q0 -47 -47 -47h-103q-49 0 -49 47z" />
<glyph unicode="&#x1e61;" horiz-adv-x="1036" d="M82 733v94q0 133 65.5 202t238.5 69t513 -33v-117h-534q-94 0 -115 -35q-16 -27 -17 -86v-94q0 -82 39 -100q33 -16 93 -17h323q129 0 197.5 -72.5t68.5 -191.5v-100q0 -152 -73.5 -207t-192.5 -55q-190 0 -561 39v112h561q0 2 11.5 0t28.5 4.5t34 14.5q41 20 41 92v100 q0 57 -25.5 85t-89.5 28h-323q-150 0 -216.5 57t-66.5 211zM463 1292v111q0 51 49 51h102q47 0 48 -51v-111q0 -47 -48 -47h-102q-49 0 -49 47z" />
<glyph unicode="&#x1e6a;" horiz-adv-x="1183" d="M92 1348v151h1041v-151h-451v-1348h-152v1348h-438zM492 1679v111q0 51 49 51h102q23 0 36 -14.5t13 -36.5v-111q0 -47 -49 -47h-102q-20 0 -34.5 13.5t-14.5 33.5z" />
<glyph unicode="&#x1e6b;" horiz-adv-x="774" d="M41 938v115l203 37l37 303h114v-303h318v-152h-318v-549q0 -125 29 -173t88 -62q168 -43 182 -43v-109h-180q-270 0 -270 387v549h-203zM238 1565v110q0 51 49 51h102q47 0 47 -51v-110q0 -47 -47 -47h-102q-49 0 -49 47z" />
<glyph unicode="&#x1e80;" horiz-adv-x="1970" d="M92 1499h166l436 -1235l371 1235h172l-139 -479l272 -768l383 1247h166l-469 -1499h-152l-280 766l-248 -766h-152zM682 1894h195l219 -272h-142z" />
<glyph unicode="&#x1e81;" horiz-adv-x="1640" d="M41 1087h166l321 -864l283 864h164l-111 -348l238 -516l332 864h165l-415 -1087h-152l-241 532l-179 -532h-163zM487 1483h195l219 -273h-141z" />
<glyph unicode="&#x1e82;" horiz-adv-x="1970" d="M92 1499h166l436 -1235l371 1235h172l-139 -479l272 -768l383 1247h166l-469 -1499h-152l-280 766l-248 -766h-152zM956 1622l220 272h194l-272 -272h-142z" />
<glyph unicode="&#x1e83;" horiz-adv-x="1640" d="M41 1087h166l321 -864l283 864h164l-111 -348l238 -516l332 864h165l-415 -1087h-152l-241 532l-179 -532h-163zM762 1210l219 273h195l-273 -273h-141z" />
<glyph unicode="&#x1e84;" horiz-adv-x="1970" d="M92 1499h166l436 -1235l371 1235h172l-139 -479l272 -768l383 1247h166l-469 -1499h-152l-280 766l-248 -766h-152zM662 1726q0 43 30.5 73t73.5 30t72.5 -30t29.5 -73t-29.5 -73.5t-72.5 -30.5t-73.5 30.5t-30.5 73.5zM1184 1726q0 43 30.5 73t73.5 30t73 -30t30 -73 t-30 -73.5t-73 -30.5t-73.5 30.5t-30.5 73.5z" />
<glyph unicode="&#x1e85;" horiz-adv-x="1640" d="M41 1087h166l321 -864l283 864h164l-111 -348l238 -516l332 864h165l-415 -1087h-152l-241 532l-179 -532h-163zM467 1315q0 43 30.5 72.5t73.5 29.5t73 -29.5t30 -72.5t-30 -74t-73 -31t-73.5 31t-30.5 74zM989 1315q0 43 31 72.5t74 29.5t72.5 -29.5t29.5 -72.5 t-29.5 -74t-72.5 -31t-74 31t-31 74z" />
<glyph unicode="&#x1ef2;" horiz-adv-x="1290" d="M92 1499h166l387 -786l428 786h166l-518 -967v-532h-152v532zM324 1905h192l221 -273h-143z" />
<glyph unicode="&#x1ef3;" d="M43 1087h166l264 -849q14 -41 27.5 -53.5t24 -19.5t20.5 -9t19 -3t18 -1q18 4 26 6l312 929h170l-480 -1431l-153 -209h-95l193 553q-176 0 -246 225zM244 1493h194l219 -272h-141z" />
<glyph unicode="&#x2000;" horiz-adv-x="1026" />
<glyph unicode="&#x2001;" horiz-adv-x="2052" />
<glyph unicode="&#x2002;" horiz-adv-x="1026" />
<glyph unicode="&#x2003;" horiz-adv-x="2052" />
<glyph unicode="&#x2004;" horiz-adv-x="684" />
<glyph unicode="&#x2005;" horiz-adv-x="513" />
<glyph unicode="&#x2006;" horiz-adv-x="342" />
<glyph unicode="&#x2007;" horiz-adv-x="342" />
<glyph unicode="&#x2008;" horiz-adv-x="256" />
<glyph unicode="&#x2009;" horiz-adv-x="410" />
<glyph unicode="&#x200a;" horiz-adv-x="114" />
<glyph unicode="&#x2010;" horiz-adv-x="724" d="M41 518v152h643v-152h-643z" />
<glyph unicode="&#x2011;" horiz-adv-x="724" d="M41 518v152h643v-152h-643z" />
<glyph unicode="&#x2012;" horiz-adv-x="724" d="M41 518v152h643v-152h-643z" />
<glyph unicode="&#x2013;" horiz-adv-x="1050" d="M41 512v154h969v-154h-969z" />
<glyph unicode="&#x2014;" horiz-adv-x="1507" d="M41 516v154h1425v-154h-1425z" />
<glyph unicode="&#x2018;" horiz-adv-x="552" d="M164 1141v202q0 177 182 177q12 0 31 -4v-72h-4q-66 0 -66 -70v-57h25q57 0 57 -55v-121q0 -61 -57 -62h-115q-53 0 -53 62z" />
<glyph unicode="&#x2019;" horiz-adv-x="552" d="M164 1337v121q0 61 57 62h115q53 0 53 -62v-203q0 -59 -21.5 -99t-52.5 -54q-55 -25 -82.5 -25h-35.5l-21 4v72h4q66 0 66 72v55h-25q-57 0 -57 57z" />
<glyph unicode="&#x201a;" horiz-adv-x="552" d="M164 55v121q0 61 57 62h115q53 0 53 -62v-203q0 -59 -21.5 -100t-52.5 -53q-57 -25 -83.5 -25h-34.5l-21 4v72h4q66 0 66 72v55h-25q-57 0 -57 57z" />
<glyph unicode="&#x201c;" horiz-adv-x="856" d="M150 1141v202q0 177 182 177q12 0 30 -4v-72h-4q-66 0 -65 -70v-55h24q57 0 58 -57v-121q0 -61 -58 -62h-114q-53 0 -53 62zM481 1141v202q0 59 23 99q43 78 151 78h19l22 -4v-72h-4q-68 0 -67 -70v-55h26q55 0 56 -57v-121q0 -61 -56 -62h-114q-56 1 -56 62z" />
<glyph unicode="&#x201d;" horiz-adv-x="856" d="M150 1337v121q0 61 55 62h114q55 0 56 -62v-203q0 -59 -22.5 -99t-53.5 -54q-53 -25 -81 -25h-36l-22 4v72h4q66 0 65 72v55h-24q-55 0 -55 57zM481 1337v121q0 61 58 62h114q53 0 54 -62v-203q0 -59 -21.5 -99t-54.5 -54q-53 -25 -81 -25h-34l-22 4v72h4q66 0 65 72v55 h-24q-58 0 -58 57z" />
<glyph unicode="&#x201e;" horiz-adv-x="856" d="M150 55v121q0 61 55 62h114q55 0 56 -62v-203q0 -59 -22.5 -100t-53.5 -53q-55 -25 -82 -25h-35l-22 4v72h4q66 0 65 72v55h-24q-55 0 -55 57zM481 55v121q0 61 58 62h114q53 0 54 -62v-203q0 -59 -21.5 -100t-54.5 -53q-55 -25 -82 -25h-33l-22 4v72h4q66 0 65 72v55 h-24q-58 0 -58 57z" />
<glyph unicode="&#x2020;" horiz-adv-x="786" d="M41 1001v121l272 21l17 434h129l16 -434l270 -21v-121l-270 -20l-18 -1128h-129l-15 1128z" />
<glyph unicode="&#x2021;" horiz-adv-x="827" d="M41 356v121l274 21l-2 483l-272 20v121l272 21l19 434h127l16 -434l270 -21v-121l-270 -20l-6 -483l276 -21v-121l-280 -20l-8 -483h-129l-9 483z" />
<glyph unicode="&#x2022;" horiz-adv-x="638" d="M174 698v164q0 72 68 72h151q72 0 72 -72v-164q0 -66 -72 -65h-151q-68 -1 -68 65z" />
<glyph unicode="&#x2026;" horiz-adv-x="1671" d="M174 47v117q0 51 49 51h109q51 0 51 -51v-117q0 -47 -51 -47h-109q-49 0 -49 47zM731 47v117q0 51 49 51h109q51 0 51 -51v-117q0 -47 -51 -47h-109q-49 0 -49 47zM1288 47v117q0 51 49 51h109q51 0 51 -51v-117q0 -47 -51 -47h-109q-49 0 -49 47z" />
<glyph unicode="&#x202f;" horiz-adv-x="410" />
<glyph unicode="&#x2030;" horiz-adv-x="2828" d="M86 971v272q0 135 57.5 195.5t206.5 60.5h207q145 0 202.5 -60.5t57.5 -195.5v-272q0 -135 -57.5 -195.5t-206.5 -60.5h-207q-145 0 -202.5 60.5t-57.5 195.5zM219 971q0 -74 26.5 -98.5t100.5 -24.5h207q86 0 108.5 24.5t22.5 98.5v272q0 74 -26.5 98.5t-100.5 24.5 h-207q-84 0 -107.5 -24.5t-23.5 -98.5v-272zM465 0l897 1499h145l-897 -1499h-145zM1139 260v272q0 135 57 195.5t207 60.5h207q145 0 202.5 -60t57.5 -196v-272q0 -135 -57.5 -195.5t-206.5 -60.5h-207q-145 0 -202.5 60.5t-57.5 195.5zM1272 260q0 -74 26.5 -98.5 t100.5 -24.5h207q86 0 108.5 24.5t22.5 98.5v272q0 74 -27 98.5t-100 24.5h-207q-84 0 -107.5 -24.5t-23.5 -98.5v-272zM2011 260v272q0 135 57.5 195.5t206.5 60.5h207q145 0 202.5 -60t57.5 -196v-272q0 -135 -57 -195.5t-207 -60.5h-207q-145 0 -202.5 60.5t-57.5 195.5z M2144 260q0 -74 27 -98.5t100 -24.5h207q86 0 108.5 24.5t22.5 98.5v272q0 74 -26.5 98.5t-100.5 24.5h-207q-84 0 -107.5 -24.5t-23.5 -98.5v-272z" />
<glyph unicode="&#x2039;" horiz-adv-x="731" d="M102 725l422 416l107 -107l-318 -309l328 -319l-106 -107z" />
<glyph unicode="&#x203a;" horiz-adv-x="731" d="M102 406l328 319l-317 309l106 107l422 -416l-432 -426z" />
<glyph unicode="&#x2044;" horiz-adv-x="477" d="M-184 0l712 1499h134l-713 -1499h-133z" />
<glyph unicode="&#x205f;" horiz-adv-x="513" />
<glyph unicode="&#x20ac;" horiz-adv-x="1251" d="M41 522v96l180 15v207l-180 16v88l180 19v36.5t1 61.5t10.5 93.5t25.5 104t51 95t85 85t128 54.5t213 23t467 -62v-121q-334 31 -473 31t-207.5 -26.5t-99.5 -87t-40 -122t-9 -165.5l479 -15v-94l-479 -14v-207l479 -15v-96q-63 0 -272 -6t-207 -8q0 -369 327 -369 q197 0 426 25l84 10v-115q-252 -72 -510 -71q-127 0 -216 42t-140 95t-87 152.5t-36 230.5z" />
<glyph unicode="&#x2122;" horiz-adv-x="1417" d="M41 1368v131h530v-131h-198v-584h-131v584h-201zM651 784l56 715h129l190 -485l164 485h133l63 -715h-131l-34 414l-138 -414h-108l-162 416l-31 -416h-131z" />
<glyph unicode="&#x2202;" horiz-adv-x="1323" d="M117 465.5q0 232.5 137 359.5t393 127q205 0 354 -116q-16 303 -108 415.5t-292 112.5t-368 -104l-47 96q88 57 136 84q133 76 282 76q551 0 551 -723q0 -322 -123 -551q-63 -117 -167.5 -184.5t-239.5 -67.5q-217 0 -362.5 121.5t-145.5 354zM268 468q0 -155 101.5 -241 t251.5 -86q106 0 186 66.5t119 165.5q78 193 78 346q-147 82 -350 82t-294.5 -89t-91.5 -244z" />
<glyph unicode="&#x2206;" horiz-adv-x="1482" d="M41 0l637 1499h151l613 -1499h-1401zM272 152h947l-463 1146z" />
<glyph unicode="&#x220f;" horiz-adv-x="1318" d="M41 1348v151h1237v-151h-178v-1348h-152v1348h-579v-1348h-152v1348h-176z" />
<glyph unicode="&#x2211;" horiz-adv-x="1200" d="M82 -252l438 805l-438 795v151h1077v-151h-895l436 -795l-436 -805h895v-158h-1077v158z" />
<glyph unicode="&#x221a;" horiz-adv-x="1286" d="M41 582v151h272l267 -522l514 1427h151l-583 -1638h-140l-301 582h-180z" />
<glyph unicode="&#x221e;" horiz-adv-x="1609" d="M102 698q0 354 340 355q111 0 206 -59.5t157 -155.5q61 96 156.5 155.5t205.5 59.5q340 0 340 -355q0 -158 -78.5 -255t-261.5 -97q-240 0 -364 221q-125 -221 -361 -221q-182 0 -261 97t-79 255zM254 701.5q0 -99.5 40 -151.5t148 -52q162 0 297 200q-53 84 -135 143.5 t-162 59.5q-120 0 -154 -50t-34 -149.5zM870 698q135 -200 297 -200q188 0 189 200q0 102 -35 152.5t-134.5 50.5t-181 -59.5t-135.5 -143.5z" />
<glyph unicode="&#x222b;" horiz-adv-x="903" d="M41 -266h184q72 0 103 73q33 74 37 152q10 137 10 221v856q0 444 141 557q57 45 143 45t119 -13t55.5 -24.5t28.5 -13.5v-100h-180q-41 0 -70.5 -28.5t-45 -69.5t-25.5 -107q-14 -113 -15 -246v-856q0 -268 -47 -418q-53 -180 -231 -180q-131 0 -207 51v101z" />
<glyph unicode="&#x2248;" horiz-adv-x="1087" d="M102 512q61 49 90 70.5t89.5 48t122 26.5t152.5 -37.5t143.5 -37.5t86 10t78.5 33.5t76 36.5l45 -87q-18 -12 -59 -44.5t-66 -51.5q-72 -51 -144.5 -51t-163.5 39t-145.5 39t-93.5 -12.5t-86 -34t-82 -31.5zM102 874q61 49 90 71t89.5 48.5t122 26.5t152.5 -38t143.5 -38 t86 10.5t78.5 34t76 35.5l45 -86q-18 -12 -59 -45t-66 -51q-72 -51 -144.5 -51t-163.5 38.5t-145.5 38.5t-93.5 -12t-86 -33.5t-82 -31.5z" />
<glyph unicode="&#x2260;" horiz-adv-x="956" d="M41 434v162h301l156 256h-457v162h555l94 153h125l-94 -153h194v-162h-292l-156 -256h448v-162h-546l-107 -176h-125l107 176h-203z" />
<glyph unicode="&#x2264;" horiz-adv-x="972" d="M102 213v152h770v-152h-770zM102 807v164l768 332v-164l-565 -250l565 -271v-167z" />
<glyph unicode="&#x2265;" horiz-adv-x="972" d="M102 213v152h770v-152h-770zM104 451v167l566 271l-566 250v164l768 -332v-164z" />
<glyph unicode="&#x25fc;" horiz-adv-x="1085" d="M0 0v1085h1085v-1085h-1085z" />
</font>
</defs>
</svg>
