<?xml version="1.0" standalone="no"?>
<!DOCTYPE svg PUBLIC "-//W3C//DTD SVG 1.1//EN" "http://www.w3.org/Graphics/SVG/1.1/DTD/svg11.dtd" >
<svg xmlns="http://www.w3.org/2000/svg">
<metadata></metadata>
<defs>
<font id="exomedium" horiz-adv-x="1116" >
<font-face units-per-em="2048" ascent="1638" descent="-410" />
<missing-glyph horiz-adv-x="512" />
<glyph horiz-adv-x="0" />
<glyph unicode="&#xd;" horiz-adv-x="1912" />
<glyph unicode=" "  horiz-adv-x="512" />
<glyph unicode="&#x09;" horiz-adv-x="512" />
<glyph unicode="&#xa0;" horiz-adv-x="512" />
<glyph unicode="!" horiz-adv-x="552" d="M160 47v135q0 51 49 51h131q23 0 35 -14t12 -37v-135q0 -47 -47 -47h-131q-23 0 -36 13.5t-13 33.5zM168 1497h211l-19 -1096h-176z" />
<glyph unicode="&#x22;" horiz-adv-x="813" d="M162 1362v137h188v-137l-20 -275h-144zM465 1362v137h186v-137l-20 -275h-144z" />
<glyph unicode="#" horiz-adv-x="1425" d="M39 463l18 131h324l49 313h-321l20 131h324l75 461h131l-75 -461h315l74 461h131l-74 -461h361l-23 -131h-360l-50 -315h361l-21 -131h-362l-76 -461h-131l76 461l-318 2l-75 -463h-131l75 463h-317zM512 594l315 -2l50 315h-316z" />
<glyph unicode="$" horiz-adv-x="1173" d="M104 1008v133q4 211 117 293q100 74 275 77v177h135v-183q137 -8 383 -45v-147l-482 18h-41.5t-59.5 -5t-69 -23q-70 -39 -69 -168v-119q0 -184 201 -185h245q227 0 297 -165q33 -82 33 -199v-129q0 -213 -139 -293q-111 -61 -262 -61h-37v-168h-135v176q-205 18 -344 45 v143q12 0 193 -7t294 -7q242 0 242 170v123q0 88 -35 136t-125 48h-246q-248 0 -330 170q-41 84 -41 195z" />
<glyph unicode="%" horiz-adv-x="1957" d="M80 975v266q0 135 59.5 196.5t208.5 61.5h207q145 0 203.5 -61.5t58.5 -196.5v-266q0 -137 -58.5 -198.5t-207.5 -61.5h-207q-147 0 -205.5 61.5t-58.5 198.5zM231 983q0 -70 26 -93.5t95 -23.5h191q80 0 101.5 24.5t21.5 92.5v248q0 70 -25 93.5t-94 23.5h-191 q-80 0 -102.5 -24t-22.5 -93v-248zM455 0l901 1499h162l-900 -1499h-163zM1143 264v266q0 133 55 195q59 63 211 63h207q147 0 205.5 -61t58.5 -197v-266q0 -137 -58.5 -198.5t-209.5 -61.5h-207q-145 0 -203.5 62.5t-58.5 197.5zM1294 272q0 -68 24.5 -92t94.5 -24h191 q80 0 102.5 24.5t22.5 91.5v248q0 70 -26 93.5t-95 23.5h-191q-78 0 -100.5 -23.5t-22.5 -93.5v-248z" />
<glyph unicode="&#x26;" horiz-adv-x="1327" d="M63 418q0 190 168 334l166 141l-123 168q-66 92 -65 190q0 119 106 199q51 39 114.5 47t139.5 8q186 0 406 -51v-131h-393q-170 0 -170 -86q0 -55 69 -152l443 -602l239 242l62 -70l-111 -219l-82 -92l250 -344h-221l-162 219l-145 -133q-104 -96 -258 -96 q-80 0 -176.5 38t-176.5 150.5t-80 239.5zM245.5 445.5q0.5 -89.5 51.5 -156t103.5 -93t84 -26.5t41.5 2q66 4 115 51l147 139l-288 386l-146 -123q-109 -90 -108.5 -179.5z" />
<glyph unicode="'" horiz-adv-x="399" d="M104 1362v137h191v-137l-21 -275h-147z" />
<glyph unicode="(" horiz-adv-x="708" d="M143 656.5q0 177.5 35 350.5t84 302q100 268 182 397l35 55h193q-47 -74 -111.5 -209t-109.5 -258t-82 -296t-37 -315t18.5 -271t49 -233.5t66.5 -202t73 -171.5q76 -150 114 -206l19 -29h-193q-47 59 -111.5 181t-108.5 241t-80 303t-36 361.5z" />
<glyph unicode=")" horiz-adv-x="708" d="M39 -430q47 66 111.5 195t109.5 249.5t82 300t37 391.5t-85 485t-171 423l-84 147h192q47 -70 111 -202t108 -253.5t80.5 -296.5t36.5 -352.5t-34.5 -359.5t-83.5 -307q-102 -260 -183 -373l-35 -47h-192z" />
<glyph unicode="*" horiz-adv-x="892" d="M96 1159v90l285 58l10 -158zM229 850l50 276l153 -36l-119 -269zM354 1470l88 35l150 -245l-146 -64zM416 969l88 133l225 -187l-49 -71zM508 1169l246 158l45 -80l-189 -198z" />
<glyph unicode="+" horiz-adv-x="1038" d="M94 641v176h336v338h176v-338h340v-176h-340v-338h-176v338h-336z" />
<glyph unicode="," horiz-adv-x="546" d="M162 51v129q0 55 51 56h123q49 0 49 -56v-203q0 -162 -168 -161h-22l-23 4v74q29 0 45 12q18 14 19 49v45h-23q-23 0 -37 13.5t-14 37.5z" />
<glyph unicode="-" horiz-adv-x="724" d="M41 506v176h643v-176h-643z" />
<glyph unicode="." horiz-adv-x="550" d="M162 47v135q0 51 49 51h127q51 0 51 -51v-135q0 -47 -51 -47h-127q-20 0 -34.5 13.5t-14.5 33.5z" />
<glyph unicode="/" horiz-adv-x="849" d="M39 -147l575 1724h199l-575 -1724h-199z" />
<glyph unicode="0" horiz-adv-x="1308" d="M133 340v815q0 166 100.5 255t260.5 89h335q262 0 328 -211q18 -59 19 -129v-819q0 -174 -91.5 -257t-257.5 -83h-335q-160 0 -259.5 83t-99.5 257zM322 354q0 -92 54 -132t134 -40h299q178 0 178 170v795q0 170 -176 170h-303q-96 0 -141 -49t-45 -121v-793z" />
<glyph unicode="1" horiz-adv-x="745" d="M76 1196v131l330 172h188v-1499h-188v1296z" />
<glyph unicode="2" horiz-adv-x="1216" d="M76 1335v140q317 45 622 45q250 0 361 -191q63 -106 63 -231t-59 -249t-138 -220.5t-186 -196.5q-154 -143 -303 -250h686v-182h-1032v170q199 133 356.5 267t253 232.5t164 212t68.5 215t-63.5 170t-196.5 68.5h-596z" />
<glyph unicode="3" horiz-adv-x="1210" d="M57 1321v125q166 59 441 59q100 0 215 -2q164 -2 259 -97t95 -247v-133q0 -225 -139 -281q139 -80 139 -299v-110q0 -350 -369 -350h-120h-37.5t-67.5 1t-75.5 2t-66.5 4t-72 7t-62 10q-61 10 -127 33l2 127h585q166 0 201 82q18 37 19 94v107q0 193 -207 198l-473 17 v147l473 21q211 10 211 188v123q0 61 -33 102q-55 72 -178 72h-613z" />
<glyph unicode="4" horiz-adv-x="1243" d="M39 459l623 1040h217l-560 -942h525v404l71 153h117v-557h174v-147l-174 -41v-365h-188v365h-735z" />
<glyph unicode="5" horiz-adv-x="1230" d="M145 41v143h611q94 0 134 52.5t40 125.5v201q0 68 -10.5 91.5t-22.5 40t-31 26.5q-41 23 -106 22h-283q-66 0 -110.5 -35.5t-44.5 -107.5h-172l45 899h876v-182h-700l-23 -453q61 63 252 64q55 0 111.5 -2t107.5 -3t116.5 -28t104.5 -74q78 -92 78 -248v-227 q0 -100 -33.5 -173t-89.5 -110q-104 -72 -223 -71q-209 0 -320.5 8t-306.5 41z" />
<glyph unicode="6" horiz-adv-x="1267" d="M125 789.5q0 191.5 29.5 337t83.5 225.5q100 156 239 157q43 2 84 2q270 0 543 -41v-141h-569q-90 0 -140 -90q-49 -88 -61 -170q-18 -131 -21 -225q295 41 504 41q188 0 275 -94q61 -70 61 -222v-258q0 -313 -338 -313h-303q-72 0 -127 20.5t-106.5 72.5t-84 139 t-51 227.5t-18.5 332zM313 707q0 -236 33 -338q39 -127 100 -164q39 -25 91 -25h264q78 0 110 21q55 37 56 135v223q0 84 -44 116t-120 32h-490z" />
<glyph unicode="7" horiz-adv-x="1122" d="M57 1317v182h947l61 -106l-530 -1393h-218l510 1317h-770z" />
<glyph unicode="8" horiz-adv-x="1292" d="M143 324v186q0 172 170 223q-63 23 -102 72q-68 84 -68 217v133q0 195 96.5 274.5t270.5 79.5h303q170 0 254 -84t84 -270v-127q2 -53 -16 -108q-37 -109 -138 -129q39 -8 71 -39t50 -72q33 -84 33 -162v-192q0 -219 -160 -291q-80 -35 -180 -35h-301q-102 0 -175 26.5 t-109 60.5t-56 85q-27 68 -27 152zM332 328q0 -147 192 -148h269q72 0 121 38t49 110v194q0 76 -47.5 116t-116.5 40h-295q-76 0 -124 -37t-48 -119v-194zM332 1012q0 -59 30 -99q49 -61 142 -61h293q166 0 166 160v127q0 104 -41 148t-127 44h-271q-102 0 -147 -37 t-45 -155v-127z" />
<glyph unicode="9" horiz-adv-x="1267" d="M115 940v256q0 313 340 313h301q72 0 128 -19.5t106 -72.5t83 -139q72 -188 72 -557q0 -539 -225 -682q-59 -39 -125 -41t-125 -2q-309 0 -506 41v141h571q53 0 93 36t63.5 87t38.5 121q23 111 26 244q-295 -43 -450.5 -43t-225 24.5t-104.5 71.5q-61 84 -61 221z M301 948q0 -82 44 -114.5t122 -32.5h489q0 383 -110 483q-47 43 -113 43h-266q-78 0 -111 -20q-55 -37 -55 -136v-223z" />
<glyph unicode=":" horiz-adv-x="550" d="M162 47v135q0 51 49 51h127q51 0 51 -51v-135q0 -47 -51 -47h-127q-20 0 -34.5 13.5t-14.5 33.5zM162 903v135q0 51 49 52h127q51 0 51 -52v-135q0 -47 -51 -47h-127q-29 0 -39 16.5t-10 30.5z" />
<glyph unicode=";" horiz-adv-x="555" d="M162 51v129q0 33 18.5 44.5t32.5 11.5h123q49 0 49 -56v-203q0 -162 -168 -161h-22l-23 4v74q29 0 45 12q18 14 19 49v45h-23q-20 0 -35.5 15.5t-15.5 35.5zM166 905v135q0 51 49 52h127q51 0 51 -52v-135q0 -47 -51 -47h-127q-29 0 -39 16.5t-10 30.5z" />
<glyph unicode="&#x3c;" horiz-adv-x="958" d="M96 629v190l768 324v-193l-538 -225l538 -246v-196z" />
<glyph unicode="=" horiz-adv-x="956" d="M41 418v176h874v-176h-874zM41 850v176h874v-176h-874z" />
<glyph unicode="&#x3e;" horiz-adv-x="958" d="M96 283v196l537 246l-537 225v193l768 -324v-190z" />
<glyph unicode="?" horiz-adv-x="1107" d="M39 1329v139q12 2 63.5 10.5t64.5 10.5t57 7t62.5 7t57.5 6t64.5 4t55.5 1.5t60.5 1.5t117.5 -1.5t170 -33t130 -86.5q90 -106 90 -267v-192q0 -199 -131 -283q-98 -61 -246 -61q-51 0 -110 8v-201h-176v351h276q117 4 170 81q31 43 31 107v180q0 113 -62.5 162 t-201.5 49h-543zM344 47v135q0 51 49 51h129q49 0 49 -51v-135q0 -47 -49 -47h-129q-23 0 -36 13.5t-13 33.5z" />
<glyph unicode="@" horiz-adv-x="1740" d="M125 6v688q0 168 88 260q37 39 108.5 67t167.5 28h429q127 0 219 -58q106 -66 106 -237v-754h-133l-33 127l-19 -15q-20 -14 -53.5 -35.5t-74.5 -43.5q-100 -51 -203 -51h-8q-111 0 -183.5 70.5t-70.5 176.5v103q0 129 70.5 202.5t201.5 73.5h336q2 68 2 102.5t-2 34.5 q0 76 -38 104t-122 28h-424q-141 0 -176 -89q-16 -39 -16 -96v-680q0 -213 192 -213h707q156 0 193 95q18 45 18 118v1018q0 115 -57.5 175.5t-153.5 60.5h-827v116q266 55 571 56h27h229q174 -2 278.5 -104.5t104.5 -303.5v-1018q0 -389 -381 -389h-709q-166 0 -265 97.5 t-99 285.5zM639 290q0 -40 2 -40q0 -35 34 -65.5t79 -30.5h4h4q125 0 311 104v229l-319 -30q-55 -6 -85 -40t-28 -85q-2 -2 -2 -42z" />
<glyph unicode="A" horiz-adv-x="1384" d="M86 0l539 1499h198l516 -1499h-215l-123 395h-567l-129 -395h-219zM494 573h450l-221 656z" />
<glyph unicode="B" horiz-adv-x="1224" d="M154 0v1499h587q109 0 190 -34.5t124 -94.5q86 -115 86 -264q0 -274 -195 -328q84 -18 145.5 -109t61.5 -245q0 -182 -86 -297q-94 -127 -324 -127h-589zM344 180h395q225 0 226 250q0 115 -56.5 190.5t-169.5 75.5h-395v-516zM344 872h393q104 0 159.5 57.5t55.5 170.5 q0 174 -139 211q-35 8 -76 8h-393v-447z" />
<glyph unicode="C" horiz-adv-x="1179" d="M104 741q0 164 13.5 276.5t47.5 210t89 158.5q121 129 354 130q102 0 249 -16.5t257 -39.5v-149l-11 1t-29.5 2t-44 3t-56.5 3t-65 3t-70.5 4t-73.5 4q-76 2 -155 2t-138 -22.5t-101 -87t-59.5 -178t-17.5 -241.5t5 -191.5t16.5 -124t27.5 -108.5t43 -88t61 -67 q72 -55 175 -55q197 0 419 10l74 4v-149q-102 -20 -246.5 -33.5t-200 -13.5h-59.5q-279 0 -395 215q-109 200 -109 538z" />
<glyph unicode="D" horiz-adv-x="1347" d="M154 0v1499h577q131 0 229.5 -49t153.5 -123t90 -178q57 -174 58 -406q0 -381 -177 -587q-59 -72 -150 -114t-204 -42h-577zM342 184h383q121 0 201 78q147 141 147 467t-88 458t-260 132h-383v-1135z" />
<glyph unicode="E" horiz-adv-x="1161" d="M152 264v957q0 152 76.5 215t185.5 63q6 0 317 -14.5t348 -18.5v-151h-633q-76 0 -94 -37q-12 -29 -12 -78v-360l653 -23v-151l-653 -21v-360q2 -78 43 -95q33 -12 84 -12h612v-149l-630 -35h-33q-264 0 -264 270z" />
<glyph unicode="F" horiz-adv-x="1161" d="M152 0v1219q0 150 76.5 215t185.5 65q6 0 317 -14.5t348 -18.5v-151h-633q-76 0 -94 -37q-12 -29 -12 -78v-360l653 -23v-151l-653 -21v-645h-188z" />
<glyph unicode="G" horiz-adv-x="1257" d="M104 754v11q0 132 12 233q11 104 41.5 205.5t84.5 166.5q115 145 346 146q106 0 259.5 -16.5t274.5 -41.5v-149q-2 0 -36.5 3t-90 7t-118.5 8q-154 10 -251.5 10t-151.5 -23.5t-90 -66.5t-54 -117q-37 -129 -37 -417.5t67 -413.5q70 -127 252 -127q66 0 154 22.5 t143 47.5l56 24v371h-308v125q160 51 357 51q66 0 139 -6v-807h-139l-45 100q-170 -110 -385 -110h-4q-227 0 -342 141q-98 123 -123 379q-10 104 -11 244z" />
<glyph unicode="H" horiz-adv-x="1304" d="M154 0v1499h188v-684h662v684h188v-1499h-188v635h-662v-635h-188z" />
<glyph unicode="I" horiz-adv-x="454" d="M154 0v1499h188v-1499h-188z" />
<glyph unicode="J" horiz-adv-x="733" d="M68 45l6 141q6 -2 29.5 -6t42 -8t51 -8t52 -3t48.5 4t44 12t34.5 24.5t30.5 40.5q24 53 24 125v6v1126h188v-1161q0 -66 -4 -110t-29.5 -102t-72.5 -89q-78 -49 -218 -49t-226 57z" />
<glyph unicode="K" horiz-adv-x="1230" d="M154 0v1499h184v-659h156l446 659h225l-501 -747l501 -752h-225l-446 659h-154v-659h-186z" />
<glyph unicode="L" horiz-adv-x="1130" d="M154 266v1233h188v-1210q0 -78 43 -94q31 -12 84 -13h596v-182h-625q-209 0 -264 129q-22 55 -22 137z" />
<glyph unicode="M" horiz-adv-x="1665" d="M104 0l109 1499h260l358 -1186l351 1186h258l123 -1499h-189l-94 1163l-346 -1163h-201l-356 1163l-84 -1163h-189z" />
<glyph unicode="N" horiz-adv-x="1390" d="M154 0v1499h192l744 -1149v1149h188v-1499h-188l-746 1147v-1147h-190z" />
<glyph unicode="O" horiz-adv-x="1380" d="M125 770q0 174 29.5 318.5t75.5 225.5t128 126t159 57t178.5 12t162 -6t125 -24.5t108.5 -51t86 -90t66 -137.5q53 -178 53 -461q0 -332 -71 -487q-35 -82 -81 -134t-118 -79q-121 -47 -313 -47q-281 0 -387 80q-109 80 -150 221q-51 172 -51 477zM313 728 q0 -97 6.5 -176t18.5 -140.5t35.5 -102.5t52.5 -68.5t74 -41.5q80 -25 185.5 -25t159.5 8t101 32t76 62.5t49 102.5q37 115 37 360q0 182 -13.5 259t-22.5 120t-27.5 75t-35 54.5t-45 37.5t-50 23.5t-60.5 12.5q-57 6 -122.5 6t-93.5 -1t-67 -5t-60.5 -12.5t-50 -22.5 t-45 -36.5t-36 -54.5t-29.5 -75t-20.5 -98t-13.5 -126t-3 -168z" />
<glyph unicode="P" horiz-adv-x="1200" d="M119 0v1499h622q375 0 375 -442q0 -387 -231 -447q-57 -16 -96 -16t-72 1t-217.5 18.5t-192.5 21.5v-635h-188zM307 774h428q84 0 133 47q57 57 58 236q-2 172 -70 223q-53 39 -121 39h-428v-545z" />
<glyph unicode="Q" horiz-adv-x="1380" d="M125 749.5q0 137.5 14.5 253t39 196.5t66.5 138.5t86 90t109 51.5q102 31 225 31h3q125 -1 185 -7t125.5 -24.5t110 -51t87.5 -90t67 -137.5q53 -178 53 -461q0 -332 -71 -487q-37 -82 -83 -134t-118 -79q-123 -47 -315 -47q-248 0 -349 57q-104 59 -149 154 q-59 131 -72.5 270t-13.5 276.5zM313 728q0 -97 6.5 -176t18.5 -140.5t34.5 -102.5t51.5 -68.5t74 -41.5q78 -25 191.5 -25t176 13.5t112.5 47t75 99.5q55 131 55 353t-18.5 334t-44 173t-84 91t-107.5 36t-120.5 6t-99.5 -1t-66 -5t-59.5 -12.5t-50 -22.5t-45 -36.5 t-36 -54.5t-28.5 -75t-19.5 -98t-13.5 -126t-3 -168zM639 -68h123q85 -75 191 -75h3q59 0 146 30v-182q-47 -18 -84 -18t-83 3t-114.5 26.5t-120 81t-61.5 134.5z" />
<glyph unicode="R" horiz-adv-x="1220" d="M119 0v1499h643q362 0 362 -455q0 -145 -23.5 -207.5t-40 -95t-40 -54t-40.5 -35t-44 -23.5q-35 -12 -66 -19l308 -610h-207l-297 600l-367 29v-629h-188zM307 788h447q113 0 145 60q35 63 35 172.5t-14.5 167t-42.5 84.5q-47 47 -123 47h-447v-531z" />
<glyph unicode="S" horiz-adv-x="1198" d="M125 1008v133q0 215 117 297q57 39 126.5 56t118 17h97.5t223 -18t254 -33v-151q-86 6 -283 12q-219 8 -259 8t-70.5 -3t-67.5 -21q-68 -35 -68 -170v-119q0 -117 46.5 -151t150.5 -34h274q330 0 330 -364v-129q0 -244 -182 -318q-91 -37 -211 -37q-2 1 -3 1 q-122 0 -292 17t-256 36v151q220 -23 380 -22h7q162 0 186.5 2t61.5 11t61 26q59 43 60 131v123q0 88 -35 136t-125 48h-270q-266 0 -338 168q-33 80 -33 197z" />
<glyph unicode="T" horiz-adv-x="1191" d="M84 1317v182h1059v-182h-441v-1317h-188v1317h-430z" />
<glyph unicode="U" horiz-adv-x="1378" d="M154 655v844h188v-844q0 -152 13.5 -215t22.5 -99t27.5 -61.5t34 -44t43 -30.5t48 -18.5t55.5 -10.5q53 -4 115.5 -4t96 2t74.5 13.5t68 30t55.5 54t42.5 86.5q37 115 37 297v844h191v-844q0 -401 -142 -538q-49 -49 -88 -74t-106 -37q-86 -16 -215 -16h-29 q-242 0 -319 51q-37 25 -84 73t-72 117q-57 172 -57 424z" />
<glyph unicode="V" horiz-adv-x="1380" d="M86 1499h203l411 -1220l430 1220h203l-534 -1499h-201z" />
<glyph unicode="W" horiz-adv-x="1986" d="M86 1499h203l409 -1202l342 1202h209l-129 -455l262 -757l355 1212h202l-452 -1499h-201l-260 725l-227 -725h-201z" />
<glyph unicode="X" horiz-adv-x="1245" d="M86 1499h207l346 -596l352 596h207l-444 -741l434 -758h-207l-342 596l-340 -596h-207l432 758z" />
<glyph unicode="Y" horiz-adv-x="1304" d="M86 1499h205l362 -768l400 768h204l-512 -985v-514h-188v514z" />
<glyph unicode="Z" horiz-adv-x="1148" d="M68 0v182l776 1135h-776v182h1015v-182l-768 -1135h768v-182h-1015z" />
<glyph unicode="[" horiz-adv-x="663" d="M162 -61v1425q0 150 55 233q80 127 242 127h168v-176h-150q-90 0 -117 -112q-10 -37 -10 -82v-1413q0 -92 35 -143.5t92 -51.5h150v-176h-168q-74 0 -130.5 25.5t-87 63.5t-48.5 91q-31 85 -31 189z" />
<glyph unicode="\" horiz-adv-x="849" d="M39 1577h199l575 -1724h-199z" />
<glyph unicode="]" horiz-adv-x="663" d="M39 -254h147q59 0 93 51t34 144v1413q0 92 -33.5 143t-93.5 51h-147v176h166q123 0 190 -61q66 -61 82 -123q25 -98 25 -176v-1425q0 -182 -78 -279q-31 -39 -87 -64.5t-132 -25.5h-166v176z" />
<glyph unicode="^" horiz-adv-x="796" d="M96 1087l234 269h164l208 -269h-157l-137 140l-152 -140h-160z" />
<glyph unicode="_" horiz-adv-x="1380" d="M41 -2v176h1298v-176h-1298z" />
<glyph unicode="`" horiz-adv-x="495" d="M39 1364h209l211 -277h-154z" />
<glyph unicode="a" horiz-adv-x="1062" d="M76 264v119q0 125 74.5 202t209.5 77h314h104q2 59 2 88.5t-1 48t-8 45t-20.5 45t-33.5 29.5q-33 20 -87 20h-14q-168 0 -505 -23v127q209 66 528 66q201 0 283 -135q45 -76 45 -191v-782h-144l-45 127q-6 -6 -67.5 -38t-166 -66.5t-184.5 -34.5q-127 0 -205.5 75.5 t-78.5 200.5zM264 283q0 -123 117 -123q68 0 167 25.5t165 50.5l65 24v266l-401 -28q-113 -10 -113 -127v-88z" />
<glyph unicode="b" horiz-adv-x="1134" d="M115 0v1608h184v-584q88 37 198.5 58.5t180.5 21.5t122 -16.5t89 -44t64.5 -69.5t44 -88t26.5 -108q16 -100 16 -239q0 -551 -356 -551q-92 0 -211 45t-172 86l-43 -119h-143zM301 252q195 -88 363 -88q188 0 188 377q0 233 -49 315q-47 76 -139 76q-184 0 -363 -49v-631 z" />
<glyph unicode="c" horiz-adv-x="1019" d="M96 545q0 137 17.5 236.5t47 159.5t77.5 97q82 59 217 60q123 0 263 -19.5t212 -38.5v-127q-260 13 -374 13h-18q-98 0 -122 -6q-26 -6 -54 -26t-43 -60q-35 -95 -35 -268q0 -179 22 -262q20 -81 62 -110.5t124 -29.5q164 0 380 14l72 6v-133q-143 -49 -319 -57 q-85 -4 -146 -4q-91 0 -129 9q-62 15 -109.5 51t-77.5 96.5t-48.5 161t-18.5 237.5z" />
<glyph unicode="d" horiz-adv-x="1134" d="M96 539q0 324 99 452q86 113 258 113q106 0 214.5 -27.5t168.5 -52.5v584h186v-1608h-143l-43 119q-53 -41 -172 -86t-211 -45q-357 0 -357 551zM285 541q0 -377 188 -377q168 0 363 88v631q-178 49 -363 49q-63 0 -102 -29q-86 -67 -86 -362z" />
<glyph unicode="e" horiz-adv-x="1075" d="M96 511.5q0 280.5 47 391.5q27 61 62 99t92 59q98 35 274 35q209 0 283 -39q80 -43 109 -115q36 -88 36 -227v-8q0 -256 -286 -256h-428q0 -174 45 -231.5t168 -57.5q338 0 481 22v-137q-188 -57 -524 -57q-207 0 -283 120.5t-76 401zM285 616h407q119 1 119 95 q0 78 -8 116.5t-36 62t-69 30t-105.5 6.5t-89 -1t-60 -5.5t-52 -11.5t-39 -22.5t-32 -38t-19.5 -54.5q-16 -53 -16 -177z" />
<glyph unicode="f" horiz-adv-x="821" d="M39 918v135l190 34v203q0 102 14.5 143.5t28 66t35 44t47.5 35.5q53 31 167 31t261 -49v-119l-235 2h-6q-97 0 -115 -68q-8 -35 -8 -104v-185h287v-169h-287v-918h-189v918h-190z" />
<glyph unicode="g" horiz-adv-x="1136" d="M90 -74l84 125q-82 55 -82 178q0 59 31 110.5t90 66.5q-119 76 -119 283.5t94.5 305t266.5 97.5h645v-129l-154 -37q2 -4 14.5 -26.5t16.5 -34t12 -38.5q14 -47 15 -113v-8q0 -60 -8 -103q-7 -46 -29.5 -101.5t-59.5 -97.5t-101.5 -70.5t-148.5 -28.5h-301q-84 0 -84 -57 q0 -66 84 -66h408q133 0 206.5 -77.5t73.5 -215.5v-127q0 -231 -182 -294q-57 -20 -135 -21h-307q-205 0 -287 139q-43 72 -43 176v164zM279 23v-250q0 -100 55 -129q45 -25 108 -25h269q82 0 113.5 40t31.5 112v108q0 70 -26.5 99.5t-104.5 29.5h-356q-51 0 -90 15z M283 697.5q0 -220.5 174 -220.5h176q143 0 176 152q6 31 6 49q0 131 -41 185.5t-143 54.5h-164q-184 0 -184 -220.5z" />
<glyph unicode="h" d="M115 0v1606h188v-643q6 4 34 21t35 21.5t32.5 19.5t37 19.5t36 15.5t38.5 16t38 12.5t44 9.5q53 8 92 8q160 0 246 -103.5t86 -252.5v-750h-188v750q0 92 -45.5 138t-135.5 46t-159.5 -24.5t-190.5 -86.5v-823h-188z" />
<glyph unicode="i" horiz-adv-x="419" d="M96 1260v129q0 53 49 53h134q23 0 35 -15.5t12 -37.5v-129q0 -47 -47 -48h-134q-23 0 -36 14t-13 34zM113 0v1087h188v-1087h-188z" />
<glyph unicode="j" horiz-adv-x="458" d="M115 1260v129q0 53 49 53h133q23 0 35 -15.5t12 -37.5v-129q0 -47 -47 -48h-133q-23 0 -36 14t-13 34zM135 -553v1640h189v-1095v-45q0 -330 -60 -500h-129z" />
<glyph unicode="k" horiz-adv-x="1054" d="M115 0v1602h188v-895h76l387 380h252l-463 -464l463 -623h-230l-409 537h-76v-537h-188z" />
<glyph unicode="l" horiz-adv-x="620" d="M115 387v1217h188v-1205q0 -121 27.5 -168t83.5 -61q156 -43 170 -43v-127h-195q-274 0 -274 387z" />
<glyph unicode="m" horiz-adv-x="1824" d="M115 0v1087h141l47 -126q12 6 34.5 20t34 21.5t33 19.5t35 18.5t34 16.5t36.5 15t36.5 11.5t41.5 10.5q47 6 101 6t114 -17q123 -39 170 -137q193 154 426 154q150 0 241 -99.5t91 -259.5v-741h-189v743q0 115 -80 162q-37 23 -119 23q-175 -1 -331 -107v-76v-745h-189 v743q0 84 -47 134.5t-118.5 50.5t-131 -14.5t-99.5 -32t-124 -62.5v-819h-188z" />
<glyph unicode="n" d="M115 0v1087h141l47 -124q6 4 34 21t36 21.5t33.5 19.5t36 19.5t35 16.5t38.5 16t38 11.5t44 9.5q53 8 92 8q160 0 246 -103.5t86 -252.5v-750h-188v750q0 135 -101 172q-29 12 -99.5 12t-140 -24.5t-190.5 -86.5v-823h-188z" />
<glyph unicode="o" horiz-adv-x="1157" d="M96 528q0 223 47 346t149.5 173.5t287.5 50.5q276 0 379.5 -123t103.5 -437.5t-103.5 -431t-378 -116.5t-380 120.5t-105.5 417.5zM285 532.5q0 -88.5 7 -149.5t25.5 -101t40 -63.5t60.5 -36.5q56 -19 137 -19h8q86 1 127 6t81 24.5t60 60.5q43 88 43 274 q0 188 -22.5 249t-41.5 86.5t-56 39.5q-57 23 -145.5 23t-125.5 -4t-74.5 -17.5t-57 -39t-37 -70.5t-23.5 -109.5t-6 -153z" />
<glyph unicode="p" horiz-adv-x="1134" d="M115 -553v1640h143l43 -116q78 59 199 94t194.5 35t137 -32t102.5 -83t63 -125q43 -129 43 -268t-7 -214t-29.5 -151.5t-61.5 -128.5q-85 -114 -255 -114h-3q-76 0 -186.5 21.5t-198.5 55.5v-614h-184zM301 205q177 -49 363 -49q63 0 102 28q86 68 86 361q0 379 -188 379 q-170 0 -363 -88v-631z" />
<glyph unicode="q" horiz-adv-x="1136" d="M96 575.5q0 241.5 96.5 383t279.5 141.5t550 -51v-1602h-188v612q-84 -39 -182.5 -59t-181.5 -20t-151.5 27.5t-110.5 75.5t-69 122q-43 129 -43 370.5zM285 530q0 -166 11 -207.5t26.5 -75.5t37 -51.5t55.5 -30.5t91 -13t104 4q86 6 224 45v729h-340q-100 0 -146 -72 q-47 -74 -53 -137q-10 -92 -10 -170v-21z" />
<glyph unicode="r" horiz-adv-x="866" d="M115 0v1087h143l45 -137q6 4 47 31t82 49.5t110.5 46t160 23.5t124.5 -17v-184q-53 10 -157.5 10t-181 -25.5t-185.5 -92.5v-791h-188z" />
<glyph unicode="s" horiz-adv-x="1036" d="M76 727v94q0 133 65.5 205t224 72t325.5 -14.5t214 -24.5v-135h-522q-78 0 -98.5 -25t-20.5 -82v-82q0 -74 35 -90q29 -14 84 -14h305q90 0 154 -37q119 -68 119 -234v-102q0 -268 -267 -268q-104 0 -311 15t-262 30v131h549q102 0 102 98v86q0 68 -39 90q-25 12 -63 13 h-305q-150 0 -219.5 60t-69.5 214z" />
<glyph unicode="t" horiz-adv-x="776" d="M39 920v127l194 43l41 303h148v-303h297v-170h-297v-519q0 -121 27.5 -168t82.5 -61q156 -43 170 -43v-127h-198q-270 0 -271 387v531h-194z" />
<glyph unicode="u" d="M96 340v747h189v-749q0 -92 45 -137t135 -45t159.5 23.5t190.5 86.5v821h189v-1087h-142l-47 123q-12 -6 -49 -28.5t-52.5 -30t-48 -24.5t-54 -24.5t-54.5 -17.5q-55 -16 -129 -16q-162 0 -247 103t-85 255z" />
<glyph unicode="v" horiz-adv-x="1112" d="M39 1087h203l313 -833l317 833h203l-424 -1087h-198z" />
<glyph unicode="w" horiz-adv-x="1652" d="M39 1087h203l295 -833l258 833h196l-100 -333l221 -500l301 833h203l-397 -1087h-199l-219 496l-164 -496h-207z" />
<glyph unicode="x" horiz-adv-x="1099" d="M45 0l389 545l-389 542h231l271 -393l276 393h232l-393 -548l376 -539h-215l-272 389l-272 -389h-234z" />
<glyph unicode="y" horiz-adv-x="1146" d="M41 1087h203l241 -825q26 -85 98 -85q13 0 27 3l4 2l287 905h205l-453 -1431l-151 -209h-125l182 553q-197 0 -266 240z" />
<glyph unicode="z" horiz-adv-x="942" d="M57 911v176h830v-176l-551 -733h551v-176h-799v176l563 733h-594z" />
<glyph unicode="{" horiz-adv-x="655" d="M39 604v158q4 0 20.5 2t28.5 3t34.5 5t36 11.5t27.5 19.5q27 20 27 67v473q0 225 176 328q94 53 229 53v-176q-104 0 -160.5 -50t-56.5 -179v-453q0 -76 -49 -122t-131 -60q80 -12 129 -60.5t49 -115.5v-565q0 -98 55.5 -149.5t145.5 -51.5h18v-172q-311 0 -387 223 q-20 59 -20 129v574q0 57 -48 82.5t-81 25.5h-43z" />
<glyph unicode="|" horiz-adv-x="501" d="M164 -147v1724h176v-1724h-176z" />
<glyph unicode="}" horiz-adv-x="655" d="M39 -258h16q90 0 145.5 51t55.5 150v565q0 92 86 143q41 25 92 33q-82 14 -131 60.5t-49 121.5v453q0 135 -61 184q-57 45 -154 45v176q199 0 301 -108.5t102 -272.5v-473q0 -68 58 -86q43 -16 77.5 -19t40.5 -3v-158h-32.5t-54 -8t-60.5 -34.5t-27 -65.5v-574 q0 -141 -84 -239q-96 -113 -321 -113v172z" />
<glyph unicode="~" horiz-adv-x="884" d="M96 1180q12 10 43 38.5t45.5 41t41 30t53 24.5t65.5 7t104.5 -36t95 -36t50 4t33 8.5t34 15.5t28.5 15t29.5 20.5t26.5 18.5l46 -96q-6 -6 -20.5 -21.5t-24 -24.5t-24.5 -23.5t-27.5 -25t-30 -20.5t-33.5 -18q-37 -14 -79 -14.5t-112.5 35.5t-107.5 36t-65.5 -9 t-66.5 -31.5t-59 -31.5z" />
<glyph unicode="&#xa1;" horiz-adv-x="552" d="M162 770v127q0 43 49 47h121q27 -2 38 -20.5t11 -32.5v-119q-4 -55 -47 -55h-123q-49 0 -49 53zM168 -553l16 1090h176l19 -1090h-211z" />
<glyph unicode="&#xa2;" horiz-adv-x="1001" d="M76 556q0 130 18.5 231.5t50.5 162.5q59 117 187 144q45 8 81 8h50v196h137v-206q172 -18 311 -52v-127q-262 14 -374.5 14.5t-138 -4.5t-54.5 -27t-45 -62q-35 -94 -35 -271.5t21.5 -259.5t63.5 -112.5t122 -30.5q164 0 381 16l74 4v-131q-141 -49 -326 -57v-189h-139 v183h-35t-75 7t-90 28.5t-77.5 61.5t-57.5 100.5t-38 151.5t-12 221z" />
<glyph unicode="&#xa3;" horiz-adv-x="1212" d="M96 0v147l144 35v484h-144v108l144 37v211q0 272 102 373q68 68 141 84q106 20 199 20q143 0 362 -24l74 -9v-147h-395q-143 0 -170 -9.5t-47.5 -18.5t-30.5 -24.5t-21.5 -37t-15.5 -49.5q-10 -72 -10 -152v-217l528 -33v-110h-528v-486h688v-182h-1020z" />
<glyph unicode="&#xa4;" horiz-adv-x="931" d="M98 913l86 80l86 -86q84 59 190.5 59.5t194.5 -65.5l99 96l77 -86l-96 -98q47 -78 47 -178t-57 -186l106 -105l-90 -84l-102 102q-82 -59 -180.5 -59t-179.5 57l-97 -96l-82 90l95 92q-59 86 -59.5 190.5t52.5 184.5zM260 623.5q0 -68.5 57.5 -130t140.5 -61.5t141 61.5 t58 145.5t-58 141.5t-125.5 57.5t-114 -27t-73 -73t-26.5 -114.5z" />
<glyph unicode="&#xa5;" horiz-adv-x="1247" d="M39 1499h205l362 -688l393 688h211l-489 -831h330v-136h-353v-94h353v-133h-353v-305h-188v305h-334v133h334v94h-334v136h313z" />
<glyph unicode="&#xa6;" horiz-adv-x="503" d="M164 -147v671h176v-671h-176zM164 879v698h176v-698h-176z" />
<glyph unicode="&#xa7;" horiz-adv-x="1124" d="M104 1208v131q0 203 170 252q47 14 117 14.5t275.5 -14t275.5 -24.5v-137h-543q-70 0 -92 -37q-12 -20 -14 -58v-123q0 -90 106 -90h336q164 0 225.5 -65.5t59.5 -194.5v-110q0 -176 -96 -195q94 -14 94 -176v-139q0 -184 -127 -234q-63 -25 -152.5 -24.5t-290 14.5 t-268.5 25v137h531q57 0 86.5 16.5t31.5 67.5v129q0 55 -23.5 72.5t-84.5 17.5h-338q-139 0 -208 52t-69 198v112q0 84 20.5 134.5t80.5 68.5q-103 35 -103 180zM293 731q0 -61 24.5 -78.5t83.5 -17.5h316q82 0 98 29q14 23 14 69v113q0 53 -12 74q-23 31 -100 30h-316 q-66 0 -87 -20.5t-21 -87.5v-111z" />
<glyph unicode="&#xa8;" horiz-adv-x="927" d="M96 1192q0 45 32 75.5t77 30.5t75.5 -30.5t30.5 -75.5t-30.5 -77t-75.5 -32t-77 32t-32 77zM618 1192q0 45 32 75.5t77 30.5t76 -30.5t31 -75.5t-31 -77t-76 -32t-77 32t-32 77z" />
<glyph unicode="&#xa9;" horiz-adv-x="1654" d="M104 754q0 745 482 745h530q238 0 340 -205q59 -117 74 -233q20 -158 20 -312.5t-24.5 -288.5t-75.5 -238.5t-136 -163t-198 -58.5h-530q-109 0 -196 50t-138 128t-86 180q-62 183 -62 396zM252 756q0 -117 19.5 -223.5t58.5 -194.5t105.5 -141.5t150.5 -53.5h528 q129 2 209 156t80 455q0 276 -43 395q-49 139 -129 180q-49 27 -115 27h-530q-160 0 -236 -119q-98 -151 -98 -481zM469 748q0 233 79 339.5t214 106.5t368 -49v-119q-172 25 -354 25q-84 0 -123 -75t-39 -202t12.5 -188.5t50.5 -101.5t101 -40q150 0 365 33v-119 q-182 -57 -377 -57q-217 0 -274 225q-23 91 -23 222z" />
<glyph unicode="&#xaa;" horiz-adv-x="745" d="M57 545v127h633v-127h-633zM57 950v88q0 84 55.5 135.5t172 51.5h181.5h66q2 55 0 57q0 53 -29.5 75.5t-94 22.5t-180 -7t-146.5 -9v100q16 2 76.5 15.5t89.5 17.5q96 16 198.5 16t171 -52t68.5 -165v-522h-104l-47 98q-39 -37 -127.5 -71.5t-139.5 -34.5 q-90 0 -150.5 51t-60.5 133zM207 979q0 -76 84 -76q102 0 207 47l34 15v161l-243 -18q-82 -8 -82 -80v-49z" />
<glyph unicode="&#xab;" horiz-adv-x="1140" d="M96 725l422 416l119 -119l-303 -297l313 -305l-119 -121zM496 725l422 416l120 -119l-305 -297l314 -305l-119 -121z" />
<glyph unicode="&#xac;" horiz-adv-x="1060" d="M94 516v172h873v-362h-172v190h-701z" />
<glyph unicode="&#xad;" horiz-adv-x="724" d="M41 506v176h643v-176h-643z" />
<glyph unicode="&#xae;" horiz-adv-x="1654" d="M104 754q0 745 482 745h530q238 0 340 -205q59 -117 74 -233q20 -158 20 -312.5t-24.5 -288.5t-75.5 -238.5t-136 -163t-198 -58.5h-530q-109 0 -196 50t-138 128t-86 180q-62 183 -62 396zM252 756q0 -117 19.5 -223.5t58.5 -194.5t105.5 -141.5t150.5 -53.5h528 q129 2 209 156t80 455q0 276 -43 395q-49 139 -129 180q-49 27 -115 27h-530q-160 0 -236 -119q-98 -151 -98 -481zM526 313v875h367q274 0 274 -266q0 -174 -90 -230q-39 -25 -96 -37l184 -342h-164l-182 342l-145 25v-367h-148zM674 782h219q80 0 103.5 27t23.5 90.5 t-10.5 91t-32.5 37.5q-33 16 -84 16h-219v-262z" />
<glyph unicode="&#xaf;" horiz-adv-x="788" d="M96 1087v138h598v-138h-598z" />
<glyph unicode="&#xb0;" horiz-adv-x="606" d="M96 1294.5q0 57.5 28 105.5t76 76.5t104 28.5t104.5 -28.5t76 -76.5t27.5 -105.5t-27.5 -105.5t-76 -76t-104.5 -28t-104 28t-76 76t-28 105.5zM199 1301.5q0 -35.5 14 -60.5q31 -51 83 -51t83 30.5t31 66.5t-15 61q-31 53 -83 53t-82.5 -32t-30.5 -67.5z" />
<glyph unicode="&#xb1;" horiz-adv-x="1062" d="M106 168v176h852v-176h-852zM106 791v176h336v336h176v-336h340v-176h-340v-340h-176v340h-336z" />
<glyph unicode="&#xb2;" horiz-adv-x="798" d="M61 1659v115q242 33 383 32q274 0 275 -282q0 -70 -35 -148t-74 -133t-108 -123q-78 -78 -172 -155h389v-150h-651v141q14 10 67 50.5t89 69t92.5 75.5t94.5 88t74 88q76 96 76 180t-34.5 118t-120.5 34h-345z" />
<glyph unicode="&#xb3;" horiz-adv-x="831" d="M57 1651v108q109 37 324 37h86q125 0 188.5 -68.5t63.5 -173.5v-69q0 -94 -51 -148q-23 -23 -54 -34q104 -57 105 -195v-55q0 -119 -60.5 -182.5t-201.5 -63.5h-78q-207 0 -313 39l2 108l352 2q106 0 133 45q12 25 12 68v41q0 123 -137 127l-281 10v119l281 14 q139 6 139 119v39q0 113 -139 113h-371z" />
<glyph unicode="&#xb4;" horiz-adv-x="495" d="M39 1087l209 277h211l-266 -277h-154z" />
<glyph unicode="&#xb5;" horiz-adv-x="1212" d="M172 340v747h188v-749q0 -92 46.5 -137t135.5 -45t159.5 23.5t189.5 86.5v821h188v-1087h-139l-49 123q-8 -4 -41 -23.5t-44 -25.5t-40 -21.5t-44 -21.5t-43 -16.5t-48 -14.5q-63 -14 -132 -14t-139 41v-580h-188v893z" />
<glyph unicode="&#xb6;" horiz-adv-x="1185" d="M76 1022v190q0 137 94 212t225 75h754v-172h-131v-1327h-168v1331h-176v-1884h-168v1315l-19 -10q-43 -27 -92 -25q-154 0 -236.5 84t-82.5 211zM244 1032q0 -111 106 -133q23 -6 49 -6h107v438h-107q-86 0 -120.5 -39t-34.5 -94v-166z" />
<glyph unicode="&#xb7;" horiz-adv-x="550" d="M162 717v135q0 51 49 51h127q51 0 51 -51v-135q0 -47 -51 -47h-127q-29 0 -39 16.5t-10 30.5z" />
<glyph unicode="&#xb8;" horiz-adv-x="509" d="M96 -268l103 30q41 16 53 55t12 107h152q0 -160 -44 -220t-169 -60h-107v88z" />
<glyph unicode="&#xb9;" horiz-adv-x="552" d="M31 1571v110l248 113h151v-979h-151v821z" />
<glyph unicode="&#xba;" horiz-adv-x="800" d="M57 1137q0 209 74 290.5t270.5 81.5t269 -81.5t72.5 -291.5t-72.5 -291t-268 -81t-270.5 82t-75 291zM82 551v125h637v-125h-637zM211 1117.5q0 -68.5 11 -115t41 -67t57.5 -25.5t71.5 -5t61.5 1t41 5t35 12.5t25.5 25t20 38.5q16 63 16.5 129t-3.5 100.5t-10.5 60.5 t-19.5 43t-25.5 26.5t-36.5 13.5q-35 8 -84.5 8t-69.5 -2t-47 -8t-39 -21.5t-24.5 -42t-16.5 -67.5t-4 -109.5z" />
<glyph unicode="&#xbb;" horiz-adv-x="1140" d="M96 420l312 305l-304 297l121 119l422 -416l-432 -426zM496 420l313 305l-305 297l121 119l422 -416l-433 -426z" />
<glyph unicode="&#xbc;" horiz-adv-x="1863" d="M31 1280v109l248 114h151v-979h-151v822zM426 0l750 1511h151l-747 -1511h-154zM1020 293l407 682h170l-348 -590h307v238l56 100h98v-338h115v-123l-115 -31v-233h-154v233h-489z" />
<glyph unicode="&#xbd;" horiz-adv-x="2002" d="M31 1280v109l248 114h151v-979h-151v822zM414 0l749 1511h154l-750 -1511h-153zM1264 875.5v54.5l2 28q244 33 385 33q274 0 274 -284q0 -143 -127 -301q-102 -125 -262 -259h389v-147h-653v139q8 8 79.5 62.5t110.5 85t105.5 92t103.5 106.5q96 121 96 206t-34.5 118 t-120.5 33h-346q-2 0 -2 33.5z" />
<glyph unicode="&#xbe;" horiz-adv-x="2101" d="M57 1358v108q106 39 318 39h94q125 0 188.5 -69.5t63.5 -171.5v-70q0 -70 -29.5 -118t-75.5 -64q104 -57 105 -197v-53q0 -119 -60.5 -182.5t-201.5 -63.5h-49h-50.5h-44t-46 1t-40 3t-44 5t-40.5 7q-37 6 -79 21l2 109l354 2q82 0 113.5 24.5t31.5 87.5v41 q0 125 -137 129l-283 10v117l283 14q139 6 139 119v41q0 111 -139 111h-373zM631 0l747 1511h154l-748 -1511h-153zM1198 295l406 680h161l-346 -594h322v244l49 100h98v-344h115v-119l-115 -29v-233h-147v233h-498z" />
<glyph unicode="&#xbf;" horiz-adv-x="1112" d="M76 35q-2 182 133 270q100 68 250 68q49 0 102 -8v200h178l2 -350q-92 2 -161.5 2t-129 -2t-108.5 -57.5t-55 -134.5q-2 -145 -2 -181q0 -88 58 -148.5t171 -60.5h14l545 2q-2 0 -2 -55q2 -68 0 -84q-14 -2 -65.5 -10t-64.5 -9t-57 -7.5t-61.5 -8.5t-56.5 -5t-64.5 -4 t-56.5 -2t-61.5 -1t-61 1t-33.5 1q-270 0 -364 176q-49 92 -49 215v193zM541 788v125q0 20 14 35t35 17h119q49 -2 49 -47v-130q-2 -49 -43 -51h-133q-39 8 -41 51z" />
<glyph unicode="&#xc0;" horiz-adv-x="1384" d="M86 0l539 1499h198l516 -1499h-215l-123 395h-567l-129 -395h-219zM381 1909h211l209 -277h-154zM494 573h450l-221 656z" />
<glyph unicode="&#xc1;" horiz-adv-x="1384" d="M86 0l539 1499h198l516 -1499h-215l-123 395h-567l-129 -395h-219zM494 573h450l-221 656zM647 1632l211 277h209l-266 -277h-154z" />
<glyph unicode="&#xc2;" horiz-adv-x="1384" d="M86 0l539 1499h198l516 -1499h-215l-123 395h-567l-129 -395h-219zM420 1632l235 269h164l209 -269h-158l-139 140l-151 -140h-160zM494 573h450l-221 656z" />
<glyph unicode="&#xc3;" horiz-adv-x="1384" d="M86 0l539 1499h198l516 -1499h-215l-123 395h-567l-129 -395h-219zM377 1724q117 102 180 123q80 27 168 -16t101.5 -44t15.5 -1q55 0 184 76l45 -97q-4 -4 -31.5 -27.5t-38 -31.5t-36 -26.5t-43.5 -24.5q-94 -43 -207 16q-63 33 -99 33q-63 0 -117.5 -31t-76.5 -41z M494 573h450l-221 656z" />
<glyph unicode="&#xc4;" horiz-adv-x="1384" d="M86 0l539 1499h198l516 -1499h-215l-123 395h-567l-129 -395h-219zM354 1741q0 45 33 75.5t78 30.5t75.5 -30.5t30.5 -75.5t-31.5 -77t-75.5 -32t-77 32t-33 77zM494 573h450l-221 656zM877 1741q0 45 32.5 75.5t77.5 30.5t76 -30.5t31 -75.5t-32 -77t-76 -32t-76.5 32 t-32.5 77z" />
<glyph unicode="&#xc5;" horiz-adv-x="1384" d="M86 0l539 1499h198l516 -1499h-215l-123 395h-567l-129 -395h-219zM494 573h450l-221 656zM516 1719.5q0 -72.5 28.5 -121t77 -76t104.5 -27.5t103.5 27.5t75 76t27.5 121t-60.5 134t-146.5 61.5t-147.5 -61.5t-61.5 -134zM618 1704q0 43 32 74.5t84 31.5t81 -53 q14 -25 14 -60.5t-30.5 -66.5t-73.5 -31t-75 31t-32 74z" />
<glyph unicode="&#xc6;" horiz-adv-x="1904" d="M57 0l602 1221q86 172 191 229q92 51 192 51l82 -2q20 0 339 -14.5t356 -18.5v-153h-633q-72 0 -88 -35q-12 -27 -15 -74v-375l650 -20v-152l-650 -20v-356q0 -39 7.5 -52.5t11.5 -21.5t14 -12.5t15.5 -7.5t19.5 -4t18.5 -1h20.5h20l607 -2v-155l-625 -35h-35 q-262 0 -262 258v198h-412l-219 -446h-207zM571 625h324v657z" />
<glyph unicode="&#xc7;" horiz-adv-x="1179" d="M104 741q0 164 13.5 276.5t47.5 210t89 158.5q121 129 354 130q250 0 506 -56v-149l-11 1t-29.5 2t-44 3t-56.5 3t-65 3t-70.5 4t-73.5 4q-76 2 -155 2t-138 -22.5t-101 -87t-59.5 -178t-17.5 -241.5t5 -191.5t16.5 -124t27.5 -108.5t43 -88t61 -67q72 -55 175 -55 q197 0 419 10l74 4v-147q-102 -23 -246.5 -36t-200 -13h-59.5q-279 0 -395 215q-109 200 -109 538zM389 -266l103 30q39 16 52 55t13 107h152q0 -160 -45.5 -221t-167.5 -61h-107v90z" />
<glyph unicode="&#xc8;" horiz-adv-x="1161" d="M152 264v957q0 152 77.5 215t184.5 63q8 0 318 -14.5t347 -18.5v-151h-633q-76 0 -94 -37q-12 -29 -12 -78v-360l653 -21v-153l-653 -21v-360q2 -78 43 -95q33 -12 84 -12h612v-149l-630 -35h-33q-264 0 -264 270zM354 1898h209l211 -274h-153z" />
<glyph unicode="&#xc9;" horiz-adv-x="1161" d="M152 264v957q0 152 77.5 215t184.5 63q8 0 318 -14.5t347 -18.5v-151h-633q-76 0 -94 -37q-12 -29 -12 -78v-360l653 -21v-153l-653 -21v-360q2 -78 43 -95q33 -12 84 -12h612v-149l-630 -35h-33q-264 0 -264 270zM582 1624l209 274h210l-266 -274h-153z" />
<glyph unicode="&#xca;" horiz-adv-x="1161" d="M152 264v957q0 152 77.5 215t184.5 63q8 0 318 -14.5t347 -18.5v-151h-633q-76 0 -94 -37q-12 -29 -12 -78v-360l653 -21v-153l-653 -21v-360q2 -78 43 -95q33 -12 84 -12h612v-149l-630 -35h-33q-264 0 -264 270zM344 1632l236 269h163l209 -269h-157l-140 140 l-151 -140h-160z" />
<glyph unicode="&#xcb;" horiz-adv-x="1161" d="M152 264v957q0 152 77.5 215t184.5 63q8 0 318 -14.5t347 -18.5v-151h-633q-76 0 -94 -37q-12 -29 -12 -78v-360l653 -21v-153l-653 -21v-360q2 -78 43 -95q33 -12 84 -12h612v-149l-630 -35h-33q-264 0 -264 270zM279 1733q0 45 31.5 75.5t76.5 30.5t76 -30.5t31 -75.5 t-31 -77t-76 -32t-76.5 32t-31.5 77zM801 1733q0 45 31.5 75.5t76.5 30.5t76 -30.5t31 -75.5t-31 -77t-76 -32t-76.5 32t-31.5 77z" />
<glyph unicode="&#xcc;" horiz-adv-x="454" d="M-96 1909h211l209 -277h-154zM154 0v1499h188v-1499h-188z" />
<glyph unicode="&#xcd;" horiz-adv-x="454" d="M154 0v1499h188v-1499h-188zM170 1632l211 277h209l-266 -277h-154z" />
<glyph unicode="&#xce;" horiz-adv-x="454" d="M-57 1632l235 269h164l209 -269h-158l-139 140l-152 -140h-159zM154 0v1499h188v-1499h-188z" />
<glyph unicode="&#xcf;" horiz-adv-x="454" d="M-123 1741q0 45 33 75.5t78 30.5t75.5 -30.5t30.5 -75.5t-30.5 -77t-75.5 -32t-78 32t-33 77zM154 0v1499h188v-1499h-188zM401 1741q0 45 32 75.5t77 30.5t75.5 -30.5t30.5 -75.5t-30.5 -77t-75.5 -32t-77 32t-32 77z" />
<glyph unicode="&#xd0;" horiz-adv-x="1347" d="M20 705v118h134v674q0 2 579 2q266 0 397 -196q131 -193 132 -560q0 -381 -175 -587q-59 -72 -150 -114t-204 -42h-579v705h-134zM342 184h385q119 0 197 78q143 141 143 483q0 565 -340 566l-385 -2v-486h268v-118h-268v-521z" />
<glyph unicode="&#xd1;" horiz-adv-x="1390" d="M154 0v1499h192l744 -1149v1149h188v-1499h-188l-746 1147v-1147h-190zM367 1724q117 102 180 123q80 27 168 -16t102.5 -44t16.5 -1q55 0 182 76l47 -97q-8 -6 -24.5 -20t-27 -23.5t-27.5 -21.5t-29.5 -21.5t-30 -18.5t-31.5 -15q-82 -29 -188 26q-61 33 -97 33 q-57 0 -89 -16.5t-58.5 -32t-48.5 -23.5z" />
<glyph unicode="&#xd2;" horiz-adv-x="1380" d="M125 741q0 145 15.5 261t40 197t67.5 138.5t88 90t110 51.5q104 31 227.5 30.5t184 -6.5t125 -24.5t108.5 -51t86 -90t66 -137.5q53 -178 53 -461q0 -332 -71 -487q-35 -82 -81 -134t-118 -79q-121 -47 -313 -47q-281 0 -387 80q-109 80 -150 221q-51 172 -51 448z M313 782q0 -127 4.5 -192.5t11.5 -120.5t20 -96t29.5 -73t41 -53.5t52.5 -35.5t67 -23q70 -14 169 -14t160.5 13.5t110.5 47t76 99.5q53 129 53 405q0 182 -13.5 259t-22.5 120t-27.5 75t-35 54.5t-45 37.5t-50 23.5t-60.5 12.5q-57 6 -147.5 6t-138.5 -6t-106.5 -36 t-85 -90t-45 -173t-18.5 -240zM369 1909h211l208 -277h-153z" />
<glyph unicode="&#xd3;" horiz-adv-x="1380" d="M125 741q0 145 15.5 261t40 197t67.5 138.5t88 90t110 51.5q104 31 227.5 30.5t184 -6.5t125 -24.5t108.5 -51t86 -90t66 -137.5q53 -178 53 -461q0 -332 -71 -487q-35 -82 -81 -134t-118 -79q-121 -47 -313 -47q-281 0 -387 80q-109 80 -150 221q-51 172 -51 448z M313 782q0 -127 4.5 -192.5t11.5 -120.5t20 -96t29.5 -73t41 -53.5t52.5 -35.5t67 -23q70 -14 169 -14t160.5 13.5t110.5 47t76 99.5q53 129 53 405q0 182 -13.5 259t-22.5 120t-27.5 75t-35 54.5t-45 37.5t-50 23.5t-60.5 12.5q-57 6 -147.5 6t-138.5 -6t-106.5 -36 t-85 -90t-45 -173t-18.5 -240zM635 1632l211 277h209l-267 -277h-153z" />
<glyph unicode="&#xd4;" horiz-adv-x="1380" d="M125 741q0 145 15.5 261t40 197t67.5 138.5t88 90t110 51.5q104 31 227.5 30.5t184 -6.5t125 -24.5t108.5 -51t86 -90t66 -137.5q53 -178 53 -461q0 -332 -71 -487q-35 -82 -81 -134t-118 -79q-121 -47 -313 -47q-281 0 -387 80q-109 80 -150 221q-51 172 -51 448z M313 782q0 -127 4.5 -192.5t11.5 -120.5t20 -96t29.5 -73t41 -53.5t52.5 -35.5t67 -23q70 -14 169 -14t160.5 13.5t110.5 47t76 99.5q53 129 53 405q0 182 -13.5 259t-22.5 120t-27.5 75t-35 54.5t-45 37.5t-50 23.5t-60.5 12.5q-57 6 -147.5 6t-138.5 -6t-106.5 -36 t-85 -90t-45 -173t-18.5 -240zM408 1632l235 269h164l209 -269h-158l-139 140l-152 -140h-159z" />
<glyph unicode="&#xd5;" horiz-adv-x="1380" d="M125 741q0 145 15.5 261t40 197t67.5 138.5t88 90t110 51.5q104 31 227.5 30.5t184 -6.5t125 -24.5t108.5 -51t86 -90t66 -137.5q53 -178 53 -461q0 -332 -71 -487q-35 -82 -81 -134t-118 -79q-121 -47 -313 -47q-281 0 -387 80q-109 80 -150 221q-51 172 -51 448z M313 782q0 -127 4.5 -192.5t11.5 -120.5t20 -96t29.5 -73t41 -53.5t52.5 -35.5t67 -23q70 -14 169 -14t160.5 13.5t110.5 47t76 99.5q53 129 53 405q0 182 -13.5 259t-22.5 120t-27.5 75t-35 54.5t-45 37.5t-50 23.5t-60.5 12.5q-57 6 -147.5 6t-138.5 -6t-106.5 -36 t-85 -90t-45 -173t-18.5 -240zM365 1724q117 102 180 123q80 27 168 -16t101 -44t15 -1q55 0 185 76l45 -97q-4 -4 -32 -27.5t-38 -31.5t-35.5 -26.5t-44.5 -24.5q-94 -43 -207 16q-63 33 -98 33q-59 0 -119 -33q-55 -31 -75 -39z" />
<glyph unicode="&#xd6;" horiz-adv-x="1380" d="M125 741q0 145 15.5 261t40 197t67.5 138.5t88 90t110 51.5q104 31 227.5 30.5t184 -6.5t125 -24.5t108.5 -51t86 -90t66 -137.5q53 -178 53 -461q0 -332 -71 -487q-35 -82 -81 -134t-118 -79q-121 -47 -313 -47q-281 0 -387 80q-109 80 -150 221q-51 172 -51 448z M313 782q0 -127 4.5 -192.5t11.5 -120.5t20 -96t29.5 -73t41 -53.5t52.5 -35.5t67 -23q70 -14 169 -14t160.5 13.5t110.5 47t76 99.5q53 129 53 405q0 182 -13.5 259t-22.5 120t-27.5 75t-35 54.5t-45 37.5t-50 23.5t-60.5 12.5q-57 6 -147.5 6t-138.5 -6t-106.5 -36 t-85 -90t-45 -173t-18.5 -240zM342 1741q0 45 33 75.5t78 30.5t75.5 -30.5t30.5 -75.5t-31.5 -77t-75.5 -32t-77 32t-33 77zM864 1741q0 45 33 75.5t78 30.5t75.5 -30.5t30.5 -75.5t-31.5 -77t-75.5 -32t-77 32t-33 77z" />
<glyph unicode="&#xd7;" horiz-adv-x="940" d="M106 489l240 238l-240 240l125 125l240 -240l240 240l125 -123l-242 -242l240 -238l-125 -124l-238 237l-238 -235z" />
<glyph unicode="&#xd8;" horiz-adv-x="1384" d="M127 745.5q0 427.5 121 591.5q43 57 87 90t109 52q104 31 250 30.5t234 -15.5t155 -60l43 65h134l-95 -143q133 -172 133 -617q0 -473 -155 -622q-82 -78 -183.5 -101.5t-240.5 -23.5t-231.5 16.5t-159.5 63.5l-47 -72h-134l99 152q-119 166 -119 593.5zM316 687.5 q0 -236.5 55 -349.5l608 940q-55 41 -158 47q-39 2 -97 2t-86 -1t-65.5 -5t-59 -12.5t-51.5 -22.5t-45.5 -36.5t-35 -54.5t-29.5 -75t-20 -98q-16 -98 -16 -334.5zM436 236q78 -61 267.5 -61.5t277.5 58.5q129 90 129 506q0 317 -61 443z" />
<glyph unicode="&#xd9;" horiz-adv-x="1378" d="M154 655v844h188v-844q0 -152 13.5 -215t22.5 -99t27.5 -61.5t34 -44t43 -30.5t48 -18.5t55.5 -10.5q53 -4 115.5 -4t96 2t74.5 13.5t68 30t55.5 54t42.5 86.5q37 115 37 297v844h191v-844q0 -401 -142 -538q-49 -49 -88 -74t-106 -37q-86 -16 -215 -16h-29 q-242 0 -319 51q-37 25 -84 73t-72 117q-57 172 -57 424zM367 1909h208l211 -277h-153z" />
<glyph unicode="&#xda;" horiz-adv-x="1378" d="M154 655v844h188v-844q0 -152 13.5 -215t22.5 -99t27.5 -61.5t34 -44t43 -30.5t48 -18.5t55.5 -10.5q53 -4 115.5 -4t96 2t74.5 13.5t68 30t55.5 54t42.5 86.5q37 115 37 297v844h191v-844q0 -401 -142 -538q-49 -49 -88 -74t-106 -37q-86 -16 -215 -16h-29 q-242 0 -319 51q-37 25 -84 73t-72 117q-57 172 -57 424zM633 1632l209 277h211l-267 -277h-153z" />
<glyph unicode="&#xdb;" horiz-adv-x="1378" d="M154 655v844h188v-844q0 -152 13.5 -215t22.5 -99t27.5 -61.5t34 -44t43 -30.5t48 -18.5t55.5 -10.5q53 -4 115.5 -4t96 2t74.5 13.5t68 30t55.5 54t42.5 86.5q37 115 37 297v844h191v-844q0 -401 -142 -538q-49 -49 -88 -74t-106 -37q-86 -16 -215 -16h-29 q-242 0 -319 51q-37 25 -84 73t-72 117q-57 172 -57 424zM406 1632l233 269h164l209 -269h-156l-139 140l-152 -140h-159z" />
<glyph unicode="&#xdc;" horiz-adv-x="1378" d="M154 655v844h188v-844q0 -152 13.5 -215t22.5 -99t27.5 -61.5t34 -44t43 -30.5t48 -18.5t55.5 -10.5q53 -4 115.5 -4t96 2t74.5 13.5t68 30t55.5 54t42.5 86.5q37 115 37 297v844h191v-844q0 -401 -142 -538q-49 -49 -88 -74t-106 -37q-86 -16 -215 -16h-29 q-242 0 -319 51q-37 25 -84 73t-72 117q-57 172 -57 424zM340 1741q0 45 31.5 75.5t77 30.5t77 -30.5t31.5 -75.5t-31.5 -77t-77 -32t-77 32t-31.5 77zM862 1741q0 45 32 75.5t77 30.5t75.5 -30.5t30.5 -75.5t-30.5 -77t-75.5 -32t-77 32t-32 77z" />
<glyph unicode="&#xdd;" horiz-adv-x="1304" d="M86 1499h205l362 -768l400 768h204l-512 -985v-514h-188v514zM594 1632l211 277h211l-266 -277h-156z" />
<glyph unicode="&#xde;" horiz-adv-x="1134" d="M115 0v1493h188v-289h377q360 -4 360 -436q0 -328 -170 -420q-80 -43 -190 -43q-12 0 -48 -1t-47.5 0t-44 2t-59.5 7q-88 12 -178 31v-344h-188zM303 483h352h23.5t52.5 10.5t60 38.5q59 59 59 238q-4 190 -96 234q-41 20 -99 20h-352v-541z" />
<glyph unicode="&#xdf;" horiz-adv-x="1167" d="M115 0v1159q0 186 123.5 310t343.5 124q143 0 246.5 -36.5t152.5 -98.5q80 -94 80 -215q0 -102 -49 -188t-105 -129q-20 -18 -57 -50t-52.5 -45.5t-33.5 -33.5q-33 -37 -33 -78t41 -62.5t99.5 -38t118 -41t100 -78t40.5 -134.5v-89q0 -82 -30.5 -142t-81.5 -91 q-98 -59 -217 -59q-109 0 -218.5 18t-121.5 21v145l327 -10q59 0 105.5 34.5t48.5 94.5v84q0 57 -78 84q-37 12 -79 23t-84 27.5t-76 41.5q-80 51 -80 156.5t44 166t185 168.5q98 76 98 195q0 180 -288 180q-127 0 -204 -67.5t-77 -215.5v-1130h-188z" />
<glyph unicode="&#xe0;" horiz-adv-x="1062" d="M76 264v119q0 125 74.5 202t209.5 77h314h104q2 59 2 88.5t-1 48t-8 45t-20.5 45t-33.5 29.5q-37 23 -101 20q-168 0 -505 -23v129q209 63 528 64q201 0 283 -135q45 -76 45 -191v-782h-144l-45 127q-6 -6 -67.5 -38t-166 -66.5t-184.5 -34.5q-127 0 -205.5 75.5 t-78.5 200.5zM203 1507h211l209 -276h-154zM264 283q0 -123 117 -123q68 0 167 25.5t165 50.5l65 24v266l-401 -28q-113 -10 -113 -127v-88z" />
<glyph unicode="&#xe1;" horiz-adv-x="1062" d="M76 264v119q0 125 74.5 202t209.5 77h314h104q2 59 2 88.5t-1 48t-8 45t-20.5 45t-33.5 29.5q-37 23 -101 20q-168 0 -505 -23v129q209 63 528 64q201 0 283 -135q45 -76 45 -191v-782h-144l-45 127q-6 -6 -67.5 -38t-166 -66.5t-184.5 -34.5q-127 0 -205.5 75.5 t-78.5 200.5zM264 283q0 -123 117 -123q68 0 167 25.5t165 50.5l65 24v266l-401 -28q-113 -10 -113 -127v-88zM461 1231l209 276h211l-267 -276h-153z" />
<glyph unicode="&#xe2;" horiz-adv-x="1062" d="M76 264v119q0 125 74.5 202t209.5 77h314h104q2 59 2 88.5t-1 48t-8 45t-20.5 45t-33.5 29.5q-37 23 -101 20q-168 0 -505 -23v129q209 63 528 64q201 0 283 -135q45 -76 45 -191v-782h-144l-45 127q-6 -6 -67.5 -38t-166 -66.5t-184.5 -34.5q-127 0 -205.5 75.5 t-78.5 200.5zM238 1231l233 268h164l209 -268h-158l-139 139l-150 -139h-159zM264 283q0 -123 117 -123q68 0 167 25.5t165 50.5l65 24v266l-401 -28q-113 -10 -113 -127v-88z" />
<glyph unicode="&#xe3;" horiz-adv-x="1062" d="M76 264v119q0 125 74.5 202t209.5 77h314h104q2 59 2 88.5t-1 48t-8 45t-20.5 45t-33.5 29.5q-37 23 -101 20q-168 0 -505 -23v129q209 63 528 64q201 0 283 -135q45 -76 45 -191v-782h-144l-45 127q-6 -6 -67.5 -38t-166 -66.5t-184.5 -34.5q-127 0 -205.5 75.5 t-78.5 200.5zM184 1323q115 102 181 123q80 27 168 -16.5t101 -44.5t15 -1q55 0 185 76l45 -96q-4 -4 -32 -27.5t-39 -32t-37 -26.5t-42 -25q-86 -39 -172 0q-39 16 -70.5 33t-47 17h-36t-49 -10.5t-66.5 -31t-59 -30.5zM264 283q0 -123 117 -123q68 0 167 25.5t165 50.5 l65 24v266l-401 -28q-113 -10 -113 -127v-88z" />
<glyph unicode="&#xe4;" horiz-adv-x="1062" d="M76 264v119q0 125 74.5 202t209.5 77h314h104q2 59 2 88.5t-1 48t-8 45t-20.5 45t-33.5 29.5q-37 23 -101 20q-168 0 -505 -23v129q209 63 528 64q201 0 283 -135q45 -76 45 -191v-782h-144l-45 127q-6 -6 -67.5 -38t-166 -66.5t-184.5 -34.5q-127 0 -205.5 75.5 t-78.5 200.5zM168 1339q0 45 31.5 77t77 32t77 -32t31.5 -77t-31.5 -76.5t-77 -31.5t-77 31.5t-31.5 76.5zM264 283q0 -123 117 -123q68 0 167 25.5t165 50.5l65 24v266l-401 -28q-113 -10 -113 -127v-88zM690 1339q0 45 32 77t77 32t76.5 -32t31.5 -77t-31.5 -76.5 t-76.5 -31.5t-77 31.5t-32 76.5z" />
<glyph unicode="&#xe5;" horiz-adv-x="1062" d="M76 264v119q0 125 74.5 202t209.5 77h314h104q2 59 2 88.5t-1 48t-8 45t-20.5 45t-33.5 29.5q-37 23 -101 20q-168 0 -505 -23v129q209 63 528 64q201 0 283 -135q45 -76 45 -191v-782h-144l-45 127q-6 -6 -67.5 -38t-166 -66.5t-184.5 -34.5q-127 0 -205.5 75.5 t-78.5 200.5zM264 283q0 -123 117 -123q68 0 167 25.5t165 50.5l65 24v266l-401 -28q-113 -10 -113 -127v-88zM332 1373q0 73 28.5 121t76.5 75.5t104.5 27.5t103.5 -27.5t75 -75.5t28 -106.5t-28 -105.5t-75 -74.5t-118.5 -27.5t-133 60t-61.5 133zM434 1387.5 q0 -44.5 32 -74t75 -29.5t73.5 29.5t30.5 74t-30.5 75t-73.5 30.5t-75 -30.5t-32 -75z" />
<glyph unicode="&#xe6;" horiz-adv-x="1767" d="M76 274v78q0 125 71 201q76 80 213 80q209 -2 313.5 -2t104.5 2q2 78 2 118t-1 58t-8 45t-20.5 45.5t-33.5 30.5q-37 20 -101 20q-154 0 -505 -24v129q182 63 528 63q178 0 260 -110q72 76 211 92q61 6 145 6t134.5 -4t104.5 -16.5t86 -38t60 -68.5q51 -78 52 -258 q0 -252 -287 -252h-428q0 -176 46 -236.5t167 -60.5q340 0 481 23v-138q-186 -57 -524 -57q-119 0 -184.5 35t-126.5 108q-6 -8 -84 -42.5t-195 -68.5t-197 -34q-127 0 -205.5 77t-78.5 199zM264 291q0 -68 31 -93.5t92.5 -25.5t160.5 24.5t165 49.5l65 24v238l-401 -29 q-113 -10 -113 -127v-61zM977 631h407q119 0 119 94q0 76 -7 116t-35.5 62.5t-68.5 27.5t-101.5 5h-81t-51.5 -2t-45 -6t-36.5 -11.5t-33 -18.5t-23.5 -27.5t-20.5 -39t-12.5 -51.5q-10 -47 -10 -149z" />
<glyph unicode="&#xe7;" horiz-adv-x="1019" d="M96 533.5q0 125.5 11.5 215t35 148.5t54 100t71.5 64q78 41 187 41q215 0 475 -62v-127q-260 14 -373 14.5t-139.5 -4.5t-55 -27t-43.5 -62q-35 -94 -34.5 -271.5t21 -259.5t62.5 -112.5t124 -30.5q164 0 380 16l72 4v-131q-143 -49 -319 -59q-213 -10 -274.5 6 t-109.5 52t-78 97.5t-48.5 162t-18.5 226zM348 -268l105 30q39 16 51 55t12 107h154q0 -160 -45 -221t-168 -61h-109v90z" />
<glyph unicode="&#xe8;" horiz-adv-x="1075" d="M96 511.5q0 280.5 47 391.5q27 61 62 99t92 59q98 35 274 35q209 0 283 -39q80 -43 109 -115q37 -90 36 -233q0 -258 -286 -258h-428q0 -174 45 -231.5t168 -57.5q338 0 481 22v-137q-188 -57 -524 -57q-207 0 -283 120.5t-76 401zM229 1495h211l209 -274h-153zM285 616 h407q119 0 119 95q0 78 -8 116.5t-36 62t-69 30t-102 6.5t-85 -1t-55.5 -3t-48 -8.5t-39 -16.5t-32.5 -26.5t-22.5 -39t-16.5 -53.5q-12 -76 -12 -162z" />
<glyph unicode="&#xe9;" horiz-adv-x="1075" d="M96 511.5q0 280.5 47 391.5q27 61 62 99t92 59q98 35 274 35q209 0 283 -39q80 -43 109 -115q37 -90 36 -233q0 -258 -286 -258h-428q0 -174 45 -231.5t168 -57.5q338 0 481 22v-137q-188 -57 -524 -57q-207 0 -283 120.5t-76 401zM285 616h407q119 0 119 95 q0 78 -8 116.5t-36 62t-69 30t-102 6.5t-85 -1t-55.5 -3t-48 -8.5t-39 -16.5t-32.5 -26.5t-22.5 -39t-16.5 -53.5q-12 -76 -12 -162zM479 1221l209 274h211l-266 -274h-154z" />
<glyph unicode="&#xea;" horiz-adv-x="1075" d="M96 511.5q0 280.5 47 391.5q27 61 62 99t92 59q98 35 274 35q209 0 283 -39q80 -43 109 -115q37 -90 36 -233q0 -258 -286 -258h-428q0 -174 45 -231.5t168 -57.5q338 0 481 22v-137q-188 -57 -524 -57q-207 0 -283 120.5t-76 401zM254 1221l233 270h164l209 -270h-158 l-139 139l-149 -139h-160zM285 616h407q119 0 119 95q0 78 -8 116.5t-36 62t-69 30t-102 6.5t-85 -1t-55.5 -3t-48 -8.5t-39 -16.5t-32.5 -26.5t-22.5 -39t-16.5 -53.5q-12 -76 -12 -162z" />
<glyph unicode="&#xeb;" horiz-adv-x="1075" d="M96 511.5q0 280.5 47 391.5q27 61 62 99t92 59q98 35 274 35q209 0 283 -39q80 -43 109 -115q37 -90 36 -233q0 -258 -286 -258h-428q0 -174 45 -231.5t168 -57.5q338 0 481 22v-137q-188 -57 -524 -57q-207 0 -283 120.5t-76 401zM182 1329q0 45 32 77t77 32t76.5 -32 t31.5 -77t-31.5 -76.5t-76.5 -31.5t-77 31.5t-32 76.5zM285 616h407q119 0 119 95q0 78 -8 116.5t-36 62t-69 30t-102 6.5t-85 -1t-55.5 -3t-48 -8.5t-39 -16.5t-32.5 -26.5t-22.5 -39t-16.5 -53.5q-12 -76 -12 -162zM705 1329q0 45 31.5 77t76.5 32t77 -32t32 -77 t-32 -76.5t-77 -31.5t-76.5 31.5t-31.5 76.5z" />
<glyph unicode="&#xec;" horiz-adv-x="417" d="M-133 1495h209l211 -274h-154zM115 0v1087h188v-1087h-188z" />
<glyph unicode="&#xed;" horiz-adv-x="417" d="M115 0v1087h188v-1087h-188zM133 1221l209 274h211l-266 -274h-154z" />
<glyph unicode="&#xee;" horiz-adv-x="417" d="M-94 1221l233 270h164l209 -270h-158l-137 139l-151 -139h-160zM115 0v1087h188v-1087h-188z" />
<glyph unicode="&#xef;" horiz-adv-x="417" d="M-160 1329q0 45 32 77t77 32t75.5 -32t30.5 -77t-30.5 -76.5t-75.5 -31.5t-77 31.5t-32 76.5zM115 0v1087h188v-1087h-188zM362 1318q0 34 8.5 53.5t22.5 33.5q33 33 78 33t76 -32t31 -77t-31 -76.5t-76 -31.5t-77 31.5t-32 65.5z" />
<glyph unicode="&#xf0;" horiz-adv-x="1101" d="M76 534.5q0 278.5 85 415.5t285 137h181q115 0 145 -26q-47 158 -141 250l-281 -117l-51 121l203 86q-90 43 -223 43q-20 0 -41 -2v162q291 0 454 -121l228 94l53 -123l-172 -70q225 -274 225 -843q0 -289 -97.5 -415t-275.5 -126h-207q-204 0 -287 128t-83 406.5z M264 537.5q0 -95.5 10.5 -162t25.5 -103t42 -56t51.5 -25t65.5 -5.5h182q115 0 156 85t41 286t-39 274.5t-158 73.5h-182q-80 0 -114 -30.5t-48 -71.5t-23.5 -105.5t-9.5 -160z" />
<glyph unicode="&#xf1;" d="M115 0v1087h141l47 -124q8 6 44 27.5t64.5 37.5t77.5 37q90 41 201 41q160 0 246 -103.5t86 -252.5v-750h-188v750q0 92 -45.5 138t-135.5 46t-159.5 -24.5t-190.5 -86.5v-823h-188zM221 1321q117 102 180 123q80 27 168 -16.5t101.5 -44.5t15.5 -1q55 0 184 76l45 -96 q-4 -4 -31.5 -27.5t-37.5 -32t-36 -27t-44 -24.5q-94 -43 -207 17q-63 33 -98 32q-63 0 -117.5 -30.5t-77.5 -40.5z" />
<glyph unicode="&#xf2;" horiz-adv-x="1157" d="M96 528q0 223 47 346t149.5 173.5t287.5 50.5q276 0 379.5 -123t103.5 -437.5t-103.5 -431t-378 -116.5t-380 120.5t-105.5 417.5zM254 1495h209l211 -274h-154zM285 532.5q0 -88.5 7 -149.5t25.5 -101t40 -63.5t60.5 -36.5q59 -20 145 -19t127 6t81 24.5t60 60.5 q43 88 43 274q0 188 -22.5 249t-41.5 86.5t-56 39.5q-57 23 -145.5 23t-125.5 -4t-74.5 -17.5t-57 -39t-37 -70.5t-23.5 -109.5t-6 -153z" />
<glyph unicode="&#xf3;" horiz-adv-x="1157" d="M96 528q0 223 47 346t149.5 173.5t287.5 50.5q276 0 379.5 -123t103.5 -437.5t-103.5 -431t-378 -116.5t-380 120.5t-105.5 417.5zM285 532.5q0 -88.5 7 -149.5t25.5 -101t40 -63.5t60.5 -36.5q59 -20 145 -19t127 6t81 24.5t60 60.5q43 88 43 274q0 188 -22.5 249 t-41.5 86.5t-56 39.5q-57 23 -145.5 23t-125.5 -4t-74.5 -17.5t-57 -39t-37 -70.5t-23.5 -109.5t-6 -153zM502 1221l211 274h209l-267 -274h-153z" />
<glyph unicode="&#xf4;" horiz-adv-x="1157" d="M96 528q0 223 47 346t149.5 173.5t287.5 50.5q276 0 379.5 -123t103.5 -437.5t-103.5 -431t-378 -116.5t-380 120.5t-105.5 417.5zM285 532.5q0 -88.5 7 -149.5t25.5 -101t40 -63.5t60.5 -36.5q59 -20 145 -19t127 6t81 24.5t60 60.5q43 88 43 274q0 188 -22.5 249 t-41.5 86.5t-56 39.5q-57 23 -145.5 23t-125.5 -4t-74.5 -17.5t-57 -39t-37 -70.5t-23.5 -109.5t-6 -153zM285 1221l233 270h164l209 -270h-158l-137 139l-152 -139h-159z" />
<glyph unicode="&#xf5;" horiz-adv-x="1157" d="M96 528q0 223 47 346t149.5 173.5t287.5 50.5q276 0 379.5 -123t103.5 -437.5t-103.5 -431t-378 -116.5t-380 120.5t-105.5 417.5zM248 1313q49 43 80 67q86 66 146.5 65t101 -18.5t75.5 -33.5q35 -19 62 -19q55 0 184 76l45 -96q-4 -4 -31.5 -27.5t-38 -32t-36 -27 t-43.5 -24.5q-94 -43 -207 17q-63 33 -99 32q-63 0 -117.5 -30.5t-76.5 -40.5zM285 532.5q0 -88.5 7 -149.5t25.5 -101t40 -63.5t60.5 -36.5q59 -20 145 -19t127 6t81 24.5t60 60.5q43 88 43 274q0 188 -22.5 249t-41.5 86.5t-56 39.5q-57 23 -145.5 23t-125.5 -4 t-74.5 -17.5t-57 -39t-37 -70.5t-23.5 -109.5t-6 -153z" />
<glyph unicode="&#xf6;" horiz-adv-x="1157" d="M96 528q0 223 47 346t149.5 173.5t287.5 50.5q276 0 379.5 -123t103.5 -437.5t-103.5 -431t-378 -116.5t-380 120.5t-105.5 417.5zM213 1329q0 45 31.5 77t77 32t76 -32t30.5 -77t-30.5 -76.5t-76 -31.5t-77 31.5t-31.5 76.5zM285 532.5q0 -88.5 7 -149.5t25.5 -101 t40 -63.5t60.5 -36.5q59 -20 145 -19t127 6t81 24.5t60 60.5q43 88 43 274q0 188 -22.5 249t-41.5 86.5t-56 39.5q-57 23 -145.5 23t-125.5 -4t-74.5 -17.5t-57 -39t-37 -70.5t-23.5 -109.5t-6 -153zM735 1329q0 45 32 77t77 32t75.5 -32t30.5 -77t-30.5 -76.5t-75.5 -31.5 t-77 31.5t-32 76.5z" />
<glyph unicode="&#xf7;" horiz-adv-x="1046" d="M96 635v176h854v-176h-854zM420 344v119q0 49 49 49h115q49 0 49 -49v-119q0 -47 -49 -47h-115q-23 0 -36 13.5t-13 33.5zM420 971v116q0 51 49 52h115q49 0 49 -52v-116q0 -47 -49 -47h-115q-37 0 -47 30q-2 9 -2 17z" />
<glyph unicode="&#xf8;" horiz-adv-x="1169" d="M98 0l95 129q-90 117 -90.5 370t47 375.5t149.5 173t290.5 50.5t291.5 -54l32 43h142l-86 -114q100 -121 100 -435.5t-103.5 -431t-379.5 -116.5q-205 0 -314 65l-43 -55h-131zM291 498q0 -123 35 -199l442 598q-53 29 -147.5 29t-131 -4t-74.5 -17.5t-57.5 -39 t-37 -70.5t-23.5 -109.5t-6 -187.5zM385 203q53 -39 191.5 -39t189.5 24.5t72 65.5q43 88 43 282.5t-41 272.5z" />
<glyph unicode="&#xf9;" d="M96 340v747h189v-749q0 -92 45 -137t135 -45t159.5 23.5t190.5 86.5v821h189v-1087h-142l-47 123q-12 -6 -49 -28.5t-52.5 -30t-48 -24.5t-54 -24.5t-54.5 -17.5q-55 -16 -129 -16q-162 0 -247 103t-85 255zM223 1495h211l209 -274h-154z" />
<glyph unicode="&#xfa;" d="M96 340v747h189v-749q0 -92 45 -137t135 -45t159.5 23.5t190.5 86.5v821h189v-1087h-142l-47 123q-12 -6 -49 -28.5t-52.5 -30t-48 -24.5t-54 -24.5t-54.5 -17.5q-55 -16 -129 -16q-162 0 -247 103t-85 255zM473 1221l209 274h211l-266 -274h-154z" />
<glyph unicode="&#xfb;" d="M96 340v747h189v-749q0 -92 45 -137t135 -45t159.5 23.5t190.5 86.5v821h189v-1087h-142l-47 123q-12 -6 -49 -28.5t-52.5 -30t-48 -24.5t-54 -24.5t-54.5 -17.5q-55 -16 -129 -16q-162 0 -247 103t-85 255zM246 1221l233 270h164l209 -270h-158l-137 139l-151 -139h-160 z" />
<glyph unicode="&#xfc;" d="M96 340v747h189v-749q0 -92 45 -137t135 -45t159.5 23.5t190.5 86.5v821h189v-1087h-142l-47 123q-12 -6 -49 -28.5t-52.5 -30t-48 -24.5t-54 -24.5t-54.5 -17.5q-55 -16 -129 -16q-162 0 -247 103t-85 255zM180 1329q0 45 32 77t77 32t75.5 -32t30.5 -77t-30.5 -76.5 t-75.5 -31.5t-77 31.5t-32 76.5zM702 1329q0 45 32 77t77 32t76 -32t31 -77t-31 -76.5t-76 -31.5t-77 31.5t-32 76.5z" />
<glyph unicode="&#xfd;" horiz-adv-x="1146" d="M41 1087h203l241 -825q31 -100 125 -82l4 2l287 905h205l-453 -1431l-151 -209h-125l182 553q-197 0 -266 240zM496 1221l211 274h208l-266 -274h-153z" />
<glyph unicode="&#xfe;" horiz-adv-x="1134" d="M133 -553v2155h189v-635q84 63 200.5 99t188 36t133 -30t101.5 -81t67 -123q47 -133 47 -323q0 -322 -96 -451q-86 -117 -261 -117q-78 0 -186 21.5t-194 58.5v-610h-189zM322 197q127 -37 311 -45q39 -2 49 -2q61 0 100 30.5t63.5 119.5t24.5 260t-50 268.5t-138 97.5 q-160 -8 -360 -95v-634z" />
<glyph unicode="&#xff;" horiz-adv-x="1146" d="M41 1087h203l241 -825q31 -100 125 -82l4 2l287 905h205l-453 -1431l-151 -209h-125l182 553q-197 0 -266 240zM203 1329q0 45 32.5 77t77.5 32t76 -32t31 -77t-32 -76.5t-76 -31.5t-76.5 31.5t-32.5 76.5zM725 1329q0 45 33 77t78 32t75.5 -32t30.5 -77t-31.5 -76.5 t-75.5 -31.5t-77 31.5t-33 76.5z" />
<glyph unicode="&#x100;" horiz-adv-x="1384" d="M86 0l539 1499h198l516 -1499h-215l-123 395h-567l-129 -395h-219zM426 1632v137h598v-137h-598zM494 573h450l-221 656z" />
<glyph unicode="&#x101;" horiz-adv-x="1062" d="M76 264v119q0 125 74.5 202t209.5 77h314h104q2 59 2 88.5t-1 48t-8 45t-20.5 45t-33.5 29.5q-37 23 -101 20q-168 0 -505 -23v129q209 63 528 64q201 0 283 -135q45 -76 45 -191v-782h-144l-45 127q-6 -6 -67.5 -38t-166 -66.5t-184.5 -34.5q-127 0 -205.5 75.5 t-78.5 200.5zM258 1231v137h598v-137h-598zM264 283q0 -123 117 -123q68 0 167 25.5t165 50.5l65 24v266l-401 -28q-113 -10 -113 -127v-88z" />
<glyph unicode="&#x102;" horiz-adv-x="1384" d="M86 0l539 1499h198l516 -1499h-215l-123 395h-567l-129 -395h-219zM489 1866h103q0 -55 39 -93t95 -38t94 35.5t38 95.5h103q0 -109 -72 -171.5t-166 -62.5t-164 65t-70 169zM494 573h450l-221 656z" />
<glyph unicode="&#x103;" horiz-adv-x="1062" d="M76 264v119q0 125 74.5 202t209.5 77h314h104q2 59 2 88.5t-1 48t-8 45t-20.5 45t-33.5 29.5q-37 23 -101 20q-168 0 -505 -23v129q209 63 528 64q201 0 283 -135q45 -76 45 -191v-782h-144l-45 127q-6 -6 -67.5 -38t-166 -66.5t-184.5 -34.5q-127 0 -205.5 75.5 t-78.5 200.5zM264 283q0 -123 117 -123q68 0 167 25.5t165 50.5l65 24v266l-401 -28q-113 -10 -113 -127v-88zM322 1464h102q0 -55 40 -93t95 -38t93 36t38 95h103q0 -109 -71 -171t-165 -62t-164.5 64.5t-70.5 168.5z" />
<glyph unicode="&#x104;" horiz-adv-x="1384" d="M86 0l539 1499h198l516 -1499h-215l-123 395h-567l-129 -395h-219zM494 573h450l-221 656zM1030 -191.5q0 50.5 39 101.5t125 90h88q-115 -94 -115 -162q0 -78 125 -80v-131q-23 -4 -55.5 -4t-82.5 18.5t-83 61.5q-41 55 -41 105.5z" />
<glyph unicode="&#x105;" horiz-adv-x="1062" d="M76 264v119q0 125 74.5 202t209.5 77h314h104q2 59 2 88.5t-1 48t-8 45t-20.5 45t-33.5 29.5q-37 23 -101 20q-168 0 -505 -23v129q209 63 528 64q201 0 283 -135q45 -76 45 -191v-782h-144l-45 127q-6 -6 -67.5 -38t-166 -66.5t-184.5 -34.5q-127 0 -205.5 75.5 t-78.5 200.5zM264 283q0 -123 117 -123q68 0 167 25.5t165 50.5l65 24v266l-401 -28q-113 -10 -113 -127v-88zM690 -191.5q0 50.5 39 101.5t125 90h88q-113 -94 -113 -162q0 -78 123 -80v-131q-23 -4 -55.5 -4t-82.5 17.5t-83 62.5q-41 55 -41 105.5z" />
<glyph unicode="&#x106;" horiz-adv-x="1179" d="M104 741q0 164 13.5 276.5t47.5 210t89 158.5q121 129 354 130q250 0 506 -56v-149l-11 1t-29.5 2t-44 3t-56.5 3t-65 3t-70.5 4t-73.5 4q-76 2 -155 2t-138 -22.5t-101 -87t-59.5 -178t-17.5 -241.5t5 -191.5t16.5 -124t27.5 -108.5t43 -88t61 -67q72 -55 175 -55 q197 0 419 10l74 4v-147q-102 -23 -246.5 -36t-200 -13h-59.5q-279 0 -395 215q-109 200 -109 538zM598 1638l211 275h209l-266 -275h-154z" />
<glyph unicode="&#x107;" horiz-adv-x="1019" d="M96 545q0 137 17.5 236.5t47 159.5t77.5 97q82 59 192 60q256 0 500 -58v-127q-260 12 -374 12.5t-139.5 -5t-54 -26t-43.5 -60.5q-35 -96 -34.5 -272.5t21 -257.5t62.5 -110.5t124 -29.5q164 0 380 14l72 6v-133q-111 -37 -220.5 -48t-222 -12t-162.5 11t-98 48 t-78 96.5t-48.5 161t-18.5 237.5zM477 1225l209 274h211l-266 -274h-154z" />
<glyph unicode="&#x108;" horiz-adv-x="1179" d="M104 741q0 164 13.5 276.5t47.5 210t89 158.5q121 129 354 130q250 0 506 -56v-149l-11 1t-29.5 2t-44 3t-56.5 3t-65 3t-70.5 4t-73.5 4q-76 2 -155 2t-138 -22.5t-101 -87t-59.5 -178t-17.5 -241.5t5 -191.5t16.5 -124t27.5 -108.5t43 -88t61 -67q72 -55 175 -55 q197 0 419 10l74 4v-147q-102 -23 -246.5 -36t-200 -13h-59.5q-279 0 -395 215q-109 200 -109 538zM371 1638l235 271h164l209 -271h-158l-139 140l-152 -140h-159z" />
<glyph unicode="&#x109;" horiz-adv-x="1019" d="M96 545q0 137 17.5 236.5t47 159.5t77.5 97q82 59 192 60q256 0 500 -58v-127q-260 12 -374 12.5t-139.5 -5t-54 -26t-43.5 -60.5q-35 -96 -34.5 -272.5t21 -257.5t62.5 -110.5t124 -29.5q164 0 380 14l72 6v-133q-111 -37 -220.5 -48t-222 -12t-162.5 11t-98 48 t-78 96.5t-48.5 161t-18.5 237.5zM268 1225l236 268h164l209 -268h-158l-139 139l-152 -139h-160z" />
<glyph unicode="&#x10a;" horiz-adv-x="1179" d="M104 741q0 164 13.5 276.5t47.5 210t89 158.5q121 129 354 130q250 0 506 -56v-149l-11 1t-29.5 2t-44 3t-56.5 3t-65 3t-70.5 4t-73.5 4q-76 2 -155 2t-138 -22.5t-101 -87t-59.5 -178t-17.5 -241.5t5 -191.5t16.5 -124t27.5 -108.5t43 -88t61 -67q72 -55 175 -55 q197 0 419 10l74 4v-147q-102 -23 -246.5 -36t-200 -13h-59.5q-279 0 -395 215q-109 200 -109 538zM584 1690v122q0 51 49 52h115q23 0 35 -14.5t12 -37.5v-122q0 -47 -47 -48h-115q-23 0 -36 12.5t-13 35.5z" />
<glyph unicode="&#x10b;" horiz-adv-x="1019" d="M96 545q0 137 17.5 236.5t47 159.5t77.5 97q82 59 192 60q256 0 500 -58v-127q-260 12 -374 12.5t-139.5 -5t-54 -26t-43.5 -60.5q-35 -96 -34.5 -272.5t21 -257.5t62.5 -110.5t124 -29.5q164 0 380 14l72 6v-133q-111 -37 -220.5 -48t-222 -12t-162.5 11t-98 48 t-78 96.5t-48.5 161t-18.5 237.5zM489 1274v123q0 51 50 51h114q23 0 35 -14.5t12 -36.5v-123q0 -47 -47 -47h-114q-20 0 -35 13.5t-15 33.5z" />
<glyph unicode="&#x10c;" horiz-adv-x="1179" d="M104 741q0 164 13.5 276.5t47.5 210t89 158.5q121 129 354 130q250 0 506 -56v-149l-11 1t-29.5 2t-44 3t-56.5 3t-65 3t-70.5 4t-73.5 4q-76 2 -155 2t-138 -22.5t-101 -87t-59.5 -178t-17.5 -241.5t5 -191.5t16.5 -124t27.5 -108.5t43 -88t61 -67q72 -55 175 -55 q197 0 419 10l74 4v-147q-102 -23 -246.5 -36t-200 -13h-59.5q-279 0 -395 215q-109 200 -109 538zM383 1909h160l153 -140l135 140h158l-211 -271h-164z" />
<glyph unicode="&#x10d;" horiz-adv-x="1019" d="M96 545q0 137 17.5 236.5t47 159.5t77.5 97q82 59 192 60q256 0 500 -58v-127q-260 12 -374 12.5t-139.5 -5t-54 -26t-43.5 -60.5q-35 -96 -34.5 -272.5t21 -257.5t62.5 -110.5t124 -29.5q164 0 380 14l72 6v-133q-111 -37 -220.5 -48t-222 -12t-162.5 11t-98 48 t-78 96.5t-48.5 161t-18.5 237.5zM248 1493h158l155 -139l135 139h158l-211 -268h-164z" />
<glyph unicode="&#x10e;" horiz-adv-x="1347" d="M154 0v1499h577q131 0 229.5 -49t153.5 -123t90 -178q57 -174 58 -406q0 -381 -177 -587q-59 -72 -150 -114t-204 -42h-577zM342 184h383q121 0 201 78q147 141 147 467t-88 458t-260 132h-383v-1135zM348 1892h160l154 -139l135 139h157l-211 -268h-163z" />
<glyph unicode="&#x10f;" horiz-adv-x="1163" d="M96 539q0 324 99 452q86 113 258 113q106 0 214.5 -27.5t168.5 -52.5v584h186v-1608h-143l-43 119q-53 -41 -172 -86t-211 -45q-357 0 -357 551zM285 541q0 -377 188 -377q168 0 363 88v631q-178 49 -363 49q-63 0 -102 -29q-86 -67 -86 -362zM1120 1597h166v-137 l-22 -274h-121l-21 274z" />
<glyph unicode="&#x110;" horiz-adv-x="1347" d="M20 705v118h134v674q0 2 579 2q266 0 397 -196q131 -193 132 -560q0 -381 -175 -587q-59 -72 -150 -114t-204 -42h-579v705h-134zM342 184h385q119 0 197 78q143 141 143 483q0 565 -340 566l-385 -2v-486h268v-118h-268v-521z" />
<glyph unicode="&#x111;" horiz-adv-x="1138" d="M94 539q0 324 99 452q86 113 258 113q106 0 214.5 -27.5t168.5 -52.5v231h-242v117h242v236h186v-236h143v-117h-143v-1255h-143l-43 119q-53 -41 -172 -86t-211 -45q-357 0 -357 551zM283 541q0 -377 188 -377q168 0 363 88v631q-178 49 -363 49q-63 0 -102 -29 q-86 -67 -86 -362z" />
<glyph unicode="&#x112;" horiz-adv-x="1161" d="M152 264v957q0 152 77.5 215t184.5 63q8 0 318 -14.5t347 -18.5v-151h-633q-76 0 -94 -37q-12 -29 -12 -78v-360l653 -21v-153l-653 -21v-360q2 -78 43 -95q33 -12 84 -12h612v-149l-630 -35h-33q-264 0 -264 270zM350 1628v139h598v-139h-598z" />
<glyph unicode="&#x113;" horiz-adv-x="1075" d="M96 511.5q0 280.5 47 391.5q27 61 62 99t92 59q98 35 274 35q209 0 283 -39q80 -43 109 -115q37 -90 36 -233q0 -258 -286 -258h-428q0 -174 45 -231.5t168 -57.5q338 0 481 22v-137q-188 -57 -524 -57q-207 0 -283 120.5t-76 401zM262 1219v139h598v-139h-598zM285 616 h407q119 0 119 95q0 78 -8 116.5t-36 62t-69 30t-102 6.5t-85 -1t-55.5 -3t-48 -8.5t-39 -16.5t-32.5 -26.5t-22.5 -39t-16.5 -53.5q-12 -76 -12 -162z" />
<glyph unicode="&#x116;" horiz-adv-x="1161" d="M152 264v957q0 152 77.5 215t184.5 63q8 0 318 -14.5t347 -18.5v-151h-633q-76 0 -94 -37q-12 -29 -12 -78v-360l653 -21v-153l-653 -21v-360q2 -78 43 -95q33 -12 84 -12h612v-149l-630 -35h-33q-264 0 -264 270zM553 1673v123q0 51 49 51h115q23 0 35 -14t12 -37v-123 q0 -47 -47 -47h-115q-20 0 -34.5 13.5t-14.5 33.5z" />
<glyph unicode="&#x117;" horiz-adv-x="1075" d="M96 511.5q0 280.5 47 391.5q27 61 62 99t92 59q98 35 274 35q209 0 283 -39q80 -43 109 -115q37 -90 36 -233q0 -258 -286 -258h-428q0 -174 45 -231.5t168 -57.5q338 0 481 22v-137q-188 -57 -524 -57q-207 0 -283 120.5t-76 401zM285 616h407q119 0 119 95 q0 78 -8 116.5t-36 62t-69 30t-102 6.5t-85 -1t-55.5 -3t-48 -8.5t-39 -16.5t-32.5 -26.5t-22.5 -39t-16.5 -53.5q-12 -76 -12 -162zM453 1268v123q0 51 49 51h114q23 0 35.5 -14.5t12.5 -36.5v-123q0 -47 -48 -47h-114q-23 0 -36 13.5t-13 33.5z" />
<glyph unicode="&#x118;" horiz-adv-x="1161" d="M152 264v957q0 152 77.5 215t184.5 63q8 0 318 -14.5t347 -18.5v-151h-633q-76 0 -94 -37q-12 -29 -12 -78v-360l653 -21v-153l-653 -21v-360q2 -78 43 -95q33 -12 84 -12h612v-149l-630 -35h-33q-264 0 -264 270zM825 -163q0 50 39 101.5t125 90.5h90 q-114 -96 -114 -162q0 -78 122 -80v-133q-23 -2 -55.5 -2t-82.5 17.5t-83 62.5q-41 55 -41 105z" />
<glyph unicode="&#x119;" horiz-adv-x="1075" d="M96 511.5q0 280.5 47 391.5q27 61 62 99t92 59q98 35 274 35q209 0 283 -39q80 -43 109 -115q37 -90 36 -233q0 -258 -286 -258h-428q0 -174 45 -231.5t168 -57.5q338 0 481 22v-137q-188 -57 -524 -57q-207 0 -283 120.5t-76 401zM285 616h407q119 0 119 95 q0 78 -8 116.5t-36 62t-69 30t-102 6.5t-85 -1t-55.5 -3t-48 -8.5t-39 -16.5t-32.5 -26.5t-22.5 -39t-16.5 -53.5q-12 -76 -12 -162zM725 -144.5q0 50.5 39 101.5t125 90h90q-115 -94 -115 -162q0 -78 123 -80v-133q-23 -2 -55.5 -2t-82.5 17.5t-83 62.5q-41 55 -41 105.5z " />
<glyph unicode="&#x11a;" horiz-adv-x="1161" d="M152 264v957q0 152 77.5 215t184.5 63q8 0 318 -14.5t347 -18.5v-151h-633q-76 0 -94 -37q-12 -29 -12 -78v-360l653 -21v-153l-653 -21v-360q2 -78 43 -95q33 -12 84 -12h612v-149l-630 -35h-33q-264 0 -264 270zM344 1892h160l153 -139l136 139h157l-211 -268h-164z " />
<glyph unicode="&#x11b;" horiz-adv-x="1075" d="M96 511.5q0 280.5 47 391.5q27 61 62 99t92 59q98 35 274 35q209 0 283 -39q80 -43 109 -115q37 -90 36 -233q0 -258 -286 -258h-428q0 -174 45 -231.5t168 -57.5q338 0 481 22v-137q-188 -57 -524 -57q-207 0 -283 120.5t-76 401zM262 1481h158l155 -140l136 140h157 l-211 -269h-163zM285 616h407q119 0 119 95q0 78 -8 116.5t-36 62t-69 30t-102 6.5t-85 -1t-55.5 -3t-48 -8.5t-39 -16.5t-32.5 -26.5t-22.5 -39t-16.5 -53.5q-12 -76 -12 -162z" />
<glyph unicode="&#x11c;" horiz-adv-x="1257" d="M104.5 753.5q-0.5 139.5 11 244t42 206t84.5 166.5q115 145 346 146q106 0 259.5 -16.5t274.5 -41.5v-149q-2 0 -36.5 3t-90 7t-118.5 8q-154 8 -245 8t-139.5 -14t-83 -47t-57 -78t-35.5 -113q-25 -123 -24 -329q0 -330 67 -455q70 -127 252 -127q66 0 154 22.5 t143 47.5l56 24v371h-308v125q160 49 357 49q66 0 139 -4v-807h-139l-45 100q-172 -111 -389 -110q-227 0 -342 141q-98 123 -123 379q-10 104 -10.5 243.5zM383 1638l235 271h164l209 -271h-157l-140 140l-151 -140h-160z" />
<glyph unicode="&#x11d;" horiz-adv-x="1136" d="M90 -74l84 125q-82 55 -82 178q0 59 31 110.5t90 66.5q-61 39 -90 121.5t-29 177.5q0 193 94.5 290t266.5 97h645v-129l-154 -37q2 -4 14.5 -26.5t16.5 -34t12 -38.5q14 -47 14.5 -112.5t-7 -111.5t-30 -101.5t-59.5 -97.5t-101.5 -70.5t-148.5 -28.5h-301q-84 0 -84 -57 q0 -66 84 -66h408q133 0 206.5 -77.5t73.5 -215.5v-127q0 -231 -182 -294q-57 -20 -135 -21h-307q-205 0 -287 139q-43 72 -43 176v164zM262 1223l234 268h163l209 -268h-157l-140 139l-149 -139h-160zM279 23v-250q0 -100 55 -129q45 -25 108 -25h269q82 0 113.5 40 t31.5 112v108q0 70 -26.5 99.5t-104.5 29.5h-356q-51 0 -90 15zM283 698.5q0 -219.5 174 -219.5h176q143 0 176 150q6 31 6 50t-1 49t-9 66.5t-29 67.5q-39 55 -145 56h-164q-184 0 -184 -219.5z" />
<glyph unicode="&#x11e;" horiz-adv-x="1257" d="M104.5 753.5q-0.5 139.5 11 244t42 206t84.5 166.5q115 145 346 146q106 0 259.5 -16.5t274.5 -41.5v-149q-2 0 -36.5 3t-90 7t-118.5 8q-154 8 -245 8t-139.5 -14t-83 -47t-57 -78t-35.5 -113q-25 -123 -24 -329q0 -330 67 -455q70 -127 252 -127q66 0 154 22.5 t143 47.5l56 24v371h-308v125q160 49 357 49q66 0 139 -4v-807h-139l-45 100q-172 -111 -389 -110q-227 0 -342 141q-98 123 -123 379q-10 104 -10.5 243.5zM446 1872h103q0 -55 40 -93t96 -38t93 35.5t37 95.5h103q0 -109 -71 -171.5t-165 -62.5t-165 65t-71 169z" />
<glyph unicode="&#x11f;" horiz-adv-x="1136" d="M90 -74l84 125q-82 55 -82 178q0 59 31 110.5t90 66.5q-61 39 -90 121.5t-29 177.5q0 193 94.5 290t266.5 97h645v-129l-154 -37q2 -4 14.5 -26.5t16.5 -34t12 -38.5q14 -47 14.5 -112.5t-7 -111.5t-30 -101.5t-59.5 -97.5t-101.5 -70.5t-148.5 -28.5h-301q-84 0 -84 -57 q0 -66 84 -66h408q133 0 206.5 -77.5t73.5 -215.5v-127q0 -231 -182 -294q-57 -20 -135 -21h-307q-205 0 -287 139q-43 72 -43 176v164zM279 23v-250q0 -100 55 -129q45 -25 108 -25h269q82 0 113.5 40t31.5 112v108q0 70 -26.5 99.5t-104.5 29.5h-356q-51 0 -90 15z M283 698.5q0 -219.5 174 -219.5h176q143 0 176 150q6 31 6 50t-1 49t-9 66.5t-29 67.5q-39 55 -145 56h-164q-184 0 -184 -219.5zM328 1456h102q0 -57 40 -94t95.5 -37t93 35t37.5 96h103q0 -74 -35 -129q-70 -104 -203 -104q-92 0 -162.5 64.5t-70.5 168.5z" />
<glyph unicode="&#x120;" horiz-adv-x="1257" d="M104.5 753.5q-0.5 139.5 11 244t42 206t84.5 166.5q115 145 346 146q106 0 259.5 -16.5t274.5 -41.5v-149q-2 0 -36.5 3t-90 7t-118.5 8q-154 8 -245 8t-139.5 -14t-83 -47t-57 -78t-35.5 -113q-25 -123 -24 -329q0 -330 67 -455q70 -127 252 -127q66 0 154 22.5 t143 47.5l56 24v371h-308v125q160 49 357 49q66 0 139 -4v-807h-139l-45 100q-172 -111 -389 -110q-227 0 -342 141q-98 123 -123 379q-10 104 -10.5 243.5zM565 1686v122q0 51 49 52h115q20 0 33.5 -14.5t13.5 -37.5v-122q0 -47 -47 -48h-115q-23 0 -36 14t-13 34z" />
<glyph unicode="&#x121;" horiz-adv-x="1136" d="M90 -74l84 125q-82 55 -82 178q0 59 31 110.5t90 66.5q-61 39 -90 121.5t-29 177.5q0 193 94.5 290t266.5 97h645v-129l-154 -37q2 -4 14.5 -26.5t16.5 -34t12 -38.5q14 -47 14.5 -112.5t-7 -111.5t-30 -101.5t-59.5 -97.5t-101.5 -70.5t-148.5 -28.5h-301q-84 0 -84 -57 q0 -66 84 -66h408q133 0 206.5 -77.5t73.5 -215.5v-127q0 -231 -182 -294q-57 -20 -135 -21h-307q-205 0 -287 139q-43 72 -43 176v164zM279 23v-250q0 -100 55 -129q45 -25 108 -25h269q82 0 113.5 40t31.5 112v108q0 70 -26.5 99.5t-104.5 29.5h-356q-51 0 -90 15z M283 698.5q0 -219.5 174 -219.5h176q143 0 176 150q6 31 6 50t-1 49t-9 66.5t-29 67.5q-39 55 -145 56h-164q-184 0 -184 -219.5zM465 1274v123q0 51 49 51h115q23 0 35 -15.5t12 -35.5v-123q0 -47 -47 -47h-115q-23 0 -36 12t-13 35z" />
<glyph unicode="&#x122;" horiz-adv-x="1257" d="M104.5 753.5q-0.5 139.5 11 244t42 206t84.5 166.5q115 145 346 146q106 0 259.5 -16.5t274.5 -41.5v-149q-2 0 -36.5 3t-90 7t-118.5 8q-154 8 -245 8t-139.5 -14t-83 -47t-57 -78t-35.5 -113q-25 -123 -24 -329q0 -330 67 -455q70 -127 252 -127q66 0 154 22.5 t143 47.5l56 24v371h-308v125q160 49 357 49q66 0 139 -4v-807h-139l-45 100q-172 -111 -389 -110q-227 0 -342 141q-98 123 -123 379q-10 104 -10.5 243.5zM553 -205q0 51 47 51h111q43 0 43 -51v-182q0 -145 -152 -145q-10 0 -39 4v67q57 -2 58 55v39h-21q-47 0 -47 48 v114z" />
<glyph unicode="&#x123;" horiz-adv-x="1136" d="M90 -70l88 123q-86 59 -86 174q0 61 31 113.5t90 65.5q-119 76 -119 283.5t94.5 305t266.5 97.5h645v-131l-154 -37q2 -2 14.5 -24.5t16.5 -34t12 -38.5q14 -47 14.5 -112.5t-7 -111.5t-30 -101.5t-59.5 -97.5t-101.5 -70.5t-148.5 -28.5h-301q-84 0 -84 -61 q0 -35 20.5 -47.5t63.5 -18.5l383 -47q190 -25 267 -147q39 -63 38 -154v-68q0 -231 -182 -294q-57 -20 -135 -21h-307q-205 0 -287 139q-43 72 -43 176v168zM279 18v-245q0 -100 55 -129q45 -25 108 -25h269q82 0 113.5 40t31.5 112v53q0 119 -166 139l-303 39zM283 705 q0 -158 86 -209q37 -20 88 -21h176q143 0 176 152q6 33 6 51q0 133 -41 188.5t-143 55.5h-164q-184 0 -184 -217zM461 1264v182q0 147 151 147q10 0 39 -4v-67q-25 0 -39 -11q-18 -14 -18 -45v-41h20q47 0 48 -45v-116q0 -49 -48 -50h-110q-43 0 -43 50z" />
<glyph unicode="&#x124;" horiz-adv-x="1304" d="M154 0v1499h188v-684h662v684h188v-1499h-188v635h-662v-635h-188zM369 1632l233 269h164l209 -269h-156l-139 140l-152 -140h-159z" />
<glyph unicode="&#x125;" d="M-119 1729l234 268h164l208 -268h-157l-140 139l-149 -139h-160zM92 0v1606h187v-643q6 4 33.5 21t35.5 21.5t34 19.5t36 19.5t34.5 15.5t39 16t39 12.5t42.5 9.5q53 8 93 8q162 0 247.5 -103.5t85.5 -252.5v-750h-188v750q0 92 -45 138t-136 46t-161 -24.5t-188 -86.5 v-823h-189z" />
<glyph unicode="&#x126;" horiz-adv-x="1361" d="M37 1057v117h125v325h188v-325h662v325h188v-325h123v-117h-123v-1057h-188v635h-662v-635h-188v1057h-125zM350 815h662v242h-662v-242z" />
<glyph unicode="&#x127;" horiz-adv-x="1124" d="M-29 1245v117h152v244h192v-244h265v-117h-265v-282q76 45 129 71q143 72 265 72h7h11q145 0 224 -100.5t79 -253.5v-752h-194v748q-4 94 -43 141t-131 47q-143 -6 -345 -113v-823h-194v1245h-152z" />
<glyph unicode="&#x128;" horiz-adv-x="454" d="M-100 1724q117 102 180 123q80 27 168 -16t101.5 -44t15.5 -1q55 0 184 76l45 -97q-4 -4 -31.5 -27.5t-38 -31.5t-36 -26.5t-44.5 -24.5q-94 -43 -206 16q-63 33 -99 33q-63 0 -117.5 -31t-76.5 -41zM154 0v1499h188v-1499h-188z" />
<glyph unicode="&#x129;" horiz-adv-x="417" d="M-139 1313q49 43 80 67q86 66 146 65t102 -18.5t75 -33.5q37 -19 64 -19q55 0 182 76l47 -96q-6 -4 -32.5 -27.5t-38 -32t-37 -27t-41.5 -24.5q-86 -39 -172 0q-41 16 -72 32.5t-46.5 16.5h-37t-50 -10t-65.5 -30.5t-59 -30.5zM115 0v1087h188v-1087h-188z" />
<glyph unicode="&#x12a;" horiz-adv-x="454" d="M-51 1632v137h598v-137h-598zM154 0v1499h188v-1499h-188z" />
<glyph unicode="&#x12b;" horiz-adv-x="417" d="M-90 1221v139h598v-139h-598zM115 0v1087h188v-1087h-188z" />
<glyph unicode="&#x12e;" horiz-adv-x="454" d="M47 -191.5q0 50.5 38 101.5t126 90h88q-115 -94 -115 -162q0 -78 125 -80v-131q-23 -4 -55.5 -4t-83.5 17.5t-82 62.5q-41 55 -41 105.5zM154 0v1499h188v-1499h-188z" />
<glyph unicode="&#x12f;" horiz-adv-x="419" d="M8 -191.5q0 50.5 39 101.5t125 90h90q-115 -94 -115 -162q0 -78 123 -80v-131q-23 -4 -55.5 -4t-82.5 17.5t-83 62.5q-41 55 -41 105.5zM96 1260v129q0 53 49 53h134q23 0 35 -15.5t12 -37.5v-129q0 -47 -47 -48h-134q-23 0 -36 14t-13 34zM113 0v1087h188v-1087h-188z " />
<glyph unicode="&#x130;" horiz-adv-x="454" d="M141 1679v123q0 51 49 51h115q23 0 35 -14t12 -37v-123q0 -47 -47 -47h-115q-20 0 -34.5 13.5t-14.5 33.5zM154 0v1499h188v-1499h-188z" />
<glyph unicode="&#x131;" horiz-adv-x="417" d="M115 0v1087h188v-1087h-188z" />
<glyph unicode="&#x134;" horiz-adv-x="733" d="M68 45l6 141q6 -2 31.5 -7t46 -8t58.5 -8t58.5 -2t50 8t46 21.5t34.5 38.5q31 43 31 144v1126h188v-1161q0 -66 -4 -110t-29.5 -102t-72.5 -89q-78 -49 -218 -49t-226 57zM221 1632l236 269h164l208 -269h-157l-140 140l-151 -140h-160z" />
<glyph unicode="&#x135;" horiz-adv-x="458" d="M-76 1225l234 321h164l208 -321h-139l-158 174l-167 -174h-142zM133 -553v1640h197v-1095v-35q0 -299 -60 -510h-137z" />
<glyph unicode="&#x136;" horiz-adv-x="1230" d="M154 0v1499h184v-659h156l446 659h225l-501 -747l501 -752h-225l-446 659h-154v-659h-186zM530 -193q0 49 48 50h110q43 0 43 -50v-184q1 -145 -153 -145q-16 0 -37 4v67q25 0 39 11q16 12 16 43v41h-18q-47 0 -48 47v116z" />
<glyph unicode="&#x137;" horiz-adv-x="1054" d="M115 0v1602h188v-895h76l387 380h252l-463 -464l463 -623h-230l-409 537h-76v-537h-188zM440 -193q0 49 45 50h111q45 0 45 -50v-184q0 -145 -154 -145q-10 0 -38 4v67q27 0 38 11q18 12 19 43v41h-21q-45 0 -45 47v116z" />
<glyph unicode="&#x138;" horiz-adv-x="1087" d="M115 0v1087h188v-464h154l364 464h230l-424 -546l393 -541h-229l-340 455h-146l-2 -455h-188z" />
<glyph unicode="&#x139;" horiz-adv-x="1130" d="M154 266v1233h188v-1210q0 -78 43 -94q31 -12 84 -13h596v-182h-625q-209 0 -264 129q-22 55 -22 137zM170 1632l211 277h209l-266 -277h-154z" />
<glyph unicode="&#x13a;" horiz-adv-x="620" d="M115 387v1217h188v-1205q0 -121 27.5 -168t83.5 -61q156 -43 170 -43v-127h-195q-274 0 -274 387zM186 1726l211 277h209l-266 -277h-154z" />
<glyph unicode="&#x13b;" horiz-adv-x="1130" d="M154 266v1233h188v-1210q0 -78 43 -94q31 -12 84 -13h596v-182h-625q-209 0 -264 129q-22 55 -22 137zM524 -193q0 51 47 52h111q43 0 43 -52v-182q0 -145 -152 -145q-10 0 -38 4v67q51 -2 55 41q2 4 2 13v41h-21q-47 0 -47 47v114z" />
<glyph unicode="&#x13c;" horiz-adv-x="620" d="M115 387v1217h188v-1205q0 -121 27.5 -168t83.5 -61q156 -43 170 -43v-127h-195q-274 0 -274 387zM246 -193q0 49 47 50h110q43 0 43 -50v-182q0 -147 -151 -147q-10 0 -39 6v67q57 -2 57 54v41h-20q-47 0 -47 45v116z" />
<glyph unicode="&#x13d;" horiz-adv-x="1130" d="M154 266v1233h188v-1210q0 -78 43 -94q31 -12 84 -13h596v-182h-625q-209 0 -264 129q-22 55 -22 137zM492 1444v137h163v-137l-20 -275h-121z" />
<glyph unicode="&#x13e;" horiz-adv-x="645" d="M115 387v1217h188v-1205q0 -125 22.5 -167t88.5 -62q156 -43 170 -43v-127h-195q-147 0 -210.5 87t-63.5 300zM453 1462v137h163v-137l-20 -274h-121z" />
<glyph unicode="&#x141;" horiz-adv-x="1144" d="M4 647v131l166 72v649h188v-567l273 117l-2 -131l-271 -117v-512q0 -78 43 -94q33 -12 84 -13h596v-182h-622q-211 0 -264 129q-25 55 -25 137v453z" />
<glyph unicode="&#x142;" horiz-adv-x="690" d="M20 745v132l162 67v660h189v-578l276 121l-2 -131l-274 -119v-498q0 -121 26.5 -168t83.5 -61q156 -43 170 -43v-127h-196q-272 0 -273 387v428z" />
<glyph unicode="&#x143;" horiz-adv-x="1390" d="M154 0v1499h192l744 -1149v1149h188v-1499h-188l-746 1147v-1147h-190zM655 1632l211 277h209l-266 -277h-154z" />
<glyph unicode="&#x144;" d="M115 0v1087h141l47 -124q8 6 44 27.5t64.5 37.5t77.5 37q90 41 201 41q160 0 246 -103.5t86 -252.5v-750h-188v750q0 92 -45.5 138t-135.5 46t-159.5 -24.5t-190.5 -86.5v-823h-188zM485 1229l211 274h209l-266 -274h-154z" />
<glyph unicode="&#x145;" horiz-adv-x="1390" d="M154 0v1499h192l744 -1149v1149h188v-1499h-188l-746 1147v-1147h-190zM612 -193q0 49 45 50h111q45 0 45 -50v-184q0 -145 -154 -145q-16 0 -38 4v67q27 0 38 11q18 12 19 43v41h-21q-45 0 -45 47v116z" />
<glyph unicode="&#x146;" d="M115 0v1087h141l47 -124q8 6 44 27.5t64.5 37.5t77.5 37q90 41 201 41q160 0 246 -103.5t86 -252.5v-750h-188v750q0 92 -45.5 138t-135.5 46t-159.5 -24.5t-190.5 -86.5v-823h-188zM469 -193q0 49 45 50h111q45 0 45 -50v-184q0 -145 -154 -145q-10 0 -39 4v67 q27 0 39 11q18 12 19 43v41h-21q-45 0 -45 47v116z" />
<glyph unicode="&#x147;" horiz-adv-x="1390" d="M154 0v1499h192l744 -1149v1149h188v-1499h-188l-746 1147v-1147h-190zM428 1901h160l155 -140l136 140h157l-211 -269h-163z" />
<glyph unicode="&#x148;" d="M115 0v1087h141l47 -124q8 6 44 27.5t64.5 37.5t77.5 37q90 41 201 41q160 0 246 -103.5t86 -252.5v-750h-188v750q0 92 -45.5 138t-135.5 46t-159.5 -24.5t-190.5 -86.5v-823h-188zM285 1499h159l154 -139l135 139h158l-211 -270h-164z" />
<glyph unicode="&#x14a;" horiz-adv-x="1386" d="M154 0v1499h192l739 -1130v1130h189v-1665q0 -262 -195 -328q-94 -33 -235 -32h-31v141q16 4 59 12t64.5 13.5t55.5 21.5t50 39q43 59 43 160v139l-739 1147l-4 -1147h-188z" />
<glyph unicode="&#x14b;" horiz-adv-x="1136" d="M115 0v1087h141l47 -122q14 6 39 21t40 23.5t37.5 21.5t40 20.5t40 17.5t43 15.5t45.5 11.5q45 10 102 10q160 0 246 -103.5t86 -252.5v-750l-2 -172q-8 -174 -102 -260q-78 -70 -189 -100q-20 -6 -61 -17l-64 98q6 4 26.5 14.5t30 15.5t30 16.5t31.5 19.5t28.5 22.5 t26.5 26.5t21.5 29.5t18.5 36.5q16 45 17 90v930q0 135 -101 172q-29 12 -99.5 12t-140 -24.5t-190.5 -86.5v-823h-188z" />
<glyph unicode="&#x14c;" horiz-adv-x="1380" d="M125 741q0 145 15.5 261t40 197t67.5 138.5t88 90t110 51.5q104 31 227.5 30.5t184 -6.5t125 -24.5t108.5 -51t86 -90t66 -137.5q53 -178 53 -461q0 -332 -71 -487q-35 -82 -81 -134t-118 -79q-121 -47 -313 -47q-281 0 -387 80q-109 80 -150 221q-51 172 -51 448z M313 782q0 -127 4.5 -192.5t11.5 -120.5t20 -96t29.5 -73t41 -53.5t52.5 -35.5t67 -23q70 -14 169 -14t160.5 13.5t110.5 47t76 99.5q53 129 53 405q0 182 -13.5 259t-22.5 120t-27.5 75t-35 54.5t-45 37.5t-50 23.5t-60.5 12.5q-57 6 -147.5 6t-138.5 -6t-106.5 -36 t-85 -90t-45 -173t-18.5 -240zM414 1632v137h598v-137h-598z" />
<glyph unicode="&#x14d;" horiz-adv-x="1157" d="M96 528q0 223 47 346t149.5 173.5t287.5 50.5q276 0 379.5 -123t103.5 -437.5t-103.5 -431t-378 -116.5t-380 120.5t-105.5 417.5zM281 1221v139h598v-139h-598zM285 532.5q0 -88.5 7 -149.5t25.5 -101t40 -63.5t60.5 -36.5q59 -20 145 -19t127 6t81 24.5t60 60.5 q43 88 43 274q0 188 -22.5 249t-41.5 86.5t-56 39.5q-57 23 -145.5 23t-125.5 -4t-74.5 -17.5t-57 -39t-37 -70.5t-23.5 -109.5t-6 -153z" />
<glyph unicode="&#x150;" horiz-adv-x="1380" d="M125 741q0 145 15.5 261t40 197t67.5 138.5t88 90t110 51.5q104 31 227.5 30.5t184 -6.5t125 -24.5t108.5 -51t86 -90t66 -137.5q53 -178 53 -461q0 -332 -71 -487q-35 -82 -81 -134t-118 -79q-121 -47 -313 -47q-281 0 -387 80q-109 80 -150 221q-51 172 -51 448z M313 782q0 -127 4.5 -192.5t11.5 -120.5t20 -96t29.5 -73t41 -53.5t52.5 -35.5t67 -23q70 -14 169 -14t160.5 13.5t110.5 47t76 99.5q53 129 53 405q0 182 -13.5 259t-22.5 120t-27.5 75t-35 54.5t-45 37.5t-50 23.5t-60.5 12.5q-57 6 -147.5 6t-138.5 -6t-106.5 -36 t-85 -90t-45 -173t-18.5 -240zM492 1632l208 277h211l-266 -277h-153zM778 1632l211 277h211l-266 -277h-156z" />
<glyph unicode="&#x151;" horiz-adv-x="1157" d="M96 528q0 223 47 346t149.5 173.5t287.5 50.5q276 0 379.5 -123t103.5 -437.5t-103.5 -431t-378 -116.5t-380 120.5t-105.5 417.5zM285 532.5q0 -88.5 7 -149.5t25.5 -101t40 -63.5t60.5 -36.5q59 -20 145 -19t127 6t81 24.5t60 60.5q43 88 43 274q0 188 -22.5 249 t-41.5 86.5t-56 39.5q-57 23 -145.5 23t-125.5 -4t-74.5 -17.5t-57 -39t-37 -70.5t-23.5 -109.5t-6 -153zM358 1221l211 274h209l-266 -274h-154zM647 1221l209 274h211l-266 -274h-154z" />
<glyph unicode="&#x152;" horiz-adv-x="2134" d="M125 739q0 266 43 418q49 166 121 232q88 78 166 94q119 27 238.5 26.5t191.5 -8.5q170 -23 260 -129q57 127 219 127q10 0 320.5 -14.5t345.5 -18.5v-151h-627q-78 0 -94 -37q-12 -29 -13 -78v-360l650 -23v-151l-650 -21v-360q0 -86 58 -101q25 -6 69 -6h607v-149 l-625 -35h-31q-182 0 -235 129q-88 -100 -254 -121q-74 -10 -168 -10t-155.5 5t-127 23.5t-109.5 51t-85 87t-64 134.5q-51 172 -51 446zM313 719.5q0 -105.5 7.5 -193.5t28 -152.5t48 -102.5t76.5 -60q78 -37 205 -37t188.5 13.5t111.5 47t77 99.5q53 129 53 405 q0 182 -13.5 259t-22.5 120t-28.5 75t-35 54.5t-44 37.5t-51 23.5t-61.5 12.5q-55 6 -121.5 6t-94.5 -1t-66 -5t-60.5 -12.5t-51 -22.5t-45 -36.5t-36 -54.5t-28.5 -75t-19.5 -98t-13.5 -126t-3 -176.5z" />
<glyph unicode="&#x153;" horiz-adv-x="1849" d="M96 528q0 223 47 346t149.5 173.5t287.5 50.5q281 0 381 -131q66 98 215 118q68 10 152.5 10.5t128.5 -1.5t93 -11.5t80 -26t61.5 -45t47.5 -69.5q37 -90 37 -235q0 -256 -287 -256h-428v-67.5t18 -109.5q35 -113 195 -112q338 0 481 20v-135q-188 -57 -524 -57 q-201 0 -277 121q-100 -121 -373.5 -121t-379 120.5t-105.5 417.5zM285 532.5q0 -88.5 7 -149.5t25.5 -101t40 -63.5t60.5 -36.5q59 -20 144 -20t129 7t78 25.5t53.5 43t29.5 71.5q20 76 20 238t-26.5 240.5t-86 107.5t-149.5 29t-127 -3t-74.5 -16.5t-57 -39t-37 -70.5 t-23.5 -109.5t-6 -153zM1061 616h407q119 1 119 95q0 78 -8 116.5t-37 62t-68.5 30t-110.5 6.5t-106.5 -3t-74.5 -13.5t-60 -30.5q-61 -61 -61 -215v-48z" />
<glyph unicode="&#x154;" horiz-adv-x="1220" d="M119 0v1499h643q362 0 362 -455q0 -109 -21.5 -191.5t-48 -123.5t-68.5 -69.5t-63.5 -36t-52.5 -13.5l308 -610h-207l-297 600l-367 29v-629h-188zM307 788h447q113 0 145 60q35 63 35 172.5t-14.5 167t-42.5 84.5q-47 47 -123 47h-447v-531zM526 1624l209 274h211 l-266 -274h-154z" />
<glyph unicode="&#x155;" horiz-adv-x="866" d="M115 0v1087h143l45 -137q6 4 47 31t82 49.5t110.5 46t160 23.5t124.5 -17v-184q-53 10 -157.5 10t-181 -25.5t-185.5 -92.5v-791h-188zM428 1225l209 274h211l-266 -274h-154z" />
<glyph unicode="&#x156;" horiz-adv-x="1220" d="M119 0v1499h643q362 0 362 -455q0 -109 -21.5 -191.5t-48 -123.5t-68.5 -69.5t-63.5 -36t-52.5 -13.5l308 -610h-207l-297 600l-367 29v-629h-188zM307 788h447q113 0 145 60q35 63 35 172.5t-14.5 167t-42.5 84.5q-47 47 -123 47h-447v-531zM512 -190q0 49 47 49h111 q43 0 43 -49v-185q0 -145 -152 -145q-18 0 -39 4v67q25 0 39 11q18 14 19 45v39h-21q-47 0 -47 47v117z" />
<glyph unicode="&#x157;" horiz-adv-x="866" d="M104 -193q0 49 48 50h110q43 0 43 -50v-184q1 -145 -151 -145q-10 0 -39 4v67q25 0 39 11q18 12 18 43v41h-20q-47 0 -48 47v116zM113 0v1087h143l45 -137q6 4 39 25.5t62.5 39t78.5 40.5q92 45 201 45t141 -17v-184q-51 10 -155.5 10t-182 -25.5t-184.5 -92.5v-791h-188 z" />
<glyph unicode="&#x158;" horiz-adv-x="1220" d="M119 0v1499h643q362 0 362 -455q0 -109 -21.5 -191.5t-48 -123.5t-68.5 -69.5t-63.5 -36t-52.5 -13.5l308 -610h-207l-297 600l-367 29v-629h-188zM295 1901h160l153 -140l135 140h158l-211 -269h-164zM307 788h447q113 0 145 60q35 63 35 172.5t-14.5 167t-42.5 84.5 q-47 47 -123 47h-447v-531z" />
<glyph unicode="&#x159;" horiz-adv-x="866" d="M115 0v1087h143l45 -137q6 4 47 31t82 49.5t110.5 46t160 23.5t124.5 -17v-184q-53 10 -157.5 10t-181 -25.5t-185.5 -92.5v-791h-188zM168 1491h158l155 -139l135 139h158l-211 -268h-164z" />
<glyph unicode="&#x15a;" horiz-adv-x="1198" d="M125 1008v133q0 215 117 297q106 74 297 73q94 0 268 -18t254 -33v-151q-86 6 -283 12q-219 8 -259 8t-70.5 -3t-67.5 -21q-68 -35 -68 -170v-119q0 -117 46.5 -151t148.5 -34h276q330 0 330 -364v-129q0 -244 -182 -318q-92 -37 -214 -36.5t-292 17.5t-256 36v151 q225 -23 387 -22.5t186.5 2.5t61.5 11t61 26q59 43 60 131v123q0 88 -35 136t-125 48h-270q-266 0 -338 168q-33 80 -33 197zM551 1634l211 277h209l-266 -277h-154z" />
<glyph unicode="&#x15b;" horiz-adv-x="1036" d="M76 727v94q0 133 65.5 205t196.5 72t314.5 -12.5t252.5 -26.5v-135h-522q-84 0 -102 -31q-16 -25 -17 -76v-82q0 -70 29 -87t90 -17h305q90 0 154 -37q119 -68 119 -234v-102q0 -268 -267 -268q-104 0 -311 15t-262 30v131h549q102 0 102 98v86q0 53 -22.5 78t-79.5 25 h-305q-150 0 -219.5 60t-69.5 214zM438 1229l209 276h211l-266 -276h-154z" />
<glyph unicode="&#x15c;" horiz-adv-x="1198" d="M125 1008v133q0 215 117 297q106 74 297 73q94 0 268 -18t254 -33v-151q-86 6 -283 12q-219 8 -259 8t-70.5 -3t-67.5 -21q-68 -35 -68 -170v-119q0 -117 46.5 -151t148.5 -34h276q330 0 330 -364v-129q0 -244 -182 -318q-92 -37 -214 -36.5t-292 17.5t-256 36v151 q225 -23 387 -22.5t186.5 2.5t61.5 11t61 26q59 43 60 131v123q0 88 -35 136t-125 48h-270q-266 0 -338 168q-33 80 -33 197zM336 1634l233 271h164l209 -271h-158l-137 140l-151 -140h-160z" />
<glyph unicode="&#x15d;" horiz-adv-x="1036" d="M76 727v94q0 133 65.5 205t196.5 72t314.5 -12.5t252.5 -26.5v-135h-522q-84 0 -102 -31q-16 -25 -17 -76v-82q0 -70 29 -87t90 -17h305q90 0 154 -37q119 -68 119 -234v-102q0 -268 -267 -268q-104 0 -311 15t-262 30v131h549q102 0 102 98v86q0 53 -22.5 78t-79.5 25 h-305q-150 0 -219.5 60t-69.5 214zM215 1221l236 270h163l209 -270h-157l-140 139l-151 -139h-160z" />
<glyph unicode="&#x15e;" horiz-adv-x="1198" d="M125 1008v133q0 215 117 297q106 74 297 73q94 0 268 -18t254 -33v-151q-86 6 -283 12q-219 8 -259 8t-70.5 -3t-67.5 -21q-68 -35 -68 -170v-119q0 -117 46.5 -151t148.5 -34h276q330 0 330 -364v-129q0 -244 -182 -318q-92 -37 -214 -36.5t-292 17.5t-256 36v151 q225 -23 387 -22.5t186.5 2.5t61.5 11t61 26q59 43 60 131v123q0 88 -35 136t-125 48h-270q-266 0 -338 168q-33 80 -33 197zM401 -285l105 31q39 16 51 55t12 107h152q0 -158 -44 -219.5t-169 -61.5h-107v88z" />
<glyph unicode="&#x15f;" horiz-adv-x="1036" d="M76 727v94q0 133 65.5 205t196.5 72t314.5 -12.5t252.5 -26.5v-135h-522q-84 0 -102 -31q-16 -25 -17 -76v-82q0 -70 29 -87t90 -17h305q90 0 154 -37q119 -68 119 -234v-102q0 -268 -267 -268q-104 0 -311 15t-262 30v131h549q102 0 102 98v86q0 53 -22.5 78t-79.5 25 h-305q-150 0 -219.5 60t-69.5 214zM268 -272l103 30q41 16 53 55t12 107h152q0 -158 -44 -219t-169 -61h-107v88z" />
<glyph unicode="&#x160;" horiz-adv-x="1198" d="M125 1008v133q0 215 117 297q106 74 297 73q94 0 268 -18t254 -33v-151q-86 6 -283 12q-219 8 -259 8t-70.5 -3t-67.5 -21q-68 -35 -68 -170v-119q0 -117 46.5 -151t148.5 -34h276q330 0 330 -364v-129q0 -244 -182 -318q-92 -37 -214 -36.5t-292 17.5t-256 36v151 q225 -23 387 -22.5t186.5 2.5t61.5 11t61 26q59 43 60 131v123q0 88 -35 136t-125 48h-270q-266 0 -338 168q-33 80 -33 197zM324 1905h159l154 -140l135 140h160l-213 -271h-164z" />
<glyph unicode="&#x161;" horiz-adv-x="1036" d="M76 727v94q0 133 65.5 205t196.5 72t314.5 -12.5t252.5 -26.5v-135h-522q-84 0 -102 -31q-16 -25 -17 -76v-82q0 -70 29 -87t90 -17h305q90 0 154 -37q119 -68 119 -234v-102q0 -268 -267 -268q-104 0 -311 15t-262 30v131h549q102 0 102 98v86q0 53 -22.5 78t-79.5 25 h-305q-150 0 -219.5 60t-69.5 214zM223 1499h160l154 -139l135 139h157l-211 -270h-163z" />
<glyph unicode="&#x162;" horiz-adv-x="1191" d="M84 1317v182h1059v-182h-441v-1317h-188v1317h-430zM315 -289l103 31q41 16 53 55t12 107h152q0 -160 -44 -221.5t-169 -61.5h-107v90z" />
<glyph unicode="&#x163;" horiz-adv-x="776" d="M39 920v127l194 43l41 303h148v-303h297v-170h-297v-519q0 -121 27.5 -168t82.5 -61q156 -43 170 -43v-127h-198q-270 0 -271 387v531h-194zM168 -293l104 31q39 16 51.5 55t12.5 107h153q0 -160 -45 -220.5t-168 -60.5h-108v88z" />
<glyph unicode="&#x164;" horiz-adv-x="1191" d="M84 1317v182h1059v-182h-441v-1317h-188v1317h-430zM293 1901h160l153 -140l135 140h160l-213 -269h-164z" />
<glyph unicode="&#x165;" horiz-adv-x="778" d="M39 920v127l194 43l41 303h148v-303h297v-170h-297v-519q0 -121 27.5 -168t82.5 -61q156 -43 170 -43v-127h-198q-270 0 -271 387v531h-194zM545 1638h166v-137l-23 -274h-121l-20 274z" />
<glyph unicode="&#x166;" horiz-adv-x="1185" d="M63 1317v182h1059v-182h-440v-414h233v-117h-233v-786h-188v786h-234v117h234v414h-431z" />
<glyph unicode="&#x167;" horiz-adv-x="755" d="M39 920v127l194 43l41 303h148v-303h297v-170h-297v-261h203v-116h-203v-142q2 -170 45 -202q20 -14 117.5 -40t101.5 -26v-131h-182q-96 0 -154 37q-117 74 -117 350v154h-159v116h159v261h-194z" />
<glyph unicode="&#x168;" horiz-adv-x="1378" d="M154 655v844h188v-844q0 -152 13.5 -215t22.5 -99t27.5 -61.5t34 -44t43 -30.5t48 -18.5t55.5 -10.5q53 -4 115.5 -4t96 2t74.5 13.5t68 30t55.5 54t42.5 86.5q37 115 37 297v844h191v-844q0 -401 -142 -538q-49 -49 -88 -74t-106 -37q-86 -16 -215 -16h-29 q-242 0 -319 51q-37 25 -84 73t-72 117q-57 172 -57 424zM360 1716q117 102 181 123q80 27 168 -16t101 -44t15 -1q57 0 185 75l47 -96q-6 -4 -34 -27.5t-38 -31.5t-35.5 -26.5t-42.5 -26.5q-96 -41 -209 18q-63 33 -98 33q-63 0 -117.5 -32t-76.5 -40z" />
<glyph unicode="&#x169;" d="M96 340v747h189v-749q0 -92 45 -137t135 -45t159.5 23.5t190.5 86.5v821h189v-1087h-142l-47 123q-12 -6 -49 -28.5t-52.5 -30t-48 -24.5t-54 -24.5t-54.5 -17.5q-55 -16 -129 -16q-162 0 -247 103t-85 255zM201 1313q117 102 180 123q80 27 168 -16.5t102.5 -44.5 t16.5 -1q55 0 182 76l47 -96q-6 -4 -32.5 -27.5t-38 -32t-37 -27t-41.5 -24.5q-96 -43 -209 17q-61 33 -97 32q-63 0 -118.5 -30.5t-77.5 -40.5z" />
<glyph unicode="&#x16a;" horiz-adv-x="1378" d="M154 655v844h188v-844q0 -152 13.5 -215t22.5 -99t27.5 -61.5t34 -44t43 -30.5t48 -18.5t55.5 -10.5q53 -4 115.5 -4t96 2t74.5 13.5t68 30t55.5 54t42.5 86.5q37 115 37 297v844h191v-844q0 -401 -142 -538q-49 -49 -88 -74t-106 -37q-86 -16 -215 -16h-29 q-242 0 -319 51q-37 25 -84 73t-72 117q-57 172 -57 424zM410 1632v137h598v-137h-598z" />
<glyph unicode="&#x16b;" d="M96 340v747h189v-749q0 -92 45 -137t135 -45t159.5 23.5t190.5 86.5v821h189v-1087h-142l-47 123q-12 -6 -49 -28.5t-52.5 -30t-48 -24.5t-54 -24.5t-54.5 -17.5q-55 -16 -129 -16q-162 0 -247 103t-85 255zM250 1221v139h598v-139h-598z" />
<glyph unicode="&#x16c;" horiz-adv-x="1378" d="M154 655v844h188v-844q0 -152 13.5 -215t22.5 -99t27.5 -61.5t34 -44t43 -30.5t48 -18.5t55.5 -10.5q53 -4 115.5 -4t96 2t74.5 13.5t68 30t55.5 54t42.5 86.5q37 115 37 297v844h191v-844q0 -401 -142 -538q-49 -49 -88 -74t-106 -37q-86 -16 -215 -16h-29 q-242 0 -319 51q-37 25 -84 73t-72 117q-57 172 -57 424zM473 1866h102q0 -55 40 -93t95.5 -38t93.5 35.5t38 95.5h102q0 -109 -70.5 -171.5t-165 -62.5t-165 65t-70.5 169z" />
<glyph unicode="&#x16d;" d="M96 340v747h189v-749q0 -92 45 -137t135 -45t159.5 23.5t190.5 86.5v821h189v-1087h-142l-47 123q-12 -6 -49 -28.5t-52.5 -30t-48 -24.5t-54 -24.5t-54.5 -17.5q-55 -16 -129 -16q-162 0 -247 103t-85 255zM328 1454h102q0 -55 40 -93t95.5 -38t93 36t37.5 95h103 q0 -109 -71 -171t-165 -62t-164.5 64.5t-70.5 168.5z" />
<glyph unicode="&#x16e;" horiz-adv-x="1378" d="M154 655v844h188v-844q0 -152 13.5 -215t22.5 -99t27.5 -61.5t34 -44t43 -30.5t48 -18.5t55.5 -10.5q53 -4 115.5 -4t96 2t74.5 13.5t68 30t55.5 54t42.5 86.5q37 115 37 297v844h191v-844q0 -401 -142 -538q-49 -49 -88 -74t-106 -37q-86 -16 -215 -16h-29 q-242 0 -319 51q-37 25 -84 73t-72 117q-57 172 -57 424zM502 1841q0 57 27.5 105.5t75.5 77t120 28.5t132.5 -61.5t60.5 -134t-28 -120.5t-76 -76t-104.5 -28t-104.5 28t-75.5 76t-27.5 105zM604 1841q0 -43 31 -73.5t75 -30.5t74.5 30.5t30.5 66.5t-14 60q-31 53 -83 53.5 t-83 -31.5t-31 -75z" />
<glyph unicode="&#x16f;" d="M96 340v747h189v-749q0 -92 45 -137t135 -45t159.5 23.5t190.5 86.5v821h189v-1087h-142l-47 123q-12 -6 -49 -28.5t-52.5 -30t-48 -24.5t-54 -24.5t-54.5 -17.5q-55 -16 -129 -16q-162 0 -247 103t-85 255zM342 1436.5q0 50.5 27.5 98.5t76 76.5t104.5 28.5t104 -28.5 t76 -76.5t28 -105.5t-28 -105.5t-76 -75.5t-97 -27.5t-88 16t-66.5 44t-44 66.5t-16.5 89zM444 1429.5q0 -43.5 31 -74t75 -30.5t74.5 30.5t30.5 66.5t-14 61q-31 53 -83 53t-83 -31.5t-31 -75z" />
<glyph unicode="&#x170;" horiz-adv-x="1378" d="M154 655v844h188v-844q0 -152 13.5 -215t22.5 -99t27.5 -61.5t34 -44t43 -30.5t48 -18.5t55.5 -10.5q53 -4 115.5 -4t96 2t74.5 13.5t68 30t55.5 54t42.5 86.5q37 115 37 297v844h191v-844q0 -401 -142 -538q-49 -49 -88 -74t-106 -37q-86 -16 -215 -16h-29 q-242 0 -319 51q-37 25 -84 73t-72 117q-57 172 -57 424zM487 1632l211 277h209l-266 -277h-154zM776 1632l211 277h209l-266 -277h-154z" />
<glyph unicode="&#x171;" d="M96 340v747h189v-749q0 -92 45 -137t135 -45t159.5 23.5t190.5 86.5v821h189v-1087h-142l-47 123q-12 -6 -49 -28.5t-52.5 -30t-48 -24.5t-54 -24.5t-54.5 -17.5q-55 -16 -129 -16q-162 0 -247 103t-85 255zM328 1221l211 274h209l-267 -274h-153zM616 1221l211 274h209 l-266 -274h-154z" />
<glyph unicode="&#x172;" horiz-adv-x="1378" d="M154 655v844h188v-844q0 -152 13.5 -215t22.5 -99t27.5 -61.5t34 -44t43 -30.5t48 -18.5t55.5 -10.5q53 -4 115.5 -4t96 2t74.5 13.5t68 30t55.5 54t42.5 86.5q37 115 37 297v844h191v-844q0 -401 -142 -538q-49 -49 -88 -74t-106 -37q-86 -16 -215 -16h-29 q-242 0 -319 51q-37 25 -84 73t-72 117q-57 172 -57 424zM498 -198.5q0 51.5 38.5 102.5t125.5 90h88q-115 -96 -115 -164q0 -78 125 -78v-133q-23 -4 -55.5 -4t-84 18.5t-81.5 61.5q-41 55 -41 106.5z" />
<glyph unicode="&#x173;" d="M96 340v747h189v-749q0 -92 45 -137t135 -45t159.5 23.5t190.5 86.5v821h189v-1087h-142l-47 123q-12 -6 -49 -28.5t-52.5 -30t-48 -24.5t-54 -24.5t-54.5 -17.5q-55 -16 -129 -16q-162 0 -247 103t-85 255zM725 -192.5q0 51.5 39 102.5t125 90h90q-115 -96 -115 -164 q0 -78 123 -78v-133q-23 -4 -54.5 -4t-82.5 18.5t-84 61.5q-41 55 -41 106.5z" />
<glyph unicode="&#x174;" horiz-adv-x="1986" d="M86 1499h203l409 -1202l342 1202h209l-129 -455l262 -757l355 1212h202l-452 -1499h-201l-260 725l-227 -725h-201zM729 1624l234 268h163l211 -268h-157l-140 139l-151 -139h-160z" />
<glyph unicode="&#x175;" horiz-adv-x="1652" d="M39 1087h203l295 -833l258 833h196l-100 -333l221 -500l301 833h203l-397 -1087h-199l-219 496l-164 -496h-207zM537 1212l233 269h164l209 -269h-158l-137 140l-152 -140h-159z" />
<glyph unicode="&#x176;" horiz-adv-x="1304" d="M86 1499h205l362 -768l400 768h204l-512 -985v-514h-188v514zM350 1624l236 268h164l208 -268h-157l-139 139l-152 -139h-160z" />
<glyph unicode="&#x177;" horiz-adv-x="1146" d="M41 1087h203l241 -825q31 -100 125 -82l4 2l287 905h205l-453 -1431l-151 -209h-125l182 553q-197 0 -266 240zM270 1221l234 270h164l209 -270h-158l-137 139l-152 -139h-160z" />
<glyph unicode="&#x178;" horiz-adv-x="1304" d="M86 1499h205l362 -768l400 768h204l-512 -985v-514h-188v514zM303 1741q0 45 32 75.5t77 30.5t75.5 -30.5t30.5 -75.5t-30.5 -77t-75.5 -32t-77 32t-32 77zM825 1741q0 45 32 75.5t77 30.5t75.5 -30.5t30.5 -75.5t-30.5 -77t-75.5 -32t-77 32t-32 77z" />
<glyph unicode="&#x179;" horiz-adv-x="1148" d="M68 0v182l776 1135h-776v182h1015v-182l-768 -1135h768v-182h-1015zM498 1632l211 277h209l-267 -277h-153z" />
<glyph unicode="&#x17a;" horiz-adv-x="942" d="M57 911v176h830v-176l-551 -733h551v-176h-799v176l563 733h-594zM395 1221l211 274h209l-266 -274h-154z" />
<glyph unicode="&#x17b;" horiz-adv-x="1148" d="M68 0v182l776 1135h-776v182h1015v-182l-768 -1135h768v-182h-1015zM469 1679v123q0 51 49 51h115q23 0 35 -14t12 -37v-123q0 -47 -47 -47h-115q-20 0 -34.5 13.5t-14.5 33.5z" />
<glyph unicode="&#x17c;" horiz-adv-x="942" d="M57 911v176h830v-176l-551 -733h551v-176h-799v176l563 733h-594zM367 1268v123q0 51 49 51h114q23 0 35.5 -14.5t12.5 -36.5v-123q0 -47 -48 -47h-114q-23 0 -36 13.5t-13 33.5z" />
<glyph unicode="&#x17d;" horiz-adv-x="1148" d="M68 0v182l776 1135h-776v182h1015v-182l-768 -1135h768v-182h-1015zM270 1901h160l156 -140l135 140h158l-211 -269h-164z" />
<glyph unicode="&#x17e;" horiz-adv-x="942" d="M57 911v176h830v-176l-551 -733h551v-176h-799v176l563 733h-594zM168 1491h160l155 -139l135 139h158l-213 -270h-164z" />
<glyph unicode="&#x192;" horiz-adv-x="1212" d="M39 -367l16 121h170q139 0 197 305q10 51 20 121l97 621h-199l29 172h200l9 63q70 442 235 555q68 47 156 47q96 0 190 -43q14 -8 17 -8l-19 -121h-166q-70 0 -112 -69q-45 -74 -64 -146q-25 -104 -43 -215l-10 -65h274l-28 -170h-275l-96 -621q-57 -367 -152 -485 q-88 -113 -235 -113q-59 0 -126 19.5t-85 31.5z" />
<glyph unicode="&#x2c6;" horiz-adv-x="796" d="M96 1087l234 269h164l208 -269h-157l-139 140l-150 -140h-160z" />
<glyph unicode="&#x2da;" horiz-adv-x="606" d="M96 1294.5q0 57.5 28 105.5t76 76.5t104 28.5t104.5 -28.5t76 -76.5t27.5 -105.5t-27.5 -105.5t-76 -76t-104.5 -28t-104 28t-76 76t-28 105.5zM199 1301.5q0 -35.5 14 -60.5q31 -51 83 -51t83 30.5t31 66.5t-15 61q-31 53 -83 53t-82.5 -32t-30.5 -67.5z" />
<glyph unicode="&#x2dc;" horiz-adv-x="884" d="M96 1180q115 102 180 123q80 27 168 -16.5t101.5 -44.5t15.5 -1q55 0 184 76l46 -96q-4 -4 -32 -28t-39 -32t-37 -26.5t-42 -24.5q-94 -43 -207 16q-63 33 -98 33q-63 0 -118.5 -30.5t-76.5 -41.5z" />
<glyph unicode="&#x3a9;" horiz-adv-x="1585" d="M125 699.5v107.5t12.5 153.5t41 162.5t80.5 151.5t122 122.5q152 117 414 116q418 0 571 -309q86 -172 86 -418q0 -262 -59 -389q-59 -123 -181 -213l250 -20v-164h-479v188q217 147 258 330q23 102 23 270q0 543 -469 543q-481 0 -482 -553q0 -162 17.5 -238.5 t48.5 -123.5q72 -111 221 -228v-188h-463v168l260 20q-170 109 -221 242q-39 94 -45 165t-6 104.5z" />
<glyph unicode="&#x3c0;" horiz-adv-x="1310" d="M39 905v182h1135v-182h-242v-553q0 -106 32.5 -147t108.5 -41h199v-111q-92 -63 -234.5 -63t-218.5 83t-76 275v557h-346v-905h-188v905h-170z" />
<glyph unicode="&#x1e02;" horiz-adv-x="1224" d="M154 0v1499h587q109 0 190 -34.5t124 -94.5q86 -115 86 -264q0 -274 -195 -328q84 -18 145.5 -109t61.5 -245q0 -182 -86 -297q-94 -127 -324 -127h-589zM344 180h395q225 0 226 250q0 115 -56.5 190.5t-169.5 75.5h-395v-516zM344 872h393q215 0 215 228q0 174 -139 211 q-35 8 -76 8h-393v-447zM522 1673v123q0 51 49 51h115q23 0 35 -14t12 -37v-123q0 -47 -47 -47h-115q-20 0 -34.5 12t-14.5 35z" />
<glyph unicode="&#x1e03;" horiz-adv-x="1134" d="M102 1794v123q0 51 50 51h114q23 0 35 -14.5t12 -36.5v-123q0 -47 -47 -47h-114q-20 0 -35 12t-15 35zM113 0v1608h184v-584q86 37 196.5 58.5t193.5 21.5t148.5 -32t103.5 -82t60 -126q39 -127 39 -325q0 -551 -358 -551q-92 0 -210 45t-171 86l-43 -119h-143zM299 252 q192 -88 360 -88q190 0 191 377q0 295 -86 362q-39 29 -105 29q-184 0 -360 -49v-631z" />
<glyph unicode="&#x1e0a;" horiz-adv-x="1347" d="M154 0v1499h577q131 0 229.5 -49t153.5 -123t90 -178q57 -174 58 -406q0 -381 -177 -587q-59 -72 -150 -114t-204 -42h-577zM342 184h383q121 0 201 78q147 141 147 467t-88 458t-260 132h-383v-1135zM545 1688v122q0 51 49 52h115q23 0 35 -14.5t12 -37.5v-122 q0 -47 -47 -48h-115q-23 0 -36 14t-13 34z" />
<glyph unicode="&#x1e0b;" horiz-adv-x="1134" d="M96 539q0 324 99 452q86 113 258 113q106 0 214.5 -27.5t168.5 -52.5v584h186v-1608h-143l-43 119q-53 -41 -172 -86t-211 -45q-357 0 -357 551zM285 541q0 -377 188 -377q168 0 363 88v631q-178 49 -363 49q-63 0 -102 -29q-86 -67 -86 -362zM817 1780v123q0 51 49 51 h115q23 0 35 -14.5t12 -36.5v-123q0 -47 -47 -47h-115q-20 0 -34.5 12t-14.5 35z" />
<glyph unicode="&#x1e1e;" horiz-adv-x="1161" d="M152 0v1219q0 150 76.5 215t185.5 65q6 0 317 -14.5t348 -18.5v-151h-633q-76 0 -94 -37q-12 -29 -12 -78v-360l653 -21v-153l-653 -21v-645h-188zM541 1673v123q0 51 49 51h115q23 0 35 -14t12 -37v-123q0 -47 -47 -47h-115q-20 0 -34.5 12t-14.5 35z" />
<glyph unicode="&#x1e1f;" horiz-adv-x="821" d="M39 918v135l190 34v203q0 168 70 246q66 74 201 74t282 -49v-119l-235 2h-25.5t-48.5 -10.5t-39 -38.5q-16 -39 -16 -123v-185h287v-169h-287v-918h-189v918h-190zM416 1817v122q0 51 49 52h115q23 0 35 -14.5t12 -37.5v-122q0 -47 -47 -48h-115q-23 0 -36 12.5t-13 35.5 z" />
<glyph unicode="&#x1e40;" horiz-adv-x="1665" d="M104 0l109 1499h260l358 -1186l351 1186h258l121 -1499h-187l-94 1163l-346 -1163h-201l-356 1163l-84 -1163h-189zM721 1679v123q0 51 49 51h115q23 0 35 -14t12 -37v-123q0 -47 -47 -47h-115q-23 0 -36 13.5t-13 33.5z" />
<glyph unicode="&#x1e41;" horiz-adv-x="1824" d="M115 0v1087h141l47 -126q12 6 34.5 20t34 21.5t33 19.5t35 18.5t34 16.5t36.5 15t36.5 11.5t41.5 10.5q47 6 90 6q100 0 180 -41t115 -113q193 154 426 154q150 0 241 -99.5t91 -259.5v-741h-189v743q0 115 -80 162q-37 23 -119 23q-175 -1 -331 -107v-76v-745h-189v743 q0 84 -47 134.5t-110.5 50.5t-105.5 -6.5t-87 -22.5q-61 -23 -170 -80v-819h-188zM901 1270v123q0 51 49 51h115q23 0 35 -14.5t12 -36.5v-123q0 -47 -47 -47h-115q-23 0 -36 13.5t-13 33.5z" />
<glyph unicode="&#x1e56;" horiz-adv-x="1200" d="M119 0v1499h622q375 0 375 -442q0 -387 -231 -447q-57 -16 -96 -16t-72 1t-217.5 18.5t-192.5 21.5v-635h-188zM307 774h428q84 0 133 47q57 57 58 236q-2 172 -70 223q-53 39 -121 39h-428v-545zM487 1692v123q0 51 50 51h114q23 0 35 -14.5t12 -36.5v-123 q0 -47 -47 -47h-114q-20 0 -35 13.5t-15 33.5z" />
<glyph unicode="&#x1e57;" horiz-adv-x="1134" d="M115 -553v1640h143l43 -116q78 59 199 94t194.5 35t137 -32t102.5 -83t63 -125q43 -129 43 -268t-7 -214t-29.5 -151.5t-61.5 -128.5q-86 -115 -258 -114q-76 0 -186.5 21.5t-198.5 55.5v-614h-184zM301 205q177 -49 363 -49q63 0 102 28q86 68 86 361q0 379 -188 379 q-170 0 -363 -88v-631zM502 1290v123q0 51 49 51h115q23 0 35 -14t12 -37v-123q0 -47 -47 -47h-115q-23 0 -36 13.5t-13 33.5z" />
<glyph unicode="&#x1e60;" horiz-adv-x="1198" d="M125 1008v133q0 215 117 297q106 74 297 73q94 0 268 -18t254 -33v-151q-86 6 -283 12q-219 8 -259 8t-70.5 -3t-67.5 -21q-68 -35 -68 -170v-119q0 -117 46.5 -151t148.5 -34h276q330 0 330 -364v-129q0 -244 -182 -318q-92 -37 -214 -36.5t-292 17.5t-256 36v151 q225 -23 387 -22.5t186.5 2.5t61.5 11t61 26q59 43 60 131v123q0 88 -35 136t-125 48h-270q-266 0 -338 168q-33 80 -33 197zM508 1700v123q0 51 49 51h115q20 0 32.5 -14.5t12.5 -36.5v-123q0 -47 -45 -47h-115q-23 0 -36 12t-13 35z" />
<glyph unicode="&#x1e61;" horiz-adv-x="1036" d="M76 727v94q0 133 65.5 205t196.5 72t314.5 -12.5t252.5 -26.5v-135h-522q-84 0 -102 -31q-16 -25 -17 -76v-82q0 -70 29 -87t90 -17h305q90 0 154 -37q119 -68 119 -234v-102q0 -268 -267 -268q-104 0 -311 15t-262 30v131h549q102 0 102 98v86q0 53 -22.5 78t-79.5 25 h-305q-150 0 -219.5 60t-69.5 214zM451 1288v123q0 51 49 51h114q23 0 35.5 -14t12.5 -37v-123q0 -47 -48 -47h-114q-20 0 -34.5 13.5t-14.5 33.5z" />
<glyph unicode="&#x1e6a;" horiz-adv-x="1191" d="M84 1317v182h1059v-182h-441v-1317h-188v1317h-430zM492 1679v123q0 51 49 51h114q23 0 35 -14t12 -37v-123q0 -47 -47 -47h-114q-23 0 -36 13.5t-13 33.5z" />
<glyph unicode="&#x1e6b;" horiz-adv-x="776" d="M39 920v127l194 43l41 303h148v-303h297v-170h-297v-519q0 -121 27.5 -168t82.5 -61q156 -43 170 -43v-127h-198q-270 0 -271 387v531h-194zM238 1565v123q0 51 49 51h114q23 0 35.5 -14.5t12.5 -36.5v-123q0 -47 -48 -47h-114q-23 0 -36 12t-13 35z" />
<glyph unicode="&#x1e80;" horiz-adv-x="1986" d="M86 1499h203l409 -1202l342 1202h209l-129 -455l262 -757l355 1212h202l-452 -1499h-201l-260 725l-227 -725h-201zM686 1898h211l209 -274h-154z" />
<glyph unicode="&#x1e81;" horiz-adv-x="1652" d="M39 1087h203l295 -833l258 833h196l-100 -333l221 -500l301 833h203l-397 -1087h-199l-219 496l-164 -496h-207zM494 1487h211l208 -275h-153z" />
<glyph unicode="&#x1e82;" horiz-adv-x="1986" d="M86 1499h203l409 -1202l342 1202h209l-129 -455l262 -757l355 1212h202l-452 -1499h-201l-260 725l-227 -725h-201zM954 1624l211 274h209l-266 -274h-154z" />
<glyph unicode="&#x1e83;" horiz-adv-x="1652" d="M39 1087h203l295 -833l258 833h196l-100 -333l221 -500l301 833h203l-397 -1087h-199l-219 496l-164 -496h-207zM762 1212l209 275h211l-267 -275h-153z" />
<glyph unicode="&#x1e84;" horiz-adv-x="1986" d="M86 1499h203l409 -1202l342 1202h209l-129 -455l262 -757l355 1212h202l-452 -1499h-201l-260 725l-227 -725h-201zM659 1733q0 45 32 75.5t77 30.5t75.5 -30.5t30.5 -75.5t-30.5 -77t-75.5 -32t-77 32t-32 77zM1182 1733q0 45 31.5 75.5t76.5 30.5t76 -30.5t31 -75.5 t-31 -77t-76 -32t-76.5 32t-31.5 77z" />
<glyph unicode="&#x1e85;" horiz-adv-x="1652" d="M39 1087h203l295 -833l258 833h196l-100 -333l221 -500l301 833h203l-397 -1087h-199l-219 496l-164 -496h-207zM469 1321q0 45 31.5 75.5t77 30.5t76 -30.5t30.5 -75.5t-30.5 -77t-76 -32t-77 32t-31.5 77zM991 1309.5q0 33.5 8.5 53t24.5 34.5q31 31 76 30.5t75.5 -31 t30.5 -75.5t-30.5 -77t-75.5 -32t-77 32t-32 65.5z" />
<glyph unicode="&#x1ef2;" horiz-adv-x="1304" d="M86 1499h205l362 -768l400 768h204l-512 -985v-514h-188v514zM328 1909h211l211 -277h-156z" />
<glyph unicode="&#x1ef3;" horiz-adv-x="1146" d="M41 1087h203l241 -825q31 -100 125 -82l4 2l287 905h205l-453 -1431l-151 -209h-125l182 553q-197 0 -266 240zM248 1495h209l211 -274h-154z" />
<glyph unicode="&#x2000;" horiz-adv-x="1026" />
<glyph unicode="&#x2001;" horiz-adv-x="2052" />
<glyph unicode="&#x2002;" horiz-adv-x="1026" />
<glyph unicode="&#x2003;" horiz-adv-x="2052" />
<glyph unicode="&#x2004;" horiz-adv-x="684" />
<glyph unicode="&#x2005;" horiz-adv-x="513" />
<glyph unicode="&#x2006;" horiz-adv-x="342" />
<glyph unicode="&#x2007;" horiz-adv-x="342" />
<glyph unicode="&#x2008;" horiz-adv-x="256" />
<glyph unicode="&#x2009;" horiz-adv-x="410" />
<glyph unicode="&#x200a;" horiz-adv-x="114" />
<glyph unicode="&#x2010;" horiz-adv-x="724" d="M41 506v176h643v-176h-643z" />
<glyph unicode="&#x2011;" horiz-adv-x="724" d="M41 506v176h643v-176h-643z" />
<glyph unicode="&#x2012;" horiz-adv-x="724" d="M41 506v176h643v-176h-643z" />
<glyph unicode="&#x2013;" horiz-adv-x="1050" d="M41 500v178h969v-178h-969z" />
<glyph unicode="&#x2014;" horiz-adv-x="1507" d="M41 504v178h1425v-178h-1425z" />
<glyph unicode="&#x2018;" horiz-adv-x="546" d="M154 1118v221q0 61 23.5 102.5t55.5 55.5q53 23 84 23h41l23 -4v-84h-2q-66 0 -66 -68v-53h25q55 0 55 -56v-137q0 -61 -55 -61h-133q-51 0 -51 61z" />
<glyph unicode="&#x2019;" horiz-adv-x="546" d="M154 1323v137q0 59 55 60h133q51 0 51 -60v-221q0 -63 -23.5 -104t-56.5 -56q-55 -23 -85.5 -22.5t-39.5 0.5l-22 4v82h2q66 0 65 71v52h-24q-55 0 -55 57z" />
<glyph unicode="&#x201a;" horiz-adv-x="546" d="M154 55v138q0 61 55 61h133q51 0 51 -61v-222q0 -63 -23.5 -104t-56.5 -55q-55 -23 -84.5 -23h-40.5l-22 4v84h2q66 0 65 70v51h-24q-25 0 -40 14t-15 43z" />
<glyph unicode="&#x201c;" horiz-adv-x="860" d="M139 1118v221q0 61 23.5 102.5t58.5 55.5q53 23 84 23t39 -2l25 -2v-84h-4q-66 0 -66 -68v-53h25q57 0 57 -56v-137q0 -61 -57 -61h-131q-54 0 -54 61zM481 1118v221q0 61 23.5 102.5t56.5 55.5q55 23 86 23t39 -2l25 -2v-84h-4q-66 0 -66 -68v-53h25q25 0 40 -14.5 t15 -41.5v-137q0 -61 -55 -61h-131q-54 0 -54 61z" />
<glyph unicode="&#x201d;" horiz-adv-x="860" d="M139 1321v137q0 61 56 62h131q55 0 55 -62v-221q0 -180 -193 -180q-16 0 -38 4v82h4q66 0 65 69v54h-24q-25 0 -40.5 14t-15.5 41zM481 1321v137q0 61 56 62h131q53 0 53 -62v-221q-1 -180 -191 -180q-16 0 -38 4v82h4q66 0 65 69v54h-24q-55 0 -56 55z" />
<glyph unicode="&#x201e;" horiz-adv-x="860" d="M139 55v138q0 61 56 61h131q55 0 55 -61v-222q-1 -182 -191 -182q-16 0 -40 4v84h4q66 0 65 70v51h-24q-25 0 -40.5 14.5t-15.5 42.5zM481 55v138q0 61 56 61h131q53 0 53 -61v-222q-1 -182 -189 -182q-16 0 -40 4v84h4q66 0 65 70v51h-24q-25 0 -40.5 14.5t-15.5 42.5z " />
<glyph unicode="&#x2020;" horiz-adv-x="817" d="M39 981v149l272 21l17 426h164l18 -426l270 -21v-149l-270 -23l-21 -1105h-163l-15 1105z" />
<glyph unicode="&#x2021;" horiz-adv-x="854" d="M39 340v149l274 23l-2 446l-272 23v149l272 21l19 426h162l18 -426l270 -21v-149l-270 -23l-6 -446l276 -23v-149l-282 -23l-9 -464h-163l-9 464z" />
<glyph unicode="&#x2022;" horiz-adv-x="636" d="M162 688v184q0 72 67 72h174q72 0 72 -72v-184q0 -66 -72 -65h-174q-31 0 -49 17t-18 48z" />
<glyph unicode="&#x2026;" horiz-adv-x="1665" d="M322 47v135q0 51 49 51h127q51 0 51 -51v-135q0 -47 -51 -47h-127q-20 0 -34.5 13.5t-14.5 33.5zM713 47v135q0 51 49 51h127q51 0 51 -51v-135q0 -47 -51 -47h-127q-23 0 -36 13.5t-13 33.5zM1102 47v135q0 51 49 51h127q51 0 51 -51v-135q0 -47 -51 -47h-127 q-20 0 -34.5 13.5t-14.5 33.5z" />
<glyph unicode="&#x202f;" horiz-adv-x="410" />
<glyph unicode="&#x2030;" horiz-adv-x="2826" d="M80 975v266q0 135 59.5 196.5t208.5 61.5h207q145 0 203.5 -61.5t58.5 -196.5v-266q0 -137 -58.5 -198.5t-207.5 -61.5h-207q-147 0 -205.5 61.5t-58.5 198.5zM231 983q0 -70 26 -93.5t95 -23.5h191q80 0 101.5 24.5t21.5 92.5v248q0 70 -25 93.5t-94 23.5h-191 q-80 0 -102.5 -24t-22.5 -93v-248zM455 0l901 1499h162l-900 -1499h-163zM1143 264v266q0 133 55 195q59 63 211 63h207q147 0 205.5 -61t58.5 -197v-266q0 -137 -58.5 -198.5t-209.5 -61.5h-207q-145 0 -203.5 62.5t-58.5 197.5zM1294 272q0 -68 24.5 -92t94.5 -24h191 q80 0 102.5 24.5t22.5 91.5v248q0 70 -26 93.5t-95 23.5h-191q-78 0 -100.5 -23.5t-22.5 -93.5v-248zM2009 264v266q0 135 59.5 196.5t208.5 61.5h207q145 0 203.5 -61t58.5 -197v-266q0 -137 -58 -198.5t-208 -61.5h-207q-145 0 -204.5 62.5t-59.5 197.5zM2161 272 q0 -88 47 -106q27 -10 73 -10h191q82 0 99.5 21.5t20.5 41t3 53.5v248q0 70 -24.5 93.5t-94.5 23.5h-190q-98 0 -115 -45q-10 -25 -10 -72v-248z" />
<glyph unicode="&#x2039;" horiz-adv-x="729" d="M96 725l422 416l119 -119l-303 -297l313 -305l-119 -121z" />
<glyph unicode="&#x203a;" horiz-adv-x="729" d="M96 420l312 305l-304 297l121 119l422 -416l-432 -426z" />
<glyph unicode="&#x2044;" horiz-adv-x="526" d="M-172 0l719 1511h151l-716 -1511h-154z" />
<glyph unicode="&#x205f;" horiz-adv-x="513" />
<glyph unicode="&#x20ac;" horiz-adv-x="1253" d="M39 520v107l174 16v188l-174 17v98l174 21v25.5v46t4 69.5t12.5 79t24.5 78t39.5 77.5t61.5 67.5t85 56.5t112.5 35t145.5 14.5t240 -20.5t270 -45.5v-143q-326 29 -452.5 28.5t-186 -18t-92.5 -46t-51 -79.5q-25 -78 -25 -225l480 -17v-106l-480 -13v-188l480 -16v-107 q-285 -6 -414 -12l-66 -4q0 -340 316 -340q172 0 418 29l82 8v-140q-231 -74 -519 -73q-215 0 -344 118q-141 131 -141 398z" />
<glyph unicode="&#x2122;" horiz-adv-x="1423" d="M39 1360v139h543v-139h-199v-576h-145v576h-199zM649 784l62 715h145l172 -467l148 467h151l70 -715h-148l-35 404l-120 -404h-125l-144 406l-30 -406h-146z" />
<glyph unicode="&#x2202;" horiz-adv-x="1314" d="M109 463.5q0 154.5 61 265.5q123 223 459 223q205 0 340 -116q-18 367 -170 454q-76 43 -189.5 43t-214 -31.5t-166.5 -72.5l-47 127q84 55 135 84q135 76 287 76q555 0 555 -723q0 -328 -125 -555q-63 -115 -169.5 -181.5t-246 -66.5t-252 50t-185 159.5t-72.5 264z M297 468q0 -140 92 -218t229 -78q133 0 213 104q98 129 127 332q6 49 9 88q-133 74 -318.5 74t-268.5 -81t-83 -221z" />
<glyph unicode="&#x2206;" horiz-adv-x="1476" d="M39 0l637 1499h151l613 -1499h-1401zM313 180h873l-428 1057z" />
<glyph unicode="&#x220f;" horiz-adv-x="1320" d="M39 1317v182h1245v-182h-172v-1317h-188v1317h-527v-1317h-188v1317h-170z" />
<glyph unicode="&#x2211;" horiz-adv-x="1189" d="M76 -221l438 774l-438 764v182h1077v-182h-848l436 -764l-436 -774h848v-189h-1077v189z" />
<glyph unicode="&#x221a;" horiz-adv-x="1302" d="M39 557v182h289l241 -479l502 1378h195l-594 -1638h-176l-289 557h-168z" />
<glyph unicode="&#x221e;" horiz-adv-x="1595" d="M96 698.5q0 73.5 13.5 132t50.5 111.5q72 111 276 111q219 0 361 -209q61 94 156.5 151.5t202 57.5t177 -29t105.5 -82q63 -96 63 -244q0 -150 -71 -245q-80 -106 -269 -107q-121 0 -210 49t-156 166q-66 -117 -154 -166t-193.5 -49t-174 27.5t-106.5 78t-54.5 112 t-16.5 135zM266 676.5q0 -68.5 36 -116.5t131 -48t159.5 51t122.5 135q-49 78 -125 133.5t-142.5 55.5t-103.5 -13.5t-53.5 -43t-20.5 -57.5t-4 -96.5zM881 698q90 -135 186 -170q43 -16 88 -16q176 0 176 186q0 86 -21.5 123t-58.5 51.5t-104.5 14.5t-142 -55.5 t-123.5 -133.5z" />
<glyph unicode="&#x222b;" horiz-adv-x="903" d="M39 -246h168q55 0 84 41q35 47 43 92t12 73t6 73q4 68 4 147v856q0 442 148 555q59 47 147 47q111 0 191 -41q16 -8 24 -10v-121h-166q-137 0 -151 -307q-4 -51 -4 -123v-856q0 -354 -80 -485q-70 -113 -210 -113t-216 51v121z" />
<glyph unicode="&#x2248;" horiz-adv-x="1075" d="M96 518q133 110 211 133q43 12 97.5 12.5t145.5 -37.5t143 -38t84 9t81 34.5t76 36.5l45 -99q-10 -8 -56 -46t-71 -52q-74 -49 -143.5 -49t-161.5 39t-146.5 39t-93.5 -12.5t-87 -34t-81 -31.5zM96 883q133 113 211 133q43 12 97.5 12t145.5 -38t143 -38t84 9.5t81 35 t76 35.5l45 -98q-10 -8 -56 -46t-71 -52q-74 -49 -143.5 -49.5t-161.5 38.5t-146.5 39t-93.5 -12t-87 -33.5t-81 -32.5z" />
<glyph unicode="&#x2260;" horiz-adv-x="950" d="M39 418v186h303l143 238h-446v184h557l90 148h131l-90 -148h186v-184h-297l-143 -238h440v-186h-551l-102 -170h-131l102 170h-192z" />
<glyph unicode="&#x2264;" horiz-adv-x="958" d="M96 201v170h768v-170h-768zM96 793v190l768 317v-192l-538 -219l538 -240v-194z" />
<glyph unicode="&#x2265;" horiz-adv-x="958" d="M96 201v170h770v-170h-770zM98 455v194l537 240l-537 219v190l768 -315v-190z" />
<glyph unicode="&#x25fc;" horiz-adv-x="1085" d="M0 0v1085h1085v-1085h-1085z" />
</font>
</defs>
</svg>
