<svg width="34" height="34" viewBox="0 0 34 34" fill="none" xmlns="http://www.w3.org/2000/svg">
<mask id="mask0_1676_2210" style="mask-type:alpha" maskUnits="userSpaceOnUse" x="0" y="0" width="34" height="34">
<path d="M33.4522 34V0H0.261719V34H33.4522Z" fill="white"/>
</mask>
<g mask="url(#mask0_1676_2210)">
<path fill-rule="evenodd" clip-rule="evenodd" d="M32.7446 14.1163C32.7086 14.0712 32.6851 14.0036 32.6545 13.9216C31.4421 10.049 30.4099 8.52742 28.416 6.26394C25.7928 3.28022 21.5092 0.977973 16.9525 0.972564C8.24115 0.972564 1.17577 8.29485 1.17577 17.3154C1.17577 19.9999 1.73916 22.3138 2.19167 23.4785C2.72622 24.8279 3.64387 26.6443 3.69075 26.7272C3.72431 26.794 3.74132 26.8679 3.74032 26.9427C3.67992 26.8924 3.62947 26.8312 3.59159 26.7624C3.32657 26.3657 2.24486 24.3465 1.90682 23.4659C1.17577 21.5458 0.632205 19.4518 0.632205 17.2532C0.632205 7.95501 7.90041 0.410074 16.8849 0.410074C24.9067 0.410074 31.3799 6.18461 32.7446 13.9152C32.75 13.9874 32.7717 14.0505 32.7446 14.1172V14.1163ZM3.24454 25.1542C2.69467 23.9743 2.11595 22.3147 1.87617 21.0005C1.87257 20.9238 1.86085 20.8625 1.88248 20.7931C1.92575 20.8463 1.94288 20.9049 1.97623 20.9959C2.35483 22.2021 2.67934 23.2829 3.53931 24.9126L3.24454 25.1542ZM3.54562 25.0037L15.1704 16.3455L14.1752 15.7596L3.82145 24.6774C2.65681 22.4923 1.84823 19.6907 1.84823 17.0243C1.84823 8.5797 8.3367 1.74509 16.5577 1.6928L14.4376 15.3476L15.4273 15.9435L16.7596 1.6919C16.7831 1.51342 16.8993 1.51342 16.8993 1.6919L16.9796 16.7205L19.3395 15.2836L17.0814 1.6901C25.1582 1.91546 31.854 8.65993 31.854 16.9981C31.854 19.6853 31.0653 22.4923 29.8754 24.6918L19.5306 15.765L18.5336 16.3545L29.6563 24.708C29.9241 24.9036 29.8411 24.9938 29.5545 24.8297L17.0652 17.3704V20.1657L29.5842 25.12C26.962 29.5505 22.2259 32.3864 16.8083 32.3864C11.3817 32.3864 6.72224 29.5541 4.09639 25.1146L16.6397 20.1576V17.3614L3.65379 25.1317C3.34099 25.3057 3.26076 25.2101 3.54562 25.0028V25.0037ZM16.8516 33.3554C10.6173 33.3554 5.72617 29.9985 3.39688 25.3841L3.75294 25.2471C4.3569 26.272 5.15015 27.1698 6.21384 28.384C7.52271 29.8768 11.6639 32.7533 16.8453 32.7533C22.3647 32.7542 27.2117 29.7903 29.9322 25.2615C30.1413 25.2011 30.2098 25.1065 30.1377 24.9181C31.3844 22.6447 32.229 19.7889 32.229 16.999C32.229 15.2394 31.982 13.8116 31.5863 12.5334C31.3413 11.7482 31.044 10.9802 30.6966 10.2347C30.6545 10.1693 30.6337 10.0925 30.6371 10.0148C30.6994 10.0655 30.7504 10.1288 30.7867 10.2005C31.0274 10.6584 31.5647 11.7726 31.818 12.4982C32.1587 13.4708 32.7717 14.8113 32.7717 16.999C32.7717 25.9457 25.7 33.3599 16.8525 33.3554H16.8516ZM16.8516 -7.51361e-05C7.69218 -0.00458227 0.261719 7.60886 0.261719 16.9981C0.260817 26.3847 7.68587 33.9981 16.8507 33.9999C26.0191 33.9999 33.4522 26.3901 33.4522 16.9981C33.4522 7.61427 26.0218 -0.000976562 16.8507 -0.000976562L16.8516 -7.51361e-05Z" fill="white"/>
</g>
</svg>
