<svg width="600" height="600" viewBox="0 0 600 600" fill="none" xmlns="http://www.w3.org/2000/svg">
<path d="M600 0H0V600H600V0Z" fill="#8362ED"/>
<path d="M157 492H386.403L399 417.844H261.756L305.515 153H213.356L157 492Z" fill="#9C9EE8"/>
<path d="M259.031 108H351L305.969 153H214L259.031 108Z" fill="#9C9EE8"/>
<path d="M351 108L307.183 372.924L262 418L305.817 153.076L351 108Z" fill="#9C9EE8"/>
<path d="M307.033 373H444L398.967 418H262L307.033 373Z" fill="#9C9EE8"/>
<path d="M202.355 446.945L259 108L213.645 153.055L157 492L202.355 446.945Z" fill="#C1B7F8"/>
<path d="M432 447H202.202L157 492H386.798L432 447Z" fill="#C1B7F8"/>
<path d="M202 447H431.403L444 372.844H306.756L350.515 108H258.356L202 447Z" fill="white"/>
</svg>
