<?xml version="1.0" encoding="UTF-8"?><svg id="Layer_2" xmlns="http://www.w3.org/2000/svg" viewBox="0 0 595.3 342.5"><defs><style>.cls-1{fill:#045380;}.cls-2{fill:#7db542;}</style></defs><path class="cls-1" d="m263,173.3c0-28.1,8.1-54.4,22.1-76.6-24.3-35-64.7-57.9-110.5-57.9-74.3,0-134.5,60.2-134.5,134.5s60.2,134.5,134.5,134.5,86.2-22.9,110.5-57.9c-14-22.2-22.1-48.4-22.1-76.6Zm-23-45.2h-45v132h-47v-132h-44v-42h136v42Z"/><path class="cls-2" d="m416.9,38.8c-74.3,0-134.5,60.2-134.5,134.5s60.2,134.5,134.5,134.5,134.5-60.2,134.5-134.5-60.2-134.5-134.5-134.5Zm64.1,214.2h-122v-29.3l22-19.7c33.6-29.7,49.6-46.7,50-62.7,0-11.5-7.2-17.7-20.9-17.7s-20.2,4-30.7,11.9l-5.3,4-14.3-35.9,3.1-2.3c14.6-10.9,34.5-17.1,54.7-17.1,36.7,0,60.4,21.2,60.4,54s-21,50.9-43.7,71l-4.6,3.8h51.1v40Z"/></svg>