 <svg width="14" height="16" viewBox="0 0 14 16" fill="none" xmlns="http://www.w3.org/2000/svg" >
    <path 
        d="M5.47105 1.35749C5.91003 -0.180724 8.08997 -0.180724 8.52895 1.35749L8.86936 2.55028C9.10485 3.37542 9.95258 3.86486 10.7849 3.65622L11.9881 3.35463C13.5397 2.9657 14.6297 4.85358 13.5171 6.00286L12.6543 6.89406C12.0574 7.51056 12.0574 8.48944 12.6543 9.10594L13.5171 9.99714C14.6297 11.1464 13.5397 13.0343 11.9881 12.6454L10.7849 12.3438C9.95258 12.1351 9.10485 12.6246 8.86936 13.4497L8.52895 14.6425C8.08997 16.1807 5.91003 16.1807 5.47105 14.6425L5.13064 13.4497C4.89515 12.6246 4.04742 12.1351 3.21509 12.3438L2.01189 12.6454C0.46027 13.0343 -0.629699 11.1464 0.482936 9.99714L1.34572 9.10594C1.94257 8.48944 1.94257 7.51056 1.34572 6.89406L0.482936 6.00286C-0.6297 4.85358 0.46027 2.9657 2.01189 3.35463L3.21509 3.65622C4.04742 3.86486 4.89515 3.37542 5.13064 2.55028L5.47105 1.35749Z"
        fill="#03C4E8"
        />
</svg>