<svg width="24" height="24" viewBox="0 0 24 24" fill="none" xmlns="http://www.w3.org/2000/svg">
    <path
        d="M12 0C10.3438 0 8.78906 0.3125 7.33594 0.9375C5.86719 1.5625 4.58594 2.42188 3.49219 3.51562C2.41406 4.59375 1.5625 5.86719 0.9375 7.33594C0.3125 8.78906 0 10.3438 0 12C0 13.6562 0.3125 15.2109 0.9375 16.6641C1.5625 18.1328 2.41406 19.4141 3.49219 20.5078C4.58594 21.5859 5.86719 22.4375 7.33594 23.0625C8.78906 23.6875 10.3438 24 12 24C13.6562 24 15.2109 23.6875 16.6641 23.0625C18.1328 22.4375 19.4062 21.5859 20.4844 20.5078C21.5781 19.4141 22.4375 18.1328 23.0625 16.6641C23.6875 15.2109 24 13.6562 24 12C24 10.3438 23.6875 8.78906 23.0625 7.33594C22.4375 5.86719 21.5781 4.59375 20.4844 3.51562C19.4062 2.42188 18.1328 1.5625 16.6641 0.9375C15.2109 0.3125 13.6562 0 12 0ZM12 22.0078C10.625 22.0078 9.32812 21.7422 8.10938 21.2109C6.89062 20.6953 5.82812 19.9844 4.92188 19.0781C4.01562 18.1719 3.30469 17.1094 2.78906 15.8906C2.25781 14.6719 1.99219 13.375 1.99219 12C1.99219 10.625 2.25781 9.32812 2.78906 8.10938C3.30469 6.89062 4.01562 5.82812 4.92188 4.92188C5.82812 4.01562 6.89062 3.30469 8.10938 2.78906C9.32812 2.25781 10.625 1.99219 12 1.99219C13.375 1.99219 14.6719 2.25781 15.8906 2.78906C17.1094 3.30469 18.1719 4.01562 19.0781 4.92188C19.9844 5.82812 20.6953 6.89062 21.2109 8.10938C21.7422 9.32812 22.0078 10.625 22.0078 12C22.0078 13.375 21.7422 14.6719 21.2109 15.8906C20.6953 17.1094 19.9844 18.1719 19.0781 19.0781C18.1719 19.9844 17.1094 20.6953 15.8906 21.2109C14.6719 21.7422 13.375 22.0078 12 22.0078ZM8.92969 6.25781C8.53906 6.64844 8.22656 7.10938 7.99219 7.64062C7.77344 8.17188 7.66406 8.73438 7.66406 9.32812C7.66406 9.60938 7.75781 9.85156 7.94531 10.0547C8.14844 10.2422 8.39062 10.3359 8.67188 10.3359C8.9375 10.3359 9.16406 10.2422 9.35156 10.0547C9.55469 9.85156 9.65625 9.60938 9.65625 9.32812C9.65625 9 9.71875 8.69531 9.84375 8.41406C9.96875 8.13281 10.1328 7.89062 10.3359 7.6875C10.5547 7.48438 10.8047 7.32812 11.0859 7.21875C11.3672 7.09375 11.6719 7.03125 12 7.03125C12.3281 7.03125 12.6328 7.09375 12.9141 7.21875C13.1953 7.32812 13.4453 7.48438 13.6641 7.6875C13.8672 7.89062 14.0312 8.14062 14.1562 8.4375C14.2812 8.71875 14.3438 9.02344 14.3438 9.35156C14.3438 9.99219 14.1172 10.5391 13.6641 10.9922C13.2109 11.4453 12.6641 11.6719 12.0234 11.6719C12.0234 11.6719 12.0156 11.6719 12 11.6719C11.7188 11.6875 11.4844 11.7891 11.2969 11.9766C11.1094 12.1641 11.0078 12.3984 10.9922 12.6797V14.0156C10.9922 14.2969 11.0859 14.5391 11.2734 14.7422C11.4766 14.9297 11.7188 15.0234 12 15.0234C12.2812 15.0234 12.5156 14.9297 12.7031 14.7422C12.9062 14.5391 13.0078 14.2969 13.0078 14.0156V13.5703C13.4141 13.4609 13.7891 13.3125 14.1328 13.125C14.4766 12.9219 14.7891 12.6875 15.0703 12.4219C15.4609 12.0156 15.7656 11.5547 15.9844 11.0391C16.2188 10.5078 16.3359 9.94531 16.3359 9.35156C16.3359 8.74219 16.2188 8.17969 15.9844 7.66406C15.7656 7.13281 15.4609 6.67188 15.0703 6.28125C14.6641 5.90625 14.1953 5.60938 13.6641 5.39062C13.1484 5.15625 12.5938 5.03906 12 5.03906C11.4062 5.03906 10.8438 5.14844 10.3125 5.36719C9.79688 5.58594 9.33594 5.88281 8.92969 6.25781ZM13.6641 17.6719C13.6641 18.125 13.5 18.5156 13.1719 18.8438C12.8438 19.1719 12.4531 19.3359 12 19.3359C11.5469 19.3359 11.1562 19.1719 10.8281 18.8438C10.5 18.5156 10.3359 18.125 10.3359 17.6719C10.3359 17.2031 10.5 16.8125 10.8281 16.5C11.1562 16.1719 11.5469 16.0078 12 16.0078C12.4531 16.0078 12.8438 16.1719 13.1719 16.5C13.5 16.8125 13.6641 17.2031 13.6641 17.6719Z"
        fill="#BBC7CD"
        />
</svg>