<svg width="225" height="21" viewBox="0 0 225 21" fill="none" xmlns="http://www.w3.org/2000/svg">
<path d="M35.8395 20.4716C36.121 20.4716 36.249 20.3181 36.249 20.0622V13.6136H39.3197C41.7251 13.6136 43.0046 12.3086 43.0046 9.92873V3.68489C43.0046 1.27948 41.7251 0 39.3197 0H33.1782C32.9223 0 32.7688 0.153537 32.7688 0.409432V20.0622C32.7688 20.3181 32.9223 20.4716 33.1782 20.4716H35.8395ZM38.5009 10.2358H36.249V3.37782H38.5009C39.1918 3.37782 39.5244 3.73607 39.5244 4.4014V9.21223C39.5244 9.85197 39.1918 10.2358 38.5009 10.2358ZM48.3784 20.4716C48.6343 20.4716 48.7878 20.3181 48.7878 20.0622V13.6136H50.5535L52.268 20.1134C52.3192 20.3437 52.4471 20.4716 52.703 20.4716H55.3643C55.6458 20.4716 55.7994 20.3181 55.7226 20.011L53.9569 13.3066C55.1852 12.7692 55.825 11.6432 55.825 9.92873V3.68489C55.825 1.27948 54.5455 0 52.1401 0H45.7171C45.4612 0 45.3077 0.153537 45.3077 0.409432V20.0622C45.3077 20.3181 45.4612 20.4716 45.7171 20.4716H48.3784ZM51.3212 10.2358H48.7878V3.37782H51.3212C51.9865 3.37782 52.3448 3.73607 52.3448 4.4014V9.21223C52.3448 9.87755 51.9865 10.2358 51.3212 10.2358ZM61.4547 20.4716C61.7105 20.4716 61.8641 20.3181 61.8641 20.0622V0.409432C61.8641 0.153537 61.7105 0 61.4547 0H58.7933C58.5119 0 58.3839 0.153537 58.3839 0.409432V20.0622C58.3839 20.3181 58.5119 20.4716 58.7933 20.4716H61.4547ZM67.2891 20.4716C67.6217 20.4716 67.8009 20.2925 67.8009 19.9598V8.44454H67.98L70.5133 20.011C70.5901 20.3181 70.7692 20.4716 71.0763 20.4716H72.3302C72.6373 20.4716 72.8164 20.3181 72.8932 20.011L75.4265 8.44454H75.6057V19.9598C75.6057 20.2925 75.7848 20.4716 76.1174 20.4716H78.4973C78.8299 20.4716 79.0091 20.2925 79.0091 19.9598V0.51179C79.0091 0.179127 78.8299 0 78.4973 0H75.1195C74.8124 0 74.6333 0.153537 74.5565 0.460611L71.716 13.2042L68.8756 0.460611C68.7988 0.153537 68.6197 0 68.3126 0H64.9348C64.6022 0 64.423 0.179127 64.423 0.51179V19.9598C64.423 20.2925 64.6022 20.4716 64.9348 20.4716H67.2891ZM91.3688 20.4716C91.6759 20.4716 91.7782 20.3181 91.7782 20.0622V17.5032C91.7782 17.2217 91.6759 17.0938 91.3688 17.0938H84.9714V11.9247H89.859C90.1149 11.9247 90.2685 11.7712 90.2685 11.4897V8.95633C90.2685 8.67485 90.1149 8.52131 89.859 8.52131H84.9714V3.40341H91.3688C91.6759 3.40341 91.7782 3.22428 91.7782 2.96838V0.409432C91.7782 0.153537 91.6759 0 91.3688 0H81.9519C81.7216 0 81.568 0.153537 81.568 0.409432V20.0622C81.568 20.3181 81.7216 20.4716 81.9519 20.4716H91.3688Z" fill="#191919"/>
<path d="M105.329 20.4716C107.735 20.4716 109.014 19.1921 109.014 16.7867V3.71048C109.014 1.30507 107.735 0 105.329 0H99.1877C98.9063 0 98.7783 0.153537 98.7783 0.409432V20.0622C98.7783 20.3437 98.9063 20.4716 99.1877 20.4716H105.329ZM104.613 17.0938H102.258V3.37782H104.613C105.278 3.37782 105.636 3.73607 105.636 4.42699V16.0702C105.636 16.7611 105.278 17.0938 104.613 17.0938ZM121.374 20.4716C121.681 20.4716 121.783 20.3181 121.783 20.0622V17.5032C121.783 17.2217 121.681 17.0938 121.374 17.0938H114.976V11.9247H119.864C120.12 11.9247 120.274 11.7712 120.274 11.4897V8.95633C120.274 8.67485 120.12 8.52131 119.864 8.52131H114.976V3.40341H121.374C121.681 3.40341 121.783 3.22428 121.783 2.96838V0.409432C121.783 0.153537 121.681 0 121.374 0H111.957C111.727 0 111.573 0.153537 111.573 0.409432V20.0622C111.573 20.3181 111.727 20.4716 111.957 20.4716H121.374ZM130.125 20.4716C132.531 20.4716 133.81 19.1921 133.81 16.7867V10.8755C133.81 10.3893 133.58 10.1079 133.145 9.92873L127.055 7.93275V4.4014C127.055 3.73607 127.439 3.37782 128.078 3.37782H129.307C129.998 3.37782 130.33 3.73607 130.33 4.4014V6.39738C130.33 6.65328 130.484 6.80681 130.74 6.80681H133.401C133.682 6.80681 133.81 6.65328 133.81 6.39738V3.68489C133.81 1.27948 132.531 0 130.125 0H127.259C124.88 0 123.575 1.27948 123.575 3.68489V9.72402C123.575 10.2102 123.805 10.5173 124.265 10.6708L130.33 12.6668V16.0702C130.33 16.7611 129.972 17.0938 129.307 17.0938H128.078C127.439 17.0938 127.055 16.7611 127.055 16.0702V14.0998C127.055 13.8183 126.927 13.6904 126.645 13.6904H123.984C123.728 13.6904 123.575 13.8183 123.575 14.0998V16.7867C123.575 19.1921 124.88 20.4716 127.259 20.4716H130.125ZM139.44 20.4716C139.696 20.4716 139.85 20.3181 139.85 20.0622V0.409432C139.85 0.153537 139.696 0 139.44 0H136.779C136.497 0 136.369 0.153537 136.369 0.409432V20.0622C136.369 20.3181 136.497 20.4716 136.779 20.4716H139.44ZM149.471 20.4716C151.851 20.4716 153.156 19.1921 153.156 16.7867V9.67284C153.156 9.39135 153.003 9.26341 152.747 9.26341H148.448C148.166 9.26341 148.038 9.39135 148.038 9.67284V12.2318C148.038 12.4877 148.166 12.6412 148.448 12.6412H149.778V16.0702C149.778 16.7611 149.42 17.0938 148.755 17.0938H146.912C146.247 17.0938 145.889 16.7611 145.889 16.0702V4.4014C145.889 3.73607 146.221 3.37782 146.912 3.37782H148.755C149.42 3.37782 149.778 3.73607 149.778 4.4014V6.3462C149.778 6.6021 149.906 6.75563 150.188 6.75563H152.747C153.003 6.75563 153.156 6.6021 153.156 6.3462V3.68489C153.156 1.27948 151.851 0 149.471 0H146.093C143.688 0 142.408 1.27948 142.408 3.68489V16.7867C142.408 19.1921 143.688 20.4716 146.093 20.4716H149.471ZM158.786 20.4716C159.067 20.4716 159.195 20.3181 159.195 20.0622V9.21223H159.323L163.238 20.139C163.315 20.3693 163.469 20.4716 163.699 20.4716H166.232C166.488 20.4716 166.642 20.3181 166.642 20.0622V0.409432C166.642 0.153537 166.488 0 166.232 0H163.571C163.29 0 163.162 0.153537 163.162 0.409432V11.2082H163.008L159.118 0.332664C159.042 0.102358 158.888 0 158.658 0H156.124C155.869 0 155.715 0.153537 155.715 0.409432V20.0622C155.715 20.3181 155.869 20.4716 156.124 20.4716H158.786ZM179.001 20.4716C179.309 20.4716 179.411 20.3181 179.411 20.0622V17.5032C179.411 17.2217 179.309 17.0938 179.001 17.0938H172.604V11.9247H177.492C177.748 11.9247 177.901 11.7712 177.901 11.4897V8.95633C177.901 8.67485 177.748 8.52131 177.492 8.52131H172.604V3.40341H179.001C179.309 3.40341 179.411 3.22428 179.411 2.96838V0.409432C179.411 0.153537 179.309 0 179.001 0H169.585C169.354 0 169.201 0.153537 169.201 0.409432V20.0622C169.201 20.3181 169.354 20.4716 169.585 20.4716H179.001ZM184.785 20.4716C185.041 20.4716 185.194 20.3181 185.194 20.0622V13.6136H186.96L188.674 20.1134C188.726 20.3437 188.853 20.4716 189.109 20.4716H191.771C192.052 20.4716 192.206 20.3181 192.129 20.011L190.363 13.3066C191.592 12.7692 192.231 11.6432 192.231 9.92873V3.68489C192.231 1.27948 190.952 0 188.546 0H182.123C181.868 0 181.714 0.153537 181.714 0.409432V20.0622C181.714 20.3181 181.868 20.4716 182.123 20.4716H184.785ZM187.728 10.2358H185.194V3.37782H187.728C188.393 3.37782 188.751 3.73607 188.751 4.4014V9.21223C188.751 9.87755 188.393 10.2358 187.728 10.2358Z" fill="#03C4E8"/>
</svg>
