<svg width="62" height="71" viewBox="0 0 62 71" fill="none" xmlns="http://www.w3.org/2000/svg">
<path d="M45.6995 32.561L40.8887 31.4923L44.6304 36.8358V53.4007L57.4594 42.7137V24.5458L51.5795 26.6832L45.6995 32.561Z" fill="#1876d1"/>
<path d="M15.7652 32.561L20.5761 31.4923L16.8343 36.8358V53.4007L4.00537 42.7137V24.5458L9.8853 26.6832L15.7652 32.561Z" fill="#1876d1"/>
<path fill-rule="evenodd" clip-rule="evenodd" d="M18.4385 37.9046L22.7148 31.4924L25.3875 33.0955H36.0783L38.751 31.4924L43.0273 37.9046V61.9504L39.8201 66.7596L36.0783 70.5H25.3875L21.6457 66.7596L18.4385 61.9504V37.9046Z" fill="#1876d1"/>
<path d="M44.6304 63.5536L51.5794 56.607V49.6605L44.6304 55.5383V63.5536Z" fill="#1876d1"/>
<path d="M16.8343 63.5536L9.88525 56.607V49.6605L16.8343 55.5383V63.5536Z" fill="#1876d1"/>
<path fill-rule="evenodd" clip-rule="evenodd" d="M23.7832 0.5L19.5068 10.6527L26.4558 30.958H29.6632V0.5H23.7832ZM31.8013 0.5V30.958H35.543L41.9575 10.6527L37.6812 0.5H31.8013Z" fill="#1876d1"/>
<path d="M26.4561 30.9581L3.47091 22.4084L0.263672 9.04968L20.0416 10.6527L26.9906 30.9581H26.4561Z" fill="#1876d1"/>
<path d="M35.5433 30.9581L58.5285 22.4084L61.7357 9.04968L41.4232 10.6527L35.0088 30.9581H35.5433Z" fill="#1876d1"/>
<path d="M43.0269 9.04961L54.2523 7.98091L46.7687 0.5H39.2852L43.0269 9.04961Z" fill="#1876d1"/>
<path d="M18.4377 9.04961L7.2124 7.98091L14.6959 0.5H22.1795L18.4377 9.04961Z" fill="#1876d1"/>
</svg>
