<svg id="Flat" xmlns="http://www.w3.org/2000/svg" viewBox="0 0 256 256">
  <path d="M186.61523,94.00049A41.97934,41.97934,0,0,0,162,18.001H94A41.97934,41.97934,0,0,0,69.38477,94.00049a41.93894,41.93894,0,0,0,.00048,67.99939A41.9892,41.9892,0,1,0,136,195.99951V160.948a41.97356,41.97356,0,1,0,50.61523-66.94751ZM188,60.001a26.02916,26.02916,0,0,1-25.98047,25.99951L162,86l-.03857.001L136,86V34.001h26A26.02947,26.02947,0,0,1,188,60.001Zm-120,0a26.02947,26.02947,0,0,1,26-26h26V86H94l-.019.00049A26.02934,26.02934,0,0,1,68,60.001ZM68,128a26.02926,26.02926,0,0,1,25.981-25.99951L94,102.001l26-.00074V153.999L94,154A26.02947,26.02947,0,0,1,68,128Zm26,93.999A25.99951,25.99951,0,1,1,94,170l26-.00073v26.00024A26.02937,26.02937,0,0,1,94,221.999ZM162,154a25.99952,25.99952,0,0,1-.03857-51.999H162l.019-.00049A25.99976,25.99976,0,0,1,162,154Z" fill="#4f8ff7"/>
</svg>
