<svg xmlns="http://www.w3.org/2000/svg" xmlns:xlink="http://www.w3.org/1999/xlink" width="109" height="19" viewBox="0 0 109 19">
    <defs>
        <path id="a" d="M0 .332v9.474h17.832V.332H0z"/>
        <path id="c" d="M0 .332v7.814h14.598V.332H0z"/>
    </defs>
    <g fill="none" fill-rule="evenodd">
        <path fill="#FFF" d="M17.647 9.376C17.555 4.688 13.951.88 9.517.88 5.08.879 1.57 4.786 1.57 9.474H0C0 4.297 3.88.097 8.777 0c4.897 0 8.963 4.2 8.963 9.376h-.093z"/>
        <path fill="#FFF" d="M17.892 9.04c0-3.81-2.864-6.837-6.467-6.837-3.604 0-6.19 3.028-6.19 6.837H3.478c0-4.298 3.326-7.717 7.391-7.814 3.973 0 7.207 3.906 7.3 7.716l-.278.098z"/>
        <path fill="#FFF" d="M17.557 9.023c0-2.735-2.218-4.982-4.897-4.982-2.679 0-4.62 2.247-4.62 5.08H6.378c0-3.322 2.402-6.056 5.543-6.056 3.142 0 5.636 2.734 5.729 5.958h-.093z"/>
        <g transform="translate(0 9.194)">
            <mask id="b" fill="#fff">
                <use xlink:href="#a"/>
            </mask>
            <path fill="#FFF" d="M.185.43c0 4.688 3.603 8.497 8.038 8.497 4.527 0 8.039-3.906 8.039-8.595h1.57c0 5.177-3.973 9.474-8.87 9.474C4.065 9.806.092 5.606 0 .43h.185z" mask="url(#b)"/>
        </g>
        <g transform="translate(0 9.194)">
            <mask id="d" fill="#fff">
                <use xlink:href="#c"/>
            </mask>
            <path fill="#FFF" d="M.185.332c0 3.81 2.864 6.837 6.467 6.837 3.604 0 6.283-3.028 6.19-6.837h1.756c0 4.298-3.326 7.814-7.299 7.814C3.234 8.146 0 4.24 0 .43L.186.332z" mask="url(#d)"/>
        </g>
        <path fill="#FFF" d="M0 9.292c.092 2.734 2.31 4.98 4.897 4.98 2.68 0 4.62-2.246 4.62-5.078h1.662c0 3.32-2.402 6.056-5.543 6.056S0 12.612 0 9.292M26.652 16.365l.831-1.953h4.62l.277 1.953H37l-2.587-15.14H29.7l-7.67 15.14h4.62zm5.174-5.079h-2.957l2.402-5.47.555 5.47zM38.846 16.365l2.495-15.14h4.712l-2.495 15.14zM50.91 16.365l.832-5.274h1.848c.554 0 1.016.098 1.293.195.277.196.462.391.555.684.092.293.092.683 0 1.172l-.093 1.172c-.185.977-.185 1.66-.185 2.051h4.805v-.488c-.092 0-.277 0-.277-.098-.092-.097-.092-.293 0-.684l.37-2.344c.092-1.074.092-1.855-.185-2.246-.277-.488-.832-.88-1.664-1.27.463-.097.832-.293 1.202-.488.462-.39.831-.782 1.108-1.27.37-.586.555-1.172.74-1.954.092-.585.092-1.074 0-1.464a3.351 3.351 0 0 0-.463-1.172 4.51 4.51 0 0 0-.923-.977c-.462-.196-.924-.391-1.57-.489a16.397 16.397 0 0 0-2.496-.195h-6.93l-2.494 15.14h4.528zm1.848-11.427h2.31c.74 0 1.202.097 1.479.39.184.195.277.587.184.977-.092.488-.277.879-.646 1.074-.278.293-.832.39-1.571.39h-2.218l.462-2.831zM70.1 10.016c.925 0 1.48.196 1.757.391.277.292.369.586.277 1.074-.093.39-.277.781-.647 1.074-.37.196-.924.391-1.848.391h-1.94l.462-2.93h1.94zm-.276 6.349c1.108 0 1.848-.098 2.31-.195a8.75 8.75 0 0 0 1.478-.489c.554-.293.924-.488 1.201-.781.462-.293.74-.782 1.016-1.27a4.53 4.53 0 0 0 .647-1.758c.092-.879 0-1.66-.277-2.247-.37-.683-.831-1.074-1.57-1.27 1.385-.878 2.217-1.953 2.402-3.223.277-1.367-.093-2.343-1.109-3.027-.74-.586-1.94-.88-3.788-.88h-7.022l-2.495 15.14h7.207zm.739-11.721c.646 0 1.109.098 1.294.098a.962.962 0 0 1 .554.488c.185.195.185.488.185.781-.093.391-.277.684-.647.977-.277.196-.832.39-1.57.39h-1.757l.463-2.734h1.478zM80.55 1.226h4.62l-1.57 9.376c-.093.586-.093 1.074 0 1.367.092.293.277.587.646.782.37.195.74.293 1.201.293.647 0 1.294-.196 1.663-.586.462-.39.74-1.075.924-1.856l1.57-9.376h4.62l-1.478 8.888c-.184 1.074-.37 1.953-.646 2.637a6.443 6.443 0 0 1-1.109 1.66c-.462.489-1.016.977-1.57 1.27a7.616 7.616 0 0 1-2.033.879c-.832.098-1.664.196-2.495.196-1.016 0-1.848-.098-2.587-.196-.74-.195-1.294-.488-1.756-.879-.554-.39-.923-.781-1.201-1.27-.277-.488-.462-1.172-.462-1.953-.092-.489 0-1.368.185-2.442l1.478-8.79zM108.76 6.012h-4.528c0-.391-.185-.781-.37-.977-.277-.195-.647-.293-1.2-.293-.555 0-1.017.098-1.294.293-.277.196-.37.391-.462.684 0 .293 0 .39.185.586.184.195.647.39 1.478.586l1.756.488c1.57.489 2.679 1.075 3.233 1.856.555.782.74 1.66.555 2.735-.185.879-.462 1.563-.924 2.246-.462.684-1.017 1.27-1.57 1.66-.555.392-1.294.685-2.126.978-.832.195-1.755.293-2.68.293-.923 0-1.847-.098-2.679-.391-.831-.293-1.478-.684-1.94-1.172-.462-.489-.832-1.075-1.017-1.758-.092-.489-.092-1.075-.092-1.759h4.528c0 .489.184.88.461 1.075.278.293.832.39 1.57.39.648 0 1.11-.097 1.387-.293.277-.195.37-.39.462-.683 0-.293 0-.586-.185-.782-.185-.195-.647-.39-1.478-.585l-1.57-.39c-.74-.196-1.572-.49-2.219-.88-.646-.39-1.2-.88-1.477-1.563-.278-.586-.278-1.27-.185-2.149.185-.878.462-1.562.924-2.246a5.163 5.163 0 0 1 1.663-1.563c.554-.488 1.293-.684 2.032-.879a8.64 8.64 0 0 1 2.217-.293c.925 0 1.664.098 2.403.293.74.195 1.2.488 1.663.781.37.294.647.684.832 1.075.276.39.37.781.461 1.172.093.39.185.879.185 1.465"/>
    </g>
</svg>
