<svg xmlns="http://www.w3.org/2000/svg" width="112" height="42" viewBox="0 0 112 42">
    <g fill="#FFF" fill-rule="nonzero">
        <path d="M10.21 10.44L8.032 5.012 5.865 10.44h4.346zM58.217 8.28c-.438.271-.955.28-1.575.28h-3.868V5.536h3.92c.556 0 1.134.026 1.51.246.414.198.67.62.67 1.204 0 .595-.244 1.073-.657 1.294zm27.592 2.161l-2.204-5.428-2.19 5.428h4.394zm-51.433 5.876h-3.264L31.1 5.652l-4.616 10.664h-2.796L19.06 5.642v10.674h-6.476l-1.223-3.037H4.731l-1.236 3.037H.037L5.74 2.7h4.73l5.415 12.891V2.7h5.196l4.167 9.237L29.074 2.7h5.3v13.616h.001zm13.009 0H36.748V2.7h10.636v2.835h-7.452V7.99h7.273v2.792h-7.273V13.5h7.452v2.816zm14.995-9.95c0 2.172-1.417 3.293-2.243 3.63.697.271 1.292.75 1.575 1.147.45.677.527 1.282.527 2.498v2.675h-3.211l-.012-1.717c0-.82.076-1.998-.503-2.653-.465-.479-1.174-.583-2.32-.583h-3.418v4.953H49.59V2.7h7.323c1.627 0 2.826.044 3.855.652 1.008.608 1.611 1.496 1.611 3.015zm5.095 9.95h-3.248V2.7h3.248v13.616zm37.688 0h-4.512l-6.034-10.22v10.22h-6.484l-1.24-3.037H80.28l-1.202 3.037h-3.725c-1.548 0-3.507-.35-4.617-1.506-1.119-1.156-1.701-2.722-1.701-5.198 0-2.02.348-3.866 1.716-5.324C71.78 3.2 73.391 2.7 75.585 2.7h3.083v2.917H75.65c-1.162 0-1.818.177-2.45.807-.543.573-.915 1.657-.915 3.084 0 1.459.284 2.51.875 3.198.49.539 1.381.702 2.22.702h1.43L81.295 2.7h4.77l5.391 12.879V2.7h4.848l5.596 9.483V2.7h3.261v13.616zM0 18.99h5.44l1.227-3.024h2.746l1.223 3.024h10.703v-2.312L22.294 19h5.557l.955-2.357v2.347h26.6l-.013-4.964h.515c.36.012.465.047.465.655v4.31H70.13v-1.157c1.11.608 2.836 1.156 5.107 1.156h5.788l1.238-3.024h2.746l1.212 3.024h11.153v-2.873l1.689 2.873H108V0h-8.845v2.243L97.916 0H88.84v2.243L87.703 0h-12.26c-2.052 0-3.855.293-5.313 1.109V0h-8.46v1.109C60.743.268 59.48 0 58.075 0H27.167l-2.074 4.905L22.963 0h-9.735v2.243L12.158 0H3.856L0 9.029v9.961zM112 28.604h-5.755c-.574 0-.956.022-1.278.246-.333.22-.461.547-.461.979 0 .513.281.863.69 1.014.334.119.691.154 1.217.154l1.712.047c1.727.044 2.88.35 3.582 1.095.128.104.205.22.293.337v-3.872zm0 8.973c-.767 1.155-2.262 1.74-4.285 1.74h-6.098V36.4h6.073c.603 0 1.024-.082 1.278-.337.22-.21.374-.516.374-.888 0-.396-.154-.71-.386-.9-.23-.207-.563-.302-1.113-.302-2.964-.103-6.663.095-6.663-4.212 0-1.974 1.217-4.052 4.53-4.052H112V23h-5.844c-1.764 0-3.045.435-3.952 1.111V23h-8.643c-1.382 0-3.005.353-3.772 1.111V23H74.354v1.111C73.125 23.2 71.053 23 70.096 23H59.915v1.111c-.972-.969-3.133-1.111-4.45-1.111H44.07l-2.607 2.907L39.02 23H22v18.99h16.7l2.687-2.952 2.531 2.953L54.212 42v-4.467h1.012c1.366.021 2.977-.035 4.398-.668v5.125h8.491v-4.95h.41c.523 0 .574.023.574.56v4.39h25.794c1.637 0 3.35-.432 4.297-1.215v1.215h8.182c1.702 0 3.365-.246 4.63-.876v-3.537zm-12.595-5.438c.615.656.944 1.483.944 2.884 0 2.928-1.776 4.295-4.96 4.295h-6.15v-2.919h6.125c.599 0 1.024-.082 1.29-.337.217-.21.373-.516.373-.888 0-.396-.169-.71-.385-.9-.242-.207-.575-.302-1.125-.302-2.953-.103-6.65.095-6.65-4.212 0-1.974 1.203-4.052 4.514-4.052h6.33v2.897h-5.792c-.575 0-.948.022-1.266.245-.345.22-.474.548-.474.98 0 .513.294.862.691 1.013.333.12.691.155 1.23.155l1.699.047c1.714.043 2.89.348 3.606 1.094zm-28.492-.84c-.423.258-.945.28-1.56.28h-3.835v-3.057h3.888c.562 0 1.125.013 1.507.246.409.22.654.642.654 1.225 0 .582-.245 1.051-.654 1.306zm1.907 1.694c.703.267 1.277.746 1.546 1.142.446.665.51 1.285.524 2.485v2.698h-3.17v-1.703c0-.819.076-2.031-.51-2.664-.462-.488-1.165-.604-2.317-.604h-3.375v4.97h-3.173v-13.61h7.29c1.599 0 2.763.073 3.8.643.996.62 1.623 1.47 1.623 3.022 0 2.172-1.407 3.28-2.238 3.62zm3.989-7.286h10.538v2.815h-7.394v2.474h7.214v2.777h-7.214v2.708l7.394.013v2.824H76.809v-13.61zm-21.304 6.281h-4.08v-3.466h4.117c1.14 0 1.93.479 1.93 1.67 0 1.176-.754 1.796-1.967 1.796zm-7.226 6.092l-4.847-5.544 4.847-5.368V38.08zM35.76 36.48h-7.762v-2.708h6.932v-2.777h-6.932v-2.474h7.916l3.454 3.966-3.607 3.993zm25.104-6.29c0 3.78-2.739 4.562-5.499 4.562h-3.94v4.565h-6.137L41.4 34.812l-4.04 4.506H24.85v-13.61h12.7l3.885 4.46 4.016-4.46h10.09c2.505 0 5.32.714 5.32 4.483z"/>
    </g>
</svg>
