<svg height="37" viewBox="0 0 38 37" width="38" xmlns="http://www.w3.org/2000/svg" xmlns:xlink="http://www.w3.org/1999/xlink"><mask id="a" fill="#fff"><path d="m37.72 18.48v-18.209h-37.72v36.419h37.72z" fill="none"/></mask><g fill="none" fill-rule="evenodd"><path d="m18.863 36.187c-10.114 0-18.34-7.943-18.34-17.707 0-9.765 8.226-17.706 18.34-17.706 10.115 0 18.335 7.94 18.335 17.705s-8.22 17.708-18.335 17.708m0-35.916c-10.401-.001-18.863 8.169-18.863 18.208 0 10.042 8.462 18.21 18.863 18.21 10.398 0 18.857-8.168 18.857-18.21 0-10.038-8.459-18.208-18.857-18.208" fill="#221f20" mask="url(#a)" transform="translate(0 .04)"/><g fill="#fff"><path d="m8.113 11.37c.018.016.035.03.053.043.004.002.015-.013.015-.014.37-.446.74-.89 1.103-1.331.135-.161.27-.323.403-.486a.54.54 0 0 0 .087-.565.58.58 0 0 0 -.537-.324c-.192.007-.34.106-.458.246-.164.196-.325.394-.488.59-.335.4-.665.805-.998 1.207.171.135.346.267.519.4.103.078.202.156.301.234"/><path d="m29.585 12.9-.647-1.067 2.229-2.824-3.342 1.48-.939-.84 3.044-3.865.943.841-1.76 2.23 2.81-1.246.826.991-1.876 2.374 2.633-1.167.649 1.07-4.57 2.024zm-10.722 16.49c-6.216 0-11.255-4.867-11.255-10.87 0-6.004 5.039-10.868 11.255-10.868 6.217 0 11.257 4.864 11.257 10.868 0 6.003-5.04 10.87-11.257 10.87zm-14.283-19.121a14.188 14.188 0 0 0 -.453-.356c.024-.029.043-.056.072-.084.351-.423.697-.845 1.049-1.267.41-.491.815-.987 1.225-1.475.078-.092.154-.189.234-.285.135-.163.32-.29.524-.368a1.265 1.265 0 0 1 1.278.262c.163.155.28.351.334.565.056.223.035.439-.03.654.03-.024.061-.051.094-.074.395-.267.91-.343 1.358-.146.447.196.734.585.802 1.05.018.174.007.35-.043.52-.103.326-.342.572-.558.83-.42.507-.84 1.01-1.257 1.516-.348.422-.7.842-1.049 1.263-.027.033-.05.062-.078.093-.005.008-.033-.022-.041-.028-.126-.1-.26-.198-.387-.3-.512-.392-1.018-.788-1.53-1.18-.512-.395-1.028-.796-1.544-1.19zm11.373-8.054 1.687-.181 1.223 3.44 1.218-3.44 1.689.18.187 4.894-1.314-.181-.127-3.262-1.186 3.262h-.94l-1.188-3.262-.121 3.262-1.314.18zm2.91-1.086c-9.95 0-18.013 7.786-18.013 17.39s8.062 17.391 18.012 17.391c9.946 0 18.012-7.787 18.012-17.39 0-9.605-8.066-17.391-18.012-17.391z"/><path d="m8.071 8.267a.543.543 0 0 0 -.129-.502.591.591 0 0 0 -.632-.135c-.157.063-.252.196-.354.324-.4.476-.793.951-1.188 1.427-.004.006-.09.107-.083.11.075.062.157.122.24.186.21.165.423.329.63.494.212-.254.416-.503.626-.756.21-.25.415-.5.626-.75.1-.125.217-.24.264-.398m.103 10.252h10.689v-10.319c-5.834.15-10.536 4.687-10.689 10.32m10.689 10.32c5.833-.15 10.534-4.69 10.687-10.32h-10.687z"/></g></g></svg>