<svg xmlns="http://www.w3.org/2000/svg" xmlns:xlink="http://www.w3.org/1999/xlink" width="38" height="37" viewBox="0 0 38 37">
    <defs>
        <path id="a" d="M37.72 18.48V.271H0V36.69h37.72V18.48z"/>
    </defs>
    <g fill="none" fill-rule="evenodd">
        <g transform="translate(0 .04)">
            <mask id="b" fill="#fff">
                <use xlink:href="#a"/>
            </mask>
            <path fill="#221F20" d="M18.863 36.187C8.749 36.187.523 28.244.523 18.48.523 8.715 8.749.774 18.863.774c10.115 0 18.335 7.94 18.335 17.705 0 9.765-8.22 17.708-18.335 17.708m0-35.916C8.462.27 0 8.44 0 18.479c0 10.042 8.462 18.21 18.863 18.21 10.398 0 18.857-8.168 18.857-18.21C37.72 8.441 29.261.271 18.863.271" mask="url(#b)"/>
        </g>
        <path fill="#FFF" d="M8.113 11.37c.018.016.035.03.053.043.004.002.015-.013.015-.014.37-.446.74-.89 1.103-1.331.135-.161.27-.323.403-.486a.54.54 0 0 0 .087-.565.58.58 0 0 0-.537-.324c-.192.007-.34.106-.458.246-.164.196-.325.394-.488.59-.335.4-.665.805-.998 1.207.171.135.346.267.519.4.103.078.202.156.301.234"/>
        <path fill="#FFF" d="M29.585 12.9l-.647-1.067 2.229-2.824-3.342 1.48-.939-.84 3.044-3.865.943.841-1.76 2.23 2.81-1.246.826.991-1.876 2.374 2.633-1.167.649 1.07-4.57 2.024zM18.863 29.39c-6.216 0-11.255-4.867-11.255-10.87 0-6.004 5.039-10.868 11.255-10.868 6.217 0 11.257 4.864 11.257 10.868 0 6.003-5.04 10.87-11.257 10.87zM4.58 10.269a14.188 14.188 0 0 0-.453-.356c.024-.029.043-.056.072-.084.351-.423.697-.845 1.049-1.267.41-.491.815-.987 1.225-1.475.078-.092.154-.189.234-.285.135-.163.32-.29.524-.368a1.265 1.265 0 0 1 1.278.262c.163.155.28.351.334.565.056.223.035.439-.03.654.03-.024.061-.051.094-.074.395-.267.91-.343 1.358-.146.447.196.734.585.802 1.05.018.174.007.35-.043.52-.103.326-.342.572-.558.83-.42.507-.84 1.01-1.257 1.516-.348.422-.7.842-1.049 1.263-.027.033-.05.062-.078.093-.005.008-.033-.022-.041-.028-.126-.1-.26-.198-.387-.3-.512-.392-1.018-.788-1.53-1.18-.512-.395-1.028-.796-1.544-1.19zm11.373-8.054l1.687-.181 1.223 3.44 1.218-3.44 1.689.18.187 4.894-1.314-.181-.127-3.262-1.186 3.262h-.94l-1.188-3.262-.121 3.262-1.314.18.186-4.892zm2.91-1.086C8.913 1.129.85 8.915.85 18.519c0 9.604 8.062 17.391 18.012 17.391 9.946 0 18.012-7.787 18.012-17.39 0-9.605-8.066-17.391-18.012-17.391z"/>
        <path fill="#FFF" d="M8.071 8.267a.543.543 0 0 0-.129-.502.591.591 0 0 0-.632-.135c-.157.063-.252.196-.354.324-.4.476-.793.951-1.188 1.427-.004.006-.09.107-.083.11.075.062.157.122.24.186.21.165.423.329.63.494.212-.254.416-.503.626-.756.21-.25.415-.5.626-.75.1-.125.217-.24.264-.398M8.174 18.519h10.689V8.2C13.029 8.35 8.327 12.887 8.174 18.52M18.863 28.84c5.833-.15 10.534-4.69 10.687-10.32H18.863v10.32z"/>
    </g>
</svg>
