<svg height="33" viewBox="0 0 84 33" width="84" xmlns="http://www.w3.org/2000/svg" xmlns:xlink="http://www.w3.org/1999/xlink"><mask id="a" fill="#fff"><path d="m0 .031v20.364h19.537v-20.365h-19.537z" fill="none"/></mask><mask id="b" fill="#fff"><path d="m1.134.564v-.543h-1.133v.543z" fill="none"/></mask><g fill="#fff" fill-rule="evenodd"><path d="m4.06 8.39s.277-5.49 5.833-5.492c5.535-.002 5.535 5.492 5.535 5.492h-11.367zm5.929-8.36c-9.659-.001-10.035 8.384-9.986 10.561 0 0-.473 9.804 9.749 9.804 8.783 0 9.215-6.152 9.215-6.152l-4.04.01s-.787 3.388-5.158 3.298c-5.62-.117-5.838-6.188-5.838-6.188h15.567s1.182-11.33-9.51-11.333z" mask="url(#a)" transform="translate(0 8.25)"/><path d="m30.138 24.624c-6.376.084-6.272-7.128-6.272-7.128s-.233-6.942 6.262-7.12c6.495-.179 6.283 7.268 6.283 7.268s.104 6.895-6.273 6.98m.928-17.132c-5.05-.03-7.222 3.151-7.222 3.151v-10.643h-4.047l.068 22.494s-.024 2.62-.177 4.352h3.931l.169-2.527s1.834 3.181 7.192 3.181c5.36 0 9.592-3.479 9.705-9.93.112-6.451-4.57-10.048-9.62-10.078m18.355 18.591s-4.168.006-4.413-3.5c-.26-3.742 6.412-3.517 6.412-3.517l4.715-.004s.763 7.124-6.714 7.021m10.868-2.436c.01-2.986.093-5.652 0-7.533-.11-2.18.087-7.443-8.869-7.832 0 0-8.585-.824-9.477 5.903h4.391s.341-3.082 4.797-2.993c4.217.084 4.985 2.26 4.963 4.938 0 0-3.614.01-4.82.017-2.174.012-9.78.265-10.49 5.142-.844 5.8 4.072 7.609 7.92 7.586 3.847-.023 6.042-1.236 7.672-3.41l.174 2.7 3.826-.022s-.099-1.51-.087-4.496"/><path d="m56.438 8.25h4.617l6.753 13.884 6.768-13.884h4.174l-12.218 24.75h-4.464l3.535-6.878zm25.203 1.062v-.56h-.266v-.21h.266v-.292h.482v.292h.564v.21h-.564v.522c0 .095.095.133.258.133.108 0 .204-.012.3-.036v.2c-.12.034-.251.054-.434.054-.356 0-.606-.079-.606-.313"/><path d="m0 .032h.171v.08a.3.3 0 0 1 .229-.089c.107 0 .183.036.222.093a.347.347 0 0 1 .251-.096c.162 0 .261.074.261.204v.34h-.17v-.303c0-.085-.056-.13-.152-.13-.093 0-.16.046-.16.132v.3h-.17v-.302c0-.083-.057-.129-.15-.129-.095 0-.16.05-.16.132v.3h-.172z" mask="url(#b)" transform="translate(82.688 8.25)"/></g></svg>