<svg xmlns="http://www.w3.org/2000/svg" xmlns:xlink="http://www.w3.org/1999/xlink" width="84" height="33" viewBox="0 0 84 33">
    <defs>
        <path id="a" d="M0 .031v20.364h19.537V.03H0z"/>
        <path id="c" d="M1.134.564V.021H.001v.543h1.133z"/>
    </defs>
    <g fill="none" fill-rule="evenodd">
        <g transform="translate(0 8.25)">
            <mask id="b" fill="#fff">
                <use xlink:href="#a"/>
            </mask>
            <path fill="#FFF" d="M4.06 8.39s.277-5.49 5.833-5.492c5.535-.002 5.535 5.492 5.535 5.492H4.061zM9.989.03C.33.029-.046 8.414.003 10.591c0 0-.473 9.804 9.749 9.804 8.783 0 9.215-6.152 9.215-6.152l-4.04.01s-.787 3.388-5.158 3.298c-5.62-.117-5.838-6.188-5.838-6.188h15.567S20.68.033 9.988.03z" mask="url(#b)"/>
        </g>
        <path fill="#FFF" d="M30.138 24.624c-6.376.084-6.272-7.128-6.272-7.128s-.233-6.942 6.262-7.12c6.495-.179 6.283 7.268 6.283 7.268s.104 6.895-6.273 6.98m.928-17.132c-5.05-.03-7.222 3.151-7.222 3.151V0h-4.047l.068 22.494s-.024 2.62-.177 4.352h3.931l.169-2.527S25.622 27.5 30.98 27.5c5.36 0 9.592-3.479 9.705-9.93.112-6.451-4.57-10.048-9.62-10.078M49.42 26.083s-4.168.006-4.413-3.5c-.26-3.742 6.412-3.517 6.412-3.517l4.715-.004s.763 7.124-6.714 7.021m10.868-2.436c.01-2.986.093-5.652 0-7.533-.11-2.18.087-7.443-8.869-7.832 0 0-8.585-.824-9.477 5.903h4.391s.341-3.082 4.797-2.993c4.217.084 4.985 2.26 4.963 4.938 0 0-3.614.01-4.82.017-2.174.012-9.78.265-10.49 5.142-.844 5.8 4.072 7.609 7.92 7.586 3.847-.023 6.042-1.236 7.672-3.41l.174 2.7 3.826-.022s-.099-1.51-.087-4.496"/>
        <path fill="#FFF" d="M56.438 8.25h4.617l6.753 13.884L74.576 8.25h4.174L66.532 33h-4.464l3.535-6.878zM81.641 9.312v-.56h-.266v-.21h.266V8.25h.482v.292h.564v.21h-.564v.522c0 .095.095.133.258.133.108 0 .204-.012.3-.036v.2c-.12.034-.251.054-.434.054-.356 0-.606-.079-.606-.313"/>
        <g transform="translate(82.688 8.25)">
            <mask id="d" fill="#fff">
                <use xlink:href="#c"/>
            </mask>
            <path fill="#FFF" d="M0 .032h.171v.08A.3.3 0 0 1 .4.023c.107 0 .183.036.222.093A.347.347 0 0 1 .873.02c.162 0 .261.074.261.204v.34h-.17V.261c0-.085-.056-.13-.152-.13-.093 0-.16.046-.16.132v.3h-.17V.261C.482.178.425.132.332.132c-.095 0-.16.05-.16.132v.3H0V.032z" mask="url(#d)"/>
        </g>
    </g>
</svg>
