<svg xmlns="http://www.w3.org/2000/svg" xmlns:xlink="http://www.w3.org/1999/xlink" width="77" height="32" viewBox="0 0 77 32">
    <defs>
        <path id="a" d="M76.08 31.096H0V.001h76.08v31.095z"/>
    </defs>
    <g fill="none" fill-rule="evenodd">
        <mask id="b" fill="#fff">
            <use xlink:href="#a"/>
        </mask>
        <path fill="#FFF" d="M35.8 10.699c.146-.16.392-.636.343-.954-.023-.159-.097-.345-.27-.319-.37.079-.59.267-.687.662-.124.424-.073.717 0 1.034 0 0 .244.027.614-.423m19.357 10.259c1.055-.053 2.992-2.226 3.46-2.757.097-.133.27-.37.365-.37.1 0 .296.105.296.262 0 .108-.22.506-.391.744-.983 1.326-2.602 3.366-4.442 3.419-.907 0-1.25-.396-1.375-1.165-.415.397-1.84 1.087-3.288 1.087-1.202-.027-1.694-.795-1.937-1.404-.223-.505-.319-1.247-.147-1.99-.663.372-1.277.424-2.16.399-1.029-.027-1.667-.532-1.985-1.828-1.178 2.33-1.228 2.411-2.43 4.848h-2.087l2.675-4.905c.345-.66.517-1.19.637-1.748a.513.513 0 0 0-.465-.635c-.341 0-.906.37-1.448.928 0 0-1.375 1.591-2.38 3.205-.956 1.539-2.6 3.291-4.39 3.291-1.302 0-2.48-.77-2.723-2.255 0 0-.125.345-1.277 1.06-.099.052-.344.21-.417.158-.222-.21-.343-.477-.367-.663.073.026.22-.105.685-.503.91-.743 1.106-1.325 1.106-1.325.221-.505.613-1.299.883-1.856.735-1.59 2.01-3.207 4.096-3.287.344 0 .442.16.515.292.198.16.124.476.124.476-1.472.238-2.48 1.168-3.092 2.069-.368.584-.759 1.536-.835 2.227-.145 1.193.371 1.99 1.13 2.173 1.422.239 2.6-.874 3.534-2.6.243-.448.417-1.615.417-2.252 0-.636-.32-1.297-.565-1.563 0-.452.269-.742.588-.742.098 0 .195 0 .295.106.489.529.76 1.537.76 2.308 0 .262 0 .528-.048.793 1.03-1.351 2.33-3.101 3.335-3.448.197-.105.394-.105.59-.105 1.84-.052 1.594 1.749 1.594 1.749.982-1.218 1.669-1.67 2.574-1.617.984.056 1.328.796 1.328 1.381-.026.689-.493 1.482-1.3 1.51-.712 0-1.13-.372-1.351-1.06-.465.185-.686.53-.783 1.22-.147.872.465 1.563 1.25 1.563 1.349 0 1.937-.636 2.428-1.113 1.668-1.698 2.602-3.475 5.007-3.445 1.444.025 1.815 1.273 2.06 1.801l3.166-5.779h1.936l-5.25 10.047c-.097.212-.342.61-.32.928.05.504.639.371.419.371m-33.639 1.405c-2.133 0-4.022-1.51-4.07-4.215-.025-1.643 1.201-3.658 3.481-4.268.272 0 .371.106.371.266 0 .105-.1.237-.32.344-.66.266-1.816 1.672-1.816 2.967 0 .983.567 2.07 1.524 2.31.266.077.513.052.758.052 2.381 0 5.055-2.89 7.951-7.29-.467.026-2.457.264-2.945.873-.221.188-.367.08-.418-.13 0-.054.075-.241.15-.346.781-.954 3.137-1.167 3.702-1.245C32 8.177 34.695 5.944 35.435 5.784c-.015-.006-.035-.013-.054-.017-1.889-.478-3.606-.873-4.955-.873-4.736 0-6.844 2.199-6.746 4.215.05.822.662 1.35 1.567 1.166.984-.187 2.357-1.193 2.702-2.068.074-.186.27-.212.343-.16.146.131.097.32.097.32-.12 1.033-1.595 3.897-4.146 3.897-1.423 0-2.381-1.432-2.353-2.838.023-2.624 2.5-5.276 8.61-5.276 1.153 0 2.453.108 3.876.373 1.643.317 5.742 1.06 9.077 1.112 1.226 0 2.799.054 4.073-.157 1.349-.24 1.054-.292 1.594-.292.491 0 .491.211.491.423 0 .848-2.748 2.466-5.078 2.466-3.433 0-6.998-1.683-8.848-2.225.072.073.122.19.065.342a2.493 2.493 0 0 1-.37.424c-.49.477-2.158 1.646-3.974 4.96 1.474-.08 3.19-.399 3.19-.399s-.096-.345-.096-.638c.074-1.14.686-1.83 1.47-1.696a.912.912 0 0 1 .739.902c0 .448-.322 1.114-.638 1.432-.221.185-.468.37-.763.53 0 .292.368.529.687.557-.073.29-.05.423-.171.397-.737 0-1.032-.77-1.032-.77-.981.186-1.936.32-3.874.53-4.884 8.537-6.405 9.942-9.4 9.942M38.051 2.731c-19.577 0-35.4 5.752-35.4 12.83 0 7.106 15.823 12.86 35.4 12.86 19.554 0 35.43-5.754 35.43-12.86 0-7.078-15.876-12.83-35.43-12.83m15.194 12.103c-.86-.107-1.94.69-2.825 1.856-.44.583-.908 1.696-.98 2.358-.098.663.072 1.329.295 1.512.22.187 1.2.742 2.722-.928.86-.926 1.693-2.439 1.693-2.439l-.27-.078c.516-1.035.419-2.147-.635-2.28M38.05 29.504c-20.166 0-36.554-6.203-36.554-13.944 0-7.715 16.388-13.996 36.554-13.996 20.219 0 36.58 6.28 36.58 13.996 0 7.74-16.361 13.944-36.58 13.944M38.05 0C17.027 0 0 6.973 0 15.56c0 8.59 17.027 15.536 38.05 15.536 21.003 0 38.03-6.947 38.03-15.536 0-8.588-17.027-15.56-38.03-15.56" mask="url(#b)"/>
    </g>
</svg>
