<svg xmlns="http://www.w3.org/2000/svg" xmlns:xlink="http://www.w3.org/1999/xlink" width="68" height="45" viewBox="0 0 68 45">
    <defs>
        <path id="a" d="M0 44.072h67.95V.117H0z"/>
    </defs>
    <g fill="none" fill-rule="evenodd">
        <path fill="#FFF" d="M67.649 12.602C64.464-2.65 34.272-3.618 14.81 8.003v1.284C34.25-.517 61.824-.457 64.335 13.594c.842 4.648-1.827 9.49-6.595 12.278v3.646c5.736-2.064 11.62-8.74 9.909-16.916M32.277 39.3C18.85 40.515 4.855 38.602 2.895 28.308c-.96-5.074 1.4-10.454 4.527-13.799v-1.786C1.79 17.568-1.261 23.698.496 30.94c2.246 9.288 14.254 14.547 32.587 12.8 7.257-.689 16.748-2.978 23.35-6.535v-5.05C50.44 35.656 40.532 38.55 32.277 39.3"/>
        <path fill="#FFF" d="M55.347 10.381h-3.52v15.38c0 1.803.888 3.37 3.52 3.621v-19zM13.428 15.997H9.901L9.9 26.046c0 1.809.892 3.374 3.53 3.62V15.997z"/>
        <mask id="b" fill="#fff">
            <use xlink:href="#a"/>
        </mask>
        <path fill="#FFF" d="M9.901 14.123h3.516v-3.274H9.901zM34.512 29.507c-2.85 0-4.056-1.943-4.056-3.856V12.308h3.49v3.69h2.629v2.764h-2.629v6.677c0 .78.378 1.215 1.207 1.215h1.422v2.853h-2.063M43.77 18.6c-1.194 0-2.112.603-2.501 1.417-.227.489-.31.87-.335 1.472h5.378c-.068-1.472-.748-2.89-2.542-2.89m-2.836 5.224c0 1.752 1.117 3.039 3.092 3.039 1.549 0 2.312-.421 3.206-1.287l2.156 2.015c-1.382 1.34-2.831 2.154-5.387 2.154-3.34 0-6.54-1.788-6.54-7 0-4.457 2.796-6.976 6.462-6.976 3.727 0 5.869 2.949 5.869 6.82v1.235h-8.858M22.907 18.762c1.023 0 1.449.496 1.449 1.302v9.463h3.49v-9.483c0-1.922-1.044-4.043-4.109-4.043l-7.21-.004v13.53h3.492V18.762h2.888zM59.417 11.401c0-.165-.105-.218-.33-.218h-.223v.471c.035 0 .194.007.223.007.225 0 .33-.073.33-.23v-.03zm.34 1.178h-.263a.059.059 0 0 1-.053-.034l-.354-.59a.105.105 0 0 0-.05-.028H58.875v.589c0 .029-.02.063-.059.063h-.236c-.035 0-.059-.034-.059-.063V11.03c0-.087.03-.122.107-.133.085-.01.306-.02.43-.02.436 0 .693.126.693.523v.03c0 .245-.124.379-.315.438l.368.616c.006.009.01.03.01.043 0 .024-.014.051-.058.051zm-.622-1.969c-.64 0-1.154.519-1.154 1.145 0 .63.514 1.14 1.154 1.14.64 0 1.17-.51 1.17-1.14 0-.626-.53-1.145-1.17-1.145zm0 2.52a1.38 1.38 0 0 1-1.395-1.375c0-.756.62-1.374 1.395-1.374.772 0 1.406.618 1.406 1.374 0 .76-.634 1.375-1.406 1.375z" mask="url(#b)"/>
    </g>
</svg>
