<svg height="40" viewBox="0 0 92 40" width="92" xmlns="http://www.w3.org/2000/svg"><g fill="#fff" transform=""><path d="m91.9547541 39.8936709c-4.1827322 0-8.4408743 0-12.5733333 0-.1156285 0-.326776-.5113924-.3871039-.6177215-1.7293989-3.1443038-3.4587978-6.3037975-5.178142-9.443038-1.84 3.3417721-3.6297268 6.7392405-5.4646995 10.0860759-4.117377.0101266-8.1995628-.0202531-12.2817486-.0101265.4625136-.8708861.9551912-1.721519 1.4478688-2.5772152 3.4336612-5.9746836 6.8170492-12.0303798 10.2557377-18.0101266-3.6548634-6.4303798-7.3650273-12.81012659-11.04-19.22531647-.0100546 0-.0351912-.04050633-.0100546-.03544304h12.6336612c1.5534426 2.84556962 3.0666667 5.72658228 4.5949727 8.59240507 1.5886338-2.84050633 3.1219672-5.73670886 4.6955191-8.59240507h12.2113661c.0100547.05063292-.0251366.10632912-.0502732.14683545-3.5643716 6.30886076-7.2142077 12.63797466-10.7735519 18.95696206 3.9565027 6.9164557 7.9884153 13.8278481 11.9197814 20.7291139z"/><path d="m61.4288525 15.5189873c.3217486 1.3164557.5077595 2.764557.5077595 4.2886076 0 4.7544304-1.3674317 8.278481-3.2677595 11.1443038-.3217487.486076-.6485246.9518988-1.0004372 1.3974684-1.0306011 1.3164557-2.277377 2.5164557-3.6699454 3.513924-.9350819.6683545-1.9103825 1.2759494-2.9912568 1.7873418-2.151694 1.0177215-4.7508197 1.8126582-7.7471038 1.8126582-4.6854645 0-8.1442623-1.4379746-10.9444809-3.4126582-2.8002186-1.9797468-4.9820765-4.5974683-6.4651366-7.8987342-.9954098-2.2126582-1.6489617-4.7645569-1.7243716-7.8734177-.0351912-1.5392405.155847-3.0582278.4323497-4.3746835.7038252-3.321519 2.0863388-5.92405066 3.835847-8.16708864 1.7495082-2.23797468 3.9665574-3.98987342 6.6461203-5.3113924 1.0507103-.5164557 2.2271038-.95696203 3.509071-1.27594937s2.6996721-.53670886 4.2330055-.53670886h.0251366c1.498142-.07088608 3.0867759.1721519 4.3335519.45063291 1.2970492.28860759 2.4985792.72911392 3.5693989 1.21518987 3.3180328 1.50886076 5.7914754 3.76708861 7.7822951 6.58734177 1.3121311 1.84810132 2.2974863 4.06582282 2.9359563 6.65316452zm-15.0819673 13.1949368c.1206558-.486076.0854645-1.1088608.0854645-1.7518988 0-4.9063291 0-9.7113924 0-14.6329114 0-.6278481-.0703825-1.113924-.2513661-1.5696202-.1659016-.4151899-.4222951-.79493674-.7239344-1.1037975-.5881967-.60253164-1.4730055-1.14430379-2.5840437-1.05822785-.5379235.04050633-.9853552.21265823-1.3774864.4607595-.7289617.46582278-1.2819672 1.17974685-1.5081967 2.12658225-.1156284.4810127-.1106011 1.0936709-.1106011 1.7265823v14.6329114c0 .313924-.015082.6177215.0251366.8860759.1055738.7696203.4474317 1.3873418.8948634 1.8481013.5781421.5924051 1.4730055 1.0886076 2.6292896.9620253 1.4931148-.1620253 2.5890711-1.1594936 2.9208743-2.5265822z"/><path d="m24.6389071 10.9265823c-4.4542076 0-8.903388 0-13.3575956 0-.0553006 1.6708861-.0100547 3.5189873-.0251366 5.2 3.6096174.0303797 7.2745355.0050633 10.9092896.0101266v10.9012658c-3.6598907.0101266-7.3499454-.0151899-10.9897268.0101266.0050273 4.3240506.0251366 8.5670886.0251366 12.8911392 0 .0151899-.0050273.0202532-.0100546.0253165-3.71016396 0-7.42535522 0-11.13551915 0-.02010929.0050633-.02010929-.0101266-.03519126-.0101266-.02513661-13.2759494-.02513661-26.6379747-.00502732-39.91898736 0-.01518988 0-.03544304.01005464-.03544304h23.85464479c.015082 0 .0201093 0 .0251366.01012658.2513662 3.63544304.4926776 7.27594937.7339891 10.91645572z"/></g></svg>