<svg xmlns="http://www.w3.org/2000/svg" width="57" height="60" viewBox="0 0 57 60">
    <g fill="none" fill-rule="evenodd">
        <path fill="#20272A" d="M28.38 0L0 9.957l4.328 36.917L28.38 59.979l24.05-13.105 4.33-36.917z"/>
        <path d="M32.054 26.595c1.102 0 1.998-.875 1.998-1.956 0-1.078-.896-1.957-1.998-1.957-1.103 0-1.997.879-1.997 1.957 0 1.081.894 1.956 1.997 1.956zM26.055 22.682c-1.104 0-1.998.879-1.998 1.957 0 1.081.894 1.956 1.998 1.956 1.103 0 1.997-.875 1.997-1.956 0-1.078-.894-1.957-1.997-1.957zM19.055 22.682c-1.103 0-1.998.879-1.998 1.957 0 1.081.895 1.956 1.998 1.956 1.104 0 1.997-.875 1.997-1.956 0-1.078-.893-1.957-1.997-1.957zM43.462 30.586c0-2.584-1.864-4.82-4.564-5.903 0 .036.006.071.006.107 0 4.933-4.206 9.06-9.846 10.14h-.001c1.509 1.382 3.717 2.26 6.18 2.26.754 0 1.5-.084 2.22-.247l.283-.029c.46 0 1.446.208 2.375.431-.126-.273-.2-.551-.179-.813a1.08 1.08 0 0 1 .491-.825c1.928-1.289 3.035-3.155 3.035-5.12z"/>
        <path fill="#FFF" d="M41.063 37.058c2.225-1.544 3.497-3.778 3.497-6.152 0-3.376-2.55-6.26-6.132-7.424-.959-4.983-6.226-8.8-12.598-8.8-7.054 0-12.773 4.67-12.773 10.428 0 3.29 1.884 6.202 4.784 8.134 1.105.738-1.574 3.217-1.574 3.217s5.356-1.48 6.156-1.3a15.533 15.533 0 0 0 4.637.324c1.743 2.051 4.618 3.399 7.872 3.399.86 0 1.714-.096 2.503-.276.517 0 2.643.526 3.99.897l2.735.755-2.063-1.916c-.46-.427-.911-.994-1.034-1.286zM19.356 26.96c-1.103 0-1.998-.875-1.998-1.957 0-1.078.896-1.956 1.998-1.956 1.104 0 1.997.878 1.997 1.956 0 1.082-.893 1.957-1.997 1.957zM32.3 23.046c1.103 0 1.998.878 1.998 1.956 0 1.082-.895 1.957-1.998 1.957s-1.997-.875-1.997-1.957c0-1.078.894-1.956 1.997-1.956zm-6.47 3.913c-1.105 0-2-.875-2-1.957 0-1.078.895-1.956 2-1.956 1.102 0 1.996.878 1.996 1.956 0 1.082-.894 1.957-1.997 1.957zm13.8 9.893c-.021.262.053.54.179.813-.929-.222-1.915-.43-2.375-.43l-.282.028c-.72.163-1.467.247-2.222.247-2.462 0-4.67-.878-6.178-2.26h-.001c5.641-1.08 9.847-5.206 9.847-10.14 0-.036-.007-.071-.007-.107 2.7 1.084 4.565 3.32 4.565 5.903 0 1.966-1.107 3.833-3.035 5.121a1.08 1.08 0 0 0-.49.825z"/>
    </g>
</svg>
