<svg xmlns="http://www.w3.org/2000/svg" width="239" height="227" viewBox="0 0 239 227">
    <g fill="#FFF" fill-rule="evenodd">
        <g fill-rule="nonzero">
            <path d="M21.678 115.918c.748 0 1.495-.563 1.495-1.501V95.65c0-.751-.56-1.502-1.495-1.502-.934 0-1.495.563-1.495 1.502v18.954c.187.75.748 1.314 1.495 1.314zM20.37 130.18c0 .751.56 1.502 1.495 1.502s1.495-.563 1.495-1.501v-6.756c0-.751-.56-1.502-1.495-1.502-.934 0-1.495.563-1.495 1.502v6.756zM60.176 30.528c0 3.941 3.177 7.132 7.102 7.132 3.924 0 7.101-3.19 7.101-7.132 0-3.94-3.177-7.131-7.101-7.131-3.925 0-7.102 3.19-7.102 7.131zm11.4 0c0 2.44-1.869 4.317-4.298 4.317-2.43 0-4.299-1.877-4.299-4.317 0-2.44 1.87-4.316 4.299-4.316 2.43 0 4.298 2.064 4.298 4.316zM134.742 210.878c-3.55 0-6.54 3.003-6.54 6.569s2.99 6.568 6.54 6.568c3.551 0 6.541-3.002 6.541-6.568s-2.99-6.569-6.54-6.569zm0 10.51c-2.055 0-3.737-1.69-3.737-3.753 0-2.065 1.682-3.754 3.737-3.754 2.056 0 3.738 1.69 3.738 3.754s-1.682 3.753-3.738 3.753zM206.132 214.444c0-.75-.561-1.501-1.496-1.501h-23.36c-.747 0-1.495.563-1.495 1.501 0 .75.56 1.502 1.495 1.502h23.36c.935-.188 1.496-.751 1.496-1.502zM219.96 212.943H212.3c-.748 0-1.495.563-1.495 1.501 0 .75.56 1.502 1.495 1.502h7.662c.747 0 1.495-.563 1.495-1.502 0-.938-.56-1.501-1.495-1.501zM219.96 221.013h-16.258c-.747 0-1.495.563-1.495 1.501 0 .75.56 1.501 1.495 1.501h16.259c.747 0 1.495-.563 1.495-1.501s-.56-1.501-1.495-1.501zM196.6 221.013h-5.232c-.748 0-1.495.563-1.495 1.501 0 .75.56 1.501 1.495 1.501h5.233c.747 0 1.495-.563 1.495-1.501s-.561-1.501-1.495-1.501zM64.848 9.51c0 .75.56 1.5 1.495 1.5h23.36c.748 0 1.496-.562 1.496-1.5 0-.751-.56-1.502-1.495-1.502H66.156c-.747.188-1.308.75-1.308 1.501zM51.019 11.01h7.662c.748 0 1.495-.562 1.495-1.5 0-.751-.56-1.502-1.495-1.502H51.02c-.748 0-1.495.563-1.495 1.501 0 .939.747 1.502 1.495 1.502zM51.019 2.941h16.259c.747 0 1.495-.563 1.495-1.501 0-.939-.748-1.314-1.495-1.314H51.019c-.748 0-1.495.563-1.495 1.501 0 .939.747 1.314 1.495 1.314zM74.38 2.941h5.232c.748 0 1.495-.563 1.495-1.501 0-.939-.747-1.314-1.495-1.314h-5.233c-.747 0-1.495.563-1.495 1.501 0 .939.748 1.314 1.495 1.314zM41.114 161.146H17.567c-.748 0-1.495.563-1.495 1.501 0 .751.56 1.502 1.495 1.502h23.547c.748 0 1.495-.563 1.495-1.502-.187-.75-.747-1.5-1.495-1.5zM9.905 161.146H2.429c-.747 0-1.495.563-1.495 1.501 0 .751.561 1.502 1.495 1.502h7.663c.747 0 1.495-.563 1.495-1.502-.187-.75-.935-1.5-1.682-1.5zM2.43 155.891h16.258c.748 0 1.495-.563 1.495-1.5 0-.752-.56-1.502-1.495-1.502H2.43c-.747 0-1.495.563-1.495 1.501s.561 1.501 1.495 1.501zM31.023 155.891c.747 0 1.495-.563 1.495-1.5 0-.752-.561-1.502-1.495-1.502H25.79c-.748 0-1.495.563-1.495 1.501 0 .75.56 1.501 1.495 1.501h5.233zM134.742 13.638c.187.188.561.376.935.376s.747-.188.934-.376c.56-.563.56-1.501 0-2.064l-3.177-3.19a1.462 1.462 0 0 0-2.056 0 1.477 1.477 0 0 0 0 2.064l3.364 3.19zM144.647 23.772c.187.188.56.376.935.376.373 0 .747-.188.934-.376.56-.563.56-1.501 0-2.064l-3.177-3.19a1.462 1.462 0 0 0-2.056 0 1.477 1.477 0 0 0 0 2.064l3.364 3.19zM132.687 24.148c.373 0 .747-.188.934-.376l3.177-3.19c.56-.563.56-1.501 0-2.064a1.462 1.462 0 0 0-2.056 0l-3.177 3.19a1.477 1.477 0 0 0 0 2.064c.374.188.748.376 1.122.376zM142.591 14.014c.374 0 .748-.188.935-.376l3.177-3.19c.56-.563.56-1.502 0-2.065a1.462 1.462 0 0 0-2.056 0l-3.177 3.19a1.477 1.477 0 0 0 0 2.065c.374.376.748.376 1.121.376zM199.217 76.32c.187.187.56.375.934.375s.748-.188.935-.375c.56-.563.56-1.502 0-2.065l-3.177-3.19a1.462 1.462 0 0 0-2.056 0 1.477 1.477 0 0 0 0 2.064l3.364 3.19zM206.132 83.263l3.177 3.19c.186.188.56.376.934.376s.747-.188.934-.375c.561-.563.561-1.502 0-2.065L208 81.2a1.462 1.462 0 0 0-2.055 0c-.374.563-.374 1.501.187 2.064zM196.227 86.266c.187.188.56.375.934.375s.748-.187.935-.375l3.177-3.19c.56-.563.56-1.502 0-2.065a1.462 1.462 0 0 0-2.056 0l-3.177 3.19c-.374.564-.374 1.502.187 2.065zM207.253 76.695c.374 0 .747-.188.934-.375l3.177-3.19c.56-.564.56-1.502 0-2.065a1.462 1.462 0 0 0-2.055 0l-3.177 3.19a1.477 1.477 0 0 0 0 2.065c.373.187.747.375 1.12.375zM49.15 211.254a1.462 1.462 0 0 0-2.056 0 1.477 1.477 0 0 0 0 2.064l3.177 3.19c.187.188.561.376.935.376s.747-.188.934-.375c.56-.563.56-1.502 0-2.065l-2.99-3.19zM59.242 221.388a1.462 1.462 0 0 0-2.056 0 1.477 1.477 0 0 0 0 2.064l3.177 3.19c.187.188.56.376.935.376.373 0 .747-.188.934-.375.56-.563.56-1.502 0-2.065l-2.99-3.19zM50.271 221.388l-3.177 3.19a1.477 1.477 0 0 0 0 2.065c.187.187.561.375.935.375s.747-.188.934-.375l3.177-3.19c.56-.564.56-1.502 0-2.065-.374-.563-1.308-.563-1.869 0zM60.363 211.254l-3.177 3.19a1.477 1.477 0 0 0 0 2.065c.187.187.56.375.934.375s.748-.188.935-.375l3.177-3.19c.56-.564.56-1.502 0-2.065s-1.308-.563-1.869 0zM42.61 69.188c9.904-5.817 14.202-17.828 10.278-28.713-4.485-12.386-18.128-18.955-30.462-14.45-2.99 1.125-5.607 2.814-7.85 4.691-3.55 3.19-5.98 7.32-7.288 12.01-1.12 4.693-.934 9.572.561 14.076C11.774 67.875 23.36 74.443 34.76 72.191c.56.188 2.056.938 2.99 1.501 2.43 1.502 3.738 2.065 4.672 2.065.187 0 .374 0 .561-.188.374-.188.748-.375.748-.75a1.2 1.2 0 0 0 0-1.127c-.374-1.501-1.122-3.565-1.122-4.504zm-2.243 2.628c-.374-.188-.748-.376-.935-.563-2.43-1.314-3.55-2.065-4.298-2.065h-.374c-10.091 2.065-20.557-3.753-23.92-13.512-1.496-3.941-1.683-8.257-.561-12.386 1.12-4.129 3.177-7.695 6.354-10.51 2.055-1.876 4.298-3.19 6.914-4.128 10.84-3.941 22.987 1.689 26.911 12.761 3.551 9.759-.56 20.456-9.344 25.523-.934.376-2.056 1.126-.747 4.88z"/>
            <path d="M45.412 43.478c0-.751-.56-1.502-1.495-1.502H16.82c-.747 0-1.495.563-1.495 1.502 0 .75.561 1.5 1.495 1.5h27.098c.748 0 1.495-.562 1.495-1.5zM39.058 51.547h-17.38c-.747 0-1.495.563-1.495 1.502 0 .938.561 1.501 1.495 1.501h17.38c.748 0 1.496-.563 1.496-1.501 0-.939-.748-1.502-1.496-1.502zM214.354 106.347a2.257 2.257 0 0 0-.934.938c-.187.563 0 .938.374 1.314l4.485 4.504-.374 5.255-5.233.375-4.485-4.504c-.374-.375-.747-.563-1.308-.375-.374.187-.934.375-.934.938-2.056 5.255-.748 11.448 3.177 15.389.934.938 2.055 1.689 3.177 2.44a662.26 662.26 0 0 1 .934 64.182c0 3.754 2.99 6.944 6.915 6.944a6.913 6.913 0 0 0 6.914-6.944 667.07 667.07 0 0 1 .935-64.37v-.563c.56-.376 1.121-.939 1.682-1.502 5.606-5.63 5.606-14.825 0-20.456-4.112-4.128-10.092-5.442-15.325-3.565zm9.718 90.269c0 2.252-1.869 4.128-4.111 4.128-2.243 0-4.112-1.876-4.112-3.94.748-21.395.374-42.602-.934-62.87 1.308.375 2.803.563 4.111.563 1.87 0 3.925-.375 5.607-1.126-.934 20.268-1.308 41.663-.56 63.245zm3.364-68.5c-4.485 4.504-11.773 4.504-16.259 0-2.616-2.627-3.924-6.568-3.177-10.134l3.364 3.378c.374.376.748.376 1.122.376l6.914-.563c.748 0 1.308-.563 1.308-1.314l.561-6.944c0-.375-.187-.75-.374-1.126l-3.177-3.19c3.551-.563 7.102.75 9.718 3.19 4.485 4.504 4.485 11.823 0 16.327zM234.35 16.64h-52.513c-2.243 0-3.925 1.69-3.925 3.942v28.713c0 2.252 1.682 3.941 3.925 3.941h52.514c2.242 0 3.924-1.689 3.924-3.94V20.581c0-2.064-1.682-3.941-3.924-3.941zm1.122 32.655c0 .563-.56 1.126-1.121 1.126h-52.514c-.56 0-1.121-.563-1.121-1.126V20.582c0-.563.56-1.126 1.12-1.126h52.515c.56 0 1.121.563 1.121 1.126v28.713z"/>
            <path d="M219.4 24.71c-5.606 0-10.091 4.505-10.091 10.135s4.485 10.134 10.091 10.134c5.607 0 10.092-4.504 10.092-10.134 0-5.443-4.672-10.134-10.092-10.134zm0 17.642c-4.111 0-7.288-3.378-7.288-7.32 0-3.94 3.364-7.319 7.288-7.319 4.112 0 7.289 3.378 7.289 7.32 0 3.94-3.364 7.319-7.289 7.319zM200.712 29.215h-13.83c-.747 0-1.494.563-1.494 1.501 0 .75.56 1.501 1.495 1.501h13.829c.747 0 1.495-.563 1.495-1.5-.187-.94-.748-1.502-1.495-1.502zM200.712 37.848h-13.83c-.747 0-1.494.563-1.494 1.5 0 .752.56 1.502 1.495 1.502h13.829c.747 0 1.495-.563 1.495-1.501-.187-.75-.748-1.501-1.495-1.501zM188.19 14.389h7.663c.748 0 1.495-.563 1.495-1.501 0-.939-.56-1.502-1.495-1.502h-7.662c-.748 0-1.495.563-1.495 1.502 0 .938.747 1.5 1.495 1.5z"/>
        </g>
        <path d="M112.428 107.278L82.095 95.88l-4.592-19.52 24.064 4.853zM127.209 107.278l30.337-11.398 4.597-19.52-24.078 4.853zM102.466 79.408L87.124 76.36l10.412-13.88h13.1zM136.946 79.408l15.338-3.048-10.412-13.88h-13.095z"/>
        <path d="M135.197 83.001l-10.845 28.51 3.245 21.64H111.48l3.654-21.67L104.255 83l7.055-20.521h16.676zM89.534 110.153l10.633 5.759v22.737L82.7 123.586v-25.45l6.834 2.824zM149.765 110.153l-10.637 5.759v22.737l17.472-15.063v-25.45l-6.835 2.824z"/>
        <path d="M131.184 107.673l-3.975 2.09v3.923l2.488 20.857-5.331 5.461-4.636.044-4.64-.044-5.336-5.461 2.493-20.857v-3.923l-3.966-2.09-5.5 9.312v33.81l5.678-5.248 11.27-.125 11.272.125 5.664 5.248v-33.81zM127.096 162.91h-14.84l-5.198-5.386 5.198-5.387h14.84l5.366 5.387zM100.167 152.137L90.481 141.3v-7.395l9.686 6.381zM138.856 152.137l9.678-10.836v-7.395l-9.678 6.381z"/>
        <path d="M129.779 150.795h-20.107l-3.988 5.504-2.903-1.525 6.796-6.871h20.37l6.718 6.871-2.85 1.525z"/>
    </g>
</svg>
