<svg height="60" viewBox="0 0 57 60" width="57" xmlns="http://www.w3.org/2000/svg"><g fill="none" fill-rule="evenodd"><path d="m28.348 0-28.348 9.957 4.324 36.917 24.024 13.105 24.024-13.105 4.323-36.917z" fill="#262b2c"/><g fill="#fff"><path d="m42.26 15.307h-27.838c-.67 0-1.21.531-1.21 1.187v22.556c0 .656.54 1.187 1.21 1.187h27.838c.669 0 1.21-.531 1.21-1.187v-22.556c0-.656-.541-1.187-1.21-1.187zm-13.633 23.743c-.668 0-1.21-.531-1.21-1.187s.542-1.187 1.21-1.187c.67 0 1.21.53 1.21 1.187 0 .656-.54 1.187-1.21 1.187zm13.633-3.561h-27.838v-18.4c0-.313.286-.594.605-.594h26.628c.318 0 .605.281.605.594zm-6.951 8.192h-1.21c-.988 0-1.816-.812-1.816-1.78v-.594h-7.835v.594c0 .968-.829 1.78-1.816 1.78h-1.21c-.67 0-1.21.25-1.21.875v.281h16.34v-.28c-.033-.657-.574-.876-1.243-.876z"/><path d="m15.211 17.307h25.417v4.748h-25.417zm14 6h12.103v5.935h-12.103zm-14 0h12.103v1.187h-12.103zm0 5h12.103v1.187h-12.103zm0-2h12.103v1.187h-12.103zm10 5h6.657v3.561h-6.657zm-10 0h8.154v3.561h-8.154zm17 0h8.154v1.187h-8.154zm0 2h8.154v1.187h-8.154z"/></g></g></svg>