<svg xmlns="http://www.w3.org/2000/svg" width="56" height="60" viewBox="0 0 56 60">
    <g fill="none" fill-rule="evenodd">
        <path fill="#20272A" d="M28 0L0 9.957l4.27 36.917L28 59.979l23.73-13.105L56 9.957z"/>
        <path fill="#FFF" d="M38.612 16.476c.321.003.636.05.94.153a2.962 2.962 0 0 1 1.794 1.697c.126.318.19.654.203.995.082 6.403.242 12.81-.003 19.208a2.955 2.955 0 0 1-.2.92 2.96 2.96 0 0 1-1.658 1.648c-.32.126-.659.187-1.002.2-7.149.09-14.303.269-21.446-.001a3.092 3.092 0 0 1-.928-.199 2.96 2.96 0 0 1-1.658-1.648 3.001 3.001 0 0 1-.203-.995c-.082-6.403-.242-12.81.003-19.208.02-.317.083-.626.2-.92a2.96 2.96 0 0 1 1.658-1.648 3.06 3.06 0 0 1 1.002-.202c7.1-.089 14.199 0 21.298 0zm2.062 5.027h-25.31c-.083 5.66-.185 11.322.032 16.98.013.213.057.423.136.623a2.02 2.02 0 0 0 1.127 1.12c.217.084.446.127.68.134 7.124.09 14.253.268 21.373-.002.216-.013.427-.054.629-.133.51-.2.925-.613 1.127-1.119.087-.217.128-.444.138-.676.071-5.642.205-11.288.068-16.927zM19.19 38.402c1.967-.313 4.81-.345 6.837-2.358a2.123 2.123 0 0 0 0-3.016 2.16 2.16 0 0 0-3.037 0c-2.027 2.013-1.608 4.167-3.8 5.374zm5.733-6.907c.655-1.346 1.84-2.956 3.392-4.497 3.054-3.033 6.379-4.658 7.419-3.627 1.038 1.033-.599 4.334-3.653 7.366-1.546 1.536-3.16 2.709-4.513 3.361a3.054 3.054 0 0 0-.764-1.62c-.11-.114-.11-.112-.224-.22a3.286 3.286 0 0 0-.91-.567 3.032 3.032 0 0 0-.747-.196z"/>
    </g>
</svg>
