<svg xmlns="http://www.w3.org/2000/svg" width="58" height="60" viewBox="0 0 58 60">
    <g fill="none" fill-rule="evenodd">
        <path fill="#20272A" d="M29 0L.661 9.957l4.323 36.917L29 59.979l24.016-13.105L57.34 9.957z"/>
        <path fill="#FFF" d="M43.934 28.169l-.758-.131a3.87 3.87 0 0 0-.735-1.25l.251-.71a.787.787 0 0 0-.357-.958l-.671-.378a.816.816 0 0 0-1.026.178l-.493.575a4.098 4.098 0 0 0-1.471 0l-.494-.578a.82.82 0 0 0-1.025-.178l-.672.38a.79.79 0 0 0-.357.96l.265.709a3.857 3.857 0 0 0-.736 1.25l-.758.13a.798.798 0 0 0-.668.782v.759c0 .385.282.714.668.78l.758.132c.164.458.413.882.736 1.25l-.252.718a.787.787 0 0 0 .357.96l.672.377a.82.82 0 0 0 1.025-.178l.493-.578c.487.089.985.089 1.472 0l.493.578a.82.82 0 0 0 1.025.178l.672-.381a.786.786 0 0 0 .344-.956l-.264-.71a3.87 3.87 0 0 0 .735-1.249l.758-.13a.798.798 0 0 0 .669-.782v-.768a.798.798 0 0 0-.656-.781zm-4.512 2.499a1.344 1.344 0 0 1-1.353-1.331c0-.734.605-1.329 1.353-1.33a1.344 1.344 0 0 1 1.36 1.324c-.001.354-.145.693-.4.942-.256.25-.603.39-.963.389l.003.006zm-.7-12.496l-.389-.65a.816.816 0 0 0-.978-.35l-.713.26a3.96 3.96 0 0 0-1.273-.722l-.134-.743a.805.805 0 0 0-.822-.66h-.76a.805.805 0 0 0-.797.657l-.133.743c-.467.16-.9.405-1.274.722l-.723-.26a.816.816 0 0 0-.977.35l-.386.66a.783.783 0 0 0 .182 1.005l.589.485c-.09.478-.09.968 0 1.446l-.59.484a.783.783 0 0 0-.187.994l.388.659a.816.816 0 0 0 .978.35l.723-.26c.375.317.807.562 1.273.722l.134.743c.068.38.404.656.796.656h.764a.805.805 0 0 0 .796-.656l.16-.73c.466-.16.898-.406 1.273-.722l.723.259a.816.816 0 0 0 .978-.35l.378-.671a.783.783 0 0 0-.168-.994l-.605-.484c.09-.478.09-.968 0-1.446l.605-.485a.783.783 0 0 0 .168-1.006v-.006zm-4.684 3.552a1.357 1.357 0 0 1-1.252-.827 1.313 1.313 0 0 1 .301-1.45c.391-.38.976-.49 1.483-.28.506.21.832.7.827 1.239a1.347 1.347 0 0 1-1.36 1.318zm-13.593 2.88l.671.378a.82.82 0 0 0 1.026-.178l.49-.575c.487.09.987.09 1.474 0l.494.578a.82.82 0 0 0 1.025.178l.672-.38a.787.787 0 0 0 .357-.96l-.265-.709c.323-.367.573-.791.736-1.25l.758-.13a.798.798 0 0 0 .668-.782v-.762a.798.798 0 0 0-.668-.78l-.758-.132a3.857 3.857 0 0 0-.736-1.25l.265-.712a.787.787 0 0 0-.357-.959l-.672-.381a.82.82 0 0 0-1.025.178l-.494.581a4.101 4.101 0 0 0-1.47 0l-.497-.58a.82.82 0 0 0-1.026-.179l-.668.381a.787.787 0 0 0-.36.96l.264.711a3.863 3.863 0 0 0-.735 1.25l-.758.131a.798.798 0 0 0-.669.781v.76c0 .384.282.714.669.78l.758.131c.163.458.413.882.735 1.25l-.264.712a.787.787 0 0 0 .36.96zm2.926-5.545c.747 0 1.353.593 1.356 1.326a1.343 1.343 0 0 1-1.346 1.336 1.344 1.344 0 0 1-1.367-1.315 1.32 1.32 0 0 1 .393-.95c.255-.253.602-.396.964-.397zM13.5 31.555l.389.66a.816.816 0 0 0 .977.35l.732-.288a3.97 3.97 0 0 0 1.274.721l.134.744c.068.379.403.656.796.656h.774a.805.805 0 0 0 .796-.656l.133-.744a3.97 3.97 0 0 0 1.274-.721l.723.259a.816.816 0 0 0 .977-.35l.386-.66a.783.783 0 0 0-.182-1.005l-.589-.484c.09-.477.09-.966 0-1.443l.59-.485a.783.783 0 0 0 .18-1.006l-.388-.659a.816.816 0 0 0-.977-.35l-.723.26a3.964 3.964 0 0 0-1.274-.722l-.134-.743a.805.805 0 0 0-.796-.656h-.77a.805.805 0 0 0-.796.656l-.134.743c-.467.16-.899.405-1.274.722l-.726-.26a.816.816 0 0 0-.977.35l-.389.672a.783.783 0 0 0 .182 1.006l.589.484c-.09.477-.09.966 0 1.443l-.59.488a.783.783 0 0 0-.18 1.006l-.007.012zM18.174 28c.549 0 1.044.324 1.254.822.21.497.093 1.07-.295 1.45-.387.38-.97.494-1.478.288a1.33 1.33 0 0 1-.837-1.23A1.347 1.347 0 0 1 18.174 28zm7.231 9.306V35.58a4.17 4.17 0 0 1-.512-1.353c-.274-.084-.522-.522-.755-1.328-.213-.737-.213-1.215 0-1.462a.49.49 0 0 1 .338-.168 3.69 3.69 0 0 1-.112-.444 3.922 3.922 0 0 1 0-1.802 3.912 3.912 0 0 1 1.08-1.856c.289-.314.617-.591.977-.825.294-.205.616-.369.955-.487a3.31 3.31 0 0 1 .889-.166 3.697 3.697 0 0 1 2.229.463c.43.228.792.56 1.054.965.321.067.606.247.802.506.513.625.637 1.712.392 3.199-.029.151-.067.3-.115.447a.49.49 0 0 1 .34.168c.208.247.208.725 0 1.462-.232.806-.48 1.25-.754 1.328-.09.47-.264.922-.513 1.334v1.746c0 .028.016.054.042.066a30.08 30.08 0 0 1 5.413 3.408c.444.358.7.892.697 1.456v1.562c0 .597-.493 1.08-1.101 1.08H20.359a1.091 1.091 0 0 1-1.102-1.08v-1.562a1.86 1.86 0 0 1 .697-1.46 30.078 30.078 0 0 1 5.413-3.404.072.072 0 0 0 .038-.066z"/>
    </g>
</svg>
