<?xml version="1.0" encoding="UTF-8"?>
<svg width="239px" height="227px" viewBox="0 0 239 227" version="1.1" xmlns="http://www.w3.org/2000/svg" xmlns:xlink="http://www.w3.org/1999/xlink">
    <!-- Generator: Sketch 50.2 (55047) - http://www.bohemiancoding.com/sketch -->
    <title>icon-pro</title>
    <desc>Created with Sketch.</desc>
    <defs></defs>
    <g id="Page-1" stroke="none" stroke-width="1" fill="none" fill-rule="evenodd">
        <g id="Artboard" transform="translate(-64.000000, -104.000000)">
            <g id="icon-pro" transform="translate(64.000000, 104.000000)">
                <g id="Group" fill="#FFFFFF">
                    <path d="M21.678,115.918 C22.426,115.918 23.173,115.355 23.173,114.417 L23.173,95.65 C23.173,94.899 22.613,94.148 21.678,94.148 C20.744,94.148 20.183,94.711 20.183,95.65 L20.183,114.604 C20.37,115.354 20.931,115.918 21.678,115.918 Z M20.37,130.18 C20.37,130.931 20.93,131.682 21.865,131.682 C22.8,131.682 23.36,131.119 23.36,130.181 L23.36,123.425 C23.36,122.674 22.8,121.923 21.865,121.923 C20.931,121.923 20.37,122.486 20.37,123.425 L20.37,130.181 L20.37,130.18 Z M60.176,30.528 C60.176,34.469 63.353,37.66 67.278,37.66 C71.202,37.66 74.379,34.47 74.379,30.528 C74.379,26.588 71.202,23.397 67.278,23.397 C63.353,23.397 60.176,26.587 60.176,30.528 Z M71.576,30.528 C71.576,32.968 69.707,34.845 67.278,34.845 C64.848,34.845 62.979,32.968 62.979,30.528 C62.979,28.088 64.849,26.212 67.278,26.212 C69.708,26.212 71.576,28.276 71.576,30.528 Z M134.742,210.878 C131.192,210.878 128.202,213.881 128.202,217.447 C128.202,221.013 131.192,224.015 134.742,224.015 C138.293,224.015 141.283,221.013 141.283,217.447 C141.283,213.881 138.293,210.878 134.743,210.878 L134.742,210.878 Z M134.742,221.388 C132.687,221.388 131.005,219.698 131.005,217.635 C131.005,215.57 132.687,213.881 134.742,213.881 C136.798,213.881 138.48,215.571 138.48,217.635 C138.48,219.699 136.798,221.388 134.742,221.388 Z M206.132,214.444 C206.132,213.694 205.571,212.943 204.636,212.943 L181.276,212.943 C180.529,212.943 179.781,213.506 179.781,214.444 C179.781,215.194 180.341,215.946 181.276,215.946 L204.636,215.946 C205.571,215.758 206.132,215.195 206.132,214.444 Z M219.96,212.943 L212.3,212.943 C211.552,212.943 210.805,213.506 210.805,214.444 C210.805,215.194 211.365,215.946 212.3,215.946 L219.962,215.946 C220.709,215.946 221.457,215.383 221.457,214.444 C221.457,213.506 220.897,212.943 219.962,212.943 L219.96,212.943 Z M219.96,221.013 L203.702,221.013 C202.955,221.013 202.207,221.576 202.207,222.514 C202.207,223.264 202.767,224.015 203.702,224.015 L219.961,224.015 C220.708,224.015 221.456,223.452 221.456,222.514 C221.456,221.576 220.896,221.013 219.961,221.013 L219.96,221.013 Z M196.6,221.013 L191.368,221.013 C190.62,221.013 189.873,221.576 189.873,222.514 C189.873,223.264 190.433,224.015 191.368,224.015 L196.601,224.015 C197.348,224.015 198.096,223.452 198.096,222.514 C198.096,221.576 197.535,221.013 196.601,221.013 L196.6,221.013 Z M64.848,9.51 C64.848,10.26 65.408,11.01 66.343,11.01 L89.703,11.01 C90.451,11.01 91.199,10.448 91.199,9.51 C91.199,8.759 90.639,8.008 89.704,8.008 L66.156,8.008 C65.409,8.196 64.848,8.758 64.848,9.509 L64.848,9.51 Z M51.019,11.01 L58.681,11.01 C59.429,11.01 60.176,10.448 60.176,9.51 C60.176,8.759 59.616,8.008 58.681,8.008 L51.02,8.008 C50.272,8.008 49.525,8.571 49.525,9.509 C49.525,10.448 50.272,11.011 51.02,11.011 L51.019,11.01 Z M51.019,2.941 L67.278,2.941 C68.025,2.941 68.773,2.378 68.773,1.44 C68.773,0.501 68.025,0.126 67.278,0.126 L51.019,0.126 C50.271,0.126 49.524,0.689 49.524,1.627 C49.524,2.566 50.271,2.941 51.019,2.941 Z M74.38,2.941 L79.612,2.941 C80.36,2.941 81.107,2.378 81.107,1.44 C81.107,0.501 80.36,0.126 79.612,0.126 L74.379,0.126 C73.632,0.126 72.884,0.689 72.884,1.627 C72.884,2.566 73.632,2.941 74.379,2.941 L74.38,2.941 Z M41.114,161.146 L17.567,161.146 C16.819,161.146 16.072,161.709 16.072,162.647 C16.072,163.398 16.632,164.149 17.567,164.149 L41.114,164.149 C41.862,164.149 42.609,163.586 42.609,162.647 C42.422,161.897 41.862,161.147 41.114,161.147 L41.114,161.146 Z M9.905,161.146 L2.429,161.146 C1.682,161.146 0.934,161.709 0.934,162.647 C0.934,163.398 1.495,164.149 2.429,164.149 L10.092,164.149 C10.839,164.149 11.587,163.586 11.587,162.647 C11.4,161.897 10.652,161.147 9.905,161.147 L9.905,161.146 Z M2.43,155.891 L18.688,155.891 C19.436,155.891 20.183,155.328 20.183,154.391 C20.183,153.639 19.623,152.889 18.688,152.889 L2.43,152.889 C1.683,152.889 0.935,153.452 0.935,154.39 C0.935,155.328 1.496,155.891 2.43,155.891 Z M31.023,155.891 C31.77,155.891 32.518,155.328 32.518,154.391 C32.518,153.639 31.957,152.889 31.023,152.889 L25.79,152.889 C25.042,152.889 24.295,153.452 24.295,154.39 C24.295,155.14 24.855,155.891 25.79,155.891 L31.023,155.891 Z M134.742,13.638 C134.929,13.826 135.303,14.014 135.677,14.014 C136.051,14.014 136.424,13.826 136.611,13.638 C137.171,13.075 137.171,12.137 136.611,11.574 L133.434,8.384 C132.864403,7.82073064 131.947597,7.82073064 131.378,8.384 C130.817531,8.95785542 130.817531,9.87414458 131.378,10.448 L134.742,13.638 Z M144.647,23.772 C144.834,23.96 145.207,24.148 145.582,24.148 C145.955,24.148 146.329,23.96 146.516,23.772 C147.076,23.209 147.076,22.271 146.516,21.708 L143.339,18.518 C142.769403,17.9547306 141.852597,17.9547306 141.283,18.518 C140.722531,19.0918554 140.722531,20.0081446 141.283,20.582 L144.647,23.772 Z M132.687,24.148 C133.06,24.148 133.434,23.96 133.621,23.772 L136.798,20.582 C137.358,20.019 137.358,19.081 136.798,18.518 C136.228403,17.9547306 135.311597,17.9547306 134.742,18.518 L131.565,21.708 C131.004531,22.2818554 131.004531,23.1981446 131.565,23.772 C131.939,23.96 132.313,24.148 132.687,24.148 Z M142.591,14.014 C142.965,14.014 143.339,13.826 143.526,13.638 L146.703,10.448 C147.263,9.885 147.263,8.946 146.703,8.383 C146.133403,7.81973064 145.216597,7.81973064 144.647,8.383 L141.47,11.573 C140.908879,12.1469787 140.908879,13.0640213 141.47,13.638 C141.844,14.014 142.218,14.014 142.591,14.014 Z M199.217,76.32 C199.404,76.507 199.777,76.695 200.151,76.695 C200.525,76.695 200.899,76.507 201.086,76.32 C201.646,75.757 201.646,74.818 201.086,74.255 L197.909,71.065 C197.339403,70.5017306 196.422597,70.5017306 195.853,71.065 C195.292531,71.6388554 195.292531,72.5551446 195.853,73.129 L199.217,76.319 L199.217,76.32 Z M206.132,83.263 L209.309,86.453 C209.495,86.641 209.869,86.829 210.243,86.829 C210.617,86.829 210.99,86.641 211.177,86.454 C211.738,85.891 211.738,84.952 211.177,84.389 L208,81.2 C207.430522,80.6373896 206.514478,80.6373896 205.945,81.2 C205.571,81.763 205.571,82.701 206.132,83.264 L206.132,83.263 Z M196.227,86.266 C196.414,86.454 196.787,86.641 197.161,86.641 C197.535,86.641 197.909,86.454 198.096,86.266 L201.273,83.076 C201.833,82.513 201.833,81.574 201.273,81.011 C200.703403,80.4477306 199.786597,80.4477306 199.217,81.011 L196.04,84.201 C195.666,84.765 195.666,85.703 196.227,86.266 Z M207.253,76.695 C207.627,76.695 208,76.507 208.187,76.32 L211.364,73.13 C211.924,72.566 211.924,71.628 211.364,71.065 C210.794522,70.5023896 209.878478,70.5023896 209.309,71.065 L206.132,74.255 C205.570879,74.8289787 205.570879,75.7460213 206.132,76.32 C206.505,76.507 206.879,76.695 207.252,76.695 L207.253,76.695 Z M49.15,211.254 C48.5804032,210.690731 47.6635968,210.690731 47.094,211.254 C46.5335307,211.827855 46.5335307,212.744145 47.094,213.318 L50.271,216.508 C50.458,216.696 50.832,216.884 51.206,216.884 C51.58,216.884 51.953,216.696 52.14,216.509 C52.7,215.946 52.7,215.007 52.14,214.444 L49.15,211.254 Z M59.242,221.388 C58.6724032,220.824731 57.7555968,220.824731 57.186,221.388 C56.6255307,221.961855 56.6255307,222.878145 57.186,223.452 L60.363,226.642 C60.55,226.83 60.923,227.018 61.298,227.018 C61.671,227.018 62.045,226.83 62.232,226.643 C62.792,226.08 62.792,225.141 62.232,224.578 L59.242,221.388 Z M50.271,221.388 L47.094,224.578 C46.5328792,225.151979 46.5328792,226.069021 47.094,226.643 C47.281,226.83 47.655,227.018 48.029,227.018 C48.403,227.018 48.776,226.83 48.963,226.643 L52.14,223.453 C52.7,222.889 52.7,221.951 52.14,221.388 C51.766,220.825 50.832,220.825 50.271,221.388 Z M60.363,211.254 L57.186,214.444 C56.6248792,215.017979 56.6248792,215.935021 57.186,216.509 C57.373,216.696 57.746,216.884 58.12,216.884 C58.494,216.884 58.868,216.696 59.055,216.509 L62.232,213.319 C62.792,212.755 62.792,211.817 62.232,211.254 C61.672,210.691 60.924,210.691 60.363,211.254 Z M42.61,69.188 C52.514,63.371 56.812,51.36 52.888,40.475 C48.403,28.089 34.76,21.52 22.426,26.025 C19.436,27.15 16.819,28.839 14.576,30.716 C11.026,33.906 8.596,38.036 7.288,42.726 C6.168,47.419 6.354,52.298 7.849,56.802 C11.774,67.875 23.36,74.443 34.76,72.191 C35.32,72.379 36.816,73.129 37.75,73.692 C40.18,75.194 41.488,75.757 42.422,75.757 C42.609,75.757 42.796,75.757 42.983,75.569 C43.357,75.381 43.731,75.194 43.731,74.819 C43.918379,74.466699 43.918379,74.044301 43.731,73.692 C43.357,72.191 42.609,70.127 42.609,69.188 L42.61,69.188 Z M40.367,71.816 C39.993,71.628 39.619,71.44 39.432,71.253 C37.002,69.939 35.882,69.188 35.134,69.188 L34.76,69.188 C24.669,71.253 14.203,65.435 10.84,55.676 C9.344,51.735 9.157,47.419 10.279,43.29 C11.399,39.161 13.456,35.595 16.633,32.78 C18.688,30.904 20.931,29.59 23.547,28.652 C34.387,24.711 46.534,30.341 50.458,41.413 C54.009,51.172 49.898,61.869 41.114,66.936 C40.18,67.312 39.058,68.062 40.367,71.816 Z" id="Shape"></path>
                    <path d="M45.412,43.478 C45.412,42.727 44.852,41.976 43.917,41.976 L16.82,41.976 C16.073,41.976 15.325,42.539 15.325,43.478 C15.325,44.228 15.886,44.978 16.82,44.978 L43.918,44.978 C44.666,44.978 45.413,44.416 45.413,43.478 L45.412,43.478 Z M39.058,51.547 L21.678,51.547 C20.931,51.547 20.183,52.11 20.183,53.049 C20.183,53.987 20.744,54.55 21.678,54.55 L39.058,54.55 C39.806,54.55 40.554,53.987 40.554,53.049 C40.554,52.11 39.806,51.547 39.058,51.547 Z M214.354,106.347 C213.955915,106.559291 213.630587,106.886012 213.42,107.285 C213.233,107.848 213.42,108.223 213.794,108.599 L218.279,113.103 L217.905,118.358 L212.672,118.733 L208.187,114.229 C207.813,113.854 207.44,113.666 206.879,113.854 C206.505,114.041 205.945,114.229 205.945,114.792 C203.889,120.047 205.197,126.24 209.122,130.181 C210.056,131.119 211.177,131.87 212.299,132.621 C213.647554,153.987327 213.959254,175.406479 213.233,196.803 C213.233,200.557 216.223,203.747 220.148,203.747 C221.986999,203.747285 223.750319,203.014816 225.047869,201.711636 C226.34542,200.408455 227.070247,198.64198 227.062,196.803 C226.337525,175.34379 226.649554,153.862114 227.997,132.433 L227.997,131.87 C228.557,131.494 229.118,130.931 229.679,130.368 C235.285,124.738 235.285,115.543 229.679,109.912 C225.567,105.784 219.587,104.47 214.354,106.347 Z M224.072,196.616 C224.072,198.868 222.203,200.744 219.961,200.744 C217.718,200.744 215.849,198.868 215.849,196.804 C216.597,175.409 216.223,154.202 214.915,133.934 C216.223,134.309 217.718,134.497 219.026,134.497 C220.896,134.497 222.951,134.122 224.633,133.371 C223.699,153.639 223.325,175.034 224.073,196.616 L224.072,196.616 Z M227.436,128.116 C222.951,132.62 215.663,132.62 211.177,128.116 C208.561,125.489 207.253,121.548 208,117.982 L211.364,121.36 C211.738,121.736 212.112,121.736 212.486,121.736 L219.4,121.173 C220.148,121.173 220.708,120.61 220.708,119.859 L221.269,112.915 C221.269,112.54 221.082,112.165 220.895,111.789 L217.718,108.599 C221.269,108.036 224.82,109.349 227.436,111.789 C231.921,116.293 231.921,123.612 227.436,128.116 Z M234.35,16.64 L181.837,16.64 C179.594,16.64 177.912,18.33 177.912,20.582 L177.912,49.295 C177.912,51.547 179.594,53.236 181.837,53.236 L234.351,53.236 C236.593,53.236 238.275,51.547 238.275,49.296 L238.275,20.581 C238.275,18.517 236.593,16.64 234.351,16.64 L234.35,16.64 Z M235.472,49.295 C235.472,49.858 234.912,50.421 234.351,50.421 L181.837,50.421 C181.277,50.421 180.716,49.858 180.716,49.295 L180.716,20.582 C180.716,20.019 181.276,19.456 181.836,19.456 L234.351,19.456 C234.911,19.456 235.472,20.019 235.472,20.582 L235.472,49.295 Z" id="Shape"></path>
                    <path d="M219.4,24.71 C213.794,24.71 209.309,29.215 209.309,34.845 C209.309,40.475 213.794,44.979 219.4,44.979 C225.007,44.979 229.492,40.475 229.492,34.845 C229.492,29.402 224.82,24.711 219.4,24.711 L219.4,24.71 Z M219.4,42.352 C215.289,42.352 212.112,38.974 212.112,35.032 C212.112,31.092 215.476,27.713 219.4,27.713 C223.512,27.713 226.689,31.091 226.689,35.033 C226.689,38.973 223.325,42.352 219.4,42.352 Z M200.712,29.215 L186.882,29.215 C186.135,29.215 185.388,29.778 185.388,30.716 C185.388,31.466 185.948,32.217 186.883,32.217 L200.712,32.217 C201.459,32.217 202.207,31.654 202.207,30.717 C202.02,29.777 201.459,29.215 200.712,29.215 Z M200.712,37.848 L186.882,37.848 C186.135,37.848 185.388,38.411 185.388,39.348 C185.388,40.1 185.948,40.85 186.883,40.85 L200.712,40.85 C201.459,40.85 202.207,40.287 202.207,39.349 C202.02,38.599 201.459,37.848 200.712,37.848 Z M188.19,14.389 L195.853,14.389 C196.601,14.389 197.348,13.826 197.348,12.888 C197.348,11.949 196.788,11.386 195.853,11.386 L188.191,11.386 C187.443,11.386 186.696,11.949 186.696,12.888 C186.696,13.826 187.443,14.388 188.191,14.388 L188.19,14.389 Z" id="Shape"></path>
                </g>
                <g id="prime-logo-2018" transform="translate(70.000000, 60.000000)">
                    <polygon id="chick-right" fill="#FFFFFF" fill-rule="nonzero" points="73.173913 51.7557252 65.426087 50.0305344 71.4521739 58.6564885 71.4521739 85.3969466 92.1130435 68.1450382 92.1130435 38.8167939 82.6434783 42.2671756"></polygon>
                    <polygon id="chick-left" fill="#FFFFFF" fill-rule="nonzero" transform="translate(19.369565, 62.106870) scale(-1, 1) translate(-19.369565, -62.106870) " points="13.773913 51.7557252 6.02608696 50.0305344 12.0521739 58.6564885 12.0521739 85.3969466 32.7130435 68.1450382 32.7130435 38.8167939 23.2434783 42.2671756"></polygon>
                    <path d="M29.2695652,89.7752042 L29.2695652,86.3245977 L41.0178984,94.7147376 L41.0212476,91.2669726 L29.2695652,82.8744409 L29.2695652,79.4238344 L41.0178984,87.8139743 L41.0212476,84.3662092 L29.2695652,75.9736775 L29.2695652,60.3816794 L36.1565217,50.0305344 L40.4608696,52.6183206 L57.6782609,52.6183206 L61.9826087,50.0305344 L68.8695652,60.3816794 L68.8695652,75.7949041 L56.8675546,84.3662092 L56.8709038,87.8139743 L68.8695652,79.245061 L68.8695652,82.6956675 L56.8675546,91.2669726 L56.8709038,94.7147376 L68.8695652,86.1458244 L68.8695652,89.5964309 L56.8675546,98.167736 L56.8709038,101.615501 L68.8695652,93.0465877 L68.8695652,99.1984733 L63.7043478,106.961832 L57.6782609,113 L40.4608696,113 L34.4347826,106.961832 L29.2695652,99.1984733 L29.2695652,93.2253611 L41.0178984,101.615501 L41.0212476,98.167736 L29.2695652,89.7752042 Z" id="mask" fill="#FFFFFF"></path>
                    <g id="mask-effect-right" transform="translate(55.095652, 75.045802)"></g>
                    <g id="mask-effect-left" transform="translate(27.547826, 75.045802)"></g>
                    <polygon id="bottom-chick-right" fill="#FFFFFF" fill-rule="nonzero" points="71.4521739 101.78626 82.6434783 90.5725191 82.6434783 79.3587786 71.4521739 88.8473282"></polygon>
                    <polygon id="bottom-chick-left" fill="#FFFFFF" fill-rule="nonzero" transform="translate(21.091304, 90.572519) scale(-1, 1) translate(-21.091304, -90.572519) " points="15.4956522 101.78626 26.6869565 90.5725191 26.6869565 79.3587786 15.4956522 88.8473282"></polygon>
                    <path d="M43.9043478,0 L47.3478261,0 L47.3478261,49.1679389 L42.1826087,49.1679389 L30.9913043,16.389313 L37.8782609,0 L40.4608696,0 L40.4608696,19.8396947 L43.9043478,21.5648855 L43.9043478,0 Z M50.7913043,0 L54.2347826,0 L54.2347826,21.5648855 L57.6782609,19.8396947 L57.6782609,1.91846539e-13 L60.2608696,0 L67.1478261,16.389313 L56.8173913,49.1679389 L50.7913043,49.1679389 L50.7913043,0 Z" id="head" fill="#FFFFFF"></path>
                    <polygon id="head-left" fill="#FFFFFF" fill-rule="nonzero" points="42.1826087 49.1679389 5.16521739 35.3664122 0 13.8015267 31.8521739 16.389313 43.0434783 49.1679389"></polygon>
                    <polygon id="head-right" fill="#FFFFFF" fill-rule="nonzero" transform="translate(77.478261, 31.484733) scale(-1, 1) translate(-77.478261, -31.484733) " points="98.1391304 49.1679389 61.1217391 35.3664122 55.9565217 13.8015267 88.6695652 16.389313 99 49.1679389"></polygon>
                    <polygon id="ear-right" fill="#FFFFFF" fill-rule="nonzero" points="68.8695652 13.8015267 86.9478261 12.0763359 74.8956522 0 62.8434783 0"></polygon>
                    <polygon id="ear-left" fill="#FFFFFF" fill-rule="nonzero" transform="translate(23.243478, 6.900763) scale(-1, 1) translate(-23.243478, -6.900763) " points="17.2173913 13.8015267 35.2956522 12.0763359 23.2434783 0 11.1913043 0"></polygon>
                </g>
            </g>
        </g>
    </g>
</svg>