<svg height="60" viewBox="0 0 57 60" width="57" xmlns="http://www.w3.org/2000/svg"><g fill="none" fill-rule="evenodd"><path d="m28.34 0-28.34 9.957 4.323 36.917 24.017 13.105 24.018-13.105 4.323-36.917z" fill="#262b2c" fill-rule="nonzero"/><path d="m20 43.855c0 1.035.856 1.874 1.91 1.874h11.72c1.055 0 1.91-.84 1.91-1.874v-23.455h-15.54zm7.77-1.938c.754 0 1.367.602 1.367 1.341 0 .74-.613 1.342-1.367 1.342-.755 0-1.368-.602-1.368-1.342s.613-1.341 1.368-1.341zm5.858-25.917h-11.717c-1.055 0-1.911.84-1.911 1.874v1.9h15.54v-1.9c-.002-1.034-.857-1.874-1.913-1.874zm-9.207 2.329c-.1140446.0010658-.223841-.0432186-.3052329-.1231102-.0813919-.0798915-.1277112-.1888452-.1287671-.3028898.0010559-.1140446.0473752-.2229983.1287671-.3028898.0813919-.0798916.1911883-.124176.3052329-.1231102.239 0 .434.19.434.426-.0010559.1140446-.0473752.2229983-.1287671.3028898-.0813919.0798916-.1911883.124176-.3052329.1231102zm5.28-.114h-3.862c-.0835443.0007994-.1639841-.0316237-.2236215-.0901358-.0596374-.0585122-.0935866-.1383198-.0943785-.2218642 0-.173.142-.313.318-.313h3.861c.176 0 .319.14.319.313-.0021964.1741332-.144861.3136671-.319.312z" fill="#fff" fill-rule="nonzero"/><g fill="#262b2c" transform="translate(22.5 25)"><path d="m8.13043478 5.95419847-.86086956-.19847328.66956521.99236641v3.07633588l2.29565217-1.98473282v-3.37404581l-1.0521739.39694657z" fill-rule="nonzero"/><path d="m1.53043478 5.95419847-.86086956-.19847328.66956521.99236641v3.07633588l2.29565218-1.98473282v-3.37404581l-1.05217391.39694657z" fill-rule="nonzero" transform="matrix(-1 0 0 1 4.304348 0)"/><path d="m3.25217391 10.3458863v-.39742947l1.30285038.92744647.00695599-.391512-1.30980637-.93239811v-.39742949l1.30285038.9274465.00695599-.391512-1.30980637-.93239814v-1.81153517l.76521739-1.1908397.47826087.29770992h1.91304348l.47826087-.29770992.76521739 1.1908397v1.79173533l-1.33762061.95219798.00695598.391512 1.33066463-.94724634v.39742949l-1.33762061.95219795.00695598.391512 1.33066463-.94724631v.39742951l-1.33762061.952198.00695598.3915119 1.33066463-.9472463v.6896636l-.57391304.8931298-.66956522.6946565h-1.91304348l-.66956521-.6946565-.57391305-.8931298v-.6698637l1.30285038.9274464.00695599-.3915119z"/><path d="m7.93913043 11.7099237 1.24347827-1.2900764v-1.29007631l-1.24347827 1.09160301z" fill-rule="nonzero"/><path d="m1.72173913 11.7099237 1.24347826-1.2900764v-1.29007631l-1.24347826 1.09160301z" fill-rule="nonzero" transform="matrix(-1 0 0 1 4.686956 0)"/><path d="m4.87826087 0h.3826087v5.65648855h-.57391305l-1.24347826-3.77099237.76521739-1.88549618h.28695652v2.28244275l.3826087.19847328zm.76521739 0h.3826087v2.48091603l.38260869-.19847328v-2.28244275h.28695652l.7652174 1.88549618-1.14782609 3.77099237h-.66956522z"/><g fill-rule="nonzero"><path d="m4.68695652 5.65648855-4.11304348-1.58778626-.57391304-2.48091603 3.53913043.29770992 1.24347827 3.77099237z"/><path d="m10.9043478 5.65648855-4.11304345-1.58778626-.57391305-2.48091603 3.63478261.29770992 1.14782609 3.77099237z" transform="matrix(-1 0 0 1 17.217392 0)"/><path d="m7.65217391 1.58778626 2.00869566-.19847328-1.33913044-1.38931298h-1.33913043z"/><path d="m1.91304348 1.58778626 2.00869565-.19847328-1.33913043-1.38931298h-1.33913044z" transform="matrix(-1 0 0 1 5.165218 0)"/></g></g></g></svg>