<svg height="60" viewBox="0 0 58 60" width="58" xmlns="http://www.w3.org/2000/svg" xmlns:xlink="http://www.w3.org/1999/xlink"><mask id="a" fill="#fff"><path d="m0 29.778h31.091v-29.778h-31.09z" fill="none"/></mask><g fill="none" fill-rule="evenodd"><path d="m29 0-28.312 9.957 4.318 36.917 23.994 13.105 23.994-13.105 4.318-36.917z" fill="#20272a"/><path d="m15.545 0c-8.585 0-15.545 6.835-15.545 15.267 0 6.744 4.454 12.466 10.632 14.485.778.14 1.061-.331 1.061-.736 0-.362-.013-1.322-.021-2.596-4.324.922-5.236-2.047-5.236-2.047-.708-1.763-1.727-2.233-1.727-2.233-1.411-.947.107-.928.107-.928 1.56.108 2.381 1.574 2.381 1.574 1.387 2.332 3.639 1.658 4.525 1.268.14-.986.542-1.66.986-2.04-3.451-.386-7.08-1.696-7.08-7.546 0-1.666.605-3.029 1.6-4.096-.16-.386-.694-1.938.151-4.04 0 0 1.306-.41 4.276 1.565 1.24-.34 2.57-.508 3.892-.514 1.32.006 2.65.174 3.891.514 2.968-1.976 4.271-1.565 4.271-1.565.848 2.102.315 3.654.155 4.04.996 1.067 1.598 2.43 1.598 4.096 0 5.865-3.635 7.155-7.098 7.533.558.472 1.055 1.403 1.055 2.828 0 2.04-.019 3.686-.019 4.187 0 .408.28.884 1.07.735 6.172-2.024 10.622-7.741 10.622-14.484 0-8.432-6.962-15.267-15.547-15.267" fill="#fff" mask="url(#a)" transform="translate(13.253 14.995)"/></g></svg>