<svg height="227" viewBox="0 0 239 227" width="239" xmlns="http://www.w3.org/2000/svg"><g fill="#fff" fill-rule="evenodd"><g transform=""><path d="m21.678 115.918c.748 0 1.495-.563 1.495-1.501v-18.767c0-.751-.56-1.502-1.495-1.502-.934 0-1.495.563-1.495 1.502v18.954c.187.75.748 1.314 1.495 1.314zm-1.308 14.262c0 .751.56 1.502 1.495 1.502s1.495-.563 1.495-1.501v-6.756c0-.751-.56-1.502-1.495-1.502-.934 0-1.495.563-1.495 1.502v6.756zm39.806-99.652c0 3.941 3.177 7.132 7.102 7.132 3.924 0 7.101-3.19 7.101-7.132 0-3.94-3.177-7.131-7.101-7.131-3.925 0-7.102 3.19-7.102 7.131zm11.4 0c0 2.44-1.869 4.317-4.298 4.317-2.43 0-4.299-1.877-4.299-4.317s1.87-4.316 4.299-4.316c2.43 0 4.298 2.064 4.298 4.316zm63.166 180.35c-3.55 0-6.54 3.003-6.54 6.569s2.99 6.568 6.54 6.568c3.551 0 6.541-3.002 6.541-6.568s-2.99-6.569-6.54-6.569zm0 10.51c-2.055 0-3.737-1.69-3.737-3.753 0-2.065 1.682-3.754 3.737-3.754 2.056 0 3.738 1.69 3.738 3.754s-1.682 3.753-3.738 3.753zm71.39-6.944c0-.75-.561-1.501-1.496-1.501h-23.36c-.747 0-1.495.563-1.495 1.501 0 .75.56 1.502 1.495 1.502h23.36c.935-.188 1.496-.751 1.496-1.502zm13.828-1.501h-7.66c-.748 0-1.495.563-1.495 1.501 0 .75.56 1.502 1.495 1.502h7.662c.747 0 1.495-.563 1.495-1.502 0-.938-.56-1.501-1.495-1.501zm0 8.07h-16.258c-.747 0-1.495.563-1.495 1.501 0 .75.56 1.501 1.495 1.501h16.259c.747 0 1.495-.563 1.495-1.501s-.56-1.501-1.495-1.501zm-23.36 0h-5.232c-.748 0-1.495.563-1.495 1.501 0 .75.56 1.501 1.495 1.501h5.233c.747 0 1.495-.563 1.495-1.501s-.561-1.501-1.495-1.501zm-131.752-211.503c0 .75.56 1.5 1.495 1.5h23.36c.748 0 1.496-.562 1.496-1.5 0-.751-.56-1.502-1.495-1.502h-23.548c-.747.188-1.308.75-1.308 1.501zm-13.829 1.5h7.662c.748 0 1.495-.562 1.495-1.5 0-.751-.56-1.502-1.495-1.502h-7.661c-.748 0-1.495.563-1.495 1.501 0 .939.747 1.502 1.495 1.502zm0-8.069h16.259c.747 0 1.495-.563 1.495-1.501 0-.939-.748-1.314-1.495-1.314h-16.259c-.748 0-1.495.563-1.495 1.501 0 .939.747 1.314 1.495 1.314zm23.361 0h5.232c.748 0 1.495-.563 1.495-1.501 0-.939-.747-1.314-1.495-1.314h-5.233c-.747 0-1.495.563-1.495 1.501 0 .939.748 1.314 1.495 1.314zm-33.266 158.205h-23.547c-.748 0-1.495.563-1.495 1.501 0 .751.56 1.502 1.495 1.502h23.547c.748 0 1.495-.563 1.495-1.502-.187-.75-.747-1.5-1.495-1.5zm-31.209 0h-7.476c-.747 0-1.495.563-1.495 1.501 0 .751.561 1.502 1.495 1.502h7.663c.747 0 1.495-.563 1.495-1.502-.187-.75-.935-1.5-1.682-1.5zm-7.475-5.255h16.258c.748 0 1.495-.563 1.495-1.5 0-.752-.56-1.502-1.495-1.502h-16.258c-.747 0-1.495.563-1.495 1.501s.561 1.501 1.495 1.501zm28.593 0c.747 0 1.495-.563 1.495-1.5 0-.752-.561-1.502-1.495-1.502h-5.233c-.748 0-1.495.563-1.495 1.501 0 .75.56 1.501 1.495 1.501zm103.719-142.253c.187.188.561.376.935.376s.747-.188.934-.376c.56-.563.56-1.501 0-2.064l-3.177-3.19c-.569597-.56326936-1.486403-.56326936-2.056 0-.560469.57385542-.560469 1.49014458 0 2.064zm9.905 10.134c.187.188.56.376.935.376.373 0 .747-.188.934-.376.56-.563.56-1.501 0-2.064l-3.177-3.19c-.569597-.5632694-1.486403-.5632694-2.056 0-.560469.5738554-.560469 1.4901446 0 2.064zm-11.96.376c.373 0 .747-.188.934-.376l3.177-3.19c.56-.563.56-1.501 0-2.064-.569597-.5632694-1.486403-.5632694-2.056 0l-3.177 3.19c-.560469.5738554-.560469 1.4901446 0 2.064.374.188.748.376 1.122.376zm9.904-10.134c.374 0 .748-.188.935-.376l3.177-3.19c.56-.563.56-1.502 0-2.065-.569597-.56326936-1.486403-.56326936-2.056 0l-3.177 3.19c-.561121.5739787-.561121 1.4910213 0 2.065.374.376.748.376 1.121.376zm56.626 62.306c.187.187.56.375.934.375s.748-.188.935-.375c.56-.563.56-1.502 0-2.065l-3.177-3.19c-.569597-.5632694-1.486403-.5632694-2.056 0-.560469.5738554-.560469 1.4901446 0 2.064l3.364 3.19zm6.915 6.943 3.177 3.19c.186.188.56.376.934.376s.747-.188.934-.375c.561-.563.561-1.502 0-2.065l-3.177-3.189c-.569478-.5626104-1.485522-.5626104-2.055 0-.374.563-.374 1.501.187 2.064zm-9.905 3.003c.187.188.56.375.934.375s.748-.187.935-.375l3.177-3.19c.56-.563.56-1.502 0-2.065-.569597-.5632694-1.486403-.5632694-2.056 0l-3.177 3.19c-.374.564-.374 1.502.187 2.065zm11.026-9.571c.374 0 .747-.188.934-.375l3.177-3.19c.56-.564.56-1.502 0-2.065-.569478-.5626104-1.485522-.5626104-2.055 0l-3.177 3.19c-.561121.5739787-.561121 1.4910213 0 2.065.373.187.747.375 1.12.375zm-158.103 134.559c-.5695968-.563269-1.4864032-.563269-2.056 0-.5604693.573855-.5604693 1.490145 0 2.064l3.177 3.19c.187.188.561.376.935.376s.747-.188.934-.375c.56-.563.56-1.502 0-2.065zm10.092 10.134c-.5695968-.563269-1.4864032-.563269-2.056 0-.5604693.573855-.5604693 1.490145 0 2.064l3.177 3.19c.187.188.56.376.935.376.373 0 .747-.188.934-.375.56-.563.56-1.502 0-2.065zm-8.971 0-3.177 3.19c-.5611208.573979-.5611208 1.491021 0 2.065.187.187.561.375.935.375s.747-.188.934-.375l3.177-3.19c.56-.564.56-1.502 0-2.065-.374-.563-1.308-.563-1.869 0zm10.092-10.134-3.177 3.19c-.5611208.573979-.5611208 1.491021 0 2.065.187.187.56.375.934.375s.748-.188.935-.375l3.177-3.19c.56-.564.56-1.502 0-2.065s-1.308-.563-1.869 0zm-17.753-142.066c9.904-5.817 14.202-17.828 10.278-28.713-4.485-12.386-18.128-18.955-30.462-14.45-2.99 1.125-5.607 2.814-7.85 4.691-3.55 3.19-5.98 7.32-7.288 12.01-1.12 4.693-.934 9.572.561 14.076 3.925 11.073 15.511 17.641 26.911 15.389.56.188 2.056.938 2.99 1.501 2.43 1.502 3.738 2.065 4.672 2.065.187 0 .374 0 .561-.188.374-.188.748-.375.748-.75.187379-.352301.187379-.774699 0-1.127-.374-1.501-1.122-3.565-1.122-4.504zm-2.243 2.628c-.374-.188-.748-.376-.935-.563-2.43-1.314-3.55-2.065-4.298-2.065h-.374c-10.091 2.065-20.557-3.753-23.92-13.512-1.496-3.941-1.683-8.257-.561-12.386 1.12-4.129 3.177-7.695 6.354-10.51 2.055-1.876 4.298-3.19 6.914-4.128 10.84-3.941 22.987 1.689 26.911 12.761 3.551 9.759-.56 20.456-9.344 25.523-.934.376-2.056 1.126-.747 4.88z"/><path d="m45.412 43.478c0-.751-.56-1.502-1.495-1.502h-27.097c-.747 0-1.495.563-1.495 1.502 0 .75.561 1.5 1.495 1.5h27.098c.748 0 1.495-.562 1.495-1.5zm-6.354 8.069h-17.38c-.747 0-1.495.563-1.495 1.502 0 .938.561 1.501 1.495 1.501h17.38c.748 0 1.496-.563 1.496-1.501 0-.939-.748-1.502-1.496-1.502zm175.296 54.8c-.398085.212291-.723413.539012-.934.938-.187.563 0 .938.374 1.314l4.485 4.504-.374 5.255-5.233.375-4.485-4.504c-.374-.375-.747-.563-1.308-.375-.374.187-.934.375-.934.938-2.056 5.255-.748 11.448 3.177 15.389.934.938 2.055 1.689 3.177 2.44 1.348554 21.366327 1.660254 42.785479.934 64.182 0 3.754 2.99 6.944 6.915 6.944 1.838999.000285 3.602319-.732184 4.899869-2.035364 1.297551-1.303181 2.022378-3.069656 2.014131-4.908636-.724475-21.45921-.412446-42.940886.935-64.37v-.563c.56-.376 1.121-.939 1.682-1.502 5.606-5.63 5.606-14.825 0-20.456-4.112-4.128-10.092-5.442-15.325-3.565zm9.718 90.269c0 2.252-1.869 4.128-4.111 4.128-2.243 0-4.112-1.876-4.112-3.94.748-21.395.374-42.602-.934-62.87 1.308.375 2.803.563 4.111.563 1.87 0 3.925-.375 5.607-1.126-.934 20.268-1.308 41.663-.56 63.245zm3.364-68.5c-4.485 4.504-11.773 4.504-16.259 0-2.616-2.627-3.924-6.568-3.177-10.134l3.364 3.378c.374.376.748.376 1.122.376l6.914-.563c.748 0 1.308-.563 1.308-1.314l.561-6.944c0-.375-.187-.75-.374-1.126l-3.177-3.19c3.551-.563 7.102.75 9.718 3.19 4.485 4.504 4.485 11.823 0 16.327zm6.914-111.476h-52.513c-2.243 0-3.925 1.69-3.925 3.942v28.713c0 2.252 1.682 3.941 3.925 3.941h52.514c2.242 0 3.924-1.689 3.924-3.94v-28.715c0-2.064-1.682-3.941-3.924-3.941zm1.122 32.655c0 .563-.56 1.126-1.121 1.126h-52.514c-.56 0-1.121-.563-1.121-1.126v-28.713c0-.563.56-1.126 1.12-1.126h52.515c.56 0 1.121.563 1.121 1.126z"/><path d="m219.4 24.71c-5.606 0-10.091 4.505-10.091 10.135s4.485 10.134 10.091 10.134c5.607 0 10.092-4.504 10.092-10.134 0-5.443-4.672-10.134-10.092-10.134zm0 17.642c-4.111 0-7.288-3.378-7.288-7.32 0-3.94 3.364-7.319 7.288-7.319 4.112 0 7.289 3.378 7.289 7.32 0 3.94-3.364 7.319-7.289 7.319zm-18.688-13.137h-13.83c-.747 0-1.494.563-1.494 1.501 0 .75.56 1.501 1.495 1.501h13.829c.747 0 1.495-.563 1.495-1.5-.187-.94-.748-1.502-1.495-1.502zm0 8.633h-13.83c-.747 0-1.494.563-1.494 1.5 0 .752.56 1.502 1.495 1.502h13.829c.747 0 1.495-.563 1.495-1.501-.187-.75-.748-1.501-1.495-1.501zm-12.522-23.459h7.663c.748 0 1.495-.563 1.495-1.501 0-.939-.56-1.502-1.495-1.502h-7.662c-.748 0-1.495.563-1.495 1.502 0 .938.747 1.5 1.495 1.5z"/></g><g transform="translate(70 60)"><path d="m73.173913 51.7557252-7.747826-1.7251908 6.0260869 8.6259541v26.7404581l20.6608696-17.2519084v-29.3282443l-9.4695652 3.4503817z" fill-rule="nonzero"/><path d="m13.773913 51.7557252-7.74782604-1.7251908 6.02608694 8.6259541v26.7404581l20.6608696-17.2519084v-29.3282443l-9.4695652 3.4503817z" fill-rule="nonzero" transform="matrix(-1 0 0 1 38.73913 0)"/><path d="m29.2695652 89.7752042v-3.4506065l11.7483332 8.3901399.0033492-3.447765-11.7516824-8.3925317v-3.4506065l11.7483332 8.3901399.0033492-3.4477651-11.7516824-8.3925317v-15.5919981l6.8869565-10.351145 4.3043479 2.5877862h17.2173913l4.3043478-2.5877862 6.8869565 10.351145v15.4132247l-12.0020106 8.5713051.0033492 3.4477651 11.9986614-8.5689133v3.4506065l-12.0020106 8.5713051.0033492 3.447765 11.9986614-8.5689132v3.4506065l-12.0020106 8.5713051.0033492 3.447765 11.9986614-8.5689133v6.1518856l-5.1652174 7.7633587-6.0260869 6.038168h-17.2173913l-6.026087-6.038168-5.1652174-7.7633587v-5.9731122l11.7483332 8.3901399.0033492-3.447765z"/><path d="m71.4521739 101.78626 11.1913044-11.2137409v-11.2137405l-11.1913044 9.4885496z" fill-rule="nonzero"/><path d="m15.4956522 101.78626 11.1913043-11.2137409v-11.2137405l-11.1913043 9.4885496z" fill-rule="nonzero" transform="matrix(-1 0 0 1 42.182608 0)"/><path d="m43.9043478 0h3.4434783v49.1679389h-5.1652174l-11.1913044-32.7786259 6.8869566-16.389313h2.5826087v19.8396947l3.4434782 1.7251908zm6.8869565 0h3.4434783v21.5648855l3.4434783-1.7251908v-19.8396947h2.5826087l6.8869565 16.389313-10.3304348 32.7786259h-6.026087z"/><g fill-rule="nonzero"><path d="m42.1826087 49.1679389-37.01739131-13.8015267-5.16521739-21.5648855 31.8521739 2.5877863 11.1913044 32.7786259z"/><path d="m98.1391304 49.1679389-37.0173913-13.8015267-5.1652174-21.5648855 32.7130435 2.5877863 10.3304348 32.7786259z" transform="matrix(-1 0 0 1 154.956522 0)"/><path d="m68.8695652 13.8015267 18.0782609-1.7251908-12.0521739-12.0763359h-12.0521739z"/><path d="m17.2173913 13.8015267 18.0782609-1.7251908-12.0521739-12.0763359h-12.052174z" transform="matrix(-1 0 0 1 46.486956 0)"/></g></g></g></svg>