<svg xmlns="http://www.w3.org/2000/svg" width="57" height="60" viewBox="0 0 57 60">
    <g fill="none" fill-rule="evenodd">
        <path fill="#262B2C" d="M28.34 0L0 9.957l4.323 36.917L28.34 59.979l24.018-13.105 4.323-36.917z"/>
        <path fill="#FFF" d="M20 43.855c0 1.035.856 1.874 1.91 1.874H33.63c1.055 0 1.91-.84 1.91-1.874V20.4H20v23.455zm7.77-1.938c.754 0 1.367.602 1.367 1.341 0 .74-.613 1.342-1.367 1.342-.755 0-1.368-.602-1.368-1.342 0-.74.613-1.341 1.368-1.341zM33.628 16H21.911C20.856 16 20 16.84 20 17.874v1.9h15.54v-1.9C35.538 16.84 34.683 16 33.627 16zm-9.207 2.329a.43.43 0 0 1-.434-.426.43.43 0 0 1 .434-.426c.239 0 .434.19.434.426a.43.43 0 0 1-.434.426zm5.28-.114h-3.862a.315.315 0 0 1-.318-.312c0-.173.142-.313.318-.313H29.7c.176 0 .319.14.319.313a.316.316 0 0 1-.319.312z"/>
        <g fill="#20272A">
            <path d="M27.502 30.707l-4.09-1.476-.62-2.528 3.246.628zM28.792 30.707l4.092-1.476.62-2.528-3.248.628zM25.861 26.895l-2.069-.394 1.405-1.798h1.766zM30.894 26.895l2.069-.394-1.405-1.798h-1.766z"/>
            <path d="M29.965 27.36l-1.462 3.693.437 2.802h-2.173l.492-2.806-1.467-3.688.952-2.658h2.249zM23.714 31.26l1.434.745v2.945l-2.356-1.951v-3.296l.922.366zM32.227 31.26l-1.435.745v2.945l2.357-1.951v-3.296l-.922.366z"/>
            <path d="M29.623 30.703l-.536.27v.509l.335 2.7-.719.708-.625.006-.626-.006-.72-.707.337-2.701v-.508l-.535-.271-.742 1.206v4.379l.766-.68 1.52-.016 1.52.016.764.68v-4.379zM29.495 38.098h-2.002l-.7-.697.7-.698h2.002l.723.698zM25.099 36.064l-1.307-1.403v-.958l1.307.826zM30.792 36.064l1.306-1.403v-.958l-1.306.826z"/>
            <path d="M29.433 36.077h-2.711l-.538.713-.392-.197.917-.89h2.747l.906.89-.384.197z"/>
        </g>
    </g>
</svg>
