<svg xmlns="http://www.w3.org/2000/svg" xmlns:xlink="http://www.w3.org/1999/xlink" width="115" height="21" viewBox="0 0 115 21">
    <defs>
        <path id="a" d="M10.29 10.612V.068H.634v10.544h9.656z"/>
    </defs>
    <g fill="none" fill-rule="evenodd">
        <path fill="#FFF" d="M57.547 6.15h.514V4.014h-1.674c-2.188 0-3.346 1.202-3.346 3.604v.267h-1.288v2.135h1.288v7.608h3.09V10.02h1.802V7.885H56.13v-.267c0-.935.514-1.468 1.416-1.468M59.735 7.885h-1.288v2.136h1.288v4.67c0 2.003.901 2.937 2.703 2.937h2.317v-2.269h-.643l-1.03-.134c-.129-.266-.257-.667-.257-1.334v-3.87h1.802V7.885h-1.802v-3.07h-3.09v3.07zM68.49 4.014h-3.091v13.614h3.09v-5.606c0-1.334.515-2.002 1.545-2.002.901 0 1.287.668 1.287 2.002v5.606h3.09v-5.606c0-1.334-.128-2.268-.386-2.802-.644-1.068-1.546-1.602-2.961-1.602-1.287 0-2.06.4-2.574 1.335V4.014zM79.689 13.49l1.93-.533v.801c0 1.335-.643 2.002-2.187 2.002-.772 0-1.287-.267-1.287-.935 0-.667.515-1.067 1.544-1.334m.515-3.87c.901 0 1.288.266 1.288.933 0 .401-.257.667-.9.801l-2.705.533c-1.802.535-2.704 1.603-2.704 3.071 0 .934.259 1.6 1.031 2.269.644.534 1.543.8 2.574.8 1.03 0 2.06-.4 3.091-1.2l.128.8h2.831l-.256-1.334V11.22c0-2.535-1.416-3.736-4.378-3.736-2.96 0-4.506 1.2-4.506 3.47h2.833c0-.801.514-1.335 1.673-1.335M88.444 7.885h-2.832v9.743H88.7v-5.606c0-1.334.515-2.001 1.546-2.001.9 0 1.416.667 1.416 2.001v5.606h3.09v-5.606a7.704 7.704 0 0 0-.516-2.803c-.643-1.067-1.545-1.601-2.962-1.601-1.028 0-2.06.4-2.703 1.335l-.128-1.068zM98.871 10.42c0-.534.388-.8 1.16-.8.9 0 1.287.4 1.415 1.335h2.962l-.516-1.736c-.515-1.2-1.802-1.735-3.733-1.735-3.09 0-4.507 1.068-4.507 3.337 0 1.468 1.032 2.402 3.22 2.937h.9c1.158.266 1.802.667 1.802 1.201s-.514.8-1.544.8-1.674-.4-1.674-1.201v-.133h-2.96c0 2.402 1.544 3.603 4.891 3.603 2.834 0 4.377-1.067 4.377-3.337 0-1.6-1.159-2.669-3.346-3.069l-1.03-.267c-.901-.133-1.417-.4-1.417-.934"/>
        <g transform="translate(104.545 7.417)">
            <mask id="b" fill="#fff">
                <use xlink:href="#a"/>
            </mask>
            <path fill="#FFF" d="M5.14 6.074l1.932-.534v.802c0 1.334-.644 2.001-2.19 2.001-.772 0-1.286-.267-1.286-.935 0-.667.514-1.066 1.544-1.334m.516-3.87c.9 0 1.288.266 1.288.933 0 .401-.26.668-.903.802l-2.704.533C1.535 5.006.634 6.074.634 7.542c0 .934.257 1.601 1.03 2.27.644.533 1.545.8 2.575.8 1.03 0 2.06-.4 3.09-1.201l.129.8h2.832l-.258-1.334V3.805c0-2.536-1.417-3.737-4.376-3.737-2.834 0-4.377 1.201-4.506 3.47h2.832c0-.801.515-1.334 1.674-1.334" mask="url(#b)"/>
        </g>
        <path fill="#FFF" d="M9.655 1.612c2.575 0 4.635.933 6.438 2.669 1.673 1.869 2.574 4.005 2.574 6.54 0 2.536-.9 4.672-2.574 6.54-1.803 1.736-3.863 2.67-6.309 2.67s-4.506-.934-6.307-2.67C1.803 15.493.902 13.357.902 10.821c0-2.535.9-4.671 2.575-6.54 1.801-1.736 3.861-2.67 6.178-2.67m7.08 2.003c-1.8-2.002-4.12-2.936-6.822-2.936-2.703 0-5.021.934-7.08 2.936C.901 5.616 0 8.018 0 10.821c0 2.937.902 5.205 2.832 7.207 1.932 2.002 4.249 2.937 6.952 2.937 2.704 0 5.02-.935 6.952-2.937 1.931-2.002 2.832-4.27 2.832-7.207 0-2.803-.9-5.205-2.832-7.207"/>
        <path fill="#FFF" d="M3.218 8.552l-.128.534-1.417-.4-.128.533c1.03.268 2.317.935 3.99 1.87 2.962 1.868 6.052 3.336 9.27 4.137l.901-.801h-.643c-1.932 0-3.476-.667-4.635-2.002a9.264 9.264 0 0 1 4.377-1.068l1.03.133.386-.533h-1.158l-2.704.134.129-.401h3.99l.387-.534h-4.12l.129-.267h4.248l.258-.4-4.249-.134.13-.4 4.376.133.386-.4-3.476-.267-3.475.266c-.515 1.602-1.545 2.404-3.09 2.404-.644 0-1.416-.268-2.318-.802l-.386-.267.13-.133 2.058.8.13-.266-4.378-1.87zM35.918 4.014h-3.219v13.614h8.755v-2.67h-5.536zM51.11 7.885h-3.09v5.605c0 1.335-.515 2.003-1.545 2.003-.902 0-1.287-.668-1.287-2.003V7.885h-3.09v5.873c0 1.067.128 2.002.515 2.535.514 1.068 1.416 1.602 2.96 1.602 1.031 0 1.932-.4 2.704-1.201v.934h2.832V7.885z"/>
    </g>
</svg>
