<svg xmlns="http://www.w3.org/2000/svg" xmlns:xlink="http://www.w3.org/1999/xlink" width="37" height="38" viewBox="0 0 37 38">
    <defs>
        <path id="a" d="M36.82 37.718V0H0v37.718z"/>
    </defs>
    <g fill="none" fill-rule="evenodd">
        <mask id="b" fill="#fff">
            <use xlink:href="#a"/>
        </mask>
        <path fill="#FFF" d="M36.036 15.66c-.04-.05-.066-.125-.1-.216-1.345-4.296-2.49-5.984-4.702-8.495-2.91-3.31-7.662-5.864-12.717-5.87-9.664 0-17.502 8.123-17.502 18.13 0 2.978.625 5.545 1.127 6.837.593 1.497 1.611 3.512 1.663 3.604a.517.517 0 0 1 .055.239.698.698 0 0 1-.165-.2c-.294-.44-1.494-2.68-1.869-3.657-.811-2.13-1.414-4.453-1.414-6.892C.412 8.825 8.475.455 18.442.455c8.899 0 16.08 6.406 17.594 14.982.006.08.03.15 0 .224zM3.31 27.905c-.61-1.309-1.252-3.15-1.518-4.608-.004-.085-.017-.153.007-.23.048.059.067.124.104.225.42 1.338.78 2.537 1.734 4.345l-.327.268zm.334-.167l12.896-9.605-1.104-.65L3.95 27.376c-1.292-2.424-2.189-5.532-2.189-8.49 0-9.368 7.198-16.95 16.318-17.008l-2.352 15.148 1.098.661 1.478-15.81c.026-.198.155-.198.155 0l.089 16.672 2.618-1.594-2.505-15.08c8.96.25 16.388 7.732 16.388 16.982 0 2.981-.875 6.095-2.195 8.535l-11.476-9.903-1.106.654L32.61 27.41c.297.217.205.317-.113.135L18.642 19.27v3.101l13.888 5.496c-2.909 4.915-8.163 8.061-14.173 8.061-6.02 0-11.189-3.142-14.102-8.067l13.915-5.499V19.26L3.764 27.88c-.347.193-.436.087-.12-.143zm14.761 9.265c-6.916 0-12.342-3.724-14.926-8.843l.395-.152c.67 1.137 1.55 2.133 2.73 3.48 1.452 1.656 6.046 4.847 11.794 4.847 6.123.001 11.5-3.287 14.518-8.311.232-.067.308-.172.228-.381 1.383-2.522 2.32-5.69 2.32-8.785 0-1.952-.274-3.536-.713-4.954a20.473 20.473 0 0 0-.987-2.55.418.418 0 0 1-.066-.244.636.636 0 0 1 .166.206c.267.508.863 1.744 1.144 2.549.378 1.079 1.058 2.566 1.058 4.993 0 9.925-7.845 18.15-17.66 18.145zm0-37.003C8.244-.005.001 8.441.001 18.857 0 29.27 8.237 37.716 18.404 37.718c10.171 0 18.417-8.442 18.417-18.861 0-10.41-8.243-18.858-18.417-18.858z" mask="url(#b)"/>
    </g>
</svg>
