<?xml version="1.0" encoding="UTF-8"?>
<svg width="86px" height="17px" viewBox="0 0 86 17" version="1.1" xmlns="http://www.w3.org/2000/svg" xmlns:xlink="http://www.w3.org/1999/xlink">
    <title>nvidia</title>
    <g id="Page-1" stroke="none" stroke-width="1" fill="none" fill-rule="evenodd">
        <g id="nvidia" fill="#FFFFFF" fill-rule="nonzero">
            <path d="M83.5242786,15.0627397 L83.5242786,14.7155397 L83.7468786,14.7155397 C83.8686786,14.7155397 84.0352786,14.7253397 84.0352786,14.8737397 C84.0352786,15.0347397 83.9498786,15.0627397 83.8056786,15.0627397 L83.5242786,15.0627397 Z M83.5242786,15.3063397 L83.6726786,15.3063397 L84.0184786,15.9125397 L84.3992786,15.9125397 L84.0156786,15.2825397 C84.2144786,15.2685397 84.3768786,15.1747397 84.3768786,14.9087397 C84.3768786,14.5769398 84.1472786,14.4705398 83.7622786,14.4705398 L83.2036786,14.4705398 L83.2036786,15.9125397 L83.5242786,15.9125397 L83.5242786,15.3063397 Z M85.1482785,15.1943397 C85.1482785,14.3459398 84.4888786,13.8545398 83.7552786,13.8545398 C83.0160786,13.8545398 82.3566786,14.3459398 82.3566786,15.1943397 C82.3566786,16.0413397 83.0160786,16.5355397 83.7552786,16.5355397 C84.4888786,16.5355397 85.1482785,16.0413397 85.1482785,15.1943397 M84.7450786,15.1943397 C84.7450786,15.8117397 84.2928786,16.2275397 83.7552786,16.2275397 L83.7552786,16.2233397 C83.2036786,16.2275397 82.7584786,15.8117397 82.7584786,15.1943397 C82.7584786,14.5769398 83.2036786,14.1639398 83.7552786,14.1639398 C84.2928786,14.1639398 84.7450786,14.5769398 84.7450786,15.1943397" id="path4"></path>
            <path d="M34.0297994,0.845599986 L34.0311994,16.0607997 L38.3277993,16.0607997 L38.3277993,0.845599986 L34.0297994,0.845599986 Z M0.223999996,0.824599986 L0.223999996,16.0607997 L4.55979992,16.0607997 L4.55979992,4.49259992 L7.91839987,4.49259992 C9.02999985,4.49259992 9.82239983,4.76839992 10.3599998,5.34239991 C11.0389998,6.0661999 11.3161998,7.23379988 11.3161998,9.37159984 L11.3161998,16.0607997 L15.5175997,16.0607997 L15.5175997,7.64259987 C15.5175997,1.63379997 11.6871998,0.824599986 7.94079986,0.824599986 L0.223999996,0.824599986 Z M40.9499993,0.845599986 L40.9499993,16.0607997 L47.9191992,16.0607997 C51.6333991,16.0607997 52.8457991,15.4433997 54.1561991,14.0587998 C55.0829991,13.0871998 55.6807991,10.9521998 55.6807991,8.62259985 C55.6807991,6.48339989 55.1739991,4.57519992 54.2905991,3.38659994 C52.6987991,1.25999998 50.4041991,0.845599986 46.9811992,0.845599986 L40.9499993,0.845599986 Z M45.2115992,4.15799993 L47.0595992,4.15799993 C49.7391992,4.15799993 51.4737991,5.36339991 51.4737991,8.48539986 C51.4737991,11.6101998 49.7391992,12.8141998 47.0595992,12.8141998 L45.2115992,12.8141998 L45.2115992,4.15799993 Z M27.8347995,0.845599986 L24.2465996,12.9051998 L20.8109996,0.845599986 L16.1713997,0.845599986 L21.0797996,16.0607997 L27.2733995,16.0607997 L32.2209995,0.845599986 L27.8347995,0.845599986 Z M57.679999,16.0607997 L61.9793989,16.0607997 L61.9793989,0.845599986 L57.679999,0.845599986 L57.679999,16.0607997 Z M69.7283988,0.851199986 L63.7279989,16.0579997 L67.9643988,16.0579997 L68.9135988,13.3685998 L76.0157987,13.3685998 L76.9145987,16.0579997 L81.5149986,16.0579997 L75.4683987,0.851199986 L69.7283988,0.851199986 Z M72.5171988,3.62459994 L75.1211987,10.7491998 L69.8319988,10.7491998 L72.5171988,3.62459994 Z" id="path6"></path>
        </g>
    </g>
</svg>