<svg height="60" viewBox="0 0 88 60" width="88" xmlns="http://www.w3.org/2000/svg"><path d="m14.625.36218c-8.070713 0-14.625 6.55429-14.625 14.625v10.75c0 8.0707 6.554285 14.625 14.625 14.625h7.03125c-.889932 5.9695-1.855321 11.353-3.59375 17.4375-.349575 1.193165.69423 2.573681 1.9375 2.5625 2.821805 0 5.142717-1.8521 7.34375-4.25s4.303627-5.55565 6.15625-9.03125c3.705245-6.9514 6.5-14.95585 6.5-20.71875 0-3.791667 0-7.583333 0-11.375 0-8.07071-6.554287-14.625-14.625-14.625zm48 0c-8.070713 0-14.625 6.55429-14.625 14.625v10.75c0 8.0707 6.554285 14.625 14.625 14.625h7.03125c-.889932 5.9695-1.855321 11.353-3.59375 17.4375-.349575 1.193165.69423 2.573681 1.9375 2.5625 2.821805 0 5.142717-1.8521 7.34375-4.25s4.303627-5.55565 6.15625-9.03125c3.705245-6.9514 6.5-14.95585 6.5-20.71875 0-3.791667 0-7.583333 0-11.375 0-8.07071-6.554287-14.625-14.625-14.625z" fill="#fff" transform="translate(0 -.36218)"/></svg>