<?xml version="1.0" encoding="UTF-8"?>
<svg width="20px" height="13px" viewBox="0 0 20 13" version="1.1" xmlns="http://www.w3.org/2000/svg" xmlns:xlink="http://www.w3.org/1999/xlink">
    <title>quote</title>
    <g id="Page-1" stroke="none" stroke-width="1" fill="none" fill-rule="evenodd">
        <g id="noun_quotation_1723400" fill="#FFFFFF" fill-rule="nonzero">
            <g id="quote">
                <path d="M11.0579999,0.683999991 L11.0579999,6.07999992 C11.0579999,6.38399992 11.2859999,6.61199992 11.5899999,6.61199992 L13.6039998,6.61199992 C13.9079998,6.61199992 14.1359998,6.38399992 14.1359998,6.07999992 C14.1359998,5.77599993 13.9079998,5.54799993 13.6039998,5.54799993 L12.1219998,5.54799993 L12.1219998,1.21599998 L18.3539998,1.21599998 L18.3539998,5.85199993 L13.6039998,11.0959999 C13.4139998,11.3239999 13.4139998,11.6279999 13.6419998,11.8559999 C13.7559998,11.9319999 13.8699998,12.0079998 13.9839998,12.0079998 C14.1359998,12.0079998 14.2879998,11.9319999 14.3639998,11.8179999 L19.2659998,6.42199992 C19.3419998,6.30799992 19.4179998,6.19399992 19.4179998,6.07999992 L19.4179998,0.683999991 C19.4179998,0.379999995 19.1899998,0.151999998 18.8859998,0.151999998 L11.5899999,0.151999998 C11.2859999,0.189999998 11.0579999,0.417999995 11.0579999,0.683999991 Z" id="Path"></path>
                <path d="M0.873999989,6.61199992 L2.88799996,6.61199992 C3.19199996,6.61199992 3.41999996,6.38399992 3.41999996,6.07999992 C3.41999996,5.77599993 3.19199996,5.54799993 2.88799996,5.54799993 L1.40599998,5.54799993 L1.40599998,1.21599998 L7.6379999,1.21599998 L7.6379999,5.85199993 L2.88799996,11.0959999 C2.69799997,11.3239999 2.69799997,11.6279999 2.92599996,11.8559999 C3.03999996,11.9319999 3.15399996,12.0079998 3.26799996,12.0079998 C3.41999996,12.0079998 3.57199996,11.9319999 3.64799995,11.8179999 L8.54999989,6.42199992 C8.62599989,6.30799992 8.70199989,6.19399992 8.70199989,6.07999992 L8.70199989,0.683999991 C8.70199989,0.379999995 8.47399989,0.151999998 8.1699999,0.151999998 L0.873999989,0.151999998 C0.569999993,0.151999998 0.341999996,0.379999995 0.341999996,0.683999991 L0.341999996,6.07999992 C0.341999996,6.38399992 0.569999993,6.61199992 0.873999989,6.61199992 Z" id="Path"></path>
            </g>
        </g>
    </g>
</svg>