<svg height="17" viewBox="0 0 102 17" width="102" xmlns="http://www.w3.org/2000/svg" xmlns:xlink="http://www.w3.org/1999/xlink"><mask id="a" fill="#fff"><path d="m5.893 7.51v-7.15h-5.532v7.15z" fill="none"/></mask><mask id="b" fill="#fff"><path d="m0 .551v9.287h9.807v-9.287z" fill="none"/></mask><g fill="#fff" fill-rule="evenodd"><path d="m64.711 8.075h.058l.411 5.272h1.115l2.937-6.778h-1.057l-2.173 5.334-.352-5.334h-1.233l-2.114 5.334-.354-5.334h-1.173l.705 6.778h1.116zm6.519-2.698.233-1.318h-1.057l-.234 1.318zm-.18 1.191h-1.055l-1.117 6.778h1.059zm2.116 2.825c.176-1.003.94-1.82 1.938-1.82h.354l.232-1.191h-.293c-.821 0-1.467.501-1.994 1.316l.175-1.13h-1l-1.173 6.778h1.116zm3.17 0c.179-.942.94-1.82 1.763-1.946v-1.002c-1.701.25-2.702 1.82-3.052 3.701-.296 1.944.527 3.388 2.288 3.388.295 0 .588 0 .764-.061v-1.006c-.118.063-.294.063-.469.063-1.176 0-1.704-.816-1.469-2.196h1.939v-.941h-1.763zm1.763 4.08v-1.006c.765-.188 1.293-.816 1.41-1.255h1.056c-.058.315-.53 1.318-1.409 1.882-.236.127-.529.314-1.057.379zm0-6.026c.118-.062.236-.062.354-.062 1.29 0 1.525 1.005 1.407 2.008h-1.76v.941h2.7c.059-.377.118-.753.118-1.066v-.44c-.06-1.505-.764-2.446-2.173-2.446-.235 0-.41 0-.646.063zm7.222 1.946c.179-.942.94-1.82 1.822-1.946v-1.002c-1.762.25-2.762 1.82-3.055 3.701-.351 1.944.471 3.388 2.29 3.388.293 0 .529 0 .765-.061v-1.006c-.177.063-.294.063-.472.063-1.232 0-1.7-.816-1.468-2.196h1.94v-.941zm1.822 4.08v-1.006c.762-.188 1.29-.816 1.408-1.255h1.058c-.118.315-.529 1.318-1.468 1.882-.236.127-.529.314-.998.379zm0-6.026c.057-.062.176-.062.293-.062 1.29 0 1.527 1.005 1.408 2.008h-1.701v.941h2.7c.06-.377.06-.753.117-1.066v-.44c-.058-1.505-.762-2.446-2.23-2.446-.176 0-.411 0-.587.063zm-3.173-3.387h-1.057l-1.526 9.287h1.058zm11.804 4.454c.06-.376.177-2.132-2.055-2.132-1.292 0-2.526.626-2.82 2.132-.116.941.354 1.444 1.234 1.693l1.174.315c.881.25 1.176.44 1.116.941-.118.752-.88 1.067-1.643 1.067-1.527 0-1.527-.816-1.47-1.38h-1.056c-.059.816-.176 2.383 2.35 2.383 1.468 0 2.7-.814 2.935-2.257.117-.88-.234-1.444-1.527-1.757l-.997-.314c-.822-.189-1.115-.315-1-.88.118-.879 1.058-1.003 1.411-1.003 1.35 0 1.35.753 1.29 1.192z"/><path d="m5.865 2.49c.057-.374.236-2.13-2.055-2.13-1.233 0-2.527.626-2.76 2.132-.177.941.351 1.444 1.173 1.693l1.176.315c.88.25 1.233.44 1.115.941-.119.752-.881 1.067-1.643 1.067-1.47 0-1.47-.816-1.47-1.38h-.997c-.117.816-.177 2.382 2.349 2.382 1.407 0 2.641-.815 2.876-2.257.118-.88-.235-1.444-1.469-1.757l-1.054-.314c-.764-.189-1.118-.315-1-.88.117-.879 1.116-1.002 1.412-1.002 1.35 0 1.407.753 1.35 1.192h.997z" mask="url(#a)" transform="translate(95.723 6.023)"/><path d="m31.71 4.06-.412 2.698h4.286l-5.52 7.78-.352 2.385h28.598l.411-1.853-24.664-.91 5.521-7.778.411-2.323z"/><path d="m29.36 13.346h-3.465l1.526-9.287h3.466zm-1.76-10.479.467-2.636h3.465l-.47 2.636z"/><path d="m1.466 9.838-1.466-9.287h3.463l.53 5.836 2.524-5.837h3.29l-4.464 9.288z" mask="url(#b)" transform="translate(0 3.508)"/><path d="m49.384 13.346 1.526-9.286h3.172l-.234 1.505c.94-1.129 1.937-1.757 3.229-1.757 2.29 0 3.172 1.444 2.7 3.954l-.88 5.585h-3.466l.765-4.956c.174-.878.06-1.695-.881-1.695-1.057 0-1.467.69-1.703 1.882l-.764 4.77h-3.464zm-30.594 0 1.527-9.287h3.17l-.35 1.82h.057c.704-1.38 1.704-2.072 2.995-2.072.117 0 .292.063.41.063l-.585 3.642c-.237-.066-.471-.127-.648-.127-1.408 0-2.23.753-2.584 2.762l-.528 3.2h-3.464zm25.779-7.027c-.881.25-1.292 1.38-1.467 2.257-.295 1.758.233 2.575 1.115 2.575.118 0 .236-.063.352-.063v2.445c-.295.063-.587.063-.94.063-2.818 0-4.698-1.63-4.168-4.83.467-2.95 2.524-4.644 5.108-4.896v2.45zm.47-.063c-.175 0-.293 0-.47.063v-2.449c.234-.063.47-.063.645-.063 3.113 0 4.7 1.946 4.228 4.77-.527 3.013-2.466 4.644-4.873 4.956v-2.445c.763-.189 1.291-1.004 1.527-2.512.233-1.38-.178-2.384-1.057-2.32zm-32.709 1.379h1.586v1.885h-1.88c-.175 1.128.472 1.819 1.41 1.819.177 0 .295 0 .47-.062v2.258c-.353.062-.704.062-1.058.062-2.817 0-4.696-1.693-4.169-4.83.47-2.824 2.644-4.707 5.227-4.896v2.134c-.88.125-1.408.753-1.587 1.631zm1.586 5.899v-2.258a1.84 1.84 0 0 0 .94-.754h3.347c-.822 1.946-2.584 2.76-4.287 3.012zm0-5.899h1.586c.117-.878-.47-1.63-1.293-1.63h-.293v-2.135c.176-.062.352-.062.529-.062 3.23 0 4.814 2.32 4.17 5.711h-4.7v-1.884z"/></g></svg>