<svg xmlns="http://www.w3.org/2000/svg" xmlns:xlink="http://www.w3.org/1999/xlink" width="105" height="16" viewBox="0 0 105 16">
    <defs>
        <path id="a" d="M0 0h104.866v15.853H0z"/>
        <path id="c" d="M0 16.044V.014h105.04v16.03"/>
    </defs>
    <g fill="none" fill-rule="evenodd" transform="matrix(1 0 0 -1 .01 15.917)">
        <mask id="b" fill="#fff">
            <use xlink:href="#a"/>
        </mask>
        <g mask="url(#b)">
            <g transform="translate(0 -.191)">
                <mask id="d" fill="#fff">
                    <use xlink:href="#c"/>
                </mask>
                <g fill="#FFF" fill-rule="nonzero" mask="url(#d)">
                    <path d="M19.954 15.898V2.211c0-1.068.64-1.842 2.048-1.842h2.22v15.529h-4.268zM93.709 4.764s-2.691 7.555-3.203 8.978c-.319.963-.788 2.156-2.987 2.156h-5.016V.369h1.687c1.3 0 2.111.565 2.111 1.884v10.84h.065L91.254.37h4.566l4.887 12.725h.065V2.232c0-1.089.598-1.863 2.111-1.863h2.114v15.529h-4.717c-1.664 0-2.688-.46-3.2-1.905l-3.286-9.229h-.085zM9.113 4.618s-3.671 9.417-3.885 9.961c-.277.733-.661 1.319-2.07 1.319H0L6.51.369h4.737l6.743 15.529h-2.795c-1.195 0-1.665-.502-1.964-1.256L9.177 4.618h-.064zm46.692 8.015h2.177c1.559 0 2.477.565 2.477 1.946v1.319h-6.19c-5.163 0-7.64-2.993-7.64-7.765 0-5.943 3.777-7.764 7.64-7.764h6.19v1.34c0 1.36-.961 1.925-2.37 1.925h-2.284c-2.452 0-4.736.858-4.736 4.5 0 3.16 1.73 4.5 4.736 4.5zM39.223 6.187c0-1.548-.725-2.762-2.859-2.762h-2.219c-1.558 0-2.474.418-2.474 1.653 0 1.193.853 1.674 2.474 1.674h5.078v-.565zm-2.068 9.711h-8.73v-1.193c0-1.046.554-2.072 2.07-2.072h5.57c2.348 0 3.158-.753 3.158-2.574v-.272h-5.888c-4.398 0-5.998-1.988-5.998-4.688 0-3.286 2.243-4.73 5.998-4.73h3.925c5.144 0 6.253 2.532 6.253 5.86v3.85c0 3.6-1.365 5.819-6.358 5.819zM70.447 3.466c2.774 0 4.395 1.884 4.395 4.667 0 2.951-1.73 4.668-4.395 4.668-2.839 0-4.44-1.863-4.44-4.668 0-2.678 1.559-4.667 4.44-4.667zm0 12.6c5.183 0 8.876-2.763 8.876-7.933 0-4.939-3.414-7.952-8.876-7.952-5.336 0-8.9 2.888-8.9 7.952 0 5.002 3.52 7.932 8.9 7.932z"/>
                </g>
            </g>
        </g>
    </g>
</svg>
